solid plate
  facet normal 0.000000e+00 1.000000e+00 0.000000e+00
    outer loop
      vertex -1.125000e-02 0.000000e+00 -1.125000e-02
      vertex -1.125000e-02 0.000000e+00 1.125000e-02
      vertex 1.125000e-02 0.000000e+00 1.125000e-02
    endloop
  endfacet
  facet normal 0.000000e+00 1.000000e+00 0.000000e+00
    outer loop
      vertex -1.125000e-02 0.000000e+00 -1.125000e-02
      vertex 1.125000e-02 0.000000e+00 1.125000e-02
      vertex 1.125000e-02 0.000000e+00 -1.125000e-02
    endloop
  endfacet
  facet normal 0.000000e+00 -1.000000e+00 0.000000e+00
    outer loop
      vertex -1.125000e-02 -5.625000e-03 -1.125000e-02
      vertex 1.125000e-02 -5.625000e-03 -1.125000e-02
      vertex 1.125000e-02 -5.625000e-03 1.125000e-02
    endloop
  endfacet
  facet normal 0.000000e+00 -1.000000e+00 0.000000e+00
    outer loop
      vertex -1.125000e-02 -5.625000e-03 -1.125000e-02
      vertex 1.125000e-02 -5.625000e-03 1.125000e-02
      vertex -1.125000e-02 -5.625000e-03 1.125000e-02
    endloop
  endfacet
  facet normal 0.000000e+00 0.000000e+00 -1.000000e+00
    outer loop
      vertex -1.125000e-02 0.000000e+00 -1.125000e-02
      vertex 1.125000e-02 0.000000e+00 -1.125000e-02
      vertex 1.125000e-02 -5.625000e-03 -1.125000e-02
    endloop
  endfacet
  facet normal 0.000000e+00 0.000000e+00 -1.000000e+00
    outer loop
      vertex -1.125000e-02 0.000000e+00 -1.125000e-02
      vertex 1.125000e-02 -5.625000e-03 -1.125000e-02
      vertex -1.125000e-02 -5.625000e-03 -1.125000e-02
    endloop
  endfacet
  facet normal 0.000000e+00 0.000000e+00 1.000000e+00
    outer loop
      vertex 1.125000e-02 0.000000e+00 1.125000e-02
      vertex -1.125000e-02 0.000000e+00 1.125000e-02
      vertex -1.125000e-02 -5.625000e-03 1.125000e-02
    endloop
  endfacet
  facet normal 0.000000e+00 0.000000e+00 1.000000e+00
    outer loop
      vertex 1.125000e-02 0.000000e+00 1.125000e-02
      vertex -1.125000e-02 -5.625000e-03 1.125000e-02
      vertex 1.125000e-02 -5.625000e-03 1.125000e-02
    endloop
  endfacet
  facet normal 1.000000e+00 0.000000e+00 -0.000000e+00
    outer loop
      vertex 1.125000e-02 0.000000e+00 -1.125000e-02
      vertex 1.125000e-02 0.000000e+00 1.125000e-02
      vertex 1.125000e-02 -5.625000e-03 1.125000e-02
    endloop
  endfacet
  facet normal 1.000000e+00 0.000000e+00 0.000000e+00
    outer loop
      vertex 1.125000e-02 0.000000e+00 -1.125000e-02
      vertex 1.125000e-02 -5.625000e-03 1.125000e-02
      vertex 1.125000e-02 -5.625000e-03 -1.125000e-02
    endloop
  endfacet
  facet normal -1.000000e+00 0.000000e+00 0.000000e+00
    outer loop
      vertex -1.125000e-02 0.000000e+00 -1.125000e-02
      vertex -1.125000e-02 -5.625000e-03 -1.125000e-02
      vertex -1.125000e-02 -5.625000e-03 1.125000e-02
    endloop
  endfacet
  facet normal -1.000000e+00 0.000000e+00 0.000000e+00
    outer loop
      vertex -1.125000e-02 0.000000e+00 -1.125000e-02
      vertex -1.125000e-02 -5.625000e-03 1.125000e-02
      vertex -1.125000e-02 0.000000e+00 1.125000e-02
    endloop
  endfacet
endsolid plate
