solid ExportedfromBlender-2.79(sub0)
  facet normal 0.17725004 0.96200524 0.20767364
    outer loop
       vertex 0.10018205 0.0030619179 -0.013145797
       vertex 0.10052439 0.0030243298 -0.013263866
       vertex 0.10024478 0.003123874 -0.013486334
    endloop
  endfacet
  facet normal -0.20681446 0.96858103 0.13812516
    outer loop
       vertex 0.098995678 0.002841135 -0.013373948
       vertex 0.10018205 0.0030619179 -0.013145797
       vertex 0.10024478 0.003123874 -0.013486334
    endloop
  endfacet
  facet normal -0.47409828 0.77322836 0.42112791
    outer loop
       vertex 0.10024478 0.003123874 -0.013486334
       vertex 0.1000834 0.0032375516 -0.013876731
       vertex 0.099450371 0.0029098659 -0.013987726
    endloop
  endfacet
  facet normal -0.22536173 0.97254453 -0.058044975
    outer loop
       vertex 0.10024478 0.003123874 -0.013486334
       vertex 0.099450371 0.0029098659 -0.013987726
       vertex 0.098995678 0.002841135 -0.013373948
    endloop
  endfacet
  facet normal -0.23191007 0.92015705 0.31548174
    outer loop
       vertex 0.10018205 0.0030619179 -0.013145797
       vertex 0.098995678 0.002841135 -0.013373948
       vertex 0.099793414 0.0027398764 -0.012492195
    endloop
  endfacet
  facet normal 0.15055549 0.8483773 0.50753227
    outer loop
       vertex 0.10018205 0.0030619179 -0.013145797
       vertex 0.099793414 0.0027398764 -0.012492195
       vertex 0.10095778 0.0026256555 -0.012646666
    endloop
  endfacet
  facet normal -0.87429731 0.40410565 -0.26889189
    outer loop
       vertex 0.098104164 0.0020884057 -0.013600805
       vertex 0.098353448 0.0021593589 -0.014304714
       vertex 0.097709909 0.0010725071 -0.013845639
    endloop
  endfacet
  facet normal -0.40949265 0.59978133 0.68744318
    outer loop
       vertex 0.099347988 0.001964276 -0.011968905
       vertex 0.098618758 0.0022368997 -0.012641148
       vertex 0.098494606 0.0011146543 -0.011735965
    endloop
  endfacet
  facet normal -0.92011234 0.37996805 -0.094960877
    outer loop
       vertex 0.098104164 0.0020884057 -0.013600805
       vertex 0.097709909 0.0010725071 -0.013845639
       vertex 0.09766107 0.0011870543 -0.012914086
    endloop
  endfacet
  facet normal -0.09266387 0.34876921 0.93261645
    outer loop
       vertex 0.099347988 0.001964276 -0.011968905
       vertex 0.098494606 0.0011146543 -0.011735965
       vertex 0.09967157 0.00084704418 -0.011518945
    endloop
  endfacet
  facet normal -0.86494166 -0.44482649 -0.23239045
    outer loop
       vertex 0.097691267 -0.00010022377 -0.014032404
       vertex 0.097897089 -0.00032847997 -0.014361548
       vertex 0.098138352 -0.0010475415 -0.013883131
    endloop
  endfacet
  facet normal -0.88859697 -0.43986506 -0.13005441
    outer loop
       vertex 0.098138352 -0.0010475415 -0.013883131
       vertex 0.098074962 -0.0010799795 -0.013340311
       vertex 0.097691267 -0.00010022377 -0.014032404
    endloop
  endfacet
  facet normal -0.88638981 -0.13326798 0.4433427
    outer loop
       vertex 0.097881897 4.8469401e-05 -0.012212528
       vertex 0.097548763 -0.00013987532 -0.012935189
       vertex 0.098120967 -0.0010164138 -0.012054649
    endloop
  endfacet
  facet normal -0.091652617 -0.23466762 0.96774527
    outer loop
       vertex 0.10000414 -0.0003090958 -0.011392093
       vertex 0.098713088 -0.00026211823 -0.011502973
       vertex 0.099451515 -0.0011764701 -0.011654759
    endloop
  endfacet
  facet normal -0.26090893 -0.79281302 0.55079401
    outer loop
       vertex 0.099451515 -0.0011764701 -0.011654759
       vertex 0.098120967 -0.0010164138 -0.012054649
       vertex 0.098871325 -0.0016080491 -0.012550808
    endloop
  endfacet
  facet normal -0.30771461 -0.3924003 0.86679509
    outer loop
       vertex 0.099451515 -0.0011764701 -0.011654759
       vertex 0.098713088 -0.00026211823 -0.011502973
       vertex 0.098120967 -0.0010164138 -0.012054649
    endloop
  endfacet
  facet normal -0.65652966 -0.035686528 0.75345556
    outer loop
       vertex 0.098713088 -0.00026211823 -0.011502973
       vertex 0.097881897 4.8469401e-05 -0.012212528
       vertex 0.098120967 -0.0010164138 -0.012054649
    endloop
  endfacet
  facet normal -0.59286059 -0.80299786 0.060916008
    outer loop
       vertex 0.098120967 -0.0010164138 -0.012054649
       vertex 0.098074962 -0.0010799795 -0.013340311
       vertex 0.098871325 -0.0016080491 -0.012550808
    endloop
  endfacet
  facet normal -0.86080514 -0.50586503 0.055812979
    outer loop
       vertex 0.098120967 -0.0010164138 -0.012054649
       vertex 0.097548763 -0.00013987532 -0.012935189
       vertex 0.098074962 -0.0010799795 -0.013340311
    endloop
  endfacet
  facet normal -0.88809375 -0.44052183 -0.13126315
    outer loop
       vertex 0.097548763 -0.00013987532 -0.012935189
       vertex 0.097691267 -0.00010022377 -0.014032404
       vertex 0.098074962 -0.0010799795 -0.013340311
    endloop
  endfacet
  facet normal -0.66396539 -0.72447653 0.18515861
    outer loop
       vertex 0.098871325 -0.0016080491 -0.012550808
       vertex 0.098074962 -0.0010799795 -0.013340311
       vertex 0.098319643 -0.0013602908 -0.013559688
    endloop
  endfacet
  facet normal -0.77585691 -0.1585285 0.61066748
    outer loop
       vertex 0.098319643 -0.0013602908 -0.013559688
       vertex 0.098659919 -0.0017641642 -0.013232211
       vertex 0.099010315 -0.0017900496 -0.01279375
    endloop
  endfacet
  facet normal -0.65392442 -0.73557764 0.17694176
    outer loop
       vertex 0.098319643 -0.0013602908 -0.013559688
       vertex 0.099010315 -0.0017900496 -0.01279375
       vertex 0.098871325 -0.0016080491 -0.012550808
    endloop
  endfacet
  facet normal -0.79469558 -0.59330332 -0.12825797
    outer loop
       vertex 0.098074962 -0.0010799795 -0.013340311
       vertex 0.098138352 -0.0010475415 -0.013883131
       vertex 0.098319643 -0.0013602908 -0.013559688
    endloop
  endfacet
  facet normal -0.0029056599 -0.0030988661 0.99999098
    outer loop
       vertex 0.10089937 0.00056107875 -0.011386795
       vertex 0.10000414 -0.0003090958 -0.011392093
       vertex 0.10078596 -0.00075790171 -0.011391212
    endloop
  endfacet
  facet normal -0.15338296 0.009879514 0.98811743
    outer loop
       vertex 0.10078596 -0.00075790171 -0.011391212
       vertex 0.10115334 -0.00030223554 -0.011338741
       vertex 0.10089937 0.00056107875 -0.011386795
    endloop
  endfacet
  facet normal -0.082175081 0.085310063 0.99295994
    outer loop
       vertex 0.09967157 0.00084704418 -0.011518945
       vertex 0.098713088 -0.00026211823 -0.011502973
       vertex 0.10000414 -0.0003090958 -0.011392093
    endloop
  endfacet
  facet normal -0.14814878 0.14211581 0.97870069
    outer loop
       vertex 0.09967157 0.00084704418 -0.011518945
       vertex 0.098494606 0.0011146543 -0.011735965
       vertex 0.098713088 -0.00026211823 -0.011502973
    endloop
  endfacet
  facet normal -0.64306126 0.027467068 0.76532201
    outer loop
       vertex 0.098494606 0.0011146543 -0.011735965
       vertex 0.097881897 4.8469401e-05 -0.012212528
       vertex 0.098713088 -0.00026211823 -0.011502973
    endloop
  endfacet
  facet normal -0.91276195 0.070855127 0.40229985
    outer loop
       vertex 0.09766107 0.0011870543 -0.012914086
       vertex 0.097548763 -0.00013987532 -0.012935189
       vertex 0.097881897 4.8469401e-05 -0.012212528
    endloop
  endfacet
  facet normal -0.99439868 0.085158327 -0.062604571
    outer loop
       vertex 0.09766107 0.0011870543 -0.012914086
       vertex 0.097709909 0.0010725071 -0.013845639
       vertex 0.097548763 -0.00013987532 -0.012935189
    endloop
  endfacet
  facet normal -0.9911921 0.036050314 -0.12743076
    outer loop
       vertex 0.097709909 0.0010725071 -0.013845639
       vertex 0.097691267 -0.00010022377 -0.014032404
       vertex 0.097548763 -0.00013987532 -0.012935189
    endloop
  endfacet
  facet normal -0.087323761 0.08379496 0.99264947
    outer loop
       vertex 0.10089937 0.00056107875 -0.011386795
       vertex 0.09967157 0.00084704418 -0.011518945
       vertex 0.10000414 -0.0003090958 -0.011392093
    endloop
  endfacet
  facet normal -0.040741731 0.26967398 0.96208942
    outer loop
       vertex 0.10089937 0.00056107875 -0.011386795
       vertex 0.10051048 0.0018760415 -0.011771848
       vertex 0.09967157 0.00084704418 -0.011518945
    endloop
  endfacet
  facet normal -0.13242439 0.33705559 0.93212516
    outer loop
       vertex 0.10051048 0.0018760415 -0.011771848
       vertex 0.099347988 0.001964276 -0.011968905
       vertex 0.09967157 0.00084704418 -0.011518945
    endloop
  endfacet
  facet normal -0.79406411 0.19972403 0.57408406
    outer loop
       vertex 0.098494606 0.0011146543 -0.011735965
       vertex 0.09766107 0.0011870543 -0.012914086
       vertex 0.097881897 4.8469401e-05 -0.012212528
    endloop
  endfacet
  facet normal -0.69359366 0.49718687 0.5212802
    outer loop
       vertex 0.098494606 0.0011146543 -0.011735965
       vertex 0.098618758 0.0022368997 -0.012641148
       vertex 0.09766107 0.0011870543 -0.012914086
    endloop
  endfacet
  facet normal -0.74169929 0.59721788 0.30530798
    outer loop
       vertex 0.098618758 0.0022368997 -0.012641148
       vertex 0.098104164 0.0020884057 -0.013600805
       vertex 0.09766107 0.0011870543 -0.012914086
    endloop
  endfacet
  facet normal -0.96237592 0.05758846 -0.26554877
    outer loop
       vertex 0.097691267 -0.00010022377 -0.014032404
       vertex 0.097709909 0.0010725071 -0.013845639
       vertex 0.097924723 0.0010420478 -0.014630753
    endloop
  endfacet
  facet normal -0.99431405 0.1064732 -0.0017418579
    outer loop
       vertex 0.097924723 0.0010420478 -0.014630753
       vertex 0.097893005 0.00074155591 -0.014892973
       vertex 0.097835085 0.00020558279 -0.014591987
    endloop
  endfacet
  facet normal -0.97543372 0.095326619 -0.19859984
    outer loop
       vertex 0.097924723 0.0010420478 -0.014630753
       vertex 0.097835085 0.00020558279 -0.014591987
       vertex 0.097691267 -0.00010022377 -0.014032404
    endloop
  endfacet
  facet normal -0.87255183 0.39555637 -0.2866853
    outer loop
       vertex 0.097709909 0.0010725071 -0.013845639
       vertex 0.098353448 0.0021593589 -0.014304714
       vertex 0.098255897 0.0016237644 -0.014746798
    endloop
  endfacet
  facet normal -0.86162625 0.44009208 -0.25282242
    outer loop
       vertex 0.098255897 0.0016237644 -0.014746798
       vertex 0.097924723 0.0010420478 -0.014630753
       vertex 0.097709909 0.0010725071 -0.013845639
    endloop
  endfacet
  facet normal -0.67710101 0.537868 -0.50222728
    outer loop
       vertex 0.098353448 0.0021593589 -0.014304714
       vertex 0.098581083 0.0020858907 -0.014690293
       vertex 0.098255897 0.0016237644 -0.014746798
    endloop
  endfacet
  facet normal 0.268308 0.6594391 0.70224703
    outer loop
       vertex 0.10135513 0.0024160147 -0.012601623
       vertex 0.10095778 0.0026256555 -0.012646666
       vertex 0.10051048 0.0018760415 -0.011771848
    endloop
  endfacet
  facet normal 0.23101262 0.36547431 0.90169934
    outer loop
       vertex 0.10051048 0.0018760415 -0.011771848
       vertex 0.10141085 0.0016597878 -0.011914868
       vertex 0.10176092 0.0021847057 -0.012217313
    endloop
  endfacet
  facet normal -0.019961758 0.8471582 0.53096564
    outer loop
       vertex 0.10051048 0.0018760415 -0.011771848
       vertex 0.10176092 0.0021847057 -0.012217313
       vertex 0.10135513 0.0024160147 -0.012601623
    endloop
  endfacet
  facet normal 0.16070826 0.70738577 0.6883155
    outer loop
       vertex 0.10095778 0.0026256555 -0.012646666
       vertex 0.099793414 0.0027398764 -0.012492195
       vertex 0.10051048 0.0018760415 -0.011771848
    endloop
  endfacet
  facet normal -0.090757862 0.59228111 0.80060358
    outer loop
       vertex 0.099793414 0.0027398764 -0.012492195
       vertex 0.099347988 0.001964276 -0.011968905
       vertex 0.10051048 0.0018760415 -0.011771848
    endloop
  endfacet
  facet normal -0.36456126 0.65555314 0.66132078
    outer loop
       vertex 0.099793414 0.0027398764 -0.012492195
       vertex 0.098618758 0.0022368997 -0.012641148
       vertex 0.099347988 0.001964276 -0.011968905
    endloop
  endfacet
  facet normal -0.39889612 0.79758564 0.45248098
    outer loop
       vertex 0.099793414 0.0027398764 -0.012492195
       vertex 0.098995678 0.002841135 -0.013373948
       vertex 0.098618758 0.0022368997 -0.012641148
    endloop
  endfacet
  facet normal -0.66111339 0.70923957 0.24476176
    outer loop
       vertex 0.098995678 0.002841135 -0.013373948
       vertex 0.098104164 0.0020884057 -0.013600805
       vertex 0.098618758 0.0022368997 -0.012641148
    endloop
  endfacet
  facet normal -0.61756429 0.7738325 -0.14070399
    outer loop
       vertex 0.098995678 0.002841135 -0.013373948
       vertex 0.098353448 0.0021593589 -0.014304714
       vertex 0.098104164 0.0020884057 -0.013600805
    endloop
  endfacet
  facet normal -0.47523339 0.84122686 -0.25785771
    outer loop
       vertex 0.098995678 0.002841135 -0.013373948
       vertex 0.099450371 0.0029098659 -0.013987726
       vertex 0.098954076 0.002477407 -0.014483891
    endloop
  endfacet
  facet normal -0.51035048 0.82268439 -0.25046514
    outer loop
       vertex 0.098954076 0.002477407 -0.014483891
       vertex 0.098353448 0.0021593589 -0.014304714
       vertex 0.098995678 0.002841135 -0.013373948
    endloop
  endfacet
  facet normal 0.29103137 0.83499973 -0.46698629
    outer loop
       vertex 0.10558406 0.0053753162 -0.017856197
       vertex 0.10801413 0.0034837196 -0.01972404
       vertex 0.10476089 0.004220311 -0.020434429
    endloop
  endfacet
  facet normal 0.79497425 0.44898841 -0.40795263
    outer loop
       vertex 0.10928094 0.00028998182 -0.020770412
       vertex 0.10801413 0.0034837196 -0.01972404
       vertex 0.11016141 0.00089743074 -0.018386104
    endloop
  endfacet
  facet normal -0.12874576 0.91970288 -0.37090584
    outer loop
       vertex 0.10558406 0.0053753162 -0.017856197
       vertex 0.10476089 0.004220311 -0.020434429
       vertex 0.10245202 0.0051646498 -0.017291399
    endloop
  endfacet
  facet normal -0.050037246 0.99436898 0.093416284
    outer loop
       vertex 0.10558406 0.0053753162 -0.017856197
       vertex 0.10245202 0.0051646498 -0.017291399
       vertex 0.10427683 0.0050092616 -0.014659934
    endloop
  endfacet
  facet normal 0.42450639 0.86344397 0.27250473
    outer loop
       vertex 0.10558406 0.0053753162 -0.017856197
       vertex 0.10427683 0.0050092616 -0.014659934
       vertex 0.1079663 0.0038462991 -0.016722463
    endloop
  endfacet
  facet normal 0.93684054 0.013857278 -0.34948216
    outer loop
       vertex 0.10928094 0.00028998182 -0.020770412
       vertex 0.11016141 0.00089743074 -0.018386104
       vertex 0.10996899 -0.0027099488 -0.01904495
    endloop
  endfacet
  facet normal -0.027578281 0.24454864 -0.96924476
    outer loop
       vertex 0.1034156 0.001570299 -0.022459633
       vertex 0.10650285 0.0012556763 -0.022626858
       vertex 0.10386347 -0.0023878925 -0.023471062
    endloop
  endfacet
  facet normal -0.76708566 0.4994371 -0.40266881
    outer loop
       vertex 0.09948311 0.0032240901 -0.01708712
       vertex 0.10098551 0.0029929943 -0.02023583
       vertex 0.098428257 0.00024594483 -0.018771467
    endloop
  endfacet
  facet normal -0.21708144 0.79128453 0.57161564
    outer loop
       vertex 0.10176092 0.0021847057 -0.012217313
       vertex 0.10312938 0.0028770022 -0.012655956
       vertex 0.1007854 0.0037228054 -0.014716964
    endloop
  endfacet
  facet normal -0.20917028 0.91228714 0.35210789
    outer loop
       vertex 0.1007854 0.0037228054 -0.014716964
       vertex 0.1000834 0.0032375516 -0.013876731
       vertex 0.10024478 0.003123874 -0.013486334
    endloop
  endfacet
  facet normal -0.020875978 0.90254638 0.4300863
    outer loop
       vertex 0.1007854 0.0037228054 -0.014716964
       vertex 0.10024478 0.003123874 -0.013486334
       vertex 0.10052439 0.0030243298 -0.013263866
    endloop
  endfacet
  facet normal -0.017139646 0.84855634 0.52882736
    outer loop
       vertex 0.10135513 0.0024160147 -0.012601623
       vertex 0.10176092 0.0021847057 -0.012217313
       vertex 0.1007854 0.0037228054 -0.014716964
    endloop
  endfacet
  facet normal 0.89359027 0.44745748 0.035752241
    outer loop
       vertex 0.1012803 0.0025748878 -0.012719597
       vertex 0.10135513 0.0024160147 -0.012601623
       vertex 0.1007854 0.0037228054 -0.014716964
    endloop
  endfacet
  facet normal 0.16581053 0.8768491 0.45126769
    outer loop
       vertex 0.1007854 0.0037228054 -0.014716964
       vertex 0.10052439 0.0030243298 -0.013263866
       vertex 0.10110313 0.0027085726 -0.012862972
    endloop
  endfacet
  facet normal 0.30974887 0.8555072 0.41492537
    outer loop
       vertex 0.1007854 0.0037228054 -0.014716964
       vertex 0.10110313 0.0027085726 -0.012862972
       vertex 0.1012803 0.0025748878 -0.012719597
    endloop
  endfacet
  facet normal 0.59464857 0.27765701 0.75451949
    outer loop
       vertex 0.10924427 0.0010045612 -0.015080832
       vertex 0.1064136 0.0024324506 -0.01337539
       vertex 0.10765328 -0.0012901649 -0.012982507
    endloop
  endfacet
  facet normal 0.78721693 -0.16172608 -0.59509174
    outer loop
       vertex 0.10928094 0.00028998182 -0.020770412
       vertex 0.10996899 -0.0027099488 -0.01904495
       vertex 0.10752985 -0.0031572465 -0.02215
    endloop
  endfacet
  facet normal -0.35530556 0.19347968 -0.91450729
    outer loop
       vertex 0.1034156 0.001570299 -0.022459633
       vertex 0.10386347 -0.0023878925 -0.023471062
       vertex 0.10071945 -0.00076550964 -0.021906301
    endloop
  endfacet
  facet normal -0.9169699 0.38465695 -0.10585479
    outer loop
       vertex 0.09948311 0.0032240901 -0.01708712
       vertex 0.098428257 0.00024594483 -0.018771467
       vertex 0.098241454 0.00065172039 -0.015678766
    endloop
  endfacet
  facet normal 0.17830302 0.25046596 0.95156441
    outer loop
       vertex 0.10413397 -0.00016812684 -0.012042672
       vertex 0.10312938 0.0028770022 -0.012655956
       vertex 0.10176092 0.0021847057 -0.012217313
    endloop
  endfacet
  facet normal 0.22513074 0.36934532 0.90160977
    outer loop
       vertex 0.10176092 0.0021847057 -0.012217313
       vertex 0.10141085 0.0016597878 -0.011914868
       vertex 0.10148115 0.0010275645 -0.011673432
    endloop
  endfacet
  facet normal 0.47562186 0.44008756 0.76164741
    outer loop
       vertex 0.10148115 0.0010275645 -0.011673432
       vertex 0.10144185 0.0005741093 -0.011386878
       vertex 0.10189774 6.2688274e-05 -0.011376059
    endloop
  endfacet
  facet normal 0.30030324 0.36819646 0.87991439
    outer loop
       vertex 0.10189774 6.2688274e-05 -0.011376059
       vertex 0.10413397 -0.00016812684 -0.012042672
       vertex 0.10176092 0.0021847057 -0.012217313
    endloop
  endfacet
  facet normal 0.21686631 0.37181767 0.90261876
    outer loop
       vertex 0.10176092 0.0021847057 -0.012217313
       vertex 0.10148115 0.0010275645 -0.011673432
       vertex 0.10189774 6.2688274e-05 -0.011376059
    endloop
  endfacet
  facet normal 0.79905525 -0.0042211819 0.60124279
    outer loop
       vertex 0.10924427 0.0010045612 -0.015080832
       vertex 0.10765328 -0.0012901649 -0.012982507
       vertex 0.10997273 -0.0022439748 -0.016071777
    endloop
  endfacet
  facet normal 0.25037375 -0.8296046 -0.49906833
    outer loop
       vertex 0.10483513 -0.0056378373 -0.022191329
       vertex 0.10734109 -0.0062986408 -0.019835679
       vertex 0.10348414 -0.0075610309 -0.019672162
    endloop
  endfacet
  facet normal -0.69972888 -0.56516038 -0.43700485
    outer loop
       vertex 0.09867581 -0.0030908891 -0.020325441
       vertex 0.10133239 -0.0051334526 -0.021937574
       vertex 0.099890838 -0.0059336318 -0.018594532
    endloop
  endfacet
  facet normal -0.83472572 -0.39825197 0.38030032
    outer loop
       vertex 0.098793711 -0.0023456145 -0.014079295
       vertex 0.097767871 -0.0029317222 -0.016944699
       vertex 0.099919859 -0.0053227364 -0.014725155
    endloop
  endfacet
  facet normal -0.092447117 -0.56321736 0.82112102
    outer loop
       vertex 0.10522307 -0.0026615175 -0.012394989
       vertex 0.10182927 -0.0026767075 -0.012787505
       vertex 0.10386724 -0.0052442019 -0.014319134
    endloop
  endfacet
  facet normal 0.52607583 -0.78235856 0.33340561
    outer loop
       vertex 0.10916799 -0.0043705297 -0.017648386
       vertex 0.1077048 -0.0040243757 -0.014527363
       vertex 0.10615821 -0.0062922893 -0.017408829
    endloop
  endfacet
  facet normal 0.31710171 -0.80149159 0.50700861
    outer loop
       vertex 0.10615821 -0.0062922893 -0.017408829
       vertex 0.10386724 -0.0052442019 -0.014319134
       vertex 0.10235623 -0.0072199881 -0.016497461
    endloop
  endfacet
  facet normal 0.28784785 -0.82155791 0.49212419
    outer loop
       vertex 0.10615821 -0.0062922893 -0.017408829
       vertex 0.1077048 -0.0040243757 -0.014527363
       vertex 0.10386724 -0.0052442019 -0.014319134
    endloop
  endfacet
  facet normal 0.24803771 -0.65913307 0.70994429
    outer loop
       vertex 0.1077048 -0.0040243757 -0.014527363
       vertex 0.10522307 -0.0026615175 -0.012394989
       vertex 0.10386724 -0.0052442019 -0.014319134
    endloop
  endfacet
  facet normal -0.056872618 -0.71955593 0.6921017
    outer loop
       vertex 0.10386724 -0.0052442019 -0.014319134
       vertex 0.099919859 -0.0053227364 -0.014725155
       vertex 0.10235623 -0.0072199881 -0.016497461
    endloop
  endfacet
  facet normal -0.074291517 -0.55373029 0.82937539
    outer loop
       vertex 0.10386724 -0.0052442019 -0.014319134
       vertex 0.10182927 -0.0026767075 -0.012787505
       vertex 0.099919859 -0.0053227364 -0.014725155
    endloop
  endfacet
  facet normal -0.39959084 -0.33616584 0.8528304
    outer loop
       vertex 0.10182927 -0.0026767075 -0.012787505
       vertex 0.098793711 -0.0023456145 -0.014079295
       vertex 0.099919859 -0.0053227364 -0.014725155
    endloop
  endfacet
  facet normal -0.54598249 -0.82690597 0.13464636
    outer loop
       vertex 0.099919859 -0.0053227364 -0.014725155
       vertex 0.099890838 -0.0059336318 -0.018594532
       vertex 0.10235623 -0.0072199881 -0.016497461
    endloop
  endfacet
  facet normal -0.7847712 -0.6112691 0.10239263
    outer loop
       vertex 0.099919859 -0.0053227364 -0.014725155
       vertex 0.097767871 -0.0029317222 -0.016944699
       vertex 0.099890838 -0.0059336318 -0.018594532
    endloop
  endfacet
  facet normal -0.84869415 -0.48754921 -0.20497318
    outer loop
       vertex 0.097767871 -0.0029317222 -0.016944699
       vertex 0.09867581 -0.0030908891 -0.020325441
       vertex 0.099890838 -0.0059336318 -0.018594532
    endloop
  endfacet
  facet normal -0.42536747 -0.90340368 -0.054076892
    outer loop
       vertex 0.099890838 -0.0059336318 -0.018594532
       vertex 0.10348414 -0.0075610309 -0.019672162
       vertex 0.10235623 -0.0072199881 -0.016497461
    endloop
  endfacet
  facet normal -0.47457761 -0.78753631 -0.39314457
    outer loop
       vertex 0.099890838 -0.0059336318 -0.018594532
       vertex 0.10133239 -0.0051334526 -0.021937574
       vertex 0.10348414 -0.0075610309 -0.019672162
    endloop
  endfacet
  facet normal -0.15421519 -0.74371079 -0.65047055
    outer loop
       vertex 0.10133239 -0.0051334526 -0.021937574
       vertex 0.10483513 -0.0056378373 -0.022191329
       vertex 0.10348414 -0.0075610309 -0.019672162
    endloop
  endfacet
  facet normal 0.27714616 -0.93990215 0.19943407
    outer loop
       vertex 0.10348414 -0.0075610309 -0.019672162
       vertex 0.10615821 -0.0062922893 -0.017408829
       vertex 0.10235623 -0.0072199881 -0.016497461
    endloop
  endfacet
  facet normal 0.3132336 -0.93692075 0.15512649
    outer loop
       vertex 0.10348414 -0.0075610309 -0.019672162
       vertex 0.10734109 -0.0062986408 -0.019835679
       vertex 0.10615821 -0.0062922893 -0.017408829
    endloop
  endfacet
  facet normal 0.53405084 -0.80369905 0.2624072
    outer loop
       vertex 0.10734109 -0.0062986408 -0.019835679
       vertex 0.10916799 -0.0043705297 -0.017648386
       vertex 0.10615821 -0.0062922893 -0.017408829
    endloop
  endfacet
  facet normal 0.71879001 -0.56859883 0.40004536
    outer loop
       vertex 0.10997273 -0.0022439748 -0.016071777
       vertex 0.1077048 -0.0040243757 -0.014527363
       vertex 0.10916799 -0.0043705297 -0.017648386
    endloop
  endfacet
  facet normal 0.69750101 -0.34249423 0.62943629
    outer loop
       vertex 0.10997273 -0.0022439748 -0.016071777
       vertex 0.10765328 -0.0012901649 -0.012982507
       vertex 0.1077048 -0.0040243757 -0.014527363
    endloop
  endfacet
  facet normal 0.43645131 -0.43634616 0.78683688
    outer loop
       vertex 0.10765328 -0.0012901649 -0.012982507
       vertex 0.10522307 -0.0026615175 -0.012394989
       vertex 0.1077048 -0.0040243757 -0.014527363
    endloop
  endfacet
  facet normal -0.11204203 -0.18684574 0.97597913
    outer loop
       vertex 0.10413397 -0.00016812684 -0.012042672
       vertex 0.10182927 -0.0026767075 -0.012787505
       vertex 0.10522307 -0.0026615175 -0.012394989
    endloop
  endfacet
  facet normal 0.21170477 -0.45181333 0.86662899
    outer loop
       vertex 0.10182927 -0.0026767075 -0.012787505
       vertex 0.10413397 -0.00016812684 -0.012042672
       vertex 0.10189774 6.2688274e-05 -0.011376059
    endloop
  endfacet
  facet normal 0.16824731 -0.24557921 0.95466418
    outer loop
       vertex 0.10189774 6.2688274e-05 -0.011376059
       vertex 0.10115334 -0.00030223554 -0.011338741
       vertex 0.10078596 -0.00075790171 -0.011391212
    endloop
  endfacet
  facet normal 0.43732505 -0.5074448 0.74245981
    outer loop
       vertex 0.10078596 -0.00075790171 -0.011391212
       vertex 0.10056201 -0.0010858227 -0.011483422
       vertex 0.10071577 -0.0014775278 -0.011841708
    endloop
  endfacet
  facet normal 0.24635646 -0.44876098 0.85902391
    outer loop
       vertex 0.10071577 -0.0014775278 -0.011841708
       vertex 0.10182927 -0.0026767075 -0.012787505
       vertex 0.10189774 6.2688274e-05 -0.011376059
    endloop
  endfacet
  facet normal 0.37207303 -0.51832244 0.77000227
    outer loop
       vertex 0.10189774 6.2688274e-05 -0.011376059
       vertex 0.10078596 -0.00075790171 -0.011391212
       vertex 0.10071577 -0.0014775278 -0.011841708
    endloop
  endfacet
  facet normal -0.94184162 0.0057701979 0.33600755
    outer loop
       vertex 0.098241454 0.00065172039 -0.015678766
       vertex 0.097767871 -0.0029317222 -0.016944699
       vertex 0.098793711 -0.0023456145 -0.014079295
    endloop
  endfacet
  facet normal -0.98411054 0.15839983 -0.080224265
    outer loop
       vertex 0.098241454 0.00065172039 -0.015678766
       vertex 0.098428257 0.00024594483 -0.018771467
       vertex 0.097767871 -0.0029317222 -0.016944699
    endloop
  endfacet
  facet normal -0.96396855 0.050148334 -0.26124658
    outer loop
       vertex 0.098428257 0.00024594483 -0.018771467
       vertex 0.09867581 -0.0030908891 -0.020325441
       vertex 0.097767871 -0.0029317222 -0.016944699
    endloop
  endfacet
  facet normal -0.55747855 -0.072308023 -0.82703641
    outer loop
       vertex 0.10071945 -0.00076550964 -0.021906301
       vertex 0.10133239 -0.0051334526 -0.021937574
       vertex 0.09867581 -0.0030908891 -0.020325441
    endloop
  endfacet
  facet normal -0.46922573 -0.059536919 -0.881069
    outer loop
       vertex 0.10071945 -0.00076550964 -0.021906301
       vertex 0.10386347 -0.0023878925 -0.023471062
       vertex 0.10133239 -0.0051334526 -0.021937574
    endloop
  endfacet
  facet normal -0.12285676 -0.39519807 -0.91034318
    outer loop
       vertex 0.10386347 -0.0023878925 -0.023471062
       vertex 0.10483513 -0.0056378373 -0.022191329
       vertex 0.10133239 -0.0051334526 -0.021937574
    endloop
  endfacet
  facet normal 0.50082643 -0.53269163 -0.68221149
    outer loop
       vertex 0.10752985 -0.0031572465 -0.02215
       vertex 0.10734109 -0.0062986408 -0.019835679
       vertex 0.10483513 -0.0056378373 -0.022191329
    endloop
  endfacet
  facet normal 0.73986538 -0.42728613 -0.51964005
    outer loop
       vertex 0.10752985 -0.0031572465 -0.02215
       vertex 0.10996899 -0.0027099488 -0.01904495
       vertex 0.10734109 -0.0062986408 -0.019835679
    endloop
  endfacet
  facet normal 0.81154089 -0.55216428 -0.19109159
    outer loop
       vertex 0.10996899 -0.0027099488 -0.01904495
       vertex 0.10916799 -0.0043705297 -0.017648386
       vertex 0.10734109 -0.0062986408 -0.019835679
    endloop
  endfacet
  facet normal 0.24965031 -0.027723982 0.9679391
    outer loop
       vertex 0.10765328 -0.0012901649 -0.012982507
       vertex 0.10413397 -0.00016812684 -0.012042672
       vertex 0.10522307 -0.0026615175 -0.012394989
    endloop
  endfacet
  facet normal 0.31228711 0.20196475 0.92827097
    outer loop
       vertex 0.10765328 -0.0012901649 -0.012982507
       vertex 0.1064136 0.0024324506 -0.01337539
       vertex 0.10413397 -0.00016812684 -0.012042672
    endloop
  endfacet
  facet normal 0.24058338 0.26729343 0.93309906
    outer loop
       vertex 0.1064136 0.0024324506 -0.01337539
       vertex 0.10312938 0.0028770022 -0.012655956
       vertex 0.10413397 -0.00016812684 -0.012042672
    endloop
  endfacet
  facet normal -0.77734242 0.54614162 0.31219882
    outer loop
       vertex 0.1007854 0.0037228054 -0.014716964
       vertex 0.09948311 0.0032240901 -0.01708712
       vertex 0.098241454 0.00065172039 -0.015678766
    endloop
  endfacet
  facet normal -0.7473775 0.23411997 -0.62178349
    outer loop
       vertex 0.098428257 0.00024594483 -0.018771467
       vertex 0.10071945 -0.00076550964 -0.021906301
       vertex 0.09867581 -0.0030908891 -0.020325441
    endloop
  endfacet
  facet normal -0.70931921 0.32760742 -0.62413111
    outer loop
       vertex 0.098428257 0.00024594483 -0.018771467
       vertex 0.10098551 0.0029929943 -0.02023583
       vertex 0.10071945 -0.00076550964 -0.021906301
    endloop
  endfacet
  facet normal -0.49186627 0.38245619 -0.78217315
    outer loop
       vertex 0.10098551 0.0029929943 -0.02023583
       vertex 0.1034156 0.001570299 -0.022459633
       vertex 0.10071945 -0.00076550964 -0.021906301
    endloop
  endfacet
  facet normal 0.27263813 -0.28084062 -0.92021573
    outer loop
       vertex 0.10386347 -0.0023878925 -0.023471062
       vertex 0.10752985 -0.0031572465 -0.02215
       vertex 0.10483513 -0.0056378373 -0.022191329
    endloop
  endfacet
  facet normal 0.33442989 -0.023974216 -0.94211564
    outer loop
       vertex 0.10386347 -0.0023878925 -0.023471062
       vertex 0.10650285 0.0012556763 -0.022626858
       vertex 0.10752985 -0.0031572465 -0.02215
    endloop
  endfacet
  facet normal 0.56528563 0.042537128 -0.82379776
    outer loop
       vertex 0.10650285 0.0012556763 -0.022626858
       vertex 0.10928094 0.00028998182 -0.020770412
       vertex 0.10752985 -0.0031572465 -0.02215
    endloop
  endfacet
  facet normal 0.91795419 -0.39207774 0.060292253
    outer loop
       vertex 0.10996899 -0.0027099488 -0.01904495
       vertex 0.10997273 -0.0022439748 -0.016071777
       vertex 0.10916799 -0.0043705297 -0.017648386
    endloop
  endfacet
  facet normal 0.99848205 -0.054592458 0.0072979982
    outer loop
       vertex 0.10996899 -0.0027099488 -0.01904495
       vertex 0.11016141 0.00089743074 -0.018386104
       vertex 0.10997273 -0.0022439748 -0.016071777
    endloop
  endfacet
  facet normal 0.95591684 0.1347805 0.26087777
    outer loop
       vertex 0.11016141 0.00089743074 -0.018386104
       vertex 0.10924427 0.0010045612 -0.015080832
       vertex 0.10997273 -0.0022439748 -0.016071777
    endloop
  endfacet
  facet normal 0.61436576 0.58325891 0.5313791
    outer loop
       vertex 0.1079663 0.0038462991 -0.016722463
       vertex 0.1064136 0.0024324506 -0.01337539
       vertex 0.10924427 0.0010045612 -0.015080832
    endloop
  endfacet
  facet normal 0.50844049 0.68301805 0.52438023
    outer loop
       vertex 0.1079663 0.0038462991 -0.016722463
       vertex 0.10427683 0.0050092616 -0.014659934
       vertex 0.1064136 0.0024324506 -0.01337539
    endloop
  endfacet
  facet normal 0.24819452 0.58914174 0.76896781
    outer loop
       vertex 0.10427683 0.0050092616 -0.014659934
       vertex 0.10312938 0.0028770022 -0.012655956
       vertex 0.1064136 0.0024324506 -0.01337539
    endloop
  endfacet
  facet normal -0.2802628 0.73316126 0.61961869
    outer loop
       vertex 0.10427683 0.0050092616 -0.014659934
       vertex 0.1007854 0.0037228054 -0.014716964
       vertex 0.10312938 0.0028770022 -0.012655956
    endloop
  endfacet
  facet normal -0.33544028 0.89771865 0.28562395
    outer loop
       vertex 0.10427683 0.0050092616 -0.014659934
       vertex 0.10245202 0.0051646498 -0.017291399
       vertex 0.1007854 0.0037228054 -0.014716964
    endloop
  endfacet
  facet normal -0.53741103 0.83479208 0.11963098
    outer loop
       vertex 0.10245202 0.0051646498 -0.017291399
       vertex 0.09948311 0.0032240901 -0.01708712
       vertex 0.1007854 0.0037228054 -0.014716964
    endloop
  endfacet
  facet normal -0.53466114 0.78507091 -0.31273172
    outer loop
       vertex 0.10245202 0.0051646498 -0.017291399
       vertex 0.10098551 0.0029929943 -0.02023583
       vertex 0.09948311 0.0032240901 -0.01708712
    endloop
  endfacet
  facet normal -0.29545348 0.83322149 -0.46738548
    outer loop
       vertex 0.10245202 0.0051646498 -0.017291399
       vertex 0.10476089 0.004220311 -0.020434429
       vertex 0.10098551 0.0029929943 -0.02023583
    endloop
  endfacet
  facet normal -0.25322003 0.66528796 -0.70233293
    outer loop
       vertex 0.10476089 0.004220311 -0.020434429
       vertex 0.1034156 0.001570299 -0.022459633
       vertex 0.10098551 0.0029929943 -0.02023583
    endloop
  endfacet
  facet normal 0.83766126 0.50158928 0.2161754
    outer loop
       vertex 0.11016141 0.00089743074 -0.018386104
       vertex 0.1079663 0.0038462991 -0.016722463
       vertex 0.10924427 0.0010045612 -0.015080832
    endloop
  endfacet
  facet normal 0.78347416 0.61830337 -0.062202759
    outer loop
       vertex 0.11016141 0.00089743074 -0.018386104
       vertex 0.10801413 0.0034837196 -0.01972404
       vertex 0.1079663 0.0038462991 -0.016722463
    endloop
  endfacet
  facet normal 0.56788348 0.81819741 -0.089785045
    outer loop
       vertex 0.10801413 0.0034837196 -0.01972404
       vertex 0.10558406 0.0053753162 -0.017856197
       vertex 0.1079663 0.0038462991 -0.016722463
    endloop
  endfacet
  facet normal 0.01801268 0.60132144 -0.79880415
    outer loop
       vertex 0.10476089 0.004220311 -0.020434429
       vertex 0.10650285 0.0012556763 -0.022626858
       vertex 0.1034156 0.001570299 -0.022459633
    endloop
  endfacet
  facet normal 0.30002177 0.67487113 -0.67419278
    outer loop
       vertex 0.10476089 0.004220311 -0.020434429
       vertex 0.10801413 0.0034837196 -0.01972404
       vertex 0.10650285 0.0012556763 -0.022626858
    endloop
  endfacet
  facet normal 0.59876646 0.45374026 -0.65999886
    outer loop
       vertex 0.10801413 0.0034837196 -0.01972404
       vertex 0.10928094 0.00028998182 -0.020770412
       vertex 0.10650285 0.0012556763 -0.022626858
    endloop
  endfacet
  facet normal -0.31591362 -0.83718952 0.44644406
    outer loop
       vertex 0.099010315 -0.0017900496 -0.01279375
       vertex 0.099292922 -0.0017699476 -0.012556075
       vertex 0.098871325 -0.0016080491 -0.012550808
    endloop
  endfacet
  facet normal -0.80184239 0.43868192 -0.40571783
    outer loop
       vertex 0.098241454 0.00065172039 -0.015678766
       vertex 0.097893005 0.00074155591 -0.014892973
       vertex 0.097924723 0.0010420478 -0.014630753
    endloop
  endfacet
  facet normal -0.82941445 0.39298572 -0.39703135
    outer loop
       vertex 0.098241454 0.00065172039 -0.015678766
       vertex 0.097924723 0.0010420478 -0.014630753
       vertex 0.098255897 0.0016237644 -0.014746798
    endloop
  endfacet
  facet normal -0.71731458 0.66212432 -0.21691284
    outer loop
       vertex 0.1000834 0.0032375516 -0.013876731
       vertex 0.1007854 0.0037228054 -0.014716964
       vertex 0.098241454 0.00065172039 -0.015678766
    endloop
  endfacet
  facet normal -0.37662803 0.85130786 -0.36527559
    outer loop
       vertex 0.098954076 0.002477407 -0.014483891
       vertex 0.099450371 0.0029098659 -0.013987726
       vertex 0.1000834 0.0032375516 -0.013876731
    endloop
  endfacet
  facet normal -0.65581563 0.5275127 -0.54003352
    outer loop
       vertex 0.098241454 0.00065172039 -0.015678766
       vertex 0.098255897 0.0016237644 -0.014746798
       vertex 0.098581083 0.0020858907 -0.014690293
    endloop
  endfacet
  facet normal 0.45366061 0.037207493 -0.89039747
    outer loop
       vertex 0.098581083 0.0020858907 -0.014690293
       vertex 0.098954076 0.002477407 -0.014483891
       vertex 0.1000834 0.0032375516 -0.013876731
    endloop
  endfacet
  facet normal 0.013283095 0.56531122 -0.82477075
    outer loop
       vertex 0.098581083 0.0020858907 -0.014690293
       vertex 0.1000834 0.0032375516 -0.013876731
       vertex 0.098241454 0.00065172039 -0.015678766
    endloop
  endfacet
  facet normal 0.1910649 0.86677196 0.46065234
    outer loop
       vertex 0.10018205 0.0030619179 -0.013145797
       vertex 0.10095778 0.0026256555 -0.012646666
       vertex 0.10110313 0.0027085726 -0.012862972
    endloop
  endfacet
  facet normal 0.22857011 0.89757179 0.37698884
    outer loop
       vertex 0.10110313 0.0027085726 -0.012862972
       vertex 0.10052439 0.0030243298 -0.013263866
       vertex 0.10018205 0.0030619179 -0.013145797
    endloop
  endfacet
  facet normal -0.079476709 -0.66176537 0.74548645
    outer loop
       vertex 0.10182927 -0.0026767075 -0.012787505
       vertex 0.10071577 -0.0014775278 -0.011841708
       vertex 0.099875009 -0.0015248731 -0.011973371
    endloop
  endfacet
  facet normal 0.32806916 -0.89067242 -0.31475905
    outer loop
       vertex 0.099292922 -0.0017699476 -0.012556075
       vertex 0.099010315 -0.0017900496 -0.01279375
       vertex 0.098659919 -0.0017641642 -0.013232211
    endloop
  endfacet
  facet normal -0.23168736 -0.79216953 0.5646135
    outer loop
       vertex 0.10182927 -0.0026767075 -0.012787505
       vertex 0.099875009 -0.0015248731 -0.011973371
       vertex 0.099292922 -0.0017699476 -0.012556075
    endloop
  endfacet
  facet normal -0.30346094 -0.80726883 0.50619018
    outer loop
       vertex 0.098659919 -0.0017641642 -0.013232211
       vertex 0.098793711 -0.0023456145 -0.014079295
       vertex 0.10182927 -0.0026767075 -0.012787505
    endloop
  endfacet
  facet normal -0.30142353 -0.91315782 0.27438414
    outer loop
       vertex 0.099292922 -0.0017699476 -0.012556075
       vertex 0.098659919 -0.0017641642 -0.013232211
       vertex 0.10182927 -0.0026767075 -0.012787505
    endloop
  endfacet
  facet normal -0.51913751 0.72942046 -0.44546833
    outer loop
       vertex 0.098954076 0.002477407 -0.014483891
       vertex 0.098581083 0.0020858907 -0.014690293
       vertex 0.098353448 0.0021593589 -0.014304714
    endloop
  endfacet
  facet normal -0.82711047 -0.51574368 0.22337574
    outer loop
       vertex 0.098793711 -0.0023456145 -0.014079295
       vertex 0.098659919 -0.0017641642 -0.013232211
       vertex 0.098319643 -0.0013602908 -0.013559688
    endloop
  endfacet
  facet normal -0.88784714 -0.45671488 0.056026557
    outer loop
       vertex 0.098793711 -0.0023456145 -0.014079295
       vertex 0.098319643 -0.0013602908 -0.013559688
       vertex 0.098138352 -0.0010475415 -0.013883131
    endloop
  endfacet
  facet normal -0.87176725 -0.34581286 -0.34703793
    outer loop
       vertex 0.097893005 0.00074155591 -0.014892973
       vertex 0.098241454 0.00065172039 -0.015678766
       vertex 0.098793711 -0.0023456145 -0.014079295
    endloop
  endfacet
  facet normal -0.46085224 -0.39616586 -0.79414597
    outer loop
       vertex 0.097897089 -0.00032847997 -0.014361548
       vertex 0.097835085 0.00020558279 -0.014591987
       vertex 0.097893005 0.00074155591 -0.014892973
    endloop
  endfacet
  facet normal -0.88831923 -0.42064235 -0.18425244
    outer loop
       vertex 0.098793711 -0.0023456145 -0.014079295
       vertex 0.098138352 -0.0010475415 -0.013883131
       vertex 0.097897089 -0.00032847997 -0.014361548
    endloop
  endfacet
  facet normal -0.58647697 -0.36207262 -0.72453308
    outer loop
       vertex 0.097897089 -0.00032847997 -0.014361548
       vertex 0.097893005 0.00074155591 -0.014892973
       vertex 0.098793711 -0.0023456145 -0.014079295
    endloop
  endfacet
  facet normal 0.26340471 0.6520208 0.71097597
    outer loop
       vertex 0.10135513 0.0024160147 -0.012601623
       vertex 0.1012803 0.0025748878 -0.012719597
       vertex 0.10095778 0.0026256555 -0.012646666
    endloop
  endfacet
  facet normal -0.074150819 -0.68876271 0.72118485
    outer loop
       vertex 0.099875009 -0.0015248731 -0.011973371
       vertex 0.10071577 -0.0014775278 -0.011841708
       vertex 0.10056201 -0.0010858227 -0.011483422
    endloop
  endfacet
  facet normal -0.051098819 -0.70708468 0.7052802
    outer loop
       vertex 0.10056201 -0.0010858227 -0.011483422
       vertex 0.099451515 -0.0011764701 -0.011654759
       vertex 0.099875009 -0.0015248731 -0.011973371
    endloop
  endfacet
  facet normal 0.23167864 0.36942667 0.89991607
    outer loop
       vertex 0.10148115 0.0010275645 -0.011673432
       vertex 0.10141085 0.0016597878 -0.011914868
       vertex 0.10051048 0.0018760415 -0.011771848
    endloop
  endfacet
  facet normal 0.19279672 0.32783743 0.92485245
    outer loop
       vertex 0.10051048 0.0018760415 -0.011771848
       vertex 0.10089937 0.00056107875 -0.011386795
       vertex 0.10148115 0.0010275645 -0.011673432
    endloop
  endfacet
  facet normal 0.24192363 0.84052106 0.4847652
    outer loop
       vertex 0.1012803 0.0025748878 -0.012719597
       vertex 0.10110313 0.0027085726 -0.012862972
       vertex 0.10095778 0.0026256555 -0.012646666
    endloop
  endfacet
  facet normal -0.88943424 -0.26419444 -0.37297189
    outer loop
       vertex 0.097835085 0.00020558279 -0.014591987
       vertex 0.097897089 -0.00032847997 -0.014361548
       vertex 0.097691267 -0.00010022377 -0.014032404
    endloop
  endfacet
  facet normal -0.012720934 0.5349531 0.84478598
    outer loop
       vertex 0.10144185 0.0005741093 -0.011386878
       vertex 0.10148115 0.0010275645 -0.011673432
       vertex 0.10089937 0.00056107875 -0.011386795
    endloop
  endfacet
  facet normal -0.11372733 -0.19620195 0.97394604
    outer loop
       vertex 0.10056201 -0.0010858227 -0.011483422
       vertex 0.10078596 -0.00075790171 -0.011391212
       vertex 0.10000414 -0.0003090958 -0.011392093
    endloop
  endfacet
  facet normal -0.13242671 -0.20903907 0.96889929
    outer loop
       vertex 0.10000414 -0.0003090958 -0.011392093
       vertex 0.099451515 -0.0011764701 -0.011654759
       vertex 0.10056201 -0.0010858227 -0.011483422
    endloop
  endfacet
  facet normal -0.22946425 -0.79388264 0.56311324
    outer loop
       vertex 0.099292922 -0.0017699476 -0.012556075
       vertex 0.099875009 -0.0015248731 -0.011973371
       vertex 0.099451515 -0.0011764701 -0.011654759
    endloop
  endfacet
  facet normal -0.29055447 -0.77489098 0.56135735
    outer loop
       vertex 0.099451515 -0.0011764701 -0.011654759
       vertex 0.098871325 -0.0016080491 -0.012550808
       vertex 0.099292922 -0.0017699476 -0.012556075
    endloop
  endfacet
  facet normal 0.027629418 0.045754216 0.99857056
    outer loop
       vertex 0.10115334 -0.00030223554 -0.011338741
       vertex 0.10189774 6.2688274e-05 -0.011376059
       vertex 0.10144185 0.0005741093 -0.011386878
    endloop
  endfacet
  facet normal -0.0011744091 0.05523177 0.99847287
    outer loop
       vertex 0.10144185 0.0005741093 -0.011386878
       vertex 0.10089937 0.00056107875 -0.011386795
       vertex 0.10115334 -0.00030223554 -0.011338741
    endloop
  endfacet
endsolid ExportedfromBlender-2.79(sub0)
