solid ExportedfromBlender-2.79(sub0)
  facet normal 0.85864848 0.37187009 0.35275406
    outer loop
       vertex 0.031282601 0.0051593497 -0.0091009318
       vertex 0.031218185 0.0047675431 -0.0085310957
       vertex 0.031553517 0.0045455403 -0.0091133028
    endloop
  endfacet
  facet normal 0.91413518 0.40412072 -0.032300337
    outer loop
       vertex 0.031173176 0.0052198828 -0.011440446
       vertex 0.031282601 0.0051593497 -0.0091009318
       vertex 0.031553517 0.0045455403 -0.0091133028
    endloop
  endfacet
  facet normal 0.67510121 0.6923446 -0.25474948
    outer loop
       vertex 0.031553517 0.0045455403 -0.0091133028
       vertex 0.031978712 0.003971961 -0.0095453537
       vertex 0.031529488 0.003931587 -0.010845551
    endloop
  endfacet
  facet normal 0.96984547 0.2251718 -0.093259984
    outer loop
       vertex 0.031553517 0.0045455403 -0.0091133028
       vertex 0.031529488 0.003931587 -0.010845551
       vertex 0.031173176 0.0052198828 -0.011440446
    endloop
  endfacet
  facet normal 0.82399643 0.56609097 -0.023893439
    outer loop
       vertex 0.031282601 0.0051593497 -0.0091009318
       vertex 0.031173176 0.0052198828 -0.011440446
       vertex 0.030431149 0.0063765763 -0.0096254661
    endloop
  endfacet
  facet normal 0.67438543 0.63448261 0.37767196
    outer loop
       vertex 0.031282601 0.0051593497 -0.0091009318
       vertex 0.030431149 0.0063765763 -0.0096254661
       vertex 0.030116017 0.0054932897 -0.0075788485
    endloop
  endfacet
  facet normal 0.52945385 0.058788156 -0.84629934
    outer loop
       vertex 0.030040037 0.0049088692 -0.013379768
       vertex 0.030476518 0.0035579366 -0.013200543
       vertex 0.028354944 0.0042128203 -0.014482331
    endloop
  endfacet
  facet normal 0.43440755 0.88681396 -0.15764226
    outer loop
       vertex 0.028819127 0.0071884141 -0.010431731
       vertex 0.029762676 0.0064499809 -0.011985681
       vertex 0.027276783 0.0076417144 -0.012131864
    endloop
  endfacet
  facet normal 0.46527121 0.22830113 -0.85522003
    outer loop
       vertex 0.030040037 0.0049088692 -0.013379768
       vertex 0.028354944 0.0042128203 -0.014482331
       vertex 0.028116562 0.0059577286 -0.014146216
    endloop
  endfacet
  facet normal 0.10389719 0.98044071 0.1671568
    outer loop
       vertex 0.028819127 0.0071884141 -0.010431731
       vertex 0.027276783 0.0076417144 -0.012131864
       vertex 0.026495888 0.0073517423 -0.0099456948
    endloop
  endfacet
  facet normal -0.29821855 -0.10418016 -0.94879513
    outer loop
       vertex 0.0262949 0.0033728598 -0.014911155
       vertex 0.026004838 0.0025840091 -0.014733367
       vertex 0.024411938 0.0030121453 -0.014279708
    endloop
  endfacet
  facet normal -0.31779616 -0.00086913806 -0.94815866
    outer loop
       vertex 0.024411938 0.0030121453 -0.014279708
       vertex 0.024096246 0.0040021417 -0.014174805
       vertex 0.0262949 0.0033728598 -0.014911155
    endloop
  endfacet
  facet normal -0.16998311 0.60828126 -0.77530617
    outer loop
       vertex 0.025646797 0.0066121962 -0.01374829
       vertex 0.025706629 0.0053921808 -0.014718594
       vertex 0.023575969 0.0063147646 -0.013527624
    endloop
  endfacet
  facet normal -0.4670665 0.87924123 0.093721622
    outer loop
       vertex 0.024258079 0.0069140095 -0.0095906542
       vertex 0.024599375 0.0073522464 -0.012001071
       vertex 0.022879195 0.0063266684 -0.010952305
    endloop
  endfacet
  facet normal -0.88369405 0.4012855 -0.24094558
    outer loop
       vertex 0.022879195 0.0063266684 -0.010952305
       vertex 0.023575969 0.0063147646 -0.013527624
       vertex 0.022615527 0.0048069925 -0.012516235
    endloop
  endfacet
  facet normal -0.57543482 0.80216428 -0.15939647
    outer loop
       vertex 0.022879195 0.0063266684 -0.010952305
       vertex 0.024599375 0.0073522464 -0.012001071
       vertex 0.023575969 0.0063147646 -0.013527624
    endloop
  endfacet
  facet normal -0.17438469 0.86481242 -0.4708391
    outer loop
       vertex 0.024599375 0.0073522464 -0.012001071
       vertex 0.025646797 0.0066121962 -0.01374829
       vertex 0.023575969 0.0063147646 -0.013527624
    endloop
  endfacet
  facet normal -0.74064116 0.021310743 -0.67156275
    outer loop
       vertex 0.023575969 0.0063147646 -0.013527624
       vertex 0.024096246 0.0040021417 -0.014174805
       vertex 0.022615527 0.0048069925 -0.012516235
    endloop
  endfacet
  facet normal -0.43135574 0.15182877 -0.88931448
    outer loop
       vertex 0.023575969 0.0063147646 -0.013527624
       vertex 0.025706629 0.0053921808 -0.014718594
       vertex 0.024096246 0.0040021417 -0.014174805
    endloop
  endfacet
  facet normal -0.3181592 -0.002282795 -0.94803455
    outer loop
       vertex 0.025706629 0.0053921808 -0.014718594
       vertex 0.0262949 0.0033728598 -0.014911155
       vertex 0.024096246 0.0040021417 -0.014174805
    endloop
  endfacet
  facet normal -0.69113963 0.17399757 -0.70146337
    outer loop
       vertex 0.022615527 0.0048069925 -0.012516235
       vertex 0.024096246 0.0040021417 -0.014174805
       vertex 0.023650733 0.0033688715 -0.013892931
    endloop
  endfacet
  facet normal -0.24628907 0.73218056 -0.6350223
    outer loop
       vertex 0.023650733 0.0033688715 -0.013892931
       vertex 0.022695434 0.0036169859 -0.013236349
       vertex 0.022378596 0.0042249891 -0.012412438
    endloop
  endfacet
  facet normal -0.70053795 0.16120626 -0.69516841
    outer loop
       vertex 0.023650733 0.0033688715 -0.013892931
       vertex 0.022378596 0.0042249891 -0.012412438
       vertex 0.022615527 0.0048069925 -0.012516235
    endloop
  endfacet
  facet normal -0.47367179 -0.057925185 -0.87879446
    outer loop
       vertex 0.024096246 0.0040021417 -0.014174805
       vertex 0.024411938 0.0030121453 -0.014279708
       vertex 0.023650733 0.0033688715 -0.013892931
    endloop
  endfacet
  facet normal -0.25957439 0.94053039 0.21914316
    outer loop
       vertex 0.025714953 0.0068771751 -0.0077069046
       vertex 0.024258079 0.0069140095 -0.0095906542
       vertex 0.023311619 0.0063455757 -0.0082720984
    endloop
  endfacet
  facet normal -0.23176624 0.97001626 0.073163275
    outer loop
       vertex 0.023311619 0.0063455757 -0.0082720984
       vertex 0.024065924 0.0064638878 -0.0074512272
       vertex 0.025714953 0.0068771751 -0.0077069046
    endloop
  endfacet
  facet normal -0.16617082 0.97406607 0.15356613
    outer loop
       vertex 0.026495888 0.0073517423 -0.0099456948
       vertex 0.024599375 0.0073522464 -0.012001071
       vertex 0.024258079 0.0069140095 -0.0095906542
    endloop
  endfacet
  facet normal -0.10242849 0.99021714 0.094754506
    outer loop
       vertex 0.026495888 0.0073517423 -0.0099456948
       vertex 0.027276783 0.0076417144 -0.012131864
       vertex 0.024599375 0.0073522464 -0.012001071
    endloop
  endfacet
  facet normal -0.11771175 0.88710438 -0.4463068
    outer loop
       vertex 0.027276783 0.0076417144 -0.012131864
       vertex 0.025646797 0.0066121962 -0.01374829
       vertex 0.024599375 0.0073522464 -0.012001071
    endloop
  endfacet
  facet normal 0.039280473 0.6231586 -0.78110844
    outer loop
       vertex 0.028116562 0.0059577286 -0.014146216
       vertex 0.025706629 0.0053921808 -0.014718594
       vertex 0.025646797 0.0066121962 -0.01374829
    endloop
  endfacet
  facet normal 0.17910714 0.20962814 -0.96123705
    outer loop
       vertex 0.028116562 0.0059577286 -0.014146216
       vertex 0.028354944 0.0042128203 -0.014482331
       vertex 0.025706629 0.0053921808 -0.014718594
    endloop
  endfacet
  facet normal 0.14820333 0.13657722 -0.9794807
    outer loop
       vertex 0.028354944 0.0042128203 -0.014482331
       vertex 0.0262949 0.0033728598 -0.014911155
       vertex 0.025706629 0.0053921808 -0.014718594
    endloop
  endfacet
  facet normal -0.16713065 0.97471511 0.14831653
    outer loop
       vertex 0.025714953 0.0068771751 -0.0077069046
       vertex 0.026495888 0.0073517423 -0.0099456948
       vertex 0.024258079 0.0069140095 -0.0095906542
    endloop
  endfacet
  facet normal 0.015927271 0.9769976 0.21265469
    outer loop
       vertex 0.025714953 0.0068771751 -0.0077069046
       vertex 0.028379796 0.0069481208 -0.0082324396
       vertex 0.026495888 0.0073517423 -0.0099456948
    endloop
  endfacet
  facet normal 0.0959825 0.98724285 0.127039
    outer loop
       vertex 0.028379796 0.0069481208 -0.0082324396
       vertex 0.028819127 0.0071884141 -0.010431731
       vertex 0.026495888 0.0073517423 -0.0099456948
    endloop
  endfacet
  facet normal 0.10959311 0.78460365 -0.61023476
    outer loop
       vertex 0.027276783 0.0076417144 -0.012131864
       vertex 0.028116562 0.0059577286 -0.014146216
       vertex 0.025646797 0.0066121962 -0.01374829
    endloop
  endfacet
  facet normal 0.40143033 0.77809921 -0.48313074
    outer loop
       vertex 0.027276783 0.0076417144 -0.012131864
       vertex 0.029762676 0.0064499809 -0.011985681
       vertex 0.028116562 0.0059577286 -0.014146216
    endloop
  endfacet
  facet normal 0.55714925 0.60998787 -0.56347095
    outer loop
       vertex 0.029762676 0.0064499809 -0.011985681
       vertex 0.030040037 0.0049088692 -0.013379768
       vertex 0.028116562 0.0059577286 -0.014146216
    endloop
  endfacet
  facet normal 0.20206982 0.0044059849 -0.97936121
    outer loop
       vertex 0.0262949 0.0033728598 -0.014911155
       vertex 0.028354944 0.0042128203 -0.014482331
       vertex 0.028650262 0.002688223 -0.014428257
    endloop
  endfacet
  facet normal 0.1839955 0.27174468 -0.94461658
    outer loop
       vertex 0.028650262 0.002688223 -0.014428257
       vertex 0.028231626 0.0021012485 -0.01467866
       vertex 0.027108515 0.0024341361 -0.014801659
    endloop
  endfacet
  facet normal 0.22228174 0.079308615 -0.9717515
    outer loop
       vertex 0.028650262 0.002688223 -0.014428257
       vertex 0.027108515 0.0024341361 -0.014801659
       vertex 0.0262949 0.0033728598 -0.014911155
    endloop
  endfacet
  facet normal 0.52564841 0.03965272 -0.84977727
    outer loop
       vertex 0.028354944 0.0042128203 -0.014482331
       vertex 0.030476518 0.0035579366 -0.013200543
       vertex 0.029724327 0.0025766926 -0.013711615
    endloop
  endfacet
  facet normal 0.55894987 0.07899385 -0.8254302
    outer loop
       vertex 0.029724327 0.0025766926 -0.013711615
       vertex 0.028650262 0.002688223 -0.014428257
       vertex 0.028354944 0.0042128203 -0.014482331
    endloop
  endfacet
  facet normal 0.70212975 -0.17931983 -0.68909956
    outer loop
       vertex 0.030476518 0.0035579366 -0.013200543
       vertex 0.03049508 0.0027252232 -0.012964939
       vertex 0.029724327 0.0025766926 -0.013711615
    endloop
  endfacet
  facet normal 0.43283242 0.74474692 0.507945
    outer loop
       vertex 0.029647052 0.0052924877 -0.0068848168
       vertex 0.030116017 0.0054932897 -0.0075788485
       vertex 0.028379796 0.0069481208 -0.0082324396
    endloop
  endfacet
  facet normal 0.10155304 0.87416474 0.4748926
    outer loop
       vertex 0.028379796 0.0069481208 -0.0082324396
       vertex 0.027912641 0.006166761 -0.0066942428
       vertex 0.028970749 0.0056868857 -0.0060371764
    endloop
  endfacet
  facet normal 0.68108611 0.69893211 0.21821004
    outer loop
       vertex 0.028379796 0.0069481208 -0.0082324396
       vertex 0.028970749 0.0056868857 -0.0060371764
       vertex 0.029647052 0.0052924877 -0.0068848168
    endloop
  endfacet
  facet normal 0.49135067 0.76959303 0.4078003
    outer loop
       vertex 0.030116017 0.0054932897 -0.0075788485
       vertex 0.030431149 0.0063765763 -0.0096254661
       vertex 0.028379796 0.0069481208 -0.0082324396
    endloop
  endfacet
  facet normal 0.37215259 0.91172467 0.17395565
    outer loop
       vertex 0.030431149 0.0063765763 -0.0096254661
       vertex 0.028819127 0.0071884141 -0.010431731
       vertex 0.028379796 0.0069481208 -0.0082324396
    endloop
  endfacet
  facet normal 0.49116488 0.86380439 -0.11224545
    outer loop
       vertex 0.030431149 0.0063765763 -0.0096254661
       vertex 0.029762676 0.0064499809 -0.011985681
       vertex 0.028819127 0.0071884141 -0.010431731
    endloop
  endfacet
  facet normal 0.68437812 0.70859928 -0.17179539
    outer loop
       vertex 0.030431149 0.0063765763 -0.0096254661
       vertex 0.031173176 0.0052198828 -0.011440446
       vertex 0.029762676 0.0064499809 -0.011985681
    endloop
  endfacet
  facet normal 0.67401218 0.55859335 -0.48340568
    outer loop
       vertex 0.031173176 0.0052198828 -0.011440446
       vertex 0.030040037 0.0049088692 -0.013379768
       vertex 0.029762676 0.0064499809 -0.011985681
    endloop
  endfacet
  facet normal 0.83166687 0.1999849 -0.51801183
    outer loop
       vertex 0.031173176 0.0052198828 -0.011440446
       vertex 0.030476518 0.0035579366 -0.013200543
       vertex 0.030040037 0.0049088692 -0.013379768
    endloop
  endfacet
  facet normal 0.91506069 0.069642925 -0.39725786
    outer loop
       vertex 0.031173176 0.0052198828 -0.011440446
       vertex 0.031529488 0.003931587 -0.010845551
       vertex 0.031055242 0.003088933 -0.012085674
    endloop
  endfacet
  facet normal 0.89816655 0.081129284 -0.43210517
    outer loop
       vertex 0.031055242 0.003088933 -0.012085674
       vertex 0.030476518 0.0035579366 -0.013200543
       vertex 0.031173176 0.0052198828 -0.011440446
    endloop
  endfacet
  facet normal 0.90034201 -0.32031557 0.29458819
    outer loop
       vertex 0.0370008 -0.0048585817 -0.00053561964
       vertex 0.034063148 -0.010199171 0.0026356446
       vertex 0.036270057 -0.0095973281 -0.0034548674
    endloop
  endfacet
  facet normal 0.472386 -0.47960482 0.73948001
    outer loop
       vertex 0.028511637 -0.014080765 0.0036645097
       vertex 0.034063148 -0.010199171 0.0026356446
       vertex 0.028322561 -0.009957202 0.0064597137
    endloop
  endfacet
  facet normal 0.99143802 -0.10540439 -0.077075122
    outer loop
       vertex 0.0370008 -0.0048585817 -0.00053561964
       vertex 0.036270057 -0.0095973281 -0.0034548674
       vertex 0.036823872 -0.0024416591 -0.0061167631
    endloop
  endfacet
  facet normal 0.93767836 0.32874322 0.1126374
    outer loop
       vertex 0.0370008 -0.0048585817 -0.00053561964
       vertex 0.036823872 -0.0024416591 -0.0061167631
       vertex 0.0349655 0.0013401467 -0.0016838489
    endloop
  endfacet
  facet normal 0.72693639 0.34830887 0.59181451
    outer loop
       vertex 0.0370008 -0.0048585817 -0.00053561964
       vertex 0.0349655 0.0013401467 -0.0016838489
       vertex 0.033266075 -0.0046320228 0.0039184697
    endloop
  endfacet
  facet normal 0.026772003 -0.56005641 0.82802179
    outer loop
       vertex 0.028511637 -0.014080765 0.0036645097
       vertex 0.028322561 -0.009957202 0.0064597137
       vertex 0.02204808 -0.012627787 0.0048562561
    endloop
  endfacet
  facet normal 0.48668164 -0.84853232 -0.20768696
    outer loop
       vertex 0.032603006 -0.013749423 -0.0075023038
       vertex 0.031627088 -0.01566175 -0.0019761518
       vertex 0.025757269 -0.017512102 -0.0081712939
    endloop
  endfacet
  facet normal 0.64688224 -0.071980306 -0.75918523
    outer loop
       vertex 0.033620202 -0.0015073515 -0.012015703
       vertex 0.034504832 -0.0079755783 -0.010648663
       vertex 0.029138188 -0.0053303415 -0.015472245
    endloop
  endfacet
  facet normal 0.63289926 0.77368292 0.029210572
    outer loop
       vertex 0.028970749 0.0056868857 -0.0060371764
       vertex 0.030244792 0.0045495874 -0.0035186685
       vertex 0.033172739 0.0023417204 -0.008479413
    endloop
  endfacet
  facet normal 0.80515818 0.59303837 0.0050800999
    outer loop
       vertex 0.033172739 0.0023417204 -0.008479413
       vertex 0.031978712 0.003971961 -0.0095453537
       vertex 0.031553517 0.0045455403 -0.0091133028
    endloop
  endfacet
  facet normal 0.76040907 0.61700149 0.2026998
    outer loop
       vertex 0.033172739 0.0023417204 -0.008479413
       vertex 0.031553517 0.0045455403 -0.0091133028
       vertex 0.031218185 0.0047675431 -0.0085310957
    endloop
  endfacet
  facet normal 0.68275177 0.69653556 0.22065411
    outer loop
       vertex 0.029647052 0.0052924877 -0.0068848168
       vertex 0.028970749 0.0056868857 -0.0060371764
       vertex 0.033172739 0.0023417204 -0.008479413
    endloop
  endfacet
  facet normal 0.3489205 -0.087330733 0.9330744
    outer loop
       vertex 0.030008354 0.0051861591 -0.0070298763
       vertex 0.029647052 0.0052924877 -0.0068848168
       vertex 0.033172739 0.0023417204 -0.008479413
    endloop
  endfacet
  facet normal 0.7150117 0.58428382 0.38388889
    outer loop
       vertex 0.033172739 0.0023417204 -0.008479413
       vertex 0.031218185 0.0047675431 -0.0085310957
       vertex 0.030351732 0.0050720978 -0.0073808209
    endloop
  endfacet
  facet normal 0.69206536 0.50916621 0.51165937
    outer loop
       vertex 0.033172739 0.0023417204 -0.008479413
       vertex 0.030351732 0.0050720978 -0.0073808209
       vertex 0.030008354 0.0051861591 -0.0070298763
    endloop
  endfacet
  facet normal 0.025156035 0.62453346 0.7805928
    outer loop
       vertex 0.027042518 -0.003541895 0.0062028576
       vertex 0.029270117 0.0014954897 0.0021007791
       vertex 0.022046054 -2.2520241e-05 0.0035481109
    endloop
  endfacet
  facet normal -0.067047197 -0.79392144 0.60431235
    outer loop
       vertex 0.028511637 -0.014080765 0.0036645097
       vertex 0.02204808 -0.012627787 0.0048562561
       vertex 0.023126761 -0.017229937 -0.0010701877
    endloop
  endfacet
  facet normal 0.45014512 -0.72673026 -0.51887619
    outer loop
       vertex 0.032603006 -0.013749423 -0.0075023038
       vertex 0.025757269 -0.017512102 -0.0081712939
       vertex 0.028459805 -0.012492268 -0.012857443
    endloop
  endfacet
  facet normal 0.47232854 0.21834523 -0.8539503
    outer loop
       vertex 0.033620202 -0.0015073515 -0.012015703
       vertex 0.029138188 -0.0053303415 -0.015472245
       vertex 0.028397424 0.00048559704 -0.0143949
    endloop
  endfacet
  facet normal -0.017714116 0.90784854 0.4189239
    outer loop
       vertex 0.024193907 0.0038361036 -0.0022283405
       vertex 0.030244792 0.0045495874 -0.0035186685
       vertex 0.028970749 0.0056868857 -0.0060371764
    endloop
  endfacet
  facet normal 0.10578312 0.87644204 0.46974385
    outer loop
       vertex 0.028970749 0.0056868857 -0.0060371764
       vertex 0.027912641 0.006166761 -0.0066942428
       vertex 0.026621953 0.0062893964 -0.0066324003
    endloop
  endfacet
  facet normal 0.18944646 0.6983384 0.69024163
    outer loop
       vertex 0.026621953 0.0062893964 -0.0066324003
       vertex 0.025654615 0.00662365 -0.0067050752
       vertex 0.024638914 0.0062012816 -0.0059989791
    endloop
  endfacet
  facet normal 0.104124 0.83695338 0.53727761
    outer loop
       vertex 0.024638914 0.0062012816 -0.0059989791
       vertex 0.024193907 0.0038361036 -0.0022283405
       vertex 0.028970749 0.0056868857 -0.0060371764
    endloop
  endfacet
  facet normal 0.10857824 0.88002783 0.4623438
    outer loop
       vertex 0.028970749 0.0056868857 -0.0060371764
       vertex 0.026621953 0.0062893964 -0.0066324003
       vertex 0.024638914 0.0062012816 -0.0059989791
    endloop
  endfacet
  facet normal -0.22358557 0.36446588 0.90397683
    outer loop
       vertex 0.027042518 -0.003541895 0.0062028576
       vertex 0.022046054 -2.2520241e-05 0.0035481109
       vertex 0.021446854 -0.0070909406 0.0062497573
    endloop
  endfacet
  facet normal -0.6911469 -0.72258557 0.013640226
    outer loop
       vertex 0.019008707 -0.017103842 -0.0067138887
       vertex 0.016251092 -0.014363638 -0.0012803122
       vertex 0.014451299 -0.012781241 -0.008648535
    endloop
  endfacet
  facet normal -0.37501197 -0.36562114 -0.85187276
    outer loop
       vertex 0.023730911 -0.0096985779 -0.016573002
       vertex 0.020355425 -0.01475469 -0.012916976
       vertex 0.017471551 -0.0084186489 -0.014366844
    endloop
  endfacet
  facet normal -0.41318528 0.47520074 -0.77682829
    outer loop
       vertex 0.022021471 0.0017785093 -0.013505807
       vertex 0.02250806 -0.0031294607 -0.016766916
       vertex 0.016693542 -0.0012224034 -0.012507664
    endloop
  endfacet
  facet normal -0.74574313 0.66608549 0.014046093
    outer loop
       vertex 0.019616589 0.00159148 -0.0010437927
       vertex 0.020308491 0.0025014352 -0.0074602501
       vertex 0.016025352 -0.0023447617 -0.0050496604
    endloop
  endfacet
  facet normal -0.8819149 0.0022020154 0.47140351
    outer loop
       vertex 0.018437653 -0.010467 0.0035281612
       vertex 0.017771869 -0.0040167664 0.0022524646
       vertex 0.01525759 -0.0094416382 -0.0024259796
    endloop
  endfacet
  facet normal -0.92790027 0.21340346 0.30571238
    outer loop
       vertex 0.01525759 -0.0094416382 -0.0024259796
       vertex 0.016025352 -0.0023447617 -0.0050496604
       vertex 0.013697715 -0.006397067 -0.0092857944
    endloop
  endfacet
  facet normal -0.94101822 0.20211996 0.27135261
    outer loop
       vertex 0.01525759 -0.0094416382 -0.0024259796
       vertex 0.017771869 -0.0040167664 0.0022524646
       vertex 0.016025352 -0.0023447617 -0.0050496604
    endloop
  endfacet
  facet normal -0.83729943 0.45425218 0.30427721
    outer loop
       vertex 0.017771869 -0.0040167664 0.0022524646
       vertex 0.019616589 0.00159148 -0.0010437927
       vertex 0.016025352 -0.0023447617 -0.0050496604
    endloop
  endfacet
  facet normal -0.86606227 0.49993057 -0.0023590147
    outer loop
       vertex 0.016025352 -0.0023447617 -0.0050496604
       vertex 0.016693542 -0.0012224034 -0.012507664
       vertex 0.013697715 -0.006397067 -0.0092857944
    endloop
  endfacet
  facet normal -0.74020614 0.67148227 0.034733805
    outer loop
       vertex 0.016025352 -0.0023447617 -0.0050496604
       vertex 0.020308491 0.0025014352 -0.0074602501
       vertex 0.016693542 -0.0012224034 -0.012507664
    endloop
  endfacet
  facet normal -0.51020788 0.82494603 -0.24321178
    outer loop
       vertex 0.020308491 0.0025014352 -0.0074602501
       vertex 0.022021471 0.0017785093 -0.013505807
       vertex 0.016693542 -0.0012224034 -0.012507664
    endloop
  endfacet
  facet normal -0.7864206 0.073429198 -0.61331133
    outer loop
       vertex 0.016693542 -0.0012224034 -0.012507664
       vertex 0.017471551 -0.0084186489 -0.014366844
       vertex 0.013697715 -0.006397067 -0.0092857944
    endloop
  endfacet
  facet normal -0.55101953 0.15239658 -0.82045887
    outer loop
       vertex 0.016693542 -0.0012224034 -0.012507664
       vertex 0.02250806 -0.0031294607 -0.016766916
       vertex 0.017471551 -0.0084186489 -0.014366844
    endloop
  endfacet
  facet normal -0.34772656 -0.092272458 -0.9330445
    outer loop
       vertex 0.02250806 -0.0031294607 -0.016766916
       vertex 0.023730911 -0.0096985779 -0.016573002
       vertex 0.017471551 -0.0084186489 -0.014366844
    endloop
  endfacet
  facet normal -0.82144673 -0.15183358 -0.54970159
    outer loop
       vertex 0.017471551 -0.0084186489 -0.014366844
       vertex 0.014451299 -0.012781241 -0.008648535
       vertex 0.013697715 -0.006397067 -0.0092857944
    endloop
  endfacet
  facet normal -0.61877265 -0.43180571 -0.65625014
    outer loop
       vertex 0.017471551 -0.0084186489 -0.014366844
       vertex 0.020355425 -0.01475469 -0.012916976
       vertex 0.014451299 -0.012781241 -0.008648535
    endloop
  endfacet
  facet normal -0.53658097 -0.74396656 -0.39823939
    outer loop
       vertex 0.020355425 -0.01475469 -0.012916976
       vertex 0.019008707 -0.017103842 -0.0067138887
       vertex 0.014451299 -0.012781241 -0.008648535
    endloop
  endfacet
  facet normal -0.97894236 -0.097660281 0.17926051
    outer loop
       vertex 0.014451299 -0.012781241 -0.008648535
       vertex 0.01525759 -0.0094416382 -0.0024259796
       vertex 0.013697715 -0.006397067 -0.0092857944
    endloop
  endfacet
  facet normal -0.96763199 -0.14768258 0.20464159
    outer loop
       vertex 0.014451299 -0.012781241 -0.008648535
       vertex 0.016251092 -0.014363638 -0.0012803122
       vertex 0.01525759 -0.0094416382 -0.0024259796
    endloop
  endfacet
  facet normal -0.88488144 -0.071471039 0.46030069
    outer loop
       vertex 0.016251092 -0.014363638 -0.0012803122
       vertex 0.018437653 -0.010467 0.0035281612
       vertex 0.01525759 -0.0094416382 -0.0024259796
    endloop
  endfacet
  facet normal -0.7088774 0.065721017 0.70226319
    outer loop
       vertex 0.021446854 -0.0070909406 0.0062497573
       vertex 0.017771869 -0.0040167664 0.0022524646
       vertex 0.018437653 -0.010467 0.0035281612
    endloop
  endfacet
  facet normal -0.54831472 0.33872302 0.76460296
    outer loop
       vertex 0.021446854 -0.0070909406 0.0062497573
       vertex 0.022046054 -2.2520241e-05 0.0035481109
       vertex 0.017771869 -0.0040167664 0.0022524646
    endloop
  endfacet
  facet normal -0.65785145 0.53056398 0.5345403
    outer loop
       vertex 0.022046054 -2.2520241e-05 0.0035481109
       vertex 0.019616589 0.00159148 -0.0010437927
       vertex 0.017771869 -0.0040167664 0.0022524646
    endloop
  endfacet
  facet normal -0.42146669 0.90307221 0.082622111
    outer loop
       vertex 0.024193907 0.0038361036 -0.0022283405
       vertex 0.020308491 0.0025014352 -0.0074602501
       vertex 0.019616589 0.00159148 -0.0010437927
    endloop
  endfacet
  facet normal -0.67492808 0.65832469 0.3332877
    outer loop
       vertex 0.020308491 0.0025014352 -0.0074602501
       vertex 0.024193907 0.0038361036 -0.0022283405
       vertex 0.024638914 0.0062012816 -0.0059989791
    endloop
  endfacet
  facet normal -0.49539053 0.79936509 0.34000541
    outer loop
       vertex 0.024638914 0.0062012816 -0.0059989791
       vertex 0.024065924 0.0064638878 -0.0074512272
       vertex 0.023311619 0.0063455757 -0.0082720984
    endloop
  endfacet
  facet normal -0.71499446 0.47227984 0.51549459
    outer loop
       vertex 0.023311619 0.0063455757 -0.0082720984
       vertex 0.022789176 0.0061434278 -0.0088115294
       vertex 0.022221209 0.005255548 -0.0087858566
    endloop
  endfacet
  facet normal -0.67285869 0.64319768 0.36545577
    outer loop
       vertex 0.022221209 0.005255548 -0.0087858566
       vertex 0.020308491 0.0025014352 -0.0074602501
       vertex 0.024638914 0.0062012816 -0.0059989791
    endloop
  endfacet
  facet normal -0.72722705 0.51202228 0.45713675
    outer loop
       vertex 0.024638914 0.0062012816 -0.0059989791
       vertex 0.023311619 0.0063455757 -0.0082720984
       vertex 0.022221209 0.005255548 -0.0087858566
    endloop
  endfacet
  facet normal -0.0040022826 0.5531427 -0.83307691
    outer loop
       vertex 0.028397424 0.00048559704 -0.0143949
       vertex 0.02250806 -0.0031294607 -0.016766916
       vertex 0.022021471 0.0017785093 -0.013505807
    endloop
  endfacet
  facet normal 0.25332692 0.20730057 -0.94490843
    outer loop
       vertex 0.028397424 0.00048559704 -0.0143949
       vertex 0.029138188 -0.0053303415 -0.015472245
       vertex 0.02250806 -0.0031294607 -0.016766916
    endloop
  endfacet
  facet normal 0.19392969 0.0071424017 -0.98098943
    outer loop
       vertex 0.029138188 -0.0053303415 -0.015472245
       vertex 0.023730911 -0.0096985779 -0.016573002
       vertex 0.02250806 -0.0031294607 -0.016766916
    endloop
  endfacet
  facet normal 0.18819439 -0.65488478 -0.7319213
    outer loop
       vertex 0.028459805 -0.012492268 -0.012857443
       vertex 0.020355425 -0.01475469 -0.012916976
       vertex 0.023730911 -0.0096985779 -0.016573002
    endloop
  endfacet
  facet normal 0.20717983 -0.72486534 -0.65699829
    outer loop
       vertex 0.028459805 -0.012492268 -0.012857443
       vertex 0.025757269 -0.017512102 -0.0081712939
       vertex 0.020355425 -0.01475469 -0.012916976
    endloop
  endfacet
  facet normal -0.13676961 -0.91619786 -0.3766637
    outer loop
       vertex 0.025757269 -0.017512102 -0.0081712939
       vertex 0.019008707 -0.017103842 -0.0067138887
       vertex 0.020355425 -0.01475469 -0.012916976
    endloop
  endfacet
  facet normal -0.37858423 -0.88935221 0.25637206
    outer loop
       vertex 0.023126761 -0.017229937 -0.0010701877
       vertex 0.016251092 -0.014363638 -0.0012803122
       vertex 0.019008707 -0.017103842 -0.0067138887
    endloop
  endfacet
  facet normal -0.33830605 -0.77208832 0.53798573
    outer loop
       vertex 0.023126761 -0.017229937 -0.0010701877
       vertex 0.02204808 -0.012627787 0.0048562561
       vertex 0.016251092 -0.014363638 -0.0012803122
    endloop
  endfacet
  facet normal -0.54878641 -0.50970339 0.66259787
    outer loop
       vertex 0.02204808 -0.012627787 0.0048562561
       vertex 0.018437653 -0.010467 0.0035281612
       vertex 0.016251092 -0.014363638 -0.0012803122
    endloop
  endfacet
  facet normal -0.29563416 0.84150108 0.45219063
    outer loop
       vertex 0.022046054 -2.2520241e-05 0.0035481109
       vertex 0.024193907 0.0038361036 -0.0022283405
       vertex 0.019616589 0.00159148 -0.0010437927
    endloop
  endfacet
  facet normal -0.069355625 0.84125868 0.53616568
    outer loop
       vertex 0.022046054 -2.2520241e-05 0.0035481109
       vertex 0.029270117 0.0014954897 0.0021007791
       vertex 0.024193907 0.0038361036 -0.0022283405
    endloop
  endfacet
  facet normal -0.0018409059 0.87875367 0.47727205
    outer loop
       vertex 0.029270117 0.0014954897 0.0021007791
       vertex 0.030244792 0.0045495874 -0.0035186685
       vertex 0.024193907 0.0038361036 -0.0022283405
    endloop
  endfacet
  facet normal 0.50909626 0.61366268 -0.60352226
    outer loop
       vertex 0.033172739 0.0023417204 -0.008479413
       vertex 0.033620202 -0.0015073515 -0.012015703
       vertex 0.028397424 0.00048559704 -0.0143949
    endloop
  endfacet
  facet normal 0.44604681 -0.34392661 -0.82629095
    outer loop
       vertex 0.029138188 -0.0053303415 -0.015472245
       vertex 0.028459805 -0.012492268 -0.012857443
       vertex 0.023730911 -0.0096985779 -0.016573002
    endloop
  endfacet
  facet normal 0.53357885 -0.33419337 -0.77692239
    outer loop
       vertex 0.029138188 -0.0053303415 -0.015472245
       vertex 0.034504832 -0.0079755783 -0.010648663
       vertex 0.028459805 -0.012492268 -0.012857443
    endloop
  endfacet
  facet normal 0.60927174 -0.52468001 -0.59455769
    outer loop
       vertex 0.034504832 -0.0079755783 -0.010648663
       vertex 0.032603006 -0.013749423 -0.0075023038
       vertex 0.028459805 -0.012492268 -0.012857443
    endloop
  endfacet
  facet normal -0.056329305 -0.99823525 0.018798714
    outer loop
       vertex 0.025757269 -0.017512102 -0.0081712939
       vertex 0.023126761 -0.017229937 -0.0010701877
       vertex 0.019008707 -0.017103842 -0.0067138887
    endloop
  endfacet
  facet normal 0.19162723 -0.97531335 0.10974003
    outer loop
       vertex 0.025757269 -0.017512102 -0.0081712939
       vertex 0.031627088 -0.01566175 -0.0019761518
       vertex 0.023126761 -0.017229937 -0.0010701877
    endloop
  endfacet
  facet normal 0.20648206 -0.90655426 0.36813657
    outer loop
       vertex 0.031627088 -0.01566175 -0.0019761518
       vertex 0.028511637 -0.014080765 0.0036645097
       vertex 0.023126761 -0.017229937 -0.0010701877
    endloop
  endfacet
  facet normal -0.46785329 -0.26314845 0.84372163
    outer loop
       vertex 0.02204808 -0.012627787 0.0048562561
       vertex 0.021446854 -0.0070909406 0.0062497573
       vertex 0.018437653 -0.010467 0.0035281612
    endloop
  endfacet
  facet normal -0.13580007 -0.25564811 0.95718461
    outer loop
       vertex 0.02204808 -0.012627787 0.0048562561
       vertex 0.028322561 -0.009957202 0.0064597137
       vertex 0.021446854 -0.0070909406 0.0062497573
    endloop
  endfacet
  facet normal -0.015089468 0.036995255 0.99920151
    outer loop
       vertex 0.028322561 -0.009957202 0.0064597137
       vertex 0.027042518 -0.003541895 0.0062028576
       vertex 0.021446854 -0.0070909406 0.0062497573
    endloop
  endfacet
  facet normal 0.37515814 0.4799097 0.7930593
    outer loop
       vertex 0.033266075 -0.0046320228 0.0039184697
       vertex 0.029270117 0.0014954897 0.0021007791
       vertex 0.027042518 -0.003541895 0.0062028576
    endloop
  endfacet
  facet normal 0.48165569 0.52275561 0.70337356
    outer loop
       vertex 0.033266075 -0.0046320228 0.0039184697
       vertex 0.0349655 0.0013401467 -0.0016838489
       vertex 0.029270117 0.0014954897 0.0021007791
    endloop
  endfacet
  facet normal 0.34963785 0.79639113 0.49347193
    outer loop
       vertex 0.0349655 0.0013401467 -0.0016838489
       vertex 0.030244792 0.0045495874 -0.0035186685
       vertex 0.029270117 0.0014954897 0.0021007791
    endloop
  endfacet
  facet normal 0.56974478 0.82130071 -0.029257803
    outer loop
       vertex 0.0349655 0.0013401467 -0.0016838489
       vertex 0.033172739 0.0023417204 -0.008479413
       vertex 0.030244792 0.0045495874 -0.0035186685
    endloop
  endfacet
  facet normal 0.81849147 0.55877537 -0.1335732
    outer loop
       vertex 0.0349655 0.0013401467 -0.0016838489
       vertex 0.036823872 -0.0024416591 -0.0061167631
       vertex 0.033172739 0.0023417204 -0.008479413
    endloop
  endfacet
  facet normal 0.81697976 0.4387685 -0.37420086
    outer loop
       vertex 0.036823872 -0.0024416591 -0.0061167631
       vertex 0.033620202 -0.0015073515 -0.012015703
       vertex 0.033172739 0.0023417204 -0.008479413
    endloop
  endfacet
  facet normal 0.87991677 0.020014527 -0.47470611
    outer loop
       vertex 0.036823872 -0.0024416591 -0.0061167631
       vertex 0.034504832 -0.0079755783 -0.010648663
       vertex 0.033620202 -0.0015073515 -0.012015703
    endloop
  endfacet
  facet normal 0.94651649 -0.17426999 -0.27154466
    outer loop
       vertex 0.036823872 -0.0024416591 -0.0061167631
       vertex 0.036270057 -0.0095973281 -0.0034548674
       vertex 0.034504832 -0.0079755783 -0.010648663
    endloop
  endfacet
  facet normal 0.84169411 -0.44438264 -0.30671664
    outer loop
       vertex 0.036270057 -0.0095973281 -0.0034548674
       vertex 0.032603006 -0.013749423 -0.0075023038
       vertex 0.034504832 -0.0079755783 -0.010648663
    endloop
  endfacet
  facet normal 0.35926924 0.10879484 0.9268707
    outer loop
       vertex 0.028322561 -0.009957202 0.0064597137
       vertex 0.033266075 -0.0046320228 0.0039184697
       vertex 0.027042518 -0.003541895 0.0062028576
    endloop
  endfacet
  facet normal 0.54757739 -0.11265695 0.82913654
    outer loop
       vertex 0.028322561 -0.009957202 0.0064597137
       vertex 0.034063148 -0.010199171 0.0026356446
       vertex 0.033266075 -0.0046320228 0.0039184697
    endloop
  endfacet
  facet normal 0.76472802 -0.038719033 0.64318885
    outer loop
       vertex 0.034063148 -0.010199171 0.0026356446
       vertex 0.0370008 -0.0048585817 -0.00053561964
       vertex 0.033266075 -0.0046320228 0.0039184697
    endloop
  endfacet
  facet normal 0.78277098 -0.61771035 -0.075521568
    outer loop
       vertex 0.036270057 -0.0095973281 -0.0034548674
       vertex 0.031627088 -0.01566175 -0.0019761518
       vertex 0.032603006 -0.013749423 -0.0075023038
    endloop
  endfacet
  facet normal 0.79861972 -0.55422224 0.2346151
    outer loop
       vertex 0.036270057 -0.0095973281 -0.0034548674
       vertex 0.034063148 -0.010199171 0.0026356446
       vertex 0.031627088 -0.01566175 -0.0019761518
    endloop
  endfacet
  facet normal 0.55768116 -0.66644727 0.49481286
    outer loop
       vertex 0.034063148 -0.010199171 0.0026356446
       vertex 0.028511637 -0.014080765 0.0036645097
       vertex 0.031627088 -0.01566175 -0.0019761518
    endloop
  endfacet
  facet normal -0.89514766 0.30672164 -0.32346947
    outer loop
       vertex 0.022378596 0.0042249891 -0.012412438
       vertex 0.022255152 0.0045252623 -0.011786102
       vertex 0.022615527 0.0048069925 -0.012516235
    endloop
  endfacet
  facet normal 0.59198892 -0.080098841 -0.80195592
    outer loop
       vertex 0.028397424 0.00048559704 -0.0143949
       vertex 0.028231626 0.0021012485 -0.01467866
       vertex 0.028650262 0.002688223 -0.014428257
    endloop
  endfacet
  facet normal 0.54799825 -0.075520291 -0.83306339
    outer loop
       vertex 0.028397424 0.00048559704 -0.0143949
       vertex 0.028650262 0.002688223 -0.014428257
       vertex 0.029724327 0.0025766926 -0.013711615
    endloop
  endfacet
  facet normal 0.75178998 0.12762801 -0.64693347
    outer loop
       vertex 0.031978712 0.003971961 -0.0095453537
       vertex 0.033172739 0.0023417204 -0.008479413
       vertex 0.028397424 0.00048559704 -0.0143949
    endloop
  endfacet
  facet normal 0.94432293 -0.053757312 -0.32459875
    outer loop
       vertex 0.031055242 0.003088933 -0.012085674
       vertex 0.031529488 0.003931587 -0.010845551
       vertex 0.031978712 0.003971961 -0.0095453537
    endloop
  endfacet
  facet normal 0.70013293 -0.22258445 -0.67843204
    outer loop
       vertex 0.028397424 0.00048559704 -0.0143949
       vertex 0.029724327 0.0025766926 -0.013711615
       vertex 0.03049508 0.0027252232 -0.012964939
    endloop
  endfacet
  facet normal 0.22754904 -0.94247089 0.24488784
    outer loop
       vertex 0.03049508 0.0027252232 -0.012964939
       vertex 0.031055242 0.003088933 -0.012085674
       vertex 0.031978712 0.003971961 -0.0095453537
    endloop
  endfacet
  facet normal 0.75514688 -0.64921818 -0.090933742
    outer loop
       vertex 0.03049508 0.0027252232 -0.012964939
       vertex 0.031978712 0.003971961 -0.0095453537
       vertex 0.028397424 0.00048559704 -0.0143949
    endloop
  endfacet
  facet normal 0.70083938 0.58447353 0.40891913
    outer loop
       vertex 0.031282601 0.0051593497 -0.0091009318
       vertex 0.030116017 0.0054932897 -0.0075788485
       vertex 0.030351732 0.0050720978 -0.0073808209
    endloop
  endfacet
  facet normal 0.74893157 0.50346963 0.4308362
    outer loop
       vertex 0.030351732 0.0050720978 -0.0073808209
       vertex 0.031218185 0.0047675431 -0.0085310957
       vertex 0.031282601 0.0051593497 -0.0091009318
    endloop
  endfacet
  facet normal -0.82227808 0.56907077 -0.0041493172
    outer loop
       vertex 0.020308491 0.0025014352 -0.0074602501
       vertex 0.022221209 0.005255548 -0.0087858566
       vertex 0.022329416 0.0054001202 -0.010401754
    endloop
  endfacet
  facet normal -0.80362253 -0.58271404 0.12097595
    outer loop
       vertex 0.022255152 0.0045252623 -0.011786102
       vertex 0.022378596 0.0042249891 -0.012412438
       vertex 0.022695434 0.0036169859 -0.013236349
    endloop
  endfacet
  facet normal -0.88900446 0.40711506 -0.20959103
    outer loop
       vertex 0.020308491 0.0025014352 -0.0074602501
       vertex 0.022329416 0.0054001202 -0.010401754
       vertex 0.022255152 0.0045252623 -0.011786102
    endloop
  endfacet
  facet normal -0.88269269 0.36666791 -0.29395281
    outer loop
       vertex 0.022695434 0.0036169859 -0.013236349
       vertex 0.022021471 0.0017785093 -0.013505807
       vertex 0.020308491 0.0025014352 -0.0074602501
    endloop
  endfacet
  facet normal -0.92529696 0.1238216 -0.35846025
    outer loop
       vertex 0.022255152 0.0045252623 -0.011786102
       vertex 0.022695434 0.0036169859 -0.013236349
       vertex 0.020308491 0.0025014352 -0.0074602501
    endloop
  endfacet
  facet normal 0.85915031 -0.12149382 -0.49709153
    outer loop
       vertex 0.031055242 0.003088933 -0.012085674
       vertex 0.03049508 0.0027252232 -0.012964939
       vertex 0.030476518 0.0035579366 -0.013200543
    endloop
  endfacet
  facet normal -0.48664936 0.29872117 -0.82093731
    outer loop
       vertex 0.022021471 0.0017785093 -0.013505807
       vertex 0.022695434 0.0036169859 -0.013236349
       vertex 0.023650733 0.0033688715 -0.013892931
    endloop
  endfacet
  facet normal -0.38187493 0.17008703 -0.90842828
    outer loop
       vertex 0.022021471 0.0017785093 -0.013505807
       vertex 0.023650733 0.0033688715 -0.013892931
       vertex 0.024411938 0.0030121453 -0.014279708
    endloop
  endfacet
  facet normal -0.17286587 -0.18756154 -0.96692195
    outer loop
       vertex 0.028231626 0.0021012485 -0.01467866
       vertex 0.028397424 0.00048559704 -0.0143949
       vertex 0.022021471 0.0017785093 -0.013505807
    endloop
  endfacet
  facet normal -0.14000594 -0.72251511 -0.67703046
    outer loop
       vertex 0.026004838 0.0025840091 -0.014733367
       vertex 0.027108515 0.0024341361 -0.014801659
       vertex 0.028231626 0.0021012485 -0.01467866
    endloop
  endfacet
  facet normal -0.28538737 -0.047498693 -0.95723452
    outer loop
       vertex 0.022021471 0.0017785093 -0.013505807
       vertex 0.024411938 0.0030121453 -0.014279708
       vertex 0.026004838 0.0025840091 -0.014733367
    endloop
  endfacet
  facet normal -0.11481682 -0.61776232 -0.77793754
    outer loop
       vertex 0.026004838 0.0025840091 -0.014733367
       vertex 0.028231626 0.0021012485 -0.01467866
       vertex 0.022021471 0.0017785093 -0.013505807
    endloop
  endfacet
  facet normal 0.42384614 0.75248064 0.50411044
    outer loop
       vertex 0.029647052 0.0052924877 -0.0068848168
       vertex 0.030008354 0.0051861591 -0.0070298763
       vertex 0.030116017 0.0054932897 -0.0075788485
    endloop
  endfacet
  facet normal -0.84246954 0.53868126 -0.008220335
    outer loop
       vertex 0.022329416 0.0054001202 -0.010401754
       vertex 0.022221209 0.005255548 -0.0087858566
       vertex 0.022789176 0.0061434278 -0.0088115294
    endloop
  endfacet
  facet normal -0.8579073 0.51374377 0.0078993383
    outer loop
       vertex 0.022789176 0.0061434278 -0.0088115294
       vertex 0.022879195 0.0063266684 -0.010952305
       vertex 0.022329416 0.0054001202 -0.010401754
    endloop
  endfacet
  facet normal 0.10576296 0.87322845 0.47569556
    outer loop
       vertex 0.026621953 0.0062893964 -0.0066324003
       vertex 0.027912641 0.006166761 -0.0066942428
       vertex 0.028379796 0.0069481208 -0.0082324396
    endloop
  endfacet
  facet normal 0.062475394 0.89686504 0.43786976
    outer loop
       vertex 0.028379796 0.0069481208 -0.0082324396
       vertex 0.025714953 0.0068771751 -0.0077069046
       vertex 0.026621953 0.0062893964 -0.0066324003
    endloop
  endfacet
  facet normal 0.66522269 0.58839101 0.45964639
    outer loop
       vertex 0.030008354 0.0051861591 -0.0070298763
       vertex 0.030351732 0.0050720978 -0.0073808209
       vertex 0.030116017 0.0054932897 -0.0075788485
    endloop
  endfacet
  facet normal -0.086165966 -0.18878641 -0.9782306
    outer loop
       vertex 0.027108515 0.0024341361 -0.014801659
       vertex 0.026004838 0.0025840091 -0.014733367
       vertex 0.0262949 0.0033728598 -0.014911155
    endloop
  endfacet
  facet normal 0.29923932 0.92057698 0.25098576
    outer loop
       vertex 0.025654615 0.00662365 -0.0067050752
       vertex 0.026621953 0.0062893964 -0.0066324003
       vertex 0.025714953 0.0068771751 -0.0077069046
    endloop
  endfacet
  facet normal -0.4298174 0.89943333 0.079225581
    outer loop
       vertex 0.022789176 0.0061434278 -0.0088115294
       vertex 0.023311619 0.0063455757 -0.0082720984
       vertex 0.024258079 0.0069140095 -0.0095906542
    endloop
  endfacet
  facet normal -0.43936005 0.89642019 0.058254478
    outer loop
       vertex 0.024258079 0.0069140095 -0.0095906542
       vertex 0.022879195 0.0063266684 -0.010952305
       vertex 0.022789176 0.0061434278 -0.0088115294
    endloop
  endfacet
  facet normal -0.89045003 0.40475405 -0.20802141
    outer loop
       vertex 0.022255152 0.0045252623 -0.011786102
       vertex 0.022329416 0.0054001202 -0.010401754
       vertex 0.022879195 0.0063266684 -0.010952305
    endloop
  endfacet
  facet normal -0.8667324 0.42275826 -0.26467036
    outer loop
       vertex 0.022879195 0.0063266684 -0.010952305
       vertex 0.022615527 0.0048069925 -0.012516235
       vertex 0.022255152 0.0045252623 -0.011786102
    endloop
  endfacet
  facet normal -0.21465114 0.94276892 0.25516986
    outer loop
       vertex 0.024065924 0.0064638878 -0.0074512272
       vertex 0.024638914 0.0062012816 -0.0059989791
       vertex 0.025654615 0.00662365 -0.0067050752
    endloop
  endfacet
  facet normal -0.20315219 0.95206473 0.22869617
    outer loop
       vertex 0.025654615 0.00662365 -0.0067050752
       vertex 0.025714953 0.0068771751 -0.0077069046
       vertex 0.024065924 0.0064638878 -0.0074512272
    endloop
  endfacet
endsolid ExportedfromBlender-2.79(sub0)
