solid ExportedfromBlender-2.79(sub0)
  facet normal 0.73525972 0.67288732 -0.081337559
    outer loop
       vertex 0.075328065 0.001843298 -0.023211514
       vertex 0.075450828 0.0017117615 -0.023189963
       vertex 0.07538629 0.001762284 -0.023355391
    endloop
  endfacet
  facet normal 0.45312514 0.84258928 -0.29106857
    outer loop
       vertex 0.074817738 0.0020185057 -0.023498779
       vertex 0.075328065 0.001843298 -0.023211514
       vertex 0.07538629 0.001762284 -0.023355391
    endloop
  endfacet
  facet normal 0.099662536 0.99141414 -0.084648579
    outer loop
       vertex 0.07538629 0.001762284 -0.023355391
       vertex 0.075378292 0.0017445714 -0.02357226
       vertex 0.075038391 0.0017690827 -0.02368537
    endloop
  endfacet
  facet normal 0.45849701 0.75558953 -0.46783005
    outer loop
       vertex 0.07538629 0.001762284 -0.023355391
       vertex 0.075038391 0.0017690827 -0.02368537
       vertex 0.074817738 0.0020185057 -0.023498779
    endloop
  endfacet
  facet normal 0.38758117 0.91232164 -0.13209871
    outer loop
       vertex 0.075328065 0.001843298 -0.023211514
       vertex 0.074817738 0.0020185057 -0.023498779
       vertex 0.075049699 0.0019990865 -0.022952317
    endloop
  endfacet
  facet normal 0.61601221 0.76078038 0.204309
    outer loop
       vertex 0.075328065 0.001843298 -0.023211514
       vertex 0.075049699 0.0019990865 -0.022952317
       vertex 0.075460972 0.001618677 -0.022775827
    endloop
  endfacet
  facet normal -0.38261859 0.59732839 -0.70484169
    outer loop
       vertex 0.074248917 0.0019357598 -0.02363881
       vertex 0.074396327 0.0017177198 -0.023903611
       vertex 0.073785093 0.0016294316 -0.023646628
    endloop
  endfacet
  facet normal 0.01436939 0.97361474 0.22774515
    outer loop
       vertex 0.074610332 0.0019818442 -0.022682735
       vertex 0.074450139 0.0020948379 -0.023155678
       vertex 0.074005198 0.0019720593 -0.022602724
    endloop
  endfacet
  facet normal -0.44803079 0.69280387 -0.56505859
    outer loop
       vertex 0.074248917 0.0019357598 -0.02363881
       vertex 0.073785093 0.0016294316 -0.023646628
       vertex 0.073763183 0.0019161769 -0.023277685
    endloop
  endfacet
  facet normal 0.073056452 0.76024883 0.64551101
    outer loop
       vertex 0.074610332 0.0019818442 -0.022682735
       vertex 0.074005198 0.0019720593 -0.022602724
       vertex 0.074356209 0.0016296745 -0.022239207
    endloop
  endfacet
  facet normal -0.92424495 0.028375569 -0.38074413
    outer loop
       vertex 0.073410923 0.0011866165 -0.023531102
       vertex 0.073430042 0.00097218288 -0.023593495
       vertex 0.073270873 0.00078456995 -0.023221099
    endloop
  endfacet
  facet normal -0.94790283 0.095978465 -0.30375707
    outer loop
       vertex 0.073270873 0.00078456995 -0.023221099
       vertex 0.073213143 0.00092685354 -0.022995989
       vertex 0.073410923 0.0011866165 -0.023531102
    endloop
  endfacet
  facet normal -0.79870296 0.5957623 0.08450367
    outer loop
       vertex 0.073452479 0.0016468564 -0.022742805
       vertex 0.073297076 0.0014868027 -0.02308323
       vertex 0.073195637 0.001260856 -0.022449046
    endloop
  endfacet
  facet normal -0.30417375 0.3771469 0.87477914
    outer loop
       vertex 0.074106935 0.0011803941 -0.02192531
       vertex 0.073637558 0.0015038215 -0.02222796
       vertex 0.073631383 0.00096143344 -0.021996265
    endloop
  endfacet
  facet normal -0.75571801 -0.12881025 0.64210452
    outer loop
       vertex 0.073631383 0.00096143344 -0.021996265
       vertex 0.073195637 0.001260856 -0.022449046
       vertex 0.073312019 0.00073874538 -0.02241681
    endloop
  endfacet
  facet normal -0.56130328 0.33050929 0.75875044
    outer loop
       vertex 0.073631383 0.00096143344 -0.021996265
       vertex 0.073637558 0.0015038215 -0.02222796
       vertex 0.073195637 0.001260856 -0.022449046
    endloop
  endfacet
  facet normal -0.58779372 0.69990343 0.40575082
    outer loop
       vertex 0.073637558 0.0015038215 -0.02222796
       vertex 0.073452479 0.0016468564 -0.022742805
       vertex 0.073195637 0.001260856 -0.022449046
    endloop
  endfacet
  facet normal -0.9726489 -0.21078545 0.097588998
    outer loop
       vertex 0.073195637 0.001260856 -0.022449046
       vertex 0.073213143 0.00092685354 -0.022995989
       vertex 0.073312019 0.00073874538 -0.02241681
    endloop
  endfacet
  facet normal -0.98521732 0.13036194 -0.11114224
    outer loop
       vertex 0.073195637 0.001260856 -0.022449046
       vertex 0.073297076 0.0014868027 -0.02308323
       vertex 0.073213143 0.00092685354 -0.022995989
    endloop
  endfacet
  facet normal -0.94783745 0.09465269 -0.30437648
    outer loop
       vertex 0.073297076 0.0014868027 -0.02308323
       vertex 0.073410923 0.0011866165 -0.023531102
       vertex 0.073213143 0.00092685354 -0.022995989
    endloop
  endfacet
  facet normal -0.98704384 -0.056841125 0.15004513
    outer loop
       vertex 0.073312019 0.00073874538 -0.02241681
       vertex 0.073213143 0.00092685354 -0.022995989
       vertex 0.073225615 0.00071222965 -0.022995248
    endloop
  endfacet
  facet normal -0.74524691 0.60552749 0.27918364
    outer loop
       vertex 0.073225615 0.00071222965 -0.022995248
       vertex 0.073211274 0.00056848701 -0.022721765
       vertex 0.073316907 0.00057921018 -0.022463047
    endloop
  endfacet
  facet normal -0.98582499 -0.073862553 0.15064333
    outer loop
       vertex 0.073225615 0.00071222965 -0.022995248
       vertex 0.073316907 0.00057921018 -0.022463047
       vertex 0.073312019 0.00073874538 -0.02241681
    endloop
  endfacet
  facet normal -0.97518828 -0.057409497 -0.21380356
    outer loop
       vertex 0.073213143 0.00092685354 -0.022995989
       vertex 0.073270873 0.00078456995 -0.023221099
       vertex 0.073225615 0.00071222965 -0.022995248
    endloop
  endfacet
  facet normal -0.090574889 0.50608208 0.85771622
    outer loop
       vertex 0.074724259 0.0012464114 -0.021899073
       vertex 0.074106935 0.0011803941 -0.02192531
       vertex 0.07425956 0.00082424731 -0.021699054
    endloop
  endfacet
  facet normal -0.19575867 0.58750067 0.78518883
    outer loop
       vertex 0.07425956 0.00082424731 -0.021699054
       vertex 0.07454226 0.00089769211 -0.021683527
       vertex 0.074724259 0.0012464114 -0.021899073
    endloop
  endfacet
  facet normal -0.093492123 0.6045565 0.79105668
    outer loop
       vertex 0.074356209 0.0016296745 -0.022239207
       vertex 0.073637558 0.0015038215 -0.02222796
       vertex 0.074106935 0.0011803941 -0.02192531
    endloop
  endfacet
  facet normal -0.1059746 0.67074267 0.73408014
    outer loop
       vertex 0.074356209 0.0016296745 -0.022239207
       vertex 0.074005198 0.0019720593 -0.022602724
       vertex 0.073637558 0.0015038215 -0.02222796
    endloop
  endfacet
  facet normal -0.53797803 0.74222556 0.39960087
    outer loop
       vertex 0.074005198 0.0019720593 -0.022602724
       vertex 0.073452479 0.0016468564 -0.022742805
       vertex 0.073637558 0.0015038215 -0.02222796
    endloop
  endfacet
  facet normal -0.68404692 0.72880479 -0.030387313
    outer loop
       vertex 0.073763183 0.0019161769 -0.023277685
       vertex 0.073297076 0.0014868027 -0.02308323
       vertex 0.073452479 0.0016468564 -0.022742805
    endloop
  endfacet
  facet normal -0.69684536 0.54565778 -0.46547194
    outer loop
       vertex 0.073763183 0.0019161769 -0.023277685
       vertex 0.073785093 0.0016294316 -0.023646628
       vertex 0.073297076 0.0014868027 -0.02308323
    endloop
  endfacet
  facet normal -0.72036615 0.4774376 -0.50311624
    outer loop
       vertex 0.073785093 0.0016294316 -0.023646628
       vertex 0.073410923 0.0011866165 -0.023531102
       vertex 0.073297076 0.0014868027 -0.02308323
    endloop
  endfacet
  facet normal -0.098358455 0.60604638 0.78932465
    outer loop
       vertex 0.074724259 0.0012464114 -0.021899073
       vertex 0.074356209 0.0016296745 -0.022239207
       vertex 0.074106935 0.0011803941 -0.02192531
    endloop
  endfacet
  facet normal 0.059203074 0.69380861 0.71772182
    outer loop
       vertex 0.074724259 0.0012464114 -0.021899073
       vertex 0.075014098 0.0016994511 -0.022360927
       vertex 0.074356209 0.0016296745 -0.022239207
    endloop
  endfacet
  facet normal 0.035303166 0.77271121 0.63377526
    outer loop
       vertex 0.075014098 0.0016994511 -0.022360927
       vertex 0.074610332 0.0019818442 -0.022682735
       vertex 0.074356209 0.0016296745 -0.022239207
    endloop
  endfacet
  facet normal -0.52570391 0.84233732 0.11875704
    outer loop
       vertex 0.074005198 0.0019720593 -0.022602724
       vertex 0.073763183 0.0019161769 -0.023277685
       vertex 0.073452479 0.0016468564 -0.022742805
    endloop
  endfacet
  facet normal -0.25348556 0.96727882 0.010805694
    outer loop
       vertex 0.074005198 0.0019720593 -0.022602724
       vertex 0.074450139 0.0020948379 -0.023155678
       vertex 0.073763183 0.0019161769 -0.023277685
    endloop
  endfacet
  facet normal -0.20716342 0.95159559 -0.22704436
    outer loop
       vertex 0.074450139 0.0020948379 -0.023155678
       vertex 0.074248917 0.0019357598 -0.02363881
       vertex 0.073763183 0.0019161769 -0.023277685
    endloop
  endfacet
  facet normal -0.67265815 0.40719571 -0.61783708
    outer loop
       vertex 0.073410923 0.0011866165 -0.023531102
       vertex 0.073785093 0.0016294316 -0.023646628
       vertex 0.073890493 0.001365227 -0.023935509
    endloop
  endfacet
  facet normal -0.68833904 0.59107954 -0.42049298
    outer loop
       vertex 0.073890493 0.001365227 -0.023935509
       vertex 0.073793626 0.0012046988 -0.024002591
       vertex 0.073587293 0.0011125855 -0.023794309
    endloop
  endfacet
  facet normal -0.66412714 0.4738301 -0.57829074
    outer loop
       vertex 0.073890493 0.001365227 -0.023935509
       vertex 0.073587293 0.0011125855 -0.023794309
       vertex 0.073410923 0.0011866165 -0.023531102
    endloop
  endfacet
  facet normal -0.38524749 0.58153482 -0.7165205
    outer loop
       vertex 0.073785093 0.0016294316 -0.023646628
       vertex 0.074396327 0.0017177198 -0.023903611
       vertex 0.074207043 0.0014486292 -0.024020237
    endloop
  endfacet
  facet normal -0.35123282 0.62355326 -0.69843886
    outer loop
       vertex 0.074207043 0.0014486292 -0.024020237
       vertex 0.073890493 0.001365227 -0.023935509
       vertex 0.073785093 0.0016294316 -0.023646628
    endloop
  endfacet
  facet normal -0.1263829 0.46798064 -0.87465507
    outer loop
       vertex 0.074396327 0.0017177198 -0.023903611
       vertex 0.074475651 0.0015362565 -0.024012164
       vertex 0.074207043 0.0014486292 -0.024020237
    endloop
  endfacet
  facet normal 0.56740531 0.66833523 0.48101895
    outer loop
       vertex 0.075542532 0.0014552201 -0.022644924
       vertex 0.075460972 0.001618677 -0.022775827
       vertex 0.075014098 0.0016994511 -0.022360927
    endloop
  endfacet
  facet normal 0.33286056 0.58713174 0.73788899
    outer loop
       vertex 0.075014098 0.0016994511 -0.022360927
       vertex 0.075292215 0.0013556509 -0.022212826
       vertex 0.075605767 0.0013677363 -0.022363885
    endloop
  endfacet
  facet normal 0.48339906 0.86080421 0.15919
    outer loop
       vertex 0.075014098 0.0016994511 -0.022360927
       vertex 0.075605767 0.0013677363 -0.022363885
       vertex 0.075542532 0.0014552201 -0.022644924
    endloop
  endfacet
  facet normal 0.51751326 0.7503312 0.41131875
    outer loop
       vertex 0.075460972 0.001618677 -0.022775827
       vertex 0.075049699 0.0019990865 -0.022952317
       vertex 0.075014098 0.0016994511 -0.022360927
    endloop
  endfacet
  facet normal 0.24241098 0.85946966 0.45005424
    outer loop
       vertex 0.075049699 0.0019990865 -0.022952317
       vertex 0.074610332 0.0019818442 -0.022682735
       vertex 0.075014098 0.0016994511 -0.022360927
    endloop
  endfacet
  facet normal 0.086673195 0.97520301 0.20363411
    outer loop
       vertex 0.075049699 0.0019990865 -0.022952317
       vertex 0.074450139 0.0020948379 -0.023155678
       vertex 0.074610332 0.0019818442 -0.022682735
    endloop
  endfacet
  facet normal 0.16985594 0.98477012 -0.037104918
    outer loop
       vertex 0.075049699 0.0019990865 -0.022952317
       vertex 0.074817738 0.0020185057 -0.023498779
       vertex 0.074450139 0.0020948379 -0.023155678
    endloop
  endfacet
  facet normal -0.068593563 0.95573516 -0.28612099
    outer loop
       vertex 0.074817738 0.0020185057 -0.023498779
       vertex 0.074248917 0.0019357598 -0.02363881
       vertex 0.074450139 0.0020948379 -0.023155678
    endloop
  endfacet
  facet normal 0.03936442 0.78202001 -0.62200896
    outer loop
       vertex 0.074817738 0.0020185057 -0.023498779
       vertex 0.074396327 0.0017177198 -0.023903611
       vertex 0.074248917 0.0019357598 -0.02363881
    endloop
  endfacet
  facet normal 0.20114548 0.69462948 -0.69067386
    outer loop
       vertex 0.074817738 0.0020185057 -0.023498779
       vertex 0.075038391 0.0017690827 -0.02368537
       vertex 0.074733342 0.0016251524 -0.023918964
    endloop
  endfacet
  facet normal 0.16185723 0.70397715 -0.69153337
    outer loop
       vertex 0.074733342 0.0016251524 -0.023918964
       vertex 0.074396327 0.0017177198 -0.023903611
       vertex 0.074817738 0.0020185057 -0.023498779
    endloop
  endfacet
  facet normal 0.79852271 0.18450546 -0.57299146
    outer loop
       vertex 0.078317371 4.2352491e-05 -0.024579889
       vertex 0.078713319 -0.0017060043 -0.024591072
       vertex 0.077746847 -0.00078855528 -0.025642529
    endloop
  endfacet
  facet normal 0.92896512 -0.31346586 -0.19688313
    outer loop
       vertex 0.078216669 -0.0033897926 -0.024253617
       vertex 0.078713319 -0.0017060043 -0.024591072
       vertex 0.078642083 -0.002809695 -0.023169958
    endloop
  endfacet
  facet normal 0.52510754 0.51038181 -0.68100842
    outer loop
       vertex 0.078317371 4.2352491e-05 -0.024579889
       vertex 0.077746847 -0.00078855528 -0.025642529
       vertex 0.077038989 0.00092637586 -0.024903084
    endloop
  endfacet
  facet normal 0.59290638 0.75581561 -0.27785751
    outer loop
       vertex 0.078317371 4.2352491e-05 -0.024579889
       vertex 0.077038989 0.00092637586 -0.024903084
       vertex 0.077567566 0.0010629627 -0.023403642
    endloop
  endfacet
  facet normal 0.85453936 0.50906682 0.10302162
    outer loop
       vertex 0.078317371 4.2352491e-05 -0.024579889
       vertex 0.077567566 0.0010629627 -0.023403642
       vertex 0.07868214 -0.00081274725 -0.023380204
    endloop
  endfacet
  facet normal 0.75225805 -0.65647549 0.056104907
    outer loop
       vertex 0.078216669 -0.0033897926 -0.024253617
       vertex 0.078642083 -0.002809695 -0.023169958
       vertex 0.077443562 -0.0041580031 -0.022876484
    endloop
  endfacet
  facet normal 0.21988953 -0.3089037 -0.9253254
    outer loop
       vertex 0.076476496 -0.0018550055 -0.026315608
       vertex 0.077552784 -0.0028065438 -0.02574219
       vertex 0.075423515 -0.0035783685 -0.025990518
    endloop
  endfacet
  facet normal -0.22818144 0.53901378 -0.81080045
    outer loop
       vertex 0.075284553 0.0010862455 -0.025055645
       vertex 0.075915243 -0.00017702699 -0.026072952
       vertex 0.074004629 -8.1757288e-05 -0.025471918
    endloop
  endfacet
  facet normal 0.29392221 0.94592871 0.13721736
    outer loop
       vertex 0.075605767 0.0013677363 -0.022363885
       vertex 0.07636458 0.0011381172 -0.022406364
       vertex 0.075835622 0.0015160664 -0.023878776
    endloop
  endfacet
  facet normal 0.39667042 0.91361232 -0.08924748
    outer loop
       vertex 0.075835622 0.0015160664 -0.023878776
       vertex 0.075378292 0.0017445714 -0.02357226
       vertex 0.07538629 0.001762284 -0.023355391
    endloop
  endfacet
  facet normal 0.52701341 0.84817529 0.053437334
    outer loop
       vertex 0.075835622 0.0015160664 -0.023878776
       vertex 0.07538629 0.001762284 -0.023355391
       vertex 0.075450828 0.0017117615 -0.023189963
    endloop
  endfacet
  facet normal 0.48663063 0.85920744 0.15796583
    outer loop
       vertex 0.075542532 0.0014552201 -0.022644924
       vertex 0.075605767 0.0013677363 -0.022363885
       vertex 0.075835622 0.0015160664 -0.023878776
    endloop
  endfacet
  facet normal 0.96472858 -0.14115673 0.2222016
    outer loop
       vertex 0.07557007 0.0014991696 -0.022736567
       vertex 0.075542532 0.0014552201 -0.022644924
       vertex 0.075835622 0.0015160664 -0.023878776
    endloop
  endfacet
  facet normal 0.65078314 0.74384854 0.15221909
    outer loop
       vertex 0.075835622 0.0015160664 -0.023878776
       vertex 0.075450828 0.0017117615 -0.023189963
       vertex 0.075551868 0.0015546916 -0.022854389
    endloop
  endfacet
  facet normal 0.74977857 0.63567224 0.1837196
    outer loop
       vertex 0.075835622 0.0015160664 -0.023878776
       vertex 0.075551868 0.0015546916 -0.022854389
       vertex 0.07557007 0.0014991696 -0.022736567
    endloop
  endfacet
  facet normal 0.56595061 0.26252451 0.78152466
    outer loop
       vertex 0.078186759 -0.0017012981 -0.021952663
       vertex 0.077497676 -4.8226801e-05 -0.022008944
       vertex 0.076759693 -0.0015426337 -0.020972533
    endloop
  endfacet
  facet normal 0.54672669 -0.82333309 -0.15235663
    outer loop
       vertex 0.078216669 -0.0033897926 -0.024253617
       vertex 0.077443562 -0.0041580031 -0.022876484
       vertex 0.076509791 -0.0044603097 -0.024593631
    endloop
  endfacet
  facet normal -0.067140771 -0.14518457 -0.98712388
    outer loop
       vertex 0.076476496 -0.0018550055 -0.026315608
       vertex 0.075423515 -0.0035783685 -0.025990518
       vertex 0.074683968 -0.0018129546 -0.026199871
    endloop
  endfacet
  facet normal -0.4416842 0.68886172 -0.57479092
    outer loop
       vertex 0.075284553 0.0010862455 -0.025055645
       vertex 0.074004629 -8.1757288e-05 -0.025471918
       vertex 0.073930696 0.00088533139 -0.024256093
    endloop
  endfacet
  facet normal 0.21451451 0.56098288 0.79955095
    outer loop
       vertex 0.075744766 -8.2411732e-06 -0.021435761
       vertex 0.07636458 0.0011381172 -0.022406364
       vertex 0.075605767 0.0013677363 -0.022363885
    endloop
  endfacet
  facet normal 0.33087858 0.59281232 0.73422948
    outer loop
       vertex 0.075605767 0.0013677363 -0.022363885
       vertex 0.075292215 0.0013556509 -0.022212826
       vertex 0.075106236 0.0011823381 -0.021989084
    endloop
  endfacet
  facet normal 0.57911789 0.43971723 0.68649197
    outer loop
       vertex 0.075106236 0.0011823381 -0.021989084
       vertex 0.074933973 0.0011099342 -0.021797387
       vertex 0.074942646 0.00081956788 -0.021618716
    endloop
  endfacet
  facet normal 0.38923891 0.54180112 0.74494605
    outer loop
       vertex 0.074942646 0.00081956788 -0.021618716
       vertex 0.075744766 -8.2411732e-06 -0.021435761
       vertex 0.075605767 0.0013677363 -0.022363885
    endloop
  endfacet
  facet normal 0.3260891 0.59933308 0.73107165
    outer loop
       vertex 0.075605767 0.0013677363 -0.022363885
       vertex 0.075106236 0.0011823381 -0.021989084
       vertex 0.074942646 0.00081956788 -0.021618716
    endloop
  endfacet
  facet normal 0.55363456 -0.11524703 0.82474657
    outer loop
       vertex 0.078186759 -0.0017012981 -0.021952663
       vertex 0.076759693 -0.0015426337 -0.020972533
       vertex 0.077466222 -0.0032499925 -0.021685391
    endloop
  endfacet
  facet normal -0.29947233 -0.95283979 -0.049118832
    outer loop
       vertex 0.074697058 -0.004618055 -0.024706959
       vertex 0.0753339 -0.0049005811 -0.023109086
       vertex 0.073461679 -0.004288693 -0.023564167
    endloop
  endfacet
  facet normal -0.85814104 -0.24409764 -0.45167499
    outer loop
       vertex 0.073097836 -0.0016776889 -0.025522193
       vertex 0.073520324 -0.0034719563 -0.02535521
       vertex 0.072574448 -0.0025277189 -0.024068424
    endloop
  endfacet
  facet normal -0.92422987 0.35501642 0.1405791
    outer loop
       vertex 0.073112387 0.00012150331 -0.022959206
       vertex 0.0726594 -0.00053487549 -0.024279737
       vertex 0.072614514 -0.0013507534 -0.02251443
    endloop
  endfacet
  facet normal -0.50326816 0.077805669 0.86062038
    outer loop
       vertex 0.075374975 -0.0012316227 -0.020954773
       vertex 0.074101097 -0.00045427312 -0.02176998
       vertex 0.074117821 -0.0022468509 -0.02159814
    endloop
  endfacet
  facet normal -0.13113332 -0.64248504 0.75499472
    outer loop
       vertex 0.076548841 -0.0041649218 -0.022152136
       vertex 0.075971001 -0.0028795165 -0.021158646
       vertex 0.074783415 -0.0039791169 -0.022300653
    endloop
  endfacet
  facet normal -0.31750513 -0.45859462 0.82998884
    outer loop
       vertex 0.074783415 -0.0039791169 -0.022300653
       vertex 0.074117821 -0.0022468509 -0.02159814
       vertex 0.073006933 -0.0030785841 -0.022482659
    endloop
  endfacet
  facet normal -0.35138525 -0.46464015 0.81279637
    outer loop
       vertex 0.074783415 -0.0039791169 -0.022300653
       vertex 0.075971001 -0.0028795165 -0.021158646
       vertex 0.074117821 -0.0022468509 -0.02159814
    endloop
  endfacet
  facet normal -0.29611622 -0.22203455 0.92898646
    outer loop
       vertex 0.075971001 -0.0028795165 -0.021158646
       vertex 0.075374975 -0.0012316227 -0.020954773
       vertex 0.074117821 -0.0022468509 -0.02159814
    endloop
  endfacet
  facet normal -0.56551991 -0.11341782 0.81689879
    outer loop
       vertex 0.074117821 -0.0022468509 -0.02159814
       vertex 0.072614514 -0.0013507534 -0.02251443
       vertex 0.073006933 -0.0030785841 -0.022482659
    endloop
  endfacet
  facet normal -0.48406303 0.079023725 0.87145754
    outer loop
       vertex 0.074117821 -0.0022468509 -0.02159814
       vertex 0.074101097 -0.00045427312 -0.02176998
       vertex 0.072614514 -0.0013507534 -0.02251443
    endloop
  endfacet
  facet normal -0.59389656 0.40997029 0.69225085
    outer loop
       vertex 0.074101097 -0.00045427312 -0.02176998
       vertex 0.073112387 0.00012150331 -0.022959206
       vertex 0.072614514 -0.0013507534 -0.02251443
    endloop
  endfacet
  facet normal -0.95869673 -0.21429705 0.18702235
    outer loop
       vertex 0.072614514 -0.0013507534 -0.02251443
       vertex 0.072574448 -0.0025277189 -0.024068424
       vertex 0.073006933 -0.0030785841 -0.022482659
    endloop
  endfacet
  facet normal -0.9991015 0.041952537 -0.0060144762
    outer loop
       vertex 0.072614514 -0.0013507534 -0.02251443
       vertex 0.0726594 -0.00053487549 -0.024279737
       vertex 0.072574448 -0.0025277189 -0.024068424
    endloop
  endfacet
  facet normal -0.94170192 0.0044710672 -0.33641865
    outer loop
       vertex 0.0726594 -0.00053487549 -0.024279737
       vertex 0.073097836 -0.0016776889 -0.025522193
       vertex 0.072574448 -0.0025277189 -0.024068424
    endloop
  endfacet
  facet normal -0.89974242 -0.42536244 0.09762359
    outer loop
       vertex 0.072574448 -0.0025277189 -0.024068424
       vertex 0.073461679 -0.004288693 -0.023564167
       vertex 0.073006933 -0.0030785841 -0.022482659
    endloop
  endfacet
  facet normal -0.8334513 -0.4919739 -0.25163587
    outer loop
       vertex 0.072574448 -0.0025277189 -0.024068424
       vertex 0.073520324 -0.0034719563 -0.02535521
       vertex 0.073461679 -0.004288693 -0.023564167
    endloop
  endfacet
  facet normal -0.53918472 -0.75947123 -0.36398255
    outer loop
       vertex 0.073520324 -0.0034719563 -0.02535521
       vertex 0.074697058 -0.004618055 -0.024706959
       vertex 0.073461679 -0.004288693 -0.023564167
    endloop
  endfacet
  facet normal -0.41030962 -0.68857225 0.59792497
    outer loop
       vertex 0.073461679 -0.004288693 -0.023564167
       vertex 0.074783415 -0.0039791169 -0.022300653
       vertex 0.073006933 -0.0030785841 -0.022482659
    endloop
  endfacet
  facet normal -0.37709513 -0.72780956 0.5727936
    outer loop
       vertex 0.073461679 -0.004288693 -0.023564167
       vertex 0.0753339 -0.0049005811 -0.023109086
       vertex 0.074783415 -0.0039791169 -0.022300653
    endloop
  endfacet
  facet normal -0.13264529 -0.69726614 0.70443251
    outer loop
       vertex 0.0753339 -0.0049005811 -0.023109086
       vertex 0.076548841 -0.0041649218 -0.022152136
       vertex 0.074783415 -0.0039791169 -0.022300653
    endloop
  endfacet
  facet normal 0.14719395 -0.56260041 0.81351996
    outer loop
       vertex 0.077466222 -0.0032499925 -0.021685391
       vertex 0.075971001 -0.0028795165 -0.021158646
       vertex 0.076548841 -0.0041649218 -0.022152136
    endloop
  endfacet
  facet normal 0.25648873 -0.28009825 0.92507216
    outer loop
       vertex 0.077466222 -0.0032499925 -0.021685391
       vertex 0.076759693 -0.0015426337 -0.020972533
       vertex 0.075971001 -0.0028795165 -0.021158646
    endloop
  endfacet
  facet normal -0.01614668 -0.12851577 0.99157601
    outer loop
       vertex 0.076759693 -0.0015426337 -0.020972533
       vertex 0.075374975 -0.0012316227 -0.020954773
       vertex 0.075971001 -0.0028795165 -0.021158646
    endloop
  endfacet
  facet normal -0.28967191 0.42477644 0.85770342
    outer loop
       vertex 0.075744766 -8.2411732e-06 -0.021435761
       vertex 0.074101097 -0.00045427312 -0.02176998
       vertex 0.075374975 -0.0012316227 -0.020954773
    endloop
  endfacet
  facet normal -0.20406654 0.018587671 0.97878054
    outer loop
       vertex 0.074101097 -0.00045427312 -0.02176998
       vertex 0.075744766 -8.2411732e-06 -0.021435761
       vertex 0.074942646 0.00081956788 -0.021618716
    endloop
  endfacet
  facet normal -0.11220868 0.22739845 0.96731544
    outer loop
       vertex 0.074942646 0.00081956788 -0.021618716
       vertex 0.07454226 0.00089769211 -0.021683527
       vertex 0.07425956 0.00082424731 -0.021699054
    endloop
  endfacet
  facet normal -0.057342607 -0.20024772 0.97806578
    outer loop
       vertex 0.07425956 0.00082424731 -0.021699054
       vertex 0.074073774 0.00074715843 -0.02172573
       vertex 0.074022137 0.00048307052 -0.021782826
    endloop
  endfacet
  facet normal -0.1750695 -0.0012546428 0.98455528
    outer loop
       vertex 0.074022137 0.00048307052 -0.021782826
       vertex 0.074101097 -0.00045427312 -0.02176998
       vertex 0.074942646 0.00081956788 -0.021618716
    endloop
  endfacet
  facet normal -0.11638528 -0.15970397 0.98028012
    outer loop
       vertex 0.074942646 0.00081956788 -0.021618716
       vertex 0.07425956 0.00082424731 -0.021699054
       vertex 0.074022137 0.00048307052 -0.021782826
    endloop
  endfacet
  facet normal -0.74228699 0.66572686 -0.076274288
    outer loop
       vertex 0.073930696 0.00088533139 -0.024256093
       vertex 0.0726594 -0.00053487549 -0.024279737
       vertex 0.073112387 0.00012150331 -0.022959206
    endloop
  endfacet
  facet normal -0.64042052 0.5816217 -0.50157528
    outer loop
       vertex 0.073930696 0.00088533139 -0.024256093
       vertex 0.074004629 -8.1757288e-05 -0.025471918
       vertex 0.0726594 -0.00053487549 -0.024279737
    endloop
  endfacet
  facet normal -0.67902378 0.40510109 -0.6122253
    outer loop
       vertex 0.074004629 -8.1757288e-05 -0.025471918
       vertex 0.073097836 -0.0016776889 -0.025522193
       vertex 0.0726594 -0.00053487549 -0.024279737
    endloop
  endfacet
  facet normal -0.39941698 -0.17774896 -0.89937277
    outer loop
       vertex 0.074683968 -0.0018129546 -0.026199871
       vertex 0.073520324 -0.0034719563 -0.02535521
       vertex 0.073097836 -0.0016776889 -0.025522193
    endloop
  endfacet
  facet normal -0.31936012 -0.24241911 -0.91610157
    outer loop
       vertex 0.074683968 -0.0018129546 -0.026199871
       vertex 0.075423515 -0.0035783685 -0.025990518
       vertex 0.073520324 -0.0034719563 -0.02535521
    endloop
  endfacet
  facet normal -0.2688837 -0.66835162 -0.69354716
    outer loop
       vertex 0.075423515 -0.0035783685 -0.025990518
       vertex 0.074697058 -0.004618055 -0.024706959
       vertex 0.073520324 -0.0034719563 -0.02535521
    endloop
  endfacet
  facet normal 0.097823781 -0.97258847 -0.21095537
    outer loop
       vertex 0.076509791 -0.0044603097 -0.024593631
       vertex 0.0753339 -0.0049005811 -0.023109086
       vertex 0.074697058 -0.004618055 -0.024706959
    endloop
  endfacet
  facet normal 0.3334922 -0.94262708 -0.015399454
    outer loop
       vertex 0.076509791 -0.0044603097 -0.024593631
       vertex 0.077443562 -0.0041580031 -0.022876484
       vertex 0.0753339 -0.0049005811 -0.023109086
    endloop
  endfacet
  facet normal 0.27942024 -0.89925303 0.33655358
    outer loop
       vertex 0.077443562 -0.0041580031 -0.022876484
       vertex 0.076548841 -0.0041649218 -0.022152136
       vertex 0.0753339 -0.0049005811 -0.023109086
    endloop
  endfacet
  facet normal 0.088624687 0.34114306 0.93582428
    outer loop
       vertex 0.076759693 -0.0015426337 -0.020972533
       vertex 0.075744766 -8.2411732e-06 -0.021435761
       vertex 0.075374975 -0.0012316227 -0.020954773
    endloop
  endfacet
  facet normal 0.28735037 0.44597555 0.84766478
    outer loop
       vertex 0.076759693 -0.0015426337 -0.020972533
       vertex 0.077497676 -4.8226801e-05 -0.022008944
       vertex 0.075744766 -8.2411732e-06 -0.021435761
    endloop
  endfacet
  facet normal 0.27433487 0.53067224 0.80195221
    outer loop
       vertex 0.077497676 -4.8226801e-05 -0.022008944
       vertex 0.07636458 0.0011381172 -0.022406364
       vertex 0.075744766 -8.2411732e-06 -0.021435761
    endloop
  endfacet
  facet normal -0.26771774 0.93863778 -0.2174542
    outer loop
       vertex 0.075835622 0.0015160664 -0.023878776
       vertex 0.075284553 0.0010862455 -0.025055645
       vertex 0.073930696 0.00088533139 -0.024256093
    endloop
  endfacet
  facet normal -0.36476849 0.2356346 -0.9007887
    outer loop
       vertex 0.074004629 -8.1757288e-05 -0.025471918
       vertex 0.074683968 -0.0018129546 -0.026199871
       vertex 0.073097836 -0.0016776889 -0.025522193
    endloop
  endfacet
  facet normal -0.27551104 0.27873803 -0.91999934
    outer loop
       vertex 0.074004629 -8.1757288e-05 -0.025471918
       vertex 0.075915243 -0.00017702699 -0.026072952
       vertex 0.074683968 -0.0018129546 -0.026199871
    endloop
  endfacet
  facet normal -0.061074832 0.12281684 -0.99054828
    outer loop
       vertex 0.075915243 -0.00017702699 -0.026072952
       vertex 0.076476496 -0.0018550055 -0.026315608
       vertex 0.074683968 -0.0018129546 -0.026199871
    endloop
  endfacet
  facet normal 0.10653391 -0.80127264 -0.58873821
    outer loop
       vertex 0.075423515 -0.0035783685 -0.025990518
       vertex 0.076509791 -0.0044603097 -0.024593631
       vertex 0.074697058 -0.004618055 -0.024706959
    endloop
  endfacet
  facet normal 0.32054831 -0.66834584 -0.67123962
    outer loop
       vertex 0.075423515 -0.0035783685 -0.025990518
       vertex 0.077552784 -0.0028065438 -0.02574219
       vertex 0.076509791 -0.0044603097 -0.024593631
    endloop
  endfacet
  facet normal 0.5288129 -0.68322752 -0.50354451
    outer loop
       vertex 0.077552784 -0.0028065438 -0.02574219
       vertex 0.078216669 -0.0033897926 -0.024253617
       vertex 0.076509791 -0.0044603097 -0.024593631
    endloop
  endfacet
  facet normal 0.4415996 -0.71755416 0.53861472
    outer loop
       vertex 0.077443562 -0.0041580031 -0.022876484
       vertex 0.077466222 -0.0032499925 -0.021685391
       vertex 0.076548841 -0.0041649218 -0.022152136
    endloop
  endfacet
  facet normal 0.72437497 -0.55483709 0.4091903
    outer loop
       vertex 0.077443562 -0.0041580031 -0.022876484
       vertex 0.078642083 -0.002809695 -0.023169958
       vertex 0.077466222 -0.0032499925 -0.021685391
    endloop
  endfacet
  facet normal 0.79177721 -0.27418173 0.54581429
    outer loop
       vertex 0.078642083 -0.002809695 -0.023169958
       vertex 0.078186759 -0.0017012981 -0.021952663
       vertex 0.077466222 -0.0032499925 -0.021685391
    endloop
  endfacet
  facet normal 0.796639 0.34888453 0.49360499
    outer loop
       vertex 0.07868214 -0.00081274725 -0.023380204
       vertex 0.077497676 -4.8226801e-05 -0.022008944
       vertex 0.078186759 -0.0017012981 -0.021952663
    endloop
  endfacet
  facet normal 0.78072191 0.46907486 0.41284631
    outer loop
       vertex 0.07868214 -0.00081274725 -0.023380204
       vertex 0.077567566 0.0010629627 -0.023403642
       vertex 0.077497676 -4.8226801e-05 -0.022008944
    endloop
  endfacet
  facet normal 0.50115215 0.66439854 0.55445568
    outer loop
       vertex 0.077567566 0.0010629627 -0.023403642
       vertex 0.07636458 0.0011381172 -0.022406364
       vertex 0.077497676 -4.8226801e-05 -0.022008944
    endloop
  endfacet
  facet normal 0.20432455 0.96333766 0.17387362
    outer loop
       vertex 0.077567566 0.0010629627 -0.023403642
       vertex 0.075835622 0.0015160664 -0.023878776
       vertex 0.07636458 0.0011381172 -0.022406364
    endloop
  endfacet
  facet normal 0.29692723 0.93582349 -0.18991738
    outer loop
       vertex 0.077567566 0.0010629627 -0.023403642
       vertex 0.077038989 0.00092637586 -0.024903084
       vertex 0.075835622 0.0015160664 -0.023878776
    endloop
  endfacet
  facet normal 0.11707291 0.91393432 -0.38861034
    outer loop
       vertex 0.077038989 0.00092637586 -0.024903084
       vertex 0.075284553 0.0010862455 -0.025055645
       vertex 0.075835622 0.0015160664 -0.023878776
    endloop
  endfacet
  facet normal 0.12455533 0.65930211 -0.74148951
    outer loop
       vertex 0.077038989 0.00092637586 -0.024903084
       vertex 0.075915243 -0.00017702699 -0.026072952
       vertex 0.075284553 0.0010862455 -0.025055645
    endloop
  endfacet
  facet normal 0.35095476 0.48914822 -0.79847654
    outer loop
       vertex 0.077038989 0.00092637586 -0.024903084
       vertex 0.077746847 -0.00078855528 -0.025642529
       vertex 0.075915243 -0.00017702699 -0.026072952
    endloop
  endfacet
  facet normal 0.29546945 0.23281937 -0.92654894
    outer loop
       vertex 0.077746847 -0.00078855528 -0.025642529
       vertex 0.076476496 -0.0018550055 -0.026315608
       vertex 0.075915243 -0.00017702699 -0.026072952
    endloop
  endfacet
  facet normal 0.94135894 0.016597497 0.33699831
    outer loop
       vertex 0.078642083 -0.002809695 -0.023169958
       vertex 0.07868214 -0.00081274725 -0.023380204
       vertex 0.078186759 -0.0017012981 -0.021952663
    endloop
  endfacet
  facet normal 0.99916367 -0.01608443 0.037593359
    outer loop
       vertex 0.078642083 -0.002809695 -0.023169958
       vertex 0.078713319 -0.0017060043 -0.024591072
       vertex 0.07868214 -0.00081274725 -0.023380204
    endloop
  endfacet
  facet normal 0.96589716 0.21962269 -0.13714428
    outer loop
       vertex 0.078713319 -0.0017060043 -0.024591072
       vertex 0.078317371 4.2352491e-05 -0.024579889
       vertex 0.07868214 -0.00081274725 -0.023380204
    endloop
  endfacet
  facet normal 0.46916655 -0.0015048313 -0.88310842
    outer loop
       vertex 0.077746847 -0.00078855528 -0.025642529
       vertex 0.077552784 -0.0028065438 -0.02574219
       vertex 0.076476496 -0.0018550055 -0.026315608
    endloop
  endfacet
  facet normal 0.72035131 -0.035062773 -0.6927226
    outer loop
       vertex 0.077746847 -0.00078855528 -0.025642529
       vertex 0.078713319 -0.0017060043 -0.024591072
       vertex 0.077552784 -0.0028065438 -0.02574219
    endloop
  endfacet
  facet normal 0.80442632 -0.33552224 -0.49022762
    outer loop
       vertex 0.078713319 -0.0017060043 -0.024591072
       vertex 0.078216669 -0.0033897926 -0.024253617
       vertex 0.077552784 -0.0028065438 -0.02574219
    endloop
  endfacet
  facet normal -0.8170973 -0.18343171 0.54653893
    outer loop
       vertex 0.073316907 0.00057921018 -0.022463047
       vertex 0.073420198 0.000572611 -0.022310838
       vertex 0.073312019 0.00073874538 -0.02241681
    endloop
  endfacet
  facet normal -0.29342295 0.51391489 -0.80609829
    outer loop
       vertex 0.073930696 0.00088533139 -0.024256093
       vertex 0.073793626 0.0012046988 -0.024002591
       vertex 0.073890493 0.001365227 -0.023935509
    endloop
  endfacet
  facet normal -0.3445306 0.50134692 -0.79369385
    outer loop
       vertex 0.073930696 0.00088533139 -0.024256093
       vertex 0.073890493 0.001365227 -0.023935509
       vertex 0.074207043 0.0014486292 -0.024020237
    endloop
  endfacet
  facet normal -0.10178094 0.71880341 -0.68772254
    outer loop
       vertex 0.075378292 0.0017445714 -0.02357226
       vertex 0.075835622 0.0015160664 -0.023878776
       vertex 0.073930696 0.00088533139 -0.024256093
    endloop
  endfacet
  facet normal 0.29196528 0.59566052 -0.74829461
    outer loop
       vertex 0.074733342 0.0016251524 -0.023918964
       vertex 0.075038391 0.0017690827 -0.02368537
       vertex 0.075378292 0.0017445714 -0.02357226
    endloop
  endfacet
  facet normal -0.11356927 0.43061012 -0.89536414
    outer loop
       vertex 0.073930696 0.00088533139 -0.024256093
       vertex 0.074207043 0.0014486292 -0.024020237
       vertex 0.074475651 0.0015362565 -0.024012164
    endloop
  endfacet
  facet normal 0.44616582 -0.66237768 -0.60182379
    outer loop
       vertex 0.074475651 0.0015362565 -0.024012164
       vertex 0.074733342 0.0016251524 -0.023918964
       vertex 0.075378292 0.0017445714 -0.02357226
    endloop
  endfacet
  facet normal 0.44466575 -0.036905248 -0.89493596
    outer loop
       vertex 0.074475651 0.0015362565 -0.024012164
       vertex 0.075378292 0.0017445714 -0.02357226
       vertex 0.073930696 0.00088533139 -0.024256093
    endloop
  endfacet
  facet normal 0.66272096 0.72850909 0.17342272
    outer loop
       vertex 0.075328065 0.001843298 -0.023211514
       vertex 0.075460972 0.001618677 -0.022775827
       vertex 0.075551868 0.0015546916 -0.022854389
    endloop
  endfacet
  facet normal 0.71829244 0.68768032 0.10560183
    outer loop
       vertex 0.075551868 0.0015546916 -0.022854389
       vertex 0.075450828 0.0017117615 -0.023189963
       vertex 0.075328065 0.001843298 -0.023211514
    endloop
  endfacet
  facet normal -0.55019705 -0.034913852 0.83430464
    outer loop
       vertex 0.074101097 -0.00045427312 -0.02176998
       vertex 0.074022137 0.00048307052 -0.021782826
       vertex 0.073694092 0.0006520795 -0.021992088
    endloop
  endfacet
  facet normal -0.2954935 -0.94190408 0.15968813
    outer loop
       vertex 0.073420198 0.000572611 -0.022310838
       vertex 0.073316907 0.00057921018 -0.022463047
       vertex 0.073211274 0.00056848701 -0.022721765
    endloop
  endfacet
  facet normal -0.73425325 -0.13661606 0.66498738
    outer loop
       vertex 0.074101097 -0.00045427312 -0.02176998
       vertex 0.073694092 0.0006520795 -0.021992088
       vertex 0.073420198 0.000572611 -0.022310838
    endloop
  endfacet
  facet normal -0.79354858 -0.13912456 0.59238924
    outer loop
       vertex 0.073211274 0.00056848701 -0.022721765
       vertex 0.073112387 0.00012150331 -0.022959206
       vertex 0.074101097 -0.00045427312 -0.02176998
    endloop
  endfacet
  facet normal -0.84002924 -0.33030776 0.43040406
    outer loop
       vertex 0.073420198 0.000572611 -0.022310838
       vertex 0.073211274 0.00056848701 -0.022721765
       vertex 0.074101097 -0.00045427312 -0.02176998
    endloop
  endfacet
  facet normal 0.11207169 0.54575446 -0.83041677
    outer loop
       vertex 0.074733342 0.0016251524 -0.023918964
       vertex 0.074475651 0.0015362565 -0.024012164
       vertex 0.074396327 0.0017177198 -0.023903611
    endloop
  endfacet
  facet normal -0.98038898 0.19090237 0.048925685
    outer loop
       vertex 0.073112387 0.00012150331 -0.022959206
       vertex 0.073211274 0.00056848701 -0.022721765
       vertex 0.073225615 0.00071222965 -0.022995248
    endloop
  endfacet
  facet normal -0.97423336 0.17831088 -0.13811082
    outer loop
       vertex 0.073112387 0.00012150331 -0.022959206
       vertex 0.073225615 0.00071222965 -0.022995248
       vertex 0.073270873 0.00078456995 -0.023221099
    endloop
  endfacet
  facet normal -0.85590403 0.041792545 -0.51544319
    outer loop
       vertex 0.073793626 0.0012046988 -0.024002591
       vertex 0.073930696 0.00088533139 -0.024256093
       vertex 0.073112387 0.00012150331 -0.022959206
    endloop
  endfacet
  facet normal -0.5368398 -0.43375134 -0.7236455
    outer loop
       vertex 0.073430042 0.00097218288 -0.023593495
       vertex 0.073587293 0.0011125855 -0.023794309
       vertex 0.073793626 0.0012046988 -0.024002591
    endloop
  endfacet
  facet normal -0.93065606 0.081562816 -0.35668867
    outer loop
       vertex 0.073112387 0.00012150331 -0.022959206
       vertex 0.073270873 0.00078456995 -0.023221099
       vertex 0.073430042 0.00097218288 -0.023593495
    endloop
  endfacet
  facet normal -0.61657261 -0.30952376 -0.72390142
    outer loop
       vertex 0.073430042 0.00097218288 -0.023593495
       vertex 0.073793626 0.0012046988 -0.024002591
       vertex 0.073112387 0.00012150331 -0.022959206
    endloop
  endfacet
  facet normal 0.55815114 0.67022632 0.48914617
    outer loop
       vertex 0.075542532 0.0014552201 -0.022644924
       vertex 0.07557007 0.0014991696 -0.022736567
       vertex 0.075460972 0.001618677 -0.022775827
    endloop
  endfacet
  facet normal -0.56139453 -0.068533269 0.82470563
    outer loop
       vertex 0.073694092 0.0006520795 -0.021992088
       vertex 0.074022137 0.00048307052 -0.021782826
       vertex 0.074073774 0.00074715843 -0.02172573
    endloop
  endfacet
  facet normal -0.5542478 -0.10119526 0.82617728
    outer loop
       vertex 0.074073774 0.00074715843 -0.02172573
       vertex 0.073631383 0.00096143344 -0.021996265
       vertex 0.073694092 0.0006520795 -0.021992088
    endloop
  endfacet
  facet normal 0.33606172 0.58859283 0.73526934
    outer loop
       vertex 0.075106236 0.0011823381 -0.021989084
       vertex 0.075292215 0.0013556509 -0.022212826
       vertex 0.075014098 0.0016994511 -0.022360927
    endloop
  endfacet
  facet normal 0.27758041 0.59297916 0.75586033
    outer loop
       vertex 0.075014098 0.0016994511 -0.022360927
       vertex 0.074724259 0.0012464114 -0.021899073
       vertex 0.075106236 0.0011823381 -0.021989084
    endloop
  endfacet
  facet normal 0.68248327 0.69617142 0.22262512
    outer loop
       vertex 0.07557007 0.0014991696 -0.022736567
       vertex 0.075551868 0.0015546916 -0.022854389
       vertex 0.075460972 0.001618677 -0.022775827
    endloop
  endfacet
  facet normal -0.81465809 0.09388094 -0.57229238
    outer loop
       vertex 0.073587293 0.0011125855 -0.023794309
       vertex 0.073430042 0.00097218288 -0.023593495
       vertex 0.073410923 0.0011866165 -0.023531102
    endloop
  endfacet
  facet normal 0.26115637 0.80179169 0.53751971
    outer loop
       vertex 0.074933973 0.0011099342 -0.021797387
       vertex 0.075106236 0.0011823381 -0.021989084
       vertex 0.074724259 0.0012464114 -0.021899073
    endloop
  endfacet
  facet normal -0.29679232 0.41820525 0.85849793
    outer loop
       vertex 0.074073774 0.00074715843 -0.02172573
       vertex 0.07425956 0.00082424731 -0.021699054
       vertex 0.074106935 0.0011803941 -0.02192531
    endloop
  endfacet
  facet normal -0.31884149 0.41659734 0.85134409
    outer loop
       vertex 0.074106935 0.0011803941 -0.02192531
       vertex 0.073631383 0.00096143344 -0.021996265
       vertex 0.074073774 0.00074715843 -0.02172573
    endloop
  endfacet
  facet normal -0.73353232 -0.13971198 0.66513976
    outer loop
       vertex 0.073420198 0.000572611 -0.022310838
       vertex 0.073694092 0.0006520795 -0.021992088
       vertex 0.073631383 0.00096143344 -0.021996265
    endloop
  endfacet
  facet normal -0.76767973 -0.095688189 0.63364943
    outer loop
       vertex 0.073631383 0.00096143344 -0.021996265
       vertex 0.073312019 0.00073874538 -0.02241681
       vertex 0.073420198 0.000572611 -0.022310838
    endloop
  endfacet
  facet normal -0.035810358 0.52295183 0.85160966
    outer loop
       vertex 0.07454226 0.00089769211 -0.021683527
       vertex 0.074942646 0.00081956788 -0.021618716
       vertex 0.074933973 0.0011099342 -0.021797387
    endloop
  endfacet
  facet normal -0.051637657 0.54443782 0.83721026
    outer loop
       vertex 0.074933973 0.0011099342 -0.021797387
       vertex 0.074724259 0.0012464114 -0.021899073
       vertex 0.07454226 0.00089769211 -0.021683527
    endloop
  endfacet
endsolid ExportedfromBlender-2.79(sub0)
