solid ExportedfromBlender-2.79(sub0)
  facet normal 0.87061998 0.29888423 -0.39075449
    outer loop
       vertex 0.063382055 -0.00052370924 -0.001771487
       vertex 0.06341696 -0.00012798989 -0.001391034
       vertex 0.06362743 -0.00064178454 -0.0013150943
    endloop
  endfacet
  facet normal 0.86931514 -0.079206454 -0.4878704
    outer loop
       vertex 0.063034193 -0.0023163857 -0.002100283
       vertex 0.063382055 -0.00052370924 -0.001771487
       vertex 0.06362743 -0.00064178454 -0.0013150943
    endloop
  endfacet
  facet normal 0.58150947 -0.21827597 -0.78371062
    outer loop
       vertex 0.06362743 -0.00064178454 -0.0013150943
       vertex 0.063944758 -0.0010949221 -0.00095343194
       vertex 0.063451839 -0.0020622256 -0.0010497662
    endloop
  endfacet
  facet normal 0.92864613 -0.17581395 -0.32665856
    outer loop
       vertex 0.06362743 -0.00064178454 -0.0013150943
       vertex 0.063451839 -0.0020622256 -0.0010497662
       vertex 0.063034193 -0.0023163857 -0.002100283
    endloop
  endfacet
  facet normal 0.7698583 -0.032484205 -0.63738762
    outer loop
       vertex 0.063382055 -0.00052370924 -0.001771487
       vertex 0.063034193 -0.0023163857 -0.002100283
       vertex 0.062588954 -0.00068334474 -0.0027212854
    endloop
  endfacet
  facet normal 0.67329852 0.3904825 -0.62784753
    outer loop
       vertex 0.063382055 -0.00052370924 -0.001771487
       vertex 0.062588954 -0.00068334474 -0.0027212854
       vertex 0.062619052 0.00081579116 -0.0017566385
    endloop
  endfacet
  facet normal 0.40044578 -0.88442603 -0.23965345
    outer loop
       vertex 0.061951003 -0.0037461814 -0.0020143857
       vertex 0.06238892 -0.003830221 -0.0009725111
       vertex 0.060550538 -0.0045239548 -0.0014841505
    endloop
  endfacet
  facet normal 0.34342683 -0.060389221 -0.93723591
    outer loop
       vertex 0.061192818 -0.0010389362 -0.00333398
       vertex 0.061800812 -0.0024344907 -0.0030212755
       vertex 0.05977264 -0.0021412343 -0.0037833443
    endloop
  endfacet
  facet normal 0.32366177 -0.85665699 -0.4017236
    outer loop
       vertex 0.061951003 -0.0037461814 -0.0020143857
       vertex 0.060550538 -0.0045239548 -0.0014841505
       vertex 0.060302213 -0.00400838 -0.0027836612
    endloop
  endfacet
  facet normal 0.05567851 0.31456538 -0.94760146
    outer loop
       vertex 0.061192818 -0.0010389362 -0.00333398
       vertex 0.05977264 -0.0021412343 -0.0037833443
       vertex 0.059420197 -0.00040879078 -0.0032289516
    endloop
  endfacet
  facet normal -0.41959651 -0.907531 -0.018062704
    outer loop
       vertex 0.058939516 -0.0047616391 -0.00073064085
       vertex 0.058777098 -0.0046996373 -7.2852509e-05
       vertex 0.057557096 -0.0041324003 -0.00023212045
    endloop
  endfacet
  facet normal -0.44624806 -0.88713356 -0.11771456
    outer loop
       vertex 0.057557096 -0.0041324003 -0.00023212045
       vertex 0.05726558 -0.0038882917 -0.00096668057
       vertex 0.058939516 -0.0047616391 -0.00073064085
    endloop
  endfacet
  facet normal -0.31978735 -0.63473317 -0.70345565
    outer loop
       vertex 0.058377356 -0.0033666694 -0.0030611552
       vertex 0.058386064 -0.0042858671 -0.0022357149
       vertex 0.056798956 -0.0030283605 -0.0026488814
    endloop
  endfacet
  facet normal -0.51120738 0.29783799 -0.80620069
    outer loop
       vertex 0.057734026 3.1643055e-05 -0.0026784163
       vertex 0.057709409 -0.0018108615 -0.0033434908
       vertex 0.056538225 -0.00096293049 -0.0022875953
    endloop
  endfacet
  facet normal -0.93515796 -0.05689243 -0.34963244
    outer loop
       vertex 0.056538225 -0.00096293049 -0.0022875953
       vertex 0.056798956 -0.0030283605 -0.0026488814
       vertex 0.056245242 -0.0023492447 -0.0012783749
    endloop
  endfacet
  facet normal -0.64806652 0.051107202 -0.75986699
    outer loop
       vertex 0.056538225 -0.00096293049 -0.0022875953
       vertex 0.057709409 -0.0018108615 -0.0033434908
       vertex 0.056798956 -0.0030283605 -0.0026488814
    endloop
  endfacet
  facet normal -0.29998986 -0.29350919 -0.90766648
    outer loop
       vertex 0.057709409 -0.0018108615 -0.0033434908
       vertex 0.058377356 -0.0033666694 -0.0030611552
       vertex 0.056798956 -0.0030283605 -0.0026488814
    endloop
  endfacet
  facet normal -0.82679805 -0.55963034 -0.056735152
    outer loop
       vertex 0.056798956 -0.0030283605 -0.0026488814
       vertex 0.05726558 -0.0038882917 -0.00096668057
       vertex 0.056245242 -0.0023492447 -0.0012783749
    endloop
  endfacet
  facet normal -0.56112455 -0.78969409 -0.24803728
    outer loop
       vertex 0.056798956 -0.0030283605 -0.0026488814
       vertex 0.058386064 -0.0042858671 -0.0022357149
       vertex 0.05726558 -0.0038882917 -0.00096668057
    endloop
  endfacet
  facet normal -0.44648793 -0.88720321 -0.11627122
    outer loop
       vertex 0.058386064 -0.0042858671 -0.0022357149
       vertex 0.058939516 -0.0047616391 -0.00073064085
       vertex 0.05726558 -0.0038882917 -0.00096668057
    endloop
  endfacet
  facet normal -0.79303273 -0.56953449 -0.21617018
    outer loop
       vertex 0.056245242 -0.0023492447 -0.0012783749
       vertex 0.05726558 -0.0038882917 -0.00096668057
       vertex 0.05698426 -0.0037095192 -0.00040564405
    endloop
  endfacet
  facet normal -0.38443093 -0.46718822 -0.79620853
    outer loop
       vertex 0.05698426 -0.0037095192 -0.00040564405
       vertex 0.056295629 -0.0030727281 -0.00044680204
       vertex 0.056104452 -0.0023224062 -0.00079476004
    endloop
  endfacet
  facet normal -0.80051816 -0.56433654 -0.20172988
    outer loop
       vertex 0.05698426 -0.0037095192 -0.00040564405
       vertex 0.056104452 -0.0023224062 -0.00079476004
       vertex 0.056245242 -0.0023492447 -0.0012783749
    endloop
  endfacet
  facet normal -0.58641017 -0.80920527 -0.036193018
    outer loop
       vertex 0.05726558 -0.0038882917 -0.00096668057
       vertex 0.057557096 -0.0041324003 -0.00023212045
       vertex 0.05698426 -0.0037095192 -0.00040564405
    endloop
  endfacet
  facet normal -0.29316125 0.40456236 -0.8662481
    outer loop
       vertex 0.059084024 0.0013399156 -0.0025242912
       vertex 0.057734026 3.1643055e-05 -0.0026784163
       vertex 0.057171904 0.0010718361 -0.00200238
    endloop
  endfacet
  facet normal -0.28820482 0.26325926 -0.92066962
    outer loop
       vertex 0.057171904 0.0010718361 -0.00200238
       vertex 0.057845986 0.0016478257 -0.002048693
       vertex 0.059084024 0.0013399156 -0.0025242912
    endloop
  endfacet
  facet normal -0.21248121 0.33427802 -0.91821018
    outer loop
       vertex 0.059420197 -0.00040879078 -0.0032289516
       vertex 0.057709409 -0.0018108615 -0.0033434908
       vertex 0.057734026 3.1643055e-05 -0.0026784163
    endloop
  endfacet
  facet normal -0.1589032 0.27143835 -0.94924759
    outer loop
       vertex 0.059420197 -0.00040879078 -0.0032289516
       vertex 0.05977264 -0.0021412343 -0.0037833443
       vertex 0.057709409 -0.0018108615 -0.0033434908
    endloop
  endfacet
  facet normal -0.24219074 -0.27293751 -0.93104713
    outer loop
       vertex 0.05977264 -0.0021412343 -0.0037833443
       vertex 0.058377356 -0.0033666694 -0.0030611552
       vertex 0.057709409 -0.0018108615 -0.0033434908
    endloop
  endfacet
  facet normal -0.1149965 -0.66431287 -0.7385555
    outer loop
       vertex 0.060302213 -0.00400838 -0.0027836612
       vertex 0.058386064 -0.0042858671 -0.0022357149
       vertex 0.058377356 -0.0033666694 -0.0030611552
    endloop
  endfacet
  facet normal 0.027575431 -0.92734531 -0.37318932
    outer loop
       vertex 0.060302213 -0.00400838 -0.0027836612
       vertex 0.060550538 -0.0045239548 -0.0014841505
       vertex 0.058386064 -0.0042858671 -0.0022357149
    endloop
  endfacet
  facet normal -0.00025711386 -0.95352144 -0.30132505
    outer loop
       vertex 0.060550538 -0.0045239548 -0.0014841505
       vertex 0.058939516 -0.0047616391 -0.00073064085
       vertex 0.058386064 -0.0042858671 -0.0022357149
    endloop
  endfacet
  facet normal -0.21420903 0.32937494 -0.9195796
    outer loop
       vertex 0.059084024 0.0013399156 -0.0025242912
       vertex 0.059420197 -0.00040879078 -0.0032289516
       vertex 0.057734026 3.1643055e-05 -0.0026784163
    endloop
  endfacet
  facet normal -0.024597442 0.3695723 -0.92887635
    outer loop
       vertex 0.059084024 0.0013399156 -0.0025242912
       vertex 0.061106161 0.00067613417 -0.002841938
       vertex 0.059420197 -0.00040879078 -0.0032289516
    endloop
  endfacet
  facet normal 0.041770001 0.27747739 -0.95982372
    outer loop
       vertex 0.061106161 0.00067613417 -0.002841938
       vertex 0.061192818 -0.0010389362 -0.00333398
       vertex 0.059420197 -0.00040879078 -0.0032289516
    endloop
  endfacet
  facet normal -0.033258208 -0.47906487 -0.87714921
    outer loop
       vertex 0.05977264 -0.0021412343 -0.0037833443
       vertex 0.060302213 -0.00400838 -0.0027836612
       vertex 0.058377356 -0.0033666694 -0.0030611552
    endloop
  endfacet
  facet normal 0.27318153 -0.39269149 -0.87816015
    outer loop
       vertex 0.05977264 -0.0021412343 -0.0037833443
       vertex 0.061800812 -0.0024344907 -0.0030212755
       vertex 0.060302213 -0.00400838 -0.0027836612
    endloop
  endfacet
  facet normal 0.42779634 -0.51904931 -0.7399852
    outer loop
       vertex 0.061800812 -0.0024344907 -0.0030212755
       vertex 0.061951003 -0.0037461814 -0.0020143857
       vertex 0.060302213 -0.00400838 -0.0027836612
    endloop
  endfacet
  facet normal 0.062432416 -0.98233958 -0.17638352
    outer loop
       vertex 0.058939516 -0.0047616391 -0.00073064085
       vertex 0.060550538 -0.0045239548 -0.0014841505
       vertex 0.060874057 -0.0047138426 -0.00031208868
    endloop
  endfacet
  facet normal 0.030272267 -0.90130602 -0.43212389
    outer loop
       vertex 0.060874057 -0.0047138426 -0.00031208868
       vertex 0.060552241 -0.0049437901 0.0001449816
       vertex 0.059641292 -0.004882668 -4.6320462e-05
    endloop
  endfacet
  facet normal 0.078087407 -0.96490199 -0.25073193
    outer loop
       vertex 0.060874057 -0.0047138426 -0.00031208868
       vertex 0.059641292 -0.004882668 -4.6320462e-05
       vertex 0.058939516 -0.0047616391 -0.00073064085
    endloop
  endfacet
  facet normal 0.39757338 -0.89055192 -0.22102645
    outer loop
       vertex 0.060550538 -0.0045239548 -0.0014841505
       vertex 0.06238892 -0.003830221 -0.0009725111
       vertex 0.061799757 -0.0042810018 -0.00021600435
    endloop
  endfacet
  facet normal 0.4310429 -0.86435717 -0.25901485
    outer loop
       vertex 0.061799757 -0.0042810018 -0.00021600435
       vertex 0.060874057 -0.0047138426 -0.00031208868
       vertex 0.060550538 -0.0045239548 -0.0014841505
    endloop
  endfacet
  facet normal 0.61000878 -0.79238931 0.0029094155
    outer loop
       vertex 0.06238892 -0.003830221 -0.0009725111
       vertex 0.06247678 -0.003760101 -0.00029625642
       vertex 0.061799757 -0.0042810018 -0.00021600435
    endloop
  endfacet
  facet normal 0.44503652 0.56680106 -0.69331021
    outer loop
       vertex 0.062340436 0.0013734396 -0.0014795884
       vertex 0.062619052 0.00081579116 -0.0017566385
       vertex 0.061106161 0.00067613417 -0.002841938
    endloop
  endfacet
  facet normal 0.10397184 0.59795278 -0.79475929
    outer loop
       vertex 0.061106161 0.00067613417 -0.002841938
       vertex 0.060955316 0.0018102766 -0.0020083774
       vertex 0.061882855 0.0021497126 -0.0016316538
    endloop
  endfacet
  facet normal 0.65301956 0.24451649 -0.71678249
    outer loop
       vertex 0.061106161 0.00067613417 -0.002841938
       vertex 0.061882855 0.0021497126 -0.0016316538
       vertex 0.062340436 0.0013734396 -0.0014795884
    endloop
  endfacet
  facet normal 0.48705781 0.46566281 -0.73887269
    outer loop
       vertex 0.062619052 0.00081579116 -0.0017566385
       vertex 0.062588954 -0.00068334474 -0.0027212854
       vertex 0.061106161 0.00067613417 -0.002841938
    endloop
  endfacet
  facet normal 0.32648207 0.27586229 -0.90405169
    outer loop
       vertex 0.062588954 -0.00068334474 -0.0027212854
       vertex 0.061192818 -0.0010389362 -0.00333398
       vertex 0.061106161 0.00067613417 -0.002841938
    endloop
  endfacet
  facet normal 0.40747141 -0.027015938 -0.91281827
    outer loop
       vertex 0.062588954 -0.00068334474 -0.0027212854
       vertex 0.061800812 -0.0024344907 -0.0030212755
       vertex 0.061192818 -0.0010389362 -0.00333398
    endloop
  endfacet
  facet normal 0.60109466 -0.13561372 -0.78758754
    outer loop
       vertex 0.062588954 -0.00068334474 -0.0027212854
       vertex 0.063034193 -0.0023163857 -0.002100283
       vertex 0.061800812 -0.0024344907 -0.0030212755
    endloop
  endfacet
  facet normal 0.55807883 -0.46411536 -0.68785533
    outer loop
       vertex 0.063034193 -0.0023163857 -0.002100283
       vertex 0.061951003 -0.0037461814 -0.0020143857
       vertex 0.061800812 -0.0024344907 -0.0030212755
    endloop
  endfacet
  facet normal 0.73464987 -0.57790994 -0.35540072
    outer loop
       vertex 0.063034193 -0.0023163857 -0.002100283
       vertex 0.06238892 -0.003830221 -0.0009725111
       vertex 0.061951003 -0.0037461814 -0.0020143857
    endloop
  endfacet
  facet normal 0.84322177 -0.49219415 -0.21615263
    outer loop
       vertex 0.063034193 -0.0023163857 -0.002100283
       vertex 0.063451839 -0.0020622256 -0.0010497662
       vertex 0.062991542 -0.0030869418 -0.00051205785
    endloop
  endfacet
  facet normal 0.8208457 -0.52221145 -0.23131696
    outer loop
       vertex 0.062991542 -0.0030869418 -0.00051205785
       vertex 0.06238892 -0.003830221 -0.0009725111
       vertex 0.063034193 -0.0023163857 -0.002100283
    endloop
  endfacet
  facet normal 0.95328899 0.12080535 0.27685045
    outer loop
       vertex 0.069370923 0.0042086877 0.0066671181
       vertex 0.067727292 0.0062494053 0.011436213
       vertex 0.06874542 0.0013924772 0.010049805
    endloop
  endfacet
  facet normal 0.6042104 0.58310991 0.54305859
    outer loop
       vertex 0.063719369 0.0070858189 0.014997352
       vertex 0.067727292 0.0062494053 0.011436213
       vertex 0.063646637 0.0098162592 0.012146461
    endloop
  endfacet
  facet normal 0.97592871 -0.21808697 -0.0011034092
    outer loop
       vertex 0.069370923 0.0042086877 0.0066671181
       vertex 0.06874542 0.0013924772 0.010049805
       vertex 0.068477843 0.00022515147 0.0041068676
    endloop
  endfacet
  facet normal 0.91821717 0.046912516 -0.39328925
    outer loop
       vertex 0.069370923 0.0042086877 0.0066671181
       vertex 0.068477843 0.00022515147 0.0041068676
       vertex 0.067300064 0.0043452148 0.0018485446
    endloop
  endfacet
  facet normal 0.77562694 0.54529826 -0.31788781
    outer loop
       vertex 0.069370923 0.0042086877 0.0066671181
       vertex 0.067300064 0.0043452148 0.0018485446
       vertex 0.066929734 0.0080609633 0.0073188791
    endloop
  endfacet
  facet normal 0.18225998 0.7124208 0.67767094
    outer loop
       vertex 0.063719369 0.0070858189 0.014997352
       vertex 0.063646637 0.0098162592 0.012146461
       vertex 0.05871326 0.008847177 0.014492071
    endloop
  endfacet
  facet normal 0.51245713 -0.40659994 0.75634924
    outer loop
       vertex 0.065665157 -0.0019261794 0.013053335
       vertex 0.065621808 0.0021968915 0.015299196
       vertex 0.060450359 -0.0022594487 0.016407412
    endloop
  endfacet
  facet normal 0.53796123 -0.83596706 -0.10842878
    outer loop
       vertex 0.065266406 -0.0038987689 0.0028859003
       vertex 0.066476776 -0.0037866489 0.0080266354
       vertex 0.061595411 -0.0066347767 0.0057666769
    endloop
  endfacet
  facet normal 0.57366911 0.078319242 -0.81533419
    outer loop
       vertex 0.061882855 0.0021497126 -0.0016316538
       vertex 0.063222556 0.0038217965 -0.00052842341
       vertex 0.065089151 -0.00060505687 0.00035967845
    endloop
  endfacet
  facet normal 0.75336958 0.0027354927 -0.65759166
    outer loop
       vertex 0.065089151 -0.00060505687 0.00035967845
       vertex 0.063944758 -0.0010949221 -0.00095343194
       vertex 0.06362743 -0.00064178454 -0.0013150943
    endloop
  endfacet
  facet normal 0.73506492 0.20562051 -0.64606483
    outer loop
       vertex 0.065089151 -0.00060505687 0.00035967845
       vertex 0.06362743 -0.00064178454 -0.0013150943
       vertex 0.06341696 -0.00012798989 -0.001391034
    endloop
  endfacet
  facet normal 0.65517778 0.24629465 -0.71419956
    outer loop
       vertex 0.062340436 0.0013734396 -0.0014795884
       vertex 0.061882855 0.0021497126 -0.0016316538
       vertex 0.065089151 -0.00060505687 0.00035967845
    endloop
  endfacet
  facet normal 0.48120157 0.85368417 0.19916926
    outer loop
       vertex 0.062613016 0.0012109082 -0.0014415062
       vertex 0.062340436 0.0013734396 -0.0014795884
       vertex 0.065089151 -0.00060505687 0.00035967845
    endloop
  endfacet
  facet normal 0.71788779 0.38302752 -0.58131493
    outer loop
       vertex 0.065089151 -0.00060505687 0.00035967845
       vertex 0.06341696 -0.00012798989 -0.001391034
       vertex 0.062849237 0.00088971116 -0.0014215752
    endloop
  endfacet
  facet normal 0.71846008 0.4982691 -0.48532774
    outer loop
       vertex 0.065089151 -0.00060505687 0.00035967845
       vertex 0.062849237 0.00088971116 -0.0014215752
       vertex 0.062613016 0.0012109082 -0.0014415062
    endloop
  endfacet
  facet normal 0.089122714 0.86467843 -0.49435651
    outer loop
       vertex 0.062252827 0.010596311 0.007213714
       vertex 0.063255321 0.0078655186 0.0026180175
       vertex 0.057851325 0.0095066361 0.0045142607
    endloop
  endfacet
  facet normal 0.075116966 0.46634619 0.88140721
    outer loop
       vertex 0.063719369 0.0070858189 0.014997352
       vertex 0.05871326 0.008847177 0.014492071
       vertex 0.059162535 0.0035396436 0.017261959
    endloop
  endfacet
  facet normal 0.42416999 -0.68585847 0.59133575
    outer loop
       vertex 0.065665157 -0.0019261794 0.013053335
       vertex 0.060450359 -0.0022594487 0.016407412
       vertex 0.061760702 -0.0054923041 0.011717878
    endloop
  endfacet
  facet normal 0.33152262 -0.85797346 -0.39239558
    outer loop
       vertex 0.065266406 -0.0038987689 0.0028859003
       vertex 0.061595411 -0.0066347767 0.0057666769
       vertex 0.060805037 -0.0049549565 0.0014259864
    endloop
  endfacet
  facet normal -0.024049233 0.56391626 -0.82548173
    outer loop
       vertex 0.058673118 0.0053308567 0.0006350113
       vertex 0.063222556 0.0038217965 -0.00052842341
       vertex 0.061882855 0.0021497126 -0.0016316538
    endloop
  endfacet
  facet normal 0.10726694 0.59276635 -0.79819913
    outer loop
       vertex 0.061882855 0.0021497126 -0.0016316538
       vertex 0.060955316 0.0018102766 -0.0020083774
       vertex 0.059945684 0.0020033832 -0.0020006513
    endloop
  endfacet
  facet normal 0.23346278 0.76797383 -0.59641539
    outer loop
       vertex 0.059945684 0.0020033832 -0.0020006513
       vertex 0.059162063 0.0020880931 -0.0021983179
       vertex 0.058469732 0.0026803132 -0.0017067546
    endloop
  endfacet
  facet normal 0.11789343 0.65239323 -0.74865493
    outer loop
       vertex 0.058469732 0.0026803132 -0.0017067546
       vertex 0.058673118 0.0053308567 0.0006350113
       vertex 0.061882855 0.0021497126 -0.0016316538
    endloop
  endfacet
  facet normal 0.10873657 0.58577887 -0.80314349
    outer loop
       vertex 0.061882855 0.0021497126 -0.0016316538
       vertex 0.059945684 0.0020033832 -0.0020006513
       vertex 0.058469732 0.0026803132 -0.0017067546
    endloop
  endfacet
  facet normal -0.1206544 0.97313444 -0.19609151
    outer loop
       vertex 0.062252827 0.010596311 0.007213714
       vertex 0.057851325 0.0095066361 0.0045142607
       vertex 0.058082849 0.010720852 0.01039754
    endloop
  endfacet
  facet normal -0.6288709 -0.02051404 0.77723906
    outer loop
       vertex 0.055310034 -0.00040249392 0.016769676
       vertex 0.053598756 0.0044441078 0.015512985
       vertex 0.051286011 -0.00087185547 0.013501416
    endloop
  endfacet
  facet normal -0.46315648 -0.84686955 0.26133894
    outer loop
       vertex 0.057492313 -0.0075264387 0.0094323296
       vertex 0.055543712 -0.0050288558 0.014072356
       vertex 0.052767972 -0.0050229126 0.009172325
    endloop
  endfacet
  facet normal -0.55064579 -0.62783366 -0.55010373
    outer loop
       vertex 0.055843049 -0.0034579493 0.0010013795
       vertex 0.056141467 -0.0066829557 0.0043833691
       vertex 0.051956606 -0.0025508304 0.0038563572
    endloop
  endfacet
  facet normal -0.78227809 0.21938356 -0.58301959
    outer loop
       vertex 0.055351452 0.0064076606 0.002868564
       vertex 0.055131065 0.0014905663 0.0013140277
       vertex 0.052322832 0.0031422546 0.0057035402
    endloop
  endfacet
  facet normal -0.8052792 0.57254456 0.15400692
    outer loop
       vertex 0.055619755 0.0084661074 0.012912261
       vertex 0.054591683 0.008400469 0.0077806465
       vertex 0.052415505 0.0043091624 0.011611803
    endloop
  endfacet
  facet normal -0.88898061 0.45171628 -0.075272069
    outer loop
       vertex 0.052415505 0.0043091624 0.011611803
       vertex 0.052322832 0.0031422546 0.0057035402
       vertex 0.050263651 -0.00044310179 0.0085068182
    endloop
  endfacet
  facet normal -0.905927 0.41788519 -0.068324473
    outer loop
       vertex 0.052415505 0.0043091624 0.011611803
       vertex 0.054591683 0.008400469 0.0077806465
       vertex 0.052322832 0.0031422546 0.0057035402
    endloop
  endfacet
  facet normal -0.81696896 0.47922785 -0.32078402
    outer loop
       vertex 0.054591683 0.008400469 0.0077806465
       vertex 0.055351452 0.0064076606 0.002868564
       vertex 0.052322832 0.0031422546 0.0057035402
    endloop
  endfacet
  facet normal -0.89148598 0.19068912 -0.41096278
    outer loop
       vertex 0.052322832 0.0031422546 0.0057035402
       vertex 0.051956606 -0.0025508304 0.0038563572
       vertex 0.050263651 -0.00044310179 0.0085068182
    endloop
  endfacet
  facet normal -0.77430659 0.23981683 -0.58560839
    outer loop
       vertex 0.052322832 0.0031422546 0.0057035402
       vertex 0.055131065 0.0014905663 0.0013140277
       vertex 0.051956606 -0.0025508304 0.0038563572
    endloop
  endfacet
  facet normal -0.59699058 -0.035256821 -0.80147314
    outer loop
       vertex 0.055131065 0.0014905663 0.0013140277
       vertex 0.055843049 -0.0034579493 0.0010013795
       vertex 0.051956606 -0.0025508304 0.0038563572
    endloop
  endfacet
  facet normal -0.86760805 -0.48816874 -0.094591485
    outer loop
       vertex 0.051956606 -0.0025508304 0.0038563572
       vertex 0.052767972 -0.0050229126 0.009172325
       vertex 0.050263651 -0.00044310179 0.0085068182
    endloop
  endfacet
  facet normal -0.66972572 -0.70717873 -0.22664003
    outer loop
       vertex 0.051956606 -0.0025508304 0.0038563572
       vertex 0.056141467 -0.0066829557 0.0043833691
       vertex 0.052767972 -0.0050229126 0.009172325
    endloop
  endfacet
  facet normal -0.46714367 -0.88389051 -0.02267936
    outer loop
       vertex 0.056141467 -0.0066829557 0.0043833691
       vertex 0.057492313 -0.0075264387 0.0094323296
       vertex 0.052767972 -0.0050229126 0.009172325
    endloop
  endfacet
  facet normal -0.87716591 -0.45928804 0.14012302
    outer loop
       vertex 0.052767972 -0.0050229126 0.009172325
       vertex 0.051286011 -0.00087185547 0.013501416
       vertex 0.050263651 -0.00044310179 0.0085068182
    endloop
  endfacet
  facet normal -0.67182105 -0.63593245 0.37979783
    outer loop
       vertex 0.052767972 -0.0050229126 0.009172325
       vertex 0.055543712 -0.0050288558 0.014072356
       vertex 0.051286011 -0.00087185547 0.013501416
    endloop
  endfacet
  facet normal -0.53222843 -0.44631604 0.71939898
    outer loop
       vertex 0.055543712 -0.0050288558 0.014072356
       vertex 0.055310034 -0.00040249392 0.016769676
       vertex 0.051286011 -0.00087185547 0.013501416
    endloop
  endfacet
  facet normal -0.93475653 0.28240915 0.2155813
    outer loop
       vertex 0.051286011 -0.00087185547 0.013501416
       vertex 0.052415505 0.0043091624 0.011611803
       vertex 0.050263651 -0.00044310179 0.0085068182
    endloop
  endfacet
  facet normal -0.91645499 0.29741999 0.26767816
    outer loop
       vertex 0.051286011 -0.00087185547 0.013501416
       vertex 0.053598756 0.0044441078 0.015512985
       vertex 0.052415505 0.0043091624 0.011611803
    endloop
  endfacet
  facet normal -0.80447885 0.549722 0.22498778
    outer loop
       vertex 0.053598756 0.0044441078 0.015512985
       vertex 0.055619755 0.0084661074 0.012912261
       vertex 0.052415505 0.0043091624 0.011611803
    endloop
  endfacet
  facet normal -0.60669063 0.78708277 0.11147735
    outer loop
       vertex 0.058082849 0.010720852 0.01039754
       vertex 0.054591683 0.008400469 0.0077806465
       vertex 0.055619755 0.0084661074 0.012912261
    endloop
  endfacet
  facet normal -0.45898056 0.87351162 -0.16221682
    outer loop
       vertex 0.058082849 0.010720852 0.01039754
       vertex 0.057851325 0.0095066361 0.0045142607
       vertex 0.054591683 0.008400469 0.0077806465
    endloop
  endfacet
  facet normal -0.61304979 0.69451695 -0.37658485
    outer loop
       vertex 0.057851325 0.0095066361 0.0045142607
       vertex 0.055351452 0.0064076606 0.002868564
       vertex 0.054591683 0.008400469 0.0077806465
    endloop
  endfacet
  facet normal -0.46943206 0.28522475 -0.83563173
    outer loop
       vertex 0.058673118 0.0053308567 0.0006350113
       vertex 0.055131065 0.0014905663 0.0013140277
       vertex 0.055351452 0.0064076606 0.002868564
    endloop
  endfacet
  facet normal -0.66718759 0.52129404 -0.53208387
    outer loop
       vertex 0.055131065 0.0014905663 0.0013140277
       vertex 0.058673118 0.0053308567 0.0006350113
       vertex 0.058469732 0.0026803132 -0.0017067546
    endloop
  endfacet
  facet normal -0.49904885 0.5288392 -0.68649788
    outer loop
       vertex 0.058469732 0.0026803132 -0.0017067546
       vertex 0.057845986 0.0016478257 -0.002048693
       vertex 0.057171904 0.0010718361 -0.00200238
    endloop
  endfacet
  facet normal -0.66796664 0.6733402 -0.31691251
    outer loop
       vertex 0.057171904 0.0010718361 -0.00200238
       vertex 0.05671507 0.00067949768 -0.0018730923
       vertex 0.05632408 0.00063833389 -0.0011364517
    endloop
  endfacet
  facet normal -0.65956569 0.54995196 -0.51237286
    outer loop
       vertex 0.05632408 0.00063833389 -0.0011364517
       vertex 0.055131065 0.0014905663 0.0013140277
       vertex 0.058469732 0.0026803132 -0.0017067546
    endloop
  endfacet
  facet normal -0.69104886 0.62448016 -0.36397252
    outer loop
       vertex 0.058469732 0.0026803132 -0.0017067546
       vertex 0.057171904 0.0010718361 -0.00200238
       vertex 0.05632408 0.00063833389 -0.0011364517
    endloop
  endfacet
  facet normal -0.15998329 -0.72139402 -0.67379227
    outer loop
       vertex 0.060805037 -0.0049549565 0.0014259864
       vertex 0.056141467 -0.0066829557 0.0043833691
       vertex 0.055843049 -0.0034579493 0.0010013795
    endloop
  endfacet
  facet normal 0.10332251 -0.9211324 -0.37528596
    outer loop
       vertex 0.060805037 -0.0049549565 0.0014259864
       vertex 0.061595411 -0.0066347767 0.0057666769
       vertex 0.056141467 -0.0066829557 0.0043833691
    endloop
  endfacet
  facet normal 0.05396964 -0.98244635 -0.17856775
    outer loop
       vertex 0.061595411 -0.0066347767 0.0057666769
       vertex 0.057492313 -0.0075264387 0.0094323296
       vertex 0.056141467 -0.0066829557 0.0043833691
    endloop
  endfacet
  facet normal 0.13055633 -0.8490872 0.51186519
    outer loop
       vertex 0.061760702 -0.0054923041 0.011717878
       vertex 0.055543712 -0.0050288558 0.014072356
       vertex 0.057492313 -0.0075264387 0.0094323296
    endloop
  endfacet
  facet normal 0.16478935 -0.7899473 0.59061641
    outer loop
       vertex 0.061760702 -0.0054923041 0.011717878
       vertex 0.060450359 -0.0022594487 0.016407412
       vertex 0.055543712 -0.0050288558 0.014072356
    endloop
  endfacet
  facet normal -0.12201609 -0.50450618 0.85474299
    outer loop
       vertex 0.060450359 -0.0022594487 0.016407412
       vertex 0.055310034 -0.00040249392 0.016769676
       vertex 0.055543712 -0.0050288558 0.014072356
    endloop
  endfacet
  facet normal -0.27432162 0.14945665 0.94995282
    outer loop
       vertex 0.059162535 0.0035396436 0.017261959
       vertex 0.053598756 0.0044441078 0.015512985
       vertex 0.055310034 -0.00040249392 0.016769676
    endloop
  endfacet
  facet normal -0.20360798 0.43937063 0.87492699
    outer loop
       vertex 0.059162535 0.0035396436 0.017261959
       vertex 0.05871326 0.008847177 0.014492071
       vertex 0.053598756 0.0044441078 0.015512985
    endloop
  endfacet
  facet normal -0.41287812 0.63171578 0.65609972
    outer loop
       vertex 0.05871326 0.008847177 0.014492071
       vertex 0.055619755 0.0084661074 0.012912261
       vertex 0.053598756 0.0044441078 0.015512985
    endloop
  endfacet
  facet normal -0.28911863 0.62038911 -0.72905951
    outer loop
       vertex 0.057851325 0.0095066361 0.0045142607
       vertex 0.058673118 0.0053308567 0.0006350113
       vertex 0.055351452 0.0064076606 0.002868564
    endloop
  endfacet
  facet normal -0.053898307 0.67391157 -0.73684338
    outer loop
       vertex 0.057851325 0.0095066361 0.0045142607
       vertex 0.063255321 0.0078655186 0.0026180175
       vertex 0.058673118 0.0053308567 0.0006350113
    endloop
  endfacet
  facet normal 0.0018638455 0.6140911 -0.78923295
    outer loop
       vertex 0.063255321 0.0078655186 0.0026180175
       vertex 0.063222556 0.0038217965 -0.00052842341
       vertex 0.058673118 0.0053308567 0.0006350113
    endloop
  endfacet
  facet normal 0.37448088 -0.55153272 -0.74536953
    outer loop
       vertex 0.065089151 -0.00060505687 0.00035967845
       vertex 0.065266406 -0.0038987689 0.0028859003
       vertex 0.060805037 -0.0049549565 0.0014259864
    endloop
  endfacet
  facet normal 0.34973649 -0.92179867 0.16724716
    outer loop
       vertex 0.061595411 -0.0066347767 0.0057666769
       vertex 0.061760702 -0.0054923041 0.011717878
       vertex 0.057492313 -0.0075264387 0.0094323296
    endloop
  endfacet
  facet normal 0.44238176 -0.88293947 0.15721405
    outer loop
       vertex 0.061595411 -0.0066347767 0.0057666769
       vertex 0.066476776 -0.0037866489 0.0080266354
       vertex 0.061760702 -0.0054923041 0.011717878
    endloop
  endfacet
  facet normal 0.55626655 -0.74608602 0.36595515
    outer loop
       vertex 0.066476776 -0.0037866489 0.0080266354
       vertex 0.065665157 -0.0019261794 0.013053335
       vertex 0.061760702 -0.0054923041 0.011717878
    endloop
  endfacet
  facet normal 0.018552592 -0.14172569 0.9897321
    outer loop
       vertex 0.060450359 -0.0022594487 0.016407412
       vertex 0.059162535 0.0035396436 0.017261959
       vertex 0.055310034 -0.00040249392 0.016769676
    endloop
  endfacet
  facet normal 0.2744947 -0.080246318 0.95823441
    outer loop
       vertex 0.060450359 -0.0022594487 0.016407412
       vertex 0.065621808 0.0021968915 0.015299196
       vertex 0.059162535 0.0035396436 0.017261959
    endloop
  endfacet
  facet normal 0.32033393 0.18204894 0.92964744
    outer loop
       vertex 0.065621808 0.0021968915 0.015299196
       vertex 0.063719369 0.0070858189 0.014997352
       vertex 0.059162535 0.0035396436 0.017261959
    endloop
  endfacet
  facet normal -0.32532014 0.83990277 0.43443082
    outer loop
       vertex 0.05871326 0.008847177 0.014492071
       vertex 0.058082849 0.010720852 0.01039754
       vertex 0.055619755 0.0084661074 0.012912261
    endloop
  endfacet
  facet normal 0.017927219 0.91021109 0.41375644
    outer loop
       vertex 0.05871326 0.008847177 0.014492071
       vertex 0.063646637 0.0098162592 0.012146461
       vertex 0.058082849 0.010720852 0.01039754
    endloop
  endfacet
  facet normal 0.1220325 0.98508632 0.12129721
    outer loop
       vertex 0.063646637 0.0098162592 0.012146461
       vertex 0.062252827 0.010596311 0.007213714
       vertex 0.058082849 0.010720852 0.01039754
    endloop
  endfacet
  facet normal 0.44689208 0.80848952 -0.38292579
    outer loop
       vertex 0.066929734 0.0080609633 0.0073188791
       vertex 0.063255321 0.0078655186 0.0026180175
       vertex 0.062252827 0.010596311 0.007213714
    endloop
  endfacet
  facet normal 0.53646835 0.71454022 -0.44903672
    outer loop
       vertex 0.066929734 0.0080609633 0.0073188791
       vertex 0.067300064 0.0043452148 0.0018485446
       vertex 0.063255321 0.0078655186 0.0026180175
    endloop
  endfacet
  facet normal 0.35714999 0.57179555 -0.73857547
    outer loop
       vertex 0.067300064 0.0043452148 0.0018485446
       vertex 0.063222556 0.0038217965 -0.00052842341
       vertex 0.063255321 0.0078655186 0.0026180175
    endloop
  endfacet
  facet normal 0.49971666 0.037094088 -0.8653943
    outer loop
       vertex 0.067300064 0.0043452148 0.0018485446
       vertex 0.065089151 -0.00060505687 0.00035967845
       vertex 0.063222556 0.0038217965 -0.00052842341
    endloop
  endfacet
  facet normal 0.74962396 -0.14025638 -0.64683234
    outer loop
       vertex 0.067300064 0.0043452148 0.0018485446
       vertex 0.068477843 0.00022515147 0.0041068676
       vertex 0.065089151 -0.00060505687 0.00035967845
    endloop
  endfacet
  facet normal 0.72311823 -0.39544545 -0.56632404
    outer loop
       vertex 0.068477843 0.00022515147 0.0041068676
       vertex 0.065266406 -0.0038987689 0.0028859003
       vertex 0.065089151 -0.00060505687 0.00035967845
    endloop
  endfacet
  facet normal 0.80125194 -0.57180022 -0.17618127
    outer loop
       vertex 0.068477843 0.00022515147 0.0041068676
       vertex 0.066476776 -0.0037866489 0.0080266354
       vertex 0.065266406 -0.0038987689 0.0028859003
    endloop
  endfacet
  facet normal 0.90933386 -0.41410149 0.04039661
    outer loop
       vertex 0.068477843 0.00022515147 0.0041068676
       vertex 0.06874542 0.0013924772 0.010049805
       vertex 0.066476776 -0.0037866489 0.0080266354
    endloop
  endfacet
  facet normal 0.82026087 -0.4805142 0.31028732
    outer loop
       vertex 0.06874542 0.0013924772 0.010049805
       vertex 0.065665157 -0.0019261794 0.013053335
       vertex 0.066476776 -0.0037866489 0.0080266354
    endloop
  endfacet
  facet normal 0.47649632 0.87916551 0.0043889155
    outer loop
       vertex 0.063646637 0.0098162592 0.012146461
       vertex 0.066929734 0.0080609633 0.0073188791
       vertex 0.062252827 0.010596311 0.007213714
    endloop
  endfacet
  facet normal 0.66468986 0.7227544 0.18924448
    outer loop
       vertex 0.063646637 0.0098162592 0.012146461
       vertex 0.067727292 0.0062494053 0.011436213
       vertex 0.066929734 0.0080609633 0.0073188791
    endloop
  endfacet
  facet normal 0.84787023 0.52593272 0.067162839
    outer loop
       vertex 0.067727292 0.0062494053 0.011436213
       vertex 0.069370923 0.0042086877 0.0066671181
       vertex 0.066929734 0.0080609633 0.0073188791
    endloop
  endfacet
  facet normal 0.80679092 -0.27606005 0.52237846
    outer loop
       vertex 0.06874542 0.0013924772 0.010049805
       vertex 0.065621808 0.0021968915 0.015299196
       vertex 0.065665157 -0.0019261794 0.013053335
    endloop
  endfacet
  facet normal 0.86121759 0.03581666 0.50697281
    outer loop
       vertex 0.06874542 0.0013924772 0.010049805
       vertex 0.067727292 0.0062494053 0.011436213
       vertex 0.065621808 0.0021968915 0.015299196
    endloop
  endfacet
  facet normal 0.6676615 0.30182501 0.68053639
    outer loop
       vertex 0.067727292 0.0062494053 0.011436213
       vertex 0.063719369 0.0070858189 0.014997352
       vertex 0.065621808 0.0021968915 0.015299196
    endloop
  endfacet
  facet normal -0.95121928 -0.15197686 -0.26848635
    outer loop
       vertex 0.056104452 -0.0023224062 -0.00079476004
       vertex 0.056060149 -0.0017852257 -0.00094187344
       vertex 0.056245242 -0.0023492447 -0.0012783749
    endloop
  endfacet
  facet normal 0.47835578 -0.87222196 -0.10200294
    outer loop
       vertex 0.060805037 -0.0049549565 0.0014259864
       vertex 0.060552241 -0.0049437901 0.0001449816
       vertex 0.060874057 -0.0047138426 -0.00031208868
    endloop
  endfacet
  facet normal 0.4302369 -0.89632146 -0.10725696
    outer loop
       vertex 0.060805037 -0.0049549565 0.0014259864
       vertex 0.060874057 -0.0047138426 -0.00031208868
       vertex 0.061799757 -0.0042810018 -0.00021600435
    endloop
  endfacet
  facet normal 0.64294045 -0.70600912 -0.29694899
    outer loop
       vertex 0.063944758 -0.0010949221 -0.00095343194
       vertex 0.065089151 -0.00060505687 0.00035967845
       vertex 0.060805037 -0.0049549565 0.0014259864
    endloop
  endfacet
  facet normal 0.89111717 -0.44551245 -0.086190742
    outer loop
       vertex 0.062991542 -0.0030869418 -0.00051205785
       vertex 0.063451839 -0.0020622256 -0.0010497662
       vertex 0.063944758 -0.0010949221 -0.00095343194
    endloop
  endfacet
  facet normal 0.61262832 -0.78895424 0.047304787
    outer loop
       vertex 0.060805037 -0.0049549565 0.0014259864
       vertex 0.061799757 -0.0042810018 -0.00021600435
       vertex 0.06247678 -0.003760101 -0.00029625642
    endloop
  endfacet
  facet normal 0.32649659 0.052866548 0.94371876
    outer loop
       vertex 0.06247678 -0.003760101 -0.00029625642
       vertex 0.062991542 -0.0030869418 -0.00051205785
       vertex 0.063944758 -0.0010949221 -0.00095343194
    endloop
  endfacet
  facet normal 0.779615 -0.2929226 0.55353121
    outer loop
       vertex 0.06247678 -0.003760101 -0.00029625642
       vertex 0.063944758 -0.0010949221 -0.00095343194
       vertex 0.060805037 -0.0049549565 0.0014259864
    endloop
  endfacet
  facet normal 0.70737434 0.40932087 -0.57626207
    outer loop
       vertex 0.063382055 -0.00052370924 -0.001771487
       vertex 0.062619052 0.00081579116 -0.0017566385
       vertex 0.062849237 0.00088971116 -0.0014215752
    endloop
  endfacet
  facet normal 0.76373842 0.41111504 -0.49768268
    outer loop
       vertex 0.062849237 0.00088971116 -0.0014215752
       vertex 0.06341696 -0.00012798989 -0.001391034
       vertex 0.063382055 -0.00052370924 -0.001771487
    endloop
  endfacet
  facet normal -0.85345121 0.19499681 -0.48331903
    outer loop
       vertex 0.055131065 0.0014905663 0.0013140277
       vertex 0.05632408 0.00063833389 -0.0011364517
       vertex 0.056221729 -0.00060459301 -0.001457181
    endloop
  endfacet
  facet normal -0.73498325 0.12205358 0.66701016
    outer loop
       vertex 0.056060149 -0.0017852257 -0.00094187344
       vertex 0.056104452 -0.0023224062 -0.00079476004
       vertex 0.056295629 -0.0030727281 -0.00044680204
    endloop
  endfacet
  facet normal -0.93644021 -0.024588594 -0.34996449
    outer loop
       vertex 0.055131065 0.0014905663 0.0013140277
       vertex 0.056221729 -0.00060459301 -0.001457181
       vertex 0.056060149 -0.0017852257 -0.00094187344
    endloop
  endfacet
  facet normal -0.93909253 -0.11464616 -0.32397758
    outer loop
       vertex 0.056295629 -0.0030727281 -0.00044680204
       vertex 0.055843049 -0.0034579493 0.0010013795
       vertex 0.055131065 0.0014905663 0.0013140277
    endloop
  endfacet
  facet normal -0.97277183 -0.21302356 -0.091301287
    outer loop
       vertex 0.056060149 -0.0017852257 -0.00094187344
       vertex 0.056295629 -0.0030727281 -0.00044680204
       vertex 0.055131065 0.0014905663 0.0013140277
    endloop
  endfacet
  facet normal 0.78775968 -0.61477204 -0.038600934
    outer loop
       vertex 0.062991542 -0.0030869418 -0.00051205785
       vertex 0.06247678 -0.003760101 -0.00029625642
       vertex 0.06238892 -0.003830221 -0.0009725111
    endloop
  endfacet
  facet normal -0.6167099 -0.69125627 -0.37660813
    outer loop
       vertex 0.055843049 -0.0034579493 0.0010013795
       vertex 0.056295629 -0.0030727281 -0.00044680204
       vertex 0.05698426 -0.0037095192 -0.00040564405
    endloop
  endfacet
  facet normal -0.51623648 -0.81156649 -0.27360506
    outer loop
       vertex 0.055843049 -0.0034579493 0.0010013795
       vertex 0.05698426 -0.0037095192 -0.00040564405
       vertex 0.057557096 -0.0041324003 -0.00023212045
    endloop
  endfacet
  facet normal -0.29235391 -0.95503503 0.049368905
    outer loop
       vertex 0.060552241 -0.0049437901 0.0001449816
       vertex 0.060805037 -0.0049549565 0.0014259864
       vertex 0.055843049 -0.0034579493 0.0010013795
    endloop
  endfacet
  facet normal -0.18105687 -0.76534308 0.61763126
    outer loop
       vertex 0.058777098 -0.0046996373 -7.2852509e-05
       vertex 0.059641292 -0.004882668 -4.6320462e-05
       vertex 0.060552241 -0.0049437901 0.0001449816
    endloop
  endfacet
  facet normal -0.41216658 -0.9079068 -0.076314792
    outer loop
       vertex 0.055843049 -0.0034579493 0.0010013795
       vertex 0.057557096 -0.0041324003 -0.00023212045
       vertex 0.058777098 -0.0046996373 -7.2852509e-05
    endloop
  endfacet
  facet normal -0.17778579 -0.84963731 0.49649638
    outer loop
       vertex 0.058777098 -0.0046996373 -7.2852509e-05
       vertex 0.060552241 -0.0049437901 0.0001449816
       vertex 0.055843049 -0.0034579493 0.0010013795
    endloop
  endfacet
  facet normal 0.43507164 0.56548083 -0.70067403
    outer loop
       vertex 0.062340436 0.0013734396 -0.0014795884
       vertex 0.062613016 0.0012109082 -0.0014415062
       vertex 0.062619052 0.00081579116 -0.0017566385
    endloop
  endfacet
  facet normal -0.87178249 0.18847296 -0.45218716
    outer loop
       vertex 0.056221729 -0.00060459301 -0.001457181
       vertex 0.05632408 0.00063833389 -0.0011364517
       vertex 0.05671507 0.00067949768 -0.0018730923
    endloop
  endfacet
  facet normal -0.88298927 0.20200447 -0.42370289
    outer loop
       vertex 0.05671507 0.00067949768 -0.0018730923
       vertex 0.056538225 -0.00096293049 -0.0022875953
       vertex 0.056221729 -0.00060459301 -0.001457181
    endloop
  endfacet
  facet normal 0.10830882 0.59804997 -0.79410669
    outer loop
       vertex 0.059945684 0.0020033832 -0.0020006513
       vertex 0.060955316 0.0018102766 -0.0020083774
       vertex 0.061106161 0.00067613417 -0.002841938
    endloop
  endfacet
  facet normal 0.058579647 0.5704852 -0.81921613
    outer loop
       vertex 0.061106161 0.00067613417 -0.002841938
       vertex 0.059084024 0.0013399156 -0.0025242912
       vertex 0.059945684 0.0020033832 -0.0020006513
    endloop
  endfacet
  facet normal 0.67900513 0.46406952 -0.56885105
    outer loop
       vertex 0.062613016 0.0012109082 -0.0014415062
       vertex 0.062849237 0.00088971116 -0.0014215752
       vertex 0.062619052 0.00081579116 -0.0017566385
    endloop
  endfacet
  facet normal -0.20822143 -0.97723457 0.040699139
    outer loop
       vertex 0.059641292 -0.004882668 -4.6320462e-05
       vertex 0.058777098 -0.0046996373 -7.2852509e-05
       vertex 0.058939516 -0.0047616391 -0.00073064085
    endloop
  endfacet
  facet normal 0.26459962 0.36186056 -0.8938926
    outer loop
       vertex 0.059162063 0.0020880931 -0.0021983179
       vertex 0.059945684 0.0020033832 -0.0020006513
       vertex 0.059084024 0.0013399156 -0.0025242912
    endloop
  endfacet
  facet normal -0.47789283 0.28234763 -0.83180422
    outer loop
       vertex 0.05671507 0.00067949768 -0.0018730923
       vertex 0.057171904 0.0010718361 -0.00200238
       vertex 0.057734026 3.1643055e-05 -0.0026784163
    endloop
  endfacet
  facet normal -0.49003075 0.26254186 -0.83122899
    outer loop
       vertex 0.057734026 3.1643055e-05 -0.0026784163
       vertex 0.056538225 -0.00096293049 -0.0022875953
       vertex 0.05671507 0.00067949768 -0.0018730923
    endloop
  endfacet
  facet normal -0.93747932 -0.023267003 -0.34726239
    outer loop
       vertex 0.056060149 -0.0017852257 -0.00094187344
       vertex 0.056221729 -0.00060459301 -0.001457181
       vertex 0.056538225 -0.00096293049 -0.0022875953
    endloop
  endfacet
  facet normal -0.92326026 -0.078632571 -0.37604177
    outer loop
       vertex 0.056538225 -0.00096293049 -0.0022875953
       vertex 0.056245242 -0.0023492447 -0.0012783749
       vertex 0.056060149 -0.0017852257 -0.00094187344
    endloop
  endfacet
  facet normal -0.24392283 0.43449599 -0.86701493
    outer loop
       vertex 0.057845986 0.0016478257 -0.002048693
       vertex 0.058469732 0.0026803132 -0.0017067546
       vertex 0.059162063 0.0020880931 -0.0021983179
    endloop
  endfacet
  facet normal -0.2369312 0.40871745 -0.88137033
    outer loop
       vertex 0.059162063 0.0020880931 -0.0021983179
       vertex 0.059084024 0.0013399156 -0.0025242912
       vertex 0.057845986 0.0016478257 -0.002048693
    endloop
  endfacet
endsolid ExportedfromBlender-2.79(sub0)
