solid ExportedfromBlender-2.79(sub0)
  facet normal 0.85864848 0.37187009 0.35275406
    outer loop
       vertex 0.028260318 0.0051593497 -0.0091027052
       vertex 0.028195902 0.0047675431 -0.0085328691
       vertex 0.028531234 0.0045455403 -0.0091150763
    endloop
  endfacet
  facet normal 0.91413518 0.40412072 -0.032300337
    outer loop
       vertex 0.028150893 0.0052198828 -0.011442219
       vertex 0.028260318 0.0051593497 -0.0091027052
       vertex 0.028531234 0.0045455403 -0.0091150763
    endloop
  endfacet
  facet normal 0.67510121 0.6923446 -0.25474948
    outer loop
       vertex 0.028531234 0.0045455403 -0.0091150763
       vertex 0.028956429 0.003971961 -0.0095471271
       vertex 0.028507205 0.003931587 -0.010847324
    endloop
  endfacet
  facet normal 0.96984547 0.2251718 -0.093259984
    outer loop
       vertex 0.028531234 0.0045455403 -0.0091150763
       vertex 0.028507205 0.003931587 -0.010847324
       vertex 0.028150893 0.0052198828 -0.011442219
    endloop
  endfacet
  facet normal 0.82399643 0.56609097 -0.023893439
    outer loop
       vertex 0.028260318 0.0051593497 -0.0091027052
       vertex 0.028150893 0.0052198828 -0.011442219
       vertex 0.027408866 0.0063765763 -0.0096272395
    endloop
  endfacet
  facet normal 0.67438543 0.63448261 0.37767196
    outer loop
       vertex 0.028260318 0.0051593497 -0.0091027052
       vertex 0.027408866 0.0063765763 -0.0096272395
       vertex 0.027093734 0.0054932897 -0.0075806219
    endloop
  endfacet
  facet normal 0.52945385 0.058788156 -0.84629934
    outer loop
       vertex 0.027017754 0.0049088692 -0.013381541
       vertex 0.027454235 0.0035579366 -0.013202317
       vertex 0.025332661 0.0042128203 -0.014484104
    endloop
  endfacet
  facet normal 0.43440755 0.88681396 -0.15764226
    outer loop
       vertex 0.025796844 0.0071884141 -0.010433504
       vertex 0.026740393 0.0064499809 -0.011987454
       vertex 0.0242545 0.0076417144 -0.012133638
    endloop
  endfacet
  facet normal 0.46527121 0.22830113 -0.85522003
    outer loop
       vertex 0.027017754 0.0049088692 -0.013381541
       vertex 0.025332661 0.0042128203 -0.014484104
       vertex 0.025094279 0.0059577286 -0.014147989
    endloop
  endfacet
  facet normal 0.10389719 0.98044071 0.1671568
    outer loop
       vertex 0.025796844 0.0071884141 -0.010433504
       vertex 0.0242545 0.0076417144 -0.012133638
       vertex 0.023473605 0.0073517423 -0.0099474682
    endloop
  endfacet
  facet normal -0.29821855 -0.10418016 -0.94879513
    outer loop
       vertex 0.023272617 0.0033728598 -0.014912928
       vertex 0.022982555 0.0025840091 -0.01473514
       vertex 0.021389655 0.0030121453 -0.014281482
    endloop
  endfacet
  facet normal -0.31779616 -0.00086913806 -0.94815866
    outer loop
       vertex 0.021389655 0.0030121453 -0.014281482
       vertex 0.021073963 0.0040021417 -0.014176578
       vertex 0.023272617 0.0033728598 -0.014912928
    endloop
  endfacet
  facet normal -0.16998311 0.60828126 -0.77530617
    outer loop
       vertex 0.022624514 0.0066121962 -0.013750063
       vertex 0.022684346 0.0053921808 -0.014720367
       vertex 0.020553686 0.0063147646 -0.013529397
    endloop
  endfacet
  facet normal -0.4670665 0.87924123 0.093721622
    outer loop
       vertex 0.021235796 0.0069140095 -0.0095924276
       vertex 0.021577092 0.0073522464 -0.012002844
       vertex 0.019856912 0.0063266684 -0.010954079
    endloop
  endfacet
  facet normal -0.88369405 0.4012855 -0.24094558
    outer loop
       vertex 0.019856912 0.0063266684 -0.010954079
       vertex 0.020553686 0.0063147646 -0.013529397
       vertex 0.019593244 0.0048069925 -0.012518008
    endloop
  endfacet
  facet normal -0.57543482 0.80216428 -0.15939647
    outer loop
       vertex 0.019856912 0.0063266684 -0.010954079
       vertex 0.021577092 0.0073522464 -0.012002844
       vertex 0.020553686 0.0063147646 -0.013529397
    endloop
  endfacet
  facet normal -0.17438469 0.86481242 -0.4708391
    outer loop
       vertex 0.021577092 0.0073522464 -0.012002844
       vertex 0.022624514 0.0066121962 -0.013750063
       vertex 0.020553686 0.0063147646 -0.013529397
    endloop
  endfacet
  facet normal -0.74064116 0.021310743 -0.67156275
    outer loop
       vertex 0.020553686 0.0063147646 -0.013529397
       vertex 0.021073963 0.0040021417 -0.014176578
       vertex 0.019593244 0.0048069925 -0.012518008
    endloop
  endfacet
  facet normal -0.43135574 0.15182877 -0.88931448
    outer loop
       vertex 0.020553686 0.0063147646 -0.013529397
       vertex 0.022684346 0.0053921808 -0.014720367
       vertex 0.021073963 0.0040021417 -0.014176578
    endloop
  endfacet
  facet normal -0.3181592 -0.002282795 -0.94803455
    outer loop
       vertex 0.022684346 0.0053921808 -0.014720367
       vertex 0.023272617 0.0033728598 -0.014912928
       vertex 0.021073963 0.0040021417 -0.014176578
    endloop
  endfacet
  facet normal -0.69113963 0.17399757 -0.70146337
    outer loop
       vertex 0.019593244 0.0048069925 -0.012518008
       vertex 0.021073963 0.0040021417 -0.014176578
       vertex 0.02062845 0.0033688715 -0.013894704
    endloop
  endfacet
  facet normal -0.24628907 0.73218056 -0.6350223
    outer loop
       vertex 0.02062845 0.0033688715 -0.013894704
       vertex 0.019673151 0.0036169859 -0.013238122
       vertex 0.019356313 0.0042249891 -0.012414211
    endloop
  endfacet
  facet normal -0.70053795 0.16120626 -0.69516841
    outer loop
       vertex 0.02062845 0.0033688715 -0.013894704
       vertex 0.019356313 0.0042249891 -0.012414211
       vertex 0.019593244 0.0048069925 -0.012518008
    endloop
  endfacet
  facet normal -0.47367179 -0.057925185 -0.87879446
    outer loop
       vertex 0.021073963 0.0040021417 -0.014176578
       vertex 0.021389655 0.0030121453 -0.014281482
       vertex 0.02062845 0.0033688715 -0.013894704
    endloop
  endfacet
  facet normal -0.25957439 0.94053039 0.21914316
    outer loop
       vertex 0.02269267 0.0068771751 -0.007708678
       vertex 0.021235796 0.0069140095 -0.0095924276
       vertex 0.020289336 0.0063455757 -0.0082738718
    endloop
  endfacet
  facet normal -0.23176624 0.97001626 0.073163275
    outer loop
       vertex 0.020289336 0.0063455757 -0.0082738718
       vertex 0.021043641 0.0064638878 -0.0074530006
       vertex 0.02269267 0.0068771751 -0.007708678
    endloop
  endfacet
  facet normal -0.16617082 0.97406607 0.15356613
    outer loop
       vertex 0.023473605 0.0073517423 -0.0099474682
       vertex 0.021577092 0.0073522464 -0.012002844
       vertex 0.021235796 0.0069140095 -0.0095924276
    endloop
  endfacet
  facet normal -0.10242849 0.99021714 0.094754506
    outer loop
       vertex 0.023473605 0.0073517423 -0.0099474682
       vertex 0.0242545 0.0076417144 -0.012133638
       vertex 0.021577092 0.0073522464 -0.012002844
    endloop
  endfacet
  facet normal -0.11771175 0.88710438 -0.4463068
    outer loop
       vertex 0.0242545 0.0076417144 -0.012133638
       vertex 0.022624514 0.0066121962 -0.013750063
       vertex 0.021577092 0.0073522464 -0.012002844
    endloop
  endfacet
  facet normal 0.039280473 0.6231586 -0.78110844
    outer loop
       vertex 0.025094279 0.0059577286 -0.014147989
       vertex 0.022684346 0.0053921808 -0.014720367
       vertex 0.022624514 0.0066121962 -0.013750063
    endloop
  endfacet
  facet normal 0.17910714 0.20962814 -0.96123705
    outer loop
       vertex 0.025094279 0.0059577286 -0.014147989
       vertex 0.025332661 0.0042128203 -0.014484104
       vertex 0.022684346 0.0053921808 -0.014720367
    endloop
  endfacet
  facet normal 0.14820333 0.13657722 -0.9794807
    outer loop
       vertex 0.025332661 0.0042128203 -0.014484104
       vertex 0.023272617 0.0033728598 -0.014912928
       vertex 0.022684346 0.0053921808 -0.014720367
    endloop
  endfacet
  facet normal -0.16713065 0.97471511 0.14831653
    outer loop
       vertex 0.02269267 0.0068771751 -0.007708678
       vertex 0.023473605 0.0073517423 -0.0099474682
       vertex 0.021235796 0.0069140095 -0.0095924276
    endloop
  endfacet
  facet normal 0.015927271 0.9769976 0.21265469
    outer loop
       vertex 0.02269267 0.0068771751 -0.007708678
       vertex 0.025357513 0.0069481208 -0.0082342131
       vertex 0.023473605 0.0073517423 -0.0099474682
    endloop
  endfacet
  facet normal 0.0959825 0.98724285 0.127039
    outer loop
       vertex 0.025357513 0.0069481208 -0.0082342131
       vertex 0.025796844 0.0071884141 -0.010433504
       vertex 0.023473605 0.0073517423 -0.0099474682
    endloop
  endfacet
  facet normal 0.10959311 0.78460365 -0.61023476
    outer loop
       vertex 0.0242545 0.0076417144 -0.012133638
       vertex 0.025094279 0.0059577286 -0.014147989
       vertex 0.022624514 0.0066121962 -0.013750063
    endloop
  endfacet
  facet normal 0.40143033 0.77809921 -0.48313074
    outer loop
       vertex 0.0242545 0.0076417144 -0.012133638
       vertex 0.026740393 0.0064499809 -0.011987454
       vertex 0.025094279 0.0059577286 -0.014147989
    endloop
  endfacet
  facet normal 0.55714925 0.60998787 -0.56347095
    outer loop
       vertex 0.026740393 0.0064499809 -0.011987454
       vertex 0.027017754 0.0049088692 -0.013381541
       vertex 0.025094279 0.0059577286 -0.014147989
    endloop
  endfacet
  facet normal 0.20206982 0.0044059849 -0.97936121
    outer loop
       vertex 0.023272617 0.0033728598 -0.014912928
       vertex 0.025332661 0.0042128203 -0.014484104
       vertex 0.025627979 0.002688223 -0.014430031
    endloop
  endfacet
  facet normal 0.1839955 0.27174468 -0.94461658
    outer loop
       vertex 0.025627979 0.002688223 -0.014430031
       vertex 0.025209343 0.0021012485 -0.014680433
       vertex 0.024086232 0.0024341361 -0.014803432
    endloop
  endfacet
  facet normal 0.22228174 0.079308615 -0.9717515
    outer loop
       vertex 0.025627979 0.002688223 -0.014430031
       vertex 0.024086232 0.0024341361 -0.014803432
       vertex 0.023272617 0.0033728598 -0.014912928
    endloop
  endfacet
  facet normal 0.52564841 0.03965272 -0.84977727
    outer loop
       vertex 0.025332661 0.0042128203 -0.014484104
       vertex 0.027454235 0.0035579366 -0.013202317
       vertex 0.026702044 0.0025766926 -0.013713388
    endloop
  endfacet
  facet normal 0.55894987 0.07899385 -0.8254302
    outer loop
       vertex 0.026702044 0.0025766926 -0.013713388
       vertex 0.025627979 0.002688223 -0.014430031
       vertex 0.025332661 0.0042128203 -0.014484104
    endloop
  endfacet
  facet normal 0.70212975 -0.17931983 -0.68909956
    outer loop
       vertex 0.027454235 0.0035579366 -0.013202317
       vertex 0.027472797 0.0027252232 -0.012966712
       vertex 0.026702044 0.0025766926 -0.013713388
    endloop
  endfacet
  facet normal 0.43283242 0.74474692 0.507945
    outer loop
       vertex 0.026624769 0.0052924877 -0.0068865903
       vertex 0.027093734 0.0054932897 -0.0075806219
       vertex 0.025357513 0.0069481208 -0.0082342131
    endloop
  endfacet
  facet normal 0.10155304 0.87416474 0.4748926
    outer loop
       vertex 0.025357513 0.0069481208 -0.0082342131
       vertex 0.024890358 0.006166761 -0.0066960162
       vertex 0.025948465 0.0056868857 -0.0060389498
    endloop
  endfacet
  facet normal 0.68108611 0.69893211 0.21821004
    outer loop
       vertex 0.025357513 0.0069481208 -0.0082342131
       vertex 0.025948465 0.0056868857 -0.0060389498
       vertex 0.026624769 0.0052924877 -0.0068865903
    endloop
  endfacet
  facet normal 0.49135067 0.76959303 0.4078003
    outer loop
       vertex 0.027093734 0.0054932897 -0.0075806219
       vertex 0.027408866 0.0063765763 -0.0096272395
       vertex 0.025357513 0.0069481208 -0.0082342131
    endloop
  endfacet
  facet normal 0.37215259 0.91172467 0.17395565
    outer loop
       vertex 0.027408866 0.0063765763 -0.0096272395
       vertex 0.025796844 0.0071884141 -0.010433504
       vertex 0.025357513 0.0069481208 -0.0082342131
    endloop
  endfacet
  facet normal 0.49116488 0.86380439 -0.11224545
    outer loop
       vertex 0.027408866 0.0063765763 -0.0096272395
       vertex 0.026740393 0.0064499809 -0.011987454
       vertex 0.025796844 0.0071884141 -0.010433504
    endloop
  endfacet
  facet normal 0.68437812 0.70859928 -0.17179539
    outer loop
       vertex 0.027408866 0.0063765763 -0.0096272395
       vertex 0.028150893 0.0052198828 -0.011442219
       vertex 0.026740393 0.0064499809 -0.011987454
    endloop
  endfacet
  facet normal 0.67401218 0.55859335 -0.48340568
    outer loop
       vertex 0.028150893 0.0052198828 -0.011442219
       vertex 0.027017754 0.0049088692 -0.013381541
       vertex 0.026740393 0.0064499809 -0.011987454
    endloop
  endfacet
  facet normal 0.83166687 0.1999849 -0.51801183
    outer loop
       vertex 0.028150893 0.0052198828 -0.011442219
       vertex 0.027454235 0.0035579366 -0.013202317
       vertex 0.027017754 0.0049088692 -0.013381541
    endloop
  endfacet
  facet normal 0.91506069 0.069642925 -0.39725786
    outer loop
       vertex 0.028150893 0.0052198828 -0.011442219
       vertex 0.028507205 0.003931587 -0.010847324
       vertex 0.028032959 0.003088933 -0.012087447
    endloop
  endfacet
  facet normal 0.89816655 0.081129284 -0.43210517
    outer loop
       vertex 0.028032959 0.003088933 -0.012087447
       vertex 0.027454235 0.0035579366 -0.013202317
       vertex 0.028150893 0.0052198828 -0.011442219
    endloop
  endfacet
  facet normal 0.90034201 -0.32031557 0.29458819
    outer loop
       vertex 0.033978517 -0.0048585817 -0.00053739305
       vertex 0.031040865 -0.010199171 0.0026338712
       vertex 0.033247774 -0.0095973281 -0.0034566408
    endloop
  endfacet
  facet normal 0.472386 -0.47960482 0.73948001
    outer loop
       vertex 0.025489354 -0.014080765 0.0036627363
       vertex 0.031040865 -0.010199171 0.0026338712
       vertex 0.025300278 -0.009957202 0.0064579403
    endloop
  endfacet
  facet normal 0.99143802 -0.10540439 -0.077075122
    outer loop
       vertex 0.033978517 -0.0048585817 -0.00053739305
       vertex 0.033247774 -0.0095973281 -0.0034566408
       vertex 0.033801589 -0.0024416591 -0.0061185365
    endloop
  endfacet
  facet normal 0.93767836 0.32874322 0.1126374
    outer loop
       vertex 0.033978517 -0.0048585817 -0.00053739305
       vertex 0.033801589 -0.0024416591 -0.0061185365
       vertex 0.031943217 0.0013401467 -0.0016856223
    endloop
  endfacet
  facet normal 0.72693639 0.34830887 0.59181451
    outer loop
       vertex 0.033978517 -0.0048585817 -0.00053739305
       vertex 0.031943217 0.0013401467 -0.0016856223
       vertex 0.030243792 -0.0046320228 0.0039166963
    endloop
  endfacet
  facet normal 0.026772003 -0.56005641 0.82802179
    outer loop
       vertex 0.025489354 -0.014080765 0.0036627363
       vertex 0.025300278 -0.009957202 0.0064579403
       vertex 0.019025797 -0.012627787 0.0048544827
    endloop
  endfacet
  facet normal 0.48668164 -0.84853232 -0.20768696
    outer loop
       vertex 0.029580723 -0.013749423 -0.0075040772
       vertex 0.028604805 -0.01566175 -0.0019779252
       vertex 0.022734986 -0.017512102 -0.0081730673
    endloop
  endfacet
  facet normal 0.64688224 -0.071980306 -0.75918523
    outer loop
       vertex 0.030597919 -0.0015073515 -0.012017476
       vertex 0.031482549 -0.0079755783 -0.010650437
       vertex 0.026115905 -0.0053303415 -0.015474018
    endloop
  endfacet
  facet normal 0.63289926 0.77368292 0.029210572
    outer loop
       vertex 0.025948465 0.0056868857 -0.0060389498
       vertex 0.027222509 0.0045495874 -0.0035204419
       vertex 0.030150455 0.0023417204 -0.0084811864
    endloop
  endfacet
  facet normal 0.80515818 0.59303837 0.0050800999
    outer loop
       vertex 0.030150455 0.0023417204 -0.0084811864
       vertex 0.028956429 0.003971961 -0.0095471271
       vertex 0.028531234 0.0045455403 -0.0091150763
    endloop
  endfacet
  facet normal 0.76040907 0.61700149 0.2026998
    outer loop
       vertex 0.030150455 0.0023417204 -0.0084811864
       vertex 0.028531234 0.0045455403 -0.0091150763
       vertex 0.028195902 0.0047675431 -0.0085328691
    endloop
  endfacet
  facet normal 0.68275177 0.69653556 0.22065411
    outer loop
       vertex 0.026624769 0.0052924877 -0.0068865903
       vertex 0.025948465 0.0056868857 -0.0060389498
       vertex 0.030150455 0.0023417204 -0.0084811864
    endloop
  endfacet
  facet normal 0.3489205 -0.087330733 0.9330744
    outer loop
       vertex 0.026986071 0.0051861591 -0.0070316497
       vertex 0.026624769 0.0052924877 -0.0068865903
       vertex 0.030150455 0.0023417204 -0.0084811864
    endloop
  endfacet
  facet normal 0.7150117 0.58428382 0.38388889
    outer loop
       vertex 0.030150455 0.0023417204 -0.0084811864
       vertex 0.028195902 0.0047675431 -0.0085328691
       vertex 0.027329449 0.0050720978 -0.0073825943
    endloop
  endfacet
  facet normal 0.69206536 0.50916621 0.51165937
    outer loop
       vertex 0.030150455 0.0023417204 -0.0084811864
       vertex 0.027329449 0.0050720978 -0.0073825943
       vertex 0.026986071 0.0051861591 -0.0070316497
    endloop
  endfacet
  facet normal 0.025156035 0.62453346 0.7805928
    outer loop
       vertex 0.024020235 -0.003541895 0.0062010841
       vertex 0.026247834 0.0014954897 0.0020990057
       vertex 0.019023771 -2.2520241e-05 0.0035463375
    endloop
  endfacet
  facet normal -0.067047197 -0.79392144 0.60431235
    outer loop
       vertex 0.025489354 -0.014080765 0.0036627363
       vertex 0.019025797 -0.012627787 0.0048544827
       vertex 0.020104478 -0.017229937 -0.0010719611
    endloop
  endfacet
  facet normal 0.45014512 -0.72673026 -0.51887619
    outer loop
       vertex 0.029580723 -0.013749423 -0.0075040772
       vertex 0.022734986 -0.017512102 -0.0081730673
       vertex 0.025437522 -0.012492268 -0.012859217
    endloop
  endfacet
  facet normal 0.47232854 0.21834523 -0.8539503
    outer loop
       vertex 0.030597919 -0.0015073515 -0.012017476
       vertex 0.026115905 -0.0053303415 -0.015474018
       vertex 0.025375141 0.00048559704 -0.014396674
    endloop
  endfacet
  facet normal -0.017714116 0.90784854 0.4189239
    outer loop
       vertex 0.021171624 0.0038361036 -0.0022301139
       vertex 0.027222509 0.0045495874 -0.0035204419
       vertex 0.025948465 0.0056868857 -0.0060389498
    endloop
  endfacet
  facet normal 0.10578312 0.87644204 0.46974385
    outer loop
       vertex 0.025948465 0.0056868857 -0.0060389498
       vertex 0.024890358 0.006166761 -0.0066960162
       vertex 0.02359967 0.0062893964 -0.0066341738
    endloop
  endfacet
  facet normal 0.18944646 0.6983384 0.69024163
    outer loop
       vertex 0.02359967 0.0062893964 -0.0066341738
       vertex 0.022632332 0.00662365 -0.0067068486
       vertex 0.021616631 0.0062012816 -0.0060007525
    endloop
  endfacet
  facet normal 0.104124 0.83695338 0.53727761
    outer loop
       vertex 0.021616631 0.0062012816 -0.0060007525
       vertex 0.021171624 0.0038361036 -0.0022301139
       vertex 0.025948465 0.0056868857 -0.0060389498
    endloop
  endfacet
  facet normal 0.10857824 0.88002783 0.4623438
    outer loop
       vertex 0.025948465 0.0056868857 -0.0060389498
       vertex 0.02359967 0.0062893964 -0.0066341738
       vertex 0.021616631 0.0062012816 -0.0060007525
    endloop
  endfacet
  facet normal -0.22358557 0.36446588 0.90397683
    outer loop
       vertex 0.024020235 -0.003541895 0.0062010841
       vertex 0.019023771 -2.2520241e-05 0.0035463375
       vertex 0.018424571 -0.0070909406 0.0062479838
    endloop
  endfacet
  facet normal -0.6911469 -0.72258557 0.013640226
    outer loop
       vertex 0.015986424 -0.017103842 -0.0067156621
       vertex 0.013228809 -0.014363638 -0.0012820856
       vertex 0.011429016 -0.012781241 -0.0086503084
    endloop
  endfacet
  facet normal -0.37501197 -0.36562114 -0.85187276
    outer loop
       vertex 0.020708628 -0.0096985779 -0.016574776
       vertex 0.017333142 -0.01475469 -0.012918749
       vertex 0.014449268 -0.0084186489 -0.014368617
    endloop
  endfacet
  facet normal -0.41318528 0.47520074 -0.77682829
    outer loop
       vertex 0.018999188 0.0017785093 -0.01350758
       vertex 0.019485777 -0.0031294607 -0.01676869
       vertex 0.013671259 -0.0012224034 -0.012509437
    endloop
  endfacet
  facet normal -0.74574313 0.66608549 0.014046093
    outer loop
       vertex 0.016594305 0.00159148 -0.0010455662
       vertex 0.017286208 0.0025014352 -0.0074620235
       vertex 0.013003069 -0.0023447617 -0.0050514338
    endloop
  endfacet
  facet normal -0.8819149 0.0022020154 0.47140351
    outer loop
       vertex 0.01541537 -0.010467 0.0035263877
       vertex 0.014749586 -0.0040167664 0.0022506912
       vertex 0.012235307 -0.0094416382 -0.002427753
    endloop
  endfacet
  facet normal -0.92790027 0.21340346 0.30571238
    outer loop
       vertex 0.012235307 -0.0094416382 -0.002427753
       vertex 0.013003069 -0.0023447617 -0.0050514338
       vertex 0.010675432 -0.006397067 -0.0092875679
    endloop
  endfacet
  facet normal -0.94101822 0.20211996 0.27135261
    outer loop
       vertex 0.012235307 -0.0094416382 -0.002427753
       vertex 0.014749586 -0.0040167664 0.0022506912
       vertex 0.013003069 -0.0023447617 -0.0050514338
    endloop
  endfacet
  facet normal -0.83729943 0.45425218 0.30427721
    outer loop
       vertex 0.014749586 -0.0040167664 0.0022506912
       vertex 0.016594305 0.00159148 -0.0010455662
       vertex 0.013003069 -0.0023447617 -0.0050514338
    endloop
  endfacet
  facet normal -0.86606227 0.49993057 -0.0023590147
    outer loop
       vertex 0.013003069 -0.0023447617 -0.0050514338
       vertex 0.013671259 -0.0012224034 -0.012509437
       vertex 0.010675432 -0.006397067 -0.0092875679
    endloop
  endfacet
  facet normal -0.74020614 0.67148227 0.034733805
    outer loop
       vertex 0.013003069 -0.0023447617 -0.0050514338
       vertex 0.017286208 0.0025014352 -0.0074620235
       vertex 0.013671259 -0.0012224034 -0.012509437
    endloop
  endfacet
  facet normal -0.51020788 0.82494603 -0.24321178
    outer loop
       vertex 0.017286208 0.0025014352 -0.0074620235
       vertex 0.018999188 0.0017785093 -0.01350758
       vertex 0.013671259 -0.0012224034 -0.012509437
    endloop
  endfacet
  facet normal -0.7864206 0.073429198 -0.61331133
    outer loop
       vertex 0.013671259 -0.0012224034 -0.012509437
       vertex 0.014449268 -0.0084186489 -0.014368617
       vertex 0.010675432 -0.006397067 -0.0092875679
    endloop
  endfacet
  facet normal -0.55101953 0.15239658 -0.82045887
    outer loop
       vertex 0.013671259 -0.0012224034 -0.012509437
       vertex 0.019485777 -0.0031294607 -0.01676869
       vertex 0.014449268 -0.0084186489 -0.014368617
    endloop
  endfacet
  facet normal -0.34772656 -0.092272458 -0.9330445
    outer loop
       vertex 0.019485777 -0.0031294607 -0.01676869
       vertex 0.020708628 -0.0096985779 -0.016574776
       vertex 0.014449268 -0.0084186489 -0.014368617
    endloop
  endfacet
  facet normal -0.82144673 -0.15183358 -0.54970159
    outer loop
       vertex 0.014449268 -0.0084186489 -0.014368617
       vertex 0.011429016 -0.012781241 -0.0086503084
       vertex 0.010675432 -0.006397067 -0.0092875679
    endloop
  endfacet
  facet normal -0.61877265 -0.43180571 -0.65625014
    outer loop
       vertex 0.014449268 -0.0084186489 -0.014368617
       vertex 0.017333142 -0.01475469 -0.012918749
       vertex 0.011429016 -0.012781241 -0.0086503084
    endloop
  endfacet
  facet normal -0.53658097 -0.74396656 -0.39823939
    outer loop
       vertex 0.017333142 -0.01475469 -0.012918749
       vertex 0.015986424 -0.017103842 -0.0067156621
       vertex 0.011429016 -0.012781241 -0.0086503084
    endloop
  endfacet
  facet normal -0.97894236 -0.097660281 0.17926051
    outer loop
       vertex 0.011429016 -0.012781241 -0.0086503084
       vertex 0.012235307 -0.0094416382 -0.002427753
       vertex 0.010675432 -0.006397067 -0.0092875679
    endloop
  endfacet
  facet normal -0.96763199 -0.14768258 0.20464159
    outer loop
       vertex 0.011429016 -0.012781241 -0.0086503084
       vertex 0.013228809 -0.014363638 -0.0012820856
       vertex 0.012235307 -0.0094416382 -0.002427753
    endloop
  endfacet
  facet normal -0.88488144 -0.071471039 0.46030069
    outer loop
       vertex 0.013228809 -0.014363638 -0.0012820856
       vertex 0.01541537 -0.010467 0.0035263877
       vertex 0.012235307 -0.0094416382 -0.002427753
    endloop
  endfacet
  facet normal -0.7088774 0.065721017 0.70226319
    outer loop
       vertex 0.018424571 -0.0070909406 0.0062479838
       vertex 0.014749586 -0.0040167664 0.0022506912
       vertex 0.01541537 -0.010467 0.0035263877
    endloop
  endfacet
  facet normal -0.54831472 0.33872302 0.76460296
    outer loop
       vertex 0.018424571 -0.0070909406 0.0062479838
       vertex 0.019023771 -2.2520241e-05 0.0035463375
       vertex 0.014749586 -0.0040167664 0.0022506912
    endloop
  endfacet
  facet normal -0.65785145 0.53056398 0.5345403
    outer loop
       vertex 0.019023771 -2.2520241e-05 0.0035463375
       vertex 0.016594305 0.00159148 -0.0010455662
       vertex 0.014749586 -0.0040167664 0.0022506912
    endloop
  endfacet
  facet normal -0.42146669 0.90307221 0.082622111
    outer loop
       vertex 0.021171624 0.0038361036 -0.0022301139
       vertex 0.017286208 0.0025014352 -0.0074620235
       vertex 0.016594305 0.00159148 -0.0010455662
    endloop
  endfacet
  facet normal -0.67492808 0.65832469 0.3332877
    outer loop
       vertex 0.017286208 0.0025014352 -0.0074620235
       vertex 0.021171624 0.0038361036 -0.0022301139
       vertex 0.021616631 0.0062012816 -0.0060007525
    endloop
  endfacet
  facet normal -0.49539053 0.79936509 0.34000541
    outer loop
       vertex 0.021616631 0.0062012816 -0.0060007525
       vertex 0.021043641 0.0064638878 -0.0074530006
       vertex 0.020289336 0.0063455757 -0.0082738718
    endloop
  endfacet
  facet normal -0.71499446 0.47227984 0.51549459
    outer loop
       vertex 0.020289336 0.0063455757 -0.0082738718
       vertex 0.019766893 0.0061434278 -0.0088133028
       vertex 0.019198926 0.005255548 -0.0087876301
    endloop
  endfacet
  facet normal -0.67285869 0.64319768 0.36545577
    outer loop
       vertex 0.019198926 0.005255548 -0.0087876301
       vertex 0.017286208 0.0025014352 -0.0074620235
       vertex 0.021616631 0.0062012816 -0.0060007525
    endloop
  endfacet
  facet normal -0.72722705 0.51202228 0.45713675
    outer loop
       vertex 0.021616631 0.0062012816 -0.0060007525
       vertex 0.020289336 0.0063455757 -0.0082738718
       vertex 0.019198926 0.005255548 -0.0087876301
    endloop
  endfacet
  facet normal -0.0040022826 0.5531427 -0.83307691
    outer loop
       vertex 0.025375141 0.00048559704 -0.014396674
       vertex 0.019485777 -0.0031294607 -0.01676869
       vertex 0.018999188 0.0017785093 -0.01350758
    endloop
  endfacet
  facet normal 0.25332692 0.20730057 -0.94490843
    outer loop
       vertex 0.025375141 0.00048559704 -0.014396674
       vertex 0.026115905 -0.0053303415 -0.015474018
       vertex 0.019485777 -0.0031294607 -0.01676869
    endloop
  endfacet
  facet normal 0.19392969 0.0071424017 -0.98098943
    outer loop
       vertex 0.026115905 -0.0053303415 -0.015474018
       vertex 0.020708628 -0.0096985779 -0.016574776
       vertex 0.019485777 -0.0031294607 -0.01676869
    endloop
  endfacet
  facet normal 0.18819439 -0.65488478 -0.7319213
    outer loop
       vertex 0.025437522 -0.012492268 -0.012859217
       vertex 0.017333142 -0.01475469 -0.012918749
       vertex 0.020708628 -0.0096985779 -0.016574776
    endloop
  endfacet
  facet normal 0.20717983 -0.72486534 -0.65699829
    outer loop
       vertex 0.025437522 -0.012492268 -0.012859217
       vertex 0.022734986 -0.017512102 -0.0081730673
       vertex 0.017333142 -0.01475469 -0.012918749
    endloop
  endfacet
  facet normal -0.13676961 -0.91619786 -0.3766637
    outer loop
       vertex 0.022734986 -0.017512102 -0.0081730673
       vertex 0.015986424 -0.017103842 -0.0067156621
       vertex 0.017333142 -0.01475469 -0.012918749
    endloop
  endfacet
  facet normal -0.37858423 -0.88935221 0.25637206
    outer loop
       vertex 0.020104478 -0.017229937 -0.0010719611
       vertex 0.013228809 -0.014363638 -0.0012820856
       vertex 0.015986424 -0.017103842 -0.0067156621
    endloop
  endfacet
  facet normal -0.33830605 -0.77208832 0.53798573
    outer loop
       vertex 0.020104478 -0.017229937 -0.0010719611
       vertex 0.019025797 -0.012627787 0.0048544827
       vertex 0.013228809 -0.014363638 -0.0012820856
    endloop
  endfacet
  facet normal -0.54878641 -0.50970339 0.66259787
    outer loop
       vertex 0.019025797 -0.012627787 0.0048544827
       vertex 0.01541537 -0.010467 0.0035263877
       vertex 0.013228809 -0.014363638 -0.0012820856
    endloop
  endfacet
  facet normal -0.29563416 0.84150108 0.45219063
    outer loop
       vertex 0.019023771 -2.2520241e-05 0.0035463375
       vertex 0.021171624 0.0038361036 -0.0022301139
       vertex 0.016594305 0.00159148 -0.0010455662
    endloop
  endfacet
  facet normal -0.069355625 0.84125868 0.53616568
    outer loop
       vertex 0.019023771 -2.2520241e-05 0.0035463375
       vertex 0.026247834 0.0014954897 0.0020990057
       vertex 0.021171624 0.0038361036 -0.0022301139
    endloop
  endfacet
  facet normal -0.0018409059 0.87875367 0.47727205
    outer loop
       vertex 0.026247834 0.0014954897 0.0020990057
       vertex 0.027222509 0.0045495874 -0.0035204419
       vertex 0.021171624 0.0038361036 -0.0022301139
    endloop
  endfacet
  facet normal 0.50909626 0.61366268 -0.60352226
    outer loop
       vertex 0.030150455 0.0023417204 -0.0084811864
       vertex 0.030597919 -0.0015073515 -0.012017476
       vertex 0.025375141 0.00048559704 -0.014396674
    endloop
  endfacet
  facet normal 0.44604681 -0.34392661 -0.82629095
    outer loop
       vertex 0.026115905 -0.0053303415 -0.015474018
       vertex 0.025437522 -0.012492268 -0.012859217
       vertex 0.020708628 -0.0096985779 -0.016574776
    endloop
  endfacet
  facet normal 0.53357885 -0.33419337 -0.77692239
    outer loop
       vertex 0.026115905 -0.0053303415 -0.015474018
       vertex 0.031482549 -0.0079755783 -0.010650437
       vertex 0.025437522 -0.012492268 -0.012859217
    endloop
  endfacet
  facet normal 0.60927174 -0.52468001 -0.59455769
    outer loop
       vertex 0.031482549 -0.0079755783 -0.010650437
       vertex 0.029580723 -0.013749423 -0.0075040772
       vertex 0.025437522 -0.012492268 -0.012859217
    endloop
  endfacet
  facet normal -0.056329305 -0.99823525 0.018798714
    outer loop
       vertex 0.022734986 -0.017512102 -0.0081730673
       vertex 0.020104478 -0.017229937 -0.0010719611
       vertex 0.015986424 -0.017103842 -0.0067156621
    endloop
  endfacet
  facet normal 0.19162723 -0.97531335 0.10974003
    outer loop
       vertex 0.022734986 -0.017512102 -0.0081730673
       vertex 0.028604805 -0.01566175 -0.0019779252
       vertex 0.020104478 -0.017229937 -0.0010719611
    endloop
  endfacet
  facet normal 0.20648206 -0.90655426 0.36813657
    outer loop
       vertex 0.028604805 -0.01566175 -0.0019779252
       vertex 0.025489354 -0.014080765 0.0036627363
       vertex 0.020104478 -0.017229937 -0.0010719611
    endloop
  endfacet
  facet normal -0.46785329 -0.26314845 0.84372163
    outer loop
       vertex 0.019025797 -0.012627787 0.0048544827
       vertex 0.018424571 -0.0070909406 0.0062479838
       vertex 0.01541537 -0.010467 0.0035263877
    endloop
  endfacet
  facet normal -0.13580007 -0.25564811 0.95718461
    outer loop
       vertex 0.019025797 -0.012627787 0.0048544827
       vertex 0.025300278 -0.009957202 0.0064579403
       vertex 0.018424571 -0.0070909406 0.0062479838
    endloop
  endfacet
  facet normal -0.015089468 0.036995255 0.99920151
    outer loop
       vertex 0.025300278 -0.009957202 0.0064579403
       vertex 0.024020235 -0.003541895 0.0062010841
       vertex 0.018424571 -0.0070909406 0.0062479838
    endloop
  endfacet
  facet normal 0.37515814 0.4799097 0.7930593
    outer loop
       vertex 0.030243792 -0.0046320228 0.0039166963
       vertex 0.026247834 0.0014954897 0.0020990057
       vertex 0.024020235 -0.003541895 0.0062010841
    endloop
  endfacet
  facet normal 0.48165569 0.52275561 0.70337356
    outer loop
       vertex 0.030243792 -0.0046320228 0.0039166963
       vertex 0.031943217 0.0013401467 -0.0016856223
       vertex 0.026247834 0.0014954897 0.0020990057
    endloop
  endfacet
  facet normal 0.34963785 0.79639113 0.49347193
    outer loop
       vertex 0.031943217 0.0013401467 -0.0016856223
       vertex 0.027222509 0.0045495874 -0.0035204419
       vertex 0.026247834 0.0014954897 0.0020990057
    endloop
  endfacet
  facet normal 0.56974478 0.82130071 -0.029257803
    outer loop
       vertex 0.031943217 0.0013401467 -0.0016856223
       vertex 0.030150455 0.0023417204 -0.0084811864
       vertex 0.027222509 0.0045495874 -0.0035204419
    endloop
  endfacet
  facet normal 0.81849147 0.55877537 -0.1335732
    outer loop
       vertex 0.031943217 0.0013401467 -0.0016856223
       vertex 0.033801589 -0.0024416591 -0.0061185365
       vertex 0.030150455 0.0023417204 -0.0084811864
    endloop
  endfacet
  facet normal 0.81697976 0.4387685 -0.37420086
    outer loop
       vertex 0.033801589 -0.0024416591 -0.0061185365
       vertex 0.030597919 -0.0015073515 -0.012017476
       vertex 0.030150455 0.0023417204 -0.0084811864
    endloop
  endfacet
  facet normal 0.87991677 0.020014527 -0.47470611
    outer loop
       vertex 0.033801589 -0.0024416591 -0.0061185365
       vertex 0.031482549 -0.0079755783 -0.010650437
       vertex 0.030597919 -0.0015073515 -0.012017476
    endloop
  endfacet
  facet normal 0.94651649 -0.17426999 -0.27154466
    outer loop
       vertex 0.033801589 -0.0024416591 -0.0061185365
       vertex 0.033247774 -0.0095973281 -0.0034566408
       vertex 0.031482549 -0.0079755783 -0.010650437
    endloop
  endfacet
  facet normal 0.84169411 -0.44438264 -0.30671664
    outer loop
       vertex 0.033247774 -0.0095973281 -0.0034566408
       vertex 0.029580723 -0.013749423 -0.0075040772
       vertex 0.031482549 -0.0079755783 -0.010650437
    endloop
  endfacet
  facet normal 0.35926924 0.10879484 0.9268707
    outer loop
       vertex 0.025300278 -0.009957202 0.0064579403
       vertex 0.030243792 -0.0046320228 0.0039166963
       vertex 0.024020235 -0.003541895 0.0062010841
    endloop
  endfacet
  facet normal 0.54757739 -0.11265695 0.82913654
    outer loop
       vertex 0.025300278 -0.009957202 0.0064579403
       vertex 0.031040865 -0.010199171 0.0026338712
       vertex 0.030243792 -0.0046320228 0.0039166963
    endloop
  endfacet
  facet normal 0.76472802 -0.038719033 0.64318885
    outer loop
       vertex 0.031040865 -0.010199171 0.0026338712
       vertex 0.033978517 -0.0048585817 -0.00053739305
       vertex 0.030243792 -0.0046320228 0.0039166963
    endloop
  endfacet
  facet normal 0.78277098 -0.61771035 -0.075521568
    outer loop
       vertex 0.033247774 -0.0095973281 -0.0034566408
       vertex 0.028604805 -0.01566175 -0.0019779252
       vertex 0.029580723 -0.013749423 -0.0075040772
    endloop
  endfacet
  facet normal 0.79861972 -0.55422224 0.2346151
    outer loop
       vertex 0.033247774 -0.0095973281 -0.0034566408
       vertex 0.031040865 -0.010199171 0.0026338712
       vertex 0.028604805 -0.01566175 -0.0019779252
    endloop
  endfacet
  facet normal 0.55768116 -0.66644727 0.49481286
    outer loop
       vertex 0.031040865 -0.010199171 0.0026338712
       vertex 0.025489354 -0.014080765 0.0036627363
       vertex 0.028604805 -0.01566175 -0.0019779252
    endloop
  endfacet
  facet normal -0.89514766 0.30672164 -0.32346947
    outer loop
       vertex 0.019356313 0.0042249891 -0.012414211
       vertex 0.019232869 0.0045252623 -0.011787875
       vertex 0.019593244 0.0048069925 -0.012518008
    endloop
  endfacet
  facet normal 0.59198892 -0.080098841 -0.80195592
    outer loop
       vertex 0.025375141 0.00048559704 -0.014396674
       vertex 0.025209343 0.0021012485 -0.014680433
       vertex 0.025627979 0.002688223 -0.014430031
    endloop
  endfacet
  facet normal 0.54799825 -0.075520291 -0.83306339
    outer loop
       vertex 0.025375141 0.00048559704 -0.014396674
       vertex 0.025627979 0.002688223 -0.014430031
       vertex 0.026702044 0.0025766926 -0.013713388
    endloop
  endfacet
  facet normal 0.75178998 0.12762801 -0.64693347
    outer loop
       vertex 0.028956429 0.003971961 -0.0095471271
       vertex 0.030150455 0.0023417204 -0.0084811864
       vertex 0.025375141 0.00048559704 -0.014396674
    endloop
  endfacet
  facet normal 0.94432293 -0.053757312 -0.32459875
    outer loop
       vertex 0.028032959 0.003088933 -0.012087447
       vertex 0.028507205 0.003931587 -0.010847324
       vertex 0.028956429 0.003971961 -0.0095471271
    endloop
  endfacet
  facet normal 0.70013293 -0.22258445 -0.67843204
    outer loop
       vertex 0.025375141 0.00048559704 -0.014396674
       vertex 0.026702044 0.0025766926 -0.013713388
       vertex 0.027472797 0.0027252232 -0.012966712
    endloop
  endfacet
  facet normal 0.22754904 -0.94247089 0.24488784
    outer loop
       vertex 0.027472797 0.0027252232 -0.012966712
       vertex 0.028032959 0.003088933 -0.012087447
       vertex 0.028956429 0.003971961 -0.0095471271
    endloop
  endfacet
  facet normal 0.75514688 -0.64921818 -0.090933742
    outer loop
       vertex 0.027472797 0.0027252232 -0.012966712
       vertex 0.028956429 0.003971961 -0.0095471271
       vertex 0.025375141 0.00048559704 -0.014396674
    endloop
  endfacet
  facet normal 0.70083938 0.58447353 0.40891913
    outer loop
       vertex 0.028260318 0.0051593497 -0.0091027052
       vertex 0.027093734 0.0054932897 -0.0075806219
       vertex 0.027329449 0.0050720978 -0.0073825943
    endloop
  endfacet
  facet normal 0.74893157 0.50346963 0.4308362
    outer loop
       vertex 0.027329449 0.0050720978 -0.0073825943
       vertex 0.028195902 0.0047675431 -0.0085328691
       vertex 0.028260318 0.0051593497 -0.0091027052
    endloop
  endfacet
  facet normal -0.82227808 0.56907077 -0.0041493172
    outer loop
       vertex 0.017286208 0.0025014352 -0.0074620235
       vertex 0.019198926 0.005255548 -0.0087876301
       vertex 0.019307133 0.0054001202 -0.010403527
    endloop
  endfacet
  facet normal -0.80362253 -0.58271404 0.12097595
    outer loop
       vertex 0.019232869 0.0045252623 -0.011787875
       vertex 0.019356313 0.0042249891 -0.012414211
       vertex 0.019673151 0.0036169859 -0.013238122
    endloop
  endfacet
  facet normal -0.88900446 0.40711506 -0.20959103
    outer loop
       vertex 0.017286208 0.0025014352 -0.0074620235
       vertex 0.019307133 0.0054001202 -0.010403527
       vertex 0.019232869 0.0045252623 -0.011787875
    endloop
  endfacet
  facet normal -0.88269269 0.36666791 -0.29395281
    outer loop
       vertex 0.019673151 0.0036169859 -0.013238122
       vertex 0.018999188 0.0017785093 -0.01350758
       vertex 0.017286208 0.0025014352 -0.0074620235
    endloop
  endfacet
  facet normal -0.92529696 0.1238216 -0.35846025
    outer loop
       vertex 0.019232869 0.0045252623 -0.011787875
       vertex 0.019673151 0.0036169859 -0.013238122
       vertex 0.017286208 0.0025014352 -0.0074620235
    endloop
  endfacet
  facet normal 0.85915031 -0.12149382 -0.49709153
    outer loop
       vertex 0.028032959 0.003088933 -0.012087447
       vertex 0.027472797 0.0027252232 -0.012966712
       vertex 0.027454235 0.0035579366 -0.013202317
    endloop
  endfacet
  facet normal -0.48664936 0.29872117 -0.82093731
    outer loop
       vertex 0.018999188 0.0017785093 -0.01350758
       vertex 0.019673151 0.0036169859 -0.013238122
       vertex 0.02062845 0.0033688715 -0.013894704
    endloop
  endfacet
  facet normal -0.38187493 0.17008703 -0.90842828
    outer loop
       vertex 0.018999188 0.0017785093 -0.01350758
       vertex 0.02062845 0.0033688715 -0.013894704
       vertex 0.021389655 0.0030121453 -0.014281482
    endloop
  endfacet
  facet normal -0.17286587 -0.18756154 -0.96692195
    outer loop
       vertex 0.025209343 0.0021012485 -0.014680433
       vertex 0.025375141 0.00048559704 -0.014396674
       vertex 0.018999188 0.0017785093 -0.01350758
    endloop
  endfacet
  facet normal -0.14000594 -0.72251511 -0.67703046
    outer loop
       vertex 0.022982555 0.0025840091 -0.01473514
       vertex 0.024086232 0.0024341361 -0.014803432
       vertex 0.025209343 0.0021012485 -0.014680433
    endloop
  endfacet
  facet normal -0.28538737 -0.047498693 -0.95723452
    outer loop
       vertex 0.018999188 0.0017785093 -0.01350758
       vertex 0.021389655 0.0030121453 -0.014281482
       vertex 0.022982555 0.0025840091 -0.01473514
    endloop
  endfacet
  facet normal -0.11481682 -0.61776232 -0.77793754
    outer loop
       vertex 0.022982555 0.0025840091 -0.01473514
       vertex 0.025209343 0.0021012485 -0.014680433
       vertex 0.018999188 0.0017785093 -0.01350758
    endloop
  endfacet
  facet normal 0.42384614 0.75248064 0.50411044
    outer loop
       vertex 0.026624769 0.0052924877 -0.0068865903
       vertex 0.026986071 0.0051861591 -0.0070316497
       vertex 0.027093734 0.0054932897 -0.0075806219
    endloop
  endfacet
  facet normal -0.84246954 0.53868126 -0.008220335
    outer loop
       vertex 0.019307133 0.0054001202 -0.010403527
       vertex 0.019198926 0.005255548 -0.0087876301
       vertex 0.019766893 0.0061434278 -0.0088133028
    endloop
  endfacet
  facet normal -0.8579073 0.51374377 0.0078993383
    outer loop
       vertex 0.019766893 0.0061434278 -0.0088133028
       vertex 0.019856912 0.0063266684 -0.010954079
       vertex 0.019307133 0.0054001202 -0.010403527
    endloop
  endfacet
  facet normal 0.10576296 0.87322845 0.47569556
    outer loop
       vertex 0.02359967 0.0062893964 -0.0066341738
       vertex 0.024890358 0.006166761 -0.0066960162
       vertex 0.025357513 0.0069481208 -0.0082342131
    endloop
  endfacet
  facet normal 0.062475394 0.89686504 0.43786976
    outer loop
       vertex 0.025357513 0.0069481208 -0.0082342131
       vertex 0.02269267 0.0068771751 -0.007708678
       vertex 0.02359967 0.0062893964 -0.0066341738
    endloop
  endfacet
  facet normal 0.66522269 0.58839101 0.45964639
    outer loop
       vertex 0.026986071 0.0051861591 -0.0070316497
       vertex 0.027329449 0.0050720978 -0.0073825943
       vertex 0.027093734 0.0054932897 -0.0075806219
    endloop
  endfacet
  facet normal -0.086165966 -0.18878641 -0.9782306
    outer loop
       vertex 0.024086232 0.0024341361 -0.014803432
       vertex 0.022982555 0.0025840091 -0.01473514
       vertex 0.023272617 0.0033728598 -0.014912928
    endloop
  endfacet
  facet normal 0.29923932 0.92057698 0.25098576
    outer loop
       vertex 0.022632332 0.00662365 -0.0067068486
       vertex 0.02359967 0.0062893964 -0.0066341738
       vertex 0.02269267 0.0068771751 -0.007708678
    endloop
  endfacet
  facet normal -0.4298174 0.89943333 0.079225581
    outer loop
       vertex 0.019766893 0.0061434278 -0.0088133028
       vertex 0.020289336 0.0063455757 -0.0082738718
       vertex 0.021235796 0.0069140095 -0.0095924276
    endloop
  endfacet
  facet normal -0.43936005 0.89642019 0.058254478
    outer loop
       vertex 0.021235796 0.0069140095 -0.0095924276
       vertex 0.019856912 0.0063266684 -0.010954079
       vertex 0.019766893 0.0061434278 -0.0088133028
    endloop
  endfacet
  facet normal -0.89045003 0.40475405 -0.20802141
    outer loop
       vertex 0.019232869 0.0045252623 -0.011787875
       vertex 0.019307133 0.0054001202 -0.010403527
       vertex 0.019856912 0.0063266684 -0.010954079
    endloop
  endfacet
  facet normal -0.8667324 0.42275826 -0.26467036
    outer loop
       vertex 0.019856912 0.0063266684 -0.010954079
       vertex 0.019593244 0.0048069925 -0.012518008
       vertex 0.019232869 0.0045252623 -0.011787875
    endloop
  endfacet
  facet normal -0.21465114 0.94276892 0.25516986
    outer loop
       vertex 0.021043641 0.0064638878 -0.0074530006
       vertex 0.021616631 0.0062012816 -0.0060007525
       vertex 0.022632332 0.00662365 -0.0067068486
    endloop
  endfacet
  facet normal -0.20315219 0.95206473 0.22869617
    outer loop
       vertex 0.022632332 0.00662365 -0.0067068486
       vertex 0.02269267 0.0068771751 -0.007708678
       vertex 0.021043641 0.0064638878 -0.0074530006
    endloop
  endfacet
endsolid ExportedfromBlender-2.79(sub0)
