solid Exported from Blender-3.5.1
facet normal -0.107106 0.914116 0.391050
outer loop
vertex 0.000958 0.002943 0.001495
vertex 0.000311 0.003028 0.001119
vertex 0.000331 0.002633 0.002049
endloop
endfacet
facet normal 0.356281 0.583089 0.730117
outer loop
vertex 0.000331 0.002633 0.002049
vertex 0.001439 0.002461 0.001645
vertex 0.000958 0.002943 0.001495
endloop
endfacet
facet normal -0.279371 0.881401 0.380899
outer loop
vertex -0.000329 0.002461 0.001960
vertex 0.000331 0.002633 0.002049
vertex 0.000311 0.003028 0.001119
endloop
endfacet
facet normal 0.770576 0.637047 -0.019602
outer loop
vertex 0.002156 0.002717 0.000182
vertex 0.002449 0.002381 0.000774
vertex 0.002496 0.002293 -0.000237
endloop
endfacet
facet normal 0.562978 0.825212 -0.045624
outer loop
vertex 0.002496 0.002293 -0.000237
vertex 0.002449 0.002381 0.000774
vertex 0.003186 0.001849 0.000240
endloop
endfacet
facet normal 0.468271 0.847589 0.249628
outer loop
vertex 0.002449 0.002381 0.000774
vertex 0.002156 0.002717 0.000182
vertex 0.001554 0.002830 0.000929
endloop
endfacet
facet normal 0.253042 0.965715 0.058003
outer loop
vertex 0.002156 0.002717 0.000182
vertex 0.001100 0.002993 0.000200
vertex 0.001554 0.002830 0.000929
endloop
endfacet
facet normal 0.460021 0.757393 0.463397
outer loop
vertex 0.002449 0.002381 0.000774
vertex 0.001554 0.002830 0.000929
vertex 0.001439 0.002461 0.001645
endloop
endfacet
facet normal 0.527897 0.645079 0.552446
outer loop
vertex 0.002165 0.001928 0.001573
vertex 0.002449 0.002381 0.000774
vertex 0.001439 0.002461 0.001645
endloop
endfacet
facet normal 0.558544 0.697802 0.448443
outer loop
vertex 0.000958 0.002943 0.001495
vertex 0.001439 0.002461 0.001645
vertex 0.001554 0.002830 0.000929
endloop
endfacet
facet normal 0.041206 0.999145 -0.003260
outer loop
vertex 0.000311 0.003028 0.001119
vertex 0.001100 0.002993 0.000200
vertex 0.000112 0.003033 0.000193
endloop
endfacet
facet normal 0.151828 0.987712 -0.037058
outer loop
vertex 0.000958 0.002943 0.001495
vertex 0.001554 0.002830 0.000929
vertex 0.000311 0.003028 0.001119
endloop
endfacet
facet normal 0.172964 0.978683 0.110741
outer loop
vertex 0.001554 0.002830 0.000929
vertex 0.001100 0.002993 0.000200
vertex 0.000311 0.003028 0.001119
endloop
endfacet
facet normal 0.320010 0.316269 0.893066
outer loop
vertex 0.000826 0.001844 0.002083
vertex 0.002165 0.001928 0.001573
vertex 0.001439 0.002461 0.001645
endloop
endfacet
facet normal 0.302046 0.408729 0.861225
outer loop
vertex 0.001601 0.001424 0.002011
vertex 0.002165 0.001928 0.001573
vertex 0.000826 0.001844 0.002083
endloop
endfacet
facet normal 0.678016 0.605434 -0.416826
outer loop
vertex 0.002762 0.001859 -0.000434
vertex 0.002496 0.002293 -0.000237
vertex 0.003186 0.001849 0.000240
endloop
endfacet
facet normal 0.430165 0.785339 -0.445198
outer loop
vertex 0.001731 0.002651 -0.000345
vertex 0.002156 0.002717 0.000182
vertex 0.002496 0.002293 -0.000237
endloop
endfacet
facet normal 0.602193 0.725062 0.334141
outer loop
vertex 0.002879 0.001498 0.001555
vertex 0.003821 0.001299 0.000288
vertex 0.003186 0.001849 0.000240
endloop
endfacet
facet normal 0.301817 0.950369 0.075539
outer loop
vertex 0.003826 0.001230 0.001139
vertex 0.003821 0.001299 0.000288
vertex 0.002879 0.001498 0.001555
endloop
endfacet
facet normal 0.458644 0.643035 0.613312
outer loop
vertex 0.004069 0.000954 0.001247
vertex 0.003826 0.001230 0.001139
vertex 0.003549 0.000918 0.001673
endloop
endfacet
facet normal 0.452440 0.647819 0.612886
outer loop
vertex 0.003549 0.000918 0.001673
vertex 0.003826 0.001230 0.001139
vertex 0.002879 0.001498 0.001555
endloop
endfacet
facet normal 0.235682 0.922665 -0.305194
outer loop
vertex 0.002156 0.002717 0.000182
vertex 0.001731 0.002651 -0.000345
vertex 0.001100 0.002993 0.000200
endloop
endfacet
facet normal 0.714677 0.468931 0.518981
outer loop
vertex 0.002165 0.001928 0.001573
vertex 0.003186 0.001849 0.000240
vertex 0.002449 0.002381 0.000774
endloop
endfacet
facet normal 0.494108 0.804301 0.330086
outer loop
vertex 0.002165 0.001928 0.001573
vertex 0.002879 0.001498 0.001555
vertex 0.003186 0.001849 0.000240
endloop
endfacet
facet normal 0.405971 0.608211 0.682104
outer loop
vertex 0.002725 0.001054 0.002042
vertex 0.003549 0.000918 0.001673
vertex 0.002879 0.001498 0.001555
endloop
endfacet
facet normal 0.056126 0.874064 -0.482557
outer loop
vertex 0.001731 0.002651 -0.000345
vertex 0.000519 0.002691 -0.000414
vertex 0.001100 0.002993 0.000200
endloop
endfacet
facet normal 0.039900 0.881349 -0.470778
outer loop
vertex 0.000112 0.003033 0.000193
vertex 0.001100 0.002993 0.000200
vertex 0.000519 0.002691 -0.000414
endloop
endfacet
facet normal 0.281380 0.429255 0.858234
outer loop
vertex 0.001601 0.001424 0.002011
vertex 0.002879 0.001498 0.001555
vertex 0.002165 0.001928 0.001573
endloop
endfacet
facet normal 0.204601 0.697727 0.686524
outer loop
vertex 0.001601 0.001424 0.002011
vertex 0.002071 0.001188 0.002111
vertex 0.002879 0.001498 0.001555
endloop
endfacet
facet normal 0.213309 0.687930 0.693723
outer loop
vertex 0.002071 0.001188 0.002111
vertex 0.002725 0.001054 0.002042
vertex 0.002879 0.001498 0.001555
endloop
endfacet
facet normal -0.464084 0.879579 0.104724
outer loop
vertex -0.000354 0.002740 0.000593
vertex 0.000311 0.003028 0.001119
vertex 0.000112 0.003033 0.000193
endloop
endfacet
facet normal 0.366284 0.268755 0.890846
outer loop
vertex 0.001439 0.002461 0.001645
vertex 0.000331 0.002633 0.002049
vertex 0.000826 0.001844 0.002083
endloop
endfacet
facet normal -0.378410 0.925195 -0.028636
outer loop
vertex 0.000311 0.003028 0.001119
vertex -0.000354 0.002740 0.000593
vertex -0.000425 0.002733 0.001284
endloop
endfacet
facet normal -0.266106 0.881160 0.390826
outer loop
vertex 0.000311 0.003028 0.001119
vertex -0.000425 0.002733 0.001284
vertex -0.000329 0.002461 0.001960
endloop
endfacet
facet normal -0.943525 0.239407 0.229008
outer loop
vertex -0.000329 0.002461 0.001960
vertex -0.000425 0.002733 0.001284
vertex -0.000585 0.002137 0.001247
endloop
endfacet
facet normal 0.212214 0.175182 0.961393
outer loop
vertex -0.000085 0.001782 0.002296
vertex 0.000826 0.001844 0.002083
vertex 0.000331 0.002633 0.002049
endloop
endfacet
facet normal -0.216218 0.368325 0.904205
outer loop
vertex -0.000329 0.002461 0.001960
vertex -0.000085 0.001782 0.002296
vertex 0.000331 0.002633 0.002049
endloop
endfacet
facet normal 0.666295 0.743513 0.056924
outer loop
vertex 0.004187 0.000932 0.000801
vertex 0.003821 0.001299 0.000288
vertex 0.003826 0.001230 0.001139
endloop
endfacet
facet normal 0.493957 0.489397 -0.718677
outer loop
vertex 0.002762 0.001859 -0.000434
vertex 0.002465 0.001374 -0.000969
vertex 0.002234 0.001809 -0.000831
endloop
endfacet
facet normal 0.753949 0.462204 -0.466827
outer loop
vertex 0.003186 0.001849 0.000240
vertex 0.003027 0.001135 -0.000724
vertex 0.002762 0.001859 -0.000434
endloop
endfacet
facet normal 0.513433 0.473872 -0.715425
outer loop
vertex 0.002762 0.001859 -0.000434
vertex 0.003027 0.001135 -0.000724
vertex 0.002465 0.001374 -0.000969
endloop
endfacet
facet normal 0.710878 0.685949 0.155323
outer loop
vertex 0.004069 0.000954 0.001247
vertex 0.004187 0.000932 0.000801
vertex 0.003826 0.001230 0.001139
endloop
endfacet
facet normal 0.946794 0.213877 0.240496
outer loop
vertex 0.004069 0.000954 0.001247
vertex 0.004171 0.000555 0.001200
vertex 0.004187 0.000932 0.000801
endloop
endfacet
facet normal 0.369113 0.567874 -0.735714
outer loop
vertex 0.001731 0.002651 -0.000345
vertex 0.002496 0.002293 -0.000237
vertex 0.001472 0.002066 -0.000926
endloop
endfacet
facet normal 0.451966 0.583583 -0.674654
outer loop
vertex 0.002234 0.001809 -0.000831
vertex 0.002496 0.002293 -0.000237
vertex 0.002762 0.001859 -0.000434
endloop
endfacet
facet normal 0.629322 0.070641 0.773927
outer loop
vertex 0.004069 0.000954 0.001247
vertex 0.003549 0.000918 0.001673
vertex 0.004171 0.000555 0.001200
endloop
endfacet
facet normal 0.638246 0.099627 0.763358
outer loop
vertex 0.003549 0.000918 0.001673
vertex 0.003680 -0.000015 0.001685
vertex 0.004171 0.000555 0.001200
endloop
endfacet
facet normal 0.240000 0.046019 0.969682
outer loop
vertex 0.003680 -0.000015 0.001685
vertex 0.003549 0.000918 0.001673
vertex 0.002757 0.000496 0.001889
endloop
endfacet
facet normal 0.063911 0.689094 -0.721848
outer loop
vertex 0.001472 0.002066 -0.000926
vertex 0.000519 0.002691 -0.000414
vertex 0.001731 0.002651 -0.000345
endloop
endfacet
facet normal 0.367019 -0.226610 0.902189
outer loop
vertex 0.003549 0.000918 0.001673
vertex 0.002725 0.001054 0.002042
vertex 0.002757 0.000496 0.001889
endloop
endfacet
facet normal 0.129353 -0.255319 0.958165
outer loop
vertex 0.002757 0.000496 0.001889
vertex 0.002725 0.001054 0.002042
vertex 0.002335 0.000868 0.002045
endloop
endfacet
facet normal -0.230771 0.773009 -0.590933
outer loop
vertex 0.000112 0.003033 0.000193
vertex 0.000519 0.002691 -0.000414
vertex -0.000262 0.002705 -0.000091
endloop
endfacet
facet normal -0.601712 0.789449 -0.121295
outer loop
vertex -0.000262 0.002705 -0.000091
vertex -0.000354 0.002740 0.000593
vertex 0.000112 0.003033 0.000193
endloop
endfacet
facet normal -0.030008 -0.228073 0.973181
outer loop
vertex 0.001601 0.001424 0.002011
vertex 0.000781 0.001034 0.001894
vertex 0.001642 0.000636 0.001828
endloop
endfacet
facet normal -0.031509 -0.225110 0.973824
outer loop
vertex 0.000826 0.001844 0.002083
vertex 0.000781 0.001034 0.001894
vertex 0.001601 0.001424 0.002011
endloop
endfacet
facet normal -0.311028 -0.231042 0.921890
outer loop
vertex 0.002071 0.001188 0.002111
vertex 0.001601 0.001424 0.002011
vertex 0.001642 0.000636 0.001828
endloop
endfacet
facet normal 0.074989 -0.140576 0.987226
outer loop
vertex 0.002335 0.000868 0.002045
vertex 0.002725 0.001054 0.002042
vertex 0.002071 0.001188 0.002111
endloop
endfacet
facet normal -0.177479 -0.336281 0.924887
outer loop
vertex 0.001642 0.000636 0.001828
vertex 0.002335 0.000868 0.002045
vertex 0.002071 0.001188 0.002111
endloop
endfacet
facet normal -0.959769 0.264001 -0.095642
outer loop
vertex -0.000354 0.002740 0.000593
vertex -0.000585 0.002137 0.001247
vertex -0.000425 0.002733 0.001284
endloop
endfacet
facet normal 0.235389 -0.209644 0.949021
outer loop
vertex 0.000345 0.001323 0.002087
vertex 0.000826 0.001844 0.002083
vertex -0.000085 0.001782 0.002296
endloop
endfacet
facet normal -0.927423 0.325610 0.184023
outer loop
vertex -0.000329 0.002461 0.001960
vertex -0.000585 0.002137 0.001247
vertex -0.000698 0.001407 0.001966
endloop
endfacet
facet normal -0.555588 0.198568 0.807399
outer loop
vertex -0.000329 0.002461 0.001960
vertex -0.000698 0.001407 0.001966
vertex -0.000085 0.001782 0.002296
endloop
endfacet
facet normal 0.682706 0.412529 -0.603102
outer loop
vertex 0.003595 0.000399 -0.000585
vertex 0.003027 0.001135 -0.000724
vertex 0.003821 0.001299 0.000288
endloop
endfacet
facet normal 0.858931 0.389038 -0.332996
outer loop
vertex 0.004187 0.000932 0.000801
vertex 0.004204 0.000520 0.000364
vertex 0.003821 0.001299 0.000288
endloop
endfacet
facet normal 0.775413 0.327743 -0.539740
outer loop
vertex 0.003821 0.001299 0.000288
vertex 0.004204 0.000520 0.000364
vertex 0.003595 0.000399 -0.000585
endloop
endfacet
facet normal 0.999198 -0.000037 0.040033
outer loop
vertex 0.004187 0.000932 0.000801
vertex 0.004171 0.000555 0.001200
vertex 0.004204 0.000520 0.000364
endloop
endfacet
facet normal 0.983968 0.175436 0.032072
outer loop
vertex 0.004204 0.000520 0.000364
vertex 0.004171 0.000555 0.001200
vertex 0.004267 0.000063 0.000945
endloop
endfacet
facet normal 0.781695 -0.160409 0.602679
outer loop
vertex 0.004267 0.000063 0.000945
vertex 0.004171 0.000555 0.001200
vertex 0.003680 -0.000015 0.001685
endloop
endfacet
facet normal 0.309112 0.666006 -0.678886
outer loop
vertex 0.002496 0.002293 -0.000237
vertex 0.002234 0.001809 -0.000831
vertex 0.001472 0.002066 -0.000926
endloop
endfacet
facet normal -0.004451 0.629812 -0.776735
outer loop
vertex 0.000325 0.002145 -0.000856
vertex 0.000519 0.002691 -0.000414
vertex 0.001472 0.002066 -0.000926
endloop
endfacet
facet normal -0.108709 -0.486598 0.866836
outer loop
vertex 0.002335 0.000868 0.002045
vertex 0.001642 0.000636 0.001828
vertex 0.002757 0.000496 0.001889
endloop
endfacet
facet normal -0.332521 0.661727 -0.671972
outer loop
vertex 0.000519 0.002691 -0.000414
vertex 0.000325 0.002145 -0.000856
vertex -0.000330 0.002330 -0.000349
endloop
endfacet
facet normal -0.303365 0.577580 -0.757873
outer loop
vertex -0.000262 0.002705 -0.000091
vertex 0.000519 0.002691 -0.000414
vertex -0.000330 0.002330 -0.000349
endloop
endfacet
facet normal -0.933740 0.301834 -0.192420
outer loop
vertex -0.000262 0.002705 -0.000091
vertex -0.000330 0.002330 -0.000349
vertex -0.000544 0.002128 0.000374
endloop
endfacet
facet normal -0.929482 0.340483 -0.141896
outer loop
vertex -0.000262 0.002705 -0.000091
vertex -0.000544 0.002128 0.000374
vertex -0.000354 0.002740 0.000593
endloop
endfacet
facet normal -0.948755 0.312489 -0.047056
outer loop
vertex -0.000354 0.002740 0.000593
vertex -0.000544 0.002128 0.000374
vertex -0.000585 0.002137 0.001247
endloop
endfacet
facet normal 0.299062 -0.175207 0.938011
outer loop
vertex 0.000139 0.000757 0.002048
vertex 0.000781 0.001034 0.001894
vertex 0.000345 0.001323 0.002087
endloop
endfacet
facet normal 0.260431 -0.232856 0.936992
outer loop
vertex 0.000781 0.001034 0.001894
vertex 0.000826 0.001844 0.002083
vertex 0.000345 0.001323 0.002087
endloop
endfacet
facet normal -0.974903 0.217547 -0.047297
outer loop
vertex -0.000585 0.002137 0.001247
vertex -0.000544 0.002128 0.000374
vertex -0.000712 0.001563 0.001231
endloop
endfacet
facet normal -0.974677 0.214386 0.063596
outer loop
vertex -0.000698 0.001407 0.001966
vertex -0.000585 0.002137 0.001247
vertex -0.000712 0.001563 0.001231
endloop
endfacet
facet normal 0.278158 -0.168117 0.945709
outer loop
vertex 0.000139 0.000757 0.002048
vertex 0.000345 0.001323 0.002087
vertex -0.000085 0.001782 0.002296
endloop
endfacet
facet normal 0.246742 -0.176699 0.952836
outer loop
vertex 0.000139 0.000757 0.002048
vertex -0.000085 0.001782 0.002296
vertex -0.000401 0.000480 0.002136
endloop
endfacet
facet normal 0.570693 0.611986 -0.547525
outer loop
vertex 0.003821 0.001299 0.000288
vertex 0.003027 0.001135 -0.000724
vertex 0.003186 0.001849 0.000240
endloop
endfacet
facet normal 0.840277 -0.151084 -0.520680
outer loop
vertex 0.004204 0.000520 0.000364
vertex 0.003961 -0.000203 0.000181
vertex 0.003595 0.000399 -0.000585
endloop
endfacet
facet normal 0.776538 -0.623056 -0.093756
outer loop
vertex 0.003945 -0.000354 0.001050
vertex 0.003961 -0.000203 0.000181
vertex 0.004267 0.000063 0.000945
endloop
endfacet
facet normal 0.927274 -0.239277 -0.287940
outer loop
vertex 0.004267 0.000063 0.000945
vertex 0.003961 -0.000203 0.000181
vertex 0.004204 0.000520 0.000364
endloop
endfacet
facet normal 0.729547 -0.428404 0.533134
outer loop
vertex 0.003945 -0.000354 0.001050
vertex 0.004267 0.000063 0.000945
vertex 0.003680 -0.000015 0.001685
endloop
endfacet
facet normal 0.667547 -0.504208 0.547864
outer loop
vertex 0.003945 -0.000354 0.001050
vertex 0.003680 -0.000015 0.001685
vertex 0.003381 -0.000874 0.001258
endloop
endfacet
facet normal 0.020200 0.812833 -0.582147
outer loop
vertex 0.001472 0.002066 -0.000926
vertex 0.000902 0.001705 -0.001451
vertex 0.000325 0.002145 -0.000856
endloop
endfacet
facet normal 0.235632 0.037547 0.971117
outer loop
vertex 0.003680 -0.000015 0.001685
vertex 0.002757 0.000496 0.001889
vertex 0.002829 -0.000225 0.001899
endloop
endfacet
facet normal 0.204393 0.158574 0.965960
outer loop
vertex 0.003680 -0.000015 0.001685
vertex 0.002829 -0.000225 0.001899
vertex 0.003208 -0.000688 0.001895
endloop
endfacet
facet normal 0.813353 -0.459891 0.356309
outer loop
vertex 0.003680 -0.000015 0.001685
vertex 0.003208 -0.000688 0.001895
vertex 0.003381 -0.000874 0.001258
endloop
endfacet
facet normal -0.073137 -0.150701 0.985870
outer loop
vertex 0.002757 0.000496 0.001889
vertex 0.001642 0.000636 0.001828
vertex 0.002111 -0.000260 0.001726
endloop
endfacet
facet normal -0.401396 0.560877 -0.724084
outer loop
vertex 0.000325 0.002145 -0.000856
vertex -0.000495 0.001829 -0.000646
vertex -0.000330 0.002330 -0.000349
endloop
endfacet
facet normal -0.415904 0.674315 -0.610183
outer loop
vertex 0.000325 0.002145 -0.000856
vertex 0.000073 0.001650 -0.001232
vertex -0.000495 0.001829 -0.000646
endloop
endfacet
facet normal -0.029279 -0.416511 0.908659
outer loop
vertex 0.001642 0.000636 0.001828
vertex 0.000656 0.000211 0.001601
vertex 0.001319 -0.000195 0.001436
endloop
endfacet
facet normal -0.349254 -0.284573 0.892771
outer loop
vertex 0.002111 -0.000260 0.001726
vertex 0.001642 0.000636 0.001828
vertex 0.001319 -0.000195 0.001436
endloop
endfacet
facet normal -0.234367 -0.009940 0.972098
outer loop
vertex 0.002829 -0.000225 0.001899
vertex 0.002757 0.000496 0.001889
vertex 0.002111 -0.000260 0.001726
endloop
endfacet
facet normal -0.703298 0.710830 -0.009615
outer loop
vertex -0.000330 0.002330 -0.000349
vertex -0.000981 0.001694 0.000175
vertex -0.000544 0.002128 0.000374
endloop
endfacet
facet normal -0.785073 0.486331 -0.383593
outer loop
vertex -0.000330 0.002330 -0.000349
vertex -0.000495 0.001829 -0.000646
vertex -0.000981 0.001694 0.000175
endloop
endfacet
facet normal -0.076832 -0.324235 0.942851
outer loop
vertex 0.000781 0.001034 0.001894
vertex 0.000656 0.000211 0.001601
vertex 0.001642 0.000636 0.001828
endloop
endfacet
facet normal -0.746968 0.612866 0.257749
outer loop
vertex -0.000544 0.002128 0.000374
vertex -0.000913 0.001450 0.000916
vertex -0.000712 0.001563 0.001231
endloop
endfacet
facet normal -0.738240 0.618063 0.270185
outer loop
vertex -0.000544 0.002128 0.000374
vertex -0.000981 0.001694 0.000175
vertex -0.000913 0.001450 0.000916
endloop
endfacet
facet normal 0.360539 -0.361072 0.860022
outer loop
vertex 0.000781 0.001034 0.001894
vertex 0.000139 0.000757 0.002048
vertex 0.000656 0.000211 0.001601
endloop
endfacet
facet normal -0.750674 0.643351 0.150292
outer loop
vertex -0.000698 0.001407 0.001966
vertex -0.000712 0.001563 0.001231
vertex -0.001256 0.000819 0.001696
endloop
endfacet
facet normal -0.477598 0.008331 0.878539
outer loop
vertex -0.000698 0.001407 0.001966
vertex -0.000401 0.000480 0.002136
vertex -0.000085 0.001782 0.002296
endloop
endfacet
facet normal 0.322543 0.578434 -0.749253
outer loop
vertex 0.001472 0.002066 -0.000926
vertex 0.001618 0.001202 -0.001530
vertex 0.000902 0.001705 -0.001451
endloop
endfacet
facet normal 0.290682 0.580794 -0.760383
outer loop
vertex 0.001472 0.002066 -0.000926
vertex 0.002234 0.001809 -0.000831
vertex 0.001618 0.001202 -0.001530
endloop
endfacet
facet normal 0.419987 0.468822 -0.777056
outer loop
vertex 0.002234 0.001809 -0.000831
vertex 0.002465 0.001374 -0.000969
vertex 0.001618 0.001202 -0.001530
endloop
endfacet
facet normal 0.475540 0.325871 -0.817111
outer loop
vertex 0.001618 0.001202 -0.001530
vertex 0.002465 0.001374 -0.000969
vertex 0.002122 0.000590 -0.001481
endloop
endfacet
facet normal 0.489080 0.317001 -0.812596
outer loop
vertex 0.002465 0.001374 -0.000969
vertex 0.003027 0.001135 -0.000724
vertex 0.002122 0.000590 -0.001481
endloop
endfacet
facet normal 0.624223 0.349256 -0.698832
outer loop
vertex 0.003595 0.000399 -0.000585
vertex 0.002822 0.000384 -0.001282
vertex 0.003027 0.001135 -0.000724
endloop
endfacet
facet normal -0.232388 0.660181 -0.714252
outer loop
vertex 0.000325 0.002145 -0.000856
vertex 0.000902 0.001705 -0.001451
vertex 0.000073 0.001650 -0.001232
endloop
endfacet
facet normal 0.008207 -0.002368 0.999963
outer loop
vertex 0.003208 -0.000688 0.001895
vertex 0.002829 -0.000225 0.001899
vertex 0.002653 -0.000754 0.001899
endloop
endfacet
facet normal -0.237673 0.079870 0.968056
outer loop
vertex 0.002111 -0.000260 0.001726
vertex 0.002653 -0.000754 0.001899
vertex 0.002829 -0.000225 0.001899
endloop
endfacet
facet normal -0.439253 0.891321 -0.112265
outer loop
vertex -0.000981 0.001694 0.000175
vertex -0.000495 0.001829 -0.000646
vertex -0.001300 0.001482 -0.000251
endloop
endfacet
facet normal 0.336469 -0.383809 0.859930
outer loop
vertex 0.000124 0.000240 0.001823
vertex 0.000656 0.000211 0.001601
vertex 0.000139 0.000757 0.002048
endloop
endfacet
facet normal -0.523224 0.851680 -0.029637
outer loop
vertex -0.000981 0.001694 0.000175
vertex -0.001300 0.001482 -0.000251
vertex -0.002002 0.001085 0.000720
endloop
endfacet
facet normal 0.337764 -0.383655 0.859491
outer loop
vertex 0.000124 0.000240 0.001823
vertex 0.000139 0.000757 0.002048
vertex -0.000401 0.000480 0.002136
endloop
endfacet
facet normal -0.308253 0.867258 0.390951
outer loop
vertex -0.002002 0.001085 0.000720
vertex -0.001624 0.000963 0.001289
vertex -0.000981 0.001694 0.000175
endloop
endfacet
facet normal -0.416895 0.851550 0.317901
outer loop
vertex -0.000981 0.001694 0.000175
vertex -0.001624 0.000963 0.001289
vertex -0.000913 0.001450 0.000916
endloop
endfacet
facet normal -0.716291 0.662055 0.220481
outer loop
vertex -0.000712 0.001563 0.001231
vertex -0.000913 0.001450 0.000916
vertex -0.001256 0.000819 0.001696
endloop
endfacet
facet normal -0.272646 0.803201 0.529652
outer loop
vertex -0.000913 0.001450 0.000916
vertex -0.001624 0.000963 0.001289
vertex -0.001256 0.000819 0.001696
endloop
endfacet
facet normal 0.667963 0.067307 -0.741145
outer loop
vertex 0.003595 0.000399 -0.000585
vertex 0.002960 -0.000355 -0.001225
vertex 0.002822 0.000384 -0.001282
endloop
endfacet
facet normal 0.757610 -0.088397 -0.646694
outer loop
vertex 0.003595 0.000399 -0.000585
vertex 0.003503 -0.000573 -0.000559
vertex 0.002960 -0.000355 -0.001225
endloop
endfacet
facet normal 0.867107 -0.094609 -0.489054
outer loop
vertex 0.003595 0.000399 -0.000585
vertex 0.003961 -0.000203 0.000181
vertex 0.003503 -0.000573 -0.000559
endloop
endfacet
facet normal 0.141275 0.348046 -0.926771
outer loop
vertex 0.000902 0.001705 -0.001451
vertex 0.001618 0.001202 -0.001530
vertex 0.000507 0.001051 -0.001756
endloop
endfacet
facet normal 0.368395 0.487887 -0.791361
outer loop
vertex 0.002822 0.000384 -0.001282
vertex 0.002122 0.000590 -0.001481
vertex 0.003027 0.001135 -0.000724
endloop
endfacet
facet normal 0.789425 -0.607102 -0.090748
outer loop
vertex 0.003961 -0.000203 0.000181
vertex 0.003945 -0.000354 0.001050
vertex 0.003511 -0.000798 0.000244
endloop
endfacet
facet normal -0.174476 0.574240 -0.799879
outer loop
vertex 0.000073 0.001650 -0.001232
vertex 0.000507 0.001051 -0.001756
vertex -0.000162 0.001259 -0.001461
endloop
endfacet
facet normal -0.249185 0.529594 -0.810825
outer loop
vertex 0.000073 0.001650 -0.001232
vertex 0.000902 0.001705 -0.001451
vertex 0.000507 0.001051 -0.001756
endloop
endfacet
facet normal 0.768997 -0.525801 0.363562
outer loop
vertex 0.002965 -0.001234 0.001618
vertex 0.003381 -0.000874 0.001258
vertex 0.003208 -0.000688 0.001895
endloop
endfacet
facet normal 0.063516 -0.473000 0.878770
outer loop
vertex 0.002965 -0.001234 0.001618
vertex 0.003208 -0.000688 0.001895
vertex 0.002653 -0.000754 0.001899
endloop
endfacet
facet normal -0.528466 0.643018 -0.554303
outer loop
vertex -0.000162 0.001259 -0.001461
vertex -0.001011 0.001166 -0.000760
vertex 0.000073 0.001650 -0.001232
endloop
endfacet
facet normal -0.525703 0.523596 -0.670435
outer loop
vertex -0.001011 0.001166 -0.000760
vertex -0.000495 0.001829 -0.000646
vertex 0.000073 0.001650 -0.001232
endloop
endfacet
facet normal -0.466068 -0.208554 0.859817
outer loop
vertex 0.002653 -0.000754 0.001899
vertex 0.002111 -0.000260 0.001726
vertex 0.002182 -0.001226 0.001530
endloop
endfacet
facet normal -0.303151 -0.210614 0.929377
outer loop
vertex 0.002182 -0.001226 0.001530
vertex 0.002111 -0.000260 0.001726
vertex 0.001417 -0.000870 0.001361
endloop
endfacet
facet normal -0.099697 -0.550107 0.829122
outer loop
vertex 0.002965 -0.001234 0.001618
vertex 0.002653 -0.000754 0.001899
vertex 0.002182 -0.001226 0.001530
endloop
endfacet
facet normal -0.546312 0.535116 -0.644356
outer loop
vertex -0.001300 0.001482 -0.000251
vertex -0.000495 0.001829 -0.000646
vertex -0.001011 0.001166 -0.000760
endloop
endfacet
facet normal 0.324213 -0.439343 0.837773
outer loop
vertex 0.000656 0.000211 0.001601
vertex 0.000124 0.000240 0.001823
vertex -0.000070 -0.000067 0.001737
endloop
endfacet
facet normal -0.490984 0.871167 0.001622
outer loop
vertex -0.001300 0.001482 -0.000251
vertex -0.001804 0.001198 0.000001
vertex -0.002002 0.001085 0.000720
endloop
endfacet
facet normal 0.308473 -0.432104 0.847426
outer loop
vertex 0.000124 0.000240 0.001823
vertex -0.000401 0.000480 0.002136
vertex -0.000070 -0.000067 0.001737
endloop
endfacet
facet normal 0.288638 -0.444520 0.847992
outer loop
vertex -0.000799 -0.000021 0.002009
vertex -0.000070 -0.000067 0.001737
vertex -0.000401 0.000480 0.002136
endloop
endfacet
facet normal -0.540881 0.510712 0.668297
outer loop
vertex -0.001912 0.000086 0.001726
vertex -0.001256 0.000819 0.001696
vertex -0.001624 0.000963 0.001289
endloop
endfacet
facet normal -0.537081 0.021872 0.843247
outer loop
vertex -0.001164 -0.000376 0.001786
vertex -0.000799 -0.000021 0.002009
vertex -0.001256 0.000819 0.001696
endloop
endfacet
facet normal -0.421122 0.106342 0.900748
outer loop
vertex -0.000401 0.000480 0.002136
vertex -0.001256 0.000819 0.001696
vertex -0.000799 -0.000021 0.002009
endloop
endfacet
facet normal -0.451279 0.019257 0.892175
outer loop
vertex -0.001256 0.000819 0.001696
vertex -0.000401 0.000480 0.002136
vertex -0.000698 0.001407 0.001966
endloop
endfacet
facet normal -0.387970 0.813905 0.432479
outer loop
vertex -0.001624 0.000963 0.001289
vertex -0.002002 0.001085 0.000720
vertex -0.002358 0.000472 0.001555
endloop
endfacet
facet normal 0.033583 0.436530 0.899063
outer loop
vertex -0.001912 0.000086 0.001726
vertex -0.001624 0.000963 0.001289
vertex -0.002358 0.000472 0.001555
endloop
endfacet
facet normal 0.510784 0.028822 -0.859226
outer loop
vertex 0.002320 -0.000074 -0.001596
vertex 0.002822 0.000384 -0.001282
vertex 0.002960 -0.000355 -0.001225
endloop
endfacet
facet normal 0.158504 0.259767 -0.952574
outer loop
vertex 0.001618 0.001202 -0.001530
vertex 0.001268 0.000504 -0.001779
vertex 0.000507 0.001051 -0.001756
endloop
endfacet
facet normal 0.333338 0.256109 -0.907355
outer loop
vertex 0.002320 -0.000074 -0.001596
vertex 0.002122 0.000590 -0.001481
vertex 0.002822 0.000384 -0.001282
endloop
endfacet
facet normal 0.775563 -0.605765 -0.177625
outer loop
vertex 0.003511 -0.000798 0.000244
vertex 0.003503 -0.000573 -0.000559
vertex 0.003961 -0.000203 0.000181
endloop
endfacet
facet normal 0.684426 -0.728365 0.032333
outer loop
vertex 0.003945 -0.000354 0.001050
vertex 0.003381 -0.000874 0.001258
vertex 0.003511 -0.000798 0.000244
endloop
endfacet
facet normal 0.653530 -0.756900 -0.000577
outer loop
vertex 0.003381 -0.000874 0.001258
vertex 0.002965 -0.001234 0.001618
vertex 0.002562 -0.001581 0.000670
endloop
endfacet
facet normal -0.350044 -0.154052 0.923979
outer loop
vertex 0.001417 -0.000870 0.001361
vertex 0.002111 -0.000260 0.001726
vertex 0.001319 -0.000195 0.001436
endloop
endfacet
facet normal 0.024545 -0.341309 0.939631
outer loop
vertex 0.000656 0.000211 0.001601
vertex 0.000557 -0.000482 0.001352
vertex 0.001319 -0.000195 0.001436
endloop
endfacet
facet normal -0.064360 -0.120183 0.990663
outer loop
vertex 0.001417 -0.000870 0.001361
vertex 0.001319 -0.000195 0.001436
vertex 0.000557 -0.000482 0.001352
endloop
endfacet
facet normal 0.245665 -0.432235 0.867653
outer loop
vertex -0.000070 -0.000067 0.001737
vertex -0.000381 -0.000491 0.001613
vertex 0.000557 -0.000482 0.001352
endloop
endfacet
facet normal 0.302279 -0.360371 0.882474
outer loop
vertex 0.000557 -0.000482 0.001352
vertex 0.000656 0.000211 0.001601
vertex -0.000070 -0.000067 0.001737
endloop
endfacet
facet normal -0.594780 0.485282 -0.640888
outer loop
vertex -0.001804 0.001198 0.000001
vertex -0.001300 0.001482 -0.000251
vertex -0.001011 0.001166 -0.000760
endloop
endfacet
facet normal -0.896992 0.401876 -0.184123
outer loop
vertex -0.001804 0.001198 0.000001
vertex -0.002053 0.000768 0.000276
vertex -0.002002 0.001085 0.000720
endloop
endfacet
facet normal -0.692348 -0.059602 -0.719098
outer loop
vertex -0.001804 0.001198 0.000001
vertex -0.001011 0.001166 -0.000760
vertex -0.002053 0.000768 0.000276
endloop
endfacet
facet normal 0.286225 -0.454895 0.843294
outer loop
vertex -0.000799 -0.000021 0.002009
vertex -0.000381 -0.000491 0.001613
vertex -0.000070 -0.000067 0.001737
endloop
endfacet
facet normal -0.811435 0.515509 -0.275361
outer loop
vertex -0.002002 0.001085 0.000720
vertex -0.002053 0.000768 0.000276
vertex -0.002528 0.000466 0.001113
endloop
endfacet
facet normal -0.036193 0.072341 0.996723
outer loop
vertex -0.001256 0.000819 0.001696
vertex -0.001912 0.000086 0.001726
vertex -0.001164 -0.000376 0.001786
endloop
endfacet
facet normal -0.656469 0.713652 0.244436
outer loop
vertex -0.002358 0.000472 0.001555
vertex -0.002002 0.001085 0.000720
vertex -0.002528 0.000466 0.001113
endloop
endfacet
facet normal 0.590596 -0.489277 -0.641720
outer loop
vertex 0.003503 -0.000573 -0.000559
vertex 0.002905 -0.001030 -0.000760
vertex 0.002960 -0.000355 -0.001225
endloop
endfacet
facet normal 0.307702 0.178590 -0.934572
outer loop
vertex 0.002122 0.000590 -0.001481
vertex 0.001268 0.000504 -0.001779
vertex 0.001618 0.001202 -0.001530
endloop
endfacet
facet normal 0.638133 -0.739655 -0.213770
outer loop
vertex 0.003503 -0.000573 -0.000559
vertex 0.003511 -0.000798 0.000244
vertex 0.002905 -0.001030 -0.000760
endloop
endfacet
facet normal 0.592368 -0.786350 -0.175366
outer loop
vertex 0.003511 -0.000798 0.000244
vertex 0.002799 -0.001272 -0.000032
vertex 0.002905 -0.001030 -0.000760
endloop
endfacet
facet normal 0.685765 -0.722654 -0.086591
outer loop
vertex 0.002562 -0.001581 0.000670
vertex 0.002799 -0.001272 -0.000032
vertex 0.003381 -0.000874 0.001258
endloop
endfacet
facet normal 0.552747 -0.833315 0.007543
outer loop
vertex 0.003381 -0.000874 0.001258
vertex 0.002799 -0.001272 -0.000032
vertex 0.003511 -0.000798 0.000244
endloop
endfacet
facet normal 0.081034 0.153437 -0.984830
outer loop
vertex 0.001268 0.000504 -0.001779
vertex 0.000670 0.000079 -0.001894
vertex 0.000507 0.001051 -0.001756
endloop
endfacet
facet normal 0.086774 0.154306 -0.984205
outer loop
vertex 0.000670 0.000079 -0.001894
vertex 0.000110 0.000269 -0.001914
vertex 0.000507 0.001051 -0.001756
endloop
endfacet
facet normal 0.556377 -0.828244 0.066763
outer loop
vertex 0.002965 -0.001234 0.001618
vertex 0.002474 -0.001592 0.001274
vertex 0.002562 -0.001581 0.000670
endloop
endfacet
facet normal -0.331303 0.231741 -0.914622
outer loop
vertex 0.000507 0.001051 -0.001756
vertex -0.000498 0.000629 -0.001499
vertex -0.000162 0.001259 -0.001461
endloop
endfacet
facet normal -0.370524 0.360631 -0.855954
outer loop
vertex 0.000507 0.001051 -0.001756
vertex 0.000110 0.000269 -0.001914
vertex -0.000498 0.000629 -0.001499
endloop
endfacet
facet normal -0.094858 -0.619138 0.779532
outer loop
vertex 0.002965 -0.001234 0.001618
vertex 0.002182 -0.001226 0.001530
vertex 0.002474 -0.001592 0.001274
endloop
endfacet
facet normal -0.615399 0.370009 -0.695972
outer loop
vertex -0.000162 0.001259 -0.001461
vertex -0.000498 0.000629 -0.001499
vertex -0.001011 0.001166 -0.000760
endloop
endfacet
facet normal -0.641176 0.336633 -0.689617
outer loop
vertex -0.000498 0.000629 -0.001499
vertex -0.001628 0.000395 -0.000563
vertex -0.001011 0.001166 -0.000760
endloop
endfacet
facet normal -0.074295 -0.142291 0.987033
outer loop
vertex 0.000548 -0.001026 0.001273
vertex 0.001417 -0.000870 0.001361
vertex 0.000557 -0.000482 0.001352
endloop
endfacet
facet normal 0.261573 -0.256524 0.930470
outer loop
vertex 0.000557 -0.000482 0.001352
vertex -0.000381 -0.000491 0.001613
vertex 0.000089 -0.000689 0.001427
endloop
endfacet
facet normal 0.217665 -0.144284 0.965300
outer loop
vertex 0.000557 -0.000482 0.001352
vertex 0.000089 -0.000689 0.001427
vertex 0.000548 -0.001026 0.001273
endloop
endfacet
facet normal 0.271217 -0.069132 0.960032
outer loop
vertex 0.000089 -0.000689 0.001427
vertex -0.000279 -0.001082 0.001502
vertex 0.000548 -0.001026 0.001273
endloop
endfacet
facet normal 0.322079 -0.120694 0.938988
outer loop
vertex 0.000089 -0.000689 0.001427
vertex -0.000381 -0.000491 0.001613
vertex -0.000279 -0.001082 0.001502
endloop
endfacet
facet normal 0.192279 -0.148936 0.969973
outer loop
vertex -0.000279 -0.001082 0.001502
vertex -0.000381 -0.000491 0.001613
vertex -0.001164 -0.000376 0.001786
endloop
endfacet
facet normal -0.716518 0.425810 -0.552528
outer loop
vertex -0.002439 0.000258 0.000384
vertex -0.002053 0.000768 0.000276
vertex -0.001628 0.000395 -0.000563
endloop
endfacet
facet normal -0.713856 0.429744 -0.552929
outer loop
vertex -0.001628 0.000395 -0.000563
vertex -0.002053 0.000768 0.000276
vertex -0.001011 0.001166 -0.000760
endloop
endfacet
facet normal 0.089328 -0.593630 0.799765
outer loop
vertex -0.000381 -0.000491 0.001613
vertex -0.000799 -0.000021 0.002009
vertex -0.001164 -0.000376 0.001786
endloop
endfacet
facet normal -0.796196 0.548820 -0.254693
outer loop
vertex -0.002439 0.000258 0.000384
vertex -0.002528 0.000466 0.001113
vertex -0.002053 0.000768 0.000276
endloop
endfacet
facet normal -0.872687 0.430599 -0.230221
outer loop
vertex -0.002439 0.000258 0.000384
vertex -0.002714 0.000073 0.001078
vertex -0.002528 0.000466 0.001113
endloop
endfacet
facet normal -0.800605 0.333461 0.497831
outer loop
vertex -0.002714 0.000073 0.001078
vertex -0.002504 -0.000061 0.001506
vertex -0.002528 0.000466 0.001113
endloop
endfacet
facet normal -0.911570 0.217358 0.348992
outer loop
vertex -0.002504 -0.000061 0.001506
vertex -0.002358 0.000472 0.001555
vertex -0.002528 0.000466 0.001113
endloop
endfacet
facet normal -0.350836 0.009602 0.936388
outer loop
vertex -0.002358 0.000472 0.001555
vertex -0.002504 -0.000061 0.001506
vertex -0.001912 0.000086 0.001726
endloop
endfacet
facet normal 0.330645 -0.552944 -0.764805
outer loop
vertex 0.001966 -0.000791 -0.001339
vertex 0.002960 -0.000355 -0.001225
vertex 0.002905 -0.001030 -0.000760
endloop
endfacet
facet normal 0.333150 -0.050006 -0.941547
outer loop
vertex 0.001268 0.000504 -0.001779
vertex 0.002122 0.000590 -0.001481
vertex 0.001430 -0.000202 -0.001684
endloop
endfacet
facet normal 0.069698 0.189834 -0.979339
outer loop
vertex 0.002320 -0.000074 -0.001596
vertex 0.001430 -0.000202 -0.001684
vertex 0.002122 0.000590 -0.001481
endloop
endfacet
facet normal 0.293608 -0.447635 -0.844641
outer loop
vertex 0.001966 -0.000791 -0.001339
vertex 0.002320 -0.000074 -0.001596
vertex 0.002960 -0.000355 -0.001225
endloop
endfacet
facet normal 0.146701 -0.397054 -0.905995
outer loop
vertex 0.001966 -0.000791 -0.001339
vertex 0.001430 -0.000202 -0.001684
vertex 0.002320 -0.000074 -0.001596
endloop
endfacet
facet normal 0.274365 -0.646299 -0.712054
outer loop
vertex 0.001877 -0.001491 -0.000738
vertex 0.001966 -0.000791 -0.001339
vertex 0.002905 -0.001030 -0.000760
endloop
endfacet
facet normal 0.393058 -0.888086 -0.238347
outer loop
vertex 0.001877 -0.001491 -0.000738
vertex 0.002905 -0.001030 -0.000760
vertex 0.002799 -0.001272 -0.000032
endloop
endfacet
facet normal 0.239882 -0.074911 -0.967908
outer loop
vertex 0.001268 0.000504 -0.001779
vertex 0.001430 -0.000202 -0.001684
vertex 0.000670 0.000079 -0.001894
endloop
endfacet
facet normal -0.254581 -0.681196 0.686411
outer loop
vertex 0.002182 -0.001226 0.001530
vertex 0.001603 -0.001812 0.000733
vertex 0.002474 -0.001592 0.001274
endloop
endfacet
facet normal 0.235355 -0.971759 0.017090
outer loop
vertex 0.002474 -0.001592 0.001274
vertex 0.001603 -0.001812 0.000733
vertex 0.002562 -0.001581 0.000670
endloop
endfacet
facet normal -0.013630 -0.432249 0.901651
outer loop
vertex 0.000548 -0.001026 0.001273
vertex 0.001143 -0.001545 0.001033
vertex 0.001417 -0.000870 0.001361
endloop
endfacet
facet normal -0.053438 -0.785250 0.616869
outer loop
vertex 0.001603 -0.001812 0.000733
vertex 0.002182 -0.001226 0.001530
vertex 0.001143 -0.001545 0.001033
endloop
endfacet
facet normal -0.335767 -0.297851 0.893614
outer loop
vertex 0.001143 -0.001545 0.001033
vertex 0.002182 -0.001226 0.001530
vertex 0.001417 -0.000870 0.001361
endloop
endfacet
facet normal -0.564315 0.640439 -0.520947
outer loop
vertex -0.000498 0.000629 -0.001499
vertex -0.001264 0.000097 -0.001324
vertex -0.001628 0.000395 -0.000563
endloop
endfacet
facet normal -0.277674 -0.372948 0.885329
outer loop
vertex -0.001837 -0.000866 0.001368
vertex -0.001018 -0.001345 0.001424
vertex -0.001164 -0.000376 0.001786
endloop
endfacet
facet normal 0.023524 -0.347189 0.937500
outer loop
vertex -0.001018 -0.001345 0.001424
vertex -0.000279 -0.001082 0.001502
vertex -0.001164 -0.000376 0.001786
endloop
endfacet
facet normal -0.704393 0.709237 0.028519
outer loop
vertex -0.002862 -0.000176 0.000727
vertex -0.002439 0.000258 0.000384
vertex -0.002727 -0.000022 0.000224
endloop
endfacet
facet normal -0.759487 0.637333 -0.130331
outer loop
vertex -0.002862 -0.000176 0.000727
vertex -0.002714 0.000073 0.001078
vertex -0.002439 0.000258 0.000384
endloop
endfacet
facet normal -0.246437 -0.357423 0.900843
outer loop
vertex -0.002504 -0.000061 0.001506
vertex -0.001837 -0.000866 0.001368
vertex -0.001912 0.000086 0.001726
endloop
endfacet
facet normal -0.291482 -0.356123 0.887815
outer loop
vertex -0.001837 -0.000866 0.001368
vertex -0.001164 -0.000376 0.001786
vertex -0.001912 0.000086 0.001726
endloop
endfacet
facet normal -0.902122 -0.046252 0.428994
outer loop
vertex -0.002504 -0.000061 0.001506
vertex -0.002714 0.000073 0.001078
vertex -0.002636 -0.000480 0.001181
endloop
endfacet
facet normal -0.907073 -0.048969 0.418116
outer loop
vertex -0.002714 0.000073 0.001078
vertex -0.002862 -0.000176 0.000727
vertex -0.002636 -0.000480 0.001181
endloop
endfacet
facet normal -0.411275 -0.473200 0.779060
outer loop
vertex -0.002636 -0.000480 0.001181
vertex -0.001837 -0.000866 0.001368
vertex -0.002504 -0.000061 0.001506
endloop
endfacet
facet normal 0.198857 -0.182324 -0.962920
outer loop
vertex 0.001430 -0.000202 -0.001684
vertex 0.000755 -0.000420 -0.001782
vertex 0.000670 0.000079 -0.001894
endloop
endfacet
facet normal 0.333829 -0.852544 -0.402153
outer loop
vertex 0.000755 -0.000420 -0.001782
vertex 0.001430 -0.000202 -0.001684
vertex 0.000590 -0.000720 -0.001284
endloop
endfacet
facet normal -0.061627 -0.545601 -0.835776
outer loop
vertex 0.001966 -0.000791 -0.001339
vertex 0.000590 -0.000720 -0.001284
vertex 0.001430 -0.000202 -0.001684
endloop
endfacet
facet normal 0.038165 -0.052254 -0.997904
outer loop
vertex -0.000496 -0.000099 -0.001918
vertex 0.000110 0.000269 -0.001914
vertex 0.000149 -0.000428 -0.001876
endloop
endfacet
facet normal 0.016379 -0.053495 -0.998434
outer loop
vertex 0.000149 -0.000428 -0.001876
vertex 0.000110 0.000269 -0.001914
vertex 0.000670 0.000079 -0.001894
endloop
endfacet
facet normal 0.151996 -0.191796 -0.969593
outer loop
vertex 0.000755 -0.000420 -0.001782
vertex 0.000149 -0.000428 -0.001876
vertex 0.000670 0.000079 -0.001894
endloop
endfacet
facet normal -0.064729 -0.710184 -0.701034
outer loop
vertex 0.001029 -0.001089 -0.000950
vertex 0.000590 -0.000720 -0.001284
vertex 0.001966 -0.000791 -0.001339
endloop
endfacet
facet normal -0.284706 0.477479 -0.831238
outer loop
vertex 0.000110 0.000269 -0.001914
vertex -0.000496 -0.000099 -0.001918
vertex -0.000498 0.000629 -0.001499
endloop
endfacet
facet normal -0.262171 -0.799619 -0.540256
outer loop
vertex 0.000154 -0.001142 -0.000448
vertex 0.000590 -0.000720 -0.001284
vertex 0.001029 -0.001089 -0.000950
endloop
endfacet
facet normal 0.239617 -0.964961 0.106931
outer loop
vertex 0.001603 -0.001812 0.000733
vertex 0.001673 -0.001886 -0.000086
vertex 0.002562 -0.001581 0.000670
endloop
endfacet
facet normal -0.029786 0.937508 -0.346688
outer loop
vertex -0.001091 -0.000085 -0.001829
vertex -0.001264 0.000097 -0.001324
vertex -0.000496 -0.000099 -0.001918
endloop
endfacet
facet normal -0.478167 0.436943 -0.761865
outer loop
vertex -0.001264 0.000097 -0.001324
vertex -0.000498 0.000629 -0.001499
vertex -0.000496 -0.000099 -0.001918
endloop
endfacet
facet normal 0.092561 -0.987726 -0.125814
outer loop
vertex -0.000554 -0.000926 -0.000510
vertex -0.000387 -0.000803 -0.001349
vertex 0.000590 -0.000720 -0.001284
endloop
endfacet
facet normal 0.218012 -0.970972 -0.098409
outer loop
vertex -0.000997 -0.000995 -0.000804
vertex -0.000387 -0.000803 -0.001349
vertex -0.000554 -0.000926 -0.000510
endloop
endfacet
facet normal -0.206622 -0.825901 -0.524591
outer loop
vertex -0.000554 -0.000926 -0.000510
vertex 0.000590 -0.000720 -0.001284
vertex 0.000154 -0.001142 -0.000448
endloop
endfacet
facet normal -0.041789 -0.458186 0.887874
outer loop
vertex 0.000548 -0.001026 0.001273
vertex 0.000048 -0.001644 0.000930
vertex 0.001143 -0.001545 0.001033
endloop
endfacet
facet normal -0.511296 0.688476 -0.514371
outer loop
vertex -0.001264 0.000097 -0.001324
vertex -0.002303 -0.000041 -0.000476
vertex -0.001628 0.000395 -0.000563
endloop
endfacet
facet normal 0.249506 -0.615812 0.747344
outer loop
vertex 0.000548 -0.001026 0.001273
vertex -0.000279 -0.001082 0.001502
vertex 0.000048 -0.001644 0.000930
endloop
endfacet
facet normal -0.539657 0.764755 -0.352022
outer loop
vertex -0.001628 0.000395 -0.000563
vertex -0.002303 -0.000041 -0.000476
vertex -0.002439 0.000258 0.000384
endloop
endfacet
facet normal -0.658450 0.626293 -0.417374
outer loop
vertex -0.002727 -0.000022 0.000224
vertex -0.002303 -0.000041 -0.000476
vertex -0.003059 -0.000380 0.000209
endloop
endfacet
facet normal -0.544064 0.761782 -0.351686
outer loop
vertex -0.002439 0.000258 0.000384
vertex -0.002303 -0.000041 -0.000476
vertex -0.002727 -0.000022 0.000224
endloop
endfacet
facet normal -0.734359 0.678670 0.011124
outer loop
vertex -0.002862 -0.000176 0.000727
vertex -0.002727 -0.000022 0.000224
vertex -0.003059 -0.000380 0.000209
endloop
endfacet
facet normal -0.306811 -0.453660 0.836696
outer loop
vertex -0.002389 -0.001077 0.001052
vertex -0.002061 -0.001372 0.001012
vertex -0.001837 -0.000866 0.001368
endloop
endfacet
facet normal -0.934234 0.247893 0.256431
outer loop
vertex -0.002862 -0.000176 0.000727
vertex -0.003059 -0.000380 0.000209
vertex -0.003078 -0.000940 0.000681
endloop
endfacet
facet normal -0.818525 0.198124 0.539224
outer loop
vertex -0.002636 -0.000480 0.001181
vertex -0.002862 -0.000176 0.000727
vertex -0.003078 -0.000940 0.000681
endloop
endfacet
facet normal -0.496313 -0.375310 0.782826
outer loop
vertex -0.002389 -0.001077 0.001052
vertex -0.002636 -0.000480 0.001181
vertex -0.003078 -0.000940 0.000681
endloop
endfacet
facet normal -0.367051 -0.339661 0.865970
outer loop
vertex -0.001837 -0.000866 0.001368
vertex -0.002636 -0.000480 0.001181
vertex -0.002389 -0.001077 0.001052
endloop
endfacet
facet normal -0.112236 -0.639062 -0.760922
outer loop
vertex 0.001029 -0.001089 -0.000950
vertex 0.001966 -0.000791 -0.001339
vertex 0.001877 -0.001491 -0.000738
endloop
endfacet
facet normal 0.132405 0.134355 -0.982048
outer loop
vertex -0.000496 -0.000099 -0.001918
vertex 0.000149 -0.000428 -0.001876
vertex -0.000461 -0.000738 -0.002000
endloop
endfacet
facet normal 0.086789 -0.866223 -0.492062
outer loop
vertex 0.000755 -0.000420 -0.001782
vertex 0.000590 -0.000720 -0.001284
vertex 0.000149 -0.000428 -0.001876
endloop
endfacet
facet normal 0.475102 -0.853239 -0.215084
outer loop
vertex 0.002799 -0.001272 -0.000032
vertex 0.002562 -0.001581 0.000670
vertex 0.001673 -0.001886 -0.000086
endloop
endfacet
facet normal -0.106092 -0.630367 -0.769014
outer loop
vertex 0.000819 -0.001452 -0.000624
vertex 0.001029 -0.001089 -0.000950
vertex 0.001877 -0.001491 -0.000738
endloop
endfacet
facet normal 0.106579 -0.857874 -0.502687
outer loop
vertex 0.000149 -0.000428 -0.001876
vertex 0.000590 -0.000720 -0.001284
vertex -0.000387 -0.000803 -0.001349
endloop
endfacet
facet normal -0.421664 -0.458897 -0.782057
outer loop
vertex 0.000819 -0.001452 -0.000624
vertex 0.000154 -0.001142 -0.000448
vertex 0.001029 -0.001089 -0.000950
endloop
endfacet
facet normal -0.100087 0.628259 -0.771540
outer loop
vertex -0.000496 -0.000099 -0.001918
vertex -0.001165 -0.000664 -0.002291
vertex -0.001091 -0.000085 -0.001829
endloop
endfacet
facet normal -0.426167 0.597097 -0.679601
outer loop
vertex -0.001091 -0.000085 -0.001829
vertex -0.001165 -0.000664 -0.002291
vertex -0.001935 -0.000261 -0.001454
endloop
endfacet
facet normal -0.467267 -0.681789 -0.562873
outer loop
vertex 0.000154 -0.001142 -0.000448
vertex 0.000819 -0.001452 -0.000624
vertex 0.000610 -0.001767 -0.000069
endloop
endfacet
facet normal -0.102466 -0.815880 0.569070
outer loop
vertex 0.001603 -0.001812 0.000733
vertex 0.001143 -0.001545 0.001033
vertex 0.000494 -0.001865 0.000458
endloop
endfacet
facet normal -0.360767 0.831708 -0.422030
outer loop
vertex -0.001935 -0.000261 -0.001454
vertex -0.001264 0.000097 -0.001324
vertex -0.001091 -0.000085 -0.001829
endloop
endfacet
facet normal -0.315163 -0.649294 -0.692163
outer loop
vertex 0.000610 -0.001767 -0.000069
vertex -0.000523 -0.001537 0.000231
vertex 0.000154 -0.001142 -0.000448
endloop
endfacet
facet normal 0.038361 -0.891245 0.451898
outer loop
vertex 0.001143 -0.001545 0.001033
vertex 0.000048 -0.001644 0.000930
vertex 0.000494 -0.001865 0.000458
endloop
endfacet
facet normal -0.390109 0.856264 -0.338565
outer loop
vertex -0.001935 -0.000261 -0.001454
vertex -0.002303 -0.000041 -0.000476
vertex -0.001264 0.000097 -0.001324
endloop
endfacet
facet normal 0.338941 -0.891857 -0.299516
outer loop
vertex -0.000554 -0.000926 -0.000510
vertex -0.001325 -0.001313 -0.000230
vertex -0.000997 -0.000995 -0.000804
endloop
endfacet
facet normal -0.178681 -0.762464 -0.621870
outer loop
vertex 0.000154 -0.001142 -0.000448
vertex -0.000523 -0.001537 0.000231
vertex -0.000554 -0.000926 -0.000510
endloop
endfacet
facet normal 0.151540 -0.759209 -0.632959
outer loop
vertex -0.000523 -0.001537 0.000231
vertex -0.001325 -0.001313 -0.000230
vertex -0.000554 -0.000926 -0.000510
endloop
endfacet
facet normal 0.065901 -0.692741 0.718169
outer loop
vertex 0.000048 -0.001644 0.000930
vertex -0.000279 -0.001082 0.001502
vertex -0.000802 -0.001652 0.001001
endloop
endfacet
facet normal -0.500026 0.785779 -0.364042
outer loop
vertex -0.002907 -0.000438 -0.000501
vertex -0.002303 -0.000041 -0.000476
vertex -0.001935 -0.000261 -0.001454
endloop
endfacet
facet normal -0.534074 0.825779 -0.181257
outer loop
vertex -0.002303 -0.000041 -0.000476
vertex -0.002907 -0.000438 -0.000501
vertex -0.003059 -0.000380 0.000209
endloop
endfacet
facet normal -0.295251 -0.838287 0.458368
outer loop
vertex -0.001581 -0.001539 0.000706
vertex -0.000802 -0.001652 0.001001
vertex -0.001018 -0.001345 0.001424
endloop
endfacet
facet normal -0.109984 -0.934276 0.339164
outer loop
vertex -0.001581 -0.001539 0.000706
vertex -0.001018 -0.001345 0.001424
vertex -0.002061 -0.001372 0.001012
endloop
endfacet
facet normal 0.195920 -0.743188 0.639755
outer loop
vertex -0.001018 -0.001345 0.001424
vertex -0.000802 -0.001652 0.001001
vertex -0.000279 -0.001082 0.001502
endloop
endfacet
facet normal -0.318110 -0.447864 0.835598
outer loop
vertex -0.001018 -0.001345 0.001424
vertex -0.001837 -0.000866 0.001368
vertex -0.002061 -0.001372 0.001012
endloop
endfacet
facet normal -0.780101 0.418539 0.465046
outer loop
vertex -0.003059 -0.000380 0.000209
vertex -0.003388 -0.000760 -0.000001
vertex -0.003078 -0.000940 0.000681
endloop
endfacet
facet normal -0.103244 -0.847764 -0.520227
outer loop
vertex 0.000819 -0.001452 -0.000624
vertex 0.001673 -0.001886 -0.000086
vertex 0.000610 -0.001767 -0.000069
endloop
endfacet
facet normal 0.390400 0.138866 -0.910112
outer loop
vertex -0.000496 -0.000099 -0.001918
vertex -0.000461 -0.000738 -0.002000
vertex -0.001165 -0.000664 -0.002291
endloop
endfacet
facet normal 0.471547 -0.870602 -0.140341
outer loop
vertex -0.000461 -0.000738 -0.002000
vertex 0.000149 -0.000428 -0.001876
vertex -0.000387 -0.000803 -0.001349
endloop
endfacet
facet normal 0.612754 -0.776442 -0.147207
outer loop
vertex -0.000836 -0.001129 -0.001497
vertex -0.000461 -0.000738 -0.002000
vertex -0.000387 -0.000803 -0.001349
endloop
endfacet
facet normal 0.461046 -0.815593 -0.349636
outer loop
vertex 0.001877 -0.001491 -0.000738
vertex 0.002799 -0.001272 -0.000032
vertex 0.001673 -0.001886 -0.000086
endloop
endfacet
facet normal -0.109287 -0.990828 0.079475
outer loop
vertex 0.001673 -0.001886 -0.000086
vertex 0.001603 -0.001812 0.000733
vertex 0.000610 -0.001767 -0.000069
endloop
endfacet
facet normal -0.088830 -0.839332 -0.536312
outer loop
vertex 0.001673 -0.001886 -0.000086
vertex 0.000819 -0.001452 -0.000624
vertex 0.001877 -0.001491 -0.000738
endloop
endfacet
facet normal 0.074115 0.923343 -0.376756
outer loop
vertex -0.001935 -0.000261 -0.001454
vertex -0.001165 -0.000664 -0.002291
vertex -0.001887 -0.000537 -0.002121
endloop
endfacet
facet normal 0.086714 -0.982816 -0.162952
outer loop
vertex 0.000610 -0.001767 -0.000069
vertex 0.001603 -0.001812 0.000733
vertex 0.000494 -0.001865 0.000458
endloop
endfacet
facet normal 0.504163 -0.818580 0.275219
outer loop
vertex -0.000387 -0.000803 -0.001349
vertex -0.000997 -0.000995 -0.000804
vertex -0.000836 -0.001129 -0.001497
endloop
endfacet
facet normal 0.686189 -0.667851 0.288304
outer loop
vertex -0.000836 -0.001129 -0.001497
vertex -0.000997 -0.000995 -0.000804
vertex -0.001375 -0.001465 -0.000990
endloop
endfacet
facet normal -0.251862 -0.940148 -0.229538
outer loop
vertex -0.000523 -0.001537 0.000231
vertex 0.000610 -0.001767 -0.000069
vertex 0.000494 -0.001865 0.000458
endloop
endfacet
facet normal -0.390212 0.840538 -0.375807
outer loop
vertex -0.001935 -0.000261 -0.001454
vertex -0.001887 -0.000537 -0.002121
vertex -0.002442 -0.000554 -0.001584
endloop
endfacet
facet normal 0.760513 -0.644508 0.078924
outer loop
vertex -0.001325 -0.001313 -0.000230
vertex -0.001375 -0.001465 -0.000990
vertex -0.000997 -0.000995 -0.000804
endloop
endfacet
facet normal -0.003487 -0.988792 -0.149257
outer loop
vertex 0.000048 -0.001644 0.000930
vertex -0.000802 -0.001652 0.001001
vertex -0.000523 -0.001537 0.000231
endloop
endfacet
facet normal -0.329647 -0.935802 0.124933
outer loop
vertex 0.000048 -0.001644 0.000930
vertex -0.000523 -0.001537 0.000231
vertex 0.000494 -0.001865 0.000458
endloop
endfacet
facet normal -0.461464 0.871347 -0.166751
outer loop
vertex -0.002442 -0.000554 -0.001584
vertex -0.003102 -0.000761 -0.000839
vertex -0.001935 -0.000261 -0.001454
endloop
endfacet
facet normal -0.116075 -0.957585 -0.263739
outer loop
vertex -0.001325 -0.001313 -0.000230
vertex -0.000523 -0.001537 0.000231
vertex -0.001581 -0.001539 0.000706
endloop
endfacet
facet normal -0.075976 -0.981719 -0.174514
outer loop
vertex -0.000523 -0.001537 0.000231
vertex -0.000802 -0.001652 0.001001
vertex -0.001581 -0.001539 0.000706
endloop
endfacet
facet normal -0.532179 0.743661 -0.404665
outer loop
vertex -0.001935 -0.000261 -0.001454
vertex -0.003102 -0.000761 -0.000839
vertex -0.002907 -0.000438 -0.000501
endloop
endfacet
facet normal -0.008672 -0.882752 0.469759
outer loop
vertex -0.002528 -0.001534 0.000699
vertex -0.001581 -0.001539 0.000706
vertex -0.002061 -0.001372 0.001012
endloop
endfacet
facet normal -0.700400 0.672377 -0.239477
outer loop
vertex -0.002907 -0.000438 -0.000501
vertex -0.003102 -0.000761 -0.000839
vertex -0.003388 -0.000760 -0.000001
endloop
endfacet
facet normal -0.682345 0.702322 -0.202852
outer loop
vertex -0.003059 -0.000380 0.000209
vertex -0.002907 -0.000438 -0.000501
vertex -0.003388 -0.000760 -0.000001
endloop
endfacet
facet normal -0.355633 -0.501450 0.788716
outer loop
vertex -0.002061 -0.001372 0.001012
vertex -0.002389 -0.001077 0.001052
vertex -0.002528 -0.001534 0.000699
endloop
endfacet
facet normal -0.492653 -0.433351 0.754652
outer loop
vertex -0.002389 -0.001077 0.001052
vertex -0.003078 -0.000940 0.000681
vertex -0.002528 -0.001534 0.000699
endloop
endfacet
facet normal 0.363932 -0.148808 -0.919462
outer loop
vertex -0.000817 -0.001169 -0.002071
vertex -0.001165 -0.000664 -0.002291
vertex -0.000461 -0.000738 -0.002000
endloop
endfacet
facet normal 0.763987 -0.641405 0.070172
outer loop
vertex -0.000817 -0.001169 -0.002071
vertex -0.000461 -0.000738 -0.002000
vertex -0.000836 -0.001129 -0.001497
endloop
endfacet
facet normal 0.183951 0.334839 -0.924146
outer loop
vertex -0.001165 -0.000664 -0.002291
vertex -0.001685 -0.001401 -0.002662
vertex -0.002096 -0.001091 -0.002631
endloop
endfacet
facet normal -0.050144 0.686528 -0.725372
outer loop
vertex -0.001887 -0.000537 -0.002121
vertex -0.001165 -0.000664 -0.002291
vertex -0.002096 -0.001091 -0.002631
endloop
endfacet
facet normal 0.604817 -0.026657 -0.795918
outer loop
vertex -0.001223 -0.001558 -0.002305
vertex -0.001685 -0.001401 -0.002662
vertex -0.001165 -0.000664 -0.002291
endloop
endfacet
facet normal -0.333470 0.703343 -0.627779
outer loop
vertex -0.002096 -0.001091 -0.002631
vertex -0.002490 -0.000775 -0.002067
vertex -0.001887 -0.000537 -0.002121
endloop
endfacet
facet normal -0.370704 0.858195 -0.355078
outer loop
vertex -0.002442 -0.000554 -0.001584
vertex -0.001887 -0.000537 -0.002121
vertex -0.002490 -0.000775 -0.002067
endloop
endfacet
facet normal -0.555458 0.775946 -0.298956
outer loop
vertex -0.002983 -0.000877 -0.001417
vertex -0.002442 -0.000554 -0.001584
vertex -0.002490 -0.000775 -0.002067
endloop
endfacet
facet normal -0.553750 0.787010 -0.271986
outer loop
vertex -0.002442 -0.000554 -0.001584
vertex -0.002983 -0.000877 -0.001417
vertex -0.003102 -0.000761 -0.000839
endloop
endfacet
facet normal 0.439682 -0.885824 0.148311
outer loop
vertex -0.001325 -0.001313 -0.000230
vertex -0.002366 -0.001852 -0.000368
vertex -0.001375 -0.001465 -0.000990
endloop
endfacet
facet normal 0.467624 -0.879775 -0.085578
outer loop
vertex -0.001325 -0.001313 -0.000230
vertex -0.001581 -0.001539 0.000706
vertex -0.002366 -0.001852 -0.000368
endloop
endfacet
facet normal -0.007730 -0.958511 0.284951
outer loop
vertex -0.002366 -0.001852 -0.000368
vertex -0.001581 -0.001539 0.000706
vertex -0.002528 -0.001534 0.000699
endloop
endfacet
facet normal -0.905536 0.290602 -0.309118
outer loop
vertex -0.003491 -0.001197 -0.000107
vertex -0.003388 -0.000760 -0.000001
vertex -0.003102 -0.000761 -0.000839
endloop
endfacet
facet normal -0.894147 0.106989 0.434804
outer loop
vertex -0.003078 -0.000940 0.000681
vertex -0.003388 -0.000760 -0.000001
vertex -0.003491 -0.001197 -0.000107
endloop
endfacet
facet normal -0.789397 -0.325287 0.520616
outer loop
vertex -0.003078 -0.000940 0.000681
vertex -0.003491 -0.001197 -0.000107
vertex -0.003122 -0.001536 0.000241
endloop
endfacet
facet normal -0.535859 -0.475039 0.697992
outer loop
vertex -0.003122 -0.001536 0.000241
vertex -0.002528 -0.001534 0.000699
vertex -0.003078 -0.000940 0.000681
endloop
endfacet
facet normal 0.512544 -0.019708 -0.858434
outer loop
vertex -0.000817 -0.001169 -0.002071
vertex -0.001223 -0.001558 -0.002305
vertex -0.001165 -0.000664 -0.002291
endloop
endfacet
facet normal 0.727565 -0.668047 -0.156085
outer loop
vertex -0.000817 -0.001169 -0.002071
vertex -0.001114 -0.001584 -0.001680
vertex -0.001223 -0.001558 -0.002305
endloop
endfacet
facet normal 0.839561 -0.539299 0.065526
outer loop
vertex -0.001114 -0.001584 -0.001680
vertex -0.000817 -0.001169 -0.002071
vertex -0.000836 -0.001129 -0.001497
endloop
endfacet
facet normal -0.180877 0.798359 -0.574374
outer loop
vertex -0.002724 -0.001101 -0.002447
vertex -0.002490 -0.000775 -0.002067
vertex -0.002096 -0.001091 -0.002631
endloop
endfacet
facet normal 0.717026 -0.588427 0.373667
outer loop
vertex -0.000836 -0.001129 -0.001497
vertex -0.001375 -0.001465 -0.000990
vertex -0.001114 -0.001584 -0.001680
endloop
endfacet
facet normal 0.678494 -0.636162 0.367347
outer loop
vertex -0.001114 -0.001584 -0.001680
vertex -0.001375 -0.001465 -0.000990
vertex -0.001668 -0.002154 -0.001642
endloop
endfacet
facet normal -0.539086 0.773787 -0.332626
outer loop
vertex -0.003181 -0.001127 -0.001766
vertex -0.002490 -0.000775 -0.002067
vertex -0.002724 -0.001101 -0.002447
endloop
endfacet
facet normal -0.528723 0.803206 -0.274431
outer loop
vertex -0.002490 -0.000775 -0.002067
vertex -0.003181 -0.001127 -0.001766
vertex -0.002983 -0.000877 -0.001417
endloop
endfacet
facet normal 0.561124 -0.682187 0.468787
outer loop
vertex -0.002366 -0.001852 -0.000368
vertex -0.001668 -0.002154 -0.001642
vertex -0.001375 -0.001465 -0.000990
endloop
endfacet
facet normal -0.683837 0.718693 -0.125889
outer loop
vertex -0.002983 -0.000877 -0.001417
vertex -0.003181 -0.001127 -0.001766
vertex -0.003547 -0.001330 -0.000940
endloop
endfacet
facet normal -0.732904 0.621966 -0.275699
outer loop
vertex -0.003547 -0.001330 -0.000940
vertex -0.003102 -0.000761 -0.000839
vertex -0.002983 -0.000877 -0.001417
endloop
endfacet
facet normal -0.199657 -0.948796 0.244792
outer loop
vertex -0.002366 -0.001852 -0.000368
vertex -0.003122 -0.001536 0.000241
vertex -0.003359 -0.001666 -0.000456
endloop
endfacet
facet normal -0.192036 -0.947994 0.253829
outer loop
vertex -0.002366 -0.001852 -0.000368
vertex -0.002528 -0.001534 0.000699
vertex -0.003122 -0.001536 0.000241
endloop
endfacet
facet normal -0.782671 0.620631 -0.047353
outer loop
vertex -0.003547 -0.001330 -0.000940
vertex -0.003491 -0.001197 -0.000107
vertex -0.003102 -0.000761 -0.000839
endloop
endfacet
facet normal -0.929499 -0.349331 0.118318
outer loop
vertex -0.003359 -0.001666 -0.000456
vertex -0.003491 -0.001197 -0.000107
vertex -0.003547 -0.001330 -0.000940
endloop
endfacet
facet normal -0.792223 -0.491715 0.361385
outer loop
vertex -0.003122 -0.001536 0.000241
vertex -0.003491 -0.001197 -0.000107
vertex -0.003359 -0.001666 -0.000456
endloop
endfacet
facet normal 0.596944 -0.213976 -0.773222
outer loop
vertex -0.001223 -0.001558 -0.002305
vertex -0.001387 -0.001975 -0.002316
vertex -0.001715 -0.001913 -0.002587
endloop
endfacet
facet normal 0.570996 -0.151318 -0.806887
outer loop
vertex -0.001223 -0.001558 -0.002305
vertex -0.001715 -0.001913 -0.002587
vertex -0.001685 -0.001401 -0.002662
endloop
endfacet
facet normal 0.702763 -0.694802 -0.152885
outer loop
vertex -0.001223 -0.001558 -0.002305
vertex -0.001114 -0.001584 -0.001680
vertex -0.001668 -0.002154 -0.001642
endloop
endfacet
facet normal 0.891821 -0.357774 0.276862
outer loop
vertex -0.001223 -0.001558 -0.002305
vertex -0.001668 -0.002154 -0.001642
vertex -0.001387 -0.001975 -0.002316
endloop
endfacet
facet normal -0.495240 0.814704 -0.301653
outer loop
vertex -0.003181 -0.001127 -0.001766
vertex -0.002724 -0.001101 -0.002447
vertex -0.003320 -0.001372 -0.002199
endloop
endfacet
facet normal -0.801802 0.592522 -0.077660
outer loop
vertex -0.003181 -0.001127 -0.001766
vertex -0.003320 -0.001372 -0.002199
vertex -0.003674 -0.001767 -0.001566
endloop
endfacet
facet normal -0.805228 0.550233 -0.221024
outer loop
vertex -0.003547 -0.001330 -0.000940
vertex -0.003181 -0.001127 -0.001766
vertex -0.003674 -0.001767 -0.001566
endloop
endfacet
facet normal -0.193711 -0.715979 0.670709
outer loop
vertex -0.003359 -0.001666 -0.000456
vertex -0.003177 -0.002134 -0.000903
vertex -0.002366 -0.001852 -0.000368
endloop
endfacet
facet normal -0.069323 -0.835517 0.545074
outer loop
vertex -0.003177 -0.002134 -0.000903
vertex -0.002711 -0.002540 -0.001467
vertex -0.002366 -0.001852 -0.000368
endloop
endfacet
facet normal -0.986430 0.105453 0.125842
outer loop
vertex -0.003547 -0.001330 -0.000940
vertex -0.003674 -0.001767 -0.001566
vertex -0.003610 -0.001891 -0.000959
endloop
endfacet
facet normal -0.463002 -0.699941 0.543794
outer loop
vertex -0.003177 -0.002134 -0.000903
vertex -0.003359 -0.001666 -0.000456
vertex -0.003610 -0.001891 -0.000959
endloop
endfacet
facet normal -0.906968 0.086438 0.412235
outer loop
vertex -0.003610 -0.001891 -0.000959
vertex -0.003359 -0.001666 -0.000456
vertex -0.003547 -0.001330 -0.000940
endloop
endfacet
facet normal -0.039160 0.046092 -0.998169
outer loop
vertex -0.001685 -0.001401 -0.002662
vertex -0.002506 -0.001841 -0.002650
vertex -0.002096 -0.001091 -0.002631
endloop
endfacet
facet normal 0.064875 -0.147824 -0.986884
outer loop
vertex -0.002506 -0.001841 -0.002650
vertex -0.001685 -0.001401 -0.002662
vertex -0.001715 -0.001913 -0.002587
endloop
endfacet
facet normal 0.755760 -0.638439 0.145681
outer loop
vertex -0.001698 -0.002336 -0.002287
vertex -0.001387 -0.001975 -0.002316
vertex -0.001668 -0.002154 -0.001642
endloop
endfacet
facet normal -0.244076 0.541520 -0.804477
outer loop
vertex -0.002724 -0.001101 -0.002447
vertex -0.002096 -0.001091 -0.002631
vertex -0.002831 -0.001453 -0.002652
endloop
endfacet
facet normal 0.021908 0.012691 -0.999679
outer loop
vertex -0.002506 -0.001841 -0.002650
vertex -0.002831 -0.001453 -0.002652
vertex -0.002096 -0.001091 -0.002631
endloop
endfacet
facet normal -0.520734 0.541414 -0.660080
outer loop
vertex -0.002724 -0.001101 -0.002447
vertex -0.002831 -0.001453 -0.002652
vertex -0.003320 -0.001372 -0.002199
endloop
endfacet
facet normal -0.641168 0.226130 -0.733327
outer loop
vertex -0.002831 -0.001453 -0.002652
vertex -0.003366 -0.001759 -0.002279
vertex -0.003320 -0.001372 -0.002199
endloop
endfacet
facet normal -0.902672 0.186063 -0.388026
outer loop
vertex -0.003674 -0.001767 -0.001566
vertex -0.003320 -0.001372 -0.002199
vertex -0.003366 -0.001759 -0.002279
endloop
endfacet
facet normal -0.453463 -0.673729 0.583491
outer loop
vertex -0.003177 -0.002134 -0.000903
vertex -0.003610 -0.001891 -0.000959
vertex -0.003489 -0.002304 -0.001342
endloop
endfacet
facet normal -0.187666 -0.863761 0.467651
outer loop
vertex -0.003177 -0.002134 -0.000903
vertex -0.003489 -0.002304 -0.001342
vertex -0.002711 -0.002540 -0.001467
endloop
endfacet
facet normal 0.498799 -0.487324 -0.716739
outer loop
vertex -0.001387 -0.001975 -0.002316
vertex -0.001698 -0.002336 -0.002287
vertex -0.001715 -0.001913 -0.002587
endloop
endfacet
facet normal 0.019089 -0.528697 -0.848596
outer loop
vertex -0.002360 -0.002464 -0.002258
vertex -0.002506 -0.001841 -0.002650
vertex -0.001715 -0.001913 -0.002587
endloop
endfacet
facet normal 0.075486 -0.574566 -0.814970
outer loop
vertex -0.001698 -0.002336 -0.002287
vertex -0.002360 -0.002464 -0.002258
vertex -0.001715 -0.001913 -0.002587
endloop
endfacet
facet normal 0.741675 -0.653630 0.150620
outer loop
vertex -0.002091 -0.002692 -0.001896
vertex -0.001698 -0.002336 -0.002287
vertex -0.001668 -0.002154 -0.001642
endloop
endfacet
facet normal -0.399655 -0.339884 -0.851326
outer loop
vertex -0.003366 -0.001759 -0.002279
vertex -0.002831 -0.001453 -0.002652
vertex -0.002506 -0.001841 -0.002650
endloop
endfacet
facet normal 0.345669 -0.608843 0.714019
outer loop
vertex -0.002091 -0.002692 -0.001896
vertex -0.001668 -0.002154 -0.001642
vertex -0.002711 -0.002540 -0.001467
endloop
endfacet
facet normal 0.376924 -0.833641 0.403696
outer loop
vertex -0.001668 -0.002154 -0.001642
vertex -0.002366 -0.001852 -0.000368
vertex -0.002711 -0.002540 -0.001467
endloop
endfacet
facet normal -0.840300 -0.398470 -0.367583
outer loop
vertex -0.003366 -0.001759 -0.002279
vertex -0.003253 -0.002279 -0.001971
vertex -0.003674 -0.001767 -0.001566
endloop
endfacet
facet normal -0.840990 -0.427739 -0.331323
outer loop
vertex -0.003253 -0.002279 -0.001971
vertex -0.003489 -0.002304 -0.001342
vertex -0.003674 -0.001767 -0.001566
endloop
endfacet
facet normal -0.949577 -0.311380 0.036683
outer loop
vertex -0.003489 -0.002304 -0.001342
vertex -0.003610 -0.001891 -0.000959
vertex -0.003674 -0.001767 -0.001566
endloop
endfacet
facet normal 0.127753 -0.793978 -0.594372
outer loop
vertex -0.002360 -0.002464 -0.002258
vertex -0.001698 -0.002336 -0.002287
vertex -0.002091 -0.002692 -0.001896
endloop
endfacet
facet normal -0.377806 -0.530054 -0.759148
outer loop
vertex -0.002506 -0.001841 -0.002650
vertex -0.003253 -0.002279 -0.001971
vertex -0.003366 -0.001759 -0.002279
endloop
endfacet
facet normal -0.355972 -0.555432 -0.751518
outer loop
vertex -0.002506 -0.001841 -0.002650
vertex -0.002360 -0.002464 -0.002258
vertex -0.003253 -0.002279 -0.001971
endloop
endfacet
facet normal -0.394764 -0.881279 -0.259824
outer loop
vertex -0.002091 -0.002692 -0.001896
vertex -0.002711 -0.002540 -0.001467
vertex -0.002360 -0.002464 -0.002258
endloop
endfacet
facet normal -0.261338 -0.942885 -0.206568
outer loop
vertex -0.002711 -0.002540 -0.001467
vertex -0.003253 -0.002279 -0.001971
vertex -0.002360 -0.002464 -0.002258
endloop
endfacet
facet normal -0.309958 -0.938517 -0.152026
outer loop
vertex -0.002711 -0.002540 -0.001467
vertex -0.003489 -0.002304 -0.001342
vertex -0.003253 -0.002279 -0.001971
endloop
endfacet
endsolid Exported from Blender-3.5.1
