solid Exported from Blender-3.5.1
facet normal 0.048151 -0.148190 -0.987786
outer loop
vertex 0.000000 0.000000 -0.001000
vertex 0.000203 -0.000148 -0.000968
vertex -0.000078 -0.000239 -0.000968
endloop
endfacet
facet normal 0.722992 -0.412071 -0.554509
outer loop
vertex 0.000724 -0.000526 -0.000447
vertex 0.000610 -0.000443 -0.000658
vertex 0.000813 -0.000295 -0.000502
endloop
endfacet
facet normal -0.126061 -0.091587 -0.987786
outer loop
vertex 0.000000 0.000000 -0.001000
vertex -0.000078 -0.000239 -0.000968
vertex -0.000251 0.000000 -0.000968
endloop
endfacet
facet normal -0.126061 0.091587 -0.987786
outer loop
vertex 0.000000 0.000000 -0.001000
vertex -0.000251 0.000000 -0.000968
vertex -0.000078 0.000239 -0.000968
endloop
endfacet
facet normal 0.048151 0.148190 -0.987786
outer loop
vertex 0.000000 0.000000 -0.001000
vertex -0.000078 0.000239 -0.000968
vertex 0.000203 0.000148 -0.000968
endloop
endfacet
facet normal 0.819296 -0.412072 -0.398687
outer loop
vertex 0.000724 -0.000526 -0.000447
vertex 0.000813 -0.000295 -0.000502
vertex 0.000861 -0.000443 -0.000251
endloop
endfacet
facet normal -0.138726 -0.906533 -0.398689
outer loop
vertex -0.000276 -0.000851 -0.000447
vertex -0.000030 -0.000864 -0.000502
vertex -0.000155 -0.000955 -0.000251
endloop
endfacet
facet normal -0.905035 -0.148192 -0.398686
outer loop
vertex -0.000894 0.000000 -0.000447
vertex -0.000831 -0.000239 -0.000502
vertex -0.000957 -0.000148 -0.000251
endloop
endfacet
facet normal -0.420607 0.814945 -0.398690
outer loop
vertex -0.000276 0.000851 -0.000447
vertex -0.000484 0.000717 -0.000502
vertex -0.000436 0.000864 -0.000251
endloop
endfacet
facet normal 0.645086 0.651853 -0.398689
outer loop
vertex 0.000724 0.000526 -0.000447
vertex 0.000532 0.000682 -0.000502
vertex 0.000687 0.000682 -0.000251
endloop
endfacet
facet normal 0.771146 -0.560264 -0.302388
outer loop
vertex 0.000724 -0.000526 -0.000447
vertex 0.000861 -0.000443 -0.000251
vertex 0.000687 -0.000682 -0.000251
endloop
endfacet
facet normal -0.294548 -0.906533 -0.302389
outer loop
vertex -0.000276 -0.000851 -0.000447
vertex -0.000155 -0.000955 -0.000251
vertex -0.000436 -0.000864 -0.000251
endloop
endfacet
facet normal -0.953185 0.000000 -0.302386
outer loop
vertex -0.000894 0.000000 -0.000447
vertex -0.000957 -0.000148 -0.000251
vertex -0.000957 0.000148 -0.000251
endloop
endfacet
facet normal -0.294548 0.906533 -0.302389
outer loop
vertex -0.000276 0.000851 -0.000447
vertex -0.000436 0.000864 -0.000251
vertex -0.000155 0.000955 -0.000251
endloop
endfacet
facet normal 0.771145 0.560265 -0.302387
outer loop
vertex 0.000724 0.000526 -0.000447
vertex 0.000687 0.000682 -0.000251
vertex 0.000861 0.000443 -0.000251
endloop
endfacet
facet normal 0.342698 -0.758340 0.554508
outer loop
vertex 0.000276 -0.000851 0.000447
vertex 0.000484 -0.000717 0.000502
vertex 0.000233 -0.000717 0.000658
endloop
endfacet
facet normal -0.615326 -0.560263 0.554509
outer loop
vertex -0.000724 -0.000526 0.000447
vertex -0.000532 -0.000682 0.000502
vertex -0.000610 -0.000443 0.000658
endloop
endfacet
facet normal -0.722992 0.412071 0.554509
outer loop
vertex -0.000724 0.000526 0.000447
vertex -0.000813 0.000295 0.000502
vertex -0.000610 0.000443 0.000658
endloop
endfacet
facet normal 0.168486 0.814943 0.554509
outer loop
vertex 0.000276 0.000851 0.000447
vertex 0.000030 0.000864 0.000502
vertex 0.000233 0.000717 0.000658
endloop
endfacet
facet normal 0.827125 0.091587 0.554505
outer loop
vertex 0.000894 0.000000 0.000447
vertex 0.000831 0.000239 0.000502
vertex 0.000753 0.000000 0.000658
endloop
endfacet
facet normal 0.126061 0.091587 0.987786
outer loop
vertex 0.000251 0.000000 0.000968
vertex 0.000078 0.000239 0.000968
vertex 0.000000 0.000000 0.001000
endloop
endfacet
facet normal 0.391194 0.091450 0.915753
outer loop
vertex 0.000526 0.000000 0.000851
vertex 0.000362 0.000263 0.000894
vertex 0.000251 0.000000 0.000968
endloop
endfacet
facet normal 0.644124 0.091451 0.759434
outer loop
vertex 0.000753 0.000000 0.000658
vertex 0.000638 0.000263 0.000724
vertex 0.000526 0.000000 0.000851
endloop
endfacet
facet normal 0.233376 0.169558 0.957489
outer loop
vertex 0.000251 0.000000 0.000968
vertex 0.000362 0.000263 0.000894
vertex 0.000078 0.000239 0.000968
endloop
endfacet
facet normal 0.207859 0.343785 0.915754
outer loop
vertex 0.000362 0.000263 0.000894
vertex 0.000162 0.000500 0.000851
vertex 0.000078 0.000239 0.000968
endloop
endfacet
facet normal 0.516845 0.183046 0.836281
outer loop
vertex 0.000526 0.000000 0.000851
vertex 0.000638 0.000263 0.000724
vertex 0.000362 0.000263 0.000894
endloop
endfacet
facet normal 0.491120 0.356819 0.794658
outer loop
vertex 0.000638 0.000263 0.000724
vertex 0.000447 0.000526 0.000724
vertex 0.000362 0.000263 0.000894
endloop
endfacet
facet normal 0.333798 0.434985 0.836282
outer loop
vertex 0.000362 0.000263 0.000894
vertex 0.000447 0.000526 0.000724
vertex 0.000162 0.000500 0.000851
endloop
endfacet
facet normal 0.286017 0.584335 0.759438
outer loop
vertex 0.000447 0.000526 0.000724
vertex 0.000233 0.000717 0.000658
vertex 0.000162 0.000500 0.000851
endloop
endfacet
facet normal 0.752031 0.169559 0.636945
outer loop
vertex 0.000753 0.000000 0.000658
vertex 0.000831 0.000239 0.000502
vertex 0.000638 0.000263 0.000724
endloop
endfacet
facet normal 0.726114 0.343786 0.595458
outer loop
vertex 0.000831 0.000239 0.000502
vertex 0.000688 0.000500 0.000526
vertex 0.000638 0.000263 0.000724
endloop
endfacet
facet normal 0.598705 0.434986 0.672561
outer loop
vertex 0.000638 0.000263 0.000724
vertex 0.000688 0.000500 0.000526
vertex 0.000447 0.000526 0.000724
endloop
endfacet
facet normal 0.551342 0.584336 0.595460
outer loop
vertex 0.000688 0.000500 0.000526
vertex 0.000484 0.000717 0.000502
vertex 0.000447 0.000526 0.000724
endloop
endfacet
facet normal 0.393647 0.662827 0.636948
outer loop
vertex 0.000447 0.000526 0.000724
vertex 0.000484 0.000717 0.000502
vertex 0.000233 0.000717 0.000658
endloop
endfacet
facet normal 0.342697 0.758340 0.554509
outer loop
vertex 0.000484 0.000717 0.000502
vertex 0.000276 0.000851 0.000447
vertex 0.000233 0.000717 0.000658
endloop
endfacet
facet normal -0.048151 0.148190 0.987786
outer loop
vertex 0.000078 0.000239 0.000968
vertex -0.000203 0.000148 0.000968
vertex 0.000000 0.000000 0.001000
endloop
endfacet
facet normal 0.033909 0.400305 0.915754
outer loop
vertex 0.000162 0.000500 0.000851
vertex -0.000138 0.000425 0.000894
vertex 0.000078 0.000239 0.000968
endloop
endfacet
facet normal 0.112066 0.640855 0.759438
outer loop
vertex 0.000233 0.000717 0.000658
vertex -0.000053 0.000688 0.000724
vertex 0.000162 0.000500 0.000851
endloop
endfacet
facet normal -0.089144 0.274349 0.957489
outer loop
vertex 0.000078 0.000239 0.000968
vertex -0.000138 0.000425 0.000894
vertex -0.000203 0.000148 0.000968
endloop
endfacet
facet normal -0.262729 0.303920 0.915755
outer loop
vertex -0.000138 0.000425 0.000894
vertex -0.000425 0.000309 0.000851
vertex -0.000203 0.000148 0.000968
endloop
endfacet
facet normal -0.014375 0.548111 0.836282
outer loop
vertex 0.000162 0.000500 0.000851
vertex -0.000053 0.000688 0.000724
vertex -0.000138 0.000425 0.000894
endloop
endfacet
facet normal -0.187593 0.577344 0.794659
outer loop
vertex -0.000053 0.000688 0.000724
vertex -0.000362 0.000588 0.000724
vertex -0.000138 0.000425 0.000894
endloop
endfacet
facet normal -0.310547 0.451877 0.836282
outer loop
vertex -0.000138 0.000425 0.000894
vertex -0.000362 0.000588 0.000724
vertex -0.000425 0.000309 0.000851
endloop
endfacet
facet normal -0.467354 0.452587 0.759438
outer loop
vertex -0.000362 0.000588 0.000724
vertex -0.000610 0.000443 0.000658
vertex -0.000425 0.000309 0.000851
endloop
endfacet
facet normal 0.071125 0.767619 0.636947
outer loop
vertex 0.000233 0.000717 0.000658
vertex 0.000030 0.000864 0.000502
vertex -0.000053 0.000688 0.000724
endloop
endfacet
facet normal -0.102585 0.796808 0.595461
outer loop
vertex 0.000030 0.000864 0.000502
vertex -0.000263 0.000809 0.000526
vertex -0.000053 0.000688 0.000724
endloop
endfacet
facet normal -0.228689 0.703820 0.672562
outer loop
vertex -0.000053 0.000688 0.000724
vertex -0.000263 0.000809 0.000526
vertex -0.000362 0.000588 0.000724
endloop
endfacet
facet normal -0.385367 0.704925 0.595460
outer loop
vertex -0.000263 0.000809 0.000526
vertex -0.000532 0.000682 0.000502
vertex -0.000362 0.000588 0.000724
endloop
endfacet
facet normal -0.508743 0.579205 0.636948
outer loop
vertex -0.000362 0.000588 0.000724
vertex -0.000532 0.000682 0.000502
vertex -0.000610 0.000443 0.000658
endloop
endfacet
facet normal -0.615326 0.560263 0.554508
outer loop
vertex -0.000532 0.000682 0.000502
vertex -0.000724 0.000526 0.000447
vertex -0.000610 0.000443 0.000658
endloop
endfacet
facet normal -0.155818 0.000000 0.987786
outer loop
vertex -0.000203 0.000148 0.000968
vertex -0.000203 -0.000148 0.000968
vertex 0.000000 0.000000 0.001000
endloop
endfacet
facet normal -0.370234 0.155950 0.915754
outer loop
vertex -0.000425 0.000309 0.000851
vertex -0.000447 0.000000 0.000894
vertex -0.000203 0.000148 0.000968
endloop
endfacet
facet normal -0.574859 0.304617 0.759438
outer loop
vertex -0.000610 0.000443 0.000658
vertex -0.000671 0.000162 0.000724
vertex -0.000425 0.000309 0.000851
endloop
endfacet
facet normal -0.288469 0.000000 0.957489
outer loop
vertex -0.000203 0.000148 0.000968
vertex -0.000447 0.000000 0.000894
vertex -0.000203 -0.000148 0.000968
endloop
endfacet
facet normal -0.370234 -0.155950 0.915754
outer loop
vertex -0.000447 0.000000 0.000894
vertex -0.000425 -0.000309 0.000851
vertex -0.000203 -0.000148 0.000968
endloop
endfacet
facet normal -0.525729 0.155706 0.836280
outer loop
vertex -0.000425 0.000309 0.000851
vertex -0.000671 0.000162 0.000724
vertex -0.000447 0.000000 0.000894
endloop
endfacet
facet normal -0.607057 0.000000 0.794658
outer loop
vertex -0.000671 0.000162 0.000724
vertex -0.000671 -0.000162 0.000724
vertex -0.000447 0.000000 0.000894
endloop
endfacet
facet normal -0.525729 -0.155706 0.836280
outer loop
vertex -0.000447 0.000000 0.000894
vertex -0.000671 -0.000162 0.000724
vertex -0.000425 -0.000309 0.000851
endloop
endfacet
facet normal -0.574859 -0.304617 0.759438
outer loop
vertex -0.000671 -0.000162 0.000724
vertex -0.000610 -0.000443 0.000658
vertex -0.000425 -0.000309 0.000851
endloop
endfacet
facet normal -0.708071 0.304853 0.636946
outer loop
vertex -0.000610 0.000443 0.000658
vertex -0.000813 0.000295 0.000502
vertex -0.000671 0.000162 0.000724
endloop
endfacet
facet normal -0.789510 0.148667 0.595460
outer loop
vertex -0.000813 0.000295 0.000502
vertex -0.000851 0.000000 0.000526
vertex -0.000671 0.000162 0.000724
endloop
endfacet
facet normal -0.740043 0.000000 0.672560
outer loop
vertex -0.000671 0.000162 0.000724
vertex -0.000851 0.000000 0.000526
vertex -0.000671 -0.000162 0.000724
endloop
endfacet
facet normal -0.789510 -0.148667 0.595460
outer loop
vertex -0.000851 0.000000 0.000526
vertex -0.000813 -0.000295 0.000502
vertex -0.000671 -0.000162 0.000724
endloop
endfacet
facet normal -0.708071 -0.304852 0.636946
outer loop
vertex -0.000671 -0.000162 0.000724
vertex -0.000813 -0.000295 0.000502
vertex -0.000610 -0.000443 0.000658
endloop
endfacet
facet normal -0.722992 -0.412071 0.554509
outer loop
vertex -0.000813 -0.000295 0.000502
vertex -0.000724 -0.000526 0.000447
vertex -0.000610 -0.000443 0.000658
endloop
endfacet
facet normal -0.048151 -0.148190 0.987786
outer loop
vertex -0.000203 -0.000148 0.000968
vertex 0.000078 -0.000239 0.000968
vertex 0.000000 0.000000 0.001000
endloop
endfacet
facet normal -0.262729 -0.303920 0.915754
outer loop
vertex -0.000425 -0.000309 0.000851
vertex -0.000138 -0.000425 0.000894
vertex -0.000203 -0.000148 0.000968
endloop
endfacet
facet normal -0.467354 -0.452587 0.759438
outer loop
vertex -0.000610 -0.000443 0.000658
vertex -0.000362 -0.000588 0.000724
vertex -0.000425 -0.000309 0.000851
endloop
endfacet
facet normal -0.089143 -0.274349 0.957489
outer loop
vertex -0.000203 -0.000148 0.000968
vertex -0.000138 -0.000425 0.000894
vertex 0.000078 -0.000239 0.000968
endloop
endfacet
facet normal 0.033908 -0.400305 0.915755
outer loop
vertex -0.000138 -0.000425 0.000894
vertex 0.000162 -0.000500 0.000851
vertex 0.000078 -0.000239 0.000968
endloop
endfacet
facet normal -0.310547 -0.451877 0.836282
outer loop
vertex -0.000425 -0.000309 0.000851
vertex -0.000362 -0.000588 0.000724
vertex -0.000138 -0.000425 0.000894
endloop
endfacet
facet normal -0.187594 -0.577344 0.794659
outer loop
vertex -0.000362 -0.000588 0.000724
vertex -0.000053 -0.000688 0.000724
vertex -0.000138 -0.000425 0.000894
endloop
endfacet
facet normal -0.014375 -0.548111 0.836282
outer loop
vertex -0.000138 -0.000425 0.000894
vertex -0.000053 -0.000688 0.000724
vertex 0.000162 -0.000500 0.000851
endloop
endfacet
facet normal 0.112066 -0.640855 0.759438
outer loop
vertex -0.000053 -0.000688 0.000724
vertex 0.000233 -0.000717 0.000658
vertex 0.000162 -0.000500 0.000851
endloop
endfacet
facet normal -0.508743 -0.579205 0.636948
outer loop
vertex -0.000610 -0.000443 0.000658
vertex -0.000532 -0.000682 0.000502
vertex -0.000362 -0.000588 0.000724
endloop
endfacet
facet normal -0.385367 -0.704925 0.595461
outer loop
vertex -0.000532 -0.000682 0.000502
vertex -0.000263 -0.000809 0.000526
vertex -0.000362 -0.000588 0.000724
endloop
endfacet
facet normal -0.228689 -0.703819 0.672562
outer loop
vertex -0.000362 -0.000588 0.000724
vertex -0.000263 -0.000809 0.000526
vertex -0.000053 -0.000688 0.000724
endloop
endfacet
facet normal -0.102585 -0.796808 0.595461
outer loop
vertex -0.000263 -0.000809 0.000526
vertex 0.000030 -0.000864 0.000502
vertex -0.000053 -0.000688 0.000724
endloop
endfacet
facet normal 0.071125 -0.767619 0.636947
outer loop
vertex -0.000053 -0.000688 0.000724
vertex 0.000030 -0.000864 0.000502
vertex 0.000233 -0.000717 0.000658
endloop
endfacet
facet normal 0.168486 -0.814943 0.554509
outer loop
vertex 0.000030 -0.000864 0.000502
vertex 0.000276 -0.000851 0.000447
vertex 0.000233 -0.000717 0.000658
endloop
endfacet
facet normal 0.126061 -0.091587 0.987786
outer loop
vertex 0.000078 -0.000239 0.000968
vertex 0.000251 0.000000 0.000968
vertex 0.000000 0.000000 0.001000
endloop
endfacet
facet normal 0.207859 -0.343785 0.915754
outer loop
vertex 0.000162 -0.000500 0.000851
vertex 0.000362 -0.000263 0.000894
vertex 0.000078 -0.000239 0.000968
endloop
endfacet
facet normal 0.286017 -0.584336 0.759438
outer loop
vertex 0.000233 -0.000717 0.000658
vertex 0.000447 -0.000526 0.000724
vertex 0.000162 -0.000500 0.000851
endloop
endfacet
facet normal 0.233376 -0.169558 0.957489
outer loop
vertex 0.000078 -0.000239 0.000968
vertex 0.000362 -0.000263 0.000894
vertex 0.000251 0.000000 0.000968
endloop
endfacet
facet normal 0.391194 -0.091450 0.915753
outer loop
vertex 0.000362 -0.000263 0.000894
vertex 0.000526 0.000000 0.000851
vertex 0.000251 0.000000 0.000968
endloop
endfacet
facet normal 0.333798 -0.434985 0.836282
outer loop
vertex 0.000162 -0.000500 0.000851
vertex 0.000447 -0.000526 0.000724
vertex 0.000362 -0.000263 0.000894
endloop
endfacet
facet normal 0.491120 -0.356819 0.794658
outer loop
vertex 0.000447 -0.000526 0.000724
vertex 0.000638 -0.000263 0.000724
vertex 0.000362 -0.000263 0.000894
endloop
endfacet
facet normal 0.516845 -0.183046 0.836281
outer loop
vertex 0.000362 -0.000263 0.000894
vertex 0.000638 -0.000263 0.000724
vertex 0.000526 0.000000 0.000851
endloop
endfacet
facet normal 0.644125 -0.091451 0.759434
outer loop
vertex 0.000638 -0.000263 0.000724
vertex 0.000753 0.000000 0.000658
vertex 0.000526 0.000000 0.000851
endloop
endfacet
facet normal 0.393647 -0.662827 0.636948
outer loop
vertex 0.000233 -0.000717 0.000658
vertex 0.000484 -0.000717 0.000502
vertex 0.000447 -0.000526 0.000724
endloop
endfacet
facet normal 0.551342 -0.584336 0.595460
outer loop
vertex 0.000484 -0.000717 0.000502
vertex 0.000688 -0.000500 0.000526
vertex 0.000447 -0.000526 0.000724
endloop
endfacet
facet normal 0.598705 -0.434986 0.672561
outer loop
vertex 0.000447 -0.000526 0.000724
vertex 0.000688 -0.000500 0.000526
vertex 0.000638 -0.000263 0.000724
endloop
endfacet
facet normal 0.726114 -0.343786 0.595458
outer loop
vertex 0.000688 -0.000500 0.000526
vertex 0.000831 -0.000239 0.000502
vertex 0.000638 -0.000263 0.000724
endloop
endfacet
facet normal 0.752031 -0.169559 0.636945
outer loop
vertex 0.000638 -0.000263 0.000724
vertex 0.000831 -0.000239 0.000502
vertex 0.000753 0.000000 0.000658
endloop
endfacet
facet normal 0.827125 -0.091587 0.554505
outer loop
vertex 0.000831 -0.000239 0.000502
vertex 0.000894 0.000000 0.000447
vertex 0.000753 0.000000 0.000658
endloop
endfacet
facet normal 0.905035 0.148193 0.398686
outer loop
vertex 0.000957 0.000148 0.000251
vertex 0.000831 0.000239 0.000502
vertex 0.000894 0.000000 0.000447
endloop
endfacet
facet normal 0.936571 0.303923 0.174544
outer loop
vertex 0.000951 0.000309 0.000000
vertex 0.000862 0.000425 0.000276
vertex 0.000957 0.000148 0.000251
endloop
endfacet
facet normal 0.888267 0.452590 -0.078388
outer loop
vertex 0.000861 0.000443 -0.000251
vertex 0.000809 0.000588 0.000000
vertex 0.000951 0.000309 0.000000
endloop
endfacet
facet normal 0.896269 0.274349 0.348473
outer loop
vertex 0.000957 0.000148 0.000251
vertex 0.000862 0.000425 0.000276
vertex 0.000831 0.000239 0.000502
endloop
endfacet
facet normal 0.803908 0.400308 0.439870
outer loop
vertex 0.000862 0.000425 0.000276
vertex 0.000688 0.000500 0.000526
vertex 0.000831 0.000239 0.000502
endloop
endfacet
facet normal 0.886873 0.451880 0.096235
outer loop
vertex 0.000951 0.000309 0.000000
vertex 0.000809 0.000588 0.000000
vertex 0.000862 0.000425 0.000276
endloop
endfacet
facet normal 0.794655 0.577349 0.187594
outer loop
vertex 0.000809 0.000588 0.000000
vertex 0.000671 0.000688 0.000276
vertex 0.000862 0.000425 0.000276
endloop
endfacet
facet normal 0.754418 0.548113 0.361144
outer loop
vertex 0.000862 0.000425 0.000276
vertex 0.000671 0.000688 0.000276
vertex 0.000688 0.000500 0.000526
endloop
endfacet
facet normal 0.629137 0.640859 0.439872
outer loop
vertex 0.000671 0.000688 0.000276
vertex 0.000484 0.000717 0.000502
vertex 0.000688 0.000500 0.000526
endloop
endfacet
facet normal 0.797217 0.579207 -0.170186
outer loop
vertex 0.000861 0.000443 -0.000251
vertex 0.000687 0.000682 -0.000251
vertex 0.000809 0.000588 0.000000
endloop
endfacet
facet normal 0.704932 0.704929 -0.078388
outer loop
vertex 0.000687 0.000682 -0.000251
vertex 0.000588 0.000809 -0.000000
vertex 0.000809 0.000588 0.000000
endloop
endfacet
facet normal 0.703827 0.703823 0.096235
outer loop
vertex 0.000809 0.000588 0.000000
vertex 0.000588 0.000809 -0.000000
vertex 0.000671 0.000688 0.000276
endloop
endfacet
facet normal 0.578465 0.796813 0.174546
outer loop
vertex 0.000588 0.000809 -0.000000
vertex 0.000436 0.000864 0.000251
vertex 0.000671 0.000688 0.000276
endloop
endfacet
facet normal 0.537886 0.767622 0.348475
outer loop
vertex 0.000671 0.000688 0.000276
vertex 0.000436 0.000864 0.000251
vertex 0.000484 0.000717 0.000502
endloop
endfacet
facet normal 0.420607 0.814945 0.398690
outer loop
vertex 0.000436 0.000864 0.000251
vertex 0.000276 0.000851 0.000447
vertex 0.000484 0.000717 0.000502
endloop
endfacet
facet normal 0.138726 0.906533 0.398689
outer loop
vertex 0.000155 0.000955 0.000251
vertex 0.000030 0.000864 0.000502
vertex 0.000276 0.000851 0.000447
endloop
endfacet
facet normal 0.000363 0.984649 0.174545
outer loop
vertex 0.000000 0.001000 0.000000
vertex -0.000138 0.000951 0.000276
vertex 0.000155 0.000955 0.000251
endloop
endfacet
facet normal -0.155952 0.984649 -0.078389
outer loop
vertex -0.000155 0.000955 -0.000251
vertex -0.000309 0.000951 -0.000000
vertex 0.000000 0.001000 0.000000
endloop
endfacet
facet normal 0.016035 0.937181 0.348476
outer loop
vertex 0.000155 0.000955 0.000251
vertex -0.000138 0.000951 0.000276
vertex 0.000030 0.000864 0.000502
endloop
endfacet
facet normal -0.132301 0.888262 0.439871
outer loop
vertex -0.000138 0.000951 0.000276
vertex -0.000263 0.000809 0.000526
vertex 0.000030 0.000864 0.000502
endloop
endfacet
facet normal -0.155708 0.983104 0.096236
outer loop
vertex 0.000000 0.001000 0.000000
vertex -0.000309 0.000951 -0.000000
vertex -0.000138 0.000951 0.000276
endloop
endfacet
facet normal -0.303533 0.934172 0.187593
outer loop
vertex -0.000309 0.000951 -0.000000
vertex -0.000447 0.000851 0.000276
vertex -0.000138 0.000951 0.000276
endloop
endfacet
facet normal -0.288163 0.886868 0.361147
outer loop
vertex -0.000138 0.000951 0.000276
vertex -0.000447 0.000851 0.000276
vertex -0.000263 0.000809 0.000526
endloop
endfacet
facet normal -0.415083 0.796378 0.439872
outer loop
vertex -0.000447 0.000851 0.000276
vertex -0.000532 0.000682 0.000502
vertex -0.000263 0.000809 0.000526
endloop
endfacet
facet normal -0.304507 0.937183 -0.170186
outer loop
vertex -0.000155 0.000955 -0.000251
vertex -0.000436 0.000864 -0.000251
vertex -0.000309 0.000951 -0.000000
endloop
endfacet
facet normal -0.452594 0.888265 -0.078389
outer loop
vertex -0.000436 0.000864 -0.000251
vertex -0.000588 0.000809 -0.000000
vertex -0.000309 0.000951 -0.000000
endloop
endfacet
facet normal -0.451883 0.886871 0.096236
outer loop
vertex -0.000309 0.000951 -0.000000
vertex -0.000588 0.000809 -0.000000
vertex -0.000447 0.000851 0.000276
endloop
endfacet
facet normal -0.579060 0.796381 0.174545
outer loop
vertex -0.000588 0.000809 -0.000000
vertex -0.000687 0.000682 0.000251
vertex -0.000447 0.000851 0.000276
endloop
endfacet
facet normal -0.563837 0.748767 0.348477
outer loop
vertex -0.000447 0.000851 0.000276
vertex -0.000687 0.000682 0.000251
vertex -0.000532 0.000682 0.000502
endloop
endfacet
facet normal -0.645086 0.651852 0.398689
outer loop
vertex -0.000687 0.000682 0.000251
vertex -0.000724 0.000526 0.000447
vertex -0.000532 0.000682 0.000502
endloop
endfacet
facet normal -0.819296 0.412072 0.398687
outer loop
vertex -0.000861 0.000443 0.000251
vertex -0.000813 0.000295 0.000502
vertex -0.000724 0.000526 0.000447
endloop
endfacet
facet normal -0.936345 0.304618 0.174544
outer loop
vertex -0.000951 0.000309 0.000000
vertex -0.000947 0.000162 0.000276
vertex -0.000861 0.000443 0.000251
endloop
endfacet
facet normal -0.984650 0.155951 -0.078388
outer loop
vertex -0.000957 0.000148 -0.000251
vertex -0.001000 -0.000000 0.000000
vertex -0.000951 0.000309 0.000000
endloop
endfacet
facet normal -0.886357 0.304854 0.348476
outer loop
vertex -0.000861 0.000443 0.000251
vertex -0.000947 0.000162 0.000276
vertex -0.000813 0.000295 0.000502
endloop
endfacet
facet normal -0.885671 0.148666 0.439869
outer loop
vertex -0.000947 0.000162 0.000276
vertex -0.000851 0.000000 0.000526
vertex -0.000813 0.000295 0.000502
endloop
endfacet
facet normal -0.983104 0.155707 0.096236
outer loop
vertex -0.000951 0.000309 0.000000
vertex -0.001000 -0.000000 0.000000
vertex -0.000947 0.000162 0.000276
endloop
endfacet
facet normal -0.982247 -0.000000 0.187592
outer loop
vertex -0.001000 -0.000000 0.000000
vertex -0.000947 -0.000162 0.000276
vertex -0.000947 0.000162 0.000276
endloop
endfacet
facet normal -0.932509 0.000000 0.361146
outer loop
vertex -0.000947 0.000162 0.000276
vertex -0.000947 -0.000162 0.000276
vertex -0.000851 0.000000 0.000526
endloop
endfacet
facet normal -0.885671 -0.148667 0.439870
outer loop
vertex -0.000947 -0.000162 0.000276
vertex -0.000813 -0.000295 0.000502
vertex -0.000851 0.000000 0.000526
endloop
endfacet
facet normal -0.985413 0.000000 -0.170183
outer loop
vertex -0.000957 0.000148 -0.000251
vertex -0.000957 -0.000148 -0.000251
vertex -0.001000 -0.000000 0.000000
endloop
endfacet
facet normal -0.984649 -0.155951 -0.078388
outer loop
vertex -0.000957 -0.000148 -0.000251
vertex -0.000951 -0.000309 -0.000000
vertex -0.001000 -0.000000 0.000000
endloop
endfacet
facet normal -0.983104 -0.155707 0.096237
outer loop
vertex -0.001000 -0.000000 0.000000
vertex -0.000951 -0.000309 -0.000000
vertex -0.000947 -0.000162 0.000276
endloop
endfacet
facet normal -0.936345 -0.304617 0.174544
outer loop
vertex -0.000951 -0.000309 -0.000000
vertex -0.000861 -0.000443 0.000251
vertex -0.000947 -0.000162 0.000276
endloop
endfacet
facet normal -0.886357 -0.304854 0.348476
outer loop
vertex -0.000947 -0.000162 0.000276
vertex -0.000861 -0.000443 0.000251
vertex -0.000813 -0.000295 0.000502
endloop
endfacet
facet normal -0.819296 -0.412072 0.398687
outer loop
vertex -0.000861 -0.000443 0.000251
vertex -0.000724 -0.000526 0.000447
vertex -0.000813 -0.000295 0.000502
endloop
endfacet
facet normal -0.645086 -0.651853 0.398688
outer loop
vertex -0.000687 -0.000682 0.000251
vertex -0.000532 -0.000682 0.000502
vertex -0.000724 -0.000526 0.000447
endloop
endfacet
facet normal -0.579061 -0.796381 0.174546
outer loop
vertex -0.000588 -0.000809 0.000000
vertex -0.000447 -0.000851 0.000276
vertex -0.000687 -0.000682 0.000251
endloop
endfacet
facet normal -0.452594 -0.888265 -0.078389
outer loop
vertex -0.000436 -0.000864 -0.000251
vertex -0.000309 -0.000951 -0.000000
vertex -0.000588 -0.000809 0.000000
endloop
endfacet
facet normal -0.563838 -0.748767 0.348476
outer loop
vertex -0.000687 -0.000682 0.000251
vertex -0.000447 -0.000851 0.000276
vertex -0.000532 -0.000682 0.000502
endloop
endfacet
facet normal -0.415083 -0.796379 0.439871
outer loop
vertex -0.000447 -0.000851 0.000276
vertex -0.000263 -0.000809 0.000526
vertex -0.000532 -0.000682 0.000502
endloop
endfacet
facet normal -0.451883 -0.886871 0.096236
outer loop
vertex -0.000588 -0.000809 0.000000
vertex -0.000309 -0.000951 -0.000000
vertex -0.000447 -0.000851 0.000276
endloop
endfacet
facet normal -0.303534 -0.934171 0.187594
outer loop
vertex -0.000309 -0.000951 -0.000000
vertex -0.000138 -0.000951 0.000276
vertex -0.000447 -0.000851 0.000276
endloop
endfacet
facet normal -0.288164 -0.886868 0.361146
outer loop
vertex -0.000447 -0.000851 0.000276
vertex -0.000138 -0.000951 0.000276
vertex -0.000263 -0.000809 0.000526
endloop
endfacet
facet normal -0.132300 -0.888262 0.439871
outer loop
vertex -0.000138 -0.000951 0.000276
vertex 0.000030 -0.000864 0.000502
vertex -0.000263 -0.000809 0.000526
endloop
endfacet
facet normal -0.304507 -0.937183 -0.170186
outer loop
vertex -0.000436 -0.000864 -0.000251
vertex -0.000155 -0.000955 -0.000251
vertex -0.000309 -0.000951 -0.000000
endloop
endfacet
facet normal -0.155953 -0.984649 -0.078389
outer loop
vertex -0.000155 -0.000955 -0.000251
vertex 0.000000 -0.001000 -0.000000
vertex -0.000309 -0.000951 -0.000000
endloop
endfacet
facet normal -0.155708 -0.983104 0.096235
outer loop
vertex -0.000309 -0.000951 -0.000000
vertex 0.000000 -0.001000 -0.000000
vertex -0.000138 -0.000951 0.000276
endloop
endfacet
facet normal 0.000363 -0.984649 0.174545
outer loop
vertex 0.000000 -0.001000 -0.000000
vertex 0.000155 -0.000955 0.000251
vertex -0.000138 -0.000951 0.000276
endloop
endfacet
facet normal 0.016034 -0.937181 0.348476
outer loop
vertex -0.000138 -0.000951 0.000276
vertex 0.000155 -0.000955 0.000251
vertex 0.000030 -0.000864 0.000502
endloop
endfacet
facet normal 0.138726 -0.906533 0.398689
outer loop
vertex 0.000155 -0.000955 0.000251
vertex 0.000276 -0.000851 0.000447
vertex 0.000030 -0.000864 0.000502
endloop
endfacet
facet normal 0.420607 -0.814945 0.398690
outer loop
vertex 0.000436 -0.000864 0.000251
vertex 0.000484 -0.000717 0.000502
vertex 0.000276 -0.000851 0.000447
endloop
endfacet
facet normal 0.578465 -0.796813 0.174546
outer loop
vertex 0.000588 -0.000809 0.000000
vertex 0.000671 -0.000688 0.000276
vertex 0.000436 -0.000864 0.000251
endloop
endfacet
facet normal 0.704932 -0.704930 -0.078389
outer loop
vertex 0.000687 -0.000682 -0.000251
vertex 0.000809 -0.000588 -0.000000
vertex 0.000588 -0.000809 0.000000
endloop
endfacet
facet normal 0.537887 -0.767622 0.348475
outer loop
vertex 0.000436 -0.000864 0.000251
vertex 0.000671 -0.000688 0.000276
vertex 0.000484 -0.000717 0.000502
endloop
endfacet
facet normal 0.629137 -0.640859 0.439871
outer loop
vertex 0.000671 -0.000688 0.000276
vertex 0.000688 -0.000500 0.000526
vertex 0.000484 -0.000717 0.000502
endloop
endfacet
facet normal 0.703826 -0.703824 0.096235
outer loop
vertex 0.000588 -0.000809 0.000000
vertex 0.000809 -0.000588 -0.000000
vertex 0.000671 -0.000688 0.000276
endloop
endfacet
facet normal 0.794655 -0.577350 0.187592
outer loop
vertex 0.000809 -0.000588 -0.000000
vertex 0.000862 -0.000425 0.000276
vertex 0.000671 -0.000688 0.000276
endloop
endfacet
facet normal 0.754417 -0.548114 0.361144
outer loop
vertex 0.000671 -0.000688 0.000276
vertex 0.000862 -0.000425 0.000276
vertex 0.000688 -0.000500 0.000526
endloop
endfacet
facet normal 0.803908 -0.400308 0.439869
outer loop
vertex 0.000862 -0.000425 0.000276
vertex 0.000831 -0.000239 0.000502
vertex 0.000688 -0.000500 0.000526
endloop
endfacet
facet normal 0.797217 -0.579207 -0.170188
outer loop
vertex 0.000687 -0.000682 -0.000251
vertex 0.000861 -0.000443 -0.000251
vertex 0.000809 -0.000588 -0.000000
endloop
endfacet
facet normal 0.888267 -0.452589 -0.078388
outer loop
vertex 0.000861 -0.000443 -0.000251
vertex 0.000951 -0.000309 -0.000000
vertex 0.000809 -0.000588 -0.000000
endloop
endfacet
facet normal 0.886873 -0.451881 0.096233
outer loop
vertex 0.000809 -0.000588 -0.000000
vertex 0.000951 -0.000309 -0.000000
vertex 0.000862 -0.000425 0.000276
endloop
endfacet
facet normal 0.936571 -0.303923 0.174544
outer loop
vertex 0.000951 -0.000309 -0.000000
vertex 0.000957 -0.000148 0.000251
vertex 0.000862 -0.000425 0.000276
endloop
endfacet
facet normal 0.896269 -0.274351 0.348473
outer loop
vertex 0.000862 -0.000425 0.000276
vertex 0.000957 -0.000148 0.000251
vertex 0.000831 -0.000239 0.000502
endloop
endfacet
facet normal 0.905035 -0.148193 0.398686
outer loop
vertex 0.000957 -0.000148 0.000251
vertex 0.000894 0.000000 0.000447
vertex 0.000831 -0.000239 0.000502
endloop
endfacet
facet normal 0.294548 0.906533 0.302388
outer loop
vertex 0.000436 0.000864 0.000251
vertex 0.000155 0.000955 0.000251
vertex 0.000276 0.000851 0.000447
endloop
endfacet
facet normal 0.452594 0.888265 0.078388
outer loop
vertex 0.000588 0.000809 -0.000000
vertex 0.000309 0.000951 -0.000000
vertex 0.000436 0.000864 0.000251
endloop
endfacet
facet normal 0.579061 0.796380 -0.174546
outer loop
vertex 0.000687 0.000682 -0.000251
vertex 0.000447 0.000851 -0.000276
vertex 0.000588 0.000809 -0.000000
endloop
endfacet
facet normal 0.304507 0.937183 0.170186
outer loop
vertex 0.000436 0.000864 0.000251
vertex 0.000309 0.000951 -0.000000
vertex 0.000155 0.000955 0.000251
endloop
endfacet
facet normal 0.155953 0.984649 0.078388
outer loop
vertex 0.000309 0.000951 -0.000000
vertex 0.000000 0.001000 0.000000
vertex 0.000155 0.000955 0.000251
endloop
endfacet
facet normal 0.451883 0.886871 -0.096236
outer loop
vertex 0.000588 0.000809 -0.000000
vertex 0.000447 0.000851 -0.000276
vertex 0.000309 0.000951 -0.000000
endloop
endfacet
facet normal 0.303533 0.934171 -0.187594
outer loop
vertex 0.000447 0.000851 -0.000276
vertex 0.000138 0.000951 -0.000276
vertex 0.000309 0.000951 -0.000000
endloop
endfacet
facet normal 0.155708 0.983104 -0.096236
outer loop
vertex 0.000309 0.000951 -0.000000
vertex 0.000138 0.000951 -0.000276
vertex 0.000000 0.001000 0.000000
endloop
endfacet
facet normal -0.000363 0.984649 -0.174545
outer loop
vertex 0.000138 0.000951 -0.000276
vertex -0.000155 0.000955 -0.000251
vertex 0.000000 0.001000 0.000000
endloop
endfacet
facet normal 0.563838 0.748766 -0.348476
outer loop
vertex 0.000687 0.000682 -0.000251
vertex 0.000532 0.000682 -0.000502
vertex 0.000447 0.000851 -0.000276
endloop
endfacet
facet normal 0.415083 0.796378 -0.439872
outer loop
vertex 0.000532 0.000682 -0.000502
vertex 0.000263 0.000809 -0.000526
vertex 0.000447 0.000851 -0.000276
endloop
endfacet
facet normal 0.288164 0.886868 -0.361146
outer loop
vertex 0.000447 0.000851 -0.000276
vertex 0.000263 0.000809 -0.000526
vertex 0.000138 0.000951 -0.000276
endloop
endfacet
facet normal 0.132300 0.888262 -0.439872
outer loop
vertex 0.000263 0.000809 -0.000526
vertex -0.000030 0.000864 -0.000502
vertex 0.000138 0.000951 -0.000276
endloop
endfacet
facet normal -0.016035 0.937181 -0.348476
outer loop
vertex 0.000138 0.000951 -0.000276
vertex -0.000030 0.000864 -0.000502
vertex -0.000155 0.000955 -0.000251
endloop
endfacet
facet normal -0.138726 0.906533 -0.398689
outer loop
vertex -0.000030 0.000864 -0.000502
vertex -0.000276 0.000851 -0.000447
vertex -0.000155 0.000955 -0.000251
endloop
endfacet
facet normal -0.771146 0.560264 0.302388
outer loop
vertex -0.000687 0.000682 0.000251
vertex -0.000861 0.000443 0.000251
vertex -0.000724 0.000526 0.000447
endloop
endfacet
facet normal -0.704932 0.704930 0.078389
outer loop
vertex -0.000588 0.000809 -0.000000
vertex -0.000809 0.000588 -0.000000
vertex -0.000687 0.000682 0.000251
endloop
endfacet
facet normal -0.578465 0.796814 -0.174545
outer loop
vertex -0.000436 0.000864 -0.000251
vertex -0.000671 0.000688 -0.000276
vertex -0.000588 0.000809 -0.000000
endloop
endfacet
facet normal -0.797217 0.579207 0.170186
outer loop
vertex -0.000687 0.000682 0.000251
vertex -0.000809 0.000588 -0.000000
vertex -0.000861 0.000443 0.000251
endloop
endfacet
facet normal -0.888267 0.452590 0.078387
outer loop
vertex -0.000809 0.000588 -0.000000
vertex -0.000951 0.000309 0.000000
vertex -0.000861 0.000443 0.000251
endloop
endfacet
facet normal -0.703826 0.703824 -0.096235
outer loop
vertex -0.000588 0.000809 -0.000000
vertex -0.000671 0.000688 -0.000276
vertex -0.000809 0.000588 -0.000000
endloop
endfacet
facet normal -0.794654 0.577350 -0.187594
outer loop
vertex -0.000671 0.000688 -0.000276
vertex -0.000862 0.000425 -0.000276
vertex -0.000809 0.000588 -0.000000
endloop
endfacet
facet normal -0.886873 0.451880 -0.096235
outer loop
vertex -0.000809 0.000588 -0.000000
vertex -0.000862 0.000425 -0.000276
vertex -0.000951 0.000309 0.000000
endloop
endfacet
facet normal -0.936571 0.303924 -0.174545
outer loop
vertex -0.000862 0.000425 -0.000276
vertex -0.000957 0.000148 -0.000251
vertex -0.000951 0.000309 0.000000
endloop
endfacet
facet normal -0.537885 0.767622 -0.348476
outer loop
vertex -0.000436 0.000864 -0.000251
vertex -0.000484 0.000717 -0.000502
vertex -0.000671 0.000688 -0.000276
endloop
endfacet
facet normal -0.629137 0.640858 -0.439872
outer loop
vertex -0.000484 0.000717 -0.000502
vertex -0.000688 0.000500 -0.000526
vertex -0.000671 0.000688 -0.000276
endloop
endfacet
facet normal -0.754417 0.548115 -0.361144
outer loop
vertex -0.000671 0.000688 -0.000276
vertex -0.000688 0.000500 -0.000526
vertex -0.000862 0.000425 -0.000276
endloop
endfacet
facet normal -0.803908 0.400308 -0.439870
outer loop
vertex -0.000688 0.000500 -0.000526
vertex -0.000831 0.000239 -0.000502
vertex -0.000862 0.000425 -0.000276
endloop
endfacet
facet normal -0.896269 0.274351 -0.348473
outer loop
vertex -0.000862 0.000425 -0.000276
vertex -0.000831 0.000239 -0.000502
vertex -0.000957 0.000148 -0.000251
endloop
endfacet
facet normal -0.905035 0.148192 -0.398685
outer loop
vertex -0.000831 0.000239 -0.000502
vertex -0.000894 0.000000 -0.000447
vertex -0.000957 0.000148 -0.000251
endloop
endfacet
facet normal -0.771145 -0.560265 0.302387
outer loop
vertex -0.000861 -0.000443 0.000251
vertex -0.000687 -0.000682 0.000251
vertex -0.000724 -0.000526 0.000447
endloop
endfacet
facet normal -0.888266 -0.452591 0.078387
outer loop
vertex -0.000951 -0.000309 -0.000000
vertex -0.000809 -0.000588 0.000000
vertex -0.000861 -0.000443 0.000251
endloop
endfacet
facet normal -0.936571 -0.303923 -0.174545
outer loop
vertex -0.000957 -0.000148 -0.000251
vertex -0.000862 -0.000425 -0.000276
vertex -0.000951 -0.000309 -0.000000
endloop
endfacet
facet normal -0.797217 -0.579207 0.170187
outer loop
vertex -0.000861 -0.000443 0.000251
vertex -0.000809 -0.000588 0.000000
vertex -0.000687 -0.000682 0.000251
endloop
endfacet
facet normal -0.704932 -0.704930 0.078389
outer loop
vertex -0.000809 -0.000588 0.000000
vertex -0.000588 -0.000809 0.000000
vertex -0.000687 -0.000682 0.000251
endloop
endfacet
facet normal -0.886873 -0.451880 -0.096234
outer loop
vertex -0.000951 -0.000309 -0.000000
vertex -0.000862 -0.000425 -0.000276
vertex -0.000809 -0.000588 0.000000
endloop
endfacet
facet normal -0.794654 -0.577350 -0.187594
outer loop
vertex -0.000862 -0.000425 -0.000276
vertex -0.000671 -0.000688 -0.000276
vertex -0.000809 -0.000588 0.000000
endloop
endfacet
facet normal -0.703826 -0.703824 -0.096235
outer loop
vertex -0.000809 -0.000588 0.000000
vertex -0.000671 -0.000688 -0.000276
vertex -0.000588 -0.000809 0.000000
endloop
endfacet
facet normal -0.578465 -0.796814 -0.174546
outer loop
vertex -0.000671 -0.000688 -0.000276
vertex -0.000436 -0.000864 -0.000251
vertex -0.000588 -0.000809 0.000000
endloop
endfacet
facet normal -0.896269 -0.274351 -0.348473
outer loop
vertex -0.000957 -0.000148 -0.000251
vertex -0.000831 -0.000239 -0.000502
vertex -0.000862 -0.000425 -0.000276
endloop
endfacet
facet normal -0.803908 -0.400307 -0.439870
outer loop
vertex -0.000831 -0.000239 -0.000502
vertex -0.000688 -0.000500 -0.000526
vertex -0.000862 -0.000425 -0.000276
endloop
endfacet
facet normal -0.754417 -0.548115 -0.361145
outer loop
vertex -0.000862 -0.000425 -0.000276
vertex -0.000688 -0.000500 -0.000526
vertex -0.000671 -0.000688 -0.000276
endloop
endfacet
facet normal -0.629137 -0.640859 -0.439872
outer loop
vertex -0.000688 -0.000500 -0.000526
vertex -0.000484 -0.000717 -0.000502
vertex -0.000671 -0.000688 -0.000276
endloop
endfacet
facet normal -0.537885 -0.767622 -0.348476
outer loop
vertex -0.000671 -0.000688 -0.000276
vertex -0.000484 -0.000717 -0.000502
vertex -0.000436 -0.000864 -0.000251
endloop
endfacet
facet normal -0.420607 -0.814945 -0.398690
outer loop
vertex -0.000484 -0.000717 -0.000502
vertex -0.000276 -0.000851 -0.000447
vertex -0.000436 -0.000864 -0.000251
endloop
endfacet
facet normal 0.294548 -0.906533 0.302388
outer loop
vertex 0.000155 -0.000955 0.000251
vertex 0.000436 -0.000864 0.000251
vertex 0.000276 -0.000851 0.000447
endloop
endfacet
facet normal 0.155953 -0.984649 0.078388
outer loop
vertex 0.000000 -0.001000 -0.000000
vertex 0.000309 -0.000951 0.000000
vertex 0.000155 -0.000955 0.000251
endloop
endfacet
facet normal -0.000363 -0.984649 -0.174544
outer loop
vertex -0.000155 -0.000955 -0.000251
vertex 0.000138 -0.000951 -0.000276
vertex 0.000000 -0.001000 -0.000000
endloop
endfacet
facet normal 0.304507 -0.937183 0.170186
outer loop
vertex 0.000155 -0.000955 0.000251
vertex 0.000309 -0.000951 0.000000
vertex 0.000436 -0.000864 0.000251
endloop
endfacet
facet normal 0.452594 -0.888264 0.078389
outer loop
vertex 0.000309 -0.000951 0.000000
vertex 0.000588 -0.000809 0.000000
vertex 0.000436 -0.000864 0.000251
endloop
endfacet
facet normal 0.155708 -0.983104 -0.096236
outer loop
vertex 0.000000 -0.001000 -0.000000
vertex 0.000138 -0.000951 -0.000276
vertex 0.000309 -0.000951 0.000000
endloop
endfacet
facet normal 0.303534 -0.934171 -0.187594
outer loop
vertex 0.000138 -0.000951 -0.000276
vertex 0.000447 -0.000851 -0.000276
vertex 0.000309 -0.000951 0.000000
endloop
endfacet
facet normal 0.451884 -0.886871 -0.096236
outer loop
vertex 0.000309 -0.000951 0.000000
vertex 0.000447 -0.000851 -0.000276
vertex 0.000588 -0.000809 0.000000
endloop
endfacet
facet normal 0.579061 -0.796381 -0.174545
outer loop
vertex 0.000447 -0.000851 -0.000276
vertex 0.000687 -0.000682 -0.000251
vertex 0.000588 -0.000809 0.000000
endloop
endfacet
facet normal -0.016035 -0.937181 -0.348476
outer loop
vertex -0.000155 -0.000955 -0.000251
vertex -0.000030 -0.000864 -0.000502
vertex 0.000138 -0.000951 -0.000276
endloop
endfacet
facet normal 0.132300 -0.888262 -0.439872
outer loop
vertex -0.000030 -0.000864 -0.000502
vertex 0.000263 -0.000809 -0.000526
vertex 0.000138 -0.000951 -0.000276
endloop
endfacet
facet normal 0.288164 -0.886868 -0.361147
outer loop
vertex 0.000138 -0.000951 -0.000276
vertex 0.000263 -0.000809 -0.000526
vertex 0.000447 -0.000851 -0.000276
endloop
endfacet
facet normal 0.415083 -0.796378 -0.439873
outer loop
vertex 0.000263 -0.000809 -0.000526
vertex 0.000532 -0.000682 -0.000502
vertex 0.000447 -0.000851 -0.000276
endloop
endfacet
facet normal 0.563838 -0.748766 -0.348477
outer loop
vertex 0.000447 -0.000851 -0.000276
vertex 0.000532 -0.000682 -0.000502
vertex 0.000687 -0.000682 -0.000251
endloop
endfacet
facet normal 0.645086 -0.651853 -0.398689
outer loop
vertex 0.000532 -0.000682 -0.000502
vertex 0.000724 -0.000526 -0.000447
vertex 0.000687 -0.000682 -0.000251
endloop
endfacet
facet normal 0.953185 0.000000 0.302386
outer loop
vertex 0.000957 -0.000148 0.000251
vertex 0.000957 0.000148 0.000251
vertex 0.000894 0.000000 0.000447
endloop
endfacet
facet normal 0.984649 -0.155951 0.078388
outer loop
vertex 0.000951 -0.000309 -0.000000
vertex 0.001000 0.000000 0.000000
vertex 0.000957 -0.000148 0.000251
endloop
endfacet
facet normal 0.936345 -0.304618 -0.174544
outer loop
vertex 0.000861 -0.000443 -0.000251
vertex 0.000947 -0.000162 -0.000276
vertex 0.000951 -0.000309 -0.000000
endloop
endfacet
facet normal 0.985412 0.000000 0.170184
outer loop
vertex 0.000957 -0.000148 0.000251
vertex 0.001000 0.000000 0.000000
vertex 0.000957 0.000148 0.000251
endloop
endfacet
facet normal 0.984649 0.155951 0.078388
outer loop
vertex 0.001000 0.000000 0.000000
vertex 0.000951 0.000309 0.000000
vertex 0.000957 0.000148 0.000251
endloop
endfacet
facet normal 0.983104 -0.155707 -0.096236
outer loop
vertex 0.000951 -0.000309 -0.000000
vertex 0.000947 -0.000162 -0.000276
vertex 0.001000 0.000000 0.000000
endloop
endfacet
facet normal 0.982247 0.000000 -0.187592
outer loop
vertex 0.000947 -0.000162 -0.000276
vertex 0.000947 0.000162 -0.000276
vertex 0.001000 0.000000 0.000000
endloop
endfacet
facet normal 0.983104 0.155706 -0.096236
outer loop
vertex 0.001000 0.000000 0.000000
vertex 0.000947 0.000162 -0.000276
vertex 0.000951 0.000309 0.000000
endloop
endfacet
facet normal 0.936345 0.304618 -0.174544
outer loop
vertex 0.000947 0.000162 -0.000276
vertex 0.000861 0.000443 -0.000251
vertex 0.000951 0.000309 0.000000
endloop
endfacet
facet normal 0.886357 -0.304854 -0.348476
outer loop
vertex 0.000861 -0.000443 -0.000251
vertex 0.000813 -0.000295 -0.000502
vertex 0.000947 -0.000162 -0.000276
endloop
endfacet
facet normal 0.885671 -0.148666 -0.439870
outer loop
vertex 0.000813 -0.000295 -0.000502
vertex 0.000851 0.000000 -0.000526
vertex 0.000947 -0.000162 -0.000276
endloop
endfacet
facet normal 0.932509 0.000000 -0.361146
outer loop
vertex 0.000947 -0.000162 -0.000276
vertex 0.000851 0.000000 -0.000526
vertex 0.000947 0.000162 -0.000276
endloop
endfacet
facet normal 0.885671 0.148666 -0.439870
outer loop
vertex 0.000851 0.000000 -0.000526
vertex 0.000813 0.000295 -0.000502
vertex 0.000947 0.000162 -0.000276
endloop
endfacet
facet normal 0.886357 0.304854 -0.348476
outer loop
vertex 0.000947 0.000162 -0.000276
vertex 0.000813 0.000295 -0.000502
vertex 0.000861 0.000443 -0.000251
endloop
endfacet
facet normal 0.819296 0.412072 -0.398687
outer loop
vertex 0.000813 0.000295 -0.000502
vertex 0.000724 0.000526 -0.000447
vertex 0.000861 0.000443 -0.000251
endloop
endfacet
facet normal 0.615326 0.560263 -0.554509
outer loop
vertex 0.000610 0.000443 -0.000658
vertex 0.000532 0.000682 -0.000502
vertex 0.000724 0.000526 -0.000447
endloop
endfacet
facet normal 0.467353 0.452587 -0.759438
outer loop
vertex 0.000425 0.000309 -0.000851
vertex 0.000362 0.000588 -0.000724
vertex 0.000610 0.000443 -0.000658
endloop
endfacet
facet normal 0.262728 0.303921 -0.915754
outer loop
vertex 0.000203 0.000148 -0.000968
vertex 0.000138 0.000425 -0.000894
vertex 0.000425 0.000309 -0.000851
endloop
endfacet
facet normal 0.508743 0.579205 -0.636948
outer loop
vertex 0.000610 0.000443 -0.000658
vertex 0.000362 0.000588 -0.000724
vertex 0.000532 0.000682 -0.000502
endloop
endfacet
facet normal 0.385367 0.704925 -0.595460
outer loop
vertex 0.000362 0.000588 -0.000724
vertex 0.000263 0.000809 -0.000526
vertex 0.000532 0.000682 -0.000502
endloop
endfacet
facet normal 0.310547 0.451878 -0.836282
outer loop
vertex 0.000425 0.000309 -0.000851
vertex 0.000138 0.000425 -0.000894
vertex 0.000362 0.000588 -0.000724
endloop
endfacet
facet normal 0.187593 0.577346 -0.794658
outer loop
vertex 0.000138 0.000425 -0.000894
vertex 0.000053 0.000688 -0.000724
vertex 0.000362 0.000588 -0.000724
endloop
endfacet
facet normal 0.228688 0.703819 -0.672563
outer loop
vertex 0.000362 0.000588 -0.000724
vertex 0.000053 0.000688 -0.000724
vertex 0.000263 0.000809 -0.000526
endloop
endfacet
facet normal 0.102585 0.796809 -0.595460
outer loop
vertex 0.000053 0.000688 -0.000724
vertex -0.000030 0.000864 -0.000502
vertex 0.000263 0.000809 -0.000526
endloop
endfacet
facet normal 0.089144 0.274350 -0.957489
outer loop
vertex 0.000203 0.000148 -0.000968
vertex -0.000078 0.000239 -0.000968
vertex 0.000138 0.000425 -0.000894
endloop
endfacet
facet normal -0.033908 0.400305 -0.915754
outer loop
vertex -0.000078 0.000239 -0.000968
vertex -0.000162 0.000500 -0.000851
vertex 0.000138 0.000425 -0.000894
endloop
endfacet
facet normal 0.014375 0.548113 -0.836281
outer loop
vertex 0.000138 0.000425 -0.000894
vertex -0.000162 0.000500 -0.000851
vertex 0.000053 0.000688 -0.000724
endloop
endfacet
facet normal -0.112066 0.640855 -0.759438
outer loop
vertex -0.000162 0.000500 -0.000851
vertex -0.000233 0.000717 -0.000658
vertex 0.000053 0.000688 -0.000724
endloop
endfacet
facet normal -0.071126 0.767619 -0.636947
outer loop
vertex 0.000053 0.000688 -0.000724
vertex -0.000233 0.000717 -0.000658
vertex -0.000030 0.000864 -0.000502
endloop
endfacet
facet normal -0.168486 0.814943 -0.554509
outer loop
vertex -0.000233 0.000717 -0.000658
vertex -0.000276 0.000851 -0.000447
vertex -0.000030 0.000864 -0.000502
endloop
endfacet
facet normal -0.342697 0.758340 -0.554508
outer loop
vertex -0.000233 0.000717 -0.000658
vertex -0.000484 0.000717 -0.000502
vertex -0.000276 0.000851 -0.000447
endloop
endfacet
facet normal -0.286018 0.584335 -0.759438
outer loop
vertex -0.000162 0.000500 -0.000851
vertex -0.000447 0.000526 -0.000724
vertex -0.000233 0.000717 -0.000658
endloop
endfacet
facet normal -0.207860 0.343785 -0.915754
outer loop
vertex -0.000078 0.000239 -0.000968
vertex -0.000362 0.000263 -0.000894
vertex -0.000162 0.000500 -0.000851
endloop
endfacet
facet normal -0.393648 0.662826 -0.636948
outer loop
vertex -0.000233 0.000717 -0.000658
vertex -0.000447 0.000526 -0.000724
vertex -0.000484 0.000717 -0.000502
endloop
endfacet
facet normal -0.551343 0.584336 -0.595460
outer loop
vertex -0.000447 0.000526 -0.000724
vertex -0.000688 0.000500 -0.000526
vertex -0.000484 0.000717 -0.000502
endloop
endfacet
facet normal -0.333798 0.434984 -0.836282
outer loop
vertex -0.000162 0.000500 -0.000851
vertex -0.000362 0.000263 -0.000894
vertex -0.000447 0.000526 -0.000724
endloop
endfacet
facet normal -0.491122 0.356818 -0.794657
outer loop
vertex -0.000362 0.000263 -0.000894
vertex -0.000638 0.000263 -0.000724
vertex -0.000447 0.000526 -0.000724
endloop
endfacet
facet normal -0.598706 0.434985 -0.672561
outer loop
vertex -0.000447 0.000526 -0.000724
vertex -0.000638 0.000263 -0.000724
vertex -0.000688 0.000500 -0.000526
endloop
endfacet
facet normal -0.726114 0.343786 -0.595458
outer loop
vertex -0.000638 0.000263 -0.000724
vertex -0.000831 0.000239 -0.000502
vertex -0.000688 0.000500 -0.000526
endloop
endfacet
facet normal -0.233376 0.169558 -0.957489
outer loop
vertex -0.000078 0.000239 -0.000968
vertex -0.000251 0.000000 -0.000968
vertex -0.000362 0.000263 -0.000894
endloop
endfacet
facet normal -0.391195 0.091450 -0.915753
outer loop
vertex -0.000251 0.000000 -0.000968
vertex -0.000526 0.000000 -0.000851
vertex -0.000362 0.000263 -0.000894
endloop
endfacet
facet normal -0.516846 0.183045 -0.836280
outer loop
vertex -0.000362 0.000263 -0.000894
vertex -0.000526 0.000000 -0.000851
vertex -0.000638 0.000263 -0.000724
endloop
endfacet
facet normal -0.644124 0.091450 -0.759434
outer loop
vertex -0.000526 0.000000 -0.000851
vertex -0.000753 0.000000 -0.000658
vertex -0.000638 0.000263 -0.000724
endloop
endfacet
facet normal -0.752031 0.169559 -0.636945
outer loop
vertex -0.000638 0.000263 -0.000724
vertex -0.000753 0.000000 -0.000658
vertex -0.000831 0.000239 -0.000502
endloop
endfacet
facet normal -0.827125 0.091586 -0.554505
outer loop
vertex -0.000753 0.000000 -0.000658
vertex -0.000894 0.000000 -0.000447
vertex -0.000831 0.000239 -0.000502
endloop
endfacet
facet normal -0.827125 -0.091586 -0.554505
outer loop
vertex -0.000753 0.000000 -0.000658
vertex -0.000831 -0.000239 -0.000502
vertex -0.000894 0.000000 -0.000447
endloop
endfacet
facet normal -0.644124 -0.091451 -0.759434
outer loop
vertex -0.000526 0.000000 -0.000851
vertex -0.000638 -0.000263 -0.000724
vertex -0.000753 0.000000 -0.000658
endloop
endfacet
facet normal -0.391194 -0.091451 -0.915753
outer loop
vertex -0.000251 0.000000 -0.000968
vertex -0.000362 -0.000263 -0.000894
vertex -0.000526 0.000000 -0.000851
endloop
endfacet
facet normal -0.752031 -0.169559 -0.636945
outer loop
vertex -0.000753 0.000000 -0.000658
vertex -0.000638 -0.000263 -0.000724
vertex -0.000831 -0.000239 -0.000502
endloop
endfacet
facet normal -0.726114 -0.343786 -0.595458
outer loop
vertex -0.000638 -0.000263 -0.000724
vertex -0.000688 -0.000500 -0.000526
vertex -0.000831 -0.000239 -0.000502
endloop
endfacet
facet normal -0.516846 -0.183045 -0.836280
outer loop
vertex -0.000526 0.000000 -0.000851
vertex -0.000362 -0.000263 -0.000894
vertex -0.000638 -0.000263 -0.000724
endloop
endfacet
facet normal -0.491122 -0.356820 -0.794656
outer loop
vertex -0.000362 -0.000263 -0.000894
vertex -0.000447 -0.000526 -0.000724
vertex -0.000638 -0.000263 -0.000724
endloop
endfacet
facet normal -0.598706 -0.434986 -0.672561
outer loop
vertex -0.000638 -0.000263 -0.000724
vertex -0.000447 -0.000526 -0.000724
vertex -0.000688 -0.000500 -0.000526
endloop
endfacet
facet normal -0.551343 -0.584337 -0.595459
outer loop
vertex -0.000447 -0.000526 -0.000724
vertex -0.000484 -0.000717 -0.000502
vertex -0.000688 -0.000500 -0.000526
endloop
endfacet
facet normal -0.233377 -0.169558 -0.957489
outer loop
vertex -0.000251 0.000000 -0.000968
vertex -0.000078 -0.000239 -0.000968
vertex -0.000362 -0.000263 -0.000894
endloop
endfacet
facet normal -0.207859 -0.343786 -0.915754
outer loop
vertex -0.000078 -0.000239 -0.000968
vertex -0.000162 -0.000500 -0.000851
vertex -0.000362 -0.000263 -0.000894
endloop
endfacet
facet normal -0.333798 -0.434986 -0.836281
outer loop
vertex -0.000362 -0.000263 -0.000894
vertex -0.000162 -0.000500 -0.000851
vertex -0.000447 -0.000526 -0.000724
endloop
endfacet
facet normal -0.286018 -0.584335 -0.759438
outer loop
vertex -0.000162 -0.000500 -0.000851
vertex -0.000233 -0.000717 -0.000658
vertex -0.000447 -0.000526 -0.000724
endloop
endfacet
facet normal -0.393647 -0.662827 -0.636947
outer loop
vertex -0.000447 -0.000526 -0.000724
vertex -0.000233 -0.000717 -0.000658
vertex -0.000484 -0.000717 -0.000502
endloop
endfacet
facet normal -0.342697 -0.758340 -0.554508
outer loop
vertex -0.000233 -0.000717 -0.000658
vertex -0.000276 -0.000851 -0.000447
vertex -0.000484 -0.000717 -0.000502
endloop
endfacet
facet normal 0.722992 0.412071 -0.554509
outer loop
vertex 0.000813 0.000295 -0.000502
vertex 0.000610 0.000443 -0.000658
vertex 0.000724 0.000526 -0.000447
endloop
endfacet
facet normal 0.789510 0.148666 -0.595460
outer loop
vertex 0.000851 0.000000 -0.000526
vertex 0.000671 0.000162 -0.000724
vertex 0.000813 0.000295 -0.000502
endloop
endfacet
facet normal 0.789510 -0.148667 -0.595459
outer loop
vertex 0.000813 -0.000295 -0.000502
vertex 0.000671 -0.000162 -0.000724
vertex 0.000851 0.000000 -0.000526
endloop
endfacet
facet normal 0.708071 0.304853 -0.636946
outer loop
vertex 0.000813 0.000295 -0.000502
vertex 0.000671 0.000162 -0.000724
vertex 0.000610 0.000443 -0.000658
endloop
endfacet
facet normal 0.574859 0.304617 -0.759438
outer loop
vertex 0.000671 0.000162 -0.000724
vertex 0.000425 0.000309 -0.000851
vertex 0.000610 0.000443 -0.000658
endloop
endfacet
facet normal 0.740043 0.000000 -0.672559
outer loop
vertex 0.000851 0.000000 -0.000526
vertex 0.000671 -0.000162 -0.000724
vertex 0.000671 0.000162 -0.000724
endloop
endfacet
facet normal 0.607058 -0.000001 -0.794658
outer loop
vertex 0.000671 -0.000162 -0.000724
vertex 0.000447 -0.000000 -0.000894
vertex 0.000671 0.000162 -0.000724
endloop
endfacet
facet normal 0.525728 0.155706 -0.836281
outer loop
vertex 0.000671 0.000162 -0.000724
vertex 0.000447 -0.000000 -0.000894
vertex 0.000425 0.000309 -0.000851
endloop
endfacet
facet normal 0.370235 0.155950 -0.915754
outer loop
vertex 0.000447 -0.000000 -0.000894
vertex 0.000203 0.000148 -0.000968
vertex 0.000425 0.000309 -0.000851
endloop
endfacet
facet normal 0.708071 -0.304854 -0.636946
outer loop
vertex 0.000813 -0.000295 -0.000502
vertex 0.000610 -0.000443 -0.000658
vertex 0.000671 -0.000162 -0.000724
endloop
endfacet
facet normal 0.574859 -0.304617 -0.759438
outer loop
vertex 0.000610 -0.000443 -0.000658
vertex 0.000425 -0.000309 -0.000851
vertex 0.000671 -0.000162 -0.000724
endloop
endfacet
facet normal 0.525729 -0.155706 -0.836280
outer loop
vertex 0.000671 -0.000162 -0.000724
vertex 0.000425 -0.000309 -0.000851
vertex 0.000447 -0.000000 -0.000894
endloop
endfacet
facet normal 0.370234 -0.155950 -0.915755
outer loop
vertex 0.000425 -0.000309 -0.000851
vertex 0.000203 -0.000148 -0.000968
vertex 0.000447 -0.000000 -0.000894
endloop
endfacet
facet normal 0.288471 0.000000 -0.957489
outer loop
vertex 0.000447 -0.000000 -0.000894
vertex 0.000203 -0.000148 -0.000968
vertex 0.000203 0.000148 -0.000968
endloop
endfacet
facet normal 0.155818 0.000000 -0.987786
outer loop
vertex 0.000203 -0.000148 -0.000968
vertex 0.000000 0.000000 -0.001000
vertex 0.000203 0.000148 -0.000968
endloop
endfacet
facet normal -0.168486 -0.814943 -0.554509
outer loop
vertex -0.000233 -0.000717 -0.000658
vertex -0.000030 -0.000864 -0.000502
vertex -0.000276 -0.000851 -0.000447
endloop
endfacet
facet normal -0.112065 -0.640855 -0.759438
outer loop
vertex -0.000162 -0.000500 -0.000851
vertex 0.000053 -0.000688 -0.000724
vertex -0.000233 -0.000717 -0.000658
endloop
endfacet
facet normal -0.033907 -0.400305 -0.915754
outer loop
vertex -0.000078 -0.000239 -0.000968
vertex 0.000138 -0.000425 -0.000894
vertex -0.000162 -0.000500 -0.000851
endloop
endfacet
facet normal -0.071125 -0.767619 -0.636947
outer loop
vertex -0.000233 -0.000717 -0.000658
vertex 0.000053 -0.000688 -0.000724
vertex -0.000030 -0.000864 -0.000502
endloop
endfacet
facet normal 0.102585 -0.796808 -0.595461
outer loop
vertex 0.000053 -0.000688 -0.000724
vertex 0.000263 -0.000809 -0.000526
vertex -0.000030 -0.000864 -0.000502
endloop
endfacet
facet normal 0.014376 -0.548111 -0.836282
outer loop
vertex -0.000162 -0.000500 -0.000851
vertex 0.000138 -0.000425 -0.000894
vertex 0.000053 -0.000688 -0.000724
endloop
endfacet
facet normal 0.187595 -0.577345 -0.794658
outer loop
vertex 0.000138 -0.000425 -0.000894
vertex 0.000362 -0.000588 -0.000724
vertex 0.000053 -0.000688 -0.000724
endloop
endfacet
facet normal 0.228689 -0.703819 -0.672562
outer loop
vertex 0.000053 -0.000688 -0.000724
vertex 0.000362 -0.000588 -0.000724
vertex 0.000263 -0.000809 -0.000526
endloop
endfacet
facet normal 0.385368 -0.704925 -0.595460
outer loop
vertex 0.000362 -0.000588 -0.000724
vertex 0.000532 -0.000682 -0.000502
vertex 0.000263 -0.000809 -0.000526
endloop
endfacet
facet normal 0.089143 -0.274350 -0.957489
outer loop
vertex -0.000078 -0.000239 -0.000968
vertex 0.000203 -0.000148 -0.000968
vertex 0.000138 -0.000425 -0.000894
endloop
endfacet
facet normal 0.262729 -0.303920 -0.915754
outer loop
vertex 0.000203 -0.000148 -0.000968
vertex 0.000425 -0.000309 -0.000851
vertex 0.000138 -0.000425 -0.000894
endloop
endfacet
facet normal 0.310548 -0.451878 -0.836281
outer loop
vertex 0.000138 -0.000425 -0.000894
vertex 0.000425 -0.000309 -0.000851
vertex 0.000362 -0.000588 -0.000724
endloop
endfacet
facet normal 0.467353 -0.452587 -0.759438
outer loop
vertex 0.000425 -0.000309 -0.000851
vertex 0.000610 -0.000443 -0.000658
vertex 0.000362 -0.000588 -0.000724
endloop
endfacet
facet normal 0.508744 -0.579205 -0.636947
outer loop
vertex 0.000362 -0.000588 -0.000724
vertex 0.000610 -0.000443 -0.000658
vertex 0.000532 -0.000682 -0.000502
endloop
endfacet
facet normal 0.615326 -0.560263 -0.554508
outer loop
vertex 0.000610 -0.000443 -0.000658
vertex 0.000724 -0.000526 -0.000447
vertex 0.000532 -0.000682 -0.000502
endloop
endfacet
endsolid Exported from Blender-3.5.1
