solid ExportedfromBlender-2.79(sub0)
  facet normal 0.87061998 0.29888423 -0.39075449
    outer loop
       vertex 0.032073821 -0.00052370924 -0.0017603926
       vertex 0.032108727 -0.00012798989 -0.0013799397
       vertex 0.032319196 -0.00064178454 -0.0013039999
    endloop
  endfacet
  facet normal 0.86931514 -0.079206454 -0.4878704
    outer loop
       vertex 0.03172596 -0.0023163857 -0.0020891886
       vertex 0.032073821 -0.00052370924 -0.0017603926
       vertex 0.032319196 -0.00064178454 -0.0013039999
    endloop
  endfacet
  facet normal 0.58150947 -0.21827597 -0.78371062
    outer loop
       vertex 0.032319196 -0.00064178454 -0.0013039999
       vertex 0.032636525 -0.0010949221 -0.00094233757
       vertex 0.032143605 -0.0020622256 -0.0010386718
    endloop
  endfacet
  facet normal 0.92864613 -0.17581395 -0.32665856
    outer loop
       vertex 0.032319196 -0.00064178454 -0.0013039999
       vertex 0.032143605 -0.0020622256 -0.0010386718
       vertex 0.03172596 -0.0023163857 -0.0020891886
    endloop
  endfacet
  facet normal 0.7698583 -0.032484205 -0.63738762
    outer loop
       vertex 0.032073821 -0.00052370924 -0.0017603926
       vertex 0.03172596 -0.0023163857 -0.0020891886
       vertex 0.03128072 -0.00068334474 -0.002710191
    endloop
  endfacet
  facet normal 0.67329852 0.3904825 -0.62784753
    outer loop
       vertex 0.032073821 -0.00052370924 -0.0017603926
       vertex 0.03128072 -0.00068334474 -0.002710191
       vertex 0.031310818 0.00081579116 -0.0017455442
    endloop
  endfacet
  facet normal 0.40044578 -0.88442603 -0.23965345
    outer loop
       vertex 0.03064277 -0.0037461814 -0.0020032914
       vertex 0.031080687 -0.003830221 -0.00096141673
       vertex 0.029242305 -0.0045239548 -0.0014730561
    endloop
  endfacet
  facet normal 0.34342683 -0.060389221 -0.93723591
    outer loop
       vertex 0.029884584 -0.0010389362 -0.0033228857
       vertex 0.030492578 -0.0024344907 -0.0030101811
       vertex 0.028464406 -0.0021412343 -0.0037722499
    endloop
  endfacet
  facet normal 0.32366177 -0.85665699 -0.4017236
    outer loop
       vertex 0.03064277 -0.0037461814 -0.0020032914
       vertex 0.029242305 -0.0045239548 -0.0014730561
       vertex 0.028993979 -0.00400838 -0.0027725668
    endloop
  endfacet
  facet normal 0.05567851 0.31456538 -0.94760146
    outer loop
       vertex 0.029884584 -0.0010389362 -0.0033228857
       vertex 0.028464406 -0.0021412343 -0.0037722499
       vertex 0.028111964 -0.00040879078 -0.0032178573
    endloop
  endfacet
  facet normal -0.41959651 -0.907531 -0.018062704
    outer loop
       vertex 0.027631282 -0.0047616391 -0.00071954649
       vertex 0.027468864 -0.0046996373 -6.1758144e-05
       vertex 0.026248863 -0.0041324003 -0.00022102609
    endloop
  endfacet
  facet normal -0.44624806 -0.88713356 -0.11771456
    outer loop
       vertex 0.026248863 -0.0041324003 -0.00022102609
       vertex 0.025957347 -0.0038882917 -0.00095558621
       vertex 0.027631282 -0.0047616391 -0.00071954649
    endloop
  endfacet
  facet normal -0.31978735 -0.63473317 -0.70345565
    outer loop
       vertex 0.027069122 -0.0033666694 -0.0030500609
       vertex 0.02707783 -0.0042858671 -0.0022246205
       vertex 0.025490723 -0.0030283605 -0.0026377871
    endloop
  endfacet
  facet normal -0.51120738 0.29783799 -0.80620069
    outer loop
       vertex 0.026425792 3.1643055e-05 -0.0026673219
       vertex 0.026401175 -0.0018108615 -0.0033323964
       vertex 0.025229992 -0.00096293049 -0.002276501
    endloop
  endfacet
  facet normal -0.93515796 -0.05689243 -0.34963244
    outer loop
       vertex 0.025229992 -0.00096293049 -0.002276501
       vertex 0.025490723 -0.0030283605 -0.0026377871
       vertex 0.024937009 -0.0023492447 -0.0012672805
    endloop
  endfacet
  facet normal -0.64806652 0.051107202 -0.75986699
    outer loop
       vertex 0.025229992 -0.00096293049 -0.002276501
       vertex 0.026401175 -0.0018108615 -0.0033323964
       vertex 0.025490723 -0.0030283605 -0.0026377871
    endloop
  endfacet
  facet normal -0.29998986 -0.29350919 -0.90766648
    outer loop
       vertex 0.026401175 -0.0018108615 -0.0033323964
       vertex 0.027069122 -0.0033666694 -0.0030500609
       vertex 0.025490723 -0.0030283605 -0.0026377871
    endloop
  endfacet
  facet normal -0.82679805 -0.55963034 -0.056735152
    outer loop
       vertex 0.025490723 -0.0030283605 -0.0026377871
       vertex 0.025957347 -0.0038882917 -0.00095558621
       vertex 0.024937009 -0.0023492447 -0.0012672805
    endloop
  endfacet
  facet normal -0.56112455 -0.78969409 -0.24803728
    outer loop
       vertex 0.025490723 -0.0030283605 -0.0026377871
       vertex 0.02707783 -0.0042858671 -0.0022246205
       vertex 0.025957347 -0.0038882917 -0.00095558621
    endloop
  endfacet
  facet normal -0.44648793 -0.88720321 -0.11627122
    outer loop
       vertex 0.02707783 -0.0042858671 -0.0022246205
       vertex 0.027631282 -0.0047616391 -0.00071954649
       vertex 0.025957347 -0.0038882917 -0.00095558621
    endloop
  endfacet
  facet normal -0.79303273 -0.56953449 -0.21617018
    outer loop
       vertex 0.024937009 -0.0023492447 -0.0012672805
       vertex 0.025957347 -0.0038882917 -0.00095558621
       vertex 0.025676026 -0.0037095192 -0.00039454969
    endloop
  endfacet
  facet normal -0.38443093 -0.46718822 -0.79620853
    outer loop
       vertex 0.025676026 -0.0037095192 -0.00039454969
       vertex 0.024987395 -0.0030727281 -0.00043570767
       vertex 0.024796218 -0.0023224062 -0.00078366567
    endloop
  endfacet
  facet normal -0.80051816 -0.56433654 -0.20172988
    outer loop
       vertex 0.025676026 -0.0037095192 -0.00039454969
       vertex 0.024796218 -0.0023224062 -0.00078366567
       vertex 0.024937009 -0.0023492447 -0.0012672805
    endloop
  endfacet
  facet normal -0.58641017 -0.80920527 -0.036193018
    outer loop
       vertex 0.025957347 -0.0038882917 -0.00095558621
       vertex 0.026248863 -0.0041324003 -0.00022102609
       vertex 0.025676026 -0.0037095192 -0.00039454969
    endloop
  endfacet
  facet normal -0.29316125 0.40456236 -0.8662481
    outer loop
       vertex 0.02777579 0.0013399156 -0.0025131968
       vertex 0.026425792 3.1643055e-05 -0.0026673219
       vertex 0.02586367 0.0010718361 -0.0019912856
    endloop
  endfacet
  facet normal -0.28820482 0.26325926 -0.92066962
    outer loop
       vertex 0.02586367 0.0010718361 -0.0019912856
       vertex 0.026537752 0.0016478257 -0.0020375986
       vertex 0.02777579 0.0013399156 -0.0025131968
    endloop
  endfacet
  facet normal -0.21248121 0.33427802 -0.91821018
    outer loop
       vertex 0.028111964 -0.00040879078 -0.0032178573
       vertex 0.026401175 -0.0018108615 -0.0033323964
       vertex 0.026425792 3.1643055e-05 -0.0026673219
    endloop
  endfacet
  facet normal -0.1589032 0.27143835 -0.94924759
    outer loop
       vertex 0.028111964 -0.00040879078 -0.0032178573
       vertex 0.028464406 -0.0021412343 -0.0037722499
       vertex 0.026401175 -0.0018108615 -0.0033323964
    endloop
  endfacet
  facet normal -0.24219074 -0.27293751 -0.93104713
    outer loop
       vertex 0.028464406 -0.0021412343 -0.0037722499
       vertex 0.027069122 -0.0033666694 -0.0030500609
       vertex 0.026401175 -0.0018108615 -0.0033323964
    endloop
  endfacet
  facet normal -0.1149965 -0.66431287 -0.7385555
    outer loop
       vertex 0.028993979 -0.00400838 -0.0027725668
       vertex 0.02707783 -0.0042858671 -0.0022246205
       vertex 0.027069122 -0.0033666694 -0.0030500609
    endloop
  endfacet
  facet normal 0.027575431 -0.92734531 -0.37318932
    outer loop
       vertex 0.028993979 -0.00400838 -0.0027725668
       vertex 0.029242305 -0.0045239548 -0.0014730561
       vertex 0.02707783 -0.0042858671 -0.0022246205
    endloop
  endfacet
  facet normal -0.00025711386 -0.95352144 -0.30132505
    outer loop
       vertex 0.029242305 -0.0045239548 -0.0014730561
       vertex 0.027631282 -0.0047616391 -0.00071954649
       vertex 0.02707783 -0.0042858671 -0.0022246205
    endloop
  endfacet
  facet normal -0.21420903 0.32937494 -0.9195796
    outer loop
       vertex 0.02777579 0.0013399156 -0.0025131968
       vertex 0.028111964 -0.00040879078 -0.0032178573
       vertex 0.026425792 3.1643055e-05 -0.0026673219
    endloop
  endfacet
  facet normal -0.024597442 0.3695723 -0.92887635
    outer loop
       vertex 0.02777579 0.0013399156 -0.0025131968
       vertex 0.029797928 0.00067613417 -0.0028308436
       vertex 0.028111964 -0.00040879078 -0.0032178573
    endloop
  endfacet
  facet normal 0.041770001 0.27747739 -0.95982372
    outer loop
       vertex 0.029797928 0.00067613417 -0.0028308436
       vertex 0.029884584 -0.0010389362 -0.0033228857
       vertex 0.028111964 -0.00040879078 -0.0032178573
    endloop
  endfacet
  facet normal -0.033258208 -0.47906487 -0.87714921
    outer loop
       vertex 0.028464406 -0.0021412343 -0.0037722499
       vertex 0.028993979 -0.00400838 -0.0027725668
       vertex 0.027069122 -0.0033666694 -0.0030500609
    endloop
  endfacet
  facet normal 0.27318153 -0.39269149 -0.87816015
    outer loop
       vertex 0.028464406 -0.0021412343 -0.0037722499
       vertex 0.030492578 -0.0024344907 -0.0030101811
       vertex 0.028993979 -0.00400838 -0.0027725668
    endloop
  endfacet
  facet normal 0.42779634 -0.51904931 -0.7399852
    outer loop
       vertex 0.030492578 -0.0024344907 -0.0030101811
       vertex 0.03064277 -0.0037461814 -0.0020032914
       vertex 0.028993979 -0.00400838 -0.0027725668
    endloop
  endfacet
  facet normal 0.062432416 -0.98233958 -0.17638352
    outer loop
       vertex 0.027631282 -0.0047616391 -0.00071954649
       vertex 0.029242305 -0.0045239548 -0.0014730561
       vertex 0.029565824 -0.0047138426 -0.00030099432
    endloop
  endfacet
  facet normal 0.030272267 -0.90130602 -0.43212389
    outer loop
       vertex 0.029565824 -0.0047138426 -0.00030099432
       vertex 0.029244007 -0.0049437901 0.00015607596
       vertex 0.028333058 -0.004882668 -3.5226097e-05
    endloop
  endfacet
  facet normal 0.078087407 -0.96490199 -0.25073193
    outer loop
       vertex 0.029565824 -0.0047138426 -0.00030099432
       vertex 0.028333058 -0.004882668 -3.5226097e-05
       vertex 0.027631282 -0.0047616391 -0.00071954649
    endloop
  endfacet
  facet normal 0.39757338 -0.89055192 -0.22102645
    outer loop
       vertex 0.029242305 -0.0045239548 -0.0014730561
       vertex 0.031080687 -0.003830221 -0.00096141673
       vertex 0.030491523 -0.0042810018 -0.00020490998
    endloop
  endfacet
  facet normal 0.4310429 -0.86435717 -0.25901485
    outer loop
       vertex 0.030491523 -0.0042810018 -0.00020490998
       vertex 0.029565824 -0.0047138426 -0.00030099432
       vertex 0.029242305 -0.0045239548 -0.0014730561
    endloop
  endfacet
  facet normal 0.61000878 -0.79238931 0.0029094155
    outer loop
       vertex 0.031080687 -0.003830221 -0.00096141673
       vertex 0.031168546 -0.003760101 -0.00028516205
       vertex 0.030491523 -0.0042810018 -0.00020490998
    endloop
  endfacet
  facet normal 0.44503652 0.56680106 -0.69331021
    outer loop
       vertex 0.031032203 0.0013734396 -0.001468494
       vertex 0.031310818 0.00081579116 -0.0017455442
       vertex 0.029797928 0.00067613417 -0.0028308436
    endloop
  endfacet
  facet normal 0.10397184 0.59795278 -0.79475929
    outer loop
       vertex 0.029797928 0.00067613417 -0.0028308436
       vertex 0.029647083 0.0018102766 -0.0019972831
       vertex 0.030574621 0.0021497126 -0.0016205594
    endloop
  endfacet
  facet normal 0.65301956 0.24451649 -0.71678249
    outer loop
       vertex 0.029797928 0.00067613417 -0.0028308436
       vertex 0.030574621 0.0021497126 -0.0016205594
       vertex 0.031032203 0.0013734396 -0.001468494
    endloop
  endfacet
  facet normal 0.48705781 0.46566281 -0.73887269
    outer loop
       vertex 0.031310818 0.00081579116 -0.0017455442
       vertex 0.03128072 -0.00068334474 -0.002710191
       vertex 0.029797928 0.00067613417 -0.0028308436
    endloop
  endfacet
  facet normal 0.32648207 0.27586229 -0.90405169
    outer loop
       vertex 0.03128072 -0.00068334474 -0.002710191
       vertex 0.029884584 -0.0010389362 -0.0033228857
       vertex 0.029797928 0.00067613417 -0.0028308436
    endloop
  endfacet
  facet normal 0.40747141 -0.027015938 -0.91281827
    outer loop
       vertex 0.03128072 -0.00068334474 -0.002710191
       vertex 0.030492578 -0.0024344907 -0.0030101811
       vertex 0.029884584 -0.0010389362 -0.0033228857
    endloop
  endfacet
  facet normal 0.60109466 -0.13561372 -0.78758754
    outer loop
       vertex 0.03128072 -0.00068334474 -0.002710191
       vertex 0.03172596 -0.0023163857 -0.0020891886
       vertex 0.030492578 -0.0024344907 -0.0030101811
    endloop
  endfacet
  facet normal 0.55807883 -0.46411536 -0.68785533
    outer loop
       vertex 0.03172596 -0.0023163857 -0.0020891886
       vertex 0.03064277 -0.0037461814 -0.0020032914
       vertex 0.030492578 -0.0024344907 -0.0030101811
    endloop
  endfacet
  facet normal 0.73464987 -0.57790994 -0.35540072
    outer loop
       vertex 0.03172596 -0.0023163857 -0.0020891886
       vertex 0.031080687 -0.003830221 -0.00096141673
       vertex 0.03064277 -0.0037461814 -0.0020032914
    endloop
  endfacet
  facet normal 0.84322177 -0.49219415 -0.21615263
    outer loop
       vertex 0.03172596 -0.0023163857 -0.0020891886
       vertex 0.032143605 -0.0020622256 -0.0010386718
       vertex 0.031683309 -0.0030869418 -0.00050096349
    endloop
  endfacet
  facet normal 0.8208457 -0.52221145 -0.23131696
    outer loop
       vertex 0.031683309 -0.0030869418 -0.00050096349
       vertex 0.031080687 -0.003830221 -0.00096141673
       vertex 0.03172596 -0.0023163857 -0.0020891886
    endloop
  endfacet
  facet normal 0.95328899 0.12080535 0.27685045
    outer loop
       vertex 0.03806269 0.0042086877 0.0066782125
       vertex 0.036419058 0.0062494053 0.011447307
       vertex 0.037437187 0.0013924772 0.0100609
    endloop
  endfacet
  facet normal 0.6042104 0.58310991 0.54305859
    outer loop
       vertex 0.032411136 0.0070858189 0.015008447
       vertex 0.036419058 0.0062494053 0.011447307
       vertex 0.032338403 0.0098162592 0.012157555
    endloop
  endfacet
  facet normal 0.97592871 -0.21808697 -0.0011034092
    outer loop
       vertex 0.03806269 0.0042086877 0.0066782125
       vertex 0.037437187 0.0013924772 0.0100609
       vertex 0.03716961 0.00022515147 0.0041179619
    endloop
  endfacet
  facet normal 0.91821717 0.046912516 -0.39328925
    outer loop
       vertex 0.03806269 0.0042086877 0.0066782125
       vertex 0.03716961 0.00022515147 0.0041179619
       vertex 0.035991831 0.0043452148 0.0018596389
    endloop
  endfacet
  facet normal 0.77562694 0.54529826 -0.31788781
    outer loop
       vertex 0.03806269 0.0042086877 0.0066782125
       vertex 0.035991831 0.0043452148 0.0018596389
       vertex 0.0356215 0.0080609633 0.0073299734
    endloop
  endfacet
  facet normal 0.18225998 0.7124208 0.67767094
    outer loop
       vertex 0.032411136 0.0070858189 0.015008447
       vertex 0.032338403 0.0098162592 0.012157555
       vertex 0.027405026 0.008847177 0.014503165
    endloop
  endfacet
  facet normal 0.51245713 -0.40659994 0.75634924
    outer loop
       vertex 0.034356924 -0.0019261794 0.01306443
       vertex 0.034313574 0.0021968915 0.015310291
       vertex 0.029142125 -0.0022594487 0.016418506
    endloop
  endfacet
  facet normal 0.53796123 -0.83596706 -0.10842878
    outer loop
       vertex 0.033958173 -0.0038987689 0.0028969946
       vertex 0.035168543 -0.0037866489 0.0080377298
       vertex 0.030287177 -0.0066347767 0.0057777713
    endloop
  endfacet
  facet normal 0.57366911 0.078319242 -0.81533419
    outer loop
       vertex 0.030574621 0.0021497126 -0.0016205594
       vertex 0.031914323 0.0038217965 -0.00051732904
       vertex 0.033780917 -0.00060505687 0.00037077282
    endloop
  endfacet
  facet normal 0.75336958 0.0027354927 -0.65759166
    outer loop
       vertex 0.033780917 -0.00060505687 0.00037077282
       vertex 0.032636525 -0.0010949221 -0.00094233757
       vertex 0.032319196 -0.00064178454 -0.0013039999
    endloop
  endfacet
  facet normal 0.73506492 0.20562051 -0.64606483
    outer loop
       vertex 0.033780917 -0.00060505687 0.00037077282
       vertex 0.032319196 -0.00064178454 -0.0013039999
       vertex 0.032108727 -0.00012798989 -0.0013799397
    endloop
  endfacet
  facet normal 0.65517778 0.24629465 -0.71419956
    outer loop
       vertex 0.031032203 0.0013734396 -0.001468494
       vertex 0.030574621 0.0021497126 -0.0016205594
       vertex 0.033780917 -0.00060505687 0.00037077282
    endloop
  endfacet
  facet normal 0.48120157 0.85368417 0.19916926
    outer loop
       vertex 0.031304782 0.0012109082 -0.0014304118
       vertex 0.031032203 0.0013734396 -0.001468494
       vertex 0.033780917 -0.00060505687 0.00037077282
    endloop
  endfacet
  facet normal 0.71788779 0.38302752 -0.58131493
    outer loop
       vertex 0.033780917 -0.00060505687 0.00037077282
       vertex 0.032108727 -0.00012798989 -0.0013799397
       vertex 0.031541003 0.00088971116 -0.0014104808
    endloop
  endfacet
  facet normal 0.71846008 0.4982691 -0.48532774
    outer loop
       vertex 0.033780917 -0.00060505687 0.00037077282
       vertex 0.031541003 0.00088971116 -0.0014104808
       vertex 0.031304782 0.0012109082 -0.0014304118
    endloop
  endfacet
  facet normal 0.089122714 0.86467843 -0.49435651
    outer loop
       vertex 0.030944593 0.010596311 0.0072248084
       vertex 0.031947087 0.0078655186 0.0026291119
       vertex 0.026543092 0.0095066361 0.0045253551
    endloop
  endfacet
  facet normal 0.075116966 0.46634619 0.88140721
    outer loop
       vertex 0.032411136 0.0070858189 0.015008447
       vertex 0.027405026 0.008847177 0.014503165
       vertex 0.027854302 0.0035396436 0.017273054
    endloop
  endfacet
  facet normal 0.42416999 -0.68585847 0.59133575
    outer loop
       vertex 0.034356924 -0.0019261794 0.01306443
       vertex 0.029142125 -0.0022594487 0.016418506
       vertex 0.030452468 -0.0054923041 0.011728972
    endloop
  endfacet
  facet normal 0.33152262 -0.85797346 -0.39239558
    outer loop
       vertex 0.033958173 -0.0038987689 0.0028969946
       vertex 0.030287177 -0.0066347767 0.0057777713
       vertex 0.029496804 -0.0049549565 0.0014370807
    endloop
  endfacet
  facet normal -0.024049233 0.56391626 -0.82548173
    outer loop
       vertex 0.027364884 0.0053308567 0.00064610567
       vertex 0.031914323 0.0038217965 -0.00051732904
       vertex 0.030574621 0.0021497126 -0.0016205594
    endloop
  endfacet
  facet normal 0.10726694 0.59276635 -0.79819913
    outer loop
       vertex 0.030574621 0.0021497126 -0.0016205594
       vertex 0.029647083 0.0018102766 -0.0019972831
       vertex 0.028637451 0.0020033832 -0.001989557
    endloop
  endfacet
  facet normal 0.23346278 0.76797383 -0.59641539
    outer loop
       vertex 0.028637451 0.0020033832 -0.001989557
       vertex 0.02785383 0.0020880931 -0.0021872235
       vertex 0.027161498 0.0026803132 -0.0016956602
    endloop
  endfacet
  facet normal 0.11789343 0.65239323 -0.74865493
    outer loop
       vertex 0.027161498 0.0026803132 -0.0016956602
       vertex 0.027364884 0.0053308567 0.00064610567
       vertex 0.030574621 0.0021497126 -0.0016205594
    endloop
  endfacet
  facet normal 0.10873657 0.58577887 -0.80314349
    outer loop
       vertex 0.030574621 0.0021497126 -0.0016205594
       vertex 0.028637451 0.0020033832 -0.001989557
       vertex 0.027161498 0.0026803132 -0.0016956602
    endloop
  endfacet
  facet normal -0.1206544 0.97313444 -0.19609151
    outer loop
       vertex 0.030944593 0.010596311 0.0072248084
       vertex 0.026543092 0.0095066361 0.0045253551
       vertex 0.026774616 0.010720852 0.010408634
    endloop
  endfacet
  facet normal -0.6288709 -0.02051404 0.77723906
    outer loop
       vertex 0.024001801 -0.00040249392 0.016780771
       vertex 0.022290523 0.0044441078 0.015524079
       vertex 0.019977778 -0.00087185547 0.01351251
    endloop
  endfacet
  facet normal -0.46315648 -0.84686955 0.26133894
    outer loop
       vertex 0.02618408 -0.0075264387 0.009443424
       vertex 0.024235478 -0.0050288558 0.01408345
       vertex 0.021459738 -0.0050229126 0.0091834194
    endloop
  endfacet
  facet normal -0.55064579 -0.62783366 -0.55010373
    outer loop
       vertex 0.024534815 -0.0034579493 0.0010124739
       vertex 0.024833233 -0.0066829557 0.0043944635
       vertex 0.020648372 -0.0025508304 0.0038674516
    endloop
  endfacet
  facet normal -0.78227809 0.21938356 -0.58301959
    outer loop
       vertex 0.024043219 0.0064076606 0.0028796584
       vertex 0.023822831 0.0014905663 0.001325122
       vertex 0.021014599 0.0031422546 0.0057146346
    endloop
  endfacet
  facet normal -0.8052792 0.57254456 0.15400692
    outer loop
       vertex 0.024311521 0.0084661074 0.012923355
       vertex 0.023283449 0.008400469 0.0077917408
       vertex 0.021107271 0.0043091624 0.011622897
    endloop
  endfacet
  facet normal -0.88898061 0.45171628 -0.075272069
    outer loop
       vertex 0.021107271 0.0043091624 0.011622897
       vertex 0.021014599 0.0031422546 0.0057146346
       vertex 0.018955417 -0.00044310179 0.0085179126
    endloop
  endfacet
  facet normal -0.905927 0.41788519 -0.068324473
    outer loop
       vertex 0.021107271 0.0043091624 0.011622897
       vertex 0.023283449 0.008400469 0.0077917408
       vertex 0.021014599 0.0031422546 0.0057146346
    endloop
  endfacet
  facet normal -0.81696896 0.47922785 -0.32078402
    outer loop
       vertex 0.023283449 0.008400469 0.0077917408
       vertex 0.024043219 0.0064076606 0.0028796584
       vertex 0.021014599 0.0031422546 0.0057146346
    endloop
  endfacet
  facet normal -0.89148598 0.19068912 -0.41096278
    outer loop
       vertex 0.021014599 0.0031422546 0.0057146346
       vertex 0.020648372 -0.0025508304 0.0038674516
       vertex 0.018955417 -0.00044310179 0.0085179126
    endloop
  endfacet
  facet normal -0.77430659 0.23981683 -0.58560839
    outer loop
       vertex 0.021014599 0.0031422546 0.0057146346
       vertex 0.023822831 0.0014905663 0.001325122
       vertex 0.020648372 -0.0025508304 0.0038674516
    endloop
  endfacet
  facet normal -0.59699058 -0.035256821 -0.80147314
    outer loop
       vertex 0.023822831 0.0014905663 0.001325122
       vertex 0.024534815 -0.0034579493 0.0010124739
       vertex 0.020648372 -0.0025508304 0.0038674516
    endloop
  endfacet
  facet normal -0.86760805 -0.48816874 -0.094591485
    outer loop
       vertex 0.020648372 -0.0025508304 0.0038674516
       vertex 0.021459738 -0.0050229126 0.0091834194
       vertex 0.018955417 -0.00044310179 0.0085179126
    endloop
  endfacet
  facet normal -0.66972572 -0.70717873 -0.22664003
    outer loop
       vertex 0.020648372 -0.0025508304 0.0038674516
       vertex 0.024833233 -0.0066829557 0.0043944635
       vertex 0.021459738 -0.0050229126 0.0091834194
    endloop
  endfacet
  facet normal -0.46714367 -0.88389051 -0.02267936
    outer loop
       vertex 0.024833233 -0.0066829557 0.0043944635
       vertex 0.02618408 -0.0075264387 0.009443424
       vertex 0.021459738 -0.0050229126 0.0091834194
    endloop
  endfacet
  facet normal -0.87716591 -0.45928804 0.14012302
    outer loop
       vertex 0.021459738 -0.0050229126 0.0091834194
       vertex 0.019977778 -0.00087185547 0.01351251
       vertex 0.018955417 -0.00044310179 0.0085179126
    endloop
  endfacet
  facet normal -0.67182105 -0.63593245 0.37979783
    outer loop
       vertex 0.021459738 -0.0050229126 0.0091834194
       vertex 0.024235478 -0.0050288558 0.01408345
       vertex 0.019977778 -0.00087185547 0.01351251
    endloop
  endfacet
  facet normal -0.53222843 -0.44631604 0.71939898
    outer loop
       vertex 0.024235478 -0.0050288558 0.01408345
       vertex 0.024001801 -0.00040249392 0.016780771
       vertex 0.019977778 -0.00087185547 0.01351251
    endloop
  endfacet
  facet normal -0.93475653 0.28240915 0.2155813
    outer loop
       vertex 0.019977778 -0.00087185547 0.01351251
       vertex 0.021107271 0.0043091624 0.011622897
       vertex 0.018955417 -0.00044310179 0.0085179126
    endloop
  endfacet
  facet normal -0.91645499 0.29741999 0.26767816
    outer loop
       vertex 0.019977778 -0.00087185547 0.01351251
       vertex 0.022290523 0.0044441078 0.015524079
       vertex 0.021107271 0.0043091624 0.011622897
    endloop
  endfacet
  facet normal -0.80447885 0.549722 0.22498778
    outer loop
       vertex 0.022290523 0.0044441078 0.015524079
       vertex 0.024311521 0.0084661074 0.012923355
       vertex 0.021107271 0.0043091624 0.011622897
    endloop
  endfacet
  facet normal -0.60669063 0.78708277 0.11147735
    outer loop
       vertex 0.026774616 0.010720852 0.010408634
       vertex 0.023283449 0.008400469 0.0077917408
       vertex 0.024311521 0.0084661074 0.012923355
    endloop
  endfacet
  facet normal -0.45898056 0.87351162 -0.16221682
    outer loop
       vertex 0.026774616 0.010720852 0.010408634
       vertex 0.026543092 0.0095066361 0.0045253551
       vertex 0.023283449 0.008400469 0.0077917408
    endloop
  endfacet
  facet normal -0.61304979 0.69451695 -0.37658485
    outer loop
       vertex 0.026543092 0.0095066361 0.0045253551
       vertex 0.024043219 0.0064076606 0.0028796584
       vertex 0.023283449 0.008400469 0.0077917408
    endloop
  endfacet
  facet normal -0.46943206 0.28522475 -0.83563173
    outer loop
       vertex 0.027364884 0.0053308567 0.00064610567
       vertex 0.023822831 0.0014905663 0.001325122
       vertex 0.024043219 0.0064076606 0.0028796584
    endloop
  endfacet
  facet normal -0.66718759 0.52129404 -0.53208387
    outer loop
       vertex 0.023822831 0.0014905663 0.001325122
       vertex 0.027364884 0.0053308567 0.00064610567
       vertex 0.027161498 0.0026803132 -0.0016956602
    endloop
  endfacet
  facet normal -0.49904885 0.5288392 -0.68649788
    outer loop
       vertex 0.027161498 0.0026803132 -0.0016956602
       vertex 0.026537752 0.0016478257 -0.0020375986
       vertex 0.02586367 0.0010718361 -0.0019912856
    endloop
  endfacet
  facet normal -0.66796664 0.6733402 -0.31691251
    outer loop
       vertex 0.02586367 0.0010718361 -0.0019912856
       vertex 0.025406836 0.00067949768 -0.0018619979
       vertex 0.025015847 0.00063833389 -0.0011253573
    endloop
  endfacet
  facet normal -0.65956569 0.54995196 -0.51237286
    outer loop
       vertex 0.025015847 0.00063833389 -0.0011253573
       vertex 0.023822831 0.0014905663 0.001325122
       vertex 0.027161498 0.0026803132 -0.0016956602
    endloop
  endfacet
  facet normal -0.69104886 0.62448016 -0.36397252
    outer loop
       vertex 0.027161498 0.0026803132 -0.0016956602
       vertex 0.02586367 0.0010718361 -0.0019912856
       vertex 0.025015847 0.00063833389 -0.0011253573
    endloop
  endfacet
  facet normal -0.15998329 -0.72139402 -0.67379227
    outer loop
       vertex 0.029496804 -0.0049549565 0.0014370807
       vertex 0.024833233 -0.0066829557 0.0043944635
       vertex 0.024534815 -0.0034579493 0.0010124739
    endloop
  endfacet
  facet normal 0.10332251 -0.9211324 -0.37528596
    outer loop
       vertex 0.029496804 -0.0049549565 0.0014370807
       vertex 0.030287177 -0.0066347767 0.0057777713
       vertex 0.024833233 -0.0066829557 0.0043944635
    endloop
  endfacet
  facet normal 0.05396964 -0.98244635 -0.17856775
    outer loop
       vertex 0.030287177 -0.0066347767 0.0057777713
       vertex 0.02618408 -0.0075264387 0.009443424
       vertex 0.024833233 -0.0066829557 0.0043944635
    endloop
  endfacet
  facet normal 0.13055633 -0.8490872 0.51186519
    outer loop
       vertex 0.030452468 -0.0054923041 0.011728972
       vertex 0.024235478 -0.0050288558 0.01408345
       vertex 0.02618408 -0.0075264387 0.009443424
    endloop
  endfacet
  facet normal 0.16478935 -0.7899473 0.59061641
    outer loop
       vertex 0.030452468 -0.0054923041 0.011728972
       vertex 0.029142125 -0.0022594487 0.016418506
       vertex 0.024235478 -0.0050288558 0.01408345
    endloop
  endfacet
  facet normal -0.12201609 -0.50450618 0.85474299
    outer loop
       vertex 0.029142125 -0.0022594487 0.016418506
       vertex 0.024001801 -0.00040249392 0.016780771
       vertex 0.024235478 -0.0050288558 0.01408345
    endloop
  endfacet
  facet normal -0.27432162 0.14945665 0.94995282
    outer loop
       vertex 0.027854302 0.0035396436 0.017273054
       vertex 0.022290523 0.0044441078 0.015524079
       vertex 0.024001801 -0.00040249392 0.016780771
    endloop
  endfacet
  facet normal -0.20360798 0.43937063 0.87492699
    outer loop
       vertex 0.027854302 0.0035396436 0.017273054
       vertex 0.027405026 0.008847177 0.014503165
       vertex 0.022290523 0.0044441078 0.015524079
    endloop
  endfacet
  facet normal -0.41287812 0.63171578 0.65609972
    outer loop
       vertex 0.027405026 0.008847177 0.014503165
       vertex 0.024311521 0.0084661074 0.012923355
       vertex 0.022290523 0.0044441078 0.015524079
    endloop
  endfacet
  facet normal -0.28911863 0.62038911 -0.72905951
    outer loop
       vertex 0.026543092 0.0095066361 0.0045253551
       vertex 0.027364884 0.0053308567 0.00064610567
       vertex 0.024043219 0.0064076606 0.0028796584
    endloop
  endfacet
  facet normal -0.053898307 0.67391157 -0.73684338
    outer loop
       vertex 0.026543092 0.0095066361 0.0045253551
       vertex 0.031947087 0.0078655186 0.0026291119
       vertex 0.027364884 0.0053308567 0.00064610567
    endloop
  endfacet
  facet normal 0.0018638455 0.6140911 -0.78923295
    outer loop
       vertex 0.031947087 0.0078655186 0.0026291119
       vertex 0.031914323 0.0038217965 -0.00051732904
       vertex 0.027364884 0.0053308567 0.00064610567
    endloop
  endfacet
  facet normal 0.37448088 -0.55153272 -0.74536953
    outer loop
       vertex 0.033780917 -0.00060505687 0.00037077282
       vertex 0.033958173 -0.0038987689 0.0028969946
       vertex 0.029496804 -0.0049549565 0.0014370807
    endloop
  endfacet
  facet normal 0.34973649 -0.92179867 0.16724716
    outer loop
       vertex 0.030287177 -0.0066347767 0.0057777713
       vertex 0.030452468 -0.0054923041 0.011728972
       vertex 0.02618408 -0.0075264387 0.009443424
    endloop
  endfacet
  facet normal 0.44238176 -0.88293947 0.15721405
    outer loop
       vertex 0.030287177 -0.0066347767 0.0057777713
       vertex 0.035168543 -0.0037866489 0.0080377298
       vertex 0.030452468 -0.0054923041 0.011728972
    endloop
  endfacet
  facet normal 0.55626655 -0.74608602 0.36595515
    outer loop
       vertex 0.035168543 -0.0037866489 0.0080377298
       vertex 0.034356924 -0.0019261794 0.01306443
       vertex 0.030452468 -0.0054923041 0.011728972
    endloop
  endfacet
  facet normal 0.018552592 -0.14172569 0.9897321
    outer loop
       vertex 0.029142125 -0.0022594487 0.016418506
       vertex 0.027854302 0.0035396436 0.017273054
       vertex 0.024001801 -0.00040249392 0.016780771
    endloop
  endfacet
  facet normal 0.2744947 -0.080246318 0.95823441
    outer loop
       vertex 0.029142125 -0.0022594487 0.016418506
       vertex 0.034313574 0.0021968915 0.015310291
       vertex 0.027854302 0.0035396436 0.017273054
    endloop
  endfacet
  facet normal 0.32033393 0.18204894 0.92964744
    outer loop
       vertex 0.034313574 0.0021968915 0.015310291
       vertex 0.032411136 0.0070858189 0.015008447
       vertex 0.027854302 0.0035396436 0.017273054
    endloop
  endfacet
  facet normal -0.32532014 0.83990277 0.43443082
    outer loop
       vertex 0.027405026 0.008847177 0.014503165
       vertex 0.026774616 0.010720852 0.010408634
       vertex 0.024311521 0.0084661074 0.012923355
    endloop
  endfacet
  facet normal 0.017927219 0.91021109 0.41375644
    outer loop
       vertex 0.027405026 0.008847177 0.014503165
       vertex 0.032338403 0.0098162592 0.012157555
       vertex 0.026774616 0.010720852 0.010408634
    endloop
  endfacet
  facet normal 0.1220325 0.98508632 0.12129721
    outer loop
       vertex 0.032338403 0.0098162592 0.012157555
       vertex 0.030944593 0.010596311 0.0072248084
       vertex 0.026774616 0.010720852 0.010408634
    endloop
  endfacet
  facet normal 0.44689208 0.80848952 -0.38292579
    outer loop
       vertex 0.0356215 0.0080609633 0.0073299734
       vertex 0.031947087 0.0078655186 0.0026291119
       vertex 0.030944593 0.010596311 0.0072248084
    endloop
  endfacet
  facet normal 0.53646835 0.71454022 -0.44903672
    outer loop
       vertex 0.0356215 0.0080609633 0.0073299734
       vertex 0.035991831 0.0043452148 0.0018596389
       vertex 0.031947087 0.0078655186 0.0026291119
    endloop
  endfacet
  facet normal 0.35714999 0.57179555 -0.73857547
    outer loop
       vertex 0.035991831 0.0043452148 0.0018596389
       vertex 0.031914323 0.0038217965 -0.00051732904
       vertex 0.031947087 0.0078655186 0.0026291119
    endloop
  endfacet
  facet normal 0.49971666 0.037094088 -0.8653943
    outer loop
       vertex 0.035991831 0.0043452148 0.0018596389
       vertex 0.033780917 -0.00060505687 0.00037077282
       vertex 0.031914323 0.0038217965 -0.00051732904
    endloop
  endfacet
  facet normal 0.74962396 -0.14025638 -0.64683234
    outer loop
       vertex 0.035991831 0.0043452148 0.0018596389
       vertex 0.03716961 0.00022515147 0.0041179619
       vertex 0.033780917 -0.00060505687 0.00037077282
    endloop
  endfacet
  facet normal 0.72311823 -0.39544545 -0.56632404
    outer loop
       vertex 0.03716961 0.00022515147 0.0041179619
       vertex 0.033958173 -0.0038987689 0.0028969946
       vertex 0.033780917 -0.00060505687 0.00037077282
    endloop
  endfacet
  facet normal 0.80125194 -0.57180022 -0.17618127
    outer loop
       vertex 0.03716961 0.00022515147 0.0041179619
       vertex 0.035168543 -0.0037866489 0.0080377298
       vertex 0.033958173 -0.0038987689 0.0028969946
    endloop
  endfacet
  facet normal 0.90933386 -0.41410149 0.04039661
    outer loop
       vertex 0.03716961 0.00022515147 0.0041179619
       vertex 0.037437187 0.0013924772 0.0100609
       vertex 0.035168543 -0.0037866489 0.0080377298
    endloop
  endfacet
  facet normal 0.82026087 -0.4805142 0.31028732
    outer loop
       vertex 0.037437187 0.0013924772 0.0100609
       vertex 0.034356924 -0.0019261794 0.01306443
       vertex 0.035168543 -0.0037866489 0.0080377298
    endloop
  endfacet
  facet normal 0.47649632 0.87916551 0.0043889155
    outer loop
       vertex 0.032338403 0.0098162592 0.012157555
       vertex 0.0356215 0.0080609633 0.0073299734
       vertex 0.030944593 0.010596311 0.0072248084
    endloop
  endfacet
  facet normal 0.66468986 0.7227544 0.18924448
    outer loop
       vertex 0.032338403 0.0098162592 0.012157555
       vertex 0.036419058 0.0062494053 0.011447307
       vertex 0.0356215 0.0080609633 0.0073299734
    endloop
  endfacet
  facet normal 0.84787023 0.52593272 0.067162839
    outer loop
       vertex 0.036419058 0.0062494053 0.011447307
       vertex 0.03806269 0.0042086877 0.0066782125
       vertex 0.0356215 0.0080609633 0.0073299734
    endloop
  endfacet
  facet normal 0.80679092 -0.27606005 0.52237846
    outer loop
       vertex 0.037437187 0.0013924772 0.0100609
       vertex 0.034313574 0.0021968915 0.015310291
       vertex 0.034356924 -0.0019261794 0.01306443
    endloop
  endfacet
  facet normal 0.86121759 0.03581666 0.50697281
    outer loop
       vertex 0.037437187 0.0013924772 0.0100609
       vertex 0.036419058 0.0062494053 0.011447307
       vertex 0.034313574 0.0021968915 0.015310291
    endloop
  endfacet
  facet normal 0.6676615 0.30182501 0.68053639
    outer loop
       vertex 0.036419058 0.0062494053 0.011447307
       vertex 0.032411136 0.0070858189 0.015008447
       vertex 0.034313574 0.0021968915 0.015310291
    endloop
  endfacet
  facet normal -0.95121928 -0.15197686 -0.26848635
    outer loop
       vertex 0.024796218 -0.0023224062 -0.00078366567
       vertex 0.024751916 -0.0017852257 -0.00093077908
       vertex 0.024937009 -0.0023492447 -0.0012672805
    endloop
  endfacet
  facet normal 0.47835578 -0.87222196 -0.10200294
    outer loop
       vertex 0.029496804 -0.0049549565 0.0014370807
       vertex 0.029244007 -0.0049437901 0.00015607596
       vertex 0.029565824 -0.0047138426 -0.00030099432
    endloop
  endfacet
  facet normal 0.4302369 -0.89632146 -0.10725696
    outer loop
       vertex 0.029496804 -0.0049549565 0.0014370807
       vertex 0.029565824 -0.0047138426 -0.00030099432
       vertex 0.030491523 -0.0042810018 -0.00020490998
    endloop
  endfacet
  facet normal 0.64294045 -0.70600912 -0.29694899
    outer loop
       vertex 0.032636525 -0.0010949221 -0.00094233757
       vertex 0.033780917 -0.00060505687 0.00037077282
       vertex 0.029496804 -0.0049549565 0.0014370807
    endloop
  endfacet
  facet normal 0.89111717 -0.44551245 -0.086190742
    outer loop
       vertex 0.031683309 -0.0030869418 -0.00050096349
       vertex 0.032143605 -0.0020622256 -0.0010386718
       vertex 0.032636525 -0.0010949221 -0.00094233757
    endloop
  endfacet
  facet normal 0.61262832 -0.78895424 0.047304787
    outer loop
       vertex 0.029496804 -0.0049549565 0.0014370807
       vertex 0.030491523 -0.0042810018 -0.00020490998
       vertex 0.031168546 -0.003760101 -0.00028516205
    endloop
  endfacet
  facet normal 0.32649659 0.052866548 0.94371876
    outer loop
       vertex 0.031168546 -0.003760101 -0.00028516205
       vertex 0.031683309 -0.0030869418 -0.00050096349
       vertex 0.032636525 -0.0010949221 -0.00094233757
    endloop
  endfacet
  facet normal 0.779615 -0.2929226 0.55353121
    outer loop
       vertex 0.031168546 -0.003760101 -0.00028516205
       vertex 0.032636525 -0.0010949221 -0.00094233757
       vertex 0.029496804 -0.0049549565 0.0014370807
    endloop
  endfacet
  facet normal 0.70737434 0.40932087 -0.57626207
    outer loop
       vertex 0.032073821 -0.00052370924 -0.0017603926
       vertex 0.031310818 0.00081579116 -0.0017455442
       vertex 0.031541003 0.00088971116 -0.0014104808
    endloop
  endfacet
  facet normal 0.76373842 0.41111504 -0.49768268
    outer loop
       vertex 0.031541003 0.00088971116 -0.0014104808
       vertex 0.032108727 -0.00012798989 -0.0013799397
       vertex 0.032073821 -0.00052370924 -0.0017603926
    endloop
  endfacet
  facet normal -0.85345121 0.19499681 -0.48331903
    outer loop
       vertex 0.023822831 0.0014905663 0.001325122
       vertex 0.025015847 0.00063833389 -0.0011253573
       vertex 0.024913495 -0.00060459301 -0.0014460867
    endloop
  endfacet
  facet normal -0.73498325 0.12205358 0.66701016
    outer loop
       vertex 0.024751916 -0.0017852257 -0.00093077908
       vertex 0.024796218 -0.0023224062 -0.00078366567
       vertex 0.024987395 -0.0030727281 -0.00043570767
    endloop
  endfacet
  facet normal -0.93644021 -0.024588594 -0.34996449
    outer loop
       vertex 0.023822831 0.0014905663 0.001325122
       vertex 0.024913495 -0.00060459301 -0.0014460867
       vertex 0.024751916 -0.0017852257 -0.00093077908
    endloop
  endfacet
  facet normal -0.93909253 -0.11464616 -0.32397758
    outer loop
       vertex 0.024987395 -0.0030727281 -0.00043570767
       vertex 0.024534815 -0.0034579493 0.0010124739
       vertex 0.023822831 0.0014905663 0.001325122
    endloop
  endfacet
  facet normal -0.97277183 -0.21302356 -0.091301287
    outer loop
       vertex 0.024751916 -0.0017852257 -0.00093077908
       vertex 0.024987395 -0.0030727281 -0.00043570767
       vertex 0.023822831 0.0014905663 0.001325122
    endloop
  endfacet
  facet normal 0.78775968 -0.61477204 -0.038600934
    outer loop
       vertex 0.031683309 -0.0030869418 -0.00050096349
       vertex 0.031168546 -0.003760101 -0.00028516205
       vertex 0.031080687 -0.003830221 -0.00096141673
    endloop
  endfacet
  facet normal -0.6167099 -0.69125627 -0.37660813
    outer loop
       vertex 0.024534815 -0.0034579493 0.0010124739
       vertex 0.024987395 -0.0030727281 -0.00043570767
       vertex 0.025676026 -0.0037095192 -0.00039454969
    endloop
  endfacet
  facet normal -0.51623648 -0.81156649 -0.27360506
    outer loop
       vertex 0.024534815 -0.0034579493 0.0010124739
       vertex 0.025676026 -0.0037095192 -0.00039454969
       vertex 0.026248863 -0.0041324003 -0.00022102609
    endloop
  endfacet
  facet normal -0.29235391 -0.95503503 0.049368905
    outer loop
       vertex 0.029244007 -0.0049437901 0.00015607596
       vertex 0.029496804 -0.0049549565 0.0014370807
       vertex 0.024534815 -0.0034579493 0.0010124739
    endloop
  endfacet
  facet normal -0.18105687 -0.76534308 0.61763126
    outer loop
       vertex 0.027468864 -0.0046996373 -6.1758144e-05
       vertex 0.028333058 -0.004882668 -3.5226097e-05
       vertex 0.029244007 -0.0049437901 0.00015607596
    endloop
  endfacet
  facet normal -0.41216658 -0.9079068 -0.076314792
    outer loop
       vertex 0.024534815 -0.0034579493 0.0010124739
       vertex 0.026248863 -0.0041324003 -0.00022102609
       vertex 0.027468864 -0.0046996373 -6.1758144e-05
    endloop
  endfacet
  facet normal -0.17778579 -0.84963731 0.49649638
    outer loop
       vertex 0.027468864 -0.0046996373 -6.1758144e-05
       vertex 0.029244007 -0.0049437901 0.00015607596
       vertex 0.024534815 -0.0034579493 0.0010124739
    endloop
  endfacet
  facet normal 0.43507164 0.56548083 -0.70067403
    outer loop
       vertex 0.031032203 0.0013734396 -0.001468494
       vertex 0.031304782 0.0012109082 -0.0014304118
       vertex 0.031310818 0.00081579116 -0.0017455442
    endloop
  endfacet
  facet normal -0.87178249 0.18847296 -0.45218716
    outer loop
       vertex 0.024913495 -0.00060459301 -0.0014460867
       vertex 0.025015847 0.00063833389 -0.0011253573
       vertex 0.025406836 0.00067949768 -0.0018619979
    endloop
  endfacet
  facet normal -0.88298927 0.20200447 -0.42370289
    outer loop
       vertex 0.025406836 0.00067949768 -0.0018619979
       vertex 0.025229992 -0.00096293049 -0.002276501
       vertex 0.024913495 -0.00060459301 -0.0014460867
    endloop
  endfacet
  facet normal 0.10830882 0.59804997 -0.79410669
    outer loop
       vertex 0.028637451 0.0020033832 -0.001989557
       vertex 0.029647083 0.0018102766 -0.0019972831
       vertex 0.029797928 0.00067613417 -0.0028308436
    endloop
  endfacet
  facet normal 0.058579647 0.5704852 -0.81921613
    outer loop
       vertex 0.029797928 0.00067613417 -0.0028308436
       vertex 0.02777579 0.0013399156 -0.0025131968
       vertex 0.028637451 0.0020033832 -0.001989557
    endloop
  endfacet
  facet normal 0.67900513 0.46406952 -0.56885105
    outer loop
       vertex 0.031304782 0.0012109082 -0.0014304118
       vertex 0.031541003 0.00088971116 -0.0014104808
       vertex 0.031310818 0.00081579116 -0.0017455442
    endloop
  endfacet
  facet normal -0.20822143 -0.97723457 0.040699139
    outer loop
       vertex 0.028333058 -0.004882668 -3.5226097e-05
       vertex 0.027468864 -0.0046996373 -6.1758144e-05
       vertex 0.027631282 -0.0047616391 -0.00071954649
    endloop
  endfacet
  facet normal 0.26459962 0.36186056 -0.8938926
    outer loop
       vertex 0.02785383 0.0020880931 -0.0021872235
       vertex 0.028637451 0.0020033832 -0.001989557
       vertex 0.02777579 0.0013399156 -0.0025131968
    endloop
  endfacet
  facet normal -0.47789283 0.28234763 -0.83180422
    outer loop
       vertex 0.025406836 0.00067949768 -0.0018619979
       vertex 0.02586367 0.0010718361 -0.0019912856
       vertex 0.026425792 3.1643055e-05 -0.0026673219
    endloop
  endfacet
  facet normal -0.49003075 0.26254186 -0.83122899
    outer loop
       vertex 0.026425792 3.1643055e-05 -0.0026673219
       vertex 0.025229992 -0.00096293049 -0.002276501
       vertex 0.025406836 0.00067949768 -0.0018619979
    endloop
  endfacet
  facet normal -0.93747932 -0.023267003 -0.34726239
    outer loop
       vertex 0.024751916 -0.0017852257 -0.00093077908
       vertex 0.024913495 -0.00060459301 -0.0014460867
       vertex 0.025229992 -0.00096293049 -0.002276501
    endloop
  endfacet
  facet normal -0.92326026 -0.078632571 -0.37604177
    outer loop
       vertex 0.025229992 -0.00096293049 -0.002276501
       vertex 0.024937009 -0.0023492447 -0.0012672805
       vertex 0.024751916 -0.0017852257 -0.00093077908
    endloop
  endfacet
  facet normal -0.24392283 0.43449599 -0.86701493
    outer loop
       vertex 0.026537752 0.0016478257 -0.0020375986
       vertex 0.027161498 0.0026803132 -0.0016956602
       vertex 0.02785383 0.0020880931 -0.0021872235
    endloop
  endfacet
  facet normal -0.2369312 0.40871745 -0.88137033
    outer loop
       vertex 0.02785383 0.0020880931 -0.0021872235
       vertex 0.02777579 0.0013399156 -0.0025131968
       vertex 0.026537752 0.0016478257 -0.0020375986
    endloop
  endfacet
endsolid ExportedfromBlender-2.79(sub0)
