solid Exported from Blender-3.5.1
facet normal -0.269976 0.916087 0.296477
outer loop
vertex -0.000039 0.003382 0.000102
vertex -0.000690 0.003106 0.000362
vertex 0.000132 0.003158 0.000948
endloop
endfacet
facet normal 0.380094 0.910278 0.164080
outer loop
vertex 0.000132 0.003158 0.000948
vertex 0.000573 0.003174 -0.000159
vertex -0.000039 0.003382 0.000102
endloop
endfacet
facet normal -0.356475 0.831894 0.425297
outer loop
vertex -0.000207 0.002777 0.001410
vertex 0.000132 0.003158 0.000948
vertex -0.000690 0.003106 0.000362
endloop
endfacet
facet normal 0.092937 0.769615 -0.631708
outer loop
vertex -0.000115 0.003001 -0.001647
vertex 0.000607 0.003045 -0.001488
vertex 0.000016 0.002564 -0.002160
endloop
endfacet
facet normal -0.136132 0.858684 -0.494095
outer loop
vertex 0.000016 0.002564 -0.002160
vertex 0.000607 0.003045 -0.001488
vertex 0.000940 0.002586 -0.002377
endloop
endfacet
facet normal -0.006927 0.971943 -0.235114
outer loop
vertex 0.000607 0.003045 -0.001488
vertex -0.000115 0.003001 -0.001647
vertex -0.000020 0.003228 -0.000713
endloop
endfacet
facet normal -0.313220 0.929697 -0.193795
outer loop
vertex -0.000115 0.003001 -0.001647
vertex -0.000833 0.002930 -0.000828
vertex -0.000020 0.003228 -0.000713
endloop
endfacet
facet normal 0.173863 0.980563 -0.090924
outer loop
vertex 0.000607 0.003045 -0.001488
vertex -0.000020 0.003228 -0.000713
vertex 0.000573 0.003174 -0.000159
endloop
endfacet
facet normal 0.327350 0.941234 -0.083190
outer loop
vertex 0.001203 0.002903 -0.000747
vertex 0.000607 0.003045 -0.001488
vertex 0.000573 0.003174 -0.000159
endloop
endfacet
facet normal 0.249723 0.952394 -0.174884
outer loop
vertex -0.000039 0.003382 0.000102
vertex 0.000573 0.003174 -0.000159
vertex -0.000020 0.003228 -0.000713
endloop
endfacet
facet normal -0.488486 0.869732 -0.070340
outer loop
vertex -0.000690 0.003106 0.000362
vertex -0.000833 0.002930 -0.000828
vertex -0.001410 0.002667 -0.000069
endloop
endfacet
facet normal -0.442942 0.878932 -0.176862
outer loop
vertex -0.000039 0.003382 0.000102
vertex -0.000020 0.003228 -0.000713
vertex -0.000690 0.003106 0.000362
endloop
endfacet
facet normal -0.329846 0.938776 -0.099506
outer loop
vertex -0.000020 0.003228 -0.000713
vertex -0.000833 0.002930 -0.000828
vertex -0.000690 0.003106 0.000362
endloop
endfacet
facet normal 0.601632 0.738474 0.304460
outer loop
vertex 0.000833 0.002642 0.000615
vertex 0.001203 0.002903 -0.000747
vertex 0.000573 0.003174 -0.000159
endloop
endfacet
facet normal 0.524659 0.798551 0.295042
outer loop
vertex 0.001432 0.002482 -0.000015
vertex 0.001203 0.002903 -0.000747
vertex 0.000833 0.002642 0.000615
endloop
endfacet
facet normal -0.203553 0.549552 -0.810283
outer loop
vertex 0.000257 0.002189 -0.002475
vertex 0.000016 0.002564 -0.002160
vertex 0.000940 0.002586 -0.002377
endloop
endfacet
facet normal -0.452107 0.618782 -0.642424
outer loop
vertex -0.000664 0.002599 -0.001648
vertex -0.000115 0.003001 -0.001647
vertex 0.000016 0.002564 -0.002160
endloop
endfacet
facet normal 0.184562 0.941771 -0.281078
outer loop
vertex 0.001809 0.002738 -0.001296
vertex 0.001606 0.002323 -0.002819
vertex 0.000940 0.002586 -0.002377
endloop
endfacet
facet normal -0.266442 0.938455 -0.219796
outer loop
vertex 0.002201 0.002618 -0.002282
vertex 0.001606 0.002323 -0.002819
vertex 0.001809 0.002738 -0.001296
endloop
endfacet
facet normal 0.329524 0.944113 0.008098
outer loop
vertex 0.002548 0.002498 -0.002392
vertex 0.002201 0.002618 -0.002282
vertex 0.002555 0.002489 -0.001719
endloop
endfacet
facet normal 0.322773 0.946389 0.012864
outer loop
vertex 0.002555 0.002489 -0.001719
vertex 0.002201 0.002618 -0.002282
vertex 0.001809 0.002738 -0.001296
endloop
endfacet
facet normal -0.538893 0.736854 -0.408216
outer loop
vertex -0.000115 0.003001 -0.001647
vertex -0.000664 0.002599 -0.001648
vertex -0.000833 0.002930 -0.000828
endloop
endfacet
facet normal 0.499216 0.831852 -0.242498
outer loop
vertex 0.001203 0.002903 -0.000747
vertex 0.000940 0.002586 -0.002377
vertex 0.000607 0.003045 -0.001488
endloop
endfacet
facet normal 0.081551 0.975773 -0.203021
outer loop
vertex 0.001203 0.002903 -0.000747
vertex 0.001809 0.002738 -0.001296
vertex 0.000940 0.002586 -0.002377
endloop
endfacet
facet normal 0.363014 0.926897 0.095304
outer loop
vertex 0.002268 0.002513 -0.000853
vertex 0.002555 0.002489 -0.001719
vertex 0.001809 0.002738 -0.001296
endloop
endfacet
facet normal -0.729762 0.568714 -0.379490
outer loop
vertex -0.000664 0.002599 -0.001648
vertex -0.001406 0.002242 -0.000755
vertex -0.000833 0.002930 -0.000828
endloop
endfacet
facet normal -0.734715 0.574871 -0.360163
outer loop
vertex -0.001410 0.002667 -0.000069
vertex -0.000833 0.002930 -0.000828
vertex -0.001406 0.002242 -0.000755
endloop
endfacet
facet normal 0.499685 0.809224 0.308986
outer loop
vertex 0.001432 0.002482 -0.000015
vertex 0.001809 0.002738 -0.001296
vertex 0.001203 0.002903 -0.000747
endloop
endfacet
facet normal 0.207901 0.945584 0.250295
outer loop
vertex 0.001432 0.002482 -0.000015
vertex 0.001880 0.002461 -0.000308
vertex 0.001809 0.002738 -0.001296
endloop
endfacet
facet normal 0.222867 0.942669 0.248407
outer loop
vertex 0.001880 0.002461 -0.000308
vertex 0.002268 0.002513 -0.000853
vertex 0.001809 0.002738 -0.001296
endloop
endfacet
facet normal -0.639037 0.660600 0.394004
outer loop
vertex -0.001258 0.002442 0.000555
vertex -0.000690 0.003106 0.000362
vertex -0.001410 0.002667 -0.000069
endloop
endfacet
facet normal 0.650270 0.710514 0.268922
outer loop
vertex 0.000573 0.003174 -0.000159
vertex 0.000132 0.003158 0.000948
vertex 0.000833 0.002642 0.000615
endloop
endfacet
facet normal -0.702175 0.669936 0.241113
outer loop
vertex -0.000690 0.003106 0.000362
vertex -0.001258 0.002442 0.000555
vertex -0.000841 0.002701 0.001047
endloop
endfacet
facet normal -0.341525 0.840291 0.421037
outer loop
vertex -0.000690 0.003106 0.000362
vertex -0.000841 0.002701 0.001047
vertex -0.000207 0.002777 0.001410
endloop
endfacet
facet normal -0.497974 0.018800 0.866988
outer loop
vertex -0.000207 0.002777 0.001410
vertex -0.000841 0.002701 0.001047
vertex -0.000651 0.002126 0.001169
endloop
endfacet
facet normal 0.658293 0.612948 0.436973
outer loop
vertex 0.000495 0.002405 0.001457
vertex 0.000833 0.002642 0.000615
vertex 0.000132 0.003158 0.000948
endloop
endfacet
facet normal 0.283192 0.627107 0.725630
outer loop
vertex -0.000207 0.002777 0.001410
vertex 0.000495 0.002405 0.001457
vertex 0.000132 0.003158 0.000948
endloop
endfacet
facet normal 0.029992 0.861772 -0.506409
outer loop
vertex 0.002333 0.002330 -0.002764
vertex 0.001606 0.002323 -0.002819
vertex 0.002201 0.002618 -0.002282
endloop
endfacet
facet normal -0.444580 0.270255 -0.853997
outer loop
vertex 0.000257 0.002189 -0.002475
vertex -0.000012 0.001461 -0.002565
vertex -0.000272 0.001824 -0.002315
endloop
endfacet
facet normal -0.121270 0.428661 -0.895290
outer loop
vertex 0.000940 0.002586 -0.002377
vertex 0.000584 0.001525 -0.002837
vertex 0.000257 0.002189 -0.002475
endloop
endfacet
facet normal -0.423838 0.264134 -0.866369
outer loop
vertex 0.000257 0.002189 -0.002475
vertex 0.000584 0.001525 -0.002837
vertex -0.000012 0.001461 -0.002565
endloop
endfacet
facet normal 0.149315 0.866473 -0.476370
outer loop
vertex 0.002548 0.002498 -0.002392
vertex 0.002333 0.002330 -0.002764
vertex 0.002201 0.002618 -0.002282
endloop
endfacet
facet normal 0.576878 0.566439 -0.588522
outer loop
vertex 0.002548 0.002498 -0.002392
vertex 0.002778 0.002166 -0.002486
vertex 0.002333 0.002330 -0.002764
endloop
endfacet
facet normal -0.565367 0.292744 -0.771143
outer loop
vertex -0.000664 0.002599 -0.001648
vertex 0.000016 0.002564 -0.002160
vertex -0.000891 0.001777 -0.001794
endloop
endfacet
facet normal -0.487100 0.356474 -0.797283
outer loop
vertex -0.000272 0.001824 -0.002315
vertex 0.000016 0.002564 -0.002160
vertex 0.000257 0.002189 -0.002475
endloop
endfacet
facet normal 0.821891 0.569642 -0.001824
outer loop
vertex 0.002548 0.002498 -0.002392
vertex 0.002555 0.002489 -0.001719
vertex 0.002778 0.002166 -0.002486
endloop
endfacet
facet normal 0.805548 0.592311 -0.016109
outer loop
vertex 0.002555 0.002489 -0.001719
vertex 0.003112 0.001731 -0.001780
vertex 0.002778 0.002166 -0.002486
endloop
endfacet
facet normal 0.745660 0.512658 0.425645
outer loop
vertex 0.003112 0.001731 -0.001780
vertex 0.002555 0.002489 -0.001719
vertex 0.002470 0.001979 -0.000954
endloop
endfacet
facet normal -0.788215 0.311519 -0.530728
outer loop
vertex -0.000891 0.001777 -0.001794
vertex -0.001406 0.002242 -0.000755
vertex -0.000664 0.002599 -0.001648
endloop
endfacet
facet normal 0.911306 0.288075 0.294167
outer loop
vertex 0.002555 0.002489 -0.001719
vertex 0.002268 0.002513 -0.000853
vertex 0.002470 0.001979 -0.000954
endloop
endfacet
facet normal 0.830492 0.215701 0.513572
outer loop
vertex 0.002470 0.001979 -0.000954
vertex 0.002268 0.002513 -0.000853
vertex 0.002147 0.002238 -0.000542
endloop
endfacet
facet normal -0.909795 0.350437 -0.222412
outer loop
vertex -0.001410 0.002667 -0.000069
vertex -0.001406 0.002242 -0.000755
vertex -0.001637 0.002155 0.000053
endloop
endfacet
facet normal -0.817556 0.448578 0.361082
outer loop
vertex -0.001637 0.002155 0.000053
vertex -0.001258 0.002442 0.000555
vertex -0.001410 0.002667 -0.000069
endloop
endfacet
facet normal 0.736865 0.197996 0.646396
outer loop
vertex 0.001432 0.002482 -0.000015
vertex 0.001097 0.001854 0.000560
vertex 0.001737 0.001741 -0.000135
endloop
endfacet
facet normal 0.735012 0.200274 0.647802
outer loop
vertex 0.000833 0.002642 0.000615
vertex 0.001097 0.001854 0.000560
vertex 0.001432 0.002482 -0.000015
endloop
endfacet
facet normal 0.548159 0.090370 0.831477
outer loop
vertex 0.001880 0.002461 -0.000308
vertex 0.001432 0.002482 -0.000015
vertex 0.001737 0.001741 -0.000135
endloop
endfacet
facet normal 0.759557 0.311809 0.570831
outer loop
vertex 0.002147 0.002238 -0.000542
vertex 0.002268 0.002513 -0.000853
vertex 0.001880 0.002461 -0.000308
endloop
endfacet
facet normal 0.677407 0.041273 0.734450
outer loop
vertex 0.001737 0.001741 -0.000135
vertex 0.002147 0.002238 -0.000542
vertex 0.001880 0.002461 -0.000308
endloop
endfacet
facet normal -0.732924 -0.099673 0.672970
outer loop
vertex -0.001258 0.002442 0.000555
vertex -0.000651 0.002126 0.001169
vertex -0.000841 0.002701 0.001047
endloop
endfacet
facet normal 0.859938 0.282712 0.424947
outer loop
vertex 0.000833 0.002052 0.001009
vertex 0.000833 0.002642 0.000615
vertex 0.000495 0.002405 0.001457
endloop
endfacet
facet normal -0.562782 0.079368 0.822786
outer loop
vertex -0.000207 0.002777 0.001410
vertex -0.000651 0.002126 0.001169
vertex 0.000128 0.001763 0.001737
endloop
endfacet
facet normal 0.116922 0.339482 0.933317
outer loop
vertex -0.000207 0.002777 0.001410
vertex 0.000128 0.001763 0.001737
vertex 0.000495 0.002405 0.001457
endloop
endfacet
facet normal -0.224367 0.308029 -0.924542
outer loop
vertex 0.001367 0.001120 -0.003162
vertex 0.000584 0.001525 -0.002837
vertex 0.001606 0.002323 -0.002819
endloop
endfacet
facet normal 0.062932 0.453420 -0.889073
outer loop
vertex 0.002333 0.002330 -0.002764
vertex 0.002267 0.001799 -0.003039
vertex 0.001606 0.002323 -0.002819
endloop
endfacet
facet normal -0.088501 0.289252 -0.953153
outer loop
vertex 0.001606 0.002323 -0.002819
vertex 0.002267 0.001799 -0.003039
vertex 0.001367 0.001120 -0.003162
endloop
endfacet
facet normal 0.583666 0.315325 -0.748268
outer loop
vertex 0.002333 0.002330 -0.002764
vertex 0.002778 0.002166 -0.002486
vertex 0.002267 0.001799 -0.003039
endloop
endfacet
facet normal 0.480662 0.458101 -0.747734
outer loop
vertex 0.002267 0.001799 -0.003039
vertex 0.002778 0.002166 -0.002486
vertex 0.002915 0.001666 -0.002704
endloop
endfacet
facet normal 0.912392 0.346339 -0.218154
outer loop
vertex 0.002915 0.001666 -0.002704
vertex 0.002778 0.002166 -0.002486
vertex 0.003112 0.001731 -0.001780
endloop
endfacet
facet normal -0.611798 0.382917 -0.692155
outer loop
vertex 0.000016 0.002564 -0.002160
vertex -0.000272 0.001824 -0.002315
vertex -0.000891 0.001777 -0.001794
endloop
endfacet
facet normal -0.832261 0.216969 -0.510163
outer loop
vertex -0.001525 0.001532 -0.000864
vertex -0.001406 0.002242 -0.000755
vertex -0.000891 0.001777 -0.001794
endloop
endfacet
facet normal 0.755232 -0.093171 0.648802
outer loop
vertex 0.002147 0.002238 -0.000542
vertex 0.001737 0.001741 -0.000135
vertex 0.002470 0.001979 -0.000954
endloop
endfacet
facet normal -0.962900 0.190251 -0.191385
outer loop
vertex -0.001406 0.002242 -0.000755
vertex -0.001525 0.001532 -0.000864
vertex -0.001653 0.001706 -0.000044
endloop
endfacet
facet normal -0.959952 0.091518 -0.264793
outer loop
vertex -0.001637 0.002155 0.000053
vertex -0.001406 0.002242 -0.000755
vertex -0.001653 0.001706 -0.000044
endloop
endfacet
facet normal -0.801150 -0.097906 0.590401
outer loop
vertex -0.001637 0.002155 0.000053
vertex -0.001653 0.001706 -0.000044
vertex -0.001196 0.001768 0.000586
endloop
endfacet
facet normal -0.785556 -0.043045 0.617291
outer loop
vertex -0.001637 0.002155 0.000053
vertex -0.001196 0.001768 0.000586
vertex -0.001258 0.002442 0.000555
endloop
endfacet
facet normal -0.719447 -0.033495 0.693739
outer loop
vertex -0.001258 0.002442 0.000555
vertex -0.001196 0.001768 0.000586
vertex -0.000651 0.002126 0.001169
endloop
endfacet
facet normal 0.870478 0.327487 0.367451
outer loop
vertex 0.000980 0.001488 0.001164
vertex 0.001097 0.001854 0.000560
vertex 0.000833 0.002052 0.001009
endloop
endfacet
facet normal 0.877693 0.265381 0.399033
outer loop
vertex 0.001097 0.001854 0.000560
vertex 0.000833 0.002642 0.000615
vertex 0.000833 0.002052 0.001009
endloop
endfacet
facet normal -0.685440 -0.123994 0.717494
outer loop
vertex -0.000651 0.002126 0.001169
vertex -0.001196 0.001768 0.000586
vertex -0.000440 0.001588 0.001278
endloop
endfacet
facet normal -0.611380 -0.080783 0.787203
outer loop
vertex 0.000128 0.001763 0.001737
vertex -0.000651 0.002126 0.001169
vertex -0.000440 0.001588 0.001278
endloop
endfacet
facet normal 0.860508 0.330437 0.387733
outer loop
vertex 0.000980 0.001488 0.001164
vertex 0.000833 0.002052 0.001009
vertex 0.000495 0.002405 0.001457
endloop
endfacet
facet normal 0.852415 0.317255 0.415616
outer loop
vertex 0.000980 0.001488 0.001164
vertex 0.000495 0.002405 0.001457
vertex 0.000878 0.001125 0.001648
endloop
endfacet
facet normal -0.352291 0.469098 -0.809838
outer loop
vertex 0.001606 0.002323 -0.002819
vertex 0.000584 0.001525 -0.002837
vertex 0.000940 0.002586 -0.002377
endloop
endfacet
facet normal 0.204735 -0.095340 -0.974163
outer loop
vertex 0.002267 0.001799 -0.003039
vertex 0.002380 0.001029 -0.002940
vertex 0.001367 0.001120 -0.003162
endloop
endfacet
facet normal 0.689199 -0.343272 -0.638098
outer loop
vertex 0.003017 0.001255 -0.002373
vertex 0.002380 0.001029 -0.002940
vertex 0.002915 0.001666 -0.002704
endloop
endfacet
facet normal 0.450783 -0.048674 -0.891306
outer loop
vertex 0.002915 0.001666 -0.002704
vertex 0.002380 0.001029 -0.002940
vertex 0.002267 0.001799 -0.003039
endloop
endfacet
facet normal 0.974715 0.070303 -0.212102
outer loop
vertex 0.003017 0.001255 -0.002373
vertex 0.002915 0.001666 -0.002704
vertex 0.003112 0.001731 -0.001780
endloop
endfacet
facet normal 0.988266 -0.006497 -0.152603
outer loop
vertex 0.003017 0.001255 -0.002373
vertex 0.003112 0.001731 -0.001780
vertex 0.003104 0.000726 -0.001787
endloop
endfacet
facet normal -0.784165 0.463627 -0.412476
outer loop
vertex -0.000891 0.001777 -0.001794
vertex -0.001368 0.001079 -0.001671
vertex -0.001525 0.001532 -0.000864
endloop
endfacet
facet normal 0.748285 0.505205 0.429927
outer loop
vertex 0.003112 0.001731 -0.001780
vertex 0.002470 0.001979 -0.000954
vertex 0.002885 0.001385 -0.000978
endloop
endfacet
facet normal 0.664536 0.599048 0.446691
outer loop
vertex 0.003112 0.001731 -0.001780
vertex 0.002885 0.001385 -0.000978
vertex 0.003329 0.001099 -0.001257
endloop
endfacet
facet normal 0.921391 -0.004217 -0.388613
outer loop
vertex 0.003112 0.001731 -0.001780
vertex 0.003329 0.001099 -0.001257
vertex 0.003104 0.000726 -0.001787
endloop
endfacet
facet normal 0.681501 0.258182 0.684761
outer loop
vertex 0.002470 0.001979 -0.000954
vertex 0.001737 0.001741 -0.000135
vertex 0.002388 0.001069 -0.000530
endloop
endfacet
facet normal -0.983938 0.061867 -0.167450
outer loop
vertex -0.001525 0.001532 -0.000864
vertex -0.001684 0.001103 -0.000085
vertex -0.001653 0.001706 -0.000044
endloop
endfacet
facet normal -0.975336 0.202324 -0.088233
outer loop
vertex -0.001525 0.001532 -0.000864
vertex -0.001659 0.000875 -0.000889
vertex -0.001684 0.001103 -0.000085
endloop
endfacet
facet normal 0.791369 0.010556 0.611248
outer loop
vertex 0.001737 0.001741 -0.000135
vertex 0.001255 0.000988 0.000501
vertex 0.001724 0.000768 -0.000102
endloop
endfacet
facet normal 0.534640 0.021902 0.844796
outer loop
vertex 0.002388 0.001069 -0.000530
vertex 0.001737 0.001741 -0.000135
vertex 0.001724 0.000768 -0.000102
endloop
endfacet
facet normal 0.511459 0.325077 0.795447
outer loop
vertex 0.002885 0.001385 -0.000978
vertex 0.002470 0.001979 -0.000954
vertex 0.002388 0.001069 -0.000530
endloop
endfacet
facet normal -0.761283 0.396945 0.512722
outer loop
vertex -0.001653 0.001706 -0.000044
vertex -0.001348 0.001182 0.000814
vertex -0.001196 0.001768 0.000586
endloop
endfacet
facet normal -0.937260 0.024336 0.347780
outer loop
vertex -0.001653 0.001706 -0.000044
vertex -0.001684 0.001103 -0.000085
vertex -0.001348 0.001182 0.000814
endloop
endfacet
facet normal 0.739851 0.090268 0.666688
outer loop
vertex 0.001097 0.001854 0.000560
vertex 0.001255 0.000988 0.000501
vertex 0.001737 0.001741 -0.000135
endloop
endfacet
facet normal -0.559791 0.410702 0.719693
outer loop
vertex -0.001196 0.001768 0.000586
vertex -0.000701 0.001300 0.001239
vertex -0.000440 0.001588 0.001278
endloop
endfacet
facet normal -0.549522 0.422814 0.720592
outer loop
vertex -0.001196 0.001768 0.000586
vertex -0.001348 0.001182 0.000814
vertex -0.000701 0.001300 0.001239
endloop
endfacet
facet normal 0.948123 0.154825 0.277653
outer loop
vertex 0.001097 0.001854 0.000560
vertex 0.000980 0.001488 0.001164
vertex 0.001255 0.000988 0.000501
endloop
endfacet
facet normal -0.648605 0.391495 0.652720
outer loop
vertex 0.000128 0.001763 0.001737
vertex -0.000440 0.001588 0.001278
vertex -0.000060 0.000979 0.002020
endloop
endfacet
facet normal 0.303697 0.229003 0.924838
outer loop
vertex 0.000128 0.001763 0.001737
vertex 0.000878 0.001125 0.001648
vertex 0.000495 0.002405 0.001457
endloop
endfacet
facet normal -0.605568 0.283121 -0.743727
outer loop
vertex -0.000891 0.001777 -0.001794
vertex -0.000764 0.000828 -0.002258
vertex -0.001368 0.001079 -0.001671
endloop
endfacet
facet normal -0.631919 0.270969 -0.726123
outer loop
vertex -0.000891 0.001777 -0.001794
vertex -0.000272 0.001824 -0.002315
vertex -0.000764 0.000828 -0.002258
endloop
endfacet
facet normal -0.513493 0.206364 -0.832910
outer loop
vertex -0.000272 0.001824 -0.002315
vertex -0.000012 0.001461 -0.002565
vertex -0.000764 0.000828 -0.002258
endloop
endfacet
facet normal -0.435395 0.082755 -0.896428
outer loop
vertex -0.000764 0.000828 -0.002258
vertex -0.000012 0.001461 -0.002565
vertex -0.000139 0.000472 -0.002595
endloop
endfacet
facet normal -0.421080 0.081120 -0.903389
outer loop
vertex -0.000012 0.001461 -0.002565
vertex 0.000584 0.001525 -0.002837
vertex -0.000139 0.000472 -0.002595
endloop
endfacet
facet normal -0.287321 0.196604 -0.937440
outer loop
vertex 0.001367 0.001120 -0.003162
vertex 0.000487 0.000587 -0.003004
vertex 0.000584 0.001525 -0.002837
endloop
endfacet
facet normal -0.934129 0.201750 -0.294448
outer loop
vertex -0.001525 0.001532 -0.000864
vertex -0.001368 0.001079 -0.001671
vertex -0.001659 0.000875 -0.000889
endloop
endfacet
facet normal 0.659552 0.416209 0.625909
outer loop
vertex 0.003329 0.001099 -0.001257
vertex 0.002885 0.001385 -0.000978
vertex 0.003056 0.000878 -0.000822
endloop
endfacet
facet normal 0.460605 0.400327 0.792201
outer loop
vertex 0.002388 0.001069 -0.000530
vertex 0.003056 0.000878 -0.000822
vertex 0.002885 0.001385 -0.000978
endloop
endfacet
facet normal -0.773140 0.588461 0.236575
outer loop
vertex -0.001348 0.001182 0.000814
vertex -0.001684 0.001103 -0.000085
vertex -0.001698 0.000728 0.000800
endloop
endfacet
facet normal 0.946237 0.128053 0.297049
outer loop
vertex 0.001088 0.000946 0.001052
vertex 0.001255 0.000988 0.000501
vertex 0.000980 0.001488 0.001164
endloop
endfacet
facet normal -0.745568 0.563336 0.356062
outer loop
vertex -0.001348 0.001182 0.000814
vertex -0.001698 0.000728 0.000800
vertex -0.001251 0.000580 0.001971
endloop
endfacet
facet normal 0.946985 0.128760 0.294346
outer loop
vertex 0.001088 0.000946 0.001052
vertex 0.000980 0.001488 0.001164
vertex 0.000878 0.001125 0.001648
endloop
endfacet
facet normal -0.358108 0.815475 0.454707
outer loop
vertex -0.001251 0.000580 0.001971
vertex -0.000605 0.000824 0.002042
vertex -0.001348 0.001182 0.000814
endloop
endfacet
facet normal -0.457779 0.739820 0.493057
outer loop
vertex -0.001348 0.001182 0.000814
vertex -0.000605 0.000824 0.002042
vertex -0.000701 0.001300 0.001239
endloop
endfacet
facet normal -0.592708 0.447248 0.669826
outer loop
vertex -0.000440 0.001588 0.001278
vertex -0.000701 0.001300 0.001239
vertex -0.000060 0.000979 0.002020
endloop
endfacet
facet normal -0.215069 0.828790 0.516578
outer loop
vertex -0.000701 0.001300 0.001239
vertex -0.000605 0.000824 0.002042
vertex -0.000060 0.000979 0.002020
endloop
endfacet
facet normal -0.146983 -0.049953 -0.987877
outer loop
vertex 0.001367 0.001120 -0.003162
vertex 0.000978 0.000017 -0.003048
vertex 0.000487 0.000587 -0.003004
endloop
endfacet
facet normal 0.044526 -0.118029 -0.992011
outer loop
vertex 0.001367 0.001120 -0.003162
vertex 0.001828 0.000268 -0.003040
vertex 0.000978 0.000017 -0.003048
endloop
endfacet
facet normal 0.211601 -0.025590 -0.977021
outer loop
vertex 0.001367 0.001120 -0.003162
vertex 0.002380 0.001029 -0.002940
vertex 0.001828 0.000268 -0.003040
endloop
endfacet
facet normal -0.705527 -0.043269 -0.707361
outer loop
vertex -0.001368 0.001079 -0.001671
vertex -0.000764 0.000828 -0.002258
vertex -0.001455 0.000273 -0.001535
endloop
endfacet
facet normal -0.561540 0.200804 -0.802714
outer loop
vertex 0.000487 0.000587 -0.003004
vertex -0.000139 0.000472 -0.002595
vertex 0.000584 0.001525 -0.002837
endloop
endfacet
facet normal 0.690313 -0.323103 -0.647358
outer loop
vertex 0.002380 0.001029 -0.002940
vertex 0.003017 0.001255 -0.002373
vertex 0.002473 0.000410 -0.002531
endloop
endfacet
facet normal -0.913915 0.110336 -0.390623
outer loop
vertex -0.001659 0.000875 -0.000889
vertex -0.001455 0.000273 -0.001535
vertex -0.001741 0.000374 -0.000838
endloop
endfacet
facet normal -0.940249 0.044564 -0.337559
outer loop
vertex -0.001659 0.000875 -0.000889
vertex -0.001368 0.001079 -0.001671
vertex -0.001455 0.000273 -0.001535
endloop
endfacet
facet normal 0.935093 -0.071419 -0.347131
outer loop
vertex 0.003291 0.000442 -0.001224
vertex 0.003104 0.000726 -0.001787
vertex 0.003329 0.001099 -0.001257
endloop
endfacet
facet normal 0.851669 -0.022797 0.523583
outer loop
vertex 0.003291 0.000442 -0.001224
vertex 0.003329 0.001099 -0.001257
vertex 0.003056 0.000878 -0.000822
endloop
endfacet
facet normal -0.985557 0.165454 0.036078
outer loop
vertex -0.001741 0.000374 -0.000838
vertex -0.001708 0.000331 0.000266
vertex -0.001659 0.000875 -0.000889
endloop
endfacet
facet normal -0.999257 0.014165 -0.035839
outer loop
vertex -0.001708 0.000331 0.000266
vertex -0.001684 0.001103 -0.000085
vertex -0.001659 0.000875 -0.000889
endloop
endfacet
facet normal 0.409429 0.037507 0.911570
outer loop
vertex 0.003056 0.000878 -0.000822
vertex 0.002388 0.001069 -0.000530
vertex 0.002792 0.000179 -0.000674
endloop
endfacet
facet normal 0.546751 0.113082 0.829624
outer loop
vertex 0.002792 0.000179 -0.000674
vertex 0.002388 0.001069 -0.000530
vertex 0.002073 0.000186 -0.000201
endloop
endfacet
facet normal 0.767035 -0.158765 0.621652
outer loop
vertex 0.003291 0.000442 -0.001224
vertex 0.003056 0.000878 -0.000822
vertex 0.002792 0.000179 -0.000674
endloop
endfacet
facet normal -0.999581 0.028654 -0.004011
outer loop
vertex -0.001698 0.000728 0.000800
vertex -0.001684 0.001103 -0.000085
vertex -0.001708 0.000331 0.000266
endloop
endfacet
facet normal 0.953190 0.068000 0.294625
outer loop
vertex 0.001255 0.000988 0.000501
vertex 0.001088 0.000946 0.001052
vertex 0.001080 0.000588 0.001159
endloop
endfacet
facet normal -0.718284 0.601066 0.350411
outer loop
vertex -0.001698 0.000728 0.000800
vertex -0.001669 0.000438 0.001359
vertex -0.001251 0.000580 0.001971
endloop
endfacet
facet normal 0.947518 0.073080 0.311239
outer loop
vertex 0.001088 0.000946 0.001052
vertex 0.000878 0.001125 0.001648
vertex 0.001080 0.000588 0.001159
endloop
endfacet
facet normal 0.942714 0.055075 0.329023
outer loop
vertex 0.000828 0.000523 0.001894
vertex 0.001080 0.000588 0.001159
vertex 0.000878 0.001125 0.001648
endloop
endfacet
facet normal -0.124601 0.554464 0.822827
outer loop
vertex -0.000033 0.000165 0.002573
vertex -0.000060 0.000979 0.002020
vertex -0.000605 0.000824 0.002042
endloop
endfacet
facet normal 0.241650 0.208635 0.947669
outer loop
vertex 0.000660 0.000017 0.002048
vertex 0.000828 0.000523 0.001894
vertex -0.000060 0.000979 0.002020
endloop
endfacet
facet normal 0.300313 0.338368 0.891807
outer loop
vertex 0.000878 0.001125 0.001648
vertex -0.000060 0.000979 0.002020
vertex 0.000828 0.000523 0.001894
endloop
endfacet
facet normal 0.321917 0.252141 0.912576
outer loop
vertex -0.000060 0.000979 0.002020
vertex 0.000878 0.001125 0.001648
vertex 0.000128 0.001763 0.001737
endloop
endfacet
facet normal -0.348239 0.763431 0.543970
outer loop
vertex -0.000605 0.000824 0.002042
vertex -0.001251 0.000580 0.001971
vertex -0.000590 0.000293 0.002796
endloop
endfacet
facet normal 0.385820 0.758032 0.525862
outer loop
vertex -0.000033 0.000165 0.002573
vertex -0.000605 0.000824 0.002042
vertex -0.000590 0.000293 0.002796
endloop
endfacet
facet normal -0.292683 -0.179106 -0.939286
outer loop
vertex 0.000235 -0.000087 -0.002797
vertex 0.000487 0.000587 -0.003004
vertex 0.000978 0.000017 -0.003048
endloop
endfacet
facet normal -0.667788 -0.124768 -0.733820
outer loop
vertex -0.000764 0.000828 -0.002258
vertex -0.000766 0.000020 -0.002119
vertex -0.001455 0.000273 -0.001535
endloop
endfacet
facet normal -0.539069 -0.056308 -0.840378
outer loop
vertex 0.000235 -0.000087 -0.002797
vertex -0.000139 0.000472 -0.002595
vertex 0.000487 0.000587 -0.003004
endloop
endfacet
facet normal 0.624712 -0.362328 -0.691703
outer loop
vertex 0.002473 0.000410 -0.002531
vertex 0.001828 0.000268 -0.003040
vertex 0.002380 0.001029 -0.002940
endloop
endfacet
facet normal 0.774549 -0.407960 -0.483366
outer loop
vertex 0.003017 0.001255 -0.002373
vertex 0.003104 0.000726 -0.001787
vertex 0.002473 0.000410 -0.002531
endloop
endfacet
facet normal 0.750089 -0.455459 -0.479504
outer loop
vertex 0.003104 0.000726 -0.001787
vertex 0.003291 0.000442 -0.001224
vertex 0.002622 -0.000370 -0.001499
endloop
endfacet
facet normal 0.488793 0.145182 0.860235
outer loop
vertex 0.002073 0.000186 -0.000201
vertex 0.002388 0.001069 -0.000530
vertex 0.001724 0.000768 -0.000102
endloop
endfacet
facet normal 0.803283 0.103733 0.586495
outer loop
vertex 0.001255 0.000988 0.000501
vertex 0.001390 0.000259 0.000445
vertex 0.001724 0.000768 -0.000102
endloop
endfacet
facet normal 0.674912 0.287653 0.679522
outer loop
vertex 0.002073 0.000186 -0.000201
vertex 0.001724 0.000768 -0.000102
vertex 0.001390 0.000259 0.000445
endloop
endfacet
facet normal 0.925501 0.060067 0.373952
outer loop
vertex 0.001080 0.000588 0.001159
vertex 0.001042 0.000080 0.001337
vertex 0.001390 0.000259 0.000445
endloop
endfacet
facet normal 0.930334 0.146474 0.336191
outer loop
vertex 0.001390 0.000259 0.000445
vertex 0.001255 0.000988 0.000501
vertex 0.001080 0.000588 0.001159
endloop
endfacet
facet normal -0.998847 -0.028582 0.038577
outer loop
vertex -0.001669 0.000438 0.001359
vertex -0.001698 0.000728 0.000800
vertex -0.001708 0.000331 0.000266
endloop
endfacet
facet normal -0.826018 0.001044 0.563643
outer loop
vertex -0.001669 0.000438 0.001359
vertex -0.001408 0.000108 0.001742
vertex -0.001251 0.000580 0.001971
endloop
endfacet
facet normal -0.826554 -0.556569 0.083898
outer loop
vertex -0.001669 0.000438 0.001359
vertex -0.001708 0.000331 0.000266
vertex -0.001408 0.000108 0.001742
endloop
endfacet
facet normal 0.943626 0.042731 0.328244
outer loop
vertex 0.000828 0.000523 0.001894
vertex 0.001042 0.000080 0.001337
vertex 0.001080 0.000588 0.001159
endloop
endfacet
facet normal -0.895849 0.086147 0.435928
outer loop
vertex -0.001251 0.000580 0.001971
vertex -0.001408 0.000108 0.001742
vertex -0.000972 0.000054 0.002649
endloop
endfacet
facet normal 0.595431 0.465167 0.655043
outer loop
vertex -0.000060 0.000979 0.002020
vertex -0.000033 0.000165 0.002573
vertex 0.000660 0.000017 0.002048
endloop
endfacet
facet normal -0.570872 0.517934 0.637063
outer loop
vertex -0.000590 0.000293 0.002796
vertex -0.001251 0.000580 0.001971
vertex -0.000972 0.000054 0.002649
endloop
endfacet
facet normal 0.158571 -0.510208 -0.845306
outer loop
vertex 0.001828 0.000268 -0.003040
vertex 0.001596 -0.000387 -0.002688
vertex 0.000978 0.000017 -0.003048
endloop
endfacet
facet normal -0.530905 -0.142612 -0.835345
outer loop
vertex -0.000139 0.000472 -0.002595
vertex -0.000766 0.000020 -0.002119
vertex -0.000764 0.000828 -0.002258
endloop
endfacet
facet normal 0.592614 -0.533751 -0.603256
outer loop
vertex 0.001828 0.000268 -0.003040
vertex 0.002473 0.000410 -0.002531
vertex 0.001596 -0.000387 -0.002688
endloop
endfacet
facet normal 0.616082 -0.571706 -0.541844
outer loop
vertex 0.002473 0.000410 -0.002531
vertex 0.002137 -0.000325 -0.002137
vertex 0.001596 -0.000387 -0.002688
endloop
endfacet
facet normal 0.694467 -0.452105 -0.559748
outer loop
vertex 0.002622 -0.000370 -0.001499
vertex 0.002137 -0.000325 -0.002137
vertex 0.003104 0.000726 -0.001787
endloop
endfacet
facet normal 0.738401 -0.547959 -0.393070
outer loop
vertex 0.003104 0.000726 -0.001787
vertex 0.002137 -0.000325 -0.002137
vertex 0.002473 0.000410 -0.002531
endloop
endfacet
facet normal -0.677886 -0.252728 -0.690361
outer loop
vertex -0.000766 0.000020 -0.002119
vertex -0.000959 -0.000572 -0.001713
vertex -0.001455 0.000273 -0.001535
endloop
endfacet
facet normal -0.674418 -0.249746 -0.694829
outer loop
vertex -0.000959 -0.000572 -0.001713
vertex -0.001381 -0.000583 -0.001299
vertex -0.001455 0.000273 -0.001535
endloop
endfacet
facet normal 0.776763 -0.519104 -0.356609
outer loop
vertex 0.003291 0.000442 -0.001224
vertex 0.002974 -0.000155 -0.001048
vertex 0.002622 -0.000370 -0.001499
endloop
endfacet
facet normal -0.901989 -0.279347 -0.329212
outer loop
vertex -0.001455 0.000273 -0.001535
vertex -0.001632 -0.000284 -0.000579
vertex -0.001741 0.000374 -0.000838
endloop
endfacet
facet normal -0.951172 -0.155909 -0.266392
outer loop
vertex -0.001455 0.000273 -0.001535
vertex -0.001381 -0.000583 -0.001299
vertex -0.001632 -0.000284 -0.000579
endloop
endfacet
facet normal 0.772472 -0.237185 0.589093
outer loop
vertex 0.003291 0.000442 -0.001224
vertex 0.002792 0.000179 -0.000674
vertex 0.002974 -0.000155 -0.001048
endloop
endfacet
facet normal -0.987695 -0.154592 0.023682
outer loop
vertex -0.001741 0.000374 -0.000838
vertex -0.001632 -0.000284 -0.000579
vertex -0.001708 0.000331 0.000266
endloop
endfacet
facet normal -0.980930 -0.188154 0.048727
outer loop
vertex -0.001632 -0.000284 -0.000579
vertex -0.001530 -0.000434 0.000896
vertex -0.001708 0.000331 0.000266
endloop
endfacet
facet normal 0.678255 0.264158 0.685705
outer loop
vertex 0.001610 -0.000244 0.000422
vertex 0.002073 0.000186 -0.000201
vertex 0.001390 0.000259 0.000445
endloop
endfacet
facet normal 0.885807 0.243328 0.395142
outer loop
vertex 0.001390 0.000259 0.000445
vertex 0.001042 0.000080 0.001337
vertex 0.001283 -0.000027 0.000862
endloop
endfacet
facet normal 0.827535 0.340353 0.446481
outer loop
vertex 0.001390 0.000259 0.000445
vertex 0.001283 -0.000027 0.000862
vertex 0.001610 -0.000244 0.000422
endloop
endfacet
facet normal 0.815633 0.419316 0.398645
outer loop
vertex 0.001283 -0.000027 0.000862
vertex 0.001328 -0.000444 0.001209
vertex 0.001610 -0.000244 0.000422
endloop
endfacet
facet normal 0.855780 0.382176 0.348687
outer loop
vertex 0.001283 -0.000027 0.000862
vertex 0.001042 0.000080 0.001337
vertex 0.001328 -0.000444 0.001209
endloop
endfacet
facet normal 0.818508 0.332530 0.468474
outer loop
vertex 0.001328 -0.000444 0.001209
vertex 0.001042 0.000080 0.001337
vertex 0.000660 0.000017 0.002048
endloop
endfacet
facet normal -0.978663 -0.077121 0.190452
outer loop
vertex -0.001293 -0.000401 0.002127
vertex -0.001408 0.000108 0.001742
vertex -0.001530 -0.000434 0.000896
endloop
endfacet
facet normal -0.979447 -0.073100 0.187990
outer loop
vertex -0.001530 -0.000434 0.000896
vertex -0.001408 0.000108 0.001742
vertex -0.001708 0.000331 0.000266
endloop
endfacet
facet normal 0.876603 -0.151209 0.456841
outer loop
vertex 0.001042 0.000080 0.001337
vertex 0.000828 0.000523 0.001894
vertex 0.000660 0.000017 0.002048
endloop
endfacet
facet normal -0.890738 0.128393 0.436007
outer loop
vertex -0.001293 -0.000401 0.002127
vertex -0.000972 0.000054 0.002649
vertex -0.001408 0.000108 0.001742
endloop
endfacet
facet normal -0.857106 0.013838 0.514954
outer loop
vertex -0.001293 -0.000401 0.002127
vertex -0.000897 -0.000354 0.002785
vertex -0.000972 0.000054 0.002649
endloop
endfacet
facet normal -0.290999 0.252724 0.922741
outer loop
vertex -0.000897 -0.000354 0.002785
vertex -0.000432 -0.000229 0.002897
vertex -0.000972 0.000054 0.002649
endloop
endfacet
facet normal -0.390783 0.058567 0.918617
outer loop
vertex -0.000432 -0.000229 0.002897
vertex -0.000590 0.000293 0.002796
vertex -0.000972 0.000054 0.002649
endloop
endfacet
facet normal 0.413203 0.290441 0.863080
outer loop
vertex -0.000590 0.000293 0.002796
vertex -0.000432 -0.000229 0.002897
vertex -0.000033 0.000165 0.002573
endloop
endfacet
facet normal -0.034889 -0.693628 -0.719488
outer loop
vertex 0.000571 -0.000702 -0.002335
vertex 0.000978 0.000017 -0.003048
vertex 0.001596 -0.000387 -0.002688
endloop
endfacet
facet normal -0.404892 -0.333914 -0.851213
outer loop
vertex -0.000766 0.000020 -0.002119
vertex -0.000139 0.000472 -0.002595
vertex -0.000254 -0.000499 -0.002159
endloop
endfacet
facet normal -0.699359 -0.221850 -0.679470
outer loop
vertex 0.000235 -0.000087 -0.002797
vertex -0.000254 -0.000499 -0.002159
vertex -0.000139 0.000472 -0.002595
endloop
endfacet
facet normal -0.161271 -0.647381 -0.744909
outer loop
vertex 0.000571 -0.000702 -0.002335
vertex 0.000235 -0.000087 -0.002797
vertex 0.000978 0.000017 -0.003048
endloop
endfacet
facet normal -0.309108 -0.673200 -0.671754
outer loop
vertex 0.000571 -0.000702 -0.002335
vertex -0.000254 -0.000499 -0.002159
vertex 0.000235 -0.000087 -0.002797
endloop
endfacet
facet normal 0.015982 -0.769057 -0.638980
outer loop
vertex 0.001272 -0.001081 -0.001861
vertex 0.000571 -0.000702 -0.002335
vertex 0.001596 -0.000387 -0.002688
endloop
endfacet
facet normal 0.515424 -0.745094 -0.423289
outer loop
vertex 0.001272 -0.001081 -0.001861
vertex 0.001596 -0.000387 -0.002688
vertex 0.002137 -0.000325 -0.002137
endloop
endfacet
facet normal -0.461989 -0.394533 -0.794299
outer loop
vertex -0.000766 0.000020 -0.002119
vertex -0.000254 -0.000499 -0.002159
vertex -0.000959 -0.000572 -0.001713
endloop
endfacet
facet normal 0.654521 -0.376050 0.655888
outer loop
vertex 0.002792 0.000179 -0.000674
vertex 0.002246 -0.000829 -0.000708
vertex 0.002974 -0.000155 -0.001048
endloop
endfacet
facet normal 0.638291 -0.757814 -0.135284
outer loop
vertex 0.002974 -0.000155 -0.001048
vertex 0.002246 -0.000829 -0.000708
vertex 0.002622 -0.000370 -0.001499
endloop
endfacet
facet normal 0.803383 -0.001531 0.595460
outer loop
vertex 0.001610 -0.000244 0.000422
vertex 0.002050 -0.000612 -0.000172
vertex 0.002073 0.000186 -0.000201
endloop
endfacet
facet normal 0.774210 -0.434383 0.460336
outer loop
vertex 0.002246 -0.000829 -0.000708
vertex 0.002792 0.000179 -0.000674
vertex 0.002050 -0.000612 -0.000172
endloop
endfacet
facet normal 0.549563 0.014499 0.835327
outer loop
vertex 0.002050 -0.000612 -0.000172
vertex 0.002792 0.000179 -0.000674
vertex 0.002073 0.000186 -0.000201
endloop
endfacet
facet normal -0.982455 0.166090 0.084831
outer loop
vertex -0.001632 -0.000284 -0.000579
vertex -0.001673 -0.000897 0.000144
vertex -0.001530 -0.000434 0.000896
endloop
endfacet
facet normal 0.614797 -0.036469 0.787842
outer loop
vertex 0.000261 -0.000779 0.002323
vertex 0.000998 -0.000923 0.001741
vertex 0.000660 0.000017 0.002048
endloop
endfacet
facet normal 0.804211 0.097383 0.586311
outer loop
vertex 0.000998 -0.000923 0.001741
vertex 0.001328 -0.000444 0.001209
vertex 0.000660 0.000017 0.002048
endloop
endfacet
facet normal -0.735289 0.411848 0.538267
outer loop
vertex -0.001083 -0.000758 0.002687
vertex -0.001293 -0.000401 0.002127
vertex -0.001416 -0.000794 0.002259
endloop
endfacet
facet normal -0.833742 0.267548 0.483003
outer loop
vertex -0.001083 -0.000758 0.002687
vertex -0.000897 -0.000354 0.002785
vertex -0.001293 -0.000401 0.002127
endloop
endfacet
facet normal 0.634060 -0.007759 0.773245
outer loop
vertex -0.000432 -0.000229 0.002897
vertex 0.000261 -0.000779 0.002323
vertex -0.000033 0.000165 0.002573
endloop
endfacet
facet normal 0.600276 -0.025199 0.799396
outer loop
vertex 0.000261 -0.000779 0.002323
vertex 0.000660 0.000017 0.002048
vertex -0.000033 0.000165 0.002573
endloop
endfacet
facet normal -0.198909 -0.130993 0.971224
outer loop
vertex -0.000432 -0.000229 0.002897
vertex -0.000897 -0.000354 0.002785
vertex -0.000505 -0.000763 0.002810
endloop
endfacet
facet normal -0.207185 -0.139119 0.968360
outer loop
vertex -0.000897 -0.000354 0.002785
vertex -0.001083 -0.000758 0.002687
vertex -0.000505 -0.000763 0.002810
endloop
endfacet
facet normal 0.522346 -0.205255 0.827662
outer loop
vertex -0.000505 -0.000763 0.002810
vertex 0.000261 -0.000779 0.002323
vertex -0.000432 -0.000229 0.002897
endloop
endfacet
facet normal -0.426957 -0.496725 -0.755627
outer loop
vertex -0.000254 -0.000499 -0.002159
vertex -0.000584 -0.000929 -0.001690
vertex -0.000959 -0.000572 -0.001713
endloop
endfacet
facet normal 0.357522 -0.799480 -0.482710
outer loop
vertex -0.000584 -0.000929 -0.001690
vertex -0.000254 -0.000499 -0.002159
vertex -0.000197 -0.001029 -0.001237
endloop
endfacet
facet normal -0.303610 -0.833774 -0.461131
outer loop
vertex 0.000571 -0.000702 -0.002335
vertex -0.000197 -0.001029 -0.001237
vertex -0.000254 -0.000499 -0.002159
endloop
endfacet
facet normal -0.605956 -0.447644 -0.657595
outer loop
vertex -0.001534 -0.001082 -0.000819
vertex -0.001381 -0.000583 -0.001299
vertex -0.000979 -0.001155 -0.001280
endloop
endfacet
facet normal -0.617019 -0.454903 -0.642146
outer loop
vertex -0.000979 -0.001155 -0.001280
vertex -0.001381 -0.000583 -0.001299
vertex -0.000959 -0.000572 -0.001713
endloop
endfacet
facet normal -0.452278 -0.521187 -0.723746
outer loop
vertex -0.000584 -0.000929 -0.001690
vertex -0.000979 -0.001155 -0.001280
vertex -0.000959 -0.000572 -0.001713
endloop
endfacet
facet normal -0.132670 -0.920519 -0.367482
outer loop
vertex 0.000455 -0.001077 -0.001353
vertex -0.000197 -0.001029 -0.001237
vertex 0.000571 -0.000702 -0.002335
endloop
endfacet
facet normal -0.946657 -0.019122 -0.321674
outer loop
vertex -0.001381 -0.000583 -0.001299
vertex -0.001534 -0.001082 -0.000819
vertex -0.001632 -0.000284 -0.000579
endloop
endfacet
facet normal -0.091994 -0.989713 -0.109572
outer loop
vertex 0.000323 -0.001175 -0.000356
vertex -0.000197 -0.001029 -0.001237
vertex 0.000455 -0.001077 -0.001353
endloop
endfacet
facet normal 0.695078 -0.714125 -0.083018
outer loop
vertex 0.002246 -0.000829 -0.000708
vertex 0.001786 -0.001211 -0.001277
vertex 0.002622 -0.000370 -0.001499
endloop
endfacet
facet normal -0.721010 0.653805 -0.229529
outer loop
vertex -0.001815 -0.001211 -0.000303
vertex -0.001673 -0.000897 0.000144
vertex -0.001534 -0.001082 -0.000819
endloop
endfacet
facet normal -0.988478 -0.082887 -0.126650
outer loop
vertex -0.001673 -0.000897 0.000144
vertex -0.001632 -0.000284 -0.000579
vertex -0.001534 -0.001082 -0.000819
endloop
endfacet
facet normal 0.471961 -0.874018 -0.115521
outer loop
vertex -0.000223 -0.001226 0.000145
vertex -0.000742 -0.001419 -0.000519
vertex -0.000197 -0.001029 -0.001237
endloop
endfacet
facet normal 0.551267 -0.811007 -0.195890
outer loop
vertex -0.000627 -0.001540 0.000305
vertex -0.000742 -0.001419 -0.000519
vertex -0.000223 -0.001226 0.000145
endloop
endfacet
facet normal -0.037846 -0.989225 -0.141427
outer loop
vertex -0.000223 -0.001226 0.000145
vertex -0.000197 -0.001029 -0.001237
vertex 0.000323 -0.001175 -0.000356
endloop
endfacet
facet normal 0.792092 -0.037326 0.609259
outer loop
vertex 0.001610 -0.000244 0.000422
vertex 0.001422 -0.001067 0.000615
vertex 0.002050 -0.000612 -0.000172
endloop
endfacet
facet normal -0.973125 0.225551 0.046415
outer loop
vertex -0.001673 -0.000897 0.000144
vertex -0.001627 -0.000974 0.001489
vertex -0.001530 -0.000434 0.000896
endloop
endfacet
facet normal 0.942667 -0.144115 0.301015
outer loop
vertex 0.001610 -0.000244 0.000422
vertex 0.001328 -0.000444 0.001209
vertex 0.001422 -0.001067 0.000615
endloop
endfacet
facet normal -0.921688 0.349651 0.168035
outer loop
vertex -0.001530 -0.000434 0.000896
vertex -0.001627 -0.000974 0.001489
vertex -0.001293 -0.000401 0.002127
endloop
endfacet
facet normal -0.960198 0.168110 0.223068
outer loop
vertex -0.001416 -0.000794 0.002259
vertex -0.001627 -0.000974 0.001489
vertex -0.001428 -0.001207 0.002519
endloop
endfacet
facet normal -0.922206 0.346983 0.170704
outer loop
vertex -0.001293 -0.000401 0.002127
vertex -0.001627 -0.000974 0.001489
vertex -0.001416 -0.000794 0.002259
endloop
endfacet
facet normal -0.748066 0.368712 0.551769
outer loop
vertex -0.001083 -0.000758 0.002687
vertex -0.001416 -0.000794 0.002259
vertex -0.001428 -0.001207 0.002519
endloop
endfacet
facet normal 0.607775 -0.133331 0.782836
outer loop
vertex -0.000147 -0.001256 0.002558
vertex 0.000160 -0.001428 0.002290
vertex 0.000261 -0.000779 0.002323
endloop
endfacet
facet normal -0.479907 0.040691 0.876375
outer loop
vertex -0.001083 -0.000758 0.002687
vertex -0.001428 -0.001207 0.002519
vertex -0.000844 -0.001498 0.002852
endloop
endfacet
facet normal -0.204677 0.150150 0.967245
outer loop
vertex -0.000505 -0.000763 0.002810
vertex -0.001083 -0.000758 0.002687
vertex -0.000844 -0.001498 0.002852
endloop
endfacet
facet normal 0.427434 -0.145575 0.892249
outer loop
vertex -0.000147 -0.001256 0.002558
vertex -0.000505 -0.000763 0.002810
vertex -0.000844 -0.001498 0.002852
endloop
endfacet
facet normal 0.535782 -0.042004 0.843311
outer loop
vertex 0.000261 -0.000779 0.002323
vertex -0.000505 -0.000763 0.002810
vertex -0.000147 -0.001256 0.002558
endloop
endfacet
facet normal -0.235271 -0.898312 -0.371058
outer loop
vertex 0.000455 -0.001077 -0.001353
vertex 0.000571 -0.000702 -0.002335
vertex 0.001272 -0.001081 -0.001861
endloop
endfacet
facet normal -0.638230 -0.251834 -0.727490
outer loop
vertex -0.001534 -0.001082 -0.000819
vertex -0.000979 -0.001155 -0.001280
vertex -0.001243 -0.001656 -0.000875
endloop
endfacet
facet normal 0.167181 -0.922764 -0.347214
outer loop
vertex -0.000584 -0.000929 -0.001690
vertex -0.000197 -0.001029 -0.001237
vertex -0.000979 -0.001155 -0.001280
endloop
endfacet
facet normal 0.558604 -0.681537 -0.472724
outer loop
vertex 0.002137 -0.000325 -0.002137
vertex 0.002622 -0.000370 -0.001499
vertex 0.001786 -0.001211 -0.001277
endloop
endfacet
facet normal -0.240912 -0.892993 -0.380165
outer loop
vertex 0.000736 -0.001316 -0.000971
vertex 0.000455 -0.001077 -0.001353
vertex 0.001272 -0.001081 -0.001861
endloop
endfacet
facet normal 0.167017 -0.914370 -0.368825
outer loop
vertex -0.000979 -0.001155 -0.001280
vertex -0.000197 -0.001029 -0.001237
vertex -0.000742 -0.001419 -0.000519
endloop
endfacet
facet normal -0.512334 -0.845341 -0.151367
outer loop
vertex 0.000736 -0.001316 -0.000971
vertex 0.000323 -0.001175 -0.000356
vertex 0.000455 -0.001077 -0.001353
endloop
endfacet
facet normal -0.881099 0.189677 -0.433229
outer loop
vertex -0.001534 -0.001082 -0.000819
vertex -0.001864 -0.001923 -0.000516
vertex -0.001815 -0.001211 -0.000303
endloop
endfacet
facet normal -0.987255 0.103444 -0.120941
outer loop
vertex -0.001815 -0.001211 -0.000303
vertex -0.001864 -0.001923 -0.000516
vertex -0.001951 -0.001459 0.000594
endloop
endfacet
facet normal -0.281094 -0.959205 0.030205
outer loop
vertex 0.000323 -0.001175 -0.000356
vertex 0.000736 -0.001316 -0.000971
vertex 0.001144 -0.001419 -0.000447
endloop
endfacet
facet normal 0.731571 -0.494713 0.469108
outer loop
vertex 0.002246 -0.000829 -0.000708
vertex 0.002050 -0.000612 -0.000172
vertex 0.001474 -0.001319 -0.000021
endloop
endfacet
facet normal -0.901309 0.432846 -0.016935
outer loop
vertex -0.001951 -0.001459 0.000594
vertex -0.001673 -0.000897 0.000144
vertex -0.001815 -0.001211 -0.000303
endloop
endfacet
facet normal -0.297242 -0.939576 -0.169837
outer loop
vertex 0.001144 -0.001419 -0.000447
vertex 0.000591 -0.001435 0.000611
vertex 0.000323 -0.001175 -0.000356
endloop
endfacet
facet normal 0.772104 -0.566577 0.287830
outer loop
vertex 0.002050 -0.000612 -0.000172
vertex 0.001422 -0.001067 0.000615
vertex 0.001474 -0.001319 -0.000021
endloop
endfacet
facet normal -0.875497 0.479767 0.057684
outer loop
vertex -0.001951 -0.001459 0.000594
vertex -0.001627 -0.000974 0.001489
vertex -0.001673 -0.000897 0.000144
endloop
endfacet
facet normal 0.446661 -0.790395 -0.419249
outer loop
vertex -0.000223 -0.001226 0.000145
vertex -0.000273 -0.001673 0.000933
vertex -0.000627 -0.001540 0.000305
endloop
endfacet
facet normal -0.118395 -0.966730 -0.226748
outer loop
vertex 0.000323 -0.001175 -0.000356
vertex 0.000591 -0.001435 0.000611
vertex -0.000223 -0.001226 0.000145
endloop
endfacet
facet normal 0.056898 -0.870122 -0.489542
outer loop
vertex 0.000591 -0.001435 0.000611
vertex -0.000273 -0.001673 0.000933
vertex -0.000223 -0.001226 0.000145
endloop
endfacet
facet normal 0.859940 -0.277826 0.428153
outer loop
vertex 0.001422 -0.001067 0.000615
vertex 0.001328 -0.000444 0.001209
vertex 0.000998 -0.001298 0.001318
endloop
endfacet
facet normal -0.917781 0.375357 0.129561
outer loop
vertex -0.001779 -0.001506 0.001955
vertex -0.001627 -0.000974 0.001489
vertex -0.001951 -0.001459 0.000594
endloop
endfacet
facet normal -0.838214 0.474572 0.268661
outer loop
vertex -0.001627 -0.000974 0.001489
vertex -0.001779 -0.001506 0.001955
vertex -0.001428 -0.001207 0.002519
endloop
endfacet
facet normal 0.562783 -0.618765 0.548092
outer loop
vertex 0.000313 -0.001556 0.001730
vertex 0.000998 -0.001298 0.001318
vertex 0.000998 -0.000923 0.001741
endloop
endfacet
facet normal 0.637131 -0.695451 0.332282
outer loop
vertex 0.000313 -0.001556 0.001730
vertex 0.000998 -0.000923 0.001741
vertex 0.000160 -0.001428 0.002290
endloop
endfacet
facet normal 0.907209 -0.315319 0.278470
outer loop
vertex 0.000998 -0.000923 0.001741
vertex 0.000998 -0.001298 0.001318
vertex 0.001328 -0.000444 0.001209
endloop
endfacet
facet normal 0.598123 -0.132216 0.790422
outer loop
vertex 0.000998 -0.000923 0.001741
vertex 0.000261 -0.000779 0.002323
vertex 0.000160 -0.001428 0.002290
endloop
endfacet
facet normal -0.344235 0.319960 0.882682
outer loop
vertex -0.001428 -0.001207 0.002519
vertex -0.001555 -0.001719 0.002655
vertex -0.000844 -0.001498 0.002852
endloop
endfacet
facet normal 0.033913 -0.975235 -0.218554
outer loop
vertex 0.000736 -0.001316 -0.000971
vertex 0.001786 -0.001211 -0.001277
vertex 0.001144 -0.001419 -0.000447
endloop
endfacet
facet normal -0.449715 -0.140939 -0.881982
outer loop
vertex -0.001534 -0.001082 -0.000819
vertex -0.001243 -0.001656 -0.000875
vertex -0.001864 -0.001923 -0.000516
endloop
endfacet
facet normal 0.615514 -0.665500 -0.422200
outer loop
vertex -0.001243 -0.001656 -0.000875
vertex -0.000979 -0.001155 -0.001280
vertex -0.000742 -0.001419 -0.000519
endloop
endfacet
facet normal 0.641912 -0.545160 -0.539212
outer loop
vertex -0.000923 -0.001895 -0.000253
vertex -0.001243 -0.001656 -0.000875
vertex -0.000742 -0.001419 -0.000519
endloop
endfacet
facet normal 0.444153 -0.709015 -0.547746
outer loop
vertex 0.001272 -0.001081 -0.001861
vertex 0.002137 -0.000325 -0.002137
vertex 0.001786 -0.001211 -0.001277
endloop
endfacet
facet normal 0.496357 -0.851338 0.169860
outer loop
vertex 0.001786 -0.001211 -0.001277
vertex 0.002246 -0.000829 -0.000708
vertex 0.001144 -0.001419 -0.000447
endloop
endfacet
facet normal 0.027485 -0.970627 -0.239016
outer loop
vertex 0.001786 -0.001211 -0.001277
vertex 0.000736 -0.001316 -0.000971
vertex 0.001272 -0.001081 -0.001861
endloop
endfacet
facet normal -0.676879 0.658661 -0.328634
outer loop
vertex -0.001951 -0.001459 0.000594
vertex -0.001864 -0.001923 -0.000516
vertex -0.002220 -0.001958 0.000146
endloop
endfacet
facet normal 0.442827 -0.886364 -0.135144
outer loop
vertex 0.001144 -0.001419 -0.000447
vertex 0.002246 -0.000829 -0.000708
vertex 0.001474 -0.001319 -0.000021
endloop
endfacet
facet normal 0.878718 -0.439080 -0.187254
outer loop
vertex -0.000742 -0.001419 -0.000519
vertex -0.000627 -0.001540 0.000305
vertex -0.000923 -0.001895 -0.000253
endloop
endfacet
facet normal 0.912069 -0.249824 -0.325142
outer loop
vertex -0.000923 -0.001895 -0.000253
vertex -0.000627 -0.001540 0.000305
vertex -0.000721 -0.002134 0.000497
endloop
endfacet
facet normal 0.188233 -0.978564 0.083550
outer loop
vertex 0.000591 -0.001435 0.000611
vertex 0.001144 -0.001419 -0.000447
vertex 0.001474 -0.001319 -0.000021
endloop
endfacet
facet normal -0.892801 0.449125 0.034562
outer loop
vertex -0.001951 -0.001459 0.000594
vertex -0.002220 -0.001958 0.000146
vertex -0.002169 -0.001916 0.000915
endloop
endfacet
facet normal 0.804757 -0.294111 -0.515621
outer loop
vertex -0.000273 -0.001673 0.000933
vertex -0.000721 -0.002134 0.000497
vertex -0.000627 -0.001540 0.000305
endloop
endfacet
facet normal 0.404890 -0.912669 -0.055671
outer loop
vertex 0.001422 -0.001067 0.000615
vertex 0.000998 -0.001298 0.001318
vertex 0.000591 -0.001435 0.000611
endloop
endfacet
facet normal 0.375261 -0.850582 0.368360
outer loop
vertex 0.001422 -0.001067 0.000615
vertex 0.000591 -0.001435 0.000611
vertex 0.001474 -0.001319 -0.000021
endloop
endfacet
facet normal -0.811209 0.541381 0.221011
outer loop
vertex -0.002169 -0.001916 0.000915
vertex -0.001944 -0.001982 0.001904
vertex -0.001951 -0.001459 0.000594
endloop
endfacet
facet normal 0.250134 -0.967283 -0.042394
outer loop
vertex -0.000273 -0.001673 0.000933
vertex 0.000591 -0.001435 0.000611
vertex 0.000313 -0.001556 0.001730
endloop
endfacet
facet normal 0.344421 -0.938681 -0.015870
outer loop
vertex 0.000591 -0.001435 0.000611
vertex 0.000998 -0.001298 0.001318
vertex 0.000313 -0.001556 0.001730
endloop
endfacet
facet normal -0.940932 0.312522 0.130296
outer loop
vertex -0.001951 -0.001459 0.000594
vertex -0.001944 -0.001982 0.001904
vertex -0.001779 -0.001506 0.001955
endloop
endfacet
facet normal 0.752694 -0.567099 0.334440
outer loop
vertex -0.000223 -0.001837 0.002459
vertex 0.000313 -0.001556 0.001730
vertex 0.000160 -0.001428 0.002290
endloop
endfacet
facet normal -0.890642 0.269571 0.366182
outer loop
vertex -0.001779 -0.001506 0.001955
vertex -0.001944 -0.001982 0.001904
vertex -0.001555 -0.001719 0.002655
endloop
endfacet
facet normal -0.871972 0.315622 0.374229
outer loop
vertex -0.001428 -0.001207 0.002519
vertex -0.001779 -0.001506 0.001955
vertex -0.001555 -0.001719 0.002655
endloop
endfacet
facet normal 0.572887 -0.210311 0.792192
outer loop
vertex 0.000160 -0.001428 0.002290
vertex -0.000147 -0.001256 0.002558
vertex -0.000223 -0.001837 0.002459
endloop
endfacet
facet normal 0.440773 -0.206894 0.873450
outer loop
vertex -0.000147 -0.001256 0.002558
vertex -0.000844 -0.001498 0.002852
vertex -0.000223 -0.001837 0.002459
endloop
endfacet
facet normal -0.323868 -0.400335 -0.857229
outer loop
vertex -0.001268 -0.002162 -0.000629
vertex -0.001864 -0.001923 -0.000516
vertex -0.001243 -0.001656 -0.000875
endloop
endfacet
facet normal 0.798972 -0.295141 -0.523961
outer loop
vertex -0.001268 -0.002162 -0.000629
vertex -0.001243 -0.001656 -0.000875
vertex -0.000923 -0.001895 -0.000253
endloop
endfacet
facet normal -0.672620 -0.041428 -0.738827
outer loop
vertex -0.001864 -0.001923 -0.000516
vertex -0.002021 -0.002865 -0.000321
vertex -0.002388 -0.002709 0.000005
endloop
endfacet
facet normal -0.853131 0.274424 -0.443688
outer loop
vertex -0.002220 -0.001958 0.000146
vertex -0.001864 -0.001923 -0.000516
vertex -0.002388 -0.002709 0.000005
endloop
endfacet
facet normal -0.171304 -0.172817 -0.969943
outer loop
vertex -0.001450 -0.002714 -0.000448
vertex -0.002021 -0.002865 -0.000321
vertex -0.001864 -0.001923 -0.000516
endloop
endfacet
facet normal -0.955567 0.244825 -0.164171
outer loop
vertex -0.002388 -0.002709 0.000005
vertex -0.002400 -0.002321 0.000655
vertex -0.002220 -0.001958 0.000146
endloop
endfacet
facet normal -0.876578 0.480209 0.031788
outer loop
vertex -0.002169 -0.001916 0.000915
vertex -0.002220 -0.001958 0.000146
vertex -0.002400 -0.002321 0.000655
endloop
endfacet
facet normal -0.901154 0.377469 0.213166
outer loop
vertex -0.002197 -0.002286 0.001451
vertex -0.002169 -0.001916 0.000915
vertex -0.002400 -0.002321 0.000655
endloop
endfacet
facet normal -0.887821 0.399216 0.228913
outer loop
vertex -0.002169 -0.001916 0.000915
vertex -0.002197 -0.002286 0.001451
vertex -0.001944 -0.001982 0.001904
endloop
endfacet
facet normal 0.794236 -0.568270 -0.215078
outer loop
vertex -0.000273 -0.001673 0.000933
vertex -0.000669 -0.002505 0.001671
vertex -0.000721 -0.002134 0.000497
endloop
endfacet
facet normal 0.653105 -0.651928 -0.385283
outer loop
vertex -0.000273 -0.001673 0.000933
vertex 0.000313 -0.001556 0.001730
vertex -0.000669 -0.002505 0.001671
endloop
endfacet
facet normal 0.671032 -0.708030 0.220021
outer loop
vertex -0.000669 -0.002505 0.001671
vertex 0.000313 -0.001556 0.001730
vertex -0.000223 -0.001837 0.002459
endloop
endfacet
facet normal -0.856170 -0.148899 0.494774
outer loop
vertex -0.001460 -0.002169 0.002684
vertex -0.001555 -0.001719 0.002655
vertex -0.001944 -0.001982 0.001904
endloop
endfacet
facet normal -0.268615 0.004875 0.963235
outer loop
vertex -0.000844 -0.001498 0.002852
vertex -0.001555 -0.001719 0.002655
vertex -0.001460 -0.002169 0.002684
endloop
endfacet
facet normal 0.066748 -0.300278 0.951513
outer loop
vertex -0.000844 -0.001498 0.002852
vertex -0.001460 -0.002169 0.002684
vertex -0.000853 -0.002206 0.002630
endloop
endfacet
facet normal 0.400256 -0.280024 0.872572
outer loop
vertex -0.000853 -0.002206 0.002630
vertex -0.000223 -0.001837 0.002459
vertex -0.000844 -0.001498 0.002852
endloop
endfacet
facet normal -0.267089 -0.220259 -0.938163
outer loop
vertex -0.001268 -0.002162 -0.000629
vertex -0.001450 -0.002714 -0.000448
vertex -0.001864 -0.001923 -0.000516
endloop
endfacet
facet normal 0.643943 -0.421115 -0.638749
outer loop
vertex -0.001268 -0.002162 -0.000629
vertex -0.000966 -0.002445 -0.000137
vertex -0.001450 -0.002714 -0.000448
endloop
endfacet
facet normal 0.785859 -0.185080 -0.590061
outer loop
vertex -0.000966 -0.002445 -0.000137
vertex -0.001268 -0.002162 -0.000629
vertex -0.000923 -0.001895 -0.000253
endloop
endfacet
facet normal -0.884200 0.393450 -0.251768
outer loop
vertex -0.002613 -0.002829 0.000608
vertex -0.002400 -0.002321 0.000655
vertex -0.002388 -0.002709 0.000005
endloop
endfacet
facet normal 0.945041 -0.135467 -0.297566
outer loop
vertex -0.000923 -0.001895 -0.000253
vertex -0.000721 -0.002134 0.000497
vertex -0.000966 -0.002445 -0.000137
endloop
endfacet
facet normal 0.943737 -0.191880 -0.269338
outer loop
vertex -0.000966 -0.002445 -0.000137
vertex -0.000721 -0.002134 0.000497
vertex -0.000960 -0.003084 0.000337
endloop
endfacet
facet normal -0.912873 0.366321 0.180202
outer loop
vertex -0.002409 -0.002705 0.001393
vertex -0.002400 -0.002321 0.000655
vertex -0.002613 -0.002829 0.000608
endloop
endfacet
facet normal -0.884687 0.417582 0.207254
outer loop
vertex -0.002400 -0.002321 0.000655
vertex -0.002409 -0.002705 0.001393
vertex -0.002197 -0.002286 0.001451
endloop
endfacet
facet normal 0.967890 -0.224158 -0.113765
outer loop
vertex -0.000669 -0.002505 0.001671
vertex -0.000960 -0.003084 0.000337
vertex -0.000721 -0.002134 0.000497
endloop
endfacet
facet normal -0.830865 0.360111 0.424245
outer loop
vertex -0.002197 -0.002286 0.001451
vertex -0.002409 -0.002705 0.001393
vertex -0.001968 -0.002646 0.002206
endloop
endfacet
facet normal -0.906090 0.201951 0.371775
outer loop
vertex -0.001968 -0.002646 0.002206
vertex -0.001944 -0.001982 0.001904
vertex -0.002197 -0.002286 0.001451
endloop
endfacet
facet normal 0.532588 -0.773346 0.343927
outer loop
vertex -0.000669 -0.002505 0.001671
vertex -0.000853 -0.002206 0.002630
vertex -0.001376 -0.002678 0.002378
endloop
endfacet
facet normal 0.541445 -0.767263 0.343723
outer loop
vertex -0.000669 -0.002505 0.001671
vertex -0.000223 -0.001837 0.002459
vertex -0.000853 -0.002206 0.002630
endloop
endfacet
facet normal -0.784395 0.280298 0.553315
outer loop
vertex -0.001968 -0.002646 0.002206
vertex -0.001460 -0.002169 0.002684
vertex -0.001944 -0.001982 0.001904
endloop
endfacet
facet normal -0.262728 -0.528851 0.807026
outer loop
vertex -0.001376 -0.002678 0.002378
vertex -0.001460 -0.002169 0.002684
vertex -0.001968 -0.002646 0.002206
endloop
endfacet
facet normal 0.046076 -0.509323 0.859341
outer loop
vertex -0.000853 -0.002206 0.002630
vertex -0.001460 -0.002169 0.002684
vertex -0.001376 -0.002678 0.002378
endloop
endfacet
facet normal -0.063635 -0.326916 -0.942909
outer loop
vertex -0.001450 -0.002714 -0.000448
vertex -0.001336 -0.003126 -0.000313
vertex -0.001728 -0.003283 -0.000232
endloop
endfacet
facet normal -0.133991 -0.293835 -0.946418
outer loop
vertex -0.001450 -0.002714 -0.000448
vertex -0.001728 -0.003283 -0.000232
vertex -0.002021 -0.002865 -0.000321
endloop
endfacet
facet normal 0.645885 -0.451211 -0.615826
outer loop
vertex -0.001450 -0.002714 -0.000448
vertex -0.000966 -0.002445 -0.000137
vertex -0.000960 -0.003084 0.000337
endloop
endfacet
facet normal 0.861513 0.073748 -0.502351
outer loop
vertex -0.001450 -0.002714 -0.000448
vertex -0.000960 -0.003084 0.000337
vertex -0.001336 -0.003126 -0.000313
endloop
endfacet
facet normal -0.888868 0.427721 0.164220
outer loop
vertex -0.002409 -0.002705 0.001393
vertex -0.002613 -0.002829 0.000608
vertex -0.002645 -0.003136 0.001236
endloop
endfacet
facet normal -0.800490 0.238680 0.549770
outer loop
vertex -0.002409 -0.002705 0.001393
vertex -0.002645 -0.003136 0.001236
vertex -0.002226 -0.003319 0.001924
endloop
endfacet
facet normal -0.874490 0.142238 0.463720
outer loop
vertex -0.001968 -0.002646 0.002206
vertex -0.002409 -0.002705 0.001393
vertex -0.002226 -0.003319 0.001924
endloop
endfacet
facet normal 0.696147 -0.394410 0.599850
outer loop
vertex -0.001376 -0.002678 0.002378
vertex -0.001328 -0.003211 0.001971
vertex -0.000669 -0.002505 0.001671
endloop
endfacet
facet normal 0.744385 -0.512649 0.427880
outer loop
vertex -0.001328 -0.003211 0.001971
vertex -0.001230 -0.003655 0.001269
vertex -0.000669 -0.002505 0.001671
endloop
endfacet
facet normal -0.521432 -0.150892 0.839846
outer loop
vertex -0.001968 -0.002646 0.002206
vertex -0.002226 -0.003319 0.001924
vertex -0.001730 -0.003155 0.002262
endloop
endfacet
facet normal 0.454332 -0.514044 0.727558
outer loop
vertex -0.001328 -0.003211 0.001971
vertex -0.001376 -0.002678 0.002378
vertex -0.001730 -0.003155 0.002262
endloop
endfacet
facet normal -0.280035 -0.025214 0.959659
outer loop
vertex -0.001730 -0.003155 0.002262
vertex -0.001376 -0.002678 0.002378
vertex -0.001968 -0.002646 0.002206
endloop
endfacet
facet normal -0.698068 -0.386558 -0.602722
outer loop
vertex -0.002021 -0.002865 -0.000321
vertex -0.002247 -0.003483 0.000338
vertex -0.002388 -0.002709 0.000005
endloop
endfacet
facet normal -0.535786 -0.515864 -0.668444
outer loop
vertex -0.002247 -0.003483 0.000338
vertex -0.002021 -0.002865 -0.000321
vertex -0.001728 -0.003283 -0.000232
endloop
endfacet
facet normal 0.842517 -0.263838 -0.469632
outer loop
vertex -0.001306 -0.003517 -0.000041
vertex -0.001336 -0.003126 -0.000313
vertex -0.000960 -0.003084 0.000337
endloop
endfacet
facet normal -0.939003 0.060126 -0.338612
outer loop
vertex -0.002613 -0.002829 0.000608
vertex -0.002388 -0.002709 0.000005
vertex -0.002627 -0.003248 0.000574
endloop
endfacet
facet normal -0.647966 -0.397611 -0.649651
outer loop
vertex -0.002247 -0.003483 0.000338
vertex -0.002627 -0.003248 0.000574
vertex -0.002388 -0.002709 0.000005
endloop
endfacet
facet normal -0.998808 0.036741 -0.032140
outer loop
vertex -0.002613 -0.002829 0.000608
vertex -0.002627 -0.003248 0.000574
vertex -0.002645 -0.003136 0.001236
endloop
endfacet
facet normal -0.953496 -0.300259 0.026273
outer loop
vertex -0.002627 -0.003248 0.000574
vertex -0.002525 -0.003516 0.001235
vertex -0.002645 -0.003136 0.001236
endloop
endfacet
facet normal -0.853468 -0.269154 0.446262
outer loop
vertex -0.002226 -0.003319 0.001924
vertex -0.002645 -0.003136 0.001236
vertex -0.002525 -0.003516 0.001235
endloop
endfacet
facet normal 0.472078 -0.472604 0.744169
outer loop
vertex -0.001328 -0.003211 0.001971
vertex -0.001730 -0.003155 0.002262
vertex -0.001703 -0.003632 0.001942
endloop
endfacet
facet normal 0.641514 -0.604752 0.471948
outer loop
vertex -0.001328 -0.003211 0.001971
vertex -0.001703 -0.003632 0.001942
vertex -0.001230 -0.003655 0.001269
endloop
endfacet
facet normal 0.057263 -0.567131 -0.821635
outer loop
vertex -0.001336 -0.003126 -0.000313
vertex -0.001306 -0.003517 -0.000041
vertex -0.001728 -0.003283 -0.000232
endloop
endfacet
facet normal -0.275334 -0.800910 -0.531727
outer loop
vertex -0.001591 -0.003813 0.000495
vertex -0.002247 -0.003483 0.000338
vertex -0.001728 -0.003283 -0.000232
endloop
endfacet
facet normal -0.199496 -0.809450 -0.552261
outer loop
vertex -0.001306 -0.003517 -0.000041
vertex -0.001591 -0.003813 0.000495
vertex -0.001728 -0.003283 -0.000232
endloop
endfacet
facet normal 0.845513 -0.278471 -0.455589
outer loop
vertex -0.001088 -0.003778 0.000523
vertex -0.001306 -0.003517 -0.000041
vertex -0.000960 -0.003084 0.000337
endloop
endfacet
facet normal -0.606480 -0.765288 -0.215675
outer loop
vertex -0.002525 -0.003516 0.001235
vertex -0.002627 -0.003248 0.000574
vertex -0.002247 -0.003483 0.000338
endloop
endfacet
facet normal 0.970819 -0.123817 0.205378
outer loop
vertex -0.001088 -0.003778 0.000523
vertex -0.000960 -0.003084 0.000337
vertex -0.001230 -0.003655 0.001269
endloop
endfacet
facet normal 0.899612 -0.436638 -0.006695
outer loop
vertex -0.000960 -0.003084 0.000337
vertex -0.000669 -0.002505 0.001671
vertex -0.001230 -0.003655 0.001269
endloop
endfacet
facet normal -0.507084 -0.745856 0.431931
outer loop
vertex -0.002525 -0.003516 0.001235
vertex -0.001996 -0.003802 0.001361
vertex -0.002226 -0.003319 0.001924
endloop
endfacet
facet normal -0.466481 -0.756803 0.457869
outer loop
vertex -0.001996 -0.003802 0.001361
vertex -0.001703 -0.003632 0.001942
vertex -0.002226 -0.003319 0.001924
endloop
endfacet
facet normal -0.345565 -0.536772 0.769714
outer loop
vertex -0.001703 -0.003632 0.001942
vertex -0.001730 -0.003155 0.002262
vertex -0.002226 -0.003319 0.001924
endloop
endfacet
facet normal 0.086047 -0.891079 -0.445617
outer loop
vertex -0.001591 -0.003813 0.000495
vertex -0.001306 -0.003517 -0.000041
vertex -0.001088 -0.003778 0.000523
endloop
endfacet
facet normal -0.438945 -0.882672 -0.167982
outer loop
vertex -0.002247 -0.003483 0.000338
vertex -0.001996 -0.003802 0.001361
vertex -0.002525 -0.003516 0.001235
endloop
endfacet
facet normal -0.407238 -0.895463 -0.179730
outer loop
vertex -0.002247 -0.003483 0.000338
vertex -0.001591 -0.003813 0.000495
vertex -0.001996 -0.003802 0.001361
endloop
endfacet
facet normal 0.057562 -0.983108 0.173739
outer loop
vertex -0.001088 -0.003778 0.000523
vertex -0.001230 -0.003655 0.001269
vertex -0.001591 -0.003813 0.000495
endloop
endfacet
facet normal 0.199822 -0.974122 0.105625
outer loop
vertex -0.001230 -0.003655 0.001269
vertex -0.001996 -0.003802 0.001361
vertex -0.001591 -0.003813 0.000495
endloop
endfacet
facet normal 0.206192 -0.962123 0.178337
outer loop
vertex -0.001230 -0.003655 0.001269
vertex -0.001703 -0.003632 0.001942
vertex -0.001996 -0.003802 0.001361
endloop
endfacet
endsolid Exported from Blender-3.5.1
