solid ExportedfromBlender-2.79(sub0)
  facet normal 0.73525972 0.67288732 -0.081337559
    outer loop
       vertex 0.02073005 0.001843298 -0.023277796
       vertex 0.020852812 0.0017117615 -0.023256245
       vertex 0.020788275 0.001762284 -0.023421673
    endloop
  endfacet
  facet normal 0.45312514 0.84258928 -0.29106857
    outer loop
       vertex 0.020219723 0.0020185057 -0.023565061
       vertex 0.02073005 0.001843298 -0.023277796
       vertex 0.020788275 0.001762284 -0.023421673
    endloop
  endfacet
  facet normal 0.099662536 0.99141414 -0.084648579
    outer loop
       vertex 0.020788275 0.001762284 -0.023421673
       vertex 0.020780277 0.0017445714 -0.023638543
       vertex 0.020440376 0.0017690827 -0.023751652
    endloop
  endfacet
  facet normal 0.45849701 0.75558953 -0.46783005
    outer loop
       vertex 0.020788275 0.001762284 -0.023421673
       vertex 0.020440376 0.0017690827 -0.023751652
       vertex 0.020219723 0.0020185057 -0.023565061
    endloop
  endfacet
  facet normal 0.38758117 0.91232164 -0.13209871
    outer loop
       vertex 0.02073005 0.001843298 -0.023277796
       vertex 0.020219723 0.0020185057 -0.023565061
       vertex 0.020451683 0.0019990865 -0.023018599
    endloop
  endfacet
  facet normal 0.61601221 0.76078038 0.204309
    outer loop
       vertex 0.02073005 0.001843298 -0.023277796
       vertex 0.020451683 0.0019990865 -0.023018599
       vertex 0.020862957 0.001618677 -0.022842109
    endloop
  endfacet
  facet normal -0.38261859 0.59732839 -0.70484169
    outer loop
       vertex 0.019650902 0.0019357598 -0.023705092
       vertex 0.019798311 0.0017177198 -0.023969893
       vertex 0.019187078 0.0016294316 -0.02371291
    endloop
  endfacet
  facet normal 0.01436939 0.97361474 0.22774515
    outer loop
       vertex 0.020012317 0.0019818442 -0.022749017
       vertex 0.019852123 0.0020948379 -0.02322196
       vertex 0.019407182 0.0019720593 -0.022669006
    endloop
  endfacet
  facet normal -0.44803079 0.69280387 -0.56505859
    outer loop
       vertex 0.019650902 0.0019357598 -0.023705092
       vertex 0.019187078 0.0016294316 -0.02371291
       vertex 0.019165167 0.0019161769 -0.023343967
    endloop
  endfacet
  facet normal 0.073056452 0.76024883 0.64551101
    outer loop
       vertex 0.020012317 0.0019818442 -0.022749017
       vertex 0.019407182 0.0019720593 -0.022669006
       vertex 0.019758194 0.0016296745 -0.022305489
    endloop
  endfacet
  facet normal -0.92424495 0.028375569 -0.38074413
    outer loop
       vertex 0.018812907 0.0011866165 -0.023597384
       vertex 0.018832027 0.00097218288 -0.023659777
       vertex 0.018672858 0.00078456995 -0.023287381
    endloop
  endfacet
  facet normal -0.94790283 0.095978465 -0.30375707
    outer loop
       vertex 0.018672858 0.00078456995 -0.023287381
       vertex 0.018615128 0.00092685354 -0.023062271
       vertex 0.018812907 0.0011866165 -0.023597384
    endloop
  endfacet
  facet normal -0.79870296 0.5957623 0.08450367
    outer loop
       vertex 0.018854464 0.0016468564 -0.022809087
       vertex 0.018699061 0.0014868027 -0.023149513
       vertex 0.018597622 0.001260856 -0.022515328
    endloop
  endfacet
  facet normal -0.30417375 0.3771469 0.87477914
    outer loop
       vertex 0.019508919 0.0011803941 -0.021991592
       vertex 0.019039542 0.0015038215 -0.022294242
       vertex 0.019033368 0.00096143344 -0.022062547
    endloop
  endfacet
  facet normal -0.75571801 -0.12881025 0.64210452
    outer loop
       vertex 0.019033368 0.00096143344 -0.022062547
       vertex 0.018597622 0.001260856 -0.022515328
       vertex 0.018714004 0.00073874538 -0.022483092
    endloop
  endfacet
  facet normal -0.56130328 0.33050929 0.75875044
    outer loop
       vertex 0.019033368 0.00096143344 -0.022062547
       vertex 0.019039542 0.0015038215 -0.022294242
       vertex 0.018597622 0.001260856 -0.022515328
    endloop
  endfacet
  facet normal -0.58779372 0.69990343 0.40575082
    outer loop
       vertex 0.019039542 0.0015038215 -0.022294242
       vertex 0.018854464 0.0016468564 -0.022809087
       vertex 0.018597622 0.001260856 -0.022515328
    endloop
  endfacet
  facet normal -0.9726489 -0.21078545 0.097588998
    outer loop
       vertex 0.018597622 0.001260856 -0.022515328
       vertex 0.018615128 0.00092685354 -0.023062271
       vertex 0.018714004 0.00073874538 -0.022483092
    endloop
  endfacet
  facet normal -0.98521732 0.13036194 -0.11114224
    outer loop
       vertex 0.018597622 0.001260856 -0.022515328
       vertex 0.018699061 0.0014868027 -0.023149513
       vertex 0.018615128 0.00092685354 -0.023062271
    endloop
  endfacet
  facet normal -0.94783745 0.09465269 -0.30437648
    outer loop
       vertex 0.018699061 0.0014868027 -0.023149513
       vertex 0.018812907 0.0011866165 -0.023597384
       vertex 0.018615128 0.00092685354 -0.023062271
    endloop
  endfacet
  facet normal -0.98704384 -0.056841125 0.15004513
    outer loop
       vertex 0.018714004 0.00073874538 -0.022483092
       vertex 0.018615128 0.00092685354 -0.023062271
       vertex 0.0186276 0.00071222965 -0.02306153
    endloop
  endfacet
  facet normal -0.74524691 0.60552749 0.27918364
    outer loop
       vertex 0.0186276 0.00071222965 -0.02306153
       vertex 0.018613258 0.00056848701 -0.022788047
       vertex 0.018718892 0.00057921018 -0.022529329
    endloop
  endfacet
  facet normal -0.98582499 -0.073862553 0.15064333
    outer loop
       vertex 0.0186276 0.00071222965 -0.02306153
       vertex 0.018718892 0.00057921018 -0.022529329
       vertex 0.018714004 0.00073874538 -0.022483092
    endloop
  endfacet
  facet normal -0.97518828 -0.057409497 -0.21380356
    outer loop
       vertex 0.018615128 0.00092685354 -0.023062271
       vertex 0.018672858 0.00078456995 -0.023287381
       vertex 0.0186276 0.00071222965 -0.02306153
    endloop
  endfacet
  facet normal -0.090574889 0.50608208 0.85771622
    outer loop
       vertex 0.020126244 0.0012464114 -0.021965355
       vertex 0.019508919 0.0011803941 -0.021991592
       vertex 0.019661544 0.00082424731 -0.021765336
    endloop
  endfacet
  facet normal -0.19575867 0.58750067 0.78518883
    outer loop
       vertex 0.019661544 0.00082424731 -0.021765336
       vertex 0.019944245 0.00089769211 -0.021749809
       vertex 0.020126244 0.0012464114 -0.021965355
    endloop
  endfacet
  facet normal -0.093492123 0.6045565 0.79105668
    outer loop
       vertex 0.019758194 0.0016296745 -0.022305489
       vertex 0.019039542 0.0015038215 -0.022294242
       vertex 0.019508919 0.0011803941 -0.021991592
    endloop
  endfacet
  facet normal -0.1059746 0.67074267 0.73408014
    outer loop
       vertex 0.019758194 0.0016296745 -0.022305489
       vertex 0.019407182 0.0019720593 -0.022669006
       vertex 0.019039542 0.0015038215 -0.022294242
    endloop
  endfacet
  facet normal -0.53797803 0.74222556 0.39960087
    outer loop
       vertex 0.019407182 0.0019720593 -0.022669006
       vertex 0.018854464 0.0016468564 -0.022809087
       vertex 0.019039542 0.0015038215 -0.022294242
    endloop
  endfacet
  facet normal -0.68404692 0.72880479 -0.030387313
    outer loop
       vertex 0.019165167 0.0019161769 -0.023343967
       vertex 0.018699061 0.0014868027 -0.023149513
       vertex 0.018854464 0.0016468564 -0.022809087
    endloop
  endfacet
  facet normal -0.69684536 0.54565778 -0.46547194
    outer loop
       vertex 0.019165167 0.0019161769 -0.023343967
       vertex 0.019187078 0.0016294316 -0.02371291
       vertex 0.018699061 0.0014868027 -0.023149513
    endloop
  endfacet
  facet normal -0.72036615 0.4774376 -0.50311624
    outer loop
       vertex 0.019187078 0.0016294316 -0.02371291
       vertex 0.018812907 0.0011866165 -0.023597384
       vertex 0.018699061 0.0014868027 -0.023149513
    endloop
  endfacet
  facet normal -0.098358455 0.60604638 0.78932465
    outer loop
       vertex 0.020126244 0.0012464114 -0.021965355
       vertex 0.019758194 0.0016296745 -0.022305489
       vertex 0.019508919 0.0011803941 -0.021991592
    endloop
  endfacet
  facet normal 0.059203074 0.69380861 0.71772182
    outer loop
       vertex 0.020126244 0.0012464114 -0.021965355
       vertex 0.020416082 0.0016994511 -0.022427209
       vertex 0.019758194 0.0016296745 -0.022305489
    endloop
  endfacet
  facet normal 0.035303166 0.77271121 0.63377526
    outer loop
       vertex 0.020416082 0.0016994511 -0.022427209
       vertex 0.020012317 0.0019818442 -0.022749017
       vertex 0.019758194 0.0016296745 -0.022305489
    endloop
  endfacet
  facet normal -0.52570391 0.84233732 0.11875704
    outer loop
       vertex 0.019407182 0.0019720593 -0.022669006
       vertex 0.019165167 0.0019161769 -0.023343967
       vertex 0.018854464 0.0016468564 -0.022809087
    endloop
  endfacet
  facet normal -0.25348556 0.96727882 0.010805694
    outer loop
       vertex 0.019407182 0.0019720593 -0.022669006
       vertex 0.019852123 0.0020948379 -0.02322196
       vertex 0.019165167 0.0019161769 -0.023343967
    endloop
  endfacet
  facet normal -0.20716342 0.95159559 -0.22704436
    outer loop
       vertex 0.019852123 0.0020948379 -0.02322196
       vertex 0.019650902 0.0019357598 -0.023705092
       vertex 0.019165167 0.0019161769 -0.023343967
    endloop
  endfacet
  facet normal -0.67265815 0.40719571 -0.61783708
    outer loop
       vertex 0.018812907 0.0011866165 -0.023597384
       vertex 0.019187078 0.0016294316 -0.02371291
       vertex 0.019292478 0.001365227 -0.024001791
    endloop
  endfacet
  facet normal -0.68833904 0.59107954 -0.42049298
    outer loop
       vertex 0.019292478 0.001365227 -0.024001791
       vertex 0.019195611 0.0012046988 -0.024068873
       vertex 0.018989278 0.0011125855 -0.023860592
    endloop
  endfacet
  facet normal -0.66412714 0.4738301 -0.57829074
    outer loop
       vertex 0.019292478 0.001365227 -0.024001791
       vertex 0.018989278 0.0011125855 -0.023860592
       vertex 0.018812907 0.0011866165 -0.023597384
    endloop
  endfacet
  facet normal -0.38524749 0.58153482 -0.7165205
    outer loop
       vertex 0.019187078 0.0016294316 -0.02371291
       vertex 0.019798311 0.0017177198 -0.023969893
       vertex 0.019609028 0.0014486292 -0.024086519
    endloop
  endfacet
  facet normal -0.35123282 0.62355326 -0.69843886
    outer loop
       vertex 0.019609028 0.0014486292 -0.024086519
       vertex 0.019292478 0.001365227 -0.024001791
       vertex 0.019187078 0.0016294316 -0.02371291
    endloop
  endfacet
  facet normal -0.1263829 0.46798064 -0.87465507
    outer loop
       vertex 0.019798311 0.0017177198 -0.023969893
       vertex 0.019877636 0.0015362565 -0.024078446
       vertex 0.019609028 0.0014486292 -0.024086519
    endloop
  endfacet
  facet normal 0.56740531 0.66833523 0.48101895
    outer loop
       vertex 0.020944517 0.0014552201 -0.022711206
       vertex 0.020862957 0.001618677 -0.022842109
       vertex 0.020416082 0.0016994511 -0.022427209
    endloop
  endfacet
  facet normal 0.33286056 0.58713174 0.73788899
    outer loop
       vertex 0.020416082 0.0016994511 -0.022427209
       vertex 0.020694199 0.0013556509 -0.022279108
       vertex 0.021007752 0.0013677363 -0.022430167
    endloop
  endfacet
  facet normal 0.48339906 0.86080421 0.15919
    outer loop
       vertex 0.020416082 0.0016994511 -0.022427209
       vertex 0.021007752 0.0013677363 -0.022430167
       vertex 0.020944517 0.0014552201 -0.022711206
    endloop
  endfacet
  facet normal 0.51751326 0.7503312 0.41131875
    outer loop
       vertex 0.020862957 0.001618677 -0.022842109
       vertex 0.020451683 0.0019990865 -0.023018599
       vertex 0.020416082 0.0016994511 -0.022427209
    endloop
  endfacet
  facet normal 0.24241098 0.85946966 0.45005424
    outer loop
       vertex 0.020451683 0.0019990865 -0.023018599
       vertex 0.020012317 0.0019818442 -0.022749017
       vertex 0.020416082 0.0016994511 -0.022427209
    endloop
  endfacet
  facet normal 0.086673195 0.97520301 0.20363411
    outer loop
       vertex 0.020451683 0.0019990865 -0.023018599
       vertex 0.019852123 0.0020948379 -0.02322196
       vertex 0.020012317 0.0019818442 -0.022749017
    endloop
  endfacet
  facet normal 0.16985594 0.98477012 -0.037104918
    outer loop
       vertex 0.020451683 0.0019990865 -0.023018599
       vertex 0.020219723 0.0020185057 -0.023565061
       vertex 0.019852123 0.0020948379 -0.02322196
    endloop
  endfacet
  facet normal -0.068593563 0.95573516 -0.28612099
    outer loop
       vertex 0.020219723 0.0020185057 -0.023565061
       vertex 0.019650902 0.0019357598 -0.023705092
       vertex 0.019852123 0.0020948379 -0.02322196
    endloop
  endfacet
  facet normal 0.03936442 0.78202001 -0.62200896
    outer loop
       vertex 0.020219723 0.0020185057 -0.023565061
       vertex 0.019798311 0.0017177198 -0.023969893
       vertex 0.019650902 0.0019357598 -0.023705092
    endloop
  endfacet
  facet normal 0.20114548 0.69462948 -0.69067386
    outer loop
       vertex 0.020219723 0.0020185057 -0.023565061
       vertex 0.020440376 0.0017690827 -0.023751652
       vertex 0.020135327 0.0016251524 -0.023985246
    endloop
  endfacet
  facet normal 0.16185723 0.70397715 -0.69153337
    outer loop
       vertex 0.020135327 0.0016251524 -0.023985246
       vertex 0.019798311 0.0017177198 -0.023969893
       vertex 0.020219723 0.0020185057 -0.023565061
    endloop
  endfacet
  facet normal 0.79852271 0.18450546 -0.57299146
    outer loop
       vertex 0.023719356 4.2352491e-05 -0.024646171
       vertex 0.024115304 -0.0017060043 -0.024657354
       vertex 0.023148831 -0.00078855528 -0.025708811
    endloop
  endfacet
  facet normal 0.92896512 -0.31346586 -0.19688313
    outer loop
       vertex 0.023618653 -0.0033897926 -0.024319899
       vertex 0.024115304 -0.0017060043 -0.024657354
       vertex 0.024044068 -0.002809695 -0.02323624
    endloop
  endfacet
  facet normal 0.52510754 0.51038181 -0.68100842
    outer loop
       vertex 0.023719356 4.2352491e-05 -0.024646171
       vertex 0.023148831 -0.00078855528 -0.025708811
       vertex 0.022440974 0.00092637586 -0.024969366
    endloop
  endfacet
  facet normal 0.59290638 0.75581561 -0.27785751
    outer loop
       vertex 0.023719356 4.2352491e-05 -0.024646171
       vertex 0.022440974 0.00092637586 -0.024969366
       vertex 0.022969551 0.0010629627 -0.023469924
    endloop
  endfacet
  facet normal 0.85453936 0.50906682 0.10302162
    outer loop
       vertex 0.023719356 4.2352491e-05 -0.024646171
       vertex 0.022969551 0.0010629627 -0.023469924
       vertex 0.024084125 -0.00081274725 -0.023446486
    endloop
  endfacet
  facet normal 0.75225805 -0.65647549 0.056104907
    outer loop
       vertex 0.023618653 -0.0033897926 -0.024319899
       vertex 0.024044068 -0.002809695 -0.02323624
       vertex 0.022845547 -0.0041580031 -0.022942766
    endloop
  endfacet
  facet normal 0.21988953 -0.3089037 -0.9253254
    outer loop
       vertex 0.021878481 -0.0018550055 -0.02638189
       vertex 0.022954769 -0.0028065438 -0.025808472
       vertex 0.0208255 -0.0035783685 -0.0260568
    endloop
  endfacet
  facet normal -0.22818144 0.53901378 -0.81080045
    outer loop
       vertex 0.020686538 0.0010862455 -0.025121927
       vertex 0.021317227 -0.00017702699 -0.026139234
       vertex 0.019406614 -8.1757288e-05 -0.0255382
    endloop
  endfacet
  facet normal 0.29392221 0.94592871 0.13721736
    outer loop
       vertex 0.021007752 0.0013677363 -0.022430167
       vertex 0.021766565 0.0011381172 -0.022472646
       vertex 0.021237607 0.0015160664 -0.023945058
    endloop
  endfacet
  facet normal 0.39667042 0.91361232 -0.08924748
    outer loop
       vertex 0.021237607 0.0015160664 -0.023945058
       vertex 0.020780277 0.0017445714 -0.023638543
       vertex 0.020788275 0.001762284 -0.023421673
    endloop
  endfacet
  facet normal 0.52701341 0.84817529 0.053437334
    outer loop
       vertex 0.021237607 0.0015160664 -0.023945058
       vertex 0.020788275 0.001762284 -0.023421673
       vertex 0.020852812 0.0017117615 -0.023256245
    endloop
  endfacet
  facet normal 0.48663063 0.85920744 0.15796583
    outer loop
       vertex 0.020944517 0.0014552201 -0.022711206
       vertex 0.021007752 0.0013677363 -0.022430167
       vertex 0.021237607 0.0015160664 -0.023945058
    endloop
  endfacet
  facet normal 0.96472858 -0.14115673 0.2222016
    outer loop
       vertex 0.020972055 0.0014991696 -0.022802849
       vertex 0.020944517 0.0014552201 -0.022711206
       vertex 0.021237607 0.0015160664 -0.023945058
    endloop
  endfacet
  facet normal 0.65078314 0.74384854 0.15221909
    outer loop
       vertex 0.021237607 0.0015160664 -0.023945058
       vertex 0.020852812 0.0017117615 -0.023256245
       vertex 0.020953853 0.0015546916 -0.022920671
    endloop
  endfacet
  facet normal 0.74977857 0.63567224 0.1837196
    outer loop
       vertex 0.021237607 0.0015160664 -0.023945058
       vertex 0.020953853 0.0015546916 -0.022920671
       vertex 0.020972055 0.0014991696 -0.022802849
    endloop
  endfacet
  facet normal 0.56595061 0.26252451 0.78152466
    outer loop
       vertex 0.023588744 -0.0017012981 -0.022018945
       vertex 0.022899661 -4.8226801e-05 -0.022075226
       vertex 0.022161678 -0.0015426337 -0.021038815
    endloop
  endfacet
  facet normal 0.54672669 -0.82333309 -0.15235663
    outer loop
       vertex 0.023618653 -0.0033897926 -0.024319899
       vertex 0.022845547 -0.0041580031 -0.022942766
       vertex 0.021911776 -0.0044603097 -0.024659913
    endloop
  endfacet
  facet normal -0.067140771 -0.14518457 -0.98712388
    outer loop
       vertex 0.021878481 -0.0018550055 -0.02638189
       vertex 0.0208255 -0.0035783685 -0.0260568
       vertex 0.020085953 -0.0018129546 -0.026266153
    endloop
  endfacet
  facet normal -0.4416842 0.68886172 -0.57479092
    outer loop
       vertex 0.020686538 0.0010862455 -0.025121927
       vertex 0.019406614 -8.1757288e-05 -0.0255382
       vertex 0.019332681 0.00088533139 -0.024322375
    endloop
  endfacet
  facet normal 0.21451451 0.56098288 0.79955095
    outer loop
       vertex 0.021146751 -8.2411732e-06 -0.021502043
       vertex 0.021766565 0.0011381172 -0.022472646
       vertex 0.021007752 0.0013677363 -0.022430167
    endloop
  endfacet
  facet normal 0.33087858 0.59281232 0.73422948
    outer loop
       vertex 0.021007752 0.0013677363 -0.022430167
       vertex 0.020694199 0.0013556509 -0.022279108
       vertex 0.020508221 0.0011823381 -0.022055366
    endloop
  endfacet
  facet normal 0.57911789 0.43971723 0.68649197
    outer loop
       vertex 0.020508221 0.0011823381 -0.022055366
       vertex 0.020335958 0.0011099342 -0.021863669
       vertex 0.020344631 0.00081956788 -0.021684998
    endloop
  endfacet
  facet normal 0.38923891 0.54180112 0.74494605
    outer loop
       vertex 0.020344631 0.00081956788 -0.021684998
       vertex 0.021146751 -8.2411732e-06 -0.021502043
       vertex 0.021007752 0.0013677363 -0.022430167
    endloop
  endfacet
  facet normal 0.3260891 0.59933308 0.73107165
    outer loop
       vertex 0.021007752 0.0013677363 -0.022430167
       vertex 0.020508221 0.0011823381 -0.022055366
       vertex 0.020344631 0.00081956788 -0.021684998
    endloop
  endfacet
  facet normal 0.55363456 -0.11524703 0.82474657
    outer loop
       vertex 0.023588744 -0.0017012981 -0.022018945
       vertex 0.022161678 -0.0015426337 -0.021038815
       vertex 0.022868207 -0.0032499925 -0.021751673
    endloop
  endfacet
  facet normal -0.29947233 -0.95283979 -0.049118832
    outer loop
       vertex 0.020099043 -0.004618055 -0.024773241
       vertex 0.020735885 -0.0049005811 -0.023175368
       vertex 0.018863664 -0.004288693 -0.023630449
    endloop
  endfacet
  facet normal -0.85814104 -0.24409764 -0.45167499
    outer loop
       vertex 0.018499821 -0.0016776889 -0.025588475
       vertex 0.018922309 -0.0034719563 -0.025421492
       vertex 0.017976433 -0.0025277189 -0.024134706
    endloop
  endfacet
  facet normal -0.92422987 0.35501642 0.1405791
    outer loop
       vertex 0.018514372 0.00012150331 -0.023025488
       vertex 0.018061385 -0.00053487549 -0.024346019
       vertex 0.018016499 -0.0013507534 -0.022580712
    endloop
  endfacet
  facet normal -0.50326816 0.077805669 0.86062038
    outer loop
       vertex 0.020776959 -0.0012316227 -0.021021055
       vertex 0.019503082 -0.00045427312 -0.021836262
       vertex 0.019519806 -0.0022468509 -0.021664422
    endloop
  endfacet
  facet normal -0.13113332 -0.64248504 0.75499472
    outer loop
       vertex 0.021950825 -0.0041649218 -0.022218419
       vertex 0.021372986 -0.0028795165 -0.021224928
       vertex 0.0201854 -0.0039791169 -0.022366935
    endloop
  endfacet
  facet normal -0.31750513 -0.45859462 0.82998884
    outer loop
       vertex 0.0201854 -0.0039791169 -0.022366935
       vertex 0.019519806 -0.0022468509 -0.021664422
       vertex 0.018408918 -0.0030785841 -0.022548941
    endloop
  endfacet
  facet normal -0.35138525 -0.46464015 0.81279637
    outer loop
       vertex 0.0201854 -0.0039791169 -0.022366935
       vertex 0.021372986 -0.0028795165 -0.021224928
       vertex 0.019519806 -0.0022468509 -0.021664422
    endloop
  endfacet
  facet normal -0.29611622 -0.22203455 0.92898646
    outer loop
       vertex 0.021372986 -0.0028795165 -0.021224928
       vertex 0.020776959 -0.0012316227 -0.021021055
       vertex 0.019519806 -0.0022468509 -0.021664422
    endloop
  endfacet
  facet normal -0.56551991 -0.11341782 0.81689879
    outer loop
       vertex 0.019519806 -0.0022468509 -0.021664422
       vertex 0.018016499 -0.0013507534 -0.022580712
       vertex 0.018408918 -0.0030785841 -0.022548941
    endloop
  endfacet
  facet normal -0.48406303 0.079023725 0.87145754
    outer loop
       vertex 0.019519806 -0.0022468509 -0.021664422
       vertex 0.019503082 -0.00045427312 -0.021836262
       vertex 0.018016499 -0.0013507534 -0.022580712
    endloop
  endfacet
  facet normal -0.59389656 0.40997029 0.69225085
    outer loop
       vertex 0.019503082 -0.00045427312 -0.021836262
       vertex 0.018514372 0.00012150331 -0.023025488
       vertex 0.018016499 -0.0013507534 -0.022580712
    endloop
  endfacet
  facet normal -0.95869673 -0.21429705 0.18702235
    outer loop
       vertex 0.018016499 -0.0013507534 -0.022580712
       vertex 0.017976433 -0.0025277189 -0.024134706
       vertex 0.018408918 -0.0030785841 -0.022548941
    endloop
  endfacet
  facet normal -0.9991015 0.041952537 -0.0060144762
    outer loop
       vertex 0.018016499 -0.0013507534 -0.022580712
       vertex 0.018061385 -0.00053487549 -0.024346019
       vertex 0.017976433 -0.0025277189 -0.024134706
    endloop
  endfacet
  facet normal -0.94170192 0.0044710672 -0.33641865
    outer loop
       vertex 0.018061385 -0.00053487549 -0.024346019
       vertex 0.018499821 -0.0016776889 -0.025588475
       vertex 0.017976433 -0.0025277189 -0.024134706
    endloop
  endfacet
  facet normal -0.89974242 -0.42536244 0.09762359
    outer loop
       vertex 0.017976433 -0.0025277189 -0.024134706
       vertex 0.018863664 -0.004288693 -0.023630449
       vertex 0.018408918 -0.0030785841 -0.022548941
    endloop
  endfacet
  facet normal -0.8334513 -0.4919739 -0.25163587
    outer loop
       vertex 0.017976433 -0.0025277189 -0.024134706
       vertex 0.018922309 -0.0034719563 -0.025421492
       vertex 0.018863664 -0.004288693 -0.023630449
    endloop
  endfacet
  facet normal -0.53918472 -0.75947123 -0.36398255
    outer loop
       vertex 0.018922309 -0.0034719563 -0.025421492
       vertex 0.020099043 -0.004618055 -0.024773241
       vertex 0.018863664 -0.004288693 -0.023630449
    endloop
  endfacet
  facet normal -0.41030962 -0.68857225 0.59792497
    outer loop
       vertex 0.018863664 -0.004288693 -0.023630449
       vertex 0.0201854 -0.0039791169 -0.022366935
       vertex 0.018408918 -0.0030785841 -0.022548941
    endloop
  endfacet
  facet normal -0.37709513 -0.72780956 0.5727936
    outer loop
       vertex 0.018863664 -0.004288693 -0.023630449
       vertex 0.020735885 -0.0049005811 -0.023175368
       vertex 0.0201854 -0.0039791169 -0.022366935
    endloop
  endfacet
  facet normal -0.13264529 -0.69726614 0.70443251
    outer loop
       vertex 0.020735885 -0.0049005811 -0.023175368
       vertex 0.021950825 -0.0041649218 -0.022218419
       vertex 0.0201854 -0.0039791169 -0.022366935
    endloop
  endfacet
  facet normal 0.14719395 -0.56260041 0.81351996
    outer loop
       vertex 0.022868207 -0.0032499925 -0.021751673
       vertex 0.021372986 -0.0028795165 -0.021224928
       vertex 0.021950825 -0.0041649218 -0.022218419
    endloop
  endfacet
  facet normal 0.25648873 -0.28009825 0.92507216
    outer loop
       vertex 0.022868207 -0.0032499925 -0.021751673
       vertex 0.022161678 -0.0015426337 -0.021038815
       vertex 0.021372986 -0.0028795165 -0.021224928
    endloop
  endfacet
  facet normal -0.01614668 -0.12851577 0.99157601
    outer loop
       vertex 0.022161678 -0.0015426337 -0.021038815
       vertex 0.020776959 -0.0012316227 -0.021021055
       vertex 0.021372986 -0.0028795165 -0.021224928
    endloop
  endfacet
  facet normal -0.28967191 0.42477644 0.85770342
    outer loop
       vertex 0.021146751 -8.2411732e-06 -0.021502043
       vertex 0.019503082 -0.00045427312 -0.021836262
       vertex 0.020776959 -0.0012316227 -0.021021055
    endloop
  endfacet
  facet normal -0.20406654 0.018587671 0.97878054
    outer loop
       vertex 0.019503082 -0.00045427312 -0.021836262
       vertex 0.021146751 -8.2411732e-06 -0.021502043
       vertex 0.020344631 0.00081956788 -0.021684998
    endloop
  endfacet
  facet normal -0.11220868 0.22739845 0.96731544
    outer loop
       vertex 0.020344631 0.00081956788 -0.021684998
       vertex 0.019944245 0.00089769211 -0.021749809
       vertex 0.019661544 0.00082424731 -0.021765336
    endloop
  endfacet
  facet normal -0.057342607 -0.20024772 0.97806578
    outer loop
       vertex 0.019661544 0.00082424731 -0.021765336
       vertex 0.019475759 0.00074715843 -0.021792012
       vertex 0.019424121 0.00048307052 -0.021849108
    endloop
  endfacet
  facet normal -0.1750695 -0.0012546428 0.98455528
    outer loop
       vertex 0.019424121 0.00048307052 -0.021849108
       vertex 0.019503082 -0.00045427312 -0.021836262
       vertex 0.020344631 0.00081956788 -0.021684998
    endloop
  endfacet
  facet normal -0.11638528 -0.15970397 0.98028012
    outer loop
       vertex 0.020344631 0.00081956788 -0.021684998
       vertex 0.019661544 0.00082424731 -0.021765336
       vertex 0.019424121 0.00048307052 -0.021849108
    endloop
  endfacet
  facet normal -0.74228699 0.66572686 -0.076274288
    outer loop
       vertex 0.019332681 0.00088533139 -0.024322375
       vertex 0.018061385 -0.00053487549 -0.024346019
       vertex 0.018514372 0.00012150331 -0.023025488
    endloop
  endfacet
  facet normal -0.64042052 0.5816217 -0.50157528
    outer loop
       vertex 0.019332681 0.00088533139 -0.024322375
       vertex 0.019406614 -8.1757288e-05 -0.0255382
       vertex 0.018061385 -0.00053487549 -0.024346019
    endloop
  endfacet
  facet normal -0.67902378 0.40510109 -0.6122253
    outer loop
       vertex 0.019406614 -8.1757288e-05 -0.0255382
       vertex 0.018499821 -0.0016776889 -0.025588475
       vertex 0.018061385 -0.00053487549 -0.024346019
    endloop
  endfacet
  facet normal -0.39941698 -0.17774896 -0.89937277
    outer loop
       vertex 0.020085953 -0.0018129546 -0.026266153
       vertex 0.018922309 -0.0034719563 -0.025421492
       vertex 0.018499821 -0.0016776889 -0.025588475
    endloop
  endfacet
  facet normal -0.31936012 -0.24241911 -0.91610157
    outer loop
       vertex 0.020085953 -0.0018129546 -0.026266153
       vertex 0.0208255 -0.0035783685 -0.0260568
       vertex 0.018922309 -0.0034719563 -0.025421492
    endloop
  endfacet
  facet normal -0.2688837 -0.66835162 -0.69354716
    outer loop
       vertex 0.0208255 -0.0035783685 -0.0260568
       vertex 0.020099043 -0.004618055 -0.024773241
       vertex 0.018922309 -0.0034719563 -0.025421492
    endloop
  endfacet
  facet normal 0.097823781 -0.97258847 -0.21095537
    outer loop
       vertex 0.021911776 -0.0044603097 -0.024659913
       vertex 0.020735885 -0.0049005811 -0.023175368
       vertex 0.020099043 -0.004618055 -0.024773241
    endloop
  endfacet
  facet normal 0.3334922 -0.94262708 -0.015399454
    outer loop
       vertex 0.021911776 -0.0044603097 -0.024659913
       vertex 0.022845547 -0.0041580031 -0.022942766
       vertex 0.020735885 -0.0049005811 -0.023175368
    endloop
  endfacet
  facet normal 0.27942024 -0.89925303 0.33655358
    outer loop
       vertex 0.022845547 -0.0041580031 -0.022942766
       vertex 0.021950825 -0.0041649218 -0.022218419
       vertex 0.020735885 -0.0049005811 -0.023175368
    endloop
  endfacet
  facet normal 0.088624687 0.34114306 0.93582428
    outer loop
       vertex 0.022161678 -0.0015426337 -0.021038815
       vertex 0.021146751 -8.2411732e-06 -0.021502043
       vertex 0.020776959 -0.0012316227 -0.021021055
    endloop
  endfacet
  facet normal 0.28735037 0.44597555 0.84766478
    outer loop
       vertex 0.022161678 -0.0015426337 -0.021038815
       vertex 0.022899661 -4.8226801e-05 -0.022075226
       vertex 0.021146751 -8.2411732e-06 -0.021502043
    endloop
  endfacet
  facet normal 0.27433487 0.53067224 0.80195221
    outer loop
       vertex 0.022899661 -4.8226801e-05 -0.022075226
       vertex 0.021766565 0.0011381172 -0.022472646
       vertex 0.021146751 -8.2411732e-06 -0.021502043
    endloop
  endfacet
  facet normal -0.26771774 0.93863778 -0.2174542
    outer loop
       vertex 0.021237607 0.0015160664 -0.023945058
       vertex 0.020686538 0.0010862455 -0.025121927
       vertex 0.019332681 0.00088533139 -0.024322375
    endloop
  endfacet
  facet normal -0.36476849 0.2356346 -0.9007887
    outer loop
       vertex 0.019406614 -8.1757288e-05 -0.0255382
       vertex 0.020085953 -0.0018129546 -0.026266153
       vertex 0.018499821 -0.0016776889 -0.025588475
    endloop
  endfacet
  facet normal -0.27551104 0.27873803 -0.91999934
    outer loop
       vertex 0.019406614 -8.1757288e-05 -0.0255382
       vertex 0.021317227 -0.00017702699 -0.026139234
       vertex 0.020085953 -0.0018129546 -0.026266153
    endloop
  endfacet
  facet normal -0.061074832 0.12281684 -0.99054828
    outer loop
       vertex 0.021317227 -0.00017702699 -0.026139234
       vertex 0.021878481 -0.0018550055 -0.02638189
       vertex 0.020085953 -0.0018129546 -0.026266153
    endloop
  endfacet
  facet normal 0.10653391 -0.80127264 -0.58873821
    outer loop
       vertex 0.0208255 -0.0035783685 -0.0260568
       vertex 0.021911776 -0.0044603097 -0.024659913
       vertex 0.020099043 -0.004618055 -0.024773241
    endloop
  endfacet
  facet normal 0.32054831 -0.66834584 -0.67123962
    outer loop
       vertex 0.0208255 -0.0035783685 -0.0260568
       vertex 0.022954769 -0.0028065438 -0.025808472
       vertex 0.021911776 -0.0044603097 -0.024659913
    endloop
  endfacet
  facet normal 0.5288129 -0.68322752 -0.50354451
    outer loop
       vertex 0.022954769 -0.0028065438 -0.025808472
       vertex 0.023618653 -0.0033897926 -0.024319899
       vertex 0.021911776 -0.0044603097 -0.024659913
    endloop
  endfacet
  facet normal 0.4415996 -0.71755416 0.53861472
    outer loop
       vertex 0.022845547 -0.0041580031 -0.022942766
       vertex 0.022868207 -0.0032499925 -0.021751673
       vertex 0.021950825 -0.0041649218 -0.022218419
    endloop
  endfacet
  facet normal 0.72437497 -0.55483709 0.4091903
    outer loop
       vertex 0.022845547 -0.0041580031 -0.022942766
       vertex 0.024044068 -0.002809695 -0.02323624
       vertex 0.022868207 -0.0032499925 -0.021751673
    endloop
  endfacet
  facet normal 0.79177721 -0.27418173 0.54581429
    outer loop
       vertex 0.024044068 -0.002809695 -0.02323624
       vertex 0.023588744 -0.0017012981 -0.022018945
       vertex 0.022868207 -0.0032499925 -0.021751673
    endloop
  endfacet
  facet normal 0.796639 0.34888453 0.49360499
    outer loop
       vertex 0.024084125 -0.00081274725 -0.023446486
       vertex 0.022899661 -4.8226801e-05 -0.022075226
       vertex 0.023588744 -0.0017012981 -0.022018945
    endloop
  endfacet
  facet normal 0.78072191 0.46907486 0.41284631
    outer loop
       vertex 0.024084125 -0.00081274725 -0.023446486
       vertex 0.022969551 0.0010629627 -0.023469924
       vertex 0.022899661 -4.8226801e-05 -0.022075226
    endloop
  endfacet
  facet normal 0.50115215 0.66439854 0.55445568
    outer loop
       vertex 0.022969551 0.0010629627 -0.023469924
       vertex 0.021766565 0.0011381172 -0.022472646
       vertex 0.022899661 -4.8226801e-05 -0.022075226
    endloop
  endfacet
  facet normal 0.20432455 0.96333766 0.17387362
    outer loop
       vertex 0.022969551 0.0010629627 -0.023469924
       vertex 0.021237607 0.0015160664 -0.023945058
       vertex 0.021766565 0.0011381172 -0.022472646
    endloop
  endfacet
  facet normal 0.29692723 0.93582349 -0.18991738
    outer loop
       vertex 0.022969551 0.0010629627 -0.023469924
       vertex 0.022440974 0.00092637586 -0.024969366
       vertex 0.021237607 0.0015160664 -0.023945058
    endloop
  endfacet
  facet normal 0.11707291 0.91393432 -0.38861034
    outer loop
       vertex 0.022440974 0.00092637586 -0.024969366
       vertex 0.020686538 0.0010862455 -0.025121927
       vertex 0.021237607 0.0015160664 -0.023945058
    endloop
  endfacet
  facet normal 0.12455533 0.65930211 -0.74148951
    outer loop
       vertex 0.022440974 0.00092637586 -0.024969366
       vertex 0.021317227 -0.00017702699 -0.026139234
       vertex 0.020686538 0.0010862455 -0.025121927
    endloop
  endfacet
  facet normal 0.35095476 0.48914822 -0.79847654
    outer loop
       vertex 0.022440974 0.00092637586 -0.024969366
       vertex 0.023148831 -0.00078855528 -0.025708811
       vertex 0.021317227 -0.00017702699 -0.026139234
    endloop
  endfacet
  facet normal 0.29546945 0.23281937 -0.92654894
    outer loop
       vertex 0.023148831 -0.00078855528 -0.025708811
       vertex 0.021878481 -0.0018550055 -0.02638189
       vertex 0.021317227 -0.00017702699 -0.026139234
    endloop
  endfacet
  facet normal 0.94135894 0.016597497 0.33699831
    outer loop
       vertex 0.024044068 -0.002809695 -0.02323624
       vertex 0.024084125 -0.00081274725 -0.023446486
       vertex 0.023588744 -0.0017012981 -0.022018945
    endloop
  endfacet
  facet normal 0.99916367 -0.01608443 0.037593359
    outer loop
       vertex 0.024044068 -0.002809695 -0.02323624
       vertex 0.024115304 -0.0017060043 -0.024657354
       vertex 0.024084125 -0.00081274725 -0.023446486
    endloop
  endfacet
  facet normal 0.96589716 0.21962269 -0.13714428
    outer loop
       vertex 0.024115304 -0.0017060043 -0.024657354
       vertex 0.023719356 4.2352491e-05 -0.024646171
       vertex 0.024084125 -0.00081274725 -0.023446486
    endloop
  endfacet
  facet normal 0.46916655 -0.0015048313 -0.88310842
    outer loop
       vertex 0.023148831 -0.00078855528 -0.025708811
       vertex 0.022954769 -0.0028065438 -0.025808472
       vertex 0.021878481 -0.0018550055 -0.02638189
    endloop
  endfacet
  facet normal 0.72035131 -0.035062773 -0.6927226
    outer loop
       vertex 0.023148831 -0.00078855528 -0.025708811
       vertex 0.024115304 -0.0017060043 -0.024657354
       vertex 0.022954769 -0.0028065438 -0.025808472
    endloop
  endfacet
  facet normal 0.80442632 -0.33552224 -0.49022762
    outer loop
       vertex 0.024115304 -0.0017060043 -0.024657354
       vertex 0.023618653 -0.0033897926 -0.024319899
       vertex 0.022954769 -0.0028065438 -0.025808472
    endloop
  endfacet
  facet normal -0.8170973 -0.18343171 0.54653893
    outer loop
       vertex 0.018718892 0.00057921018 -0.022529329
       vertex 0.018822183 0.000572611 -0.02237712
       vertex 0.018714004 0.00073874538 -0.022483092
    endloop
  endfacet
  facet normal -0.29342295 0.51391489 -0.80609829
    outer loop
       vertex 0.019332681 0.00088533139 -0.024322375
       vertex 0.019195611 0.0012046988 -0.024068873
       vertex 0.019292478 0.001365227 -0.024001791
    endloop
  endfacet
  facet normal -0.3445306 0.50134692 -0.79369385
    outer loop
       vertex 0.019332681 0.00088533139 -0.024322375
       vertex 0.019292478 0.001365227 -0.024001791
       vertex 0.019609028 0.0014486292 -0.024086519
    endloop
  endfacet
  facet normal -0.10178094 0.71880341 -0.68772254
    outer loop
       vertex 0.020780277 0.0017445714 -0.023638543
       vertex 0.021237607 0.0015160664 -0.023945058
       vertex 0.019332681 0.00088533139 -0.024322375
    endloop
  endfacet
  facet normal 0.29196528 0.59566052 -0.74829461
    outer loop
       vertex 0.020135327 0.0016251524 -0.023985246
       vertex 0.020440376 0.0017690827 -0.023751652
       vertex 0.020780277 0.0017445714 -0.023638543
    endloop
  endfacet
  facet normal -0.11356927 0.43061012 -0.89536414
    outer loop
       vertex 0.019332681 0.00088533139 -0.024322375
       vertex 0.019609028 0.0014486292 -0.024086519
       vertex 0.019877636 0.0015362565 -0.024078446
    endloop
  endfacet
  facet normal 0.44616582 -0.66237768 -0.60182379
    outer loop
       vertex 0.019877636 0.0015362565 -0.024078446
       vertex 0.020135327 0.0016251524 -0.023985246
       vertex 0.020780277 0.0017445714 -0.023638543
    endloop
  endfacet
  facet normal 0.44466575 -0.036905248 -0.89493596
    outer loop
       vertex 0.019877636 0.0015362565 -0.024078446
       vertex 0.020780277 0.0017445714 -0.023638543
       vertex 0.019332681 0.00088533139 -0.024322375
    endloop
  endfacet
  facet normal 0.66272096 0.72850909 0.17342272
    outer loop
       vertex 0.02073005 0.001843298 -0.023277796
       vertex 0.020862957 0.001618677 -0.022842109
       vertex 0.020953853 0.0015546916 -0.022920671
    endloop
  endfacet
  facet normal 0.71829244 0.68768032 0.10560183
    outer loop
       vertex 0.020953853 0.0015546916 -0.022920671
       vertex 0.020852812 0.0017117615 -0.023256245
       vertex 0.02073005 0.001843298 -0.023277796
    endloop
  endfacet
  facet normal -0.55019705 -0.034913852 0.83430464
    outer loop
       vertex 0.019503082 -0.00045427312 -0.021836262
       vertex 0.019424121 0.00048307052 -0.021849108
       vertex 0.019096077 0.0006520795 -0.02205837
    endloop
  endfacet
  facet normal -0.2954935 -0.94190408 0.15968813
    outer loop
       vertex 0.018822183 0.000572611 -0.02237712
       vertex 0.018718892 0.00057921018 -0.022529329
       vertex 0.018613258 0.00056848701 -0.022788047
    endloop
  endfacet
  facet normal -0.73425325 -0.13661606 0.66498738
    outer loop
       vertex 0.019503082 -0.00045427312 -0.021836262
       vertex 0.019096077 0.0006520795 -0.02205837
       vertex 0.018822183 0.000572611 -0.02237712
    endloop
  endfacet
  facet normal -0.79354858 -0.13912456 0.59238924
    outer loop
       vertex 0.018613258 0.00056848701 -0.022788047
       vertex 0.018514372 0.00012150331 -0.023025488
       vertex 0.019503082 -0.00045427312 -0.021836262
    endloop
  endfacet
  facet normal -0.84002924 -0.33030776 0.43040406
    outer loop
       vertex 0.018822183 0.000572611 -0.02237712
       vertex 0.018613258 0.00056848701 -0.022788047
       vertex 0.019503082 -0.00045427312 -0.021836262
    endloop
  endfacet
  facet normal 0.11207169 0.54575446 -0.83041677
    outer loop
       vertex 0.020135327 0.0016251524 -0.023985246
       vertex 0.019877636 0.0015362565 -0.024078446
       vertex 0.019798311 0.0017177198 -0.023969893
    endloop
  endfacet
  facet normal -0.98038898 0.19090237 0.048925685
    outer loop
       vertex 0.018514372 0.00012150331 -0.023025488
       vertex 0.018613258 0.00056848701 -0.022788047
       vertex 0.0186276 0.00071222965 -0.02306153
    endloop
  endfacet
  facet normal -0.97423336 0.17831088 -0.13811082
    outer loop
       vertex 0.018514372 0.00012150331 -0.023025488
       vertex 0.0186276 0.00071222965 -0.02306153
       vertex 0.018672858 0.00078456995 -0.023287381
    endloop
  endfacet
  facet normal -0.85590403 0.041792545 -0.51544319
    outer loop
       vertex 0.019195611 0.0012046988 -0.024068873
       vertex 0.019332681 0.00088533139 -0.024322375
       vertex 0.018514372 0.00012150331 -0.023025488
    endloop
  endfacet
  facet normal -0.5368398 -0.43375134 -0.7236455
    outer loop
       vertex 0.018832027 0.00097218288 -0.023659777
       vertex 0.018989278 0.0011125855 -0.023860592
       vertex 0.019195611 0.0012046988 -0.024068873
    endloop
  endfacet
  facet normal -0.93065606 0.081562816 -0.35668867
    outer loop
       vertex 0.018514372 0.00012150331 -0.023025488
       vertex 0.018672858 0.00078456995 -0.023287381
       vertex 0.018832027 0.00097218288 -0.023659777
    endloop
  endfacet
  facet normal -0.61657261 -0.30952376 -0.72390142
    outer loop
       vertex 0.018832027 0.00097218288 -0.023659777
       vertex 0.019195611 0.0012046988 -0.024068873
       vertex 0.018514372 0.00012150331 -0.023025488
    endloop
  endfacet
  facet normal 0.55815114 0.67022632 0.48914617
    outer loop
       vertex 0.020944517 0.0014552201 -0.022711206
       vertex 0.020972055 0.0014991696 -0.022802849
       vertex 0.020862957 0.001618677 -0.022842109
    endloop
  endfacet
  facet normal -0.56139453 -0.068533269 0.82470563
    outer loop
       vertex 0.019096077 0.0006520795 -0.02205837
       vertex 0.019424121 0.00048307052 -0.021849108
       vertex 0.019475759 0.00074715843 -0.021792012
    endloop
  endfacet
  facet normal -0.5542478 -0.10119526 0.82617728
    outer loop
       vertex 0.019475759 0.00074715843 -0.021792012
       vertex 0.019033368 0.00096143344 -0.022062547
       vertex 0.019096077 0.0006520795 -0.02205837
    endloop
  endfacet
  facet normal 0.33606172 0.58859283 0.73526934
    outer loop
       vertex 0.020508221 0.0011823381 -0.022055366
       vertex 0.020694199 0.0013556509 -0.022279108
       vertex 0.020416082 0.0016994511 -0.022427209
    endloop
  endfacet
  facet normal 0.27758041 0.59297916 0.75586033
    outer loop
       vertex 0.020416082 0.0016994511 -0.022427209
       vertex 0.020126244 0.0012464114 -0.021965355
       vertex 0.020508221 0.0011823381 -0.022055366
    endloop
  endfacet
  facet normal 0.68248327 0.69617142 0.22262512
    outer loop
       vertex 0.020972055 0.0014991696 -0.022802849
       vertex 0.020953853 0.0015546916 -0.022920671
       vertex 0.020862957 0.001618677 -0.022842109
    endloop
  endfacet
  facet normal -0.81465809 0.09388094 -0.57229238
    outer loop
       vertex 0.018989278 0.0011125855 -0.023860592
       vertex 0.018832027 0.00097218288 -0.023659777
       vertex 0.018812907 0.0011866165 -0.023597384
    endloop
  endfacet
  facet normal 0.26115637 0.80179169 0.53751971
    outer loop
       vertex 0.020335958 0.0011099342 -0.021863669
       vertex 0.020508221 0.0011823381 -0.022055366
       vertex 0.020126244 0.0012464114 -0.021965355
    endloop
  endfacet
  facet normal -0.29679232 0.41820525 0.85849793
    outer loop
       vertex 0.019475759 0.00074715843 -0.021792012
       vertex 0.019661544 0.00082424731 -0.021765336
       vertex 0.019508919 0.0011803941 -0.021991592
    endloop
  endfacet
  facet normal -0.31884149 0.41659734 0.85134409
    outer loop
       vertex 0.019508919 0.0011803941 -0.021991592
       vertex 0.019033368 0.00096143344 -0.022062547
       vertex 0.019475759 0.00074715843 -0.021792012
    endloop
  endfacet
  facet normal -0.73353232 -0.13971198 0.66513976
    outer loop
       vertex 0.018822183 0.000572611 -0.02237712
       vertex 0.019096077 0.0006520795 -0.02205837
       vertex 0.019033368 0.00096143344 -0.022062547
    endloop
  endfacet
  facet normal -0.76767973 -0.095688189 0.63364943
    outer loop
       vertex 0.019033368 0.00096143344 -0.022062547
       vertex 0.018714004 0.00073874538 -0.022483092
       vertex 0.018822183 0.000572611 -0.02237712
    endloop
  endfacet
  facet normal -0.035810358 0.52295183 0.85160966
    outer loop
       vertex 0.019944245 0.00089769211 -0.021749809
       vertex 0.020344631 0.00081956788 -0.021684998
       vertex 0.020335958 0.0011099342 -0.021863669
    endloop
  endfacet
  facet normal -0.051637657 0.54443782 0.83721026
    outer loop
       vertex 0.020335958 0.0011099342 -0.021863669
       vertex 0.020126244 0.0012464114 -0.021965355
       vertex 0.019944245 0.00089769211 -0.021749809
    endloop
  endfacet
endsolid ExportedfromBlender-2.79(sub0)
