solid ./constant/triSurface/rectangle_018.stl
facet normal 0.000000 0.000000 -0.003840
  outer loop
    vertex 0.354000 -0.130000 -0.005000
    vertex 0.354000 -0.010000 -0.005000
    vertex 0.386000 -0.130000 -0.005000
  endloop
endfacet
facet normal 0.000000 0.000000 -0.003840
  outer loop
    vertex 0.386000 -0.130000 -0.005000
    vertex 0.354000 -0.010000 -0.005000
    vertex 0.386000 -0.010000 -0.005000
  endloop
endfacet
facet normal 0.000000 0.000000 0.003840
  outer loop
    vertex 0.354000 -0.130000 0.005000
    vertex 0.386000 -0.130000 0.005000
    vertex 0.354000 -0.010000 0.005000
  endloop
endfacet
facet normal -0.000000 0.000000 0.003840
  outer loop
    vertex 0.354000 -0.010000 0.005000
    vertex 0.386000 -0.130000 0.005000
    vertex 0.386000 -0.010000 0.005000
  endloop
endfacet
facet normal 0.000000 -0.000320 0.000000
  outer loop
    vertex 0.354000 -0.130000 -0.005000
    vertex 0.386000 -0.130000 -0.005000
    vertex 0.354000 -0.130000 0.005000
  endloop
endfacet
facet normal 0.000000 -0.000320 0.000000
  outer loop
    vertex 0.386000 -0.130000 -0.005000
    vertex 0.386000 -0.130000 0.005000
    vertex 0.354000 -0.130000 0.005000
  endloop
endfacet
facet normal 0.000000 0.000320 -0.000000
  outer loop
    vertex 0.386000 -0.010000 -0.005000
    vertex 0.354000 -0.010000 -0.005000
    vertex 0.386000 -0.010000 0.005000
  endloop
endfacet
facet normal 0.000000 0.000320 0.000000
  outer loop
    vertex 0.354000 -0.010000 -0.005000
    vertex 0.354000 -0.010000 0.005000
    vertex 0.386000 -0.010000 0.005000
  endloop
endfacet
facet normal -0.001200 0.000000 0.000000
  outer loop
    vertex 0.354000 -0.130000 -0.005000
    vertex 0.354000 -0.130000 0.005000
    vertex 0.354000 -0.010000 -0.005000
  endloop
endfacet
facet normal -0.001200 0.000000 0.000000
  outer loop
    vertex 0.354000 -0.010000 -0.005000
    vertex 0.354000 -0.130000 0.005000
    vertex 0.354000 -0.010000 0.005000
  endloop
endfacet
facet normal 0.001200 0.000000 0.000000
  outer loop
    vertex 0.386000 -0.130000 -0.005000
    vertex 0.386000 -0.010000 -0.005000
    vertex 0.386000 -0.130000 0.005000
  endloop
endfacet
facet normal 0.001200 0.000000 -0.000000
  outer loop
    vertex 0.386000 -0.010000 -0.005000
    vertex 0.386000 -0.010000 0.005000
    vertex 0.386000 -0.130000 0.005000
  endloop
endfacet
endsolid ./constant/triSurface/rectangle_018.stl
