solid ExportedfromBlender-2.79(sub0)
  facet normal 0.85864848 0.37187009 0.35275406
    outer loop
       vertex 0.035284276 0.0051593497 -0.0090990312
       vertex 0.03521986 0.0047675431 -0.0085291951
       vertex 0.035555192 0.0045455403 -0.0091114022
    endloop
  endfacet
  facet normal 0.91413518 0.40412072 -0.032300337
    outer loop
       vertex 0.03517485 0.0052198828 -0.011438545
       vertex 0.035284276 0.0051593497 -0.0090990312
       vertex 0.035555192 0.0045455403 -0.0091114022
    endloop
  endfacet
  facet normal 0.67510121 0.6923446 -0.25474948
    outer loop
       vertex 0.035555192 0.0045455403 -0.0091114022
       vertex 0.035980387 0.003971961 -0.0095434531
       vertex 0.035531163 0.003931587 -0.01084365
    endloop
  endfacet
  facet normal 0.96984547 0.2251718 -0.093259984
    outer loop
       vertex 0.035555192 0.0045455403 -0.0091114022
       vertex 0.035531163 0.003931587 -0.01084365
       vertex 0.03517485 0.0052198828 -0.011438545
    endloop
  endfacet
  facet normal 0.82399643 0.56609097 -0.023893439
    outer loop
       vertex 0.035284276 0.0051593497 -0.0090990312
       vertex 0.03517485 0.0052198828 -0.011438545
       vertex 0.034432823 0.0063765763 -0.0096235655
    endloop
  endfacet
  facet normal 0.67438543 0.63448261 0.37767196
    outer loop
       vertex 0.035284276 0.0051593497 -0.0090990312
       vertex 0.034432823 0.0063765763 -0.0096235655
       vertex 0.034117692 0.0054932897 -0.0075769479
    endloop
  endfacet
  facet normal 0.52945385 0.058788156 -0.84629934
    outer loop
       vertex 0.034041712 0.0049088692 -0.013377867
       vertex 0.034478192 0.0035579366 -0.013198643
       vertex 0.032356619 0.0042128203 -0.01448043
    endloop
  endfacet
  facet normal 0.43440755 0.88681396 -0.15764226
    outer loop
       vertex 0.032820801 0.0071884141 -0.01042983
       vertex 0.03376435 0.0064499809 -0.01198378
       vertex 0.031278457 0.0076417144 -0.012129964
    endloop
  endfacet
  facet normal 0.46527121 0.22830113 -0.85522003
    outer loop
       vertex 0.034041712 0.0049088692 -0.013377867
       vertex 0.032356619 0.0042128203 -0.01448043
       vertex 0.032118236 0.0059577286 -0.014144315
    endloop
  endfacet
  facet normal 0.10389719 0.98044071 0.1671568
    outer loop
       vertex 0.032820801 0.0071884141 -0.01042983
       vertex 0.031278457 0.0076417144 -0.012129964
       vertex 0.030497563 0.0073517423 -0.0099437942
    endloop
  endfacet
  facet normal -0.29821855 -0.10418016 -0.94879513
    outer loop
       vertex 0.030296575 0.0033728598 -0.014909254
       vertex 0.030006512 0.0025840091 -0.014731466
       vertex 0.028413613 0.0030121453 -0.014277808
    endloop
  endfacet
  facet normal -0.31779616 -0.00086913806 -0.94815866
    outer loop
       vertex 0.028413613 0.0030121453 -0.014277808
       vertex 0.028097921 0.0040021417 -0.014172904
       vertex 0.030296575 0.0033728598 -0.014909254
    endloop
  endfacet
  facet normal -0.16998311 0.60828126 -0.77530617
    outer loop
       vertex 0.029648472 0.0066121962 -0.013746389
       vertex 0.029708303 0.0053921808 -0.014716693
       vertex 0.027577643 0.0063147646 -0.013525723
    endloop
  endfacet
  facet normal -0.4670665 0.87924123 0.093721622
    outer loop
       vertex 0.028259754 0.0069140095 -0.0095887536
       vertex 0.02860105 0.0073522464 -0.01199917
       vertex 0.02688087 0.0063266684 -0.010950405
    endloop
  endfacet
  facet normal -0.88369405 0.4012855 -0.24094558
    outer loop
       vertex 0.02688087 0.0063266684 -0.010950405
       vertex 0.027577643 0.0063147646 -0.013525723
       vertex 0.026617202 0.0048069925 -0.012514334
    endloop
  endfacet
  facet normal -0.57543482 0.80216428 -0.15939647
    outer loop
       vertex 0.02688087 0.0063266684 -0.010950405
       vertex 0.02860105 0.0073522464 -0.01199917
       vertex 0.027577643 0.0063147646 -0.013525723
    endloop
  endfacet
  facet normal -0.17438469 0.86481242 -0.4708391
    outer loop
       vertex 0.02860105 0.0073522464 -0.01199917
       vertex 0.029648472 0.0066121962 -0.013746389
       vertex 0.027577643 0.0063147646 -0.013525723
    endloop
  endfacet
  facet normal -0.74064116 0.021310743 -0.67156275
    outer loop
       vertex 0.027577643 0.0063147646 -0.013525723
       vertex 0.028097921 0.0040021417 -0.014172904
       vertex 0.026617202 0.0048069925 -0.012514334
    endloop
  endfacet
  facet normal -0.43135574 0.15182877 -0.88931448
    outer loop
       vertex 0.027577643 0.0063147646 -0.013525723
       vertex 0.029708303 0.0053921808 -0.014716693
       vertex 0.028097921 0.0040021417 -0.014172904
    endloop
  endfacet
  facet normal -0.3181592 -0.002282795 -0.94803455
    outer loop
       vertex 0.029708303 0.0053921808 -0.014716693
       vertex 0.030296575 0.0033728598 -0.014909254
       vertex 0.028097921 0.0040021417 -0.014172904
    endloop
  endfacet
  facet normal -0.69113963 0.17399757 -0.70146337
    outer loop
       vertex 0.026617202 0.0048069925 -0.012514334
       vertex 0.028097921 0.0040021417 -0.014172904
       vertex 0.027652408 0.0033688715 -0.01389103
    endloop
  endfacet
  facet normal -0.24628907 0.73218056 -0.6350223
    outer loop
       vertex 0.027652408 0.0033688715 -0.01389103
       vertex 0.026697109 0.0036169859 -0.013234448
       vertex 0.02638027 0.0042249891 -0.012410537
    endloop
  endfacet
  facet normal -0.70053795 0.16120626 -0.69516841
    outer loop
       vertex 0.027652408 0.0033688715 -0.01389103
       vertex 0.02638027 0.0042249891 -0.012410537
       vertex 0.026617202 0.0048069925 -0.012514334
    endloop
  endfacet
  facet normal -0.47367179 -0.057925185 -0.87879446
    outer loop
       vertex 0.028097921 0.0040021417 -0.014172904
       vertex 0.028413613 0.0030121453 -0.014277808
       vertex 0.027652408 0.0033688715 -0.01389103
    endloop
  endfacet
  facet normal -0.25957439 0.94053039 0.21914316
    outer loop
       vertex 0.029716627 0.0068771751 -0.007705004
       vertex 0.028259754 0.0069140095 -0.0095887536
       vertex 0.027313294 0.0063455757 -0.0082701977
    endloop
  endfacet
  facet normal -0.23176624 0.97001626 0.073163275
    outer loop
       vertex 0.027313294 0.0063455757 -0.0082701977
       vertex 0.028067598 0.0064638878 -0.0074493266
       vertex 0.029716627 0.0068771751 -0.007705004
    endloop
  endfacet
  facet normal -0.16617082 0.97406607 0.15356613
    outer loop
       vertex 0.030497563 0.0073517423 -0.0099437942
       vertex 0.02860105 0.0073522464 -0.01199917
       vertex 0.028259754 0.0069140095 -0.0095887536
    endloop
  endfacet
  facet normal -0.10242849 0.99021714 0.094754506
    outer loop
       vertex 0.030497563 0.0073517423 -0.0099437942
       vertex 0.031278457 0.0076417144 -0.012129964
       vertex 0.02860105 0.0073522464 -0.01199917
    endloop
  endfacet
  facet normal -0.11771175 0.88710438 -0.4463068
    outer loop
       vertex 0.031278457 0.0076417144 -0.012129964
       vertex 0.029648472 0.0066121962 -0.013746389
       vertex 0.02860105 0.0073522464 -0.01199917
    endloop
  endfacet
  facet normal 0.039280473 0.6231586 -0.78110844
    outer loop
       vertex 0.032118236 0.0059577286 -0.014144315
       vertex 0.029708303 0.0053921808 -0.014716693
       vertex 0.029648472 0.0066121962 -0.013746389
    endloop
  endfacet
  facet normal 0.17910714 0.20962814 -0.96123705
    outer loop
       vertex 0.032118236 0.0059577286 -0.014144315
       vertex 0.032356619 0.0042128203 -0.01448043
       vertex 0.029708303 0.0053921808 -0.014716693
    endloop
  endfacet
  facet normal 0.14820333 0.13657722 -0.9794807
    outer loop
       vertex 0.032356619 0.0042128203 -0.01448043
       vertex 0.030296575 0.0033728598 -0.014909254
       vertex 0.029708303 0.0053921808 -0.014716693
    endloop
  endfacet
  facet normal -0.16713065 0.97471511 0.14831653
    outer loop
       vertex 0.029716627 0.0068771751 -0.007705004
       vertex 0.030497563 0.0073517423 -0.0099437942
       vertex 0.028259754 0.0069140095 -0.0095887536
    endloop
  endfacet
  facet normal 0.015927271 0.9769976 0.21265469
    outer loop
       vertex 0.029716627 0.0068771751 -0.007705004
       vertex 0.032381471 0.0069481208 -0.008230539
       vertex 0.030497563 0.0073517423 -0.0099437942
    endloop
  endfacet
  facet normal 0.0959825 0.98724285 0.127039
    outer loop
       vertex 0.032381471 0.0069481208 -0.008230539
       vertex 0.032820801 0.0071884141 -0.01042983
       vertex 0.030497563 0.0073517423 -0.0099437942
    endloop
  endfacet
  facet normal 0.10959311 0.78460365 -0.61023476
    outer loop
       vertex 0.031278457 0.0076417144 -0.012129964
       vertex 0.032118236 0.0059577286 -0.014144315
       vertex 0.029648472 0.0066121962 -0.013746389
    endloop
  endfacet
  facet normal 0.40143033 0.77809921 -0.48313074
    outer loop
       vertex 0.031278457 0.0076417144 -0.012129964
       vertex 0.03376435 0.0064499809 -0.01198378
       vertex 0.032118236 0.0059577286 -0.014144315
    endloop
  endfacet
  facet normal 0.55714925 0.60998787 -0.56347095
    outer loop
       vertex 0.03376435 0.0064499809 -0.01198378
       vertex 0.034041712 0.0049088692 -0.013377867
       vertex 0.032118236 0.0059577286 -0.014144315
    endloop
  endfacet
  facet normal 0.20206982 0.0044059849 -0.97936121
    outer loop
       vertex 0.030296575 0.0033728598 -0.014909254
       vertex 0.032356619 0.0042128203 -0.01448043
       vertex 0.032651936 0.002688223 -0.014426357
    endloop
  endfacet
  facet normal 0.1839955 0.27174468 -0.94461658
    outer loop
       vertex 0.032651936 0.002688223 -0.014426357
       vertex 0.032233301 0.0021012485 -0.014676759
       vertex 0.03111019 0.0024341361 -0.014799758
    endloop
  endfacet
  facet normal 0.22228174 0.079308615 -0.9717515
    outer loop
       vertex 0.032651936 0.002688223 -0.014426357
       vertex 0.03111019 0.0024341361 -0.014799758
       vertex 0.030296575 0.0033728598 -0.014909254
    endloop
  endfacet
  facet normal 0.52564841 0.03965272 -0.84977727
    outer loop
       vertex 0.032356619 0.0042128203 -0.01448043
       vertex 0.034478192 0.0035579366 -0.013198643
       vertex 0.033726001 0.0025766926 -0.013709714
    endloop
  endfacet
  facet normal 0.55894987 0.07899385 -0.8254302
    outer loop
       vertex 0.033726001 0.0025766926 -0.013709714
       vertex 0.032651936 0.002688223 -0.014426357
       vertex 0.032356619 0.0042128203 -0.01448043
    endloop
  endfacet
  facet normal 0.70212975 -0.17931983 -0.68909956
    outer loop
       vertex 0.034478192 0.0035579366 -0.013198643
       vertex 0.034496754 0.0027252232 -0.012963038
       vertex 0.033726001 0.0025766926 -0.013709714
    endloop
  endfacet
  facet normal 0.43283242 0.74474692 0.507945
    outer loop
       vertex 0.033648727 0.0052924877 -0.0068829162
       vertex 0.034117692 0.0054932897 -0.0075769479
       vertex 0.032381471 0.0069481208 -0.008230539
    endloop
  endfacet
  facet normal 0.10155304 0.87416474 0.4748926
    outer loop
       vertex 0.032381471 0.0069481208 -0.008230539
       vertex 0.031914316 0.006166761 -0.0066923421
       vertex 0.032972423 0.0056868857 -0.0060352757
    endloop
  endfacet
  facet normal 0.68108611 0.69893211 0.21821004
    outer loop
       vertex 0.032381471 0.0069481208 -0.008230539
       vertex 0.032972423 0.0056868857 -0.0060352757
       vertex 0.033648727 0.0052924877 -0.0068829162
    endloop
  endfacet
  facet normal 0.49135067 0.76959303 0.4078003
    outer loop
       vertex 0.034117692 0.0054932897 -0.0075769479
       vertex 0.034432823 0.0063765763 -0.0096235655
       vertex 0.032381471 0.0069481208 -0.008230539
    endloop
  endfacet
  facet normal 0.37215259 0.91172467 0.17395565
    outer loop
       vertex 0.034432823 0.0063765763 -0.0096235655
       vertex 0.032820801 0.0071884141 -0.01042983
       vertex 0.032381471 0.0069481208 -0.008230539
    endloop
  endfacet
  facet normal 0.49116488 0.86380439 -0.11224545
    outer loop
       vertex 0.034432823 0.0063765763 -0.0096235655
       vertex 0.03376435 0.0064499809 -0.01198378
       vertex 0.032820801 0.0071884141 -0.01042983
    endloop
  endfacet
  facet normal 0.68437812 0.70859928 -0.17179539
    outer loop
       vertex 0.034432823 0.0063765763 -0.0096235655
       vertex 0.03517485 0.0052198828 -0.011438545
       vertex 0.03376435 0.0064499809 -0.01198378
    endloop
  endfacet
  facet normal 0.67401218 0.55859335 -0.48340568
    outer loop
       vertex 0.03517485 0.0052198828 -0.011438545
       vertex 0.034041712 0.0049088692 -0.013377867
       vertex 0.03376435 0.0064499809 -0.01198378
    endloop
  endfacet
  facet normal 0.83166687 0.1999849 -0.51801183
    outer loop
       vertex 0.03517485 0.0052198828 -0.011438545
       vertex 0.034478192 0.0035579366 -0.013198643
       vertex 0.034041712 0.0049088692 -0.013377867
    endloop
  endfacet
  facet normal 0.91506069 0.069642925 -0.39725786
    outer loop
       vertex 0.03517485 0.0052198828 -0.011438545
       vertex 0.035531163 0.003931587 -0.01084365
       vertex 0.035056917 0.003088933 -0.012083773
    endloop
  endfacet
  facet normal 0.89816655 0.081129284 -0.43210517
    outer loop
       vertex 0.035056917 0.003088933 -0.012083773
       vertex 0.034478192 0.0035579366 -0.013198643
       vertex 0.03517485 0.0052198828 -0.011438545
    endloop
  endfacet
  facet normal 0.90034201 -0.32031557 0.29458819
    outer loop
       vertex 0.041002474 -0.0048585817 -0.00053371902
       vertex 0.038064823 -0.010199171 0.0026375452
       vertex 0.040271732 -0.0095973281 -0.0034529668
    endloop
  endfacet
  facet normal 0.472386 -0.47960482 0.73948001
    outer loop
       vertex 0.032513311 -0.014080765 0.0036664103
       vertex 0.038064823 -0.010199171 0.0026375452
       vertex 0.032324235 -0.009957202 0.0064616143
    endloop
  endfacet
  facet normal 0.99143802 -0.10540439 -0.077075122
    outer loop
       vertex 0.041002474 -0.0048585817 -0.00053371902
       vertex 0.040271732 -0.0095973281 -0.0034529668
       vertex 0.040825546 -0.0024416591 -0.0061148625
    endloop
  endfacet
  facet normal 0.93767836 0.32874322 0.1126374
    outer loop
       vertex 0.041002474 -0.0048585817 -0.00053371902
       vertex 0.040825546 -0.0024416591 -0.0061148625
       vertex 0.038967175 0.0013401467 -0.0016819483
    endloop
  endfacet
  facet normal 0.72693639 0.34830887 0.59181451
    outer loop
       vertex 0.041002474 -0.0048585817 -0.00053371902
       vertex 0.038967175 0.0013401467 -0.0016819483
       vertex 0.03726775 -0.0046320228 0.0039203703
    endloop
  endfacet
  facet normal 0.026772003 -0.56005641 0.82802179
    outer loop
       vertex 0.032513311 -0.014080765 0.0036664103
       vertex 0.032324235 -0.009957202 0.0064616143
       vertex 0.026049755 -0.012627787 0.0048581568
    endloop
  endfacet
  facet normal 0.48668164 -0.84853232 -0.20768696
    outer loop
       vertex 0.036604681 -0.013749423 -0.0075004032
       vertex 0.035628762 -0.01566175 -0.0019742511
       vertex 0.029758944 -0.017512102 -0.0081693933
    endloop
  endfacet
  facet normal 0.64688224 -0.071980306 -0.75918523
    outer loop
       vertex 0.037621877 -0.0015073515 -0.012013802
       vertex 0.038506507 -0.0079755783 -0.010646763
       vertex 0.033139862 -0.0053303415 -0.015470344
    endloop
  endfacet
  facet normal 0.63289926 0.77368292 0.029210572
    outer loop
       vertex 0.032972423 0.0056868857 -0.0060352757
       vertex 0.034246467 0.0045495874 -0.0035167679
       vertex 0.037174413 0.0023417204 -0.0084775124
    endloop
  endfacet
  facet normal 0.80515818 0.59303837 0.0050800999
    outer loop
       vertex 0.037174413 0.0023417204 -0.0084775124
       vertex 0.035980387 0.003971961 -0.0095434531
       vertex 0.035555192 0.0045455403 -0.0091114022
    endloop
  endfacet
  facet normal 0.76040907 0.61700149 0.2026998
    outer loop
       vertex 0.037174413 0.0023417204 -0.0084775124
       vertex 0.035555192 0.0045455403 -0.0091114022
       vertex 0.03521986 0.0047675431 -0.0085291951
    endloop
  endfacet
  facet normal 0.68275177 0.69653556 0.22065411
    outer loop
       vertex 0.033648727 0.0052924877 -0.0068829162
       vertex 0.032972423 0.0056868857 -0.0060352757
       vertex 0.037174413 0.0023417204 -0.0084775124
    endloop
  endfacet
  facet normal 0.3489205 -0.087330733 0.9330744
    outer loop
       vertex 0.034010028 0.0051861591 -0.0070279757
       vertex 0.033648727 0.0052924877 -0.0068829162
       vertex 0.037174413 0.0023417204 -0.0084775124
    endloop
  endfacet
  facet normal 0.7150117 0.58428382 0.38388889
    outer loop
       vertex 0.037174413 0.0023417204 -0.0084775124
       vertex 0.03521986 0.0047675431 -0.0085291951
       vertex 0.034353407 0.0050720978 -0.0073789203
    endloop
  endfacet
  facet normal 0.69206536 0.50916621 0.51165937
    outer loop
       vertex 0.037174413 0.0023417204 -0.0084775124
       vertex 0.034353407 0.0050720978 -0.0073789203
       vertex 0.034010028 0.0051861591 -0.0070279757
    endloop
  endfacet
  facet normal 0.025156035 0.62453346 0.7805928
    outer loop
       vertex 0.031044193 -0.003541895 0.0062047582
       vertex 0.033271791 0.0014954897 0.0021026797
       vertex 0.026047728 -2.2520241e-05 0.0035500116
    endloop
  endfacet
  facet normal -0.067047197 -0.79392144 0.60431235
    outer loop
       vertex 0.032513311 -0.014080765 0.0036664103
       vertex 0.026049755 -0.012627787 0.0048581568
       vertex 0.027128436 -0.017229937 -0.0010682871
    endloop
  endfacet
  facet normal 0.45014512 -0.72673026 -0.51887619
    outer loop
       vertex 0.036604681 -0.013749423 -0.0075004032
       vertex 0.029758944 -0.017512102 -0.0081693933
       vertex 0.03246148 -0.012492268 -0.012855543
    endloop
  endfacet
  facet normal 0.47232854 0.21834523 -0.8539503
    outer loop
       vertex 0.037621877 -0.0015073515 -0.012013802
       vertex 0.033139862 -0.0053303415 -0.015470344
       vertex 0.032399099 0.00048559704 -0.014393
    endloop
  endfacet
  facet normal -0.017714116 0.90784854 0.4189239
    outer loop
       vertex 0.028195582 0.0038361036 -0.0022264399
       vertex 0.034246467 0.0045495874 -0.0035167679
       vertex 0.032972423 0.0056868857 -0.0060352757
    endloop
  endfacet
  facet normal 0.10578312 0.87644204 0.46974385
    outer loop
       vertex 0.032972423 0.0056868857 -0.0060352757
       vertex 0.031914316 0.006166761 -0.0066923421
       vertex 0.030623628 0.0062893964 -0.0066304997
    endloop
  endfacet
  facet normal 0.18944646 0.6983384 0.69024163
    outer loop
       vertex 0.030623628 0.0062893964 -0.0066304997
       vertex 0.029656289 0.00662365 -0.0067031745
       vertex 0.028640589 0.0062012816 -0.0059970785
    endloop
  endfacet
  facet normal 0.104124 0.83695338 0.53727761
    outer loop
       vertex 0.028640589 0.0062012816 -0.0059970785
       vertex 0.028195582 0.0038361036 -0.0022264399
       vertex 0.032972423 0.0056868857 -0.0060352757
    endloop
  endfacet
  facet normal 0.10857824 0.88002783 0.4623438
    outer loop
       vertex 0.032972423 0.0056868857 -0.0060352757
       vertex 0.030623628 0.0062893964 -0.0066304997
       vertex 0.028640589 0.0062012816 -0.0059970785
    endloop
  endfacet
  facet normal -0.22358557 0.36446588 0.90397683
    outer loop
       vertex 0.031044193 -0.003541895 0.0062047582
       vertex 0.026047728 -2.2520241e-05 0.0035500116
       vertex 0.025448529 -0.0070909406 0.0062516579
    endloop
  endfacet
  facet normal -0.6911469 -0.72258557 0.013640226
    outer loop
       vertex 0.023010381 -0.017103842 -0.006711988
       vertex 0.020252767 -0.014363638 -0.0012784116
       vertex 0.018452974 -0.012781241 -0.0086466344
    endloop
  endfacet
  facet normal -0.37501197 -0.36562114 -0.85187276
    outer loop
       vertex 0.027732586 -0.0096985779 -0.016571102
       vertex 0.0243571 -0.01475469 -0.012915075
       vertex 0.021473225 -0.0084186489 -0.014364943
    endloop
  endfacet
  facet normal -0.41318528 0.47520074 -0.77682829
    outer loop
       vertex 0.026023146 0.0017785093 -0.013503906
       vertex 0.026509735 -0.0031294607 -0.016765016
       vertex 0.020695217 -0.0012224034 -0.012505763
    endloop
  endfacet
  facet normal -0.74574313 0.66608549 0.014046093
    outer loop
       vertex 0.023618263 0.00159148 -0.0010418921
       vertex 0.024310166 0.0025014352 -0.0074583495
       vertex 0.020027026 -0.0023447617 -0.0050477598
    endloop
  endfacet
  facet normal -0.8819149 0.0022020154 0.47140351
    outer loop
       vertex 0.022439328 -0.010467 0.0035300618
       vertex 0.021773544 -0.0040167664 0.0022543652
       vertex 0.019259265 -0.0094416382 -0.002424079
    endloop
  endfacet
  facet normal -0.92790027 0.21340346 0.30571238
    outer loop
       vertex 0.019259265 -0.0094416382 -0.002424079
       vertex 0.020027026 -0.0023447617 -0.0050477598
       vertex 0.01769939 -0.006397067 -0.0092838938
    endloop
  endfacet
  facet normal -0.94101822 0.20211996 0.27135261
    outer loop
       vertex 0.019259265 -0.0094416382 -0.002424079
       vertex 0.021773544 -0.0040167664 0.0022543652
       vertex 0.020027026 -0.0023447617 -0.0050477598
    endloop
  endfacet
  facet normal -0.83729943 0.45425218 0.30427721
    outer loop
       vertex 0.021773544 -0.0040167664 0.0022543652
       vertex 0.023618263 0.00159148 -0.0010418921
       vertex 0.020027026 -0.0023447617 -0.0050477598
    endloop
  endfacet
  facet normal -0.86606227 0.49993057 -0.0023590147
    outer loop
       vertex 0.020027026 -0.0023447617 -0.0050477598
       vertex 0.020695217 -0.0012224034 -0.012505763
       vertex 0.01769939 -0.006397067 -0.0092838938
    endloop
  endfacet
  facet normal -0.74020614 0.67148227 0.034733805
    outer loop
       vertex 0.020027026 -0.0023447617 -0.0050477598
       vertex 0.024310166 0.0025014352 -0.0074583495
       vertex 0.020695217 -0.0012224034 -0.012505763
    endloop
  endfacet
  facet normal -0.51020788 0.82494603 -0.24321178
    outer loop
       vertex 0.024310166 0.0025014352 -0.0074583495
       vertex 0.026023146 0.0017785093 -0.013503906
       vertex 0.020695217 -0.0012224034 -0.012505763
    endloop
  endfacet
  facet normal -0.7864206 0.073429198 -0.61331133
    outer loop
       vertex 0.020695217 -0.0012224034 -0.012505763
       vertex 0.021473225 -0.0084186489 -0.014364943
       vertex 0.01769939 -0.006397067 -0.0092838938
    endloop
  endfacet
  facet normal -0.55101953 0.15239658 -0.82045887
    outer loop
       vertex 0.020695217 -0.0012224034 -0.012505763
       vertex 0.026509735 -0.0031294607 -0.016765016
       vertex 0.021473225 -0.0084186489 -0.014364943
    endloop
  endfacet
  facet normal -0.34772656 -0.092272458 -0.9330445
    outer loop
       vertex 0.026509735 -0.0031294607 -0.016765016
       vertex 0.027732586 -0.0096985779 -0.016571102
       vertex 0.021473225 -0.0084186489 -0.014364943
    endloop
  endfacet
  facet normal -0.82144673 -0.15183358 -0.54970159
    outer loop
       vertex 0.021473225 -0.0084186489 -0.014364943
       vertex 0.018452974 -0.012781241 -0.0086466344
       vertex 0.01769939 -0.006397067 -0.0092838938
    endloop
  endfacet
  facet normal -0.61877265 -0.43180571 -0.65625014
    outer loop
       vertex 0.021473225 -0.0084186489 -0.014364943
       vertex 0.0243571 -0.01475469 -0.012915075
       vertex 0.018452974 -0.012781241 -0.0086466344
    endloop
  endfacet
  facet normal -0.53658097 -0.74396656 -0.39823939
    outer loop
       vertex 0.0243571 -0.01475469 -0.012915075
       vertex 0.023010381 -0.017103842 -0.006711988
       vertex 0.018452974 -0.012781241 -0.0086466344
    endloop
  endfacet
  facet normal -0.97894236 -0.097660281 0.17926051
    outer loop
       vertex 0.018452974 -0.012781241 -0.0086466344
       vertex 0.019259265 -0.0094416382 -0.002424079
       vertex 0.01769939 -0.006397067 -0.0092838938
    endloop
  endfacet
  facet normal -0.96763199 -0.14768258 0.20464159
    outer loop
       vertex 0.018452974 -0.012781241 -0.0086466344
       vertex 0.020252767 -0.014363638 -0.0012784116
       vertex 0.019259265 -0.0094416382 -0.002424079
    endloop
  endfacet
  facet normal -0.88488144 -0.071471039 0.46030069
    outer loop
       vertex 0.020252767 -0.014363638 -0.0012784116
       vertex 0.022439328 -0.010467 0.0035300618
       vertex 0.019259265 -0.0094416382 -0.002424079
    endloop
  endfacet
  facet normal -0.7088774 0.065721017 0.70226319
    outer loop
       vertex 0.025448529 -0.0070909406 0.0062516579
       vertex 0.021773544 -0.0040167664 0.0022543652
       vertex 0.022439328 -0.010467 0.0035300618
    endloop
  endfacet
  facet normal -0.54831472 0.33872302 0.76460296
    outer loop
       vertex 0.025448529 -0.0070909406 0.0062516579
       vertex 0.026047728 -2.2520241e-05 0.0035500116
       vertex 0.021773544 -0.0040167664 0.0022543652
    endloop
  endfacet
  facet normal -0.65785145 0.53056398 0.5345403
    outer loop
       vertex 0.026047728 -2.2520241e-05 0.0035500116
       vertex 0.023618263 0.00159148 -0.0010418921
       vertex 0.021773544 -0.0040167664 0.0022543652
    endloop
  endfacet
  facet normal -0.42146669 0.90307221 0.082622111
    outer loop
       vertex 0.028195582 0.0038361036 -0.0022264399
       vertex 0.024310166 0.0025014352 -0.0074583495
       vertex 0.023618263 0.00159148 -0.0010418921
    endloop
  endfacet
  facet normal -0.67492808 0.65832469 0.3332877
    outer loop
       vertex 0.024310166 0.0025014352 -0.0074583495
       vertex 0.028195582 0.0038361036 -0.0022264399
       vertex 0.028640589 0.0062012816 -0.0059970785
    endloop
  endfacet
  facet normal -0.49539053 0.79936509 0.34000541
    outer loop
       vertex 0.028640589 0.0062012816 -0.0059970785
       vertex 0.028067598 0.0064638878 -0.0074493266
       vertex 0.027313294 0.0063455757 -0.0082701977
    endloop
  endfacet
  facet normal -0.71499446 0.47227984 0.51549459
    outer loop
       vertex 0.027313294 0.0063455757 -0.0082701977
       vertex 0.026790851 0.0061434278 -0.0088096288
       vertex 0.026222883 0.005255548 -0.008783956
    endloop
  endfacet
  facet normal -0.67285869 0.64319768 0.36545577
    outer loop
       vertex 0.026222883 0.005255548 -0.008783956
       vertex 0.024310166 0.0025014352 -0.0074583495
       vertex 0.028640589 0.0062012816 -0.0059970785
    endloop
  endfacet
  facet normal -0.72722705 0.51202228 0.45713675
    outer loop
       vertex 0.028640589 0.0062012816 -0.0059970785
       vertex 0.027313294 0.0063455757 -0.0082701977
       vertex 0.026222883 0.005255548 -0.008783956
    endloop
  endfacet
  facet normal -0.0040022826 0.5531427 -0.83307691
    outer loop
       vertex 0.032399099 0.00048559704 -0.014393
       vertex 0.026509735 -0.0031294607 -0.016765016
       vertex 0.026023146 0.0017785093 -0.013503906
    endloop
  endfacet
  facet normal 0.25332692 0.20730057 -0.94490843
    outer loop
       vertex 0.032399099 0.00048559704 -0.014393
       vertex 0.033139862 -0.0053303415 -0.015470344
       vertex 0.026509735 -0.0031294607 -0.016765016
    endloop
  endfacet
  facet normal 0.19392969 0.0071424017 -0.98098943
    outer loop
       vertex 0.033139862 -0.0053303415 -0.015470344
       vertex 0.027732586 -0.0096985779 -0.016571102
       vertex 0.026509735 -0.0031294607 -0.016765016
    endloop
  endfacet
  facet normal 0.18819439 -0.65488478 -0.7319213
    outer loop
       vertex 0.03246148 -0.012492268 -0.012855543
       vertex 0.0243571 -0.01475469 -0.012915075
       vertex 0.027732586 -0.0096985779 -0.016571102
    endloop
  endfacet
  facet normal 0.20717983 -0.72486534 -0.65699829
    outer loop
       vertex 0.03246148 -0.012492268 -0.012855543
       vertex 0.029758944 -0.017512102 -0.0081693933
       vertex 0.0243571 -0.01475469 -0.012915075
    endloop
  endfacet
  facet normal -0.13676961 -0.91619786 -0.3766637
    outer loop
       vertex 0.029758944 -0.017512102 -0.0081693933
       vertex 0.023010381 -0.017103842 -0.006711988
       vertex 0.0243571 -0.01475469 -0.012915075
    endloop
  endfacet
  facet normal -0.37858423 -0.88935221 0.25637206
    outer loop
       vertex 0.027128436 -0.017229937 -0.0010682871
       vertex 0.020252767 -0.014363638 -0.0012784116
       vertex 0.023010381 -0.017103842 -0.006711988
    endloop
  endfacet
  facet normal -0.33830605 -0.77208832 0.53798573
    outer loop
       vertex 0.027128436 -0.017229937 -0.0010682871
       vertex 0.026049755 -0.012627787 0.0048581568
       vertex 0.020252767 -0.014363638 -0.0012784116
    endloop
  endfacet
  facet normal -0.54878641 -0.50970339 0.66259787
    outer loop
       vertex 0.026049755 -0.012627787 0.0048581568
       vertex 0.022439328 -0.010467 0.0035300618
       vertex 0.020252767 -0.014363638 -0.0012784116
    endloop
  endfacet
  facet normal -0.29563416 0.84150108 0.45219063
    outer loop
       vertex 0.026047728 -2.2520241e-05 0.0035500116
       vertex 0.028195582 0.0038361036 -0.0022264399
       vertex 0.023618263 0.00159148 -0.0010418921
    endloop
  endfacet
  facet normal -0.069355625 0.84125868 0.53616568
    outer loop
       vertex 0.026047728 -2.2520241e-05 0.0035500116
       vertex 0.033271791 0.0014954897 0.0021026797
       vertex 0.028195582 0.0038361036 -0.0022264399
    endloop
  endfacet
  facet normal -0.0018409059 0.87875367 0.47727205
    outer loop
       vertex 0.033271791 0.0014954897 0.0021026797
       vertex 0.034246467 0.0045495874 -0.0035167679
       vertex 0.028195582 0.0038361036 -0.0022264399
    endloop
  endfacet
  facet normal 0.50909626 0.61366268 -0.60352226
    outer loop
       vertex 0.037174413 0.0023417204 -0.0084775124
       vertex 0.037621877 -0.0015073515 -0.012013802
       vertex 0.032399099 0.00048559704 -0.014393
    endloop
  endfacet
  facet normal 0.44604681 -0.34392661 -0.82629095
    outer loop
       vertex 0.033139862 -0.0053303415 -0.015470344
       vertex 0.03246148 -0.012492268 -0.012855543
       vertex 0.027732586 -0.0096985779 -0.016571102
    endloop
  endfacet
  facet normal 0.53357885 -0.33419337 -0.77692239
    outer loop
       vertex 0.033139862 -0.0053303415 -0.015470344
       vertex 0.038506507 -0.0079755783 -0.010646763
       vertex 0.03246148 -0.012492268 -0.012855543
    endloop
  endfacet
  facet normal 0.60927174 -0.52468001 -0.59455769
    outer loop
       vertex 0.038506507 -0.0079755783 -0.010646763
       vertex 0.036604681 -0.013749423 -0.0075004032
       vertex 0.03246148 -0.012492268 -0.012855543
    endloop
  endfacet
  facet normal -0.056329305 -0.99823525 0.018798714
    outer loop
       vertex 0.029758944 -0.017512102 -0.0081693933
       vertex 0.027128436 -0.017229937 -0.0010682871
       vertex 0.023010381 -0.017103842 -0.006711988
    endloop
  endfacet
  facet normal 0.19162723 -0.97531335 0.10974003
    outer loop
       vertex 0.029758944 -0.017512102 -0.0081693933
       vertex 0.035628762 -0.01566175 -0.0019742511
       vertex 0.027128436 -0.017229937 -0.0010682871
    endloop
  endfacet
  facet normal 0.20648206 -0.90655426 0.36813657
    outer loop
       vertex 0.035628762 -0.01566175 -0.0019742511
       vertex 0.032513311 -0.014080765 0.0036664103
       vertex 0.027128436 -0.017229937 -0.0010682871
    endloop
  endfacet
  facet normal -0.46785329 -0.26314845 0.84372163
    outer loop
       vertex 0.026049755 -0.012627787 0.0048581568
       vertex 0.025448529 -0.0070909406 0.0062516579
       vertex 0.022439328 -0.010467 0.0035300618
    endloop
  endfacet
  facet normal -0.13580007 -0.25564811 0.95718461
    outer loop
       vertex 0.026049755 -0.012627787 0.0048581568
       vertex 0.032324235 -0.009957202 0.0064616143
       vertex 0.025448529 -0.0070909406 0.0062516579
    endloop
  endfacet
  facet normal -0.015089468 0.036995255 0.99920151
    outer loop
       vertex 0.032324235 -0.009957202 0.0064616143
       vertex 0.031044193 -0.003541895 0.0062047582
       vertex 0.025448529 -0.0070909406 0.0062516579
    endloop
  endfacet
  facet normal 0.37515814 0.4799097 0.7930593
    outer loop
       vertex 0.03726775 -0.0046320228 0.0039203703
       vertex 0.033271791 0.0014954897 0.0021026797
       vertex 0.031044193 -0.003541895 0.0062047582
    endloop
  endfacet
  facet normal 0.48165569 0.52275561 0.70337356
    outer loop
       vertex 0.03726775 -0.0046320228 0.0039203703
       vertex 0.038967175 0.0013401467 -0.0016819483
       vertex 0.033271791 0.0014954897 0.0021026797
    endloop
  endfacet
  facet normal 0.34963785 0.79639113 0.49347193
    outer loop
       vertex 0.038967175 0.0013401467 -0.0016819483
       vertex 0.034246467 0.0045495874 -0.0035167679
       vertex 0.033271791 0.0014954897 0.0021026797
    endloop
  endfacet
  facet normal 0.56974478 0.82130071 -0.029257803
    outer loop
       vertex 0.038967175 0.0013401467 -0.0016819483
       vertex 0.037174413 0.0023417204 -0.0084775124
       vertex 0.034246467 0.0045495874 -0.0035167679
    endloop
  endfacet
  facet normal 0.81849147 0.55877537 -0.1335732
    outer loop
       vertex 0.038967175 0.0013401467 -0.0016819483
       vertex 0.040825546 -0.0024416591 -0.0061148625
       vertex 0.037174413 0.0023417204 -0.0084775124
    endloop
  endfacet
  facet normal 0.81697976 0.4387685 -0.37420086
    outer loop
       vertex 0.040825546 -0.0024416591 -0.0061148625
       vertex 0.037621877 -0.0015073515 -0.012013802
       vertex 0.037174413 0.0023417204 -0.0084775124
    endloop
  endfacet
  facet normal 0.87991677 0.020014527 -0.47470611
    outer loop
       vertex 0.040825546 -0.0024416591 -0.0061148625
       vertex 0.038506507 -0.0079755783 -0.010646763
       vertex 0.037621877 -0.0015073515 -0.012013802
    endloop
  endfacet
  facet normal 0.94651649 -0.17426999 -0.27154466
    outer loop
       vertex 0.040825546 -0.0024416591 -0.0061148625
       vertex 0.040271732 -0.0095973281 -0.0034529668
       vertex 0.038506507 -0.0079755783 -0.010646763
    endloop
  endfacet
  facet normal 0.84169411 -0.44438264 -0.30671664
    outer loop
       vertex 0.040271732 -0.0095973281 -0.0034529668
       vertex 0.036604681 -0.013749423 -0.0075004032
       vertex 0.038506507 -0.0079755783 -0.010646763
    endloop
  endfacet
  facet normal 0.35926924 0.10879484 0.9268707
    outer loop
       vertex 0.032324235 -0.009957202 0.0064616143
       vertex 0.03726775 -0.0046320228 0.0039203703
       vertex 0.031044193 -0.003541895 0.0062047582
    endloop
  endfacet
  facet normal 0.54757739 -0.11265695 0.82913654
    outer loop
       vertex 0.032324235 -0.009957202 0.0064616143
       vertex 0.038064823 -0.010199171 0.0026375452
       vertex 0.03726775 -0.0046320228 0.0039203703
    endloop
  endfacet
  facet normal 0.76472802 -0.038719033 0.64318885
    outer loop
       vertex 0.038064823 -0.010199171 0.0026375452
       vertex 0.041002474 -0.0048585817 -0.00053371902
       vertex 0.03726775 -0.0046320228 0.0039203703
    endloop
  endfacet
  facet normal 0.78277098 -0.61771035 -0.075521568
    outer loop
       vertex 0.040271732 -0.0095973281 -0.0034529668
       vertex 0.035628762 -0.01566175 -0.0019742511
       vertex 0.036604681 -0.013749423 -0.0075004032
    endloop
  endfacet
  facet normal 0.79861972 -0.55422224 0.2346151
    outer loop
       vertex 0.040271732 -0.0095973281 -0.0034529668
       vertex 0.038064823 -0.010199171 0.0026375452
       vertex 0.035628762 -0.01566175 -0.0019742511
    endloop
  endfacet
  facet normal 0.55768116 -0.66644727 0.49481286
    outer loop
       vertex 0.038064823 -0.010199171 0.0026375452
       vertex 0.032513311 -0.014080765 0.0036664103
       vertex 0.035628762 -0.01566175 -0.0019742511
    endloop
  endfacet
  facet normal -0.89514766 0.30672164 -0.32346947
    outer loop
       vertex 0.02638027 0.0042249891 -0.012410537
       vertex 0.026256827 0.0045252623 -0.011784201
       vertex 0.026617202 0.0048069925 -0.012514334
    endloop
  endfacet
  facet normal 0.59198892 -0.080098841 -0.80195592
    outer loop
       vertex 0.032399099 0.00048559704 -0.014393
       vertex 0.032233301 0.0021012485 -0.014676759
       vertex 0.032651936 0.002688223 -0.014426357
    endloop
  endfacet
  facet normal 0.54799825 -0.075520291 -0.83306339
    outer loop
       vertex 0.032399099 0.00048559704 -0.014393
       vertex 0.032651936 0.002688223 -0.014426357
       vertex 0.033726001 0.0025766926 -0.013709714
    endloop
  endfacet
  facet normal 0.75178998 0.12762801 -0.64693347
    outer loop
       vertex 0.035980387 0.003971961 -0.0095434531
       vertex 0.037174413 0.0023417204 -0.0084775124
       vertex 0.032399099 0.00048559704 -0.014393
    endloop
  endfacet
  facet normal 0.94432293 -0.053757312 -0.32459875
    outer loop
       vertex 0.035056917 0.003088933 -0.012083773
       vertex 0.035531163 0.003931587 -0.01084365
       vertex 0.035980387 0.003971961 -0.0095434531
    endloop
  endfacet
  facet normal 0.70013293 -0.22258445 -0.67843204
    outer loop
       vertex 0.032399099 0.00048559704 -0.014393
       vertex 0.033726001 0.0025766926 -0.013709714
       vertex 0.034496754 0.0027252232 -0.012963038
    endloop
  endfacet
  facet normal 0.22754904 -0.94247089 0.24488784
    outer loop
       vertex 0.034496754 0.0027252232 -0.012963038
       vertex 0.035056917 0.003088933 -0.012083773
       vertex 0.035980387 0.003971961 -0.0095434531
    endloop
  endfacet
  facet normal 0.75514688 -0.64921818 -0.090933742
    outer loop
       vertex 0.034496754 0.0027252232 -0.012963038
       vertex 0.035980387 0.003971961 -0.0095434531
       vertex 0.032399099 0.00048559704 -0.014393
    endloop
  endfacet
  facet normal 0.70083938 0.58447353 0.40891913
    outer loop
       vertex 0.035284276 0.0051593497 -0.0090990312
       vertex 0.034117692 0.0054932897 -0.0075769479
       vertex 0.034353407 0.0050720978 -0.0073789203
    endloop
  endfacet
  facet normal 0.74893157 0.50346963 0.4308362
    outer loop
       vertex 0.034353407 0.0050720978 -0.0073789203
       vertex 0.03521986 0.0047675431 -0.0085291951
       vertex 0.035284276 0.0051593497 -0.0090990312
    endloop
  endfacet
  facet normal -0.82227808 0.56907077 -0.0041493172
    outer loop
       vertex 0.024310166 0.0025014352 -0.0074583495
       vertex 0.026222883 0.005255548 -0.008783956
       vertex 0.026331091 0.0054001202 -0.010399853
    endloop
  endfacet
  facet normal -0.80362253 -0.58271404 0.12097595
    outer loop
       vertex 0.026256827 0.0045252623 -0.011784201
       vertex 0.02638027 0.0042249891 -0.012410537
       vertex 0.026697109 0.0036169859 -0.013234448
    endloop
  endfacet
  facet normal -0.88900446 0.40711506 -0.20959103
    outer loop
       vertex 0.024310166 0.0025014352 -0.0074583495
       vertex 0.026331091 0.0054001202 -0.010399853
       vertex 0.026256827 0.0045252623 -0.011784201
    endloop
  endfacet
  facet normal -0.88269269 0.36666791 -0.29395281
    outer loop
       vertex 0.026697109 0.0036169859 -0.013234448
       vertex 0.026023146 0.0017785093 -0.013503906
       vertex 0.024310166 0.0025014352 -0.0074583495
    endloop
  endfacet
  facet normal -0.92529696 0.1238216 -0.35846025
    outer loop
       vertex 0.026256827 0.0045252623 -0.011784201
       vertex 0.026697109 0.0036169859 -0.013234448
       vertex 0.024310166 0.0025014352 -0.0074583495
    endloop
  endfacet
  facet normal 0.85915031 -0.12149382 -0.49709153
    outer loop
       vertex 0.035056917 0.003088933 -0.012083773
       vertex 0.034496754 0.0027252232 -0.012963038
       vertex 0.034478192 0.0035579366 -0.013198643
    endloop
  endfacet
  facet normal -0.48664936 0.29872117 -0.82093731
    outer loop
       vertex 0.026023146 0.0017785093 -0.013503906
       vertex 0.026697109 0.0036169859 -0.013234448
       vertex 0.027652408 0.0033688715 -0.01389103
    endloop
  endfacet
  facet normal -0.38187493 0.17008703 -0.90842828
    outer loop
       vertex 0.026023146 0.0017785093 -0.013503906
       vertex 0.027652408 0.0033688715 -0.01389103
       vertex 0.028413613 0.0030121453 -0.014277808
    endloop
  endfacet
  facet normal -0.17286587 -0.18756154 -0.96692195
    outer loop
       vertex 0.032233301 0.0021012485 -0.014676759
       vertex 0.032399099 0.00048559704 -0.014393
       vertex 0.026023146 0.0017785093 -0.013503906
    endloop
  endfacet
  facet normal -0.14000594 -0.72251511 -0.67703046
    outer loop
       vertex 0.030006512 0.0025840091 -0.014731466
       vertex 0.03111019 0.0024341361 -0.014799758
       vertex 0.032233301 0.0021012485 -0.014676759
    endloop
  endfacet
  facet normal -0.28538737 -0.047498693 -0.95723452
    outer loop
       vertex 0.026023146 0.0017785093 -0.013503906
       vertex 0.028413613 0.0030121453 -0.014277808
       vertex 0.030006512 0.0025840091 -0.014731466
    endloop
  endfacet
  facet normal -0.11481682 -0.61776232 -0.77793754
    outer loop
       vertex 0.030006512 0.0025840091 -0.014731466
       vertex 0.032233301 0.0021012485 -0.014676759
       vertex 0.026023146 0.0017785093 -0.013503906
    endloop
  endfacet
  facet normal 0.42384614 0.75248064 0.50411044
    outer loop
       vertex 0.033648727 0.0052924877 -0.0068829162
       vertex 0.034010028 0.0051861591 -0.0070279757
       vertex 0.034117692 0.0054932897 -0.0075769479
    endloop
  endfacet
  facet normal -0.84246954 0.53868126 -0.008220335
    outer loop
       vertex 0.026331091 0.0054001202 -0.010399853
       vertex 0.026222883 0.005255548 -0.008783956
       vertex 0.026790851 0.0061434278 -0.0088096288
    endloop
  endfacet
  facet normal -0.8579073 0.51374377 0.0078993383
    outer loop
       vertex 0.026790851 0.0061434278 -0.0088096288
       vertex 0.02688087 0.0063266684 -0.010950405
       vertex 0.026331091 0.0054001202 -0.010399853
    endloop
  endfacet
  facet normal 0.10576296 0.87322845 0.47569556
    outer loop
       vertex 0.030623628 0.0062893964 -0.0066304997
       vertex 0.031914316 0.006166761 -0.0066923421
       vertex 0.032381471 0.0069481208 -0.008230539
    endloop
  endfacet
  facet normal 0.062475394 0.89686504 0.43786976
    outer loop
       vertex 0.032381471 0.0069481208 -0.008230539
       vertex 0.029716627 0.0068771751 -0.007705004
       vertex 0.030623628 0.0062893964 -0.0066304997
    endloop
  endfacet
  facet normal 0.66522269 0.58839101 0.45964639
    outer loop
       vertex 0.034010028 0.0051861591 -0.0070279757
       vertex 0.034353407 0.0050720978 -0.0073789203
       vertex 0.034117692 0.0054932897 -0.0075769479
    endloop
  endfacet
  facet normal -0.086165966 -0.18878641 -0.9782306
    outer loop
       vertex 0.03111019 0.0024341361 -0.014799758
       vertex 0.030006512 0.0025840091 -0.014731466
       vertex 0.030296575 0.0033728598 -0.014909254
    endloop
  endfacet
  facet normal 0.29923932 0.92057698 0.25098576
    outer loop
       vertex 0.029656289 0.00662365 -0.0067031745
       vertex 0.030623628 0.0062893964 -0.0066304997
       vertex 0.029716627 0.0068771751 -0.007705004
    endloop
  endfacet
  facet normal -0.4298174 0.89943333 0.079225581
    outer loop
       vertex 0.026790851 0.0061434278 -0.0088096288
       vertex 0.027313294 0.0063455757 -0.0082701977
       vertex 0.028259754 0.0069140095 -0.0095887536
    endloop
  endfacet
  facet normal -0.43936005 0.89642019 0.058254478
    outer loop
       vertex 0.028259754 0.0069140095 -0.0095887536
       vertex 0.02688087 0.0063266684 -0.010950405
       vertex 0.026790851 0.0061434278 -0.0088096288
    endloop
  endfacet
  facet normal -0.89045003 0.40475405 -0.20802141
    outer loop
       vertex 0.026256827 0.0045252623 -0.011784201
       vertex 0.026331091 0.0054001202 -0.010399853
       vertex 0.02688087 0.0063266684 -0.010950405
    endloop
  endfacet
  facet normal -0.8667324 0.42275826 -0.26467036
    outer loop
       vertex 0.02688087 0.0063266684 -0.010950405
       vertex 0.026617202 0.0048069925 -0.012514334
       vertex 0.026256827 0.0045252623 -0.011784201
    endloop
  endfacet
  facet normal -0.21465114 0.94276892 0.25516986
    outer loop
       vertex 0.028067598 0.0064638878 -0.0074493266
       vertex 0.028640589 0.0062012816 -0.0059970785
       vertex 0.029656289 0.00662365 -0.0067031745
    endloop
  endfacet
  facet normal -0.20315219 0.95206473 0.22869617
    outer loop
       vertex 0.029656289 0.00662365 -0.0067031745
       vertex 0.029716627 0.0068771751 -0.007705004
       vertex 0.028067598 0.0064638878 -0.0074493266
    endloop
  endfacet
endsolid ExportedfromBlender-2.79(sub0)
