solid Exported from Blender-3.5.1
facet normal 0.000000 0.000000 1.000000
outer loop
vertex 1.750000 0.000000 0.050000
vertex -0.250000 0.000000 0.050000
vertex -0.250000 -0.025000 0.050000
endloop
endfacet
facet normal 0.000000 0.000000 1.000000
outer loop
vertex 1.750000 0.000000 0.050000
vertex -0.250000 -0.025000 0.050000
vertex 1.750000 -0.025000 0.050000
endloop
endfacet
facet normal 0.000000 -1.000000 0.000000
outer loop
vertex 1.750000 -0.025000 -0.050000
vertex 1.750000 -0.025000 0.050000
vertex -0.250000 -0.025000 0.050000
endloop
endfacet
facet normal 0.000000 -1.000000 0.000000
outer loop
vertex 1.750000 -0.025000 -0.050000
vertex -0.250000 -0.025000 0.050000
vertex -0.250000 -0.025000 -0.050000
endloop
endfacet
facet normal -1.000000 0.000000 0.000000
outer loop
vertex -0.250000 -0.025000 -0.050000
vertex -0.250000 -0.025000 0.050000
vertex -0.250000 0.000000 0.050000
endloop
endfacet
facet normal -1.000000 0.000000 0.000000
outer loop
vertex -0.250000 -0.025000 -0.050000
vertex -0.250000 0.000000 0.050000
vertex -0.250000 0.000000 -0.050000
endloop
endfacet
facet normal 0.000000 0.000000 -1.000000
outer loop
vertex -0.250000 0.000000 -0.050000
vertex 1.750000 0.000000 -0.050000
vertex 1.750000 -0.025000 -0.050000
endloop
endfacet
facet normal 0.000000 0.000000 -1.000000
outer loop
vertex -0.250000 0.000000 -0.050000
vertex 1.750000 -0.025000 -0.050000
vertex -0.250000 -0.025000 -0.050000
endloop
endfacet
facet normal 1.000000 0.000000 0.000000
outer loop
vertex 1.750000 0.000000 -0.050000
vertex 1.750000 0.000000 0.050000
vertex 1.750000 -0.025000 0.050000
endloop
endfacet
facet normal 1.000000 0.000000 0.000000
outer loop
vertex 1.750000 0.000000 -0.050000
vertex 1.750000 -0.025000 0.050000
vertex 1.750000 -0.025000 -0.050000
endloop
endfacet
facet normal 0.000000 1.000000 0.000000
outer loop
vertex -0.250000 0.000000 -0.050000
vertex -0.250000 0.000000 0.050000
vertex 1.750000 0.000000 0.050000
endloop
endfacet
facet normal 0.000000 1.000000 0.000000
outer loop
vertex -0.250000 0.000000 -0.050000
vertex 1.750000 0.000000 0.050000
vertex 1.750000 0.000000 -0.050000
endloop
endfacet
endsolid Exported from Blender-3.5.1
