solid Exported from Blender-3.5.1
facet normal 0.187596 -0.577352 -0.794653
outer loop
vertex 0.000000 0.050000 -0.002000
vertex 0.001447 0.048949 -0.000894
vertex -0.000553 0.048299 -0.000894
endloop
endfacet
facet normal 0.607065 0.000000 -0.794652
outer loop
vertex 0.001447 0.048949 -0.000894
vertex 0.000000 0.050000 -0.002000
vertex 0.001447 0.051051 -0.000894
endloop
endfacet
facet normal -0.491122 -0.356829 -0.794652
outer loop
vertex 0.000000 0.050000 -0.002000
vertex -0.000553 0.048299 -0.000894
vertex -0.001789 0.050000 -0.000894
endloop
endfacet
facet normal -0.491123 0.356829 -0.794652
outer loop
vertex 0.000000 0.050000 -0.002000
vertex -0.001789 0.050000 -0.000894
vertex -0.000553 0.051701 -0.000894
endloop
endfacet
facet normal 0.187597 0.577355 -0.794650
outer loop
vertex 0.000000 0.050000 -0.002000
vertex -0.000553 0.051701 -0.000894
vertex 0.001447 0.051051 -0.000894
endloop
endfacet
facet normal 0.982246 0.000000 -0.187597
outer loop
vertex 0.001447 0.048949 -0.000894
vertex 0.001447 0.051051 -0.000894
vertex 0.001789 0.050000 0.000894
endloop
endfacet
facet normal 0.303536 -0.934172 -0.187586
outer loop
vertex -0.000553 0.048299 -0.000894
vertex 0.001447 0.048949 -0.000894
vertex 0.000553 0.048299 0.000894
endloop
endfacet
facet normal -0.794649 -0.577359 -0.187587
outer loop
vertex -0.001789 0.050000 -0.000894
vertex -0.000553 0.048299 -0.000894
vertex -0.001447 0.048949 0.000894
endloop
endfacet
facet normal -0.794649 0.577359 -0.187590
outer loop
vertex -0.000553 0.051701 -0.000894
vertex -0.001789 0.050000 -0.000894
vertex -0.001447 0.051051 0.000894
endloop
endfacet
facet normal 0.303535 0.934171 -0.187592
outer loop
vertex 0.001447 0.051051 -0.000894
vertex -0.000553 0.051701 -0.000894
vertex 0.000553 0.051701 0.000894
endloop
endfacet
facet normal 0.794649 -0.577359 0.187587
outer loop
vertex 0.001447 0.048949 -0.000894
vertex 0.001789 0.050000 0.000894
vertex 0.000553 0.048299 0.000894
endloop
endfacet
facet normal -0.303536 -0.934172 0.187586
outer loop
vertex -0.000553 0.048299 -0.000894
vertex 0.000553 0.048299 0.000894
vertex -0.001447 0.048949 0.000894
endloop
endfacet
facet normal -0.982246 0.000000 0.187597
outer loop
vertex -0.001789 0.050000 -0.000894
vertex -0.001447 0.048949 0.000894
vertex -0.001447 0.051051 0.000894
endloop
endfacet
facet normal -0.303535 0.934171 0.187594
outer loop
vertex -0.000553 0.051701 -0.000894
vertex -0.001447 0.051051 0.000894
vertex 0.000553 0.051701 0.000894
endloop
endfacet
facet normal 0.794649 0.577359 0.187589
outer loop
vertex 0.001447 0.051051 -0.000894
vertex 0.000553 0.051701 0.000894
vertex 0.001789 0.050000 0.000894
endloop
endfacet
facet normal 0.491123 -0.356829 0.794652
outer loop
vertex 0.000553 0.048299 0.000894
vertex 0.001789 0.050000 0.000894
vertex 0.000000 0.050000 0.002000
endloop
endfacet
facet normal -0.187596 -0.577352 0.794653
outer loop
vertex -0.001447 0.048949 0.000894
vertex 0.000553 0.048299 0.000894
vertex 0.000000 0.050000 0.002000
endloop
endfacet
facet normal -0.607065 0.000000 0.794652
outer loop
vertex -0.001447 0.051051 0.000894
vertex -0.001447 0.048949 0.000894
vertex 0.000000 0.050000 0.002000
endloop
endfacet
facet normal -0.187597 0.577355 0.794650
outer loop
vertex 0.000553 0.051701 0.000894
vertex -0.001447 0.051051 0.000894
vertex 0.000000 0.050000 0.002000
endloop
endfacet
facet normal 0.491123 0.356830 0.794651
outer loop
vertex 0.001789 0.050000 0.000894
vertex 0.000553 0.051701 0.000894
vertex 0.000000 0.050000 0.002000
endloop
endfacet
endsolid Exported from Blender-3.5.1
