solid ExportedfromBlender-2.79(sub0)
 facet normal -0.0517563 0.946689 0.317965
  outer loop
   vertex 0.0052437 0.05767 0.0051956
   vertex 0.0056129 0.057736 0.0050592
   vertex 0.0052805 0.057794 0.0048324
  endloop
 endfacet
 facet normal -0.428321 0.867547 0.252791
  outer loop
   vertex 0.0040312 0.057149 0.0049292
   vertex 0.0052437 0.05767 0.0051956
   vertex 0.0052805 0.057794 0.0048324
  endloop
 endfacet
 facet normal -0.630125 0.582003 0.514019
  outer loop
   vertex 0.0052805 0.057794 0.0048324
   vertex 0.0050634 0.05792 0.0044236
   vertex 0.0044721 0.057419 0.004266
  endloop
 endfacet
 facet normal -0.454268 0.888851 0.0598679
  outer loop
   vertex 0.0052805 0.057794 0.0048324
   vertex 0.0044721 0.057419 0.004266
   vertex 0.0040312 0.057149 0.0049292
  endloop
 endfacet
 facet normal -0.434589 0.794858 0.423478
  outer loop
   vertex 0.0052437 0.05767 0.0051956
   vertex 0.0040312 0.057149 0.0049292
   vertex 0.0049413 0.057146 0.0058688
  endloop
 endfacet
 facet normal -0.0390718 0.796954 0.602775
  outer loop
   vertex 0.0052437 0.05767 0.0051956
   vertex 0.0049413 0.057146 0.0058688
   vertex 0.0062033 0.057354 0.0056756
  endloop
 endfacet
 facet normal -0.954938 0.207428 -0.21229
  outer loop
   vertex 0.0032723 0.056145 0.0045928
   vertex 0.0034906 0.056373 0.0038336
   vertex 0.0031107 0.0549974 0.0041984
  endloop
 endfacet
 facet normal -0.516217 0.40105 0.756756
  outer loop
   vertex 0.0046927 0.056144 0.006342
   vertex 0.0038187 0.056321 0.005652
   vertex 0.0040182 0.0549905 0.0064932
  endloop
 endfacet
 facet normal -0.987259 0.153469 -0.0420415
  outer loop
   vertex 0.0032723 0.056145 0.0045928
   vertex 0.0031107 0.0549974 0.0041984
   vertex 0.0030658 0.0549905 0.0052276
  endloop
 endfacet
 facet normal -0.139675 0.208557 0.967985
  outer loop
   vertex 0.0046927 0.056144 0.006342
   vertex 0.0040182 0.0549905 0.0064932
   vertex 0.0053488 0.0549942 0.0066844
  endloop
 endfacet
 facet normal -0.740721 -0.612429 -0.276158
  outer loop
   vertex 0.0033921 0.0537769 0.0038436
   vertex 0.0036579 0.0536311 0.003454
   vertex 0.0041228 0.0528769 0.0038796
  endloop
 endfacet
 facet normal -0.761103 -0.624886 -0.173895
  outer loop
   vertex 0.0041228 0.0528769 0.0038796
   vertex 0.0040856 0.0527588 0.0044668
   vertex 0.0033921 0.0537769 0.0038436
  endloop
 endfacet
 facet normal -0.811698 -0.393443 0.431682
  outer loop
   vertex 0.0036283 0.0537602 0.005842
   vertex 0.0032948 0.0535617 0.005034
   vertex 0.0041691 0.0526796 0.005874
  endloop
 endfacet
 facet normal 0.00266863 -0.357236 0.93401
  outer loop
   vertex 0.0060118 0.053846 0.00667
   vertex 0.0046222 0.0535658 0.0065668
   vertex 0.005642 0.0528152 0.0062768
  endloop
 endfacet
 facet normal -0.0427124 -0.889203 0.455514
  outer loop
   vertex 0.005642 0.0528152 0.0062768
   vertex 0.0041691 0.0526796 0.005874
   vertex 0.0051029 0.0523155 0.0052508
  endloop
 endfacet
 facet normal -0.17274 -0.550307 0.816898
  outer loop
   vertex 0.005642 0.0528152 0.0062768
   vertex 0.0046222 0.0535658 0.0065668
   vertex 0.0041691 0.0526796 0.005874
  endloop
 endfacet
 facet normal -0.600869 -0.278526 0.749252
  outer loop
   vertex 0.0046222 0.0535658 0.0065668
   vertex 0.0036283 0.0537602 0.005842
   vertex 0.0041691 0.0526796 0.005874
  endloop
 endfacet
 facet normal -0.380132 -0.924462 -0.0294742
  outer loop
   vertex 0.0041691 0.0526796 0.005874
   vertex 0.0040856 0.0527588 0.0044668
   vertex 0.0051029 0.0523155 0.0052508
  endloop
 endfacet
 facet normal -0.711507 -0.702674 0.00267148
  outer loop
   vertex 0.0041691 0.0526796 0.005874
   vertex 0.0032948 0.0535617 0.005034
   vertex 0.0040856 0.0527588 0.0044668
  endloop
 endfacet
 facet normal -0.760492 -0.625267 -0.175197
  outer loop
   vertex 0.0032948 0.0535617 0.005034
   vertex 0.0033921 0.0537769 0.0038436
   vertex 0.0040856 0.0527588 0.0044668
  endloop
 endfacet
 facet normal -0.463409 -0.880057 0.103692
  outer loop
   vertex 0.0051029 0.0523155 0.0052508
   vertex 0.0040856 0.0527588 0.0044668
   vertex 0.0044108 0.0525549 0.0041896
  endloop
 endfacet
 facet normal -0.692321 -0.409814 0.593923
  outer loop
   vertex 0.0044108 0.0525549 0.0041896
   vertex 0.004892 0.0521785 0.0044908
   vertex 0.0052889 0.0521903 0.0049616
  endloop
 endfacet
 facet normal -0.451165 -0.887473 0.0940337
  outer loop
   vertex 0.0044108 0.0525549 0.0041896
   vertex 0.0052889 0.0521903 0.0049616
   vertex 0.0051029 0.0523155 0.0052508
  endloop
 endfacet
 facet normal -0.633117 -0.750127 -0.190976
  outer loop
   vertex 0.0040856 0.0527588 0.0044668
   vertex 0.0041228 0.0528769 0.0038796
   vertex 0.0044108 0.0525549 0.0041896
  endloop
 endfacet
 facet normal 0.0343473 -0.116182 0.992634
  outer loop
   vertex 0.0067349 0.055003 0.0067804
   vertex 0.0060118 0.053846 0.00667
   vertex 0.0069613 0.0535799 0.006606
  endloop
 endfacet
 facet normal -0.115261 -0.138874 0.98358
  outer loop
   vertex 0.0069613 0.0535799 0.006606
   vertex 0.0072341 0.0541524 0.0067188
   vertex 0.0067349 0.055003 0.0067804
  endloop
 endfacet
 facet normal -0.0640447 -0.0494813 0.99672
  outer loop
   vertex 0.0053488 0.0549942 0.0066844
   vertex 0.0046222 0.0535658 0.0065668
   vertex 0.0060118 0.053846 0.00667
  endloop
 endfacet
 facet normal -0.142203 -0.00915381 0.989795
  outer loop
   vertex 0.0053488 0.0549942 0.0066844
   vertex 0.0040182 0.0549905 0.0064932
   vertex 0.0046222 0.0535658 0.0065668
  endloop
 endfacet
 facet normal -0.602537 -0.21575 0.768376
  outer loop
   vertex 0.0040182 0.0549905 0.0064932
   vertex 0.0036283 0.0537602 0.005842
   vertex 0.0046222 0.0535658 0.0065668
  endloop
 endfacet
 facet normal -0.887793 -0.198551 0.415212
  outer loop
   vertex 0.0030658 0.0549905 0.0052276
   vertex 0.0032948 0.0535617 0.005034
   vertex 0.0036283 0.0537602 0.005842
  endloop
 endfacet
 facet normal -0.987354 -0.152273 -0.0440952
  outer loop
   vertex 0.0030658 0.0549905 0.0052276
   vertex 0.0031107 0.0549974 0.0041984
   vertex 0.0032948 0.0535617 0.005034
  endloop
 endfacet
 facet normal -0.974809 -0.191526 -0.114303
  outer loop
   vertex 0.0031107 0.0549974 0.0041984
   vertex 0.0033921 0.0537769 0.0038436
   vertex 0.0032948 0.0535617 0.005034
  endloop
 endfacet
 facet normal -0.06867 -0.0521465 0.996276
  outer loop
   vertex 0.0067349 0.055003 0.0067804
   vertex 0.0053488 0.0549942 0.0066844
   vertex 0.0060118 0.053846 0.00667
  endloop
 endfacet
 facet normal -0.0692912 0.141759 0.987473
  outer loop
   vertex 0.0067349 0.055003 0.0067804
   vertex 0.0059599 0.056335 0.0065348
   vertex 0.0053488 0.0549942 0.0066844
  endloop
 endfacet
 facet normal -0.175339 0.187746 0.966441
  outer loop
   vertex 0.0059599 0.056335 0.0065348
   vertex 0.0046927 0.056144 0.006342
   vertex 0.0053488 0.0549942 0.0066844
  endloop
 endfacet
 facet normal -0.797344 -0.064904 0.600024
  outer loop
   vertex 0.0040182 0.0549905 0.0064932
   vertex 0.0030658 0.0549905 0.0052276
   vertex 0.0036283 0.0537602 0.005842
  endloop
 endfacet
 facet normal -0.773252 0.251954 0.581894
  outer loop
   vertex 0.0040182 0.0549905 0.0064932
   vertex 0.0038187 0.056321 0.005652
   vertex 0.0030658 0.0549905 0.0052276
  endloop
 endfacet
 facet normal -0.851869 0.361013 0.379459
  outer loop
   vertex 0.0038187 0.056321 0.005652
   vertex 0.0032723 0.056145 0.0045928
   vertex 0.0030658 0.0549905 0.0052276
  endloop
 endfacet
 facet normal -0.957065 -0.148251 -0.249095
  outer loop
   vertex 0.0033921 0.0537769 0.0038436
   vertex 0.0031107 0.0549974 0.0041984
   vertex 0.0033158 0.055119 0.003338
  endloop
 endfacet
 facet normal -0.990172 -0.138591 0.0187568
  outer loop
   vertex 0.0033158 0.055119 0.003338
   vertex 0.0033507 0.0548258 0.003014
   vertex 0.0034422 0.0542071 0.0032728
  endloop
 endfacet
 facet normal -0.976346 -0.122599 -0.178095
  outer loop
   vertex 0.0033158 0.055119 0.003338
   vertex 0.0034422 0.0542071 0.0032728
   vertex 0.0033921 0.0537769 0.0038436
  endloop
 endfacet
 facet normal -0.951846 0.201625 -0.230949
  outer loop
   vertex 0.0031107 0.0549974 0.0041984
   vertex 0.0034906 0.056373 0.0038336
   vertex 0.0035102 0.055836 0.003284
  endloop
 endfacet
 facet normal -0.950712 0.243288 -0.192244
  outer loop
   vertex 0.0035102 0.055836 0.003284
   vertex 0.0033158 0.055119 0.003338
   vertex 0.0031107 0.0549974 0.0041984
  endloop
 endfacet
 facet normal -0.80453 0.410205 -0.429493
  outer loop
   vertex 0.0034906 0.056373 0.0038336
   vertex 0.0037366 0.056404 0.0034024
   vertex 0.0035102 0.055836 0.003284
  endloop
 endfacet
 facet normal 0.127154 0.621457 0.773061
  outer loop
   vertex 0.0066828 0.057233 0.005694
   vertex 0.0062033 0.057354 0.0056756
   vertex 0.0059599 0.056335 0.0065348
  endloop
 endfacet
 facet normal 0.169114 0.306727 0.936653
  outer loop
   vertex 0.0059599 0.056335 0.0065348
   vertex 0.0069685 0.056364 0.0063432
   vertex 0.0071905 0.057049 0.0060788
  endloop
 endfacet
 facet normal -0.203394 0.751431 0.627681
  outer loop
   vertex 0.0059599 0.056335 0.0065348
   vertex 0.0071905 0.057049 0.0060788
   vertex 0.0066828 0.057233 0.005694
  endloop
 endfacet
 facet normal 0.0112568 0.643002 0.765782
  outer loop
   vertex 0.0062033 0.057354 0.0056756
   vertex 0.0049413 0.057146 0.0058688
   vertex 0.0059599 0.056335 0.0065348
  endloop
 endfacet
 facet normal -0.200832 0.458626 0.865638
  outer loop
   vertex 0.0049413 0.057146 0.0058688
   vertex 0.0046927 0.056144 0.006342
   vertex 0.0059599 0.056335 0.0065348
  endloop
 endfacet
 facet normal -0.486878 0.468837 0.736982
  outer loop
   vertex 0.0049413 0.057146 0.0058688
   vertex 0.0038187 0.056321 0.005652
   vertex 0.0046927 0.056144 0.006342
  endloop
 endfacet
 facet normal -0.561955 0.621106 0.546291
  outer loop
   vertex 0.0049413 0.057146 0.0058688
   vertex 0.0040312 0.057149 0.0049292
   vertex 0.0038187 0.056321 0.005652
  endloop
 endfacet
 facet normal -0.802705 0.495597 0.331735
  outer loop
   vertex 0.0040312 0.057149 0.0049292
   vertex 0.0032723 0.056145 0.0045928
   vertex 0.0038187 0.056321 0.005652
  endloop
 endfacet
 facet normal -0.789932 0.611653 -0.0434515
  outer loop
   vertex 0.0040312 0.057149 0.0049292
   vertex 0.0034906 0.056373 0.0038336
   vertex 0.0032723 0.056145 0.0045928
  endloop
 endfacet
 facet normal -0.672907 0.723799 -0.152681
  outer loop
   vertex 0.0040312 0.057149 0.0049292
   vertex 0.0044721 0.057419 0.004266
   vertex 0.0040384 0.056891 0.0036744
  endloop
 endfacet
 facet normal -0.701839 0.696935 -0.147323
  outer loop
   vertex 0.0040384 0.056891 0.0036744
   vertex 0.0034906 0.056373 0.0038336
   vertex 0.0040312 0.057149 0.0049292
  endloop
 endfacet
 facet normal 0.0648149 0.927741 -0.367554
  outer loop
   vertex 0.0101909 0.062132 0.00032
   vertex 0.0131982 0.061011 -0.0019792
   vertex 0.0095167 0.061011 -0.0026284
  endloop
 endfacet
 facet normal 0.648465 0.671504 -0.358573
  outer loop
   vertex 0.0153441 0.058104 -0.0035424
   vertex 0.0131982 0.061011 -0.0019792
   vertex 0.0162156 0.058686 -0.000876404
  endloop
 endfacet
 facet normal -0.359353 0.896619 -0.258728
  outer loop
   vertex 0.0101909 0.062132 0.00032
   vertex 0.0095167 0.061011 -0.0026284
   vertex 0.0069385 0.061006 0.000935196
  endloop
 endfacet
 facet normal -0.284026 0.935419 0.210527
  outer loop
   vertex 0.0101909 0.062132 0.00032
   vertex 0.0069385 0.061006 0.000935196
   vertex 0.0090248 0.061003 0.0037632
  endloop
 endfacet
 facet normal 0.214375 0.904319 0.369122
  outer loop
   vertex 0.0101909 0.062132 0.00032
   vertex 0.0090248 0.061003 0.0037632
   vertex 0.0131717 0.061011 0.0013352
  endloop
 endfacet
 facet normal 0.89274 0.280051 -0.352969
  outer loop
   vertex 0.0153441 0.058104 -0.0035424
   vertex 0.0162156 0.058686 -0.000876404
   vertex 0.0169342 0.0549055 -0.0020584
  endloop
 endfacet
 facet normal -0.120692 0.338014 -0.93337
  outer loop
   vertex 0.0087029 0.058104 -0.0051636
   vertex 0.0120618 0.058613 -0.0054136
   vertex 0.0101806 0.0541671 -0.0067804
  endloop
 endfacet
 facet normal -0.878737 0.340342 -0.334645
  outer loop
   vertex 0.0043005 0.058141 0.0009328
   vertex 0.0058332 0.058686 -0.0025376
   vertex 0.0038955 0.0549231 -0.0012764
  endloop
 endfacet
 facet normal -0.379985 0.645315 0.662707
  outer loop
   vertex 0.0071905 0.057049 0.0060788
   vertex 0.0084459 0.058199 0.0056788
   vertex 0.0056486 0.058722 0.0035656
  endloop
 endfacet
 facet normal -0.40753 0.789087 0.459631
  outer loop
   vertex 0.0056486 0.058722 0.0035656
   vertex 0.0050634 0.05792 0.0044236
   vertex 0.0052805 0.057794 0.0048324
  endloop
 endfacet
 facet normal -0.221609 0.816228 0.533537
  outer loop
   vertex 0.0056486 0.058722 0.0035656
   vertex 0.0052805 0.057794 0.0048324
   vertex 0.0056129 0.057736 0.0050592
  endloop
 endfacet
 facet normal -0.200384 0.754372 0.625115
  outer loop
   vertex 0.0066828 0.057233 0.005694
   vertex 0.0071905 0.057049 0.0060788
   vertex 0.0056486 0.058722 0.0035656
  endloop
 endfacet
 facet normal 0.759063 0.645717 0.0829024
  outer loop
   vertex 0.0065567 0.057395 0.0055868
   vertex 0.0066828 0.057233 0.005694
   vertex 0.0056486 0.058722 0.0035656
  endloop
 endfacet
 facet normal -0.033112 0.834457 0.550077
  outer loop
   vertex 0.0056486 0.058722 0.0035656
   vertex 0.0056129 0.057736 0.0050592
   vertex 0.0063274 0.057507 0.0054496
  endloop
 endfacet
 facet normal 0.111518 0.852971 0.509907
  outer loop
   vertex 0.0056486 0.058722 0.0035656
   vertex 0.0063274 0.057507 0.0054496
   vertex 0.0065567 0.057395 0.0055868
  endloop
 endfacet
 facet normal 0.537675 0.32694 0.777185
  outer loop
   vertex 0.0153441 0.058147 0.0027432
   vertex 0.0120264 0.058692 0.0048092
   vertex 0.0143401 0.055041 0.0047444
  endloop
 endfacet
 facet normal 0.780815 0.10221 -0.616345
  outer loop
   vertex 0.0153441 0.058104 -0.0035424
   vertex 0.0169342 0.0549055 -0.0020584
   vertex 0.0143344 0.0541671 -0.0054744
  endloop
 endfacet
 facet normal -0.424428 0.203073 -0.882396
  outer loop
   vertex 0.0087029 0.058104 -0.0051636
   vertex 0.0101806 0.0541671 -0.0067804
   vertex 0.0064729 0.0548511 -0.0048396
  endloop
 endfacet
 facet normal -0.985731 0.159989 -0.0523293
  outer loop
   vertex 0.0043005 0.058141 0.0009328
   vertex 0.0038955 0.0549231 -0.0012764
   vertex 0.0037135 0.0549205 0.002144
  endloop
 endfacet
 facet normal 0.147433 0.177495 0.973016
  outer loop
   vertex 0.0103401 0.055174 0.0059436
   vertex 0.0084459 0.058199 0.0056788
   vertex 0.0071905 0.057049 0.0060788
  endloop
 endfacet
 facet normal 0.162563 0.309008 0.937063
  outer loop
   vertex 0.0071905 0.057049 0.0060788
   vertex 0.0069685 0.056364 0.0063432
   vertex 0.0072193 0.055685 0.0065236
  endloop
 endfacet
 facet normal 0.383938 0.454268 0.803886
  outer loop
   vertex 0.0072193 0.055685 0.0065236
   vertex 0.0073083 0.055161 0.0067772
   vertex 0.0079281 0.0547405 0.0067188
  endloop
 endfacet
 facet normal 0.234928 0.328668 0.91476
  outer loop
   vertex 0.0079281 0.0547405 0.0067188
   vertex 0.0103401 0.055174 0.0059436
   vertex 0.0071905 0.057049 0.0060788
  endloop
 endfacet
 facet normal 0.153673 0.30928 0.938472
  outer loop
   vertex 0.0071905 0.057049 0.0060788
   vertex 0.0072193 0.055685 0.0065236
   vertex 0.0079281 0.0547405 0.0067188
  endloop
 endfacet
 facet normal 0.798033 0.122233 0.590086
  outer loop
   vertex 0.0153441 0.058147 0.0027432
   vertex 0.0143401 0.055041 0.0047444
   vertex 0.0169342 0.055032 0.001238
  endloop
 endfacet
 facet normal 0.423913 -0.682434 -0.595468
  outer loop
   vertex 0.0121203 0.0508352 -0.0058164
   vertex 0.0150529 0.0505135 -0.00336
   vertex 0.0112905 0.0481338 -0.0033112
  endloop
 endfacet
 facet normal -0.558978 -0.665229 -0.494989
  outer loop
   vertex 0.004975 0.0516563 -0.0034016
   vertex 0.0082731 0.0504047 -0.005444
   vertex 0.0070843 0.0487636 -0.001896
  endloop
 endfacet
 facet normal -0.700261 -0.629143 0.337361
  outer loop
   vertex 0.0051535 0.0517044 0.0034924
   vertex 0.0041026 0.0511659 0.000306798
   vertex 0.0071088 0.0489393 0.0023944
  endloop
 endfacet
 facet normal 0.0754561 -0.657523 0.749646
  outer loop
   vertex 0.0121404 0.0528737 0.005228
   vertex 0.00852 0.0520031 0.0048288
   vertex 0.0113017 0.0500225 0.0028116
  endloop
 endfacet
 facet normal 0.710327 -0.663659 0.234504
  outer loop
   vertex 0.0165753 0.0527663 -0.000746
   vertex 0.0150529 0.0523576 0.0027088
   vertex 0.0138903 0.0499062 -0.000707204
  endloop
 endfacet
 facet normal 0.518534 -0.752345 0.406324
  outer loop
   vertex 0.0138903 0.0499062 -0.000707204
   vertex 0.0113017 0.0500225 0.0028116
   vertex 0.0101281 0.0478023 0.0001984
  endloop
 endfacet
 facet normal 0.494422 -0.777117 0.389405
  outer loop
   vertex 0.0138903 0.0499062 -0.000707204
   vertex 0.0150529 0.0523576 0.0027088
   vertex 0.0113017 0.0500225 0.0028116
  endloop
 endfacet
 facet normal 0.424733 -0.654785 0.625186
  outer loop
   vertex 0.0150529 0.0523576 0.0027088
   vertex 0.0121404 0.0528737 0.005228
   vertex 0.0113017 0.0500225 0.0028116
  endloop
 endfacet
 facet normal 0.142819 -0.785003 0.602805
  outer loop
   vertex 0.0113017 0.0500225 0.0028116
   vertex 0.0071088 0.0489393 0.0023944
   vertex 0.0101281 0.0478023 0.0001984
  endloop
 endfacet
 facet normal 0.0910996 -0.644897 0.758821
  outer loop
   vertex 0.0113017 0.0500225 0.0028116
   vertex 0.00852 0.0520031 0.0048288
   vertex 0.0071088 0.0489393 0.0023944
  endloop
 endfacet
 facet normal -0.275847 -0.516867 0.810405
  outer loop
   vertex 0.00852 0.0520031 0.0048288
   vertex 0.0051535 0.0517044 0.0034924
   vertex 0.0071088 0.0489393 0.0023944
  endloop
 endfacet
 facet normal -0.32617 -0.944441 0.0405391
  outer loop
   vertex 0.0071088 0.0489393 0.0023944
   vertex 0.0070843 0.0487636 -0.001896
   vertex 0.0101281 0.0478023 0.0001984
  endloop
 endfacet
 facet normal -0.610777 -0.790989 0.0358802
  outer loop
   vertex 0.0071088 0.0489393 0.0023944
   vertex 0.0041026 0.0511659 0.000306798
   vertex 0.0070843 0.0487636 -0.001896
  endloop
 endfacet
 facet normal -0.713682 -0.652714 -0.254209
  outer loop
   vertex 0.0041026 0.0511659 0.000306798
   vertex 0.004975 0.0516563 -0.0034016
   vertex 0.0070843 0.0487636 -0.001896
  endloop
 endfacet
 facet normal -0.197664 -0.967637 -0.156866
  outer loop
   vertex 0.0070843 0.0487636 -0.001896
   vertex 0.0112905 0.0481338 -0.0033112
   vertex 0.0101281 0.0478023 0.0001984
  endloop
 endfacet
 facet normal -0.285572 -0.82978 -0.479493
  outer loop
   vertex 0.0070843 0.0487636 -0.001896
   vertex 0.0082731 0.0504047 -0.005444
   vertex 0.0112905 0.0481338 -0.0033112
  endloop
 endfacet
 facet normal 0.00529052 -0.680842 -0.732411
  outer loop
   vertex 0.0082731 0.0504047 -0.005444
   vertex 0.0121203 0.0508352 -0.0058164
   vertex 0.0112905 0.0481338 -0.0033112
  endloop
 endfacet
 facet normal 0.501813 -0.8608 0.0848964
  outer loop
   vertex 0.0112905 0.0481338 -0.0033112
   vertex 0.0138903 0.0499062 -0.000707204
   vertex 0.0101281 0.0478023 0.0001984
  endloop
 endfacet
 facet normal 0.534477 -0.844189 0.0409782
  outer loop
   vertex 0.0112905 0.0481338 -0.0033112
   vertex 0.0150529 0.0505135 -0.00336
   vertex 0.0138903 0.0499062 -0.000707204
  endloop
 endfacet
 facet normal 0.7206 -0.674294 0.161441
  outer loop
   vertex 0.0150529 0.0505135 -0.00336
   vertex 0.0165753 0.0527663 -0.000746
   vertex 0.0138903 0.0499062 -0.000707204
  endloop
 endfacet
 facet normal 0.848371 -0.418408 0.324348
  outer loop
   vertex 0.0169342 0.055032 0.001238
   vertex 0.0150529 0.0523576 0.0027088
   vertex 0.0165753 0.0527663 -0.000746
  endloop
 endfacet
 facet normal 0.781782 -0.231535 0.578971
  outer loop
   vertex 0.0169342 0.055032 0.001238
   vertex 0.0143401 0.055041 0.0047444
   vertex 0.0150529 0.0523576 0.0027088
  endloop
 endfacet
 facet normal 0.556801 -0.403061 0.726302
  outer loop
   vertex 0.0143401 0.055041 0.0047444
   vertex 0.0121404 0.0528737 0.005228
   vertex 0.0150529 0.0523576 0.0027088
  endloop
 endfacet
 facet normal -0.0282881 -0.317049 0.947987
  outer loop
   vertex 0.0103401 0.055174 0.0059436
   vertex 0.00852 0.0520031 0.0048288
   vertex 0.0121404 0.0528737 0.005228
  endloop
 endfacet
 facet normal 0.345422 -0.481472 0.805523
  outer loop
   vertex 0.00852 0.0520031 0.0048288
   vertex 0.0103401 0.055174 0.0059436
   vertex 0.0079281 0.0547405 0.0067188
  endloop
 endfacet
 facet normal 0.256979 -0.303251 0.917606
  outer loop
   vertex 0.0079281 0.0547405 0.0067188
   vertex 0.0072341 0.0541524 0.0067188
   vertex 0.0069613 0.0535799 0.006606
  endloop
 endfacet
 facet normal 0.573163 -0.466296 0.673834
  outer loop
   vertex 0.0069613 0.0535799 0.006606
   vertex 0.0068058 0.0531853 0.0064652
   vertex 0.0070581 0.0528567 0.0060232
  endloop
 endfacet
 facet normal 0.378022 -0.469266 0.798053
  outer loop
   vertex 0.0070581 0.0528567 0.0060232
   vertex 0.00852 0.0520031 0.0048288
   vertex 0.0079281 0.0547405 0.0067188
  endloop
 endfacet
 facet normal 0.513403 -0.495753 0.700461
  outer loop
   vertex 0.0079281 0.0547405 0.0067188
   vertex 0.0069613 0.0535799 0.006606
   vertex 0.0070581 0.0528567 0.0060232
  endloop
 endfacet
 facet normal -0.902794 -0.260868 0.341921
  outer loop
   vertex 0.0037135 0.0549205 0.002144
   vertex 0.0041026 0.0511659 0.000306798
   vertex 0.0051535 0.0517044 0.0034924
  endloop
 endfacet
 facet normal -0.995602 -0.0772261 -0.0530348
  outer loop
   vertex 0.0037135 0.0549205 0.002144
   vertex 0.0038955 0.0549231 -0.0012764
   vertex 0.0041026 0.0511659 0.000306798
  endloop
 endfacet
 facet normal -0.956661 -0.156273 -0.24572
  outer loop
   vertex 0.0038955 0.0549231 -0.0012764
   vertex 0.004975 0.0516563 -0.0034016
   vertex 0.0041026 0.0511659 0.000306798
  endloop
 endfacet
 facet normal -0.553537 -0.11193 -0.825269
  outer loop
   vertex 0.0064729 0.0548511 -0.0048396
   vertex 0.0082731 0.0504047 -0.005444
   vertex 0.004975 0.0516563 -0.0034016
  endloop
 endfacet
 facet normal -0.472962 -0.0721226 -0.878126
  outer loop
   vertex 0.0064729 0.0548511 -0.0048396
   vertex 0.0101806 0.0541671 -0.0067804
   vertex 0.0082731 0.0504047 -0.005444
  endloop
 endfacet
 facet normal -0.0574335 -0.308177 -0.949594
  outer loop
   vertex 0.0101806 0.0541671 -0.0067804
   vertex 0.0121203 0.0508352 -0.0058164
   vertex 0.0082731 0.0504047 -0.005444
  endloop
 endfacet
 facet normal 0.588905 -0.314937 -0.744316
  outer loop
   vertex 0.0143344 0.0541671 -0.0054744
   vertex 0.0150529 0.0505135 -0.00336
   vertex 0.0121203 0.0508352 -0.0058164
  endloop
 endfacet
 facet normal 0.801393 -0.173646 -0.572377
  outer loop
   vertex 0.0143344 0.0541671 -0.0054744
   vertex 0.0169342 0.0549055 -0.0020584
   vertex 0.0150529 0.0505135 -0.00336
  endloop
 endfacet
 facet normal 0.912874 -0.313547 -0.261438
  outer loop
   vertex 0.0169342 0.0549055 -0.0020584
   vertex 0.0165753 0.0527663 -0.000746
   vertex 0.0150529 0.0505135 -0.00336
  endloop
 endfacet
 facet normal 0.284073 -0.0750331 0.955862
  outer loop
   vertex 0.0143401 0.055041 0.0047444
   vertex 0.0103401 0.055174 0.0059436
   vertex 0.0121404 0.0528737 0.005228
  endloop
 endfacet
 facet normal 0.288249 0.16593 0.943069
  outer loop
   vertex 0.0143401 0.055041 0.0047444
   vertex 0.0120264 0.058692 0.0048092
   vertex 0.0103401 0.055174 0.0059436
  endloop
 endfacet
 facet normal 0.20318 0.210926 0.956153
  outer loop
   vertex 0.0120264 0.058692 0.0048092
   vertex 0.0084459 0.058199 0.0056788
   vertex 0.0103401 0.055174 0.0059436
  endloop
 endfacet
 facet normal -0.873839 0.302451 0.380696
  outer loop
   vertex 0.0056486 0.058722 0.0035656
   vertex 0.0043005 0.058141 0.0009328
   vertex 0.0037135 0.0549205 0.002144
  endloop
 endfacet
 facet normal -0.803858 0.114136 -0.583768
  outer loop
   vertex 0.0038955 0.0549231 -0.0012764
   vertex 0.0064729 0.0548511 -0.0048396
   vertex 0.004975 0.0516563 -0.0034016
  endloop
 endfacet
 facet normal -0.789478 0.213693 -0.575378
  outer loop
   vertex 0.0038955 0.0549231 -0.0012764
   vertex 0.0058332 0.058686 -0.0025376
   vertex 0.0064729 0.0548511 -0.0048396
  endloop
 endfacet
 facet normal -0.59745 0.337105 -0.727608
  outer loop
   vertex 0.0058332 0.058686 -0.0025376
   vertex 0.0087029 0.058104 -0.0051636
   vertex 0.0064729 0.0548511 -0.0048396
  endloop
 endfacet
 facet normal 0.298405 -0.100876 -0.949093
  outer loop
   vertex 0.0101806 0.0541671 -0.0067804
   vertex 0.0143344 0.0541671 -0.0054744
   vertex 0.0121203 0.0508352 -0.0058164
  endloop
 endfacet
 facet normal 0.295869 0.164107 -0.941026
  outer loop
   vertex 0.0101806 0.0541671 -0.0067804
   vertex 0.0120618 0.058613 -0.0054136
   vertex 0.0143344 0.0541671 -0.0054744
  endloop
 endfacet
 facet normal 0.508104 0.270907 -0.817581
  outer loop
   vertex 0.0120618 0.058613 -0.0054136
   vertex 0.0153441 0.058104 -0.0035424
   vertex 0.0143344 0.0541671 -0.0054744
  endloop
 endfacet
 facet normal 0.986812 -0.161752 0.00620707
  outer loop
   vertex 0.0169342 0.0549055 -0.0020584
   vertex 0.0169342 0.055032 0.001238
   vertex 0.0165753 0.0527663 -0.000746
  endloop
 endfacet
 facet normal 0.981966 0.188919 -0.00724959
  outer loop
   vertex 0.0169342 0.0549055 -0.0020584
   vertex 0.0162156 0.058686 -0.000876404
   vertex 0.0169342 0.055032 0.001238
  endloop
 endfacet
 facet normal 0.904427 0.332527 0.267278
  outer loop
   vertex 0.0162156 0.058686 -0.000876404
   vertex 0.0153441 0.058147 0.0027432
   vertex 0.0169342 0.055032 0.001238
  endloop
 endfacet
 facet normal 0.475319 0.651324 0.59148
  outer loop
   vertex 0.0131717 0.061011 0.0013352
   vertex 0.0120264 0.058692 0.0048092
   vertex 0.0153441 0.058147 0.0027432
  endloop
 endfacet
 facet normal 0.348239 0.722588 0.597156
  outer loop
   vertex 0.0131717 0.061011 0.0013352
   vertex 0.0090248 0.061003 0.0037632
   vertex 0.0120264 0.058692 0.0048092
  endloop
 endfacet
 facet normal 0.127281 0.541459 0.831036
  outer loop
   vertex 0.0090248 0.061003 0.0037632
   vertex 0.0084459 0.058199 0.0056788
   vertex 0.0120264 0.058692 0.0048092
  endloop
 endfacet
 facet normal -0.425448 0.568742 0.703936
  outer loop
   vertex 0.0090248 0.061003 0.0037632
   vertex 0.0056486 0.058722 0.0035656
   vertex 0.0084459 0.058199 0.0056788
  endloop
 endfacet
 facet normal -0.530609 0.751398 0.392243
  outer loop
   vertex 0.0090248 0.061003 0.0037632
   vertex 0.0069385 0.061006 0.000935196
   vertex 0.0056486 0.058722 0.0035656
  endloop
 endfacet
 facet normal -0.717448 0.660418 0.221622
  outer loop
   vertex 0.0069385 0.061006 0.000935196
   vertex 0.0043005 0.058141 0.0009328
   vertex 0.0056486 0.058722 0.0035656
  endloop
 endfacet
 facet normal -0.718609 0.661851 -0.213434
  outer loop
   vertex 0.0069385 0.061006 0.000935196
   vertex 0.0058332 0.058686 -0.0025376
   vertex 0.0043005 0.058141 0.0009328
  endloop
 endfacet
 facet normal -0.503676 0.783787 -0.363301
  outer loop
   vertex 0.0069385 0.061006 0.000935196
   vertex 0.0095167 0.061011 -0.0026284
   vertex 0.0058332 0.058686 -0.0025376
  endloop
 endfacet
 facet normal -0.430918 0.658613 -0.616878
  outer loop
   vertex 0.0095167 0.061011 -0.0026284
   vertex 0.0087029 0.058104 -0.0051636
   vertex 0.0058332 0.058686 -0.0025376
  endloop
 endfacet
 facet normal 0.69999 0.662299 0.267161
  outer loop
   vertex 0.0162156 0.058686 -0.000876404
   vertex 0.0131717 0.061011 0.0013352
   vertex 0.0153441 0.058147 0.0027432
  endloop
 endfacet
 facet normal 0.609232 0.792977 0.00487104
  outer loop
   vertex 0.0162156 0.058686 -0.000876404
   vertex 0.0131982 0.061011 -0.0019792
   vertex 0.0131717 0.061011 0.0013352
  endloop
 endfacet
 facet normal 0.351165 0.936309 0.00280769
  outer loop
   vertex 0.0131982 0.061011 -0.0019792
   vertex 0.0101909 0.062132 0.00032
   vertex 0.0131717 0.061011 0.0013352
  endloop
 endfacet
 facet normal -0.155854 0.673657 -0.722423
  outer loop
   vertex 0.0095167 0.061011 -0.0026284
   vertex 0.0120618 0.058613 -0.0054136
   vertex 0.0087029 0.058104 -0.0051636
  endloop
 endfacet
 facet normal 0.104458 0.798873 -0.59236
  outer loop
   vertex 0.0095167 0.061011 -0.0026284
   vertex 0.0131982 0.061011 -0.0019792
   vertex 0.0120618 0.058613 -0.0054136
  endloop
 endfacet
 facet normal 0.447751 0.656793 -0.606747
  outer loop
   vertex 0.0131982 0.061011 -0.0019792
   vertex 0.0153441 0.058104 -0.0035424
   vertex 0.0120618 0.058613 -0.0054136
  endloop
 endfacet
 facet normal -0.0890541 -0.933657 0.346921
  outer loop
   vertex 0.0052889 0.0521903 0.0049616
   vertex 0.0055936 0.0522574 0.0052204
   vertex 0.0051029 0.0523155 0.0052508
  endloop
 endfacet
 facet normal -0.897886 0.27394 -0.344611
  outer loop
   vertex 0.0037135 0.0549205 0.002144
   vertex 0.0033507 0.0548258 0.003014
   vertex 0.0033158 0.055119 0.003338
  endloop
 endfacet
 facet normal -0.913428 0.221965 -0.341147
  outer loop
   vertex 0.0037135 0.0549205 0.002144
   vertex 0.0033158 0.055119 0.003338
   vertex 0.0035102 0.055836 0.003284
  endloop
 endfacet
 facet normal -0.862608 0.488395 -0.131824
  outer loop
   vertex 0.0050634 0.05792 0.0044236
   vertex 0.0056486 0.058722 0.0035656
   vertex 0.0037135 0.0549205 0.002144
  endloop
 endfacet
 facet normal -0.583064 0.769826 -0.259624
  outer loop
   vertex 0.0040384 0.056891 0.0036744
   vertex 0.0044721 0.057419 0.004266
   vertex 0.0050634 0.05792 0.0044236
  endloop
 endfacet
 facet normal -0.78271 0.409652 -0.468561
  outer loop
   vertex 0.0037135 0.0549205 0.002144
   vertex 0.0035102 0.055836 0.003284
   vertex 0.0037366 0.056404 0.0034024
  endloop
 endfacet
 facet normal 0.398027 0.246818 -0.883547
  outer loop
   vertex 0.0037366 0.056404 0.0034024
   vertex 0.0040384 0.056891 0.0036744
   vertex 0.0050634 0.05792 0.0044236
  endloop
 endfacet
 facet normal -0.152875 0.640659 -0.752453
  outer loop
   vertex 0.0037366 0.056404 0.0034024
   vertex 0.0050634 0.05792 0.0044236
   vertex 0.0037135 0.0549205 0.002144
  endloop
 endfacet
 facet normal -0.00606997 0.829616 0.558301
  outer loop
   vertex 0.0052437 0.05767 0.0051956
   vertex 0.0062033 0.057354 0.0056756
   vertex 0.0063274 0.057507 0.0054496
  endloop
 endfacet
 facet normal 0.019877 0.877838 0.478544
  outer loop
   vertex 0.0063274 0.057507 0.0054496
   vertex 0.0056129 0.057736 0.0050592
   vertex 0.0052437 0.05767 0.0051956
  endloop
 endfacet
 facet normal 0.108975 -0.740811 0.662814
  outer loop
   vertex 0.00852 0.0520031 0.0048288
   vertex 0.0070581 0.0528567 0.0060232
   vertex 0.0061713 0.0525992 0.0058812
  endloop
 endfacet
 facet normal 0.520626 -0.743181 -0.420275
  outer loop
   vertex 0.0055936 0.0522574 0.0052204
   vertex 0.0052889 0.0521903 0.0049616
   vertex 0.004892 0.0521785 0.0044908
  endloop
 endfacet
 facet normal -0.0139808 -0.88309 0.468996
  outer loop
   vertex 0.00852 0.0520031 0.0048288
   vertex 0.0061713 0.0525992 0.0058812
   vertex 0.0055936 0.0522574 0.0052204
  endloop
 endfacet
 facet normal -0.0821057 -0.908439 0.409875
  outer loop
   vertex 0.004892 0.0521785 0.0044908
   vertex 0.0051535 0.0517044 0.0034924
   vertex 0.00852 0.0520031 0.0048288
  endloop
 endfacet
 facet normal -0.0631384 -0.983913 0.167119
  outer loop
   vertex 0.0055936 0.0522574 0.0052204
   vertex 0.004892 0.0521785 0.0044908
   vertex 0.00852 0.0520031 0.0048288
  endloop
 endfacet
 facet normal -0.695132 0.627095 -0.351487
  outer loop
   vertex 0.0040384 0.056891 0.0036744
   vertex 0.0037366 0.056404 0.0034024
   vertex 0.0034906 0.056373 0.0038336
  endloop
 endfacet
 facet normal -0.670366 -0.72284 0.167666
  outer loop
   vertex 0.0051535 0.0517044 0.0034924
   vertex 0.004892 0.0521785 0.0044908
   vertex 0.0044108 0.0525549 0.0041896
  endloop
 endfacet
 facet normal -0.749574 -0.66186 0.00889962
  outer loop
   vertex 0.0051535 0.0517044 0.0034924
   vertex 0.0044108 0.0525549 0.0041896
   vertex 0.0041228 0.0528769 0.0038796
  endloop
 endfacet
 facet normal -0.77528 -0.505759 -0.378351
  outer loop
   vertex 0.0033507 0.0548258 0.003014
   vertex 0.0037135 0.0549205 0.002144
   vertex 0.0051535 0.0517044 0.0034924
  endloop
 endfacet
 facet normal -0.380663 -0.404191 -0.8317
  outer loop
   vertex 0.0036579 0.0536311 0.003454
   vertex 0.0034422 0.0542071 0.0032728
   vertex 0.0033507 0.0548258 0.003014
  endloop
 endfacet
 facet normal -0.767442 -0.600217 -0.225328
  outer loop
   vertex 0.0051535 0.0517044 0.0034924
   vertex 0.0041228 0.0528769 0.0038796
   vertex 0.0036579 0.0536311 0.003454
  endloop
 endfacet
 facet normal -0.508322 -0.409681 -0.757476
  outer loop
   vertex 0.0036579 0.0536311 0.003454
   vertex 0.0033507 0.0548258 0.003014
   vertex 0.0051535 0.0517044 0.0034924
  endloop
 endfacet
 facet normal 0.124826 0.61328 0.77994
  outer loop
   vertex 0.0066828 0.057233 0.005694
   vertex 0.0065567 0.057395 0.0055868
   vertex 0.0062033 0.057354 0.0056756
  endloop
 endfacet
 facet normal 0.119742 -0.762802 0.635449
  outer loop
   vertex 0.0061713 0.0525992 0.0058812
   vertex 0.0070581 0.0528567 0.0060232
   vertex 0.0068058 0.0531853 0.0064652
  endloop
 endfacet
 facet normal 0.145909 -0.773064 0.617319
  outer loop
   vertex 0.0068058 0.0531853 0.0064652
   vertex 0.005642 0.0528152 0.0062768
   vertex 0.0061713 0.0525992 0.0058812
  endloop
 endfacet
 facet normal 0.16875 0.310841 0.935361
  outer loop
   vertex 0.0072193 0.055685 0.0065236
   vertex 0.0069685 0.056364 0.0063432
   vertex 0.0059599 0.056335 0.0065348
  endloop
 endfacet
 facet normal 0.142086 0.258834 0.955414
  outer loop
   vertex 0.0059599 0.056335 0.0065348
   vertex 0.0067349 0.055003 0.0067804
   vertex 0.0072193 0.055685 0.0065236
  endloop
 endfacet
 facet normal 0.0510616 0.813767 0.578944
  outer loop
   vertex 0.0065567 0.057395 0.0055868
   vertex 0.0063274 0.057507 0.0054496
   vertex 0.0062033 0.057354 0.0056756
  endloop
 endfacet
 facet normal -0.812979 -0.428484 -0.394293
  outer loop
   vertex 0.0034422 0.0542071 0.0032728
   vertex 0.0036579 0.0536311 0.003454
   vertex 0.0033921 0.0537769 0.0038436
  endloop
 endfacet
 facet normal -0.110082 0.417775 0.901857
  outer loop
   vertex 0.0073083 0.055161 0.0067772
   vertex 0.0072193 0.055685 0.0065236
   vertex 0.0067349 0.055003 0.0067804
  endloop
 endfacet
 facet normal -0.0277338 -0.326219 0.944887
  outer loop
   vertex 0.0068058 0.0531853 0.0064652
   vertex 0.0069613 0.0535799 0.006606
   vertex 0.0060118 0.053846 0.00667
  endloop
 endfacet
 facet normal -0.0429874 -0.342572 0.938507
  outer loop
   vertex 0.0060118 0.053846 0.00667
   vertex 0.005642 0.0528152 0.0062768
   vertex 0.0068058 0.0531853 0.0064652
  endloop
 endfacet
 facet normal -0.0114932 -0.884022 0.467304
  outer loop
   vertex 0.0055936 0.0522574 0.0052204
   vertex 0.0061713 0.0525992 0.0058812
   vertex 0.005642 0.0528152 0.0062768
  endloop
 endfacet
 facet normal -0.075225 -0.880365 0.468293
  outer loop
   vertex 0.005642 0.0528152 0.0062768
   vertex 0.0051029 0.0523155 0.0052508
   vertex 0.0055936 0.0522574 0.0052204
  endloop
 endfacet
 facet normal 0.0521586 -0.0615504 0.99674
  outer loop
   vertex 0.0072341 0.0541524 0.0067188
   vertex 0.0079281 0.0547405 0.0067188
   vertex 0.0073083 0.055161 0.0067772
  endloop
 endfacet
 facet normal 0.0219368 -0.0593997 0.997993
  outer loop
   vertex 0.0073083 0.055161 0.0067772
   vertex 0.0067349 0.055003 0.0067804
   vertex 0.0072341 0.0541524 0.0067188
  endloop
 endfacet
endsolid ExportedfromBlender-2.79(sub0)
