solid ExportedfromBlender-2.79(sub0)
  facet normal 0.17725004 0.96200524 0.20767364
    outer loop
       vertex 0.0420117 0.0030619179 -0.013141099
       vertex 0.042354039 0.0030243298 -0.013259167
       vertex 0.042074427 0.003123874 -0.013481635
    endloop
  endfacet
  facet normal -0.20681446 0.96858103 0.13812516
    outer loop
       vertex 0.040825325 0.002841135 -0.013369249
       vertex 0.0420117 0.0030619179 -0.013141099
       vertex 0.042074427 0.003123874 -0.013481635
    endloop
  endfacet
  facet normal -0.47409828 0.77322836 0.42112791
    outer loop
       vertex 0.042074427 0.003123874 -0.013481635
       vertex 0.041913051 0.0032375516 -0.013872032
       vertex 0.041280019 0.0029098659 -0.013983027
    endloop
  endfacet
  facet normal -0.22536173 0.97254453 -0.058044975
    outer loop
       vertex 0.042074427 0.003123874 -0.013481635
       vertex 0.041280019 0.0029098659 -0.013983027
       vertex 0.040825325 0.002841135 -0.013369249
    endloop
  endfacet
  facet normal -0.23191007 0.92015705 0.31548174
    outer loop
       vertex 0.0420117 0.0030619179 -0.013141099
       vertex 0.040825325 0.002841135 -0.013369249
       vertex 0.041623062 0.0027398764 -0.012487496
    endloop
  endfacet
  facet normal 0.15055549 0.8483773 0.50753227
    outer loop
       vertex 0.0420117 0.0030619179 -0.013141099
       vertex 0.041623062 0.0027398764 -0.012487496
       vertex 0.042787425 0.0026256555 -0.012641967
    endloop
  endfacet
  facet normal -0.87429731 0.40410565 -0.26889189
    outer loop
       vertex 0.039933812 0.0020884057 -0.013596106
       vertex 0.040183096 0.0021593589 -0.014300015
       vertex 0.039539556 0.0010725071 -0.01384094
    endloop
  endfacet
  facet normal -0.40949265 0.59978133 0.68744318
    outer loop
       vertex 0.041177636 0.001964276 -0.011964207
       vertex 0.040448406 0.0022368997 -0.01263645
       vertex 0.040324254 0.0011146543 -0.011731266
    endloop
  endfacet
  facet normal -0.92011234 0.37996805 -0.094960877
    outer loop
       vertex 0.039933812 0.0020884057 -0.013596106
       vertex 0.039539556 0.0010725071 -0.01384094
       vertex 0.039490718 0.0011870543 -0.012909387
    endloop
  endfacet
  facet normal -0.09266387 0.34876921 0.93261645
    outer loop
       vertex 0.041177636 0.001964276 -0.011964207
       vertex 0.040324254 0.0011146543 -0.011731266
       vertex 0.041501217 0.00084704418 -0.011514246
    endloop
  endfacet
  facet normal -0.86494166 -0.44482649 -0.23239045
    outer loop
       vertex 0.039520915 -0.00010022377 -0.014027705
       vertex 0.039726737 -0.00032847997 -0.014356849
       vertex 0.039968 -0.0010475415 -0.013878432
    endloop
  endfacet
  facet normal -0.88859697 -0.43986506 -0.13005441
    outer loop
       vertex 0.039968 -0.0010475415 -0.013878432
       vertex 0.03990461 -0.0010799795 -0.013335612
       vertex 0.039520915 -0.00010022377 -0.014027705
    endloop
  endfacet
  facet normal -0.88638981 -0.13326798 0.4433427
    outer loop
       vertex 0.039711545 4.8469401e-05 -0.012207829
       vertex 0.039378411 -0.00013987532 -0.01293049
       vertex 0.039950615 -0.0010164138 -0.012049951
    endloop
  endfacet
  facet normal -0.091652617 -0.23466762 0.96774527
    outer loop
       vertex 0.041833785 -0.0003090958 -0.011387394
       vertex 0.040542736 -0.00026211823 -0.011498274
       vertex 0.041281163 -0.0011764701 -0.01165006
    endloop
  endfacet
  facet normal -0.26090893 -0.79281302 0.55079401
    outer loop
       vertex 0.041281163 -0.0011764701 -0.01165006
       vertex 0.039950615 -0.0010164138 -0.012049951
       vertex 0.040700973 -0.0016080491 -0.012546109
    endloop
  endfacet
  facet normal -0.30771461 -0.3924003 0.86679509
    outer loop
       vertex 0.041281163 -0.0011764701 -0.01165006
       vertex 0.040542736 -0.00026211823 -0.011498274
       vertex 0.039950615 -0.0010164138 -0.012049951
    endloop
  endfacet
  facet normal -0.65652966 -0.035686528 0.75345556
    outer loop
       vertex 0.040542736 -0.00026211823 -0.011498274
       vertex 0.039711545 4.8469401e-05 -0.012207829
       vertex 0.039950615 -0.0010164138 -0.012049951
    endloop
  endfacet
  facet normal -0.59286059 -0.80299786 0.060916008
    outer loop
       vertex 0.039950615 -0.0010164138 -0.012049951
       vertex 0.03990461 -0.0010799795 -0.013335612
       vertex 0.040700973 -0.0016080491 -0.012546109
    endloop
  endfacet
  facet normal -0.86080514 -0.50586503 0.055812979
    outer loop
       vertex 0.039950615 -0.0010164138 -0.012049951
       vertex 0.039378411 -0.00013987532 -0.01293049
       vertex 0.03990461 -0.0010799795 -0.013335612
    endloop
  endfacet
  facet normal -0.88809375 -0.44052183 -0.13126315
    outer loop
       vertex 0.039378411 -0.00013987532 -0.01293049
       vertex 0.039520915 -0.00010022377 -0.014027705
       vertex 0.03990461 -0.0010799795 -0.013335612
    endloop
  endfacet
  facet normal -0.66396539 -0.72447653 0.18515861
    outer loop
       vertex 0.040700973 -0.0016080491 -0.012546109
       vertex 0.03990461 -0.0010799795 -0.013335612
       vertex 0.040149291 -0.0013602908 -0.01355499
    endloop
  endfacet
  facet normal -0.77585691 -0.1585285 0.61066748
    outer loop
       vertex 0.040149291 -0.0013602908 -0.01355499
       vertex 0.040489566 -0.0017641642 -0.013227512
       vertex 0.040839963 -0.0017900496 -0.012789051
    endloop
  endfacet
  facet normal -0.65392442 -0.73557764 0.17694176
    outer loop
       vertex 0.040149291 -0.0013602908 -0.01355499
       vertex 0.040839963 -0.0017900496 -0.012789051
       vertex 0.040700973 -0.0016080491 -0.012546109
    endloop
  endfacet
  facet normal -0.79469558 -0.59330332 -0.12825797
    outer loop
       vertex 0.03990461 -0.0010799795 -0.013335612
       vertex 0.039968 -0.0010475415 -0.013878432
       vertex 0.040149291 -0.0013602908 -0.01355499
    endloop
  endfacet
  facet normal -0.0029056599 -0.0030988661 0.99999098
    outer loop
       vertex 0.042729019 0.00056107875 -0.011382096
       vertex 0.041833785 -0.0003090958 -0.011387394
       vertex 0.042615608 -0.00075790171 -0.011386513
    endloop
  endfacet
  facet normal -0.15338296 0.009879514 0.98811743
    outer loop
       vertex 0.042615608 -0.00075790171 -0.011386513
       vertex 0.042982984 -0.00030223554 -0.011334042
       vertex 0.042729019 0.00056107875 -0.011382096
    endloop
  endfacet
  facet normal -0.082175081 0.085310063 0.99295994
    outer loop
       vertex 0.041501217 0.00084704418 -0.011514246
       vertex 0.040542736 -0.00026211823 -0.011498274
       vertex 0.041833785 -0.0003090958 -0.011387394
    endloop
  endfacet
  facet normal -0.14814878 0.14211581 0.97870069
    outer loop
       vertex 0.041501217 0.00084704418 -0.011514246
       vertex 0.040324254 0.0011146543 -0.011731266
       vertex 0.040542736 -0.00026211823 -0.011498274
    endloop
  endfacet
  facet normal -0.64306126 0.027467068 0.76532201
    outer loop
       vertex 0.040324254 0.0011146543 -0.011731266
       vertex 0.039711545 4.8469401e-05 -0.012207829
       vertex 0.040542736 -0.00026211823 -0.011498274
    endloop
  endfacet
  facet normal -0.91276195 0.070855127 0.40229985
    outer loop
       vertex 0.039490718 0.0011870543 -0.012909387
       vertex 0.039378411 -0.00013987532 -0.01293049
       vertex 0.039711545 4.8469401e-05 -0.012207829
    endloop
  endfacet
  facet normal -0.99439868 0.085158327 -0.062604571
    outer loop
       vertex 0.039490718 0.0011870543 -0.012909387
       vertex 0.039539556 0.0010725071 -0.01384094
       vertex 0.039378411 -0.00013987532 -0.01293049
    endloop
  endfacet
  facet normal -0.9911921 0.036050314 -0.12743076
    outer loop
       vertex 0.039539556 0.0010725071 -0.01384094
       vertex 0.039520915 -0.00010022377 -0.014027705
       vertex 0.039378411 -0.00013987532 -0.01293049
    endloop
  endfacet
  facet normal -0.087323761 0.08379496 0.99264947
    outer loop
       vertex 0.042729019 0.00056107875 -0.011382096
       vertex 0.041501217 0.00084704418 -0.011514246
       vertex 0.041833785 -0.0003090958 -0.011387394
    endloop
  endfacet
  facet normal -0.040741731 0.26967398 0.96208942
    outer loop
       vertex 0.042729019 0.00056107875 -0.011382096
       vertex 0.042340128 0.0018760415 -0.011767149
       vertex 0.041501217 0.00084704418 -0.011514246
    endloop
  endfacet
  facet normal -0.13242439 0.33705559 0.93212516
    outer loop
       vertex 0.042340128 0.0018760415 -0.011767149
       vertex 0.041177636 0.001964276 -0.011964207
       vertex 0.041501217 0.00084704418 -0.011514246
    endloop
  endfacet
  facet normal -0.79406411 0.19972403 0.57408406
    outer loop
       vertex 0.040324254 0.0011146543 -0.011731266
       vertex 0.039490718 0.0011870543 -0.012909387
       vertex 0.039711545 4.8469401e-05 -0.012207829
    endloop
  endfacet
  facet normal -0.69359366 0.49718687 0.5212802
    outer loop
       vertex 0.040324254 0.0011146543 -0.011731266
       vertex 0.040448406 0.0022368997 -0.01263645
       vertex 0.039490718 0.0011870543 -0.012909387
    endloop
  endfacet
  facet normal -0.74169929 0.59721788 0.30530798
    outer loop
       vertex 0.040448406 0.0022368997 -0.01263645
       vertex 0.039933812 0.0020884057 -0.013596106
       vertex 0.039490718 0.0011870543 -0.012909387
    endloop
  endfacet
  facet normal -0.96237592 0.05758846 -0.26554877
    outer loop
       vertex 0.039520915 -0.00010022377 -0.014027705
       vertex 0.039539556 0.0010725071 -0.01384094
       vertex 0.039754371 0.0010420478 -0.014626054
    endloop
  endfacet
  facet normal -0.99431405 0.1064732 -0.0017418579
    outer loop
       vertex 0.039754371 0.0010420478 -0.014626054
       vertex 0.039722653 0.00074155591 -0.014888274
       vertex 0.039664732 0.00020558279 -0.014587288
    endloop
  endfacet
  facet normal -0.97543372 0.095326619 -0.19859984
    outer loop
       vertex 0.039754371 0.0010420478 -0.014626054
       vertex 0.039664732 0.00020558279 -0.014587288
       vertex 0.039520915 -0.00010022377 -0.014027705
    endloop
  endfacet
  facet normal -0.87255183 0.39555637 -0.2866853
    outer loop
       vertex 0.039539556 0.0010725071 -0.01384094
       vertex 0.040183096 0.0021593589 -0.014300015
       vertex 0.040085544 0.0016237644 -0.0147421
    endloop
  endfacet
  facet normal -0.86162625 0.44009208 -0.25282242
    outer loop
       vertex 0.040085544 0.0016237644 -0.0147421
       vertex 0.039754371 0.0010420478 -0.014626054
       vertex 0.039539556 0.0010725071 -0.01384094
    endloop
  endfacet
  facet normal -0.67710101 0.537868 -0.50222728
    outer loop
       vertex 0.040183096 0.0021593589 -0.014300015
       vertex 0.040410731 0.0020858907 -0.014685594
       vertex 0.040085544 0.0016237644 -0.0147421
    endloop
  endfacet
  facet normal 0.268308 0.6594391 0.70224703
    outer loop
       vertex 0.043184782 0.0024160147 -0.012596924
       vertex 0.042787425 0.0026256555 -0.012641967
       vertex 0.042340128 0.0018760415 -0.011767149
    endloop
  endfacet
  facet normal 0.23101262 0.36547431 0.90169934
    outer loop
       vertex 0.042340128 0.0018760415 -0.011767149
       vertex 0.043240496 0.0016597878 -0.01191017
       vertex 0.043590564 0.0021847057 -0.012212614
    endloop
  endfacet
  facet normal -0.019961758 0.8471582 0.53096564
    outer loop
       vertex 0.042340128 0.0018760415 -0.011767149
       vertex 0.043590564 0.0021847057 -0.012212614
       vertex 0.043184782 0.0024160147 -0.012596924
    endloop
  endfacet
  facet normal 0.16070826 0.70738577 0.6883155
    outer loop
       vertex 0.042787425 0.0026256555 -0.012641967
       vertex 0.041623062 0.0027398764 -0.012487496
       vertex 0.042340128 0.0018760415 -0.011767149
    endloop
  endfacet
  facet normal -0.090757862 0.59228111 0.80060358
    outer loop
       vertex 0.041623062 0.0027398764 -0.012487496
       vertex 0.041177636 0.001964276 -0.011964207
       vertex 0.042340128 0.0018760415 -0.011767149
    endloop
  endfacet
  facet normal -0.36456126 0.65555314 0.66132078
    outer loop
       vertex 0.041623062 0.0027398764 -0.012487496
       vertex 0.040448406 0.0022368997 -0.01263645
       vertex 0.041177636 0.001964276 -0.011964207
    endloop
  endfacet
  facet normal -0.39889612 0.79758564 0.45248098
    outer loop
       vertex 0.041623062 0.0027398764 -0.012487496
       vertex 0.040825325 0.002841135 -0.013369249
       vertex 0.040448406 0.0022368997 -0.01263645
    endloop
  endfacet
  facet normal -0.66111339 0.70923957 0.24476176
    outer loop
       vertex 0.040825325 0.002841135 -0.013369249
       vertex 0.039933812 0.0020884057 -0.013596106
       vertex 0.040448406 0.0022368997 -0.01263645
    endloop
  endfacet
  facet normal -0.61756429 0.7738325 -0.14070399
    outer loop
       vertex 0.040825325 0.002841135 -0.013369249
       vertex 0.040183096 0.0021593589 -0.014300015
       vertex 0.039933812 0.0020884057 -0.013596106
    endloop
  endfacet
  facet normal -0.47523339 0.84122686 -0.25785771
    outer loop
       vertex 0.040825325 0.002841135 -0.013369249
       vertex 0.041280019 0.0029098659 -0.013983027
       vertex 0.040783724 0.002477407 -0.014479192
    endloop
  endfacet
  facet normal -0.51035048 0.82268439 -0.25046514
    outer loop
       vertex 0.040783724 0.002477407 -0.014479192
       vertex 0.040183096 0.0021593589 -0.014300015
       vertex 0.040825325 0.002841135 -0.013369249
    endloop
  endfacet
  facet normal 0.29103137 0.83499973 -0.46698629
    outer loop
       vertex 0.047413712 0.0053753162 -0.017851499
       vertex 0.04984378 0.0034837196 -0.019719341
       vertex 0.046590537 0.004220311 -0.02042973
    endloop
  endfacet
  facet normal 0.79497425 0.44898841 -0.40795263
    outer loop
       vertex 0.051110589 0.00028998182 -0.020765713
       vertex 0.04984378 0.0034837196 -0.019719341
       vertex 0.051991054 0.00089743074 -0.018381405
    endloop
  endfacet
  facet normal -0.12874576 0.91970288 -0.37090584
    outer loop
       vertex 0.047413712 0.0053753162 -0.017851499
       vertex 0.046590537 0.004220311 -0.02042973
       vertex 0.044281669 0.0051646498 -0.017286701
    endloop
  endfacet
  facet normal -0.050037246 0.99436898 0.093416284
    outer loop
       vertex 0.047413712 0.0053753162 -0.017851499
       vertex 0.044281669 0.0051646498 -0.017286701
       vertex 0.046106478 0.0050092616 -0.014655235
    endloop
  endfacet
  facet normal 0.42450639 0.86344397 0.27250473
    outer loop
       vertex 0.047413712 0.0053753162 -0.017851499
       vertex 0.046106478 0.0050092616 -0.014655235
       vertex 0.049795944 0.0038462991 -0.016717764
    endloop
  endfacet
  facet normal 0.93684054 0.013857278 -0.34948216
    outer loop
       vertex 0.051110589 0.00028998182 -0.020765713
       vertex 0.051991054 0.00089743074 -0.018381405
       vertex 0.051798635 -0.0027099488 -0.019040251
    endloop
  endfacet
  facet normal -0.027578281 0.24454864 -0.96924476
    outer loop
       vertex 0.045245249 0.001570299 -0.022454934
       vertex 0.0483325 0.0012556763 -0.022622159
       vertex 0.045693115 -0.0023878925 -0.023466363
    endloop
  endfacet
  facet normal -0.76708566 0.4994371 -0.40266881
    outer loop
       vertex 0.041312757 0.0032240901 -0.017082422
       vertex 0.042815157 0.0029929943 -0.020231131
       vertex 0.040257905 0.00024594483 -0.018766768
    endloop
  endfacet
  facet normal -0.21708144 0.79128453 0.57161564
    outer loop
       vertex 0.043590564 0.0021847057 -0.012212614
       vertex 0.044959026 0.0028770022 -0.012651258
       vertex 0.042615052 0.0037228054 -0.014712266
    endloop
  endfacet
  facet normal -0.20917028 0.91228714 0.35210789
    outer loop
       vertex 0.042615052 0.0037228054 -0.014712266
       vertex 0.041913051 0.0032375516 -0.013872032
       vertex 0.042074427 0.003123874 -0.013481635
    endloop
  endfacet
  facet normal -0.020875978 0.90254638 0.4300863
    outer loop
       vertex 0.042615052 0.0037228054 -0.014712266
       vertex 0.042074427 0.003123874 -0.013481635
       vertex 0.042354039 0.0030243298 -0.013259167
    endloop
  endfacet
  facet normal -0.017139646 0.84855634 0.52882736
    outer loop
       vertex 0.043184782 0.0024160147 -0.012596924
       vertex 0.043590564 0.0021847057 -0.012212614
       vertex 0.042615052 0.0037228054 -0.014712266
    endloop
  endfacet
  facet normal 0.89359027 0.44745748 0.035752241
    outer loop
       vertex 0.043109948 0.0025748878 -0.012714898
       vertex 0.043184782 0.0024160147 -0.012596924
       vertex 0.042615052 0.0037228054 -0.014712266
    endloop
  endfacet
  facet normal 0.16581053 0.8768491 0.45126769
    outer loop
       vertex 0.042615052 0.0037228054 -0.014712266
       vertex 0.042354039 0.0030243298 -0.013259167
       vertex 0.042932777 0.0027085726 -0.012858273
    endloop
  endfacet
  facet normal 0.30974887 0.8555072 0.41492537
    outer loop
       vertex 0.042615052 0.0037228054 -0.014712266
       vertex 0.042932777 0.0027085726 -0.012858273
       vertex 0.043109948 0.0025748878 -0.012714898
    endloop
  endfacet
  facet normal 0.59464857 0.27765701 0.75451949
    outer loop
       vertex 0.051073913 0.0010045612 -0.015076133
       vertex 0.048243245 0.0024324506 -0.013370691
       vertex 0.049482923 -0.0012901649 -0.012977808
    endloop
  endfacet
  facet normal 0.78721693 -0.16172608 -0.59509174
    outer loop
       vertex 0.051110589 0.00028998182 -0.020765713
       vertex 0.051798635 -0.0027099488 -0.019040251
       vertex 0.049359499 -0.0031572465 -0.022145301
    endloop
  endfacet
  facet normal -0.35530556 0.19347968 -0.91450729
    outer loop
       vertex 0.045245249 0.001570299 -0.022454934
       vertex 0.045693115 -0.0023878925 -0.023466363
       vertex 0.042549098 -0.00076550964 -0.021901603
    endloop
  endfacet
  facet normal -0.9169699 0.38465695 -0.10585479
    outer loop
       vertex 0.041312757 0.0032240901 -0.017082422
       vertex 0.040257905 0.00024594483 -0.018766768
       vertex 0.040071101 0.00065172039 -0.015674067
    endloop
  endfacet
  facet normal 0.17830302 0.25046596 0.95156441
    outer loop
       vertex 0.045963618 -0.00016812684 -0.012037973
       vertex 0.044959026 0.0028770022 -0.012651258
       vertex 0.043590564 0.0021847057 -0.012212614
    endloop
  endfacet
  facet normal 0.22513074 0.36934532 0.90160977
    outer loop
       vertex 0.043590564 0.0021847057 -0.012212614
       vertex 0.043240496 0.0016597878 -0.01191017
       vertex 0.043310801 0.0010275645 -0.011668734
    endloop
  endfacet
  facet normal 0.47562186 0.44008756 0.76164741
    outer loop
       vertex 0.043310801 0.0010275645 -0.011668734
       vertex 0.043271498 0.0005741093 -0.011382179
       vertex 0.043727384 6.2688274e-05 -0.01137136
    endloop
  endfacet
  facet normal 0.30030324 0.36819646 0.87991439
    outer loop
       vertex 0.043727384 6.2688274e-05 -0.01137136
       vertex 0.045963618 -0.00016812684 -0.012037973
       vertex 0.043590564 0.0021847057 -0.012212614
    endloop
  endfacet
  facet normal 0.21686631 0.37181767 0.90261876
    outer loop
       vertex 0.043590564 0.0021847057 -0.012212614
       vertex 0.043310801 0.0010275645 -0.011668734
       vertex 0.043727384 6.2688274e-05 -0.01137136
    endloop
  endfacet
  facet normal 0.79905525 -0.0042211819 0.60124279
    outer loop
       vertex 0.051073913 0.0010045612 -0.015076133
       vertex 0.049482923 -0.0012901649 -0.012977808
       vertex 0.051802381 -0.0022439748 -0.016067079
    endloop
  endfacet
  facet normal 0.25037375 -0.8296046 -0.49906833
    outer loop
       vertex 0.046664782 -0.0056378373 -0.02218663
       vertex 0.049170734 -0.0062986408 -0.019830981
       vertex 0.045313787 -0.0075610309 -0.019667463
    endloop
  endfacet
  facet normal -0.69972888 -0.56516038 -0.43700485
    outer loop
       vertex 0.040505458 -0.0030908891 -0.020320742
       vertex 0.043162038 -0.0051334526 -0.021932875
       vertex 0.041720486 -0.0059336318 -0.018589834
    endloop
  endfacet
  facet normal -0.83472572 -0.39825197 0.38030032
    outer loop
       vertex 0.040623359 -0.0023456145 -0.014074597
       vertex 0.039597518 -0.0029317222 -0.016940001
       vertex 0.041749506 -0.0053227364 -0.014720456
    endloop
  endfacet
  facet normal -0.092447117 -0.56321736 0.82112102
    outer loop
       vertex 0.04705272 -0.0026615175 -0.012390291
       vertex 0.043658915 -0.0026767075 -0.012782806
       vertex 0.045696889 -0.0052442019 -0.014314435
    endloop
  endfacet
  facet normal 0.52607583 -0.78235856 0.33340561
    outer loop
       vertex 0.050997638 -0.0043705297 -0.017643688
       vertex 0.049534445 -0.0040243757 -0.014522664
       vertex 0.047987853 -0.0062922893 -0.01740413
    endloop
  endfacet
  facet normal 0.31710171 -0.80149159 0.50700861
    outer loop
       vertex 0.047987853 -0.0062922893 -0.01740413
       vertex 0.045696889 -0.0052442019 -0.014314435
       vertex 0.044185874 -0.0072199881 -0.016492762
    endloop
  endfacet
  facet normal 0.28784785 -0.82155791 0.49212419
    outer loop
       vertex 0.047987853 -0.0062922893 -0.01740413
       vertex 0.049534445 -0.0040243757 -0.014522664
       vertex 0.045696889 -0.0052442019 -0.014314435
    endloop
  endfacet
  facet normal 0.24803771 -0.65913307 0.70994429
    outer loop
       vertex 0.049534445 -0.0040243757 -0.014522664
       vertex 0.04705272 -0.0026615175 -0.012390291
       vertex 0.045696889 -0.0052442019 -0.014314435
    endloop
  endfacet
  facet normal -0.056872618 -0.71955593 0.6921017
    outer loop
       vertex 0.045696889 -0.0052442019 -0.014314435
       vertex 0.041749506 -0.0053227364 -0.014720456
       vertex 0.044185874 -0.0072199881 -0.016492762
    endloop
  endfacet
  facet normal -0.074291517 -0.55373029 0.82937539
    outer loop
       vertex 0.045696889 -0.0052442019 -0.014314435
       vertex 0.043658915 -0.0026767075 -0.012782806
       vertex 0.041749506 -0.0053227364 -0.014720456
    endloop
  endfacet
  facet normal -0.39959084 -0.33616584 0.8528304
    outer loop
       vertex 0.043658915 -0.0026767075 -0.012782806
       vertex 0.040623359 -0.0023456145 -0.014074597
       vertex 0.041749506 -0.0053227364 -0.014720456
    endloop
  endfacet
  facet normal -0.54598249 -0.82690597 0.13464636
    outer loop
       vertex 0.041749506 -0.0053227364 -0.014720456
       vertex 0.041720486 -0.0059336318 -0.018589834
       vertex 0.044185874 -0.0072199881 -0.016492762
    endloop
  endfacet
  facet normal -0.7847712 -0.6112691 0.10239263
    outer loop
       vertex 0.041749506 -0.0053227364 -0.014720456
       vertex 0.039597518 -0.0029317222 -0.016940001
       vertex 0.041720486 -0.0059336318 -0.018589834
    endloop
  endfacet
  facet normal -0.84869415 -0.48754921 -0.20497318
    outer loop
       vertex 0.039597518 -0.0029317222 -0.016940001
       vertex 0.040505458 -0.0030908891 -0.020320742
       vertex 0.041720486 -0.0059336318 -0.018589834
    endloop
  endfacet
  facet normal -0.42536747 -0.90340368 -0.054076892
    outer loop
       vertex 0.041720486 -0.0059336318 -0.018589834
       vertex 0.045313787 -0.0075610309 -0.019667463
       vertex 0.044185874 -0.0072199881 -0.016492762
    endloop
  endfacet
  facet normal -0.47457761 -0.78753631 -0.39314457
    outer loop
       vertex 0.041720486 -0.0059336318 -0.018589834
       vertex 0.043162038 -0.0051334526 -0.021932875
       vertex 0.045313787 -0.0075610309 -0.019667463
    endloop
  endfacet
  facet normal -0.15421519 -0.74371079 -0.65047055
    outer loop
       vertex 0.043162038 -0.0051334526 -0.021932875
       vertex 0.046664782 -0.0056378373 -0.02218663
       vertex 0.045313787 -0.0075610309 -0.019667463
    endloop
  endfacet
  facet normal 0.27714616 -0.93990215 0.19943407
    outer loop
       vertex 0.045313787 -0.0075610309 -0.019667463
       vertex 0.047987853 -0.0062922893 -0.01740413
       vertex 0.044185874 -0.0072199881 -0.016492762
    endloop
  endfacet
  facet normal 0.3132336 -0.93692075 0.15512649
    outer loop
       vertex 0.045313787 -0.0075610309 -0.019667463
       vertex 0.049170734 -0.0062986408 -0.019830981
       vertex 0.047987853 -0.0062922893 -0.01740413
    endloop
  endfacet
  facet normal 0.53405084 -0.80369905 0.2624072
    outer loop
       vertex 0.049170734 -0.0062986408 -0.019830981
       vertex 0.050997638 -0.0043705297 -0.017643688
       vertex 0.047987853 -0.0062922893 -0.01740413
    endloop
  endfacet
  facet normal 0.71879001 -0.56859883 0.40004536
    outer loop
       vertex 0.051802381 -0.0022439748 -0.016067079
       vertex 0.049534445 -0.0040243757 -0.014522664
       vertex 0.050997638 -0.0043705297 -0.017643688
    endloop
  endfacet
  facet normal 0.69750101 -0.34249423 0.62943629
    outer loop
       vertex 0.051802381 -0.0022439748 -0.016067079
       vertex 0.049482923 -0.0012901649 -0.012977808
       vertex 0.049534445 -0.0040243757 -0.014522664
    endloop
  endfacet
  facet normal 0.43645131 -0.43634616 0.78683688
    outer loop
       vertex 0.049482923 -0.0012901649 -0.012977808
       vertex 0.04705272 -0.0026615175 -0.012390291
       vertex 0.049534445 -0.0040243757 -0.014522664
    endloop
  endfacet
  facet normal -0.11204203 -0.18684574 0.97597913
    outer loop
       vertex 0.045963618 -0.00016812684 -0.012037973
       vertex 0.043658915 -0.0026767075 -0.012782806
       vertex 0.04705272 -0.0026615175 -0.012390291
    endloop
  endfacet
  facet normal 0.21170477 -0.45181333 0.86662899
    outer loop
       vertex 0.043658915 -0.0026767075 -0.012782806
       vertex 0.045963618 -0.00016812684 -0.012037973
       vertex 0.043727384 6.2688274e-05 -0.01137136
    endloop
  endfacet
  facet normal 0.16824731 -0.24557921 0.95466418
    outer loop
       vertex 0.043727384 6.2688274e-05 -0.01137136
       vertex 0.042982984 -0.00030223554 -0.011334042
       vertex 0.042615608 -0.00075790171 -0.011386513
    endloop
  endfacet
  facet normal 0.43732505 -0.5074448 0.74245981
    outer loop
       vertex 0.042615608 -0.00075790171 -0.011386513
       vertex 0.042391657 -0.0010858227 -0.011478724
       vertex 0.042545419 -0.0014775278 -0.011837009
    endloop
  endfacet
  facet normal 0.24635646 -0.44876098 0.85902391
    outer loop
       vertex 0.042545419 -0.0014775278 -0.011837009
       vertex 0.043658915 -0.0026767075 -0.012782806
       vertex 0.043727384 6.2688274e-05 -0.01137136
    endloop
  endfacet
  facet normal 0.37207303 -0.51832244 0.77000227
    outer loop
       vertex 0.043727384 6.2688274e-05 -0.01137136
       vertex 0.042615608 -0.00075790171 -0.011386513
       vertex 0.042545419 -0.0014775278 -0.011837009
    endloop
  endfacet
  facet normal -0.94184162 0.0057701979 0.33600755
    outer loop
       vertex 0.040071101 0.00065172039 -0.015674067
       vertex 0.039597518 -0.0029317222 -0.016940001
       vertex 0.040623359 -0.0023456145 -0.014074597
    endloop
  endfacet
  facet normal -0.98411054 0.15839983 -0.080224265
    outer loop
       vertex 0.040071101 0.00065172039 -0.015674067
       vertex 0.040257905 0.00024594483 -0.018766768
       vertex 0.039597518 -0.0029317222 -0.016940001
    endloop
  endfacet
  facet normal -0.96396855 0.050148334 -0.26124658
    outer loop
       vertex 0.040257905 0.00024594483 -0.018766768
       vertex 0.040505458 -0.0030908891 -0.020320742
       vertex 0.039597518 -0.0029317222 -0.016940001
    endloop
  endfacet
  facet normal -0.55747855 -0.072308023 -0.82703641
    outer loop
       vertex 0.042549098 -0.00076550964 -0.021901603
       vertex 0.043162038 -0.0051334526 -0.021932875
       vertex 0.040505458 -0.0030908891 -0.020320742
    endloop
  endfacet
  facet normal -0.46922573 -0.059536919 -0.881069
    outer loop
       vertex 0.042549098 -0.00076550964 -0.021901603
       vertex 0.045693115 -0.0023878925 -0.023466363
       vertex 0.043162038 -0.0051334526 -0.021932875
    endloop
  endfacet
  facet normal -0.12285676 -0.39519807 -0.91034318
    outer loop
       vertex 0.045693115 -0.0023878925 -0.023466363
       vertex 0.046664782 -0.0056378373 -0.02218663
       vertex 0.043162038 -0.0051334526 -0.021932875
    endloop
  endfacet
  facet normal 0.50082643 -0.53269163 -0.68221149
    outer loop
       vertex 0.049359499 -0.0031572465 -0.022145301
       vertex 0.049170734 -0.0062986408 -0.019830981
       vertex 0.046664782 -0.0056378373 -0.02218663
    endloop
  endfacet
  facet normal 0.73986538 -0.42728613 -0.51964005
    outer loop
       vertex 0.049359499 -0.0031572465 -0.022145301
       vertex 0.051798635 -0.0027099488 -0.019040251
       vertex 0.049170734 -0.0062986408 -0.019830981
    endloop
  endfacet
  facet normal 0.81154089 -0.55216428 -0.19109159
    outer loop
       vertex 0.051798635 -0.0027099488 -0.019040251
       vertex 0.050997638 -0.0043705297 -0.017643688
       vertex 0.049170734 -0.0062986408 -0.019830981
    endloop
  endfacet
  facet normal 0.24965031 -0.027723982 0.9679391
    outer loop
       vertex 0.049482923 -0.0012901649 -0.012977808
       vertex 0.045963618 -0.00016812684 -0.012037973
       vertex 0.04705272 -0.0026615175 -0.012390291
    endloop
  endfacet
  facet normal 0.31228711 0.20196475 0.92827097
    outer loop
       vertex 0.049482923 -0.0012901649 -0.012977808
       vertex 0.048243245 0.0024324506 -0.013370691
       vertex 0.045963618 -0.00016812684 -0.012037973
    endloop
  endfacet
  facet normal 0.24058338 0.26729343 0.93309906
    outer loop
       vertex 0.048243245 0.0024324506 -0.013370691
       vertex 0.044959026 0.0028770022 -0.012651258
       vertex 0.045963618 -0.00016812684 -0.012037973
    endloop
  endfacet
  facet normal -0.77734242 0.54614162 0.31219882
    outer loop
       vertex 0.042615052 0.0037228054 -0.014712266
       vertex 0.041312757 0.0032240901 -0.017082422
       vertex 0.040071101 0.00065172039 -0.015674067
    endloop
  endfacet
  facet normal -0.7473775 0.23411997 -0.62178349
    outer loop
       vertex 0.040257905 0.00024594483 -0.018766768
       vertex 0.042549098 -0.00076550964 -0.021901603
       vertex 0.040505458 -0.0030908891 -0.020320742
    endloop
  endfacet
  facet normal -0.70931921 0.32760742 -0.62413111
    outer loop
       vertex 0.040257905 0.00024594483 -0.018766768
       vertex 0.042815157 0.0029929943 -0.020231131
       vertex 0.042549098 -0.00076550964 -0.021901603
    endloop
  endfacet
  facet normal -0.49186627 0.38245619 -0.78217315
    outer loop
       vertex 0.042815157 0.0029929943 -0.020231131
       vertex 0.045245249 0.001570299 -0.022454934
       vertex 0.042549098 -0.00076550964 -0.021901603
    endloop
  endfacet
  facet normal 0.27263813 -0.28084062 -0.92021573
    outer loop
       vertex 0.045693115 -0.0023878925 -0.023466363
       vertex 0.049359499 -0.0031572465 -0.022145301
       vertex 0.046664782 -0.0056378373 -0.02218663
    endloop
  endfacet
  facet normal 0.33442989 -0.023974216 -0.94211564
    outer loop
       vertex 0.045693115 -0.0023878925 -0.023466363
       vertex 0.0483325 0.0012556763 -0.022622159
       vertex 0.049359499 -0.0031572465 -0.022145301
    endloop
  endfacet
  facet normal 0.56528563 0.042537128 -0.82379776
    outer loop
       vertex 0.0483325 0.0012556763 -0.022622159
       vertex 0.051110589 0.00028998182 -0.020765713
       vertex 0.049359499 -0.0031572465 -0.022145301
    endloop
  endfacet
  facet normal 0.91795419 -0.39207774 0.060292253
    outer loop
       vertex 0.051798635 -0.0027099488 -0.019040251
       vertex 0.051802381 -0.0022439748 -0.016067079
       vertex 0.050997638 -0.0043705297 -0.017643688
    endloop
  endfacet
  facet normal 0.99848205 -0.054592458 0.0072979982
    outer loop
       vertex 0.051798635 -0.0027099488 -0.019040251
       vertex 0.051991054 0.00089743074 -0.018381405
       vertex 0.051802381 -0.0022439748 -0.016067079
    endloop
  endfacet
  facet normal 0.95591684 0.1347805 0.26087777
    outer loop
       vertex 0.051991054 0.00089743074 -0.018381405
       vertex 0.051073913 0.0010045612 -0.015076133
       vertex 0.051802381 -0.0022439748 -0.016067079
    endloop
  endfacet
  facet normal 0.61436576 0.58325891 0.5313791
    outer loop
       vertex 0.049795944 0.0038462991 -0.016717764
       vertex 0.048243245 0.0024324506 -0.013370691
       vertex 0.051073913 0.0010045612 -0.015076133
    endloop
  endfacet
  facet normal 0.50844049 0.68301805 0.52438023
    outer loop
       vertex 0.049795944 0.0038462991 -0.016717764
       vertex 0.046106478 0.0050092616 -0.014655235
       vertex 0.048243245 0.0024324506 -0.013370691
    endloop
  endfacet
  facet normal 0.24819452 0.58914174 0.76896781
    outer loop
       vertex 0.046106478 0.0050092616 -0.014655235
       vertex 0.044959026 0.0028770022 -0.012651258
       vertex 0.048243245 0.0024324506 -0.013370691
    endloop
  endfacet
  facet normal -0.2802628 0.73316126 0.61961869
    outer loop
       vertex 0.046106478 0.0050092616 -0.014655235
       vertex 0.042615052 0.0037228054 -0.014712266
       vertex 0.044959026 0.0028770022 -0.012651258
    endloop
  endfacet
  facet normal -0.33544028 0.89771865 0.28562395
    outer loop
       vertex 0.046106478 0.0050092616 -0.014655235
       vertex 0.044281669 0.0051646498 -0.017286701
       vertex 0.042615052 0.0037228054 -0.014712266
    endloop
  endfacet
  facet normal -0.53741103 0.83479208 0.11963098
    outer loop
       vertex 0.044281669 0.0051646498 -0.017286701
       vertex 0.041312757 0.0032240901 -0.017082422
       vertex 0.042615052 0.0037228054 -0.014712266
    endloop
  endfacet
  facet normal -0.53466114 0.78507091 -0.31273172
    outer loop
       vertex 0.044281669 0.0051646498 -0.017286701
       vertex 0.042815157 0.0029929943 -0.020231131
       vertex 0.041312757 0.0032240901 -0.017082422
    endloop
  endfacet
  facet normal -0.29545348 0.83322149 -0.46738548
    outer loop
       vertex 0.044281669 0.0051646498 -0.017286701
       vertex 0.046590537 0.004220311 -0.02042973
       vertex 0.042815157 0.0029929943 -0.020231131
    endloop
  endfacet
  facet normal -0.25322003 0.66528796 -0.70233293
    outer loop
       vertex 0.046590537 0.004220311 -0.02042973
       vertex 0.045245249 0.001570299 -0.022454934
       vertex 0.042815157 0.0029929943 -0.020231131
    endloop
  endfacet
  facet normal 0.83766126 0.50158928 0.2161754
    outer loop
       vertex 0.051991054 0.00089743074 -0.018381405
       vertex 0.049795944 0.0038462991 -0.016717764
       vertex 0.051073913 0.0010045612 -0.015076133
    endloop
  endfacet
  facet normal 0.78347416 0.61830337 -0.062202759
    outer loop
       vertex 0.051991054 0.00089743074 -0.018381405
       vertex 0.04984378 0.0034837196 -0.019719341
       vertex 0.049795944 0.0038462991 -0.016717764
    endloop
  endfacet
  facet normal 0.56788348 0.81819741 -0.089785045
    outer loop
       vertex 0.04984378 0.0034837196 -0.019719341
       vertex 0.047413712 0.0053753162 -0.017851499
       vertex 0.049795944 0.0038462991 -0.016717764
    endloop
  endfacet
  facet normal 0.01801268 0.60132144 -0.79880415
    outer loop
       vertex 0.046590537 0.004220311 -0.02042973
       vertex 0.0483325 0.0012556763 -0.022622159
       vertex 0.045245249 0.001570299 -0.022454934
    endloop
  endfacet
  facet normal 0.30002177 0.67487113 -0.67419278
    outer loop
       vertex 0.046590537 0.004220311 -0.02042973
       vertex 0.04984378 0.0034837196 -0.019719341
       vertex 0.0483325 0.0012556763 -0.022622159
    endloop
  endfacet
  facet normal 0.59876646 0.45374026 -0.65999886
    outer loop
       vertex 0.04984378 0.0034837196 -0.019719341
       vertex 0.051110589 0.00028998182 -0.020765713
       vertex 0.0483325 0.0012556763 -0.022622159
    endloop
  endfacet
  facet normal -0.31591362 -0.83718952 0.44644406
    outer loop
       vertex 0.040839963 -0.0017900496 -0.012789051
       vertex 0.04112257 -0.0017699476 -0.012551376
       vertex 0.040700973 -0.0016080491 -0.012546109
    endloop
  endfacet
  facet normal -0.80184239 0.43868192 -0.40571783
    outer loop
       vertex 0.040071101 0.00065172039 -0.015674067
       vertex 0.039722653 0.00074155591 -0.014888274
       vertex 0.039754371 0.0010420478 -0.014626054
    endloop
  endfacet
  facet normal -0.82941445 0.39298572 -0.39703135
    outer loop
       vertex 0.040071101 0.00065172039 -0.015674067
       vertex 0.039754371 0.0010420478 -0.014626054
       vertex 0.040085544 0.0016237644 -0.0147421
    endloop
  endfacet
  facet normal -0.71731458 0.66212432 -0.21691284
    outer loop
       vertex 0.041913051 0.0032375516 -0.013872032
       vertex 0.042615052 0.0037228054 -0.014712266
       vertex 0.040071101 0.00065172039 -0.015674067
    endloop
  endfacet
  facet normal -0.37662803 0.85130786 -0.36527559
    outer loop
       vertex 0.040783724 0.002477407 -0.014479192
       vertex 0.041280019 0.0029098659 -0.013983027
       vertex 0.041913051 0.0032375516 -0.013872032
    endloop
  endfacet
  facet normal -0.65581563 0.5275127 -0.54003352
    outer loop
       vertex 0.040071101 0.00065172039 -0.015674067
       vertex 0.040085544 0.0016237644 -0.0147421
       vertex 0.040410731 0.0020858907 -0.014685594
    endloop
  endfacet
  facet normal 0.45366061 0.037207493 -0.89039747
    outer loop
       vertex 0.040410731 0.0020858907 -0.014685594
       vertex 0.040783724 0.002477407 -0.014479192
       vertex 0.041913051 0.0032375516 -0.013872032
    endloop
  endfacet
  facet normal 0.013283095 0.56531122 -0.82477075
    outer loop
       vertex 0.040410731 0.0020858907 -0.014685594
       vertex 0.041913051 0.0032375516 -0.013872032
       vertex 0.040071101 0.00065172039 -0.015674067
    endloop
  endfacet
  facet normal 0.1910649 0.86677196 0.46065234
    outer loop
       vertex 0.0420117 0.0030619179 -0.013141099
       vertex 0.042787425 0.0026256555 -0.012641967
       vertex 0.042932777 0.0027085726 -0.012858273
    endloop
  endfacet
  facet normal 0.22857011 0.89757179 0.37698884
    outer loop
       vertex 0.042932777 0.0027085726 -0.012858273
       vertex 0.042354039 0.0030243298 -0.013259167
       vertex 0.0420117 0.0030619179 -0.013141099
    endloop
  endfacet
  facet normal -0.079476709 -0.66176537 0.74548645
    outer loop
       vertex 0.043658915 -0.0026767075 -0.012782806
       vertex 0.042545419 -0.0014775278 -0.011837009
       vertex 0.041704657 -0.0015248731 -0.011968672
    endloop
  endfacet
  facet normal 0.32806916 -0.89067242 -0.31475905
    outer loop
       vertex 0.04112257 -0.0017699476 -0.012551376
       vertex 0.040839963 -0.0017900496 -0.012789051
       vertex 0.040489566 -0.0017641642 -0.013227512
    endloop
  endfacet
  facet normal -0.23168736 -0.79216953 0.5646135
    outer loop
       vertex 0.043658915 -0.0026767075 -0.012782806
       vertex 0.041704657 -0.0015248731 -0.011968672
       vertex 0.04112257 -0.0017699476 -0.012551376
    endloop
  endfacet
  facet normal -0.30346094 -0.80726883 0.50619018
    outer loop
       vertex 0.040489566 -0.0017641642 -0.013227512
       vertex 0.040623359 -0.0023456145 -0.014074597
       vertex 0.043658915 -0.0026767075 -0.012782806
    endloop
  endfacet
  facet normal -0.30142353 -0.91315782 0.27438414
    outer loop
       vertex 0.04112257 -0.0017699476 -0.012551376
       vertex 0.040489566 -0.0017641642 -0.013227512
       vertex 0.043658915 -0.0026767075 -0.012782806
    endloop
  endfacet
  facet normal -0.51913751 0.72942046 -0.44546833
    outer loop
       vertex 0.040783724 0.002477407 -0.014479192
       vertex 0.040410731 0.0020858907 -0.014685594
       vertex 0.040183096 0.0021593589 -0.014300015
    endloop
  endfacet
  facet normal -0.82711047 -0.51574368 0.22337574
    outer loop
       vertex 0.040623359 -0.0023456145 -0.014074597
       vertex 0.040489566 -0.0017641642 -0.013227512
       vertex 0.040149291 -0.0013602908 -0.01355499
    endloop
  endfacet
  facet normal -0.88784714 -0.45671488 0.056026557
    outer loop
       vertex 0.040623359 -0.0023456145 -0.014074597
       vertex 0.040149291 -0.0013602908 -0.01355499
       vertex 0.039968 -0.0010475415 -0.013878432
    endloop
  endfacet
  facet normal -0.87176725 -0.34581286 -0.34703793
    outer loop
       vertex 0.039722653 0.00074155591 -0.014888274
       vertex 0.040071101 0.00065172039 -0.015674067
       vertex 0.040623359 -0.0023456145 -0.014074597
    endloop
  endfacet
  facet normal -0.46085224 -0.39616586 -0.79414597
    outer loop
       vertex 0.039726737 -0.00032847997 -0.014356849
       vertex 0.039664732 0.00020558279 -0.014587288
       vertex 0.039722653 0.00074155591 -0.014888274
    endloop
  endfacet
  facet normal -0.88831923 -0.42064235 -0.18425244
    outer loop
       vertex 0.040623359 -0.0023456145 -0.014074597
       vertex 0.039968 -0.0010475415 -0.013878432
       vertex 0.039726737 -0.00032847997 -0.014356849
    endloop
  endfacet
  facet normal -0.58647697 -0.36207262 -0.72453308
    outer loop
       vertex 0.039726737 -0.00032847997 -0.014356849
       vertex 0.039722653 0.00074155591 -0.014888274
       vertex 0.040623359 -0.0023456145 -0.014074597
    endloop
  endfacet
  facet normal 0.26340471 0.6520208 0.71097597
    outer loop
       vertex 0.043184782 0.0024160147 -0.012596924
       vertex 0.043109948 0.0025748878 -0.012714898
       vertex 0.042787425 0.0026256555 -0.012641967
    endloop
  endfacet
  facet normal -0.074150819 -0.68876271 0.72118485
    outer loop
       vertex 0.041704657 -0.0015248731 -0.011968672
       vertex 0.042545419 -0.0014775278 -0.011837009
       vertex 0.042391657 -0.0010858227 -0.011478724
    endloop
  endfacet
  facet normal -0.051098819 -0.70708468 0.7052802
    outer loop
       vertex 0.042391657 -0.0010858227 -0.011478724
       vertex 0.041281163 -0.0011764701 -0.01165006
       vertex 0.041704657 -0.0015248731 -0.011968672
    endloop
  endfacet
  facet normal 0.23167864 0.36942667 0.89991607
    outer loop
       vertex 0.043310801 0.0010275645 -0.011668734
       vertex 0.043240496 0.0016597878 -0.01191017
       vertex 0.042340128 0.0018760415 -0.011767149
    endloop
  endfacet
  facet normal 0.19279672 0.32783743 0.92485245
    outer loop
       vertex 0.042340128 0.0018760415 -0.011767149
       vertex 0.042729019 0.00056107875 -0.011382096
       vertex 0.043310801 0.0010275645 -0.011668734
    endloop
  endfacet
  facet normal 0.24192363 0.84052106 0.4847652
    outer loop
       vertex 0.043109948 0.0025748878 -0.012714898
       vertex 0.042932777 0.0027085726 -0.012858273
       vertex 0.042787425 0.0026256555 -0.012641967
    endloop
  endfacet
  facet normal -0.88943424 -0.26419444 -0.37297189
    outer loop
       vertex 0.039664732 0.00020558279 -0.014587288
       vertex 0.039726737 -0.00032847997 -0.014356849
       vertex 0.039520915 -0.00010022377 -0.014027705
    endloop
  endfacet
  facet normal -0.012720934 0.5349531 0.84478598
    outer loop
       vertex 0.043271498 0.0005741093 -0.011382179
       vertex 0.043310801 0.0010275645 -0.011668734
       vertex 0.042729019 0.00056107875 -0.011382096
    endloop
  endfacet
  facet normal -0.11372733 -0.19620195 0.97394604
    outer loop
       vertex 0.042391657 -0.0010858227 -0.011478724
       vertex 0.042615608 -0.00075790171 -0.011386513
       vertex 0.041833785 -0.0003090958 -0.011387394
    endloop
  endfacet
  facet normal -0.13242671 -0.20903907 0.96889929
    outer loop
       vertex 0.041833785 -0.0003090958 -0.011387394
       vertex 0.041281163 -0.0011764701 -0.01165006
       vertex 0.042391657 -0.0010858227 -0.011478724
    endloop
  endfacet
  facet normal -0.22946425 -0.79388264 0.56311324
    outer loop
       vertex 0.04112257 -0.0017699476 -0.012551376
       vertex 0.041704657 -0.0015248731 -0.011968672
       vertex 0.041281163 -0.0011764701 -0.01165006
    endloop
  endfacet
  facet normal -0.29055447 -0.77489098 0.56135735
    outer loop
       vertex 0.041281163 -0.0011764701 -0.01165006
       vertex 0.040700973 -0.0016080491 -0.012546109
       vertex 0.04112257 -0.0017699476 -0.012551376
    endloop
  endfacet
  facet normal 0.027629418 0.045754216 0.99857056
    outer loop
       vertex 0.042982984 -0.00030223554 -0.011334042
       vertex 0.043727384 6.2688274e-05 -0.01137136
       vertex 0.043271498 0.0005741093 -0.011382179
    endloop
  endfacet
  facet normal -0.0011744091 0.05523177 0.99847287
    outer loop
       vertex 0.043271498 0.0005741093 -0.011382179
       vertex 0.042729019 0.00056107875 -0.011382096
       vertex 0.042982984 -0.00030223554 -0.011334042
    endloop
  endfacet
endsolid ExportedfromBlender-2.79(sub0)
