solid ExportedfromBlender-2.79(sub0)
  facet normal 0.17725004 0.96200524 0.20767364
    outer loop
       vertex 0.061089541 0.0030619179 -0.013143575
       vertex 0.061431881 0.0030243298 -0.013261644
       vertex 0.061152268 0.003123874 -0.013484112
    endloop
  endfacet
  facet normal -0.20681446 0.96858103 0.13812516
    outer loop
       vertex 0.059903167 0.002841135 -0.013371726
       vertex 0.061089541 0.0030619179 -0.013143575
       vertex 0.061152268 0.003123874 -0.013484112
    endloop
  endfacet
  facet normal -0.47409828 0.77322836 0.42112791
    outer loop
       vertex 0.061152268 0.003123874 -0.013484112
       vertex 0.060990892 0.0032375516 -0.013874508
       vertex 0.060357861 0.0029098659 -0.013985504
    endloop
  endfacet
  facet normal -0.22536173 0.97254453 -0.058044975
    outer loop
       vertex 0.061152268 0.003123874 -0.013484112
       vertex 0.060357861 0.0029098659 -0.013985504
       vertex 0.059903167 0.002841135 -0.013371726
    endloop
  endfacet
  facet normal -0.23191007 0.92015705 0.31548174
    outer loop
       vertex 0.061089541 0.0030619179 -0.013143575
       vertex 0.059903167 0.002841135 -0.013371726
       vertex 0.060700903 0.0027398764 -0.012489973
    endloop
  endfacet
  facet normal 0.15055549 0.8483773 0.50753227
    outer loop
       vertex 0.061089541 0.0030619179 -0.013143575
       vertex 0.060700903 0.0027398764 -0.012489973
       vertex 0.061865266 0.0026256555 -0.012644443
    endloop
  endfacet
  facet normal -0.87429731 0.40410565 -0.26889189
    outer loop
       vertex 0.059011654 0.0020884057 -0.013598582
       vertex 0.059260937 0.0021593589 -0.014302491
       vertex 0.058617398 0.0010725071 -0.013843416
    endloop
  endfacet
  facet normal -0.40949265 0.59978133 0.68744318
    outer loop
       vertex 0.060255478 0.001964276 -0.011966683
       vertex 0.059526248 0.0022368997 -0.012638926
       vertex 0.059402095 0.0011146543 -0.011733742
    endloop
  endfacet
  facet normal -0.92011234 0.37996805 -0.094960877
    outer loop
       vertex 0.059011654 0.0020884057 -0.013598582
       vertex 0.058617398 0.0010725071 -0.013843416
       vertex 0.05856856 0.0011870543 -0.012911864
    endloop
  endfacet
  facet normal -0.09266387 0.34876921 0.93261645
    outer loop
       vertex 0.060255478 0.001964276 -0.011966683
       vertex 0.059402095 0.0011146543 -0.011733742
       vertex 0.060579059 0.00084704418 -0.011516723
    endloop
  endfacet
  facet normal -0.86494166 -0.44482649 -0.23239045
    outer loop
       vertex 0.058598756 -0.00010022377 -0.014030181
       vertex 0.058804578 -0.00032847997 -0.014359325
       vertex 0.059045841 -0.0010475415 -0.013880909
    endloop
  endfacet
  facet normal -0.88859697 -0.43986506 -0.13005441
    outer loop
       vertex 0.059045841 -0.0010475415 -0.013880909
       vertex 0.058982452 -0.0010799795 -0.013338089
       vertex 0.058598756 -0.00010022377 -0.014030181
    endloop
  endfacet
  facet normal -0.88638981 -0.13326798 0.4433427
    outer loop
       vertex 0.058789386 4.8469401e-05 -0.012210306
       vertex 0.058456253 -0.00013987532 -0.012932967
       vertex 0.059028456 -0.0010164138 -0.012052427
    endloop
  endfacet
  facet normal -0.091652617 -0.23466762 0.96774527
    outer loop
       vertex 0.060911627 -0.0003090958 -0.01138987
       vertex 0.059620578 -0.00026211823 -0.011500751
       vertex 0.060359005 -0.0011764701 -0.011652537
    endloop
  endfacet
  facet normal -0.26090893 -0.79281302 0.55079401
    outer loop
       vertex 0.060359005 -0.0011764701 -0.011652537
       vertex 0.059028456 -0.0010164138 -0.012052427
       vertex 0.059778815 -0.0016080491 -0.012548585
    endloop
  endfacet
  facet normal -0.30771461 -0.3924003 0.86679509
    outer loop
       vertex 0.060359005 -0.0011764701 -0.011652537
       vertex 0.059620578 -0.00026211823 -0.011500751
       vertex 0.059028456 -0.0010164138 -0.012052427
    endloop
  endfacet
  facet normal -0.65652966 -0.035686528 0.75345556
    outer loop
       vertex 0.059620578 -0.00026211823 -0.011500751
       vertex 0.058789386 4.8469401e-05 -0.012210306
       vertex 0.059028456 -0.0010164138 -0.012052427
    endloop
  endfacet
  facet normal -0.59286059 -0.80299786 0.060916008
    outer loop
       vertex 0.059028456 -0.0010164138 -0.012052427
       vertex 0.058982452 -0.0010799795 -0.013338089
       vertex 0.059778815 -0.0016080491 -0.012548585
    endloop
  endfacet
  facet normal -0.86080514 -0.50586503 0.055812979
    outer loop
       vertex 0.059028456 -0.0010164138 -0.012052427
       vertex 0.058456253 -0.00013987532 -0.012932967
       vertex 0.058982452 -0.0010799795 -0.013338089
    endloop
  endfacet
  facet normal -0.88809375 -0.44052183 -0.13126315
    outer loop
       vertex 0.058456253 -0.00013987532 -0.012932967
       vertex 0.058598756 -0.00010022377 -0.014030181
       vertex 0.058982452 -0.0010799795 -0.013338089
    endloop
  endfacet
  facet normal -0.66396539 -0.72447653 0.18515861
    outer loop
       vertex 0.059778815 -0.0016080491 -0.012548585
       vertex 0.058982452 -0.0010799795 -0.013338089
       vertex 0.059227132 -0.0013602908 -0.013557466
    endloop
  endfacet
  facet normal -0.77585691 -0.1585285 0.61066748
    outer loop
       vertex 0.059227132 -0.0013602908 -0.013557466
       vertex 0.059567408 -0.0017641642 -0.013229988
       vertex 0.059917804 -0.0017900496 -0.012791527
    endloop
  endfacet
  facet normal -0.65392442 -0.73557764 0.17694176
    outer loop
       vertex 0.059227132 -0.0013602908 -0.013557466
       vertex 0.059917804 -0.0017900496 -0.012791527
       vertex 0.059778815 -0.0016080491 -0.012548585
    endloop
  endfacet
  facet normal -0.79469558 -0.59330332 -0.12825797
    outer loop
       vertex 0.058982452 -0.0010799795 -0.013338089
       vertex 0.059045841 -0.0010475415 -0.013880909
       vertex 0.059227132 -0.0013602908 -0.013557466
    endloop
  endfacet
  facet normal -0.0029056599 -0.0030988661 0.99999098
    outer loop
       vertex 0.06180686 0.00056107875 -0.011384573
       vertex 0.060911627 -0.0003090958 -0.01138987
       vertex 0.061693449 -0.00075790171 -0.01138899
    endloop
  endfacet
  facet normal -0.15338296 0.009879514 0.98811743
    outer loop
       vertex 0.061693449 -0.00075790171 -0.01138899
       vertex 0.062060825 -0.00030223554 -0.011336519
       vertex 0.06180686 0.00056107875 -0.011384573
    endloop
  endfacet
  facet normal -0.082175081 0.085310063 0.99295994
    outer loop
       vertex 0.060579059 0.00084704418 -0.011516723
       vertex 0.059620578 -0.00026211823 -0.011500751
       vertex 0.060911627 -0.0003090958 -0.01138987
    endloop
  endfacet
  facet normal -0.14814878 0.14211581 0.97870069
    outer loop
       vertex 0.060579059 0.00084704418 -0.011516723
       vertex 0.059402095 0.0011146543 -0.011733742
       vertex 0.059620578 -0.00026211823 -0.011500751
    endloop
  endfacet
  facet normal -0.64306126 0.027467068 0.76532201
    outer loop
       vertex 0.059402095 0.0011146543 -0.011733742
       vertex 0.058789386 4.8469401e-05 -0.012210306
       vertex 0.059620578 -0.00026211823 -0.011500751
    endloop
  endfacet
  facet normal -0.91276195 0.070855127 0.40229985
    outer loop
       vertex 0.05856856 0.0011870543 -0.012911864
       vertex 0.058456253 -0.00013987532 -0.012932967
       vertex 0.058789386 4.8469401e-05 -0.012210306
    endloop
  endfacet
  facet normal -0.99439868 0.085158327 -0.062604571
    outer loop
       vertex 0.05856856 0.0011870543 -0.012911864
       vertex 0.058617398 0.0010725071 -0.013843416
       vertex 0.058456253 -0.00013987532 -0.012932967
    endloop
  endfacet
  facet normal -0.9911921 0.036050314 -0.12743076
    outer loop
       vertex 0.058617398 0.0010725071 -0.013843416
       vertex 0.058598756 -0.00010022377 -0.014030181
       vertex 0.058456253 -0.00013987532 -0.012932967
    endloop
  endfacet
  facet normal -0.087323761 0.08379496 0.99264947
    outer loop
       vertex 0.06180686 0.00056107875 -0.011384573
       vertex 0.060579059 0.00084704418 -0.011516723
       vertex 0.060911627 -0.0003090958 -0.01138987
    endloop
  endfacet
  facet normal -0.040741731 0.26967398 0.96208942
    outer loop
       vertex 0.06180686 0.00056107875 -0.011384573
       vertex 0.061417969 0.0018760415 -0.011769626
       vertex 0.060579059 0.00084704418 -0.011516723
    endloop
  endfacet
  facet normal -0.13242439 0.33705559 0.93212516
    outer loop
       vertex 0.061417969 0.0018760415 -0.011769626
       vertex 0.060255478 0.001964276 -0.011966683
       vertex 0.060579059 0.00084704418 -0.011516723
    endloop
  endfacet
  facet normal -0.79406411 0.19972403 0.57408406
    outer loop
       vertex 0.059402095 0.0011146543 -0.011733742
       vertex 0.05856856 0.0011870543 -0.012911864
       vertex 0.058789386 4.8469401e-05 -0.012210306
    endloop
  endfacet
  facet normal -0.69359366 0.49718687 0.5212802
    outer loop
       vertex 0.059402095 0.0011146543 -0.011733742
       vertex 0.059526248 0.0022368997 -0.012638926
       vertex 0.05856856 0.0011870543 -0.012911864
    endloop
  endfacet
  facet normal -0.74169929 0.59721788 0.30530798
    outer loop
       vertex 0.059526248 0.0022368997 -0.012638926
       vertex 0.059011654 0.0020884057 -0.013598582
       vertex 0.05856856 0.0011870543 -0.012911864
    endloop
  endfacet
  facet normal -0.96237592 0.05758846 -0.26554877
    outer loop
       vertex 0.058598756 -0.00010022377 -0.014030181
       vertex 0.058617398 0.0010725071 -0.013843416
       vertex 0.058832212 0.0010420478 -0.01462853
    endloop
  endfacet
  facet normal -0.99431405 0.1064732 -0.0017418579
    outer loop
       vertex 0.058832212 0.0010420478 -0.01462853
       vertex 0.058800494 0.00074155591 -0.014890751
       vertex 0.058742574 0.00020558279 -0.014589765
    endloop
  endfacet
  facet normal -0.97543372 0.095326619 -0.19859984
    outer loop
       vertex 0.058832212 0.0010420478 -0.01462853
       vertex 0.058742574 0.00020558279 -0.014589765
       vertex 0.058598756 -0.00010022377 -0.014030181
    endloop
  endfacet
  facet normal -0.87255183 0.39555637 -0.2866853
    outer loop
       vertex 0.058617398 0.0010725071 -0.013843416
       vertex 0.059260937 0.0021593589 -0.014302491
       vertex 0.059163386 0.0016237644 -0.014744576
    endloop
  endfacet
  facet normal -0.86162625 0.44009208 -0.25282242
    outer loop
       vertex 0.059163386 0.0016237644 -0.014744576
       vertex 0.058832212 0.0010420478 -0.01462853
       vertex 0.058617398 0.0010725071 -0.013843416
    endloop
  endfacet
  facet normal -0.67710101 0.537868 -0.50222728
    outer loop
       vertex 0.059260937 0.0021593589 -0.014302491
       vertex 0.059488572 0.0020858907 -0.01468807
       vertex 0.059163386 0.0016237644 -0.014744576
    endloop
  endfacet
  facet normal 0.268308 0.6594391 0.70224703
    outer loop
       vertex 0.062262624 0.0024160147 -0.0125994
       vertex 0.061865266 0.0026256555 -0.012644443
       vertex 0.061417969 0.0018760415 -0.011769626
    endloop
  endfacet
  facet normal 0.23101262 0.36547431 0.90169934
    outer loop
       vertex 0.061417969 0.0018760415 -0.011769626
       vertex 0.062318338 0.0016597878 -0.011912646
       vertex 0.062668405 0.0021847057 -0.01221509
    endloop
  endfacet
  facet normal -0.019961758 0.8471582 0.53096564
    outer loop
       vertex 0.061417969 0.0018760415 -0.011769626
       vertex 0.062668405 0.0021847057 -0.01221509
       vertex 0.062262624 0.0024160147 -0.0125994
    endloop
  endfacet
  facet normal 0.16070826 0.70738577 0.6883155
    outer loop
       vertex 0.061865266 0.0026256555 -0.012644443
       vertex 0.060700903 0.0027398764 -0.012489973
       vertex 0.061417969 0.0018760415 -0.011769626
    endloop
  endfacet
  facet normal -0.090757862 0.59228111 0.80060358
    outer loop
       vertex 0.060700903 0.0027398764 -0.012489973
       vertex 0.060255478 0.001964276 -0.011966683
       vertex 0.061417969 0.0018760415 -0.011769626
    endloop
  endfacet
  facet normal -0.36456126 0.65555314 0.66132078
    outer loop
       vertex 0.060700903 0.0027398764 -0.012489973
       vertex 0.059526248 0.0022368997 -0.012638926
       vertex 0.060255478 0.001964276 -0.011966683
    endloop
  endfacet
  facet normal -0.39889612 0.79758564 0.45248098
    outer loop
       vertex 0.060700903 0.0027398764 -0.012489973
       vertex 0.059903167 0.002841135 -0.013371726
       vertex 0.059526248 0.0022368997 -0.012638926
    endloop
  endfacet
  facet normal -0.66111339 0.70923957 0.24476176
    outer loop
       vertex 0.059903167 0.002841135 -0.013371726
       vertex 0.059011654 0.0020884057 -0.013598582
       vertex 0.059526248 0.0022368997 -0.012638926
    endloop
  endfacet
  facet normal -0.61756429 0.7738325 -0.14070399
    outer loop
       vertex 0.059903167 0.002841135 -0.013371726
       vertex 0.059260937 0.0021593589 -0.014302491
       vertex 0.059011654 0.0020884057 -0.013598582
    endloop
  endfacet
  facet normal -0.47523339 0.84122686 -0.25785771
    outer loop
       vertex 0.059903167 0.002841135 -0.013371726
       vertex 0.060357861 0.0029098659 -0.013985504
       vertex 0.059861565 0.002477407 -0.014481669
    endloop
  endfacet
  facet normal -0.51035048 0.82268439 -0.25046514
    outer loop
       vertex 0.059861565 0.002477407 -0.014481669
       vertex 0.059260937 0.0021593589 -0.014302491
       vertex 0.059903167 0.002841135 -0.013371726
    endloop
  endfacet
  facet normal 0.29103137 0.83499973 -0.46698629
    outer loop
       vertex 0.066491554 0.0053753162 -0.017853975
       vertex 0.068921621 0.0034837196 -0.019721817
       vertex 0.065668378 0.004220311 -0.020432207
    endloop
  endfacet
  facet normal 0.79497425 0.44898841 -0.40795263
    outer loop
       vertex 0.070188431 0.00028998182 -0.020768189
       vertex 0.068921621 0.0034837196 -0.019721817
       vertex 0.071068896 0.00089743074 -0.018383881
    endloop
  endfacet
  facet normal -0.12874576 0.91970288 -0.37090584
    outer loop
       vertex 0.066491554 0.0053753162 -0.017853975
       vertex 0.065668378 0.004220311 -0.020432207
       vertex 0.06335951 0.0051646498 -0.017289177
    endloop
  endfacet
  facet normal -0.050037246 0.99436898 0.093416284
    outer loop
       vertex 0.066491554 0.0053753162 -0.017853975
       vertex 0.06335951 0.0051646498 -0.017289177
       vertex 0.06518432 0.0050092616 -0.014657712
    endloop
  endfacet
  facet normal 0.42450639 0.86344397 0.27250473
    outer loop
       vertex 0.066491554 0.0053753162 -0.017853975
       vertex 0.06518432 0.0050092616 -0.014657712
       vertex 0.068873786 0.0038462991 -0.016720241
    endloop
  endfacet
  facet normal 0.93684054 0.013857278 -0.34948216
    outer loop
       vertex 0.070188431 0.00028998182 -0.020768189
       vertex 0.071068896 0.00089743074 -0.018383881
       vertex 0.070876476 -0.0027099488 -0.019042727
    endloop
  endfacet
  facet normal -0.027578281 0.24454864 -0.96924476
    outer loop
       vertex 0.064323091 0.001570299 -0.022457411
       vertex 0.067410341 0.0012556763 -0.022624635
       vertex 0.064770956 -0.0023878925 -0.023468839
    endloop
  endfacet
  facet normal -0.76708566 0.4994371 -0.40266881
    outer loop
       vertex 0.060390599 0.0032240901 -0.017084898
       vertex 0.061892999 0.0029929943 -0.020233608
       vertex 0.059335746 0.00024594483 -0.018769245
    endloop
  endfacet
  facet normal -0.21708144 0.79128453 0.57161564
    outer loop
       vertex 0.062668405 0.0021847057 -0.01221509
       vertex 0.064036868 0.0028770022 -0.012653734
       vertex 0.061692894 0.0037228054 -0.014714742
    endloop
  endfacet
  facet normal -0.20917028 0.91228714 0.35210789
    outer loop
       vertex 0.061692894 0.0037228054 -0.014714742
       vertex 0.060990892 0.0032375516 -0.013874508
       vertex 0.061152268 0.003123874 -0.013484112
    endloop
  endfacet
  facet normal -0.020875978 0.90254638 0.4300863
    outer loop
       vertex 0.061692894 0.0037228054 -0.014714742
       vertex 0.061152268 0.003123874 -0.013484112
       vertex 0.061431881 0.0030243298 -0.013261644
    endloop
  endfacet
  facet normal -0.017139646 0.84855634 0.52882736
    outer loop
       vertex 0.062262624 0.0024160147 -0.0125994
       vertex 0.062668405 0.0021847057 -0.01221509
       vertex 0.061692894 0.0037228054 -0.014714742
    endloop
  endfacet
  facet normal 0.89359027 0.44745748 0.035752241
    outer loop
       vertex 0.062187789 0.0025748878 -0.012717375
       vertex 0.062262624 0.0024160147 -0.0125994
       vertex 0.061692894 0.0037228054 -0.014714742
    endloop
  endfacet
  facet normal 0.16581053 0.8768491 0.45126769
    outer loop
       vertex 0.061692894 0.0037228054 -0.014714742
       vertex 0.061431881 0.0030243298 -0.013261644
       vertex 0.062010618 0.0027085726 -0.012860749
    endloop
  endfacet
  facet normal 0.30974887 0.8555072 0.41492537
    outer loop
       vertex 0.061692894 0.0037228054 -0.014714742
       vertex 0.062010618 0.0027085726 -0.012860749
       vertex 0.062187789 0.0025748878 -0.012717375
    endloop
  endfacet
  facet normal 0.59464857 0.27765701 0.75451949
    outer loop
       vertex 0.070151754 0.0010045612 -0.015078609
       vertex 0.067321087 0.0024324506 -0.013373168
       vertex 0.068560764 -0.0012901649 -0.012980285
    endloop
  endfacet
  facet normal 0.78721693 -0.16172608 -0.59509174
    outer loop
       vertex 0.070188431 0.00028998182 -0.020768189
       vertex 0.070876476 -0.0027099488 -0.019042727
       vertex 0.06843734 -0.0031572465 -0.022147777
    endloop
  endfacet
  facet normal -0.35530556 0.19347968 -0.91450729
    outer loop
       vertex 0.064323091 0.001570299 -0.022457411
       vertex 0.064770956 -0.0023878925 -0.023468839
       vertex 0.06162694 -0.00076550964 -0.021904079
    endloop
  endfacet
  facet normal -0.9169699 0.38465695 -0.10585479
    outer loop
       vertex 0.060390599 0.0032240901 -0.017084898
       vertex 0.059335746 0.00024594483 -0.018769245
       vertex 0.059148943 0.00065172039 -0.015676544
    endloop
  endfacet
  facet normal 0.17830302 0.25046596 0.95156441
    outer loop
       vertex 0.065041459 -0.00016812684 -0.01204045
       vertex 0.064036868 0.0028770022 -0.012653734
       vertex 0.062668405 0.0021847057 -0.01221509
    endloop
  endfacet
  facet normal 0.22513074 0.36934532 0.90160977
    outer loop
       vertex 0.062668405 0.0021847057 -0.01221509
       vertex 0.062318338 0.0016597878 -0.011912646
       vertex 0.062388643 0.0010275645 -0.01167121
    endloop
  endfacet
  facet normal 0.47562186 0.44008756 0.76164741
    outer loop
       vertex 0.062388643 0.0010275645 -0.01167121
       vertex 0.062349339 0.0005741093 -0.011384655
       vertex 0.062805226 6.2688274e-05 -0.011373836
    endloop
  endfacet
  facet normal 0.30030324 0.36819646 0.87991439
    outer loop
       vertex 0.062805226 6.2688274e-05 -0.011373836
       vertex 0.065041459 -0.00016812684 -0.01204045
       vertex 0.062668405 0.0021847057 -0.01221509
    endloop
  endfacet
  facet normal 0.21686631 0.37181767 0.90261876
    outer loop
       vertex 0.062668405 0.0021847057 -0.01221509
       vertex 0.062388643 0.0010275645 -0.01167121
       vertex 0.062805226 6.2688274e-05 -0.011373836
    endloop
  endfacet
  facet normal 0.79905525 -0.0042211819 0.60124279
    outer loop
       vertex 0.070151754 0.0010045612 -0.015078609
       vertex 0.068560764 -0.0012901649 -0.012980285
       vertex 0.070880223 -0.0022439748 -0.016069555
    endloop
  endfacet
  facet normal 0.25037375 -0.8296046 -0.49906833
    outer loop
       vertex 0.065742624 -0.0056378373 -0.022189106
       vertex 0.068248575 -0.0062986408 -0.019833457
       vertex 0.064391628 -0.0075610309 -0.019669939
    endloop
  endfacet
  facet normal -0.69972888 -0.56516038 -0.43700485
    outer loop
       vertex 0.059583299 -0.0030908891 -0.020323218
       vertex 0.06223988 -0.0051334526 -0.021935352
       vertex 0.060798327 -0.0059336318 -0.01859231
    endloop
  endfacet
  facet normal -0.83472572 -0.39825197 0.38030032
    outer loop
       vertex 0.0597012 -0.0023456145 -0.014077073
       vertex 0.05867536 -0.0029317222 -0.016942477
       vertex 0.060827348 -0.0053227364 -0.014722932
    endloop
  endfacet
  facet normal -0.092447117 -0.56321736 0.82112102
    outer loop
       vertex 0.066130562 -0.0026615175 -0.012392767
       vertex 0.062736757 -0.0026767075 -0.012785282
       vertex 0.06477473 -0.0052442019 -0.014316911
    endloop
  endfacet
  facet normal 0.52607583 -0.78235856 0.33340561
    outer loop
       vertex 0.070075479 -0.0043705297 -0.017646164
       vertex 0.068612286 -0.0040243757 -0.01452514
       vertex 0.067065695 -0.0062922893 -0.017406606
    endloop
  endfacet
  facet normal 0.31710171 -0.80149159 0.50700861
    outer loop
       vertex 0.067065695 -0.0062922893 -0.017406606
       vertex 0.06477473 -0.0052442019 -0.014316911
       vertex 0.063263716 -0.0072199881 -0.016495239
    endloop
  endfacet
  facet normal 0.28784785 -0.82155791 0.49212419
    outer loop
       vertex 0.067065695 -0.0062922893 -0.017406606
       vertex 0.068612286 -0.0040243757 -0.01452514
       vertex 0.06477473 -0.0052442019 -0.014316911
    endloop
  endfacet
  facet normal 0.24803771 -0.65913307 0.70994429
    outer loop
       vertex 0.068612286 -0.0040243757 -0.01452514
       vertex 0.066130562 -0.0026615175 -0.012392767
       vertex 0.06477473 -0.0052442019 -0.014316911
    endloop
  endfacet
  facet normal -0.056872618 -0.71955593 0.6921017
    outer loop
       vertex 0.06477473 -0.0052442019 -0.014316911
       vertex 0.060827348 -0.0053227364 -0.014722932
       vertex 0.063263716 -0.0072199881 -0.016495239
    endloop
  endfacet
  facet normal -0.074291517 -0.55373029 0.82937539
    outer loop
       vertex 0.06477473 -0.0052442019 -0.014316911
       vertex 0.062736757 -0.0026767075 -0.012785282
       vertex 0.060827348 -0.0053227364 -0.014722932
    endloop
  endfacet
  facet normal -0.39959084 -0.33616584 0.8528304
    outer loop
       vertex 0.062736757 -0.0026767075 -0.012785282
       vertex 0.0597012 -0.0023456145 -0.014077073
       vertex 0.060827348 -0.0053227364 -0.014722932
    endloop
  endfacet
  facet normal -0.54598249 -0.82690597 0.13464636
    outer loop
       vertex 0.060827348 -0.0053227364 -0.014722932
       vertex 0.060798327 -0.0059336318 -0.01859231
       vertex 0.063263716 -0.0072199881 -0.016495239
    endloop
  endfacet
  facet normal -0.7847712 -0.6112691 0.10239263
    outer loop
       vertex 0.060827348 -0.0053227364 -0.014722932
       vertex 0.05867536 -0.0029317222 -0.016942477
       vertex 0.060798327 -0.0059336318 -0.01859231
    endloop
  endfacet
  facet normal -0.84869415 -0.48754921 -0.20497318
    outer loop
       vertex 0.05867536 -0.0029317222 -0.016942477
       vertex 0.059583299 -0.0030908891 -0.020323218
       vertex 0.060798327 -0.0059336318 -0.01859231
    endloop
  endfacet
  facet normal -0.42536747 -0.90340368 -0.054076892
    outer loop
       vertex 0.060798327 -0.0059336318 -0.01859231
       vertex 0.064391628 -0.0075610309 -0.019669939
       vertex 0.063263716 -0.0072199881 -0.016495239
    endloop
  endfacet
  facet normal -0.47457761 -0.78753631 -0.39314457
    outer loop
       vertex 0.060798327 -0.0059336318 -0.01859231
       vertex 0.06223988 -0.0051334526 -0.021935352
       vertex 0.064391628 -0.0075610309 -0.019669939
    endloop
  endfacet
  facet normal -0.15421519 -0.74371079 -0.65047055
    outer loop
       vertex 0.06223988 -0.0051334526 -0.021935352
       vertex 0.065742624 -0.0056378373 -0.022189106
       vertex 0.064391628 -0.0075610309 -0.019669939
    endloop
  endfacet
  facet normal 0.27714616 -0.93990215 0.19943407
    outer loop
       vertex 0.064391628 -0.0075610309 -0.019669939
       vertex 0.067065695 -0.0062922893 -0.017406606
       vertex 0.063263716 -0.0072199881 -0.016495239
    endloop
  endfacet
  facet normal 0.3132336 -0.93692075 0.15512649
    outer loop
       vertex 0.064391628 -0.0075610309 -0.019669939
       vertex 0.068248575 -0.0062986408 -0.019833457
       vertex 0.067065695 -0.0062922893 -0.017406606
    endloop
  endfacet
  facet normal 0.53405084 -0.80369905 0.2624072
    outer loop
       vertex 0.068248575 -0.0062986408 -0.019833457
       vertex 0.070075479 -0.0043705297 -0.017646164
       vertex 0.067065695 -0.0062922893 -0.017406606
    endloop
  endfacet
  facet normal 0.71879001 -0.56859883 0.40004536
    outer loop
       vertex 0.070880223 -0.0022439748 -0.016069555
       vertex 0.068612286 -0.0040243757 -0.01452514
       vertex 0.070075479 -0.0043705297 -0.017646164
    endloop
  endfacet
  facet normal 0.69750101 -0.34249423 0.62943629
    outer loop
       vertex 0.070880223 -0.0022439748 -0.016069555
       vertex 0.068560764 -0.0012901649 -0.012980285
       vertex 0.068612286 -0.0040243757 -0.01452514
    endloop
  endfacet
  facet normal 0.43645131 -0.43634616 0.78683688
    outer loop
       vertex 0.068560764 -0.0012901649 -0.012980285
       vertex 0.066130562 -0.0026615175 -0.012392767
       vertex 0.068612286 -0.0040243757 -0.01452514
    endloop
  endfacet
  facet normal -0.11204203 -0.18684574 0.97597913
    outer loop
       vertex 0.065041459 -0.00016812684 -0.01204045
       vertex 0.062736757 -0.0026767075 -0.012785282
       vertex 0.066130562 -0.0026615175 -0.012392767
    endloop
  endfacet
  facet normal 0.21170477 -0.45181333 0.86662899
    outer loop
       vertex 0.062736757 -0.0026767075 -0.012785282
       vertex 0.065041459 -0.00016812684 -0.01204045
       vertex 0.062805226 6.2688274e-05 -0.011373836
    endloop
  endfacet
  facet normal 0.16824731 -0.24557921 0.95466418
    outer loop
       vertex 0.062805226 6.2688274e-05 -0.011373836
       vertex 0.062060825 -0.00030223554 -0.011336519
       vertex 0.061693449 -0.00075790171 -0.01138899
    endloop
  endfacet
  facet normal 0.43732505 -0.5074448 0.74245981
    outer loop
       vertex 0.061693449 -0.00075790171 -0.01138899
       vertex 0.061469499 -0.0010858227 -0.0114812
       vertex 0.061623261 -0.0014775278 -0.011839486
    endloop
  endfacet
  facet normal 0.24635646 -0.44876098 0.85902391
    outer loop
       vertex 0.061623261 -0.0014775278 -0.011839486
       vertex 0.062736757 -0.0026767075 -0.012785282
       vertex 0.062805226 6.2688274e-05 -0.011373836
    endloop
  endfacet
  facet normal 0.37207303 -0.51832244 0.77000227
    outer loop
       vertex 0.062805226 6.2688274e-05 -0.011373836
       vertex 0.061693449 -0.00075790171 -0.01138899
       vertex 0.061623261 -0.0014775278 -0.011839486
    endloop
  endfacet
  facet normal -0.94184162 0.0057701979 0.33600755
    outer loop
       vertex 0.059148943 0.00065172039 -0.015676544
       vertex 0.05867536 -0.0029317222 -0.016942477
       vertex 0.0597012 -0.0023456145 -0.014077073
    endloop
  endfacet
  facet normal -0.98411054 0.15839983 -0.080224265
    outer loop
       vertex 0.059148943 0.00065172039 -0.015676544
       vertex 0.059335746 0.00024594483 -0.018769245
       vertex 0.05867536 -0.0029317222 -0.016942477
    endloop
  endfacet
  facet normal -0.96396855 0.050148334 -0.26124658
    outer loop
       vertex 0.059335746 0.00024594483 -0.018769245
       vertex 0.059583299 -0.0030908891 -0.020323218
       vertex 0.05867536 -0.0029317222 -0.016942477
    endloop
  endfacet
  facet normal -0.55747855 -0.072308023 -0.82703641
    outer loop
       vertex 0.06162694 -0.00076550964 -0.021904079
       vertex 0.06223988 -0.0051334526 -0.021935352
       vertex 0.059583299 -0.0030908891 -0.020323218
    endloop
  endfacet
  facet normal -0.46922573 -0.059536919 -0.881069
    outer loop
       vertex 0.06162694 -0.00076550964 -0.021904079
       vertex 0.064770956 -0.0023878925 -0.023468839
       vertex 0.06223988 -0.0051334526 -0.021935352
    endloop
  endfacet
  facet normal -0.12285676 -0.39519807 -0.91034318
    outer loop
       vertex 0.064770956 -0.0023878925 -0.023468839
       vertex 0.065742624 -0.0056378373 -0.022189106
       vertex 0.06223988 -0.0051334526 -0.021935352
    endloop
  endfacet
  facet normal 0.50082643 -0.53269163 -0.68221149
    outer loop
       vertex 0.06843734 -0.0031572465 -0.022147777
       vertex 0.068248575 -0.0062986408 -0.019833457
       vertex 0.065742624 -0.0056378373 -0.022189106
    endloop
  endfacet
  facet normal 0.73986538 -0.42728613 -0.51964005
    outer loop
       vertex 0.06843734 -0.0031572465 -0.022147777
       vertex 0.070876476 -0.0027099488 -0.019042727
       vertex 0.068248575 -0.0062986408 -0.019833457
    endloop
  endfacet
  facet normal 0.81154089 -0.55216428 -0.19109159
    outer loop
       vertex 0.070876476 -0.0027099488 -0.019042727
       vertex 0.070075479 -0.0043705297 -0.017646164
       vertex 0.068248575 -0.0062986408 -0.019833457
    endloop
  endfacet
  facet normal 0.24965031 -0.027723982 0.9679391
    outer loop
       vertex 0.068560764 -0.0012901649 -0.012980285
       vertex 0.065041459 -0.00016812684 -0.01204045
       vertex 0.066130562 -0.0026615175 -0.012392767
    endloop
  endfacet
  facet normal 0.31228711 0.20196475 0.92827097
    outer loop
       vertex 0.068560764 -0.0012901649 -0.012980285
       vertex 0.067321087 0.0024324506 -0.013373168
       vertex 0.065041459 -0.00016812684 -0.01204045
    endloop
  endfacet
  facet normal 0.24058338 0.26729343 0.93309906
    outer loop
       vertex 0.067321087 0.0024324506 -0.013373168
       vertex 0.064036868 0.0028770022 -0.012653734
       vertex 0.065041459 -0.00016812684 -0.01204045
    endloop
  endfacet
  facet normal -0.77734242 0.54614162 0.31219882
    outer loop
       vertex 0.061692894 0.0037228054 -0.014714742
       vertex 0.060390599 0.0032240901 -0.017084898
       vertex 0.059148943 0.00065172039 -0.015676544
    endloop
  endfacet
  facet normal -0.7473775 0.23411997 -0.62178349
    outer loop
       vertex 0.059335746 0.00024594483 -0.018769245
       vertex 0.06162694 -0.00076550964 -0.021904079
       vertex 0.059583299 -0.0030908891 -0.020323218
    endloop
  endfacet
  facet normal -0.70931921 0.32760742 -0.62413111
    outer loop
       vertex 0.059335746 0.00024594483 -0.018769245
       vertex 0.061892999 0.0029929943 -0.020233608
       vertex 0.06162694 -0.00076550964 -0.021904079
    endloop
  endfacet
  facet normal -0.49186627 0.38245619 -0.78217315
    outer loop
       vertex 0.061892999 0.0029929943 -0.020233608
       vertex 0.064323091 0.001570299 -0.022457411
       vertex 0.06162694 -0.00076550964 -0.021904079
    endloop
  endfacet
  facet normal 0.27263813 -0.28084062 -0.92021573
    outer loop
       vertex 0.064770956 -0.0023878925 -0.023468839
       vertex 0.06843734 -0.0031572465 -0.022147777
       vertex 0.065742624 -0.0056378373 -0.022189106
    endloop
  endfacet
  facet normal 0.33442989 -0.023974216 -0.94211564
    outer loop
       vertex 0.064770956 -0.0023878925 -0.023468839
       vertex 0.067410341 0.0012556763 -0.022624635
       vertex 0.06843734 -0.0031572465 -0.022147777
    endloop
  endfacet
  facet normal 0.56528563 0.042537128 -0.82379776
    outer loop
       vertex 0.067410341 0.0012556763 -0.022624635
       vertex 0.070188431 0.00028998182 -0.020768189
       vertex 0.06843734 -0.0031572465 -0.022147777
    endloop
  endfacet
  facet normal 0.91795419 -0.39207774 0.060292253
    outer loop
       vertex 0.070876476 -0.0027099488 -0.019042727
       vertex 0.070880223 -0.0022439748 -0.016069555
       vertex 0.070075479 -0.0043705297 -0.017646164
    endloop
  endfacet
  facet normal 0.99848205 -0.054592458 0.0072979982
    outer loop
       vertex 0.070876476 -0.0027099488 -0.019042727
       vertex 0.071068896 0.00089743074 -0.018383881
       vertex 0.070880223 -0.0022439748 -0.016069555
    endloop
  endfacet
  facet normal 0.95591684 0.1347805 0.26087777
    outer loop
       vertex 0.071068896 0.00089743074 -0.018383881
       vertex 0.070151754 0.0010045612 -0.015078609
       vertex 0.070880223 -0.0022439748 -0.016069555
    endloop
  endfacet
  facet normal 0.61436576 0.58325891 0.5313791
    outer loop
       vertex 0.068873786 0.0038462991 -0.016720241
       vertex 0.067321087 0.0024324506 -0.013373168
       vertex 0.070151754 0.0010045612 -0.015078609
    endloop
  endfacet
  facet normal 0.50844049 0.68301805 0.52438023
    outer loop
       vertex 0.068873786 0.0038462991 -0.016720241
       vertex 0.06518432 0.0050092616 -0.014657712
       vertex 0.067321087 0.0024324506 -0.013373168
    endloop
  endfacet
  facet normal 0.24819452 0.58914174 0.76896781
    outer loop
       vertex 0.06518432 0.0050092616 -0.014657712
       vertex 0.064036868 0.0028770022 -0.012653734
       vertex 0.067321087 0.0024324506 -0.013373168
    endloop
  endfacet
  facet normal -0.2802628 0.73316126 0.61961869
    outer loop
       vertex 0.06518432 0.0050092616 -0.014657712
       vertex 0.061692894 0.0037228054 -0.014714742
       vertex 0.064036868 0.0028770022 -0.012653734
    endloop
  endfacet
  facet normal -0.33544028 0.89771865 0.28562395
    outer loop
       vertex 0.06518432 0.0050092616 -0.014657712
       vertex 0.06335951 0.0051646498 -0.017289177
       vertex 0.061692894 0.0037228054 -0.014714742
    endloop
  endfacet
  facet normal -0.53741103 0.83479208 0.11963098
    outer loop
       vertex 0.06335951 0.0051646498 -0.017289177
       vertex 0.060390599 0.0032240901 -0.017084898
       vertex 0.061692894 0.0037228054 -0.014714742
    endloop
  endfacet
  facet normal -0.53466114 0.78507091 -0.31273172
    outer loop
       vertex 0.06335951 0.0051646498 -0.017289177
       vertex 0.061892999 0.0029929943 -0.020233608
       vertex 0.060390599 0.0032240901 -0.017084898
    endloop
  endfacet
  facet normal -0.29545348 0.83322149 -0.46738548
    outer loop
       vertex 0.06335951 0.0051646498 -0.017289177
       vertex 0.065668378 0.004220311 -0.020432207
       vertex 0.061892999 0.0029929943 -0.020233608
    endloop
  endfacet
  facet normal -0.25322003 0.66528796 -0.70233293
    outer loop
       vertex 0.065668378 0.004220311 -0.020432207
       vertex 0.064323091 0.001570299 -0.022457411
       vertex 0.061892999 0.0029929943 -0.020233608
    endloop
  endfacet
  facet normal 0.83766126 0.50158928 0.2161754
    outer loop
       vertex 0.071068896 0.00089743074 -0.018383881
       vertex 0.068873786 0.0038462991 -0.016720241
       vertex 0.070151754 0.0010045612 -0.015078609
    endloop
  endfacet
  facet normal 0.78347416 0.61830337 -0.062202759
    outer loop
       vertex 0.071068896 0.00089743074 -0.018383881
       vertex 0.068921621 0.0034837196 -0.019721817
       vertex 0.068873786 0.0038462991 -0.016720241
    endloop
  endfacet
  facet normal 0.56788348 0.81819741 -0.089785045
    outer loop
       vertex 0.068921621 0.0034837196 -0.019721817
       vertex 0.066491554 0.0053753162 -0.017853975
       vertex 0.068873786 0.0038462991 -0.016720241
    endloop
  endfacet
  facet normal 0.01801268 0.60132144 -0.79880415
    outer loop
       vertex 0.065668378 0.004220311 -0.020432207
       vertex 0.067410341 0.0012556763 -0.022624635
       vertex 0.064323091 0.001570299 -0.022457411
    endloop
  endfacet
  facet normal 0.30002177 0.67487113 -0.67419278
    outer loop
       vertex 0.065668378 0.004220311 -0.020432207
       vertex 0.068921621 0.0034837196 -0.019721817
       vertex 0.067410341 0.0012556763 -0.022624635
    endloop
  endfacet
  facet normal 0.59876646 0.45374026 -0.65999886
    outer loop
       vertex 0.068921621 0.0034837196 -0.019721817
       vertex 0.070188431 0.00028998182 -0.020768189
       vertex 0.067410341 0.0012556763 -0.022624635
    endloop
  endfacet
  facet normal -0.31591362 -0.83718952 0.44644406
    outer loop
       vertex 0.059917804 -0.0017900496 -0.012791527
       vertex 0.060200411 -0.0017699476 -0.012553853
       vertex 0.059778815 -0.0016080491 -0.012548585
    endloop
  endfacet
  facet normal -0.80184239 0.43868192 -0.40571783
    outer loop
       vertex 0.059148943 0.00065172039 -0.015676544
       vertex 0.058800494 0.00074155591 -0.014890751
       vertex 0.058832212 0.0010420478 -0.01462853
    endloop
  endfacet
  facet normal -0.82941445 0.39298572 -0.39703135
    outer loop
       vertex 0.059148943 0.00065172039 -0.015676544
       vertex 0.058832212 0.0010420478 -0.01462853
       vertex 0.059163386 0.0016237644 -0.014744576
    endloop
  endfacet
  facet normal -0.71731458 0.66212432 -0.21691284
    outer loop
       vertex 0.060990892 0.0032375516 -0.013874508
       vertex 0.061692894 0.0037228054 -0.014714742
       vertex 0.059148943 0.00065172039 -0.015676544
    endloop
  endfacet
  facet normal -0.37662803 0.85130786 -0.36527559
    outer loop
       vertex 0.059861565 0.002477407 -0.014481669
       vertex 0.060357861 0.0029098659 -0.013985504
       vertex 0.060990892 0.0032375516 -0.013874508
    endloop
  endfacet
  facet normal -0.65581563 0.5275127 -0.54003352
    outer loop
       vertex 0.059148943 0.00065172039 -0.015676544
       vertex 0.059163386 0.0016237644 -0.014744576
       vertex 0.059488572 0.0020858907 -0.01468807
    endloop
  endfacet
  facet normal 0.45366061 0.037207493 -0.89039747
    outer loop
       vertex 0.059488572 0.0020858907 -0.01468807
       vertex 0.059861565 0.002477407 -0.014481669
       vertex 0.060990892 0.0032375516 -0.013874508
    endloop
  endfacet
  facet normal 0.013283095 0.56531122 -0.82477075
    outer loop
       vertex 0.059488572 0.0020858907 -0.01468807
       vertex 0.060990892 0.0032375516 -0.013874508
       vertex 0.059148943 0.00065172039 -0.015676544
    endloop
  endfacet
  facet normal 0.1910649 0.86677196 0.46065234
    outer loop
       vertex 0.061089541 0.0030619179 -0.013143575
       vertex 0.061865266 0.0026256555 -0.012644443
       vertex 0.062010618 0.0027085726 -0.012860749
    endloop
  endfacet
  facet normal 0.22857011 0.89757179 0.37698884
    outer loop
       vertex 0.062010618 0.0027085726 -0.012860749
       vertex 0.061431881 0.0030243298 -0.013261644
       vertex 0.061089541 0.0030619179 -0.013143575
    endloop
  endfacet
  facet normal -0.079476709 -0.66176537 0.74548645
    outer loop
       vertex 0.062736757 -0.0026767075 -0.012785282
       vertex 0.061623261 -0.0014775278 -0.011839486
       vertex 0.060782499 -0.0015248731 -0.011971148
    endloop
  endfacet
  facet normal 0.32806916 -0.89067242 -0.31475905
    outer loop
       vertex 0.060200411 -0.0017699476 -0.012553853
       vertex 0.059917804 -0.0017900496 -0.012791527
       vertex 0.059567408 -0.0017641642 -0.013229988
    endloop
  endfacet
  facet normal -0.23168736 -0.79216953 0.5646135
    outer loop
       vertex 0.062736757 -0.0026767075 -0.012785282
       vertex 0.060782499 -0.0015248731 -0.011971148
       vertex 0.060200411 -0.0017699476 -0.012553853
    endloop
  endfacet
  facet normal -0.30346094 -0.80726883 0.50619018
    outer loop
       vertex 0.059567408 -0.0017641642 -0.013229988
       vertex 0.0597012 -0.0023456145 -0.014077073
       vertex 0.062736757 -0.0026767075 -0.012785282
    endloop
  endfacet
  facet normal -0.30142353 -0.91315782 0.27438414
    outer loop
       vertex 0.060200411 -0.0017699476 -0.012553853
       vertex 0.059567408 -0.0017641642 -0.013229988
       vertex 0.062736757 -0.0026767075 -0.012785282
    endloop
  endfacet
  facet normal -0.51913751 0.72942046 -0.44546833
    outer loop
       vertex 0.059861565 0.002477407 -0.014481669
       vertex 0.059488572 0.0020858907 -0.01468807
       vertex 0.059260937 0.0021593589 -0.014302491
    endloop
  endfacet
  facet normal -0.82711047 -0.51574368 0.22337574
    outer loop
       vertex 0.0597012 -0.0023456145 -0.014077073
       vertex 0.059567408 -0.0017641642 -0.013229988
       vertex 0.059227132 -0.0013602908 -0.013557466
    endloop
  endfacet
  facet normal -0.88784714 -0.45671488 0.056026557
    outer loop
       vertex 0.0597012 -0.0023456145 -0.014077073
       vertex 0.059227132 -0.0013602908 -0.013557466
       vertex 0.059045841 -0.0010475415 -0.013880909
    endloop
  endfacet
  facet normal -0.87176725 -0.34581286 -0.34703793
    outer loop
       vertex 0.058800494 0.00074155591 -0.014890751
       vertex 0.059148943 0.00065172039 -0.015676544
       vertex 0.0597012 -0.0023456145 -0.014077073
    endloop
  endfacet
  facet normal -0.46085224 -0.39616586 -0.79414597
    outer loop
       vertex 0.058804578 -0.00032847997 -0.014359325
       vertex 0.058742574 0.00020558279 -0.014589765
       vertex 0.058800494 0.00074155591 -0.014890751
    endloop
  endfacet
  facet normal -0.88831923 -0.42064235 -0.18425244
    outer loop
       vertex 0.0597012 -0.0023456145 -0.014077073
       vertex 0.059045841 -0.0010475415 -0.013880909
       vertex 0.058804578 -0.00032847997 -0.014359325
    endloop
  endfacet
  facet normal -0.58647697 -0.36207262 -0.72453308
    outer loop
       vertex 0.058804578 -0.00032847997 -0.014359325
       vertex 0.058800494 0.00074155591 -0.014890751
       vertex 0.0597012 -0.0023456145 -0.014077073
    endloop
  endfacet
  facet normal 0.26340471 0.6520208 0.71097597
    outer loop
       vertex 0.062262624 0.0024160147 -0.0125994
       vertex 0.062187789 0.0025748878 -0.012717375
       vertex 0.061865266 0.0026256555 -0.012644443
    endloop
  endfacet
  facet normal -0.074150819 -0.68876271 0.72118485
    outer loop
       vertex 0.060782499 -0.0015248731 -0.011971148
       vertex 0.061623261 -0.0014775278 -0.011839486
       vertex 0.061469499 -0.0010858227 -0.0114812
    endloop
  endfacet
  facet normal -0.051098819 -0.70708468 0.7052802
    outer loop
       vertex 0.061469499 -0.0010858227 -0.0114812
       vertex 0.060359005 -0.0011764701 -0.011652537
       vertex 0.060782499 -0.0015248731 -0.011971148
    endloop
  endfacet
  facet normal 0.23167864 0.36942667 0.89991607
    outer loop
       vertex 0.062388643 0.0010275645 -0.01167121
       vertex 0.062318338 0.0016597878 -0.011912646
       vertex 0.061417969 0.0018760415 -0.011769626
    endloop
  endfacet
  facet normal 0.19279672 0.32783743 0.92485245
    outer loop
       vertex 0.061417969 0.0018760415 -0.011769626
       vertex 0.06180686 0.00056107875 -0.011384573
       vertex 0.062388643 0.0010275645 -0.01167121
    endloop
  endfacet
  facet normal 0.24192363 0.84052106 0.4847652
    outer loop
       vertex 0.062187789 0.0025748878 -0.012717375
       vertex 0.062010618 0.0027085726 -0.012860749
       vertex 0.061865266 0.0026256555 -0.012644443
    endloop
  endfacet
  facet normal -0.88943424 -0.26419444 -0.37297189
    outer loop
       vertex 0.058742574 0.00020558279 -0.014589765
       vertex 0.058804578 -0.00032847997 -0.014359325
       vertex 0.058598756 -0.00010022377 -0.014030181
    endloop
  endfacet
  facet normal -0.012720934 0.5349531 0.84478598
    outer loop
       vertex 0.062349339 0.0005741093 -0.011384655
       vertex 0.062388643 0.0010275645 -0.01167121
       vertex 0.06180686 0.00056107875 -0.011384573
    endloop
  endfacet
  facet normal -0.11372733 -0.19620195 0.97394604
    outer loop
       vertex 0.061469499 -0.0010858227 -0.0114812
       vertex 0.061693449 -0.00075790171 -0.01138899
       vertex 0.060911627 -0.0003090958 -0.01138987
    endloop
  endfacet
  facet normal -0.13242671 -0.20903907 0.96889929
    outer loop
       vertex 0.060911627 -0.0003090958 -0.01138987
       vertex 0.060359005 -0.0011764701 -0.011652537
       vertex 0.061469499 -0.0010858227 -0.0114812
    endloop
  endfacet
  facet normal -0.22946425 -0.79388264 0.56311324
    outer loop
       vertex 0.060200411 -0.0017699476 -0.012553853
       vertex 0.060782499 -0.0015248731 -0.011971148
       vertex 0.060359005 -0.0011764701 -0.011652537
    endloop
  endfacet
  facet normal -0.29055447 -0.77489098 0.56135735
    outer loop
       vertex 0.060359005 -0.0011764701 -0.011652537
       vertex 0.059778815 -0.0016080491 -0.012548585
       vertex 0.060200411 -0.0017699476 -0.012553853
    endloop
  endfacet
  facet normal 0.027629418 0.045754216 0.99857056
    outer loop
       vertex 0.062060825 -0.00030223554 -0.011336519
       vertex 0.062805226 6.2688274e-05 -0.011373836
       vertex 0.062349339 0.0005741093 -0.011384655
    endloop
  endfacet
  facet normal -0.0011744091 0.05523177 0.99847287
    outer loop
       vertex 0.062349339 0.0005741093 -0.011384655
       vertex 0.06180686 0.00056107875 -0.011384573
       vertex 0.062060825 -0.00030223554 -0.011336519
    endloop
  endfacet
endsolid ExportedfromBlender-2.79(sub0)
