solid ./constant/triSurface/rectangle_025.stl
facet normal 0.000000 0.000000 -0.001920
  outer loop
    vertex 0.247000 -0.123333 -0.005000
    vertex 0.247000 -0.003333 -0.005000
    vertex 0.263000 -0.123333 -0.005000
  endloop
endfacet
facet normal 0.000000 0.000000 -0.001920
  outer loop
    vertex 0.263000 -0.123333 -0.005000
    vertex 0.247000 -0.003333 -0.005000
    vertex 0.263000 -0.003333 -0.005000
  endloop
endfacet
facet normal 0.000000 0.000000 0.001920
  outer loop
    vertex 0.247000 -0.123333 0.005000
    vertex 0.263000 -0.123333 0.005000
    vertex 0.247000 -0.003333 0.005000
  endloop
endfacet
facet normal -0.000000 0.000000 0.001920
  outer loop
    vertex 0.247000 -0.003333 0.005000
    vertex 0.263000 -0.123333 0.005000
    vertex 0.263000 -0.003333 0.005000
  endloop
endfacet
facet normal 0.000000 -0.000160 0.000000
  outer loop
    vertex 0.247000 -0.123333 -0.005000
    vertex 0.263000 -0.123333 -0.005000
    vertex 0.247000 -0.123333 0.005000
  endloop
endfacet
facet normal 0.000000 -0.000160 0.000000
  outer loop
    vertex 0.263000 -0.123333 -0.005000
    vertex 0.263000 -0.123333 0.005000
    vertex 0.247000 -0.123333 0.005000
  endloop
endfacet
facet normal 0.000000 0.000160 -0.000000
  outer loop
    vertex 0.263000 -0.003333 -0.005000
    vertex 0.247000 -0.003333 -0.005000
    vertex 0.263000 -0.003333 0.005000
  endloop
endfacet
facet normal 0.000000 0.000160 0.000000
  outer loop
    vertex 0.247000 -0.003333 -0.005000
    vertex 0.247000 -0.003333 0.005000
    vertex 0.263000 -0.003333 0.005000
  endloop
endfacet
facet normal -0.001200 0.000000 0.000000
  outer loop
    vertex 0.247000 -0.123333 -0.005000
    vertex 0.247000 -0.123333 0.005000
    vertex 0.247000 -0.003333 -0.005000
  endloop
endfacet
facet normal -0.001200 0.000000 0.000000
  outer loop
    vertex 0.247000 -0.003333 -0.005000
    vertex 0.247000 -0.123333 0.005000
    vertex 0.247000 -0.003333 0.005000
  endloop
endfacet
facet normal 0.001200 0.000000 0.000000
  outer loop
    vertex 0.263000 -0.123333 -0.005000
    vertex 0.263000 -0.003333 -0.005000
    vertex 0.263000 -0.123333 0.005000
  endloop
endfacet
facet normal 0.001200 0.000000 -0.000000
  outer loop
    vertex 0.263000 -0.003333 -0.005000
    vertex 0.263000 -0.003333 0.005000
    vertex 0.263000 -0.123333 0.005000
  endloop
endfacet
endsolid ./constant/triSurface/rectangle_025.stl
