solid ExportedfromBlender-2.79(sub0)
  facet normal 0.89049724 0.44592725 -0.09035242
    outer loop
       vertex 0.020179369 0.0026684669 0.004014139
       vertex 0.020278816 0.0025440617 0.0043802811
       vertex 0.020354064 0.0023259157 0.0040452702
    endloop
  endfacet
  facet normal 0.80570905 0.36877424 -0.46350674
    outer loop
       vertex 0.01965058 0.0023271012 0.0028233532
       vertex 0.020179369 0.0026684669 0.004014139
       vertex 0.020354064 0.0023259157 0.0040452702
    endloop
  endfacet
  facet normal 0.47939446 0.58609324 -0.65320415
    outer loop
       vertex 0.020354064 0.0023259157 0.0040452702
       vertex 0.020525708 0.0019372211 0.0038224822
       vertex 0.020027224 0.0017091488 0.0032519987
    endloop
  endfacet
  facet normal 0.85266509 0.1793098 -0.49072419
    outer loop
       vertex 0.020354064 0.0023259157 0.0040452702
       vertex 0.020027224 0.0017091488 0.0032519987
       vertex 0.01965058 0.0023271012 0.0028233532
    endloop
  endfacet
  facet normal 0.70989948 0.52765016 -0.4665062
    outer loop
       vertex 0.020179369 0.0026684669 0.004014139
       vertex 0.01965058 0.0023271012 0.0028233532
       vertex 0.019554732 0.0032616688 0.0037345575
    endloop
  endfacet
  facet normal 0.70349419 0.70710064 -0.071446539
    outer loop
       vertex 0.020179369 0.0026684669 0.004014139
       vertex 0.019554732 0.0032616688 0.0037345575
       vertex 0.019839823 0.0031045996 0.0049871911
    endloop
  endfacet
  facet normal 0.19512548 -0.18574754 -0.9630285
    outer loop
       vertex 0.018671528 0.0018514607 0.0021060159
       vertex 0.019011476 0.0011317032 0.0023137207
       vertex 0.017583211 0.0013011311 0.0019916518
    endloop
  endfacet
  facet normal 0.27091384 0.80262263 -0.53141566
    outer loop
       vertex 0.018486698 0.0035907752 0.003528358
       vertex 0.018721134 0.002927684 0.0026463745
       vertex 0.017296215 0.0035780579 0.0029022467
    endloop
  endfacet
  facet normal 0.11685025 -0.02475733 -0.99284092
    outer loop
       vertex 0.018671528 0.0018514607 0.0021060159
       vertex 0.017583211 0.0013011311 0.0019916518
       vertex 0.017432029 0.0023197978 0.0019484574
    endloop
  endfacet
  facet normal 0.066721228 0.98689724 -0.14690853
    outer loop
       vertex 0.018486698 0.0035907752 0.003528358
       vertex 0.017296215 0.0035780579 0.0029022467
       vertex 0.017328492 0.0037738931 0.0042324807
    endloop
  endfacet
  facet normal -0.59838767 -0.36157326 -0.7149804
    outer loop
       vertex 0.016435598 0.00078190875 0.0023232131
       vertex 0.016356263 0.00037686565 0.0025944459
       vertex 0.015569818 0.00069625973 0.0030911231
    endloop
  endfacet
  facet normal -0.62574563 -0.26197976 -0.73471696
    outer loop
       vertex 0.015569818 0.00069625973 0.0030911231
       vertex 0.015370085 0.0012616051 0.0030596454
       vertex 0.016435598 0.00078190875 0.0023232131
    endloop
  endfacet
  facet normal -0.48261581 0.36951236 -0.79406712
    outer loop
       vertex 0.016152177 0.0027608258 0.0025627489
       vertex 0.016053791 0.0019312631 0.0022365158
       vertex 0.015100317 0.0026453891 0.0031483279
    endloop
  endfacet
  facet normal -0.48263616 0.87561928 0.01879383
    outer loop
       vertex 0.016221105 0.0036036518 0.0049429678
       vertex 0.015900488 0.0034564973 0.0035653682
       vertex 0.015239776 0.003069775 0.0046156165
    endloop
  endfacet
  facet normal -0.94468785 0.32793181 -0.0050599759
    outer loop
       vertex 0.015239776 0.003069775 0.0046156165
       vertex 0.015100317 0.0026453891 0.0031483279
       vertex 0.014864821 0.0019816075 0.004096083
    endloop
  endfacet
  facet normal -0.66472802 0.73216071 -0.14858452
    outer loop
       vertex 0.015239776 0.003069775 0.0046156165
       vertex 0.015900488 0.0034564973 0.0035653682
       vertex 0.015100317 0.0026453891 0.0031483279
    endloop
  endfacet
  facet normal -0.40412539 0.70087631 -0.58775426
    outer loop
       vertex 0.015900488 0.0034564973 0.0035653682
       vertex 0.016152177 0.0027608258 0.0025627489
       vertex 0.015100317 0.0026453891 0.0031483279
    endloop
  endfacet
  facet normal -0.9264301 -0.15873 -0.34136791
    outer loop
       vertex 0.015100317 0.0026453891 0.0031483279
       vertex 0.015370085 0.0012616051 0.0030596454
       vertex 0.014864821 0.0019816075 0.004096083
    endloop
  endfacet
  facet normal -0.72507252 -0.09766379 -0.68171227
    outer loop
       vertex 0.015100317 0.0026453891 0.0031483279
       vertex 0.016053791 0.0019312631 0.0022365158
       vertex 0.015370085 0.0012616051 0.0030596454
    endloop
  endfacet
  facet normal -0.62591412 -0.26329841 -0.73410181
    outer loop
       vertex 0.016053791 0.0019312631 0.0022365158
       vertex 0.016435598 0.00078190875 0.0023232131
       vertex 0.015370085 0.0012616051 0.0030596454
    endloop
  endfacet
  facet normal -0.90435301 -0.021025751 -0.426267
    outer loop
       vertex 0.014864821 0.0019816075 0.004096083
       vertex 0.015370085 0.0012616051 0.0030596454
       vertex 0.015220047 0.00096014824 0.0033928309
    endloop
  endfacet
  facet normal -0.51630079 0.52849557 -0.67388867
    outer loop
       vertex 0.015220047 0.00096014824 0.0033928309
       vertex 0.014825589 0.0012086351 0.0038899211
       vertex 0.014788521 0.0016785265 0.0042868316
    endloop
  endfacet
  facet normal -0.90978869 -0.031445011 -0.41387891
    outer loop
       vertex 0.015220047 0.00096014824 0.0033928309
       vertex 0.014788521 0.0016785265 0.0042868316
       vertex 0.014864821 0.0019816075 0.004096083
    endloop
  endfacet
  facet normal -0.74203127 -0.2956535 -0.60164658
    outer loop
       vertex 0.015370085 0.0012616051 0.0030596454
       vertex 0.015569818 0.00069625973 0.0030911231
       vertex 0.015220047 0.00096014824 0.0033928309
    endloop
  endfacet
  facet normal -0.25092584 0.96715918 0.040488793
    outer loop
       vertex 0.017380806 0.0038762776 0.005617875
       vertex 0.016221105 0.0036036518 0.0049429678
       vertex 0.016005786 0.0035075929 0.0059031089
    endloop
  endfacet
  facet normal -0.27830287 0.95440532 -0.10797222
    outer loop
       vertex 0.016005786 0.0035075929 0.0059031089
       vertex 0.016568288 0.003699793 0.0061521615
       vertex 0.017380806 0.0038762776 0.005617875
    endloop
  endfacet
  facet normal -0.18952295 0.98000599 -0.060574853
    outer loop
       vertex 0.017328492 0.0037738931 0.0042324807
       vertex 0.015900488 0.0034564973 0.0035653682
       vertex 0.016221105 0.0036036518 0.0049429678
    endloop
  endfacet
  facet normal -0.15189357 0.97838137 -0.1403504
    outer loop
       vertex 0.017328492 0.0037738931 0.0042324807
       vertex 0.017296215 0.0035780579 0.0029022467
       vertex 0.015900488 0.0034564973 0.0035653682
    endloop
  endfacet
  facet normal -0.34471367 0.7284948 -0.59200322
    outer loop
       vertex 0.017296215 0.0035780579 0.0029022467
       vertex 0.016152177 0.0027608258 0.0025627489
       vertex 0.015900488 0.0034564973 0.0035653682
    endloop
  endfacet
  facet normal -0.29062901 0.37983442 -0.87821444
    outer loop
       vertex 0.017432029 0.0023197978 0.0019484574
       vertex 0.016053791 0.0019312631 0.0022365158
       vertex 0.016152177 0.0027608258 0.0025627489
    endloop
  endfacet
  facet normal -0.1853991 -0.069080171 -0.98023217
    outer loop
       vertex 0.017432029 0.0023197978 0.0019484574
       vertex 0.017583211 0.0013011311 0.0019916518
       vertex 0.016053791 0.0019312631 0.0022365158
    endloop
  endfacet
  facet normal -0.21400175 -0.143969 -0.96616571
    outer loop
       vertex 0.017583211 0.0013011311 0.0019916518
       vertex 0.016435598 0.00078190875 0.0023232131
       vertex 0.016053791 0.0019312631 0.0022365158
    endloop
  endfacet
  facet normal -0.19229988 0.97917437 -0.065102318
    outer loop
       vertex 0.017380806 0.0038762776 0.005617875
       vertex 0.017328492 0.0037738931 0.0042324807
       vertex 0.016221105 0.0036036518 0.0049429678
    endloop
  endfacet
  facet normal 0.00070959334 0.9972781 -0.073728464
    outer loop
       vertex 0.017380806 0.0038762776 0.005617875
       vertex 0.01870232 0.0038139405 0.0047873987
       vertex 0.017328492 0.0037738931 0.0042324807
    endloop
  endfacet
  facet normal 0.044792881 0.98231717 -0.18178717
    outer loop
       vertex 0.01870232 0.0038139405 0.0047873987
       vertex 0.018486698 0.0035907752 0.003528358
       vertex 0.017328492 0.0037738931 0.0042324807
    endloop
  endfacet
  facet normal -0.18021154 0.58176649 -0.79314031
    outer loop
       vertex 0.017296215 0.0035780579 0.0029022467
       vertex 0.017432029 0.0023197978 0.0019484574
       vertex 0.016152177 0.0027608258 0.0025627489
    endloop
  endfacet
  facet normal 0.13692165 0.60773807 -0.78224478
    outer loop
       vertex 0.017296215 0.0035780579 0.0029022467
       vertex 0.018721134 0.002927684 0.0026463745
       vertex 0.017432029 0.0023197978 0.0019484574
    endloop
  endfacet
  facet normal 0.26952829 0.42214931 -0.86553132
    outer loop
       vertex 0.018721134 0.002927684 0.0026463745
       vertex 0.018671528 0.0018514607 0.0021060159
       vertex 0.017432029 0.0023197978 0.0019484574
    endloop
  endfacet
  facet normal -0.15177469 -0.2714462 -0.95041118
    outer loop
       vertex 0.016435598 0.00078190875 0.0023232131
       vertex 0.017583211 0.0013011311 0.0019916518
       vertex 0.017831418 0.00046633315 0.0021904409
    endloop
  endfacet
  facet normal -0.18065987 -0.0048521353 -0.98353366
    outer loop
       vertex 0.017831418 0.00046633315 0.0021904409
       vertex 0.017587171 0.00010482983 0.0022370885
       vertex 0.016942675 0.00027607138 0.0023546276
    endloop
  endfacet
  facet normal -0.13701112 -0.19762844 -0.97065491
    outer loop
       vertex 0.017831418 0.00046633315 0.0021904409
       vertex 0.016942675 0.00027607138 0.0023546276
       vertex 0.016435598 0.00078190875 0.0023232131
    endloop
  endfacet
  facet normal 0.19208906 -0.20504925 -0.95971694
    outer loop
       vertex 0.017583211 0.0013011311 0.0019916518
       vertex 0.019011476 0.0011317032 0.0023137207
       vertex 0.018556615 0.00051287402 0.0023548961
    endloop
  endfacet
  facet normal 0.22808455 -0.16085062 -0.96026273
    outer loop
       vertex 0.018556615 0.00051287402 0.0023548961
       vertex 0.017831418 0.00046633315 0.0021904409
       vertex 0.017583211 0.0013011311 0.0019916518
    endloop
  endfacet
  facet normal 0.43233108 -0.37241965 -0.82121462
    outer loop
       vertex 0.019011476 0.0011317032 0.0023137207
       vertex 0.019111572 0.00070974075 0.0025577761
       vertex 0.018556615 0.00051287402 0.0023548961
    endloop
  endfacet
  facet normal 0.51330877 0.85204721 0.10261417
    outer loop
       vertex 0.01973707 0.0031081655 0.0054715867
       vertex 0.019839823 0.0031045996 0.0049871911
       vertex 0.01870232 0.0038139405 0.0047873987
    endloop
  endfacet
  facet normal 0.18094018 0.97079251 0.15755176
    outer loop
       vertex 0.01870232 0.0038139405 0.0047873987
       vertex 0.018799078 0.0036325133 0.0057941837
       vertex 0.019522892 0.0034662692 0.0059872723
    endloop
  endfacet
  facet normal 0.64858475 0.72439042 -0.23365861
    outer loop
       vertex 0.01870232 0.0038139405 0.0047873987
       vertex 0.019522892 0.0034662692 0.0059872723
       vertex 0.01973707 0.0031081655 0.0054715867
    endloop
  endfacet
  facet normal 0.53092903 0.84729062 -0.014593228
    outer loop
       vertex 0.019839823 0.0031045996 0.0049871911
       vertex 0.019554732 0.0032616688 0.0037345575
       vertex 0.01870232 0.0038139405 0.0047873987
    endloop
  endfacet
  facet normal 0.32567789 0.91981251 -0.21881236
    outer loop
       vertex 0.019554732 0.0032616688 0.0037345575
       vertex 0.018486698 0.0035907752 0.003528358
       vertex 0.01870232 0.0038139405 0.0047873987
    endloop
  endfacet
  facet normal 0.34172755 0.79256767 -0.50503344
    outer loop
       vertex 0.019554732 0.0032616688 0.0037345575
       vertex 0.018721134 0.002927684 0.0026463745
       vertex 0.018486698 0.0035907752 0.003528358
    endloop
  endfacet
  facet normal 0.5153894 0.6247555 -0.58656144
    outer loop
       vertex 0.019554732 0.0032616688 0.0037345575
       vertex 0.01965058 0.0023271012 0.0028233532
       vertex 0.018721134 0.002927684 0.0026463745
    endloop
  endfacet
  facet normal 0.41104076 0.39384551 -0.82215036
    outer loop
       vertex 0.01965058 0.0023271012 0.0028233532
       vertex 0.018671528 0.0018514607 0.0021060159
       vertex 0.018721134 0.002927684 0.0026463745
    endloop
  endfacet
  facet normal 0.57848734 0.038092443 -0.81480143
    outer loop
       vertex 0.01965058 0.0023271012 0.0028233532
       vertex 0.019011476 0.0011317032 0.0023137207
       vertex 0.018671528 0.0018514607 0.0021060159
    endloop
  endfacet
  facet normal 0.70999303 -0.054280665 -0.7021136
    outer loop
       vertex 0.01965058 0.0023271012 0.0028233532
       vertex 0.020027224 0.0017091488 0.0032519987
       vertex 0.019568839 0.0010480217 0.002839581
    endloop
  endfacet
  facet normal 0.68109056 -0.052791147 -0.7302936
    outer loop
       vertex 0.019568839 0.0010480217 0.002839581
       vertex 0.019011476 0.0011317032 0.0023137207
       vertex 0.01965058 0.0023271012 0.0028233532
    endloop
  endfacet
  facet normal 0.97155936 -0.23539719 0.025701674
    outer loop
       vertex 0.025476184 -0.001523519 0.0087674439
       vertex 0.024809142 -0.0039436313 0.01181715
       vertex 0.024746734 -0.004603127 0.0081360661
    endloop
  endfacet
  facet normal 0.74087352 -0.25934804 0.61955227
    outer loop
       vertex 0.022236257 -0.005885404 0.014081023
       vertex 0.024809142 -0.0039436313 0.01181715
       vertex 0.022479182 -0.0031593645 0.014931663
    endloop
  endfacet
  facet normal 0.90821051 -0.13382439 -0.39654092
    outer loop
       vertex 0.025476184 -0.001523519 0.0087674439
       vertex 0.024746734 -0.004603127 0.0081360661
       vertex 0.02414219 -0.0010839973 0.0055638264
    endloop
  endfacet
  facet normal 0.88479198 0.33659824 -0.32224956
    outer loop
       vertex 0.025476184 -0.001523519 0.0087674439
       vertex 0.02414219 -0.0010839973 0.0055638264
       vertex 0.023833853 0.0017269842 0.0076533768
    endloop
  endfacet
  facet normal 0.85266434 0.491519 0.17712312
    outer loop
       vertex 0.025476184 -0.001523519 0.0087674439
       vertex 0.023833853 0.0017269842 0.0076533768
       vertex 0.024349202 -0.00065955323 0.011795178
    endloop
  endfacet
  facet normal 0.362891 -0.30688773 0.8798466
    outer loop
       vertex 0.022236257 -0.005885404 0.014081023
       vertex 0.022479182 -0.0031593645 0.014931663
       vertex 0.018930248 -0.0048504875 0.015805556
    endloop
  endfacet
  facet normal 0.45861552 -0.87816939 -0.13597914
    outer loop
       vertex 0.022185985 -0.0075210753 0.0074399599
       vertex 0.022864209 -0.0076834663 0.010776139
       vertex 0.018573536 -0.0096613763 0.0090786039
    endloop
  endfacet
  facet normal 0.34676106 -0.28830265 -0.89254599
    outer loop
       vertex 0.021197242 -0.0014944007 0.0030458604
       vertex 0.022279695 -0.004851142 0.004550668
       vertex 0.018300041 -0.0041306011 0.0027717986
    endloop
  endfacet
  facet normal 0.5312573 0.74393961 -0.40536346
    outer loop
       vertex 0.019522892 0.0034662692 0.0059872723
       vertex 0.02076814 0.0032344939 0.0071938941
       vertex 0.021463626 0.001200725 0.004372921
    endloop
  endfacet
  facet normal 0.69994648 0.56182401 -0.44094071
    outer loop
       vertex 0.021463626 0.001200725 0.004372921
       vertex 0.020525708 0.0019372211 0.0038224822
       vertex 0.020354064 0.0023259157 0.0040452702
    endloop
  endfacet
  facet normal 0.72462396 0.64050452 -0.25431098
    outer loop
       vertex 0.021463626 0.001200725 0.004372921
       vertex 0.020354064 0.0023259157 0.0040452702
       vertex 0.020278816 0.0025440617 0.0043802811
    endloop
  endfacet
  facet normal 0.65120392 0.72275299 -0.23143373
    outer loop
       vertex 0.01973707 0.0031081655 0.0054715867
       vertex 0.019522892 0.0034662692 0.0059872723
       vertex 0.021463626 0.001200725 0.004372921
    endloop
  endfacet
  facet normal 0.65750542 0.17273285 0.73338257
    outer loop
       vertex 0.019907514 0.0030238651 0.0053386323
       vertex 0.01973707 0.0031081655 0.0054715867
       vertex 0.021463626 0.001200725 0.004372921
    endloop
  endfacet
  facet normal 0.7480966 0.6601818 -0.067167472
    outer loop
       vertex 0.021463626 0.001200725 0.004372921
       vertex 0.020278816 0.0025440617 0.0043802811
       vertex 0.020027648 0.0029023677 0.0051045796
    endloop
  endfacet
  facet normal 0.77779968 0.62398316 0.075317167
    outer loop
       vertex 0.021463626 0.001200725 0.004372921
       vertex 0.020027648 0.0029023677 0.0051045796
       vertex 0.019907514 0.0030238651 0.0053386323
    endloop
  endfacet
  facet normal 0.23823652 0.81730245 0.52465232
    outer loop
       vertex 0.021408849 0.00034889097 0.014087797
       vertex 0.021524764 0.0024568125 0.010751446
       vertex 0.018015461 0.0018976632 0.013216008
    endloop
  endfacet
  facet normal 0.21870987 -0.59284294 0.77505048
    outer loop
       vertex 0.022236257 -0.005885404 0.014081023
       vertex 0.018930248 -0.0048504875 0.015805556
       vertex 0.018564553 -0.0083489862 0.013232718
    endloop
  endfacet
  facet normal 0.30550553 -0.84768569 -0.43369959
    outer loop
       vertex 0.022185985 -0.0075210753 0.0074399599
       vertex 0.018573536 -0.0096613763 0.0090786039
       vertex 0.018828661 -0.0076599415 0.0053464229
    endloop
  endfacet
  facet normal 0.12477546 -0.034041263 -0.99160087
    outer loop
       vertex 0.021197242 -0.0014944007 0.0030458604
       vertex 0.018300041 -0.0041306011 0.0027717986
       vertex 0.017816428 -0.00074253236 0.0025946333
    endloop
  endfacet
  facet normal 0.047143998 0.98884504 0.14129027
    outer loop
       vertex 0.01781543 0.0030866921 0.0092135356
       vertex 0.02076814 0.0032344939 0.0071938941
       vertex 0.019522892 0.0034662692 0.0059872723
    endloop
  endfacet
  facet normal 0.18289626 0.97149434 0.15082343
    outer loop
       vertex 0.019522892 0.0034662692 0.0059872723
       vertex 0.018799078 0.0036325133 0.0057941837
       vertex 0.01811243 0.003718441 0.006073365
    endloop
  endfacet
  facet normal 0.35358273 0.86110478 0.36534616
    outer loop
       vertex 0.01811243 0.003718441 0.006073365
       vertex 0.017561502 0.0038975108 0.0061844947
       vertex 0.017179224 0.0037842278 0.0068214667
    endloop
  endfacet
  facet normal 0.20834935 0.95245073 0.22232445
    outer loop
       vertex 0.017179224 0.0037842278 0.0068214667
       vertex 0.01781543 0.0030866921 0.0092135356
       vertex 0.019522892 0.0034662692 0.0059872723
    endloop
  endfacet
  facet normal 0.18261342 0.97284011 0.14224787
    outer loop
       vertex 0.019522892 0.0034662692 0.0059872723
       vertex 0.01811243 0.003718441 0.006073365
       vertex 0.017179224 0.0037842278 0.0068214667
    endloop
  endfacet
  facet normal 0.07229995 0.60482297 0.79307118
    outer loop
       vertex 0.021408849 0.00034889097 0.014087797
       vertex 0.018015461 0.0018976632 0.013216008
       vertex 0.018599066 -0.0015666334 0.015804794
    endloop
  endfacet
  facet normal -0.57535484 -0.68226216 0.4510933
    outer loop
       vertex 0.01522169 -0.0091586711 0.011157459
       vertex 0.014684422 -0.0067562613 0.014105748
       vertex 0.012166056 -0.0070537715 0.010443682
    endloop
  endfacet
  facet normal -0.61287899 -0.58468406 -0.53152977
    outer loop
       vertex 0.015404712 -0.0066837254 0.0039838388
       vertex 0.014584732 -0.008866186 0.0073300268
       vertex 0.012419706 -0.0055828363 0.0062147123
    endloop
  endfacet
  facet normal -0.69818104 0.24402979 -0.67304732
    outer loop
       vertex 0.014505313 0.00015488934 0.0041696765
       vertex 0.014369669 -0.0030808331 0.0031371949
       vertex 0.012000685 -0.0013071183 0.0062377487
    endloop
  endfacet
  facet normal -0.75123682 0.65182913 0.10374016
    outer loop
       vertex 0.015711661 0.002067241 0.011107859
       vertex 0.014755226 0.0015352612 0.0075243925
       vertex 0.013188719 -0.0007253726 0.010384702
    endloop
  endfacet
  facet normal -0.65978152 0.14359295 0.73761061
    outer loop
       vertex 0.01661579 -0.0038476521 0.015537514
       vertex 0.015669942 -0.00048759137 0.014037354
       vertex 0.013667778 -0.0042168052 0.012972426
    endloop
  endfacet
  facet normal -0.77925031 0.30064106 0.54989445
    outer loop
       vertex 0.013667778 -0.0042168052 0.012972426
       vertex 0.013188719 -0.0007253726 0.010384702
       vertex 0.011303933 -0.0036271434 0.0093002607
    endloop
  endfacet
  facet normal -0.80240799 0.28036137 0.52681962
    outer loop
       vertex 0.013667778 -0.0042168052 0.012972426
       vertex 0.015669942 -0.00048759137 0.014037354
       vertex 0.013188719 -0.0007253726 0.010384702
    endloop
  endfacet
  facet normal -0.71686554 0.53048285 0.45242871
    outer loop
       vertex 0.015669942 -0.00048759137 0.014037354
       vertex 0.015711661 0.002067241 0.011107859
       vertex 0.013188719 -0.0007253726 0.010384702
    endloop
  endfacet
  facet normal -0.85428295 0.48905858 0.17613163
    outer loop
       vertex 0.013188719 -0.0007253726 0.010384702
       vertex 0.012000685 -0.0013071183 0.0062377487
       vertex 0.011303933 -0.0036271434 0.0093002607
    endloop
  endfacet
  facet normal -0.73937209 0.6627245 0.11884924
    outer loop
       vertex 0.013188719 -0.0007253726 0.010384702
       vertex 0.014755226 0.0015352612 0.0075243925
       vertex 0.012000685 -0.0013071183 0.0062377487
    endloop
  endfacet
  facet normal -0.63499043 0.72990564 -0.25303143
    outer loop
       vertex 0.014755226 0.0015352612 0.0075243925
       vertex 0.014505313 0.00015488934 0.0041696765
       vertex 0.012000685 -0.0013071183 0.0062377487
    endloop
  endfacet
  facet normal -0.95363431 -0.091912227 -0.28658987
    outer loop
       vertex 0.012000685 -0.0013071183 0.0062377487
       vertex 0.012419706 -0.0055828363 0.0062147123
       vertex 0.011303933 -0.0036271434 0.0093002607
    endloop
  endfacet
  facet normal -0.81292152 -0.076555982 -0.57731948
    outer loop
       vertex 0.012000685 -0.0013071183 0.0062377487
       vertex 0.014369669 -0.0030808331 0.0031371949
       vertex 0.012419706 -0.0055828363 0.0062147123
    endloop
  endfacet
  facet normal -0.64020608 -0.34518829 -0.68628071
    outer loop
       vertex 0.014369669 -0.0030808331 0.0031371949
       vertex 0.015404712 -0.0066837254 0.0039838388
       vertex 0.012419706 -0.0055828363 0.0062147123
    endloop
  endfacet
  facet normal -0.94396037 -0.29005334 -0.15750517
    outer loop
       vertex 0.012419706 -0.0055828363 0.0062147123
       vertex 0.012166056 -0.0070537715 0.010443682
       vertex 0.011303933 -0.0036271434 0.0093002607
    endloop
  endfacet
  facet normal -0.76654748 -0.59089045 -0.25150236
    outer loop
       vertex 0.012419706 -0.0055828363 0.0062147123
       vertex 0.014584732 -0.008866186 0.0073300268
       vertex 0.012166056 -0.0070537715 0.010443682
    endloop
  endfacet
  facet normal -0.57213868 -0.81950916 0.032589404
    outer loop
       vertex 0.014584732 -0.008866186 0.0073300268
       vertex 0.01522169 -0.0091586711 0.011157459
       vertex 0.012166056 -0.0070537715 0.010443682
    endloop
  endfacet
  facet normal -0.8427833 -0.032765332 0.53725481
    outer loop
       vertex 0.012166056 -0.0070537715 0.010443682
       vertex 0.013667778 -0.0042168052 0.012972426
       vertex 0.011303933 -0.0036271434 0.0093002607
    endloop
  endfacet
  facet normal -0.81890907 -0.073836314 0.56915387
    outer loop
       vertex 0.012166056 -0.0070537715 0.010443682
       vertex 0.014684422 -0.0067562613 0.014105748
       vertex 0.013667778 -0.0042168052 0.012972426
    endloop
  endfacet
  facet normal -0.6597705 0.069787524 0.74821961
    outer loop
       vertex 0.014684422 -0.0067562613 0.014105748
       vertex 0.01661579 -0.0038476521 0.015537514
       vertex 0.013667778 -0.0042168052 0.012972426
    endloop
  endfacet
  facet normal -0.42382947 0.26709546 0.86546438
    outer loop
       vertex 0.018599066 -0.0015666334 0.015804794
       vertex 0.015669942 -0.00048759137 0.014037354
       vertex 0.01661579 -0.0038476521 0.015537514
    endloop
  endfacet
  facet normal -0.27689246 0.54483116 0.79151094
    outer loop
       vertex 0.018599066 -0.0015666334 0.015804794
       vertex 0.018015461 0.0018976632 0.013216008
       vertex 0.015669942 -0.00048759137 0.014037354
    endloop
  endfacet
  facet normal -0.4762887 0.66603035 0.57406676
    outer loop
       vertex 0.018015461 0.0018976632 0.013216008
       vertex 0.015711661 0.002067241 0.011107859
       vertex 0.015669942 -0.00048759137 0.014037354
    endloop
  endfacet
  facet normal -0.44606972 0.89489192 -0.013793244
    outer loop
       vertex 0.01781543 0.0030866921 0.0092135356
       vertex 0.014755226 0.0015352612 0.0075243925
       vertex 0.015711661 0.002067241 0.011107859
    endloop
  endfacet
  facet normal -0.57360354 0.7327092 0.3662188
    outer loop
       vertex 0.014755226 0.0015352612 0.0075243925
       vertex 0.01781543 0.0030866921 0.0092135356
       vertex 0.017179224 0.0037842278 0.0068214667
    endloop
  endfacet
  facet normal -0.41638031 0.86799792 0.27056799
    outer loop
       vertex 0.017179224 0.0037842278 0.0068214667
       vertex 0.016568288 0.003699793 0.0061521615
       vertex 0.016005786 0.0035075929 0.0059031089
    endloop
  endfacet
  facet normal -0.53099311 0.60539007 0.59291583
    outer loop
       vertex 0.016005786 0.0035075929 0.0059031089
       vertex 0.015628222 0.0033127934 0.005763875
       vertex 0.015374517 0.002830461 0.0060291464
    endloop
  endfacet
  facet normal -0.55914179 0.72714203 0.39827746
    outer loop
       vertex 0.015374517 0.002830461 0.0060291464
       vertex 0.014755226 0.0015352612 0.0075243925
       vertex 0.017179224 0.0037842278 0.0068214667
    endloop
  endfacet
  facet normal -0.56625094 0.62739459 0.5345427
    outer loop
       vertex 0.017179224 0.0037842278 0.0068214667
       vertex 0.016005786 0.0035075929 0.0059031089
       vertex 0.015374517 0.002830461 0.0060291464
    endloop
  endfacet
  facet normal -0.34276854 0.29858317 -0.89070636
    outer loop
       vertex 0.017816428 -0.00074253236 0.0025946333
       vertex 0.014369669 -0.0030808331 0.0031371949
       vertex 0.014505313 0.00015488934 0.0041696765
    endloop
  endfacet
  facet normal -0.11023886 -0.067587451 -0.99160442
    outer loop
       vertex 0.017816428 -0.00074253236 0.0025946333
       vertex 0.018300041 -0.0041306011 0.0027717986
       vertex 0.014369669 -0.0030808331 0.0031371949
    endloop
  endfacet
  facet normal -0.16018494 -0.26918218 -0.94967454
    outer loop
       vertex 0.018300041 -0.0041306011 0.0027717986
       vertex 0.015404712 -0.0066837254 0.0039838388
       vertex 0.014369669 -0.0030808331 0.0031371949
    endloop
  endfacet
  facet normal -0.019450034 -0.83524579 -0.54953269
    outer loop
       vertex 0.018828661 -0.0076599415 0.0053464229
       vertex 0.014584732 -0.008866186 0.0073300268
       vertex 0.015404712 -0.0066837254 0.0039838388
    endloop
  endfacet
  facet normal 0.030585428 -0.88173518 -0.47075216
    outer loop
       vertex 0.018828661 -0.0076599415 0.0053464229
       vertex 0.018573536 -0.0096613763 0.0090786039
       vertex 0.014584732 -0.008866186 0.0073300268
    endloop
  endfacet
  facet normal -0.17592637 -0.98333419 -0.045867048
    outer loop
       vertex 0.018573536 -0.0096613763 0.0090786039
       vertex 0.01522169 -0.0091586711 0.011157459
       vertex 0.014584732 -0.008866186 0.0073300268
    endloop
  endfacet
  facet normal -0.18430003 -0.77812179 0.60046647
    outer loop
       vertex 0.018564553 -0.0083489862 0.013232718
       vertex 0.014684422 -0.0067562613 0.014105748
       vertex 0.01522169 -0.0091586711 0.011157459
    endloop
  endfacet
  facet normal -0.059494499 -0.58735911 0.80713672
    outer loop
       vertex 0.018564553 -0.0083489862 0.013232718
       vertex 0.018930248 -0.0048504875 0.015805556
       vertex 0.014684422 -0.0067562613 0.014105748
    endloop
  endfacet
  facet normal -0.23633934 -0.29827845 0.92475601
    outer loop
       vertex 0.018930248 -0.0048504875 0.015805556
       vertex 0.01661579 -0.0038476521 0.015537514
       vertex 0.014684422 -0.0067562613 0.014105748
    endloop
  endfacet
  facet normal -0.19476143 0.93753879 0.28825164
    outer loop
       vertex 0.018015461 0.0018976632 0.013216008
       vertex 0.01781543 0.0030866921 0.0092135356
       vertex 0.015711661 0.002067241 0.011107859
    endloop
  endfacet
  facet normal 0.045637825 0.95821643 0.28237999
    outer loop
       vertex 0.018015461 0.0018976632 0.013216008
       vertex 0.021524764 0.0024568125 0.010751446
       vertex 0.01781543 0.0030866921 0.0092135356
    endloop
  endfacet
  facet normal 0.084837986 0.97702057 0.19553344
    outer loop
       vertex 0.021524764 0.0024568125 0.010751446
       vertex 0.02076814 0.0032344939 0.0071938941
       vertex 0.01781543 0.0030866921 0.0092135356
    endloop
  endfacet
  facet normal 0.21043683 0.4150344 -0.88513433
    outer loop
       vertex 0.021463626 0.001200725 0.004372921
       vertex 0.021197242 -0.0014944007 0.0030458604
       vertex 0.017816428 -0.00074253236 0.0025946333
    endloop
  endfacet
  facet normal 0.16048105 -0.56590434 -0.8087015
    outer loop
       vertex 0.018300041 -0.0041306011 0.0027717986
       vertex 0.018828661 -0.0076599415 0.0053464229
       vertex 0.015404712 -0.0066837254 0.0039838388
    endloop
  endfacet
  facet normal 0.25845214 -0.54375622 -0.7984558
    outer loop
       vertex 0.018300041 -0.0041306011 0.0027717986
       vertex 0.022279695 -0.004851142 0.004550668
       vertex 0.018828661 -0.0076599415 0.0053464229
    endloop
  endfacet
  facet normal 0.409575 -0.67659223 -0.61194057
    outer loop
       vertex 0.022279695 -0.004851142 0.004550668
       vertex 0.022185985 -0.0075210753 0.0074399599
       vertex 0.018828661 -0.0076599415 0.0053464229
    endloop
  endfacet
  facet normal 0.043842385 -0.95260134 0.30104575
    outer loop
       vertex 0.018573536 -0.0096613763 0.0090786039
       vertex 0.018564553 -0.0083489862 0.013232718
       vertex 0.01522169 -0.0091586711 0.011157459
    endloop
  endfacet
  facet normal 0.30480974 -0.9079798 0.28751295
    outer loop
       vertex 0.018573536 -0.0096613763 0.0090786039
       vertex 0.022864209 -0.0076834663 0.010776139
       vertex 0.018564553 -0.0083489862 0.013232718
    endloop
  endfacet
  facet normal 0.40219128 -0.76998722 0.49534013
    outer loop
       vertex 0.022864209 -0.0076834663 0.010776139
       vertex 0.022236257 -0.005885404 0.014081023
       vertex 0.018564553 -0.0083489862 0.013232718
    endloop
  endfacet
  facet normal -0.12011419 -0.011883348 0.99268896
    outer loop
       vertex 0.018930248 -0.0048504875 0.015805556
       vertex 0.018599066 -0.0015666334 0.015804794
       vertex 0.01661579 -0.0038476521 0.015537514
    endloop
  endfacet
  facet normal 0.22856241 0.023276743 0.97325095
    outer loop
       vertex 0.018930248 -0.0048504875 0.015805556
       vertex 0.022479182 -0.0031593645 0.014931663
       vertex 0.018599066 -0.0015666334 0.015804794
    endloop
  endfacet
  facet normal 0.32947445 0.31464411 0.89019418
    outer loop
       vertex 0.022479182 -0.0031593645 0.014931663
       vertex 0.021408849 0.00034889097 0.014087797
       vertex 0.018599066 -0.0015666334 0.015804794
    endloop
  endfacet
  facet normal 0.58230479 0.67800007 0.44859451
    outer loop
       vertex 0.024349202 -0.00065955323 0.011795178
       vertex 0.021524764 0.0024568125 0.010751446
       vertex 0.021408849 0.00034889097 0.014087797
    endloop
  endfacet
  facet normal 0.64672226 0.69290915 0.31879026
    outer loop
       vertex 0.024349202 -0.00065955323 0.011795178
       vertex 0.023833853 0.0017269842 0.0076533768
       vertex 0.021524764 0.0024568125 0.010751446
    endloop
  endfacet
  facet normal 0.42597374 0.89852558 0.10582129
    outer loop
       vertex 0.023833853 0.0017269842 0.0076533768
       vertex 0.02076814 0.0032344939 0.0071938941
       vertex 0.021524764 0.0024568125 0.010751446
    endloop
  endfacet
  facet normal 0.44771789 0.77404511 -0.44766379
    outer loop
       vertex 0.023833853 0.0017269842 0.0076533768
       vertex 0.021463626 0.001200725 0.004372921
       vertex 0.02076814 0.0032344939 0.0071938941
    endloop
  endfacet
  facet normal 0.66734219 0.49006757 -0.56079246
    outer loop
       vertex 0.023833853 0.0017269842 0.0076533768
       vertex 0.02414219 -0.0010839973 0.0055638264
       vertex 0.021463626 0.001200725 0.004372921
    endloop
  endfacet
  facet normal 0.59320003 0.30767943 -0.74394025
    outer loop
       vertex 0.02414219 -0.0010839973 0.0055638264
       vertex 0.021197242 -0.0014944007 0.0030458604
       vertex 0.021463626 0.001200725 0.004372921
    endloop
  endfacet
  facet normal 0.65476903 -0.12316083 -0.74572711
    outer loop
       vertex 0.02414219 -0.0010839973 0.0055638264
       vertex 0.022279695 -0.004851142 0.004550668
       vertex 0.021197242 -0.0014944007 0.0030458604
    endloop
  endfacet
  facet normal 0.80496571 -0.25373571 -0.53632862
    outer loop
       vertex 0.02414219 -0.0010839973 0.0055638264
       vertex 0.024746734 -0.004603127 0.0081360661
       vertex 0.022279695 -0.004851142 0.004550668
    endloop
  endfacet
  facet normal 0.71923213 -0.52173659 -0.45879851
    outer loop
       vertex 0.024746734 -0.004603127 0.0081360661
       vertex 0.022185985 -0.0075210753 0.0074399599
       vertex 0.022279695 -0.004851142 0.004550668
    endloop
  endfacet
  facet normal 0.6473495 0.35919985 0.67224555
    outer loop
       vertex 0.022479182 -0.0031593645 0.014931663
       vertex 0.024349202 -0.00065955323 0.011795178
       vertex 0.021408849 0.00034889097 0.014087797
    endloop
  endfacet
  facet normal 0.80914219 0.11717411 0.57581172
    outer loop
       vertex 0.022479182 -0.0031593645 0.014931663
       vertex 0.024809142 -0.0039436313 0.01181715
       vertex 0.024349202 -0.00065955323 0.011795178
    endloop
  endfacet
  facet normal 0.94063162 0.13382401 0.31193474
    outer loop
       vertex 0.024809142 -0.0039436313 0.01181715
       vertex 0.025476184 -0.001523519 0.0087674439
       vertex 0.024349202 -0.00065955323 0.011795178
    endloop
  endfacet
  facet normal 0.76010228 -0.6229576 -0.18484681
    outer loop
       vertex 0.024746734 -0.004603127 0.0081360661
       vertex 0.022864209 -0.0076834663 0.010776139
       vertex 0.022185985 -0.0075210753 0.0074399599
    endloop
  endfacet
  facet normal 0.87684886 -0.4755926 0.070340315
    outer loop
       vertex 0.024746734 -0.004603127 0.0081360661
       vertex 0.024809142 -0.0039436313 0.01181715
       vertex 0.022864209 -0.0076834663 0.010776139
    endloop
  endfacet
  facet normal 0.75237945 -0.50800964 0.41934636
    outer loop
       vertex 0.024809142 -0.0039436313 0.01181715
       vertex 0.022236257 -0.005885404 0.014081023
       vertex 0.022864209 -0.0076834663 0.010776139
    endloop
  endfacet
  facet normal -0.97551306 0.21422352 -0.049825281
    outer loop
       vertex 0.014788521 0.0016785265 0.0042868316
       vertex 0.014831737 0.0019455963 0.0045889856
       vertex 0.014864821 0.0019816075 0.004096083
    endloop
  endfacet
  facet normal 0.28140235 -0.30742383 -0.90901227
    outer loop
       vertex 0.017816428 -0.00074253236 0.0025946333
       vertex 0.017587171 0.00010482983 0.0022370885
       vertex 0.017831418 0.00046633315 0.0021904409
    endloop
  endfacet
  facet normal 0.22912657 -0.31121956 -0.92230331
    outer loop
       vertex 0.017816428 -0.00074253236 0.0025946333
       vertex 0.017831418 0.00046633315 0.0021904409
       vertex 0.018556615 0.00051287402 0.0023548961
    endloop
  endfacet
  facet normal 0.46568341 -0.066480353 -0.88245075
    outer loop
       vertex 0.020525708 0.0019372211 0.0038224822
       vertex 0.021463626 0.001200725 0.004372921
       vertex 0.017816428 -0.00074253236 0.0025946333
    endloop
  endfacet
  facet normal 0.7736464 -0.15280937 -0.61491507
    outer loop
       vertex 0.019568839 0.0010480217 0.002839581
       vertex 0.020027224 0.0017091488 0.0032519987
       vertex 0.020525708 0.0019372211 0.0038224822
    endloop
  endfacet
  facet normal 0.43806681 -0.41096076 -0.7995053
    outer loop
       vertex 0.017816428 -0.00074253236 0.0025946333
       vertex 0.018556615 0.00051287402 0.0023548961
       vertex 0.019111572 0.00070974075 0.0025577761
    endloop
  endfacet
  facet normal 0.38230306 -0.83911744 0.38694482
    outer loop
       vertex 0.019111572 0.00070974075 0.0025577761
       vertex 0.019568839 0.0010480217 0.002839581
       vertex 0.020525708 0.0019372211 0.0038224822
    endloop
  endfacet
  facet normal 0.73180291 -0.65720405 -0.1804088
    outer loop
       vertex 0.019111572 0.00070974075 0.0025577761
       vertex 0.020525708 0.0019372211 0.0038224822
       vertex 0.017816428 -0.00074253236 0.0025946333
    endloop
  endfacet
  facet normal 0.74353982 0.66751047 -0.039727902
    outer loop
       vertex 0.020179369 0.0026684669 0.004014139
       vertex 0.019839823 0.0031045996 0.0049871911
       vertex 0.020027648 0.0029023677 0.0051045796
    endloop
  endfacet
  facet normal 0.80333623 0.59531286 -0.015921536
    outer loop
       vertex 0.020027648 0.0029023677 0.0051045796
       vertex 0.020278816 0.0025440617 0.0043802811
       vertex 0.020179369 0.0026684669 0.004014139
    endloop
  endfacet
  facet normal -0.82025985 0.55445522 0.14054602
    outer loop
       vertex 0.014755226 0.0015352612 0.0075243925
       vertex 0.015374517 0.002830461 0.0060291464
       vertex 0.015102592 0.002650222 0.0051531709
    endloop
  endfacet
  facet normal -0.65568003 -0.5167362 0.55051557
    outer loop
       vertex 0.014831737 0.0019455963 0.0045889856
       vertex 0.014788521 0.0016785265 0.0042868316
       vertex 0.014825589 0.0012086351 0.0038899211
    endloop
  endfacet
  facet normal -0.93928461 0.3423421 0.023373117
    outer loop
       vertex 0.014755226 0.0015352612 0.0075243925
       vertex 0.015102592 0.002650222 0.0051531709
       vertex 0.014831737 0.0019455963 0.0045889856
    endloop
  endfacet
  facet normal -0.95903803 0.27988331 -0.043719519
    outer loop
       vertex 0.014825589 0.0012086351 0.0038899211
       vertex 0.014505313 0.00015488934 0.0041696765
       vertex 0.014755226 0.0015352612 0.0075243925
    endloop
  endfacet
  facet normal -0.99933283 0.029176502 -0.021968858
    outer loop
       vertex 0.014831737 0.0019455963 0.0045889856
       vertex 0.014825589 0.0012086351 0.0038899211
       vertex 0.014755226 0.0015352612 0.0075243925
    endloop
  endfacet
  facet normal 0.64035643 -0.26505052 -0.72089656
    outer loop
       vertex 0.019568839 0.0010480217 0.002839581
       vertex 0.019111572 0.00070974075 0.0025577761
       vertex 0.019011476 0.0011317032 0.0023137207
    endloop
  endfacet
  facet normal -0.76617758 0.06308691 -0.63952479
    outer loop
       vertex 0.014505313 0.00015488934 0.0041696765
       vertex 0.014825589 0.0012086351 0.0038899211
       vertex 0.015220047 0.00096014824 0.0033928309
    endloop
  endfacet
  facet normal -0.68716373 -0.086022778 -0.72139177
    outer loop
       vertex 0.014505313 0.00015488934 0.0041696765
       vertex 0.015220047 0.00096014824 0.0033928309
       vertex 0.015569818 0.00069625973 0.0030911231
    endloop
  endfacet
  facet normal -0.4801589 -0.44809799 -0.75409258
    outer loop
       vertex 0.017587171 0.00010482983 0.0022370885
       vertex 0.017816428 -0.00074253236 0.0025946333
       vertex 0.014505313 0.00015488934 0.0041696765
    endloop
  endfacet
  facet normal -0.30066778 -0.88118394 -0.36484758
    outer loop
       vertex 0.016356263 0.00037686565 0.0025944459
       vertex 0.016942675 0.00027607138 0.0023546276
       vertex 0.017587171 0.00010482983 0.0022370885
    endloop
  endfacet
  facet normal -0.5944446 -0.30964889 -0.74212747
    outer loop
       vertex 0.014505313 0.00015488934 0.0041696765
       vertex 0.015569818 0.00069625973 0.0030911231
       vertex 0.016356263 0.00037686565 0.0025944459
    endloop
  endfacet
  facet normal -0.32162 -0.80905584 -0.49192401
    outer loop
       vertex 0.016356263 0.00037686565 0.0025944459
       vertex 0.017587171 0.00010482983 0.0022370885
       vertex 0.014505313 0.00015488934 0.0041696765
    endloop
  endfacet
  facet normal 0.50289264 0.85850302 0.10035711
    outer loop
       vertex 0.01973707 0.0031081655 0.0054715867
       vertex 0.019907514 0.0030238651 0.0053386323
       vertex 0.019839823 0.0031045996 0.0049871911
    endloop
  endfacet
  facet normal -0.8377845 0.52436552 0.15217732
    outer loop
       vertex 0.015102592 0.002650222 0.0051531709
       vertex 0.015374517 0.002830461 0.0060291464
       vertex 0.015628222 0.0033127934 0.005763875
    endloop
  endfacet
  facet normal -0.84435313 0.50509424 0.17873891
    outer loop
       vertex 0.015628222 0.0033127934 0.005763875
       vertex 0.015239776 0.003069775 0.0046156165
       vertex 0.015102592 0.002650222 0.0051531709
    endloop
  endfacet
  facet normal 0.18523308 0.97007054 0.15700908
    outer loop
       vertex 0.01811243 0.003718441 0.006073365
       vertex 0.018799078 0.0036325133 0.0057941837
       vertex 0.01870232 0.0038139405 0.0047873987
    endloop
  endfacet
  facet normal 0.12956494 0.98269038 0.13241053
    outer loop
       vertex 0.01870232 0.0038139405 0.0047873987
       vertex 0.017380806 0.0038762776 0.005617875
       vertex 0.01811243 0.003718441 0.006073365
    endloop
  endfacet
  facet normal 0.72755088 0.68583254 0.017419327
    outer loop
       vertex 0.019907514 0.0030238651 0.0053386323
       vertex 0.020027648 0.0029023677 0.0051045796
       vertex 0.019839823 0.0031045996 0.0049871911
    endloop
  endfacet
  facet normal -0.40304297 -0.45340189 -0.79497364
    outer loop
       vertex 0.016942675 0.00027607138 0.0023546276
       vertex 0.016356263 0.00037686565 0.0025944459
       vertex 0.016435598 0.00078190875 0.0023232131
    endloop
  endfacet
  facet normal 0.2835609 0.95063359 -0.12605156
    outer loop
       vertex 0.017561502 0.0038975108 0.0061844947
       vertex 0.01811243 0.003718441 0.006073365
       vertex 0.017380806 0.0038762776 0.005617875
    endloop
  endfacet
  facet normal -0.4547163 0.89054323 -0.012878062
    outer loop
       vertex 0.015628222 0.0033127934 0.005763875
       vertex 0.016005786 0.0035075929 0.0059031089
       vertex 0.016221105 0.0036036518 0.0049429678
    endloop
  endfacet
  facet normal -0.47063323 0.8819023 -0.027435331
    outer loop
       vertex 0.016221105 0.0036036518 0.0049429678
       vertex 0.015239776 0.003069775 0.0046156165
       vertex 0.015628222 0.0033127934 0.005763875
    endloop
  endfacet
  facet normal -0.93987646 0.34052951 0.025921047
    outer loop
       vertex 0.014831737 0.0019455963 0.0045889856
       vertex 0.015102592 0.002650222 0.0051531709
       vertex 0.015239776 0.003069775 0.0046156165
    endloop
  endfacet
  facet normal -0.93902495 0.34173611 -0.038060201
    outer loop
       vertex 0.015239776 0.003069775 0.0046156165
       vertex 0.014864821 0.0019816075 0.004096083
       vertex 0.014831737 0.0019455963 0.0045889856
    endloop
  endfacet
  facet normal -0.19668564 0.97886339 0.056046596
    outer loop
       vertex 0.016568288 0.003699793 0.0061521615
       vertex 0.017179224 0.0037842278 0.0068214667
       vertex 0.017561502 0.0038975108 0.0061844947
    endloop
  endfacet
  facet normal -0.19597973 0.98026943 0.025764278
    outer loop
       vertex 0.017561502 0.0038975108 0.0061844947
       vertex 0.017380806 0.0038762776 0.005617875
       vertex 0.016568288 0.003699793 0.0061521615
    endloop
  endfacet
endsolid ExportedfromBlender-2.79(sub0)
